<svg width="80" height="80" viewBox="0 0 80 80" fill="none" xmlns="http://www.w3.org/2000/svg">
<g clip-path="url(#clip0_1244_53841)" filter="url(#filter0_b_1244_53841)">
<g clip-path="url(#clip1_1244_53841)">
<path d="M39.866 74.0178C58.5492 74.0178 74.0177 58.5158 74.0177 39.8661C74.0177 21.1831 58.5157 5.71436 39.8326 5.71436C21.183 5.71436 5.71429 21.1831 5.71429 39.8661C5.71429 58.5158 21.2165 74.0178 39.866 74.0178ZM33.5045 53.3595C31.8973 54.3304 30.0558 53.5604 30.0558 51.8864V27.8795C30.0558 26.2389 32.0313 25.5358 33.5045 26.4063L53.1586 38.0581C54.5649 38.8952 54.5983 40.9041 53.1586 41.7746L33.5045 53.3595Z" fill="white" fill-opacity="0.7"/>
</g>
</g>
<defs>
<filter id="filter0_b_1244_53841" x="-20" y="-20" width="120" height="120" filterUnits="userSpaceOnUse" color-interpolation-filters="sRGB">
<feFlood flood-opacity="0" result="BackgroundImageFix"/>
<feGaussianBlur in="BackgroundImageFix" stdDeviation="10"/>
<feComposite in2="SourceAlpha" operator="in" result="effect1_backgroundBlur_1244_53841"/>
<feBlend mode="normal" in="SourceGraphic" in2="effect1_backgroundBlur_1244_53841" result="shape"/>
</filter>
<clipPath id="clip0_1244_53841">
<rect width="80" height="80" fill="white"/>
</clipPath>
<clipPath id="clip1_1244_53841">
<rect width="68.3034" height="68.3371" fill="white" transform="translate(5.71429 5.71436)"/>
</clipPath>
</defs>
</svg>
