<svg width="56" height="56" viewBox="0 0 56 56" fill="none" xmlns="http://www.w3.org/2000/svg">
<g filter="url(#filter0_d_1244_54564)">
<rect x="8" y="6" width="40" height="40" rx="4" fill="#9AE343"/>
</g>
<g filter="url(#filter1_d_1244_54564)">
<path fill-rule="evenodd" clip-rule="evenodd" d="M38 22.7844V31.7079C38 32.8975 37.0098 33.8621 35.7885 33.8621H20.2115C18.9902 33.8621 18 32.8975 18 31.7079V22.7844C18 21.5947 18.9902 20.6302 20.2115 20.6302H22.9317V19.8849C22.9317 18.8439 23.7975 18 24.8668 18H31.1332C32.2025 18 33.0683 18.8439 33.0683 19.8849V20.6297H35.7885C37.0098 20.6302 38 21.5947 38 22.7844ZM31.2255 27.2456C31.2255 28.9781 29.7786 30.3874 28 30.3874C26.2214 30.3874 24.775 28.9781 24.775 27.2456C24.775 25.5131 26.2214 24.1038 28 24.1038C29.7786 24.1038 31.2255 25.5137 31.2255 27.2456ZM28 22.4882C30.6931 22.4882 32.8842 24.6224 32.8842 27.2456C32.8842 29.8688 30.6931 32.003 28 32.003C25.3075 32.003 23.1164 29.8688 23.1164 27.2456C23.1164 24.6224 25.3075 22.4882 28 22.4882Z" fill="white"/>
</g>
<defs>
<filter id="filter0_d_1244_54564" x="0" y="0" width="56" height="56" filterUnits="userSpaceOnUse" color-interpolation-filters="sRGB">
<feFlood flood-opacity="0" result="BackgroundImageFix"/>
<feColorMatrix in="SourceAlpha" type="matrix" values="0 0 0 0 0 0 0 0 0 0 0 0 0 0 0 0 0 0 127 0" result="hardAlpha"/>
<feOffset dy="2"/>
<feGaussianBlur stdDeviation="4"/>
<feComposite in2="hardAlpha" operator="out"/>
<feColorMatrix type="matrix" values="0 0 0 0 0 0 0 0 0 0 0 0 0 0 0 0 0 0 0.5 0"/>
<feBlend mode="normal" in2="BackgroundImageFix" result="effect1_dropShadow_1244_54564"/>
<feBlend mode="normal" in="SourceGraphic" in2="effect1_dropShadow_1244_54564" result="shape"/>
</filter>
<filter id="filter1_d_1244_54564" x="2" y="4" width="52" height="47.8621" filterUnits="userSpaceOnUse" color-interpolation-filters="sRGB">
<feFlood flood-opacity="0" result="BackgroundImageFix"/>
<feColorMatrix in="SourceAlpha" type="matrix" values="0 0 0 0 0 0 0 0 0 0 0 0 0 0 0 0 0 0 127 0" result="hardAlpha"/>
<feOffset dy="2"/>
<feGaussianBlur stdDeviation="8"/>
<feColorMatrix type="matrix" values="0 0 0 0 0 0 0 0 0 0 0 0 0 0 0 0 0 0 0.5 0"/>
<feBlend mode="normal" in2="BackgroundImageFix" result="effect1_dropShadow_1244_54564"/>
<feBlend mode="normal" in="SourceGraphic" in2="effect1_dropShadow_1244_54564" result="shape"/>
</filter>
</defs>
</svg>
