<svg width="250" height="186" viewBox="0 0 250 186" fill="none" xmlns="http://www.w3.org/2000/svg">
<path fill-rule="evenodd" clip-rule="evenodd" d="M121.35 175.884C120.931 175.494 113.603 168.874 88.4296 156.326C79.7251 151.987 72.2345 144.549 66.7677 134.816C61.5669 125.557 58.7026 114.892 58.7026 104.786V101.974L61.1569 100.808C61.8543 100.436 72.3309 94.5603 72.3309 77.6107C72.3309 62.4353 68.1794 50.0531 65.9839 45.626L64.5633 42.7611L66.8255 40.4925L90.4277 16.9614L93.5876 20.1114C93.7034 20.2258 106.258 32.3937 124.499 32.3937C142.74 32.3937 155.295 20.2258 155.42 20.1029L158.579 16.9882L161.73 20.1114L184.45 42.763L183.009 45.6346C180.819 50.0531 176.667 62.4353 176.667 77.6107C176.667 94.5551 187.137 100.433 187.841 100.808L190.371 102.011L190.295 104.786C190.295 114.892 187.431 125.557 182.23 134.816C176.763 144.549 169.273 151.987 160.569 156.326C135.314 168.915 128.021 175.537 127.645 175.887L124.442 179.198L121.35 175.884Z" fill="#191919"/>
<mask id="mask0_1244_53602" style="mask-type:luminance" maskUnits="userSpaceOnUse" x="53" y="10" width="142" height="176">
<path fill-rule="evenodd" clip-rule="evenodd" d="M53.901 10.5876H194.764V186H53.901V10.5876Z" fill="white"/>
</mask>
<g mask="url(#mask0_1244_53602)">
<path fill-rule="evenodd" clip-rule="evenodd" d="M158.497 10.5876L152.268 16.9434C151.737 17.4483 140.478 27.9389 124.499 27.9389C108.214 27.9389 96.8571 17.0711 96.7473 16.9612L90.4278 10.6612L84.1087 16.9612L63.666 37.3422L59.0672 41.9275L61.9822 47.6079C62.2324 48.131 67.8626 60.1226 67.8626 77.6108C67.8626 83.657 66.3873 88.7215 63.478 92.663C61.5249 95.3089 59.5089 96.6027 59.0937 96.8525L53.901 99.1791L54.2343 104.786C54.2343 115.641 57.3007 127.079 62.8691 136.993C68.7753 147.507 76.9227 155.571 86.4312 160.311C110.008 172.064 117.494 178.426 118.23 179.077L124.713 186L130.782 179.064C131.598 178.346 139.136 171.99 162.567 160.311C172.075 155.571 180.223 147.507 186.129 136.993C191.697 127.079 194.764 115.641 194.764 104.786V99.0217L189.904 96.8521C189.487 96.6008 187.472 95.307 185.52 92.663C182.611 88.7215 181.135 83.657 181.135 77.6108C181.135 60.1345 186.758 48.1473 187.016 47.609L189.968 41.8543L185.332 37.3422L164.889 16.9612L158.497 10.5876ZM158.57 23.2616L179.013 43.6426C179.013 43.6426 172.199 57.2298 172.199 77.6108C172.199 97.9919 185.827 104.786 185.827 104.786C185.827 123.808 174.924 144.189 158.57 152.341C131.313 165.929 124.499 172.722 124.499 172.722C124.499 172.722 117.685 165.929 90.4278 152.341C74.0737 144.189 63.1711 123.808 63.1711 104.786C63.1711 104.786 76.7995 97.9919 76.7995 77.6108C76.7995 57.2298 69.9851 43.6426 69.9851 43.6426L90.4278 23.2616C90.4278 23.2616 104.057 36.8488 124.499 36.8488C144.942 36.8488 158.57 23.2616 158.57 23.2616Z" fill="url(#paint0_linear_1244_53602)"/>
</g>
<mask id="mask1_1244_53602" style="mask-type:luminance" maskUnits="userSpaceOnUse" x="42" y="0" width="48" height="91">
<path fill-rule="evenodd" clip-rule="evenodd" d="M42.2488 0H89.0067V90.0424H42.2488V0Z" fill="white"/>
</mask>
<g mask="url(#mask1_1244_53602)">
<path fill-rule="evenodd" clip-rule="evenodd" d="M87.2793 87.5371C82.7007 83.962 78.6009 79.8163 75.0798 75.2017C84.1272 75.1468 88.5599 67.0644 88.9952 61.9174C89.0946 61.133 88.5376 60.4168 87.7508 60.3174C87.731 60.3151 87.7113 60.3129 87.6916 60.3114C82.723 59.5578 73.9552 61.8213 71.6491 70.2033C71.1591 69.4103 68.0301 63.5758 67.1465 61.473C76.8765 59.0425 78.8914 49.6552 77.7422 44.2602C77.5754 43.5385 76.885 43.0619 76.1485 43.1606C73.5359 43.4012 65.8707 46.5081 64.2282 52.9411C63.1152 48.7267 62.3813 44.4214 62.0357 40.077C71.6827 39.7797 75.9764 31.5265 76.0115 25.4811C76.0893 24.7104 75.5259 24.0225 74.7525 23.9449C74.7033 23.9397 74.6542 23.9375 74.6046 23.9379C73.0094 23.6806 65.2749 24.6718 61.9575 29.6836C61.9668 29.6565 62.6505 22.9481 62.9592 21.3655C71.1051 15.0224 69.4782 5.6841 65.4812 0.593211C65.0292 -0.0412478 64.147 -0.190117 63.5106 0.260204C63.4883 0.276167 63.466 0.292873 63.4444 0.310322C58.2025 4.16905 54.131 12.6283 60.1612 20.9278C60.0785 21.5133 59.9124 22.2758 59.7817 23.1713C56.3727 16.8894 47.9955 15.9776 44.8419 16.644C44.0626 16.7116 43.4861 17.3965 43.5543 18.1732C43.5599 18.2367 43.5695 18.2998 43.5837 18.3618C44.3366 24.3381 49.5256 31.9234 59.0538 31.1913C58.9659 33.4291 59.2913 41.2624 59.4544 42.6587C58.1083 41.2814 56.4691 40.2229 54.6576 39.5625C50.8899 38.3329 46.8021 38.5141 43.1588 40.0722C42.9157 40.1624 42.7015 40.3169 42.5396 40.5188C42.2219 40.9409 42.1597 41.5023 42.3768 41.9834C43.4891 44.5105 45.1979 46.7316 47.3573 48.4579C51.1651 51.3859 56.226 52.1288 60.719 50.4196C61.5732 54.3949 62.7815 58.2859 64.3291 62.0474C58.7909 58.6167 51.1432 61.528 49.2616 62.9925C48.5764 63.3827 48.3385 64.2525 48.7295 64.9353C48.7511 64.9728 48.7741 65.0095 48.7991 65.0452C52.709 71.1934 60.7857 74.6422 68.4118 70.3068C72.837 77.8104 78.6486 84.4097 85.5393 89.7556C86.1604 90.226 87.0466 90.1054 87.5184 89.4861C87.9809 88.8788 87.8751 88.0152 87.2793 87.5371Z" fill="url(#paint1_linear_1244_53602)"/>
</g>
<mask id="mask2_1244_53602" style="mask-type:luminance" maskUnits="userSpaceOnUse" x="153" y="0" width="48" height="91">
<path fill-rule="evenodd" clip-rule="evenodd" d="M153.644 0H200.402V90.0424H153.644V0Z" fill="white"/>
</mask>
<g mask="url(#mask2_1244_53602)">
<path fill-rule="evenodd" clip-rule="evenodd" d="M155.372 87.5371C159.95 83.962 164.05 79.8163 167.571 75.2017C158.524 75.1468 154.091 67.0644 153.656 61.9174C153.557 61.133 154.114 60.4168 154.9 60.3174C154.92 60.3151 154.94 60.3129 154.96 60.3114C159.928 59.5578 168.696 61.8213 171.002 70.2033C171.492 69.4103 174.621 63.5758 175.505 61.473C165.775 59.0425 163.76 49.6552 164.909 44.2602C165.076 43.5385 165.766 43.0619 166.503 43.1606C169.115 43.4012 176.78 46.5081 178.423 52.9411C179.536 48.7267 180.27 44.4214 180.615 40.077C170.969 39.7797 166.675 31.5265 166.64 25.4811C166.562 24.7104 167.125 24.0225 167.899 23.9449C167.948 23.9397 167.997 23.9375 168.047 23.9379C169.642 23.6806 177.376 24.6718 180.694 29.6836C180.684 29.6565 180.001 22.9481 179.692 21.3655C171.546 15.0224 173.173 5.6841 177.17 0.593211C177.622 -0.0412478 178.504 -0.190117 179.141 0.260204C179.163 0.276167 179.185 0.292873 179.207 0.310322C184.449 4.16905 188.52 12.6283 182.49 20.9278C182.573 21.5133 182.739 22.2758 182.869 23.1713C186.278 16.8894 194.656 15.9776 197.81 16.644C198.589 16.7116 199.165 17.3965 199.097 18.1732C199.091 18.2367 199.082 18.2998 199.067 18.3618C198.315 24.3381 193.126 31.9234 183.597 31.1913C183.685 33.4291 183.36 41.2624 183.197 42.6587C184.543 41.2814 186.182 40.2229 187.994 39.5625C191.761 38.3329 195.849 38.5141 199.492 40.0722C199.736 40.1624 199.95 40.3169 200.112 40.5188C200.429 40.9409 200.491 41.5023 200.274 41.9834C199.162 44.5105 197.453 46.7316 195.294 48.4579C191.486 51.3859 186.425 52.1288 181.932 50.4196C181.078 54.3949 179.87 58.2859 178.322 62.0474C183.86 58.6167 191.508 61.528 193.39 62.9925C194.075 63.3827 194.313 64.2525 193.922 64.9353C193.9 64.9728 193.877 65.0095 193.852 65.0452C189.942 71.1934 181.866 74.6422 174.239 70.3068C169.814 77.8104 164.003 84.4097 157.112 89.7556C156.491 90.226 155.605 90.1054 155.133 89.4861C154.67 88.8788 154.776 88.0152 155.372 87.5371Z" fill="url(#paint2_linear_1244_53602)"/>
</g>
<mask id="mask3_1244_53602" style="mask-type:luminance" maskUnits="userSpaceOnUse" x="0" y="73" width="57" height="65">
<path fill-rule="evenodd" clip-rule="evenodd" d="M0 73.5259H56.3825V137.453H0V73.5259Z" fill="white"/>
</mask>
<g mask="url(#mask3_1244_53602)">
<path fill-rule="evenodd" clip-rule="evenodd" d="M53.4993 137.31L1.36053 117.318C0.271352 116.9 -0.275286 115.683 0.137671 114.595L5.78018 99.7221C5.93211 99.3219 5.95855 98.885 5.85614 98.4696L0.359603 76.1492C-0.0488859 74.4901 1.58246 73.0571 3.18179 73.6707L55.0226 93.5487C55.8419 93.8631 56.3825 94.648 56.3825 95.5234V135.336C56.3825 136.821 54.889 137.843 53.4993 137.31Z" fill="#1C1C1C"/>
</g>
<path fill-rule="evenodd" clip-rule="evenodd" d="M196.501 137.31L248.639 117.318C249.729 116.9 250.275 115.683 249.862 114.595L244.22 99.7221C244.068 99.3219 244.041 98.885 244.144 98.4696L249.64 76.1492C250.049 74.4901 248.417 73.0571 246.818 73.6707L194.977 93.5487C194.158 93.8631 193.617 94.648 193.617 95.5234V135.336C193.617 136.821 195.111 137.843 196.501 137.31Z" fill="url(#paint3_linear_1244_53602)"/>
<path fill-rule="evenodd" clip-rule="evenodd" d="M206.918 119.485L123.16 155.421L39.1802 119.484C37.7432 119.153 36.7255 117.878 36.7255 116.407V73.3897C36.7255 71.3586 38.6213 69.8558 40.606 70.3132L123.048 105.92L205.491 70.3132C207.475 69.8558 209.371 71.3586 209.371 73.3897V116.409C209.371 117.878 208.354 119.154 206.918 119.485Z" fill="#C9F249"/>
<path fill-rule="evenodd" clip-rule="evenodd" d="M206.918 114.292L123.16 150.228L39.1802 114.291C37.7432 113.961 36.7255 112.685 36.7255 111.215V68.1971C36.7255 66.166 38.6213 64.6632 40.606 65.1206L123.048 100.727L205.491 65.1206C207.475 64.6632 209.371 66.166 209.371 68.1971V111.216C209.371 112.686 208.354 113.961 206.918 114.292Z" fill="url(#paint4_linear_1244_53602)"/>
<path fill-rule="evenodd" clip-rule="evenodd" d="M81.7243 120.395H85.1907V132.511H92.701V135.327H81.7243V120.395Z" fill="white"/>
<path fill-rule="evenodd" clip-rule="evenodd" d="M106.244 132.554V135.327H94.6474V120.395H105.966V123.168H98.0926V126.41H105.046V129.098H98.0926V132.554H106.244Z" fill="white"/>
<path fill-rule="evenodd" clip-rule="evenodd" d="M117.777 129.504L115.402 123.787L113.027 129.504H117.777ZM118.868 132.127H111.914L110.588 135.327H107.036L113.712 120.395H117.135L123.832 135.327H120.195L118.868 132.127Z" fill="white"/>
<path fill-rule="evenodd" clip-rule="evenodd" d="M135.301 127.626H138.467V133.684C137.654 134.296 136.713 134.765 135.643 135.092C134.573 135.42 133.496 135.583 132.412 135.583C130.857 135.583 129.459 135.252 128.218 134.591C126.977 133.93 126.004 133.013 125.298 131.84C124.592 130.666 124.239 129.34 124.239 127.861C124.239 126.382 124.592 125.056 125.298 123.883C126.004 122.709 126.984 121.792 128.24 121.131C129.495 120.469 130.907 120.139 132.477 120.139C133.788 120.139 134.98 120.36 136.049 120.8C137.119 121.241 138.018 121.881 138.745 122.72L136.52 124.768C135.45 123.644 134.159 123.083 132.647 123.083C131.692 123.083 130.843 123.282 130.102 123.68C129.359 124.078 128.782 124.64 128.368 125.365C127.954 126.09 127.748 126.922 127.748 127.861C127.748 128.786 127.954 129.61 128.368 130.336C128.782 131.061 129.356 131.626 130.091 132.031C130.825 132.437 131.663 132.639 132.605 132.639C133.603 132.639 134.501 132.426 135.301 131.999V127.626Z" fill="white"/>
<path fill-rule="evenodd" clip-rule="evenodd" d="M143.335 133.812C142.144 132.632 141.548 130.947 141.548 128.757V120.395H145.015V128.629C145.015 131.303 146.127 132.639 148.353 132.639C149.436 132.639 150.264 132.316 150.834 131.669C151.405 131.022 151.69 130.009 151.69 128.629V120.395H155.114V128.757C155.114 130.947 154.518 132.632 153.327 133.812C152.136 134.993 150.471 135.583 148.331 135.583C146.191 135.583 144.526 134.993 143.335 133.812Z" fill="white"/>
<path fill-rule="evenodd" clip-rule="evenodd" d="M170.134 132.554V135.327H158.537V120.395H169.856V123.168H161.982V126.41H168.936V129.098H161.982V132.554H170.134Z" fill="white"/>
<path fill-rule="evenodd" clip-rule="evenodd" d="M65.0648 106.794H74.3722V103.07H65.0648V97.7721H75.6073V94.0488H60.4109V112.776C61.7433 112.471 63.3013 112.123 65.0648 111.741V106.794Z" fill="url(#paint5_linear_1244_53602)"/>
<path fill-rule="evenodd" clip-rule="evenodd" d="M90.4014 103.901C89.6734 104.512 88.6103 104.818 87.2128 104.818H83.421V97.8296H87.2128C88.6103 97.8296 89.6734 98.1299 90.4014 98.7313C91.129 99.3328 91.4932 100.197 91.4932 101.323C91.4932 102.431 91.129 103.29 90.4014 103.901ZM95.1268 105.175C95.8451 104.097 96.204 102.812 96.204 101.323C96.204 99.8343 95.8495 98.5454 95.1413 97.4572C94.4327 96.3687 93.422 95.5286 92.1106 94.9368C90.7987 94.3451 89.2523 94.0488 87.4712 94.0488H78.7671V108.99C83.367 108.132 88.5127 107.236 94.1009 106.362C94.4915 106.007 94.8356 105.613 95.1268 105.175Z" fill="url(#paint6_linear_1244_53602)"/>
<path fill-rule="evenodd" clip-rule="evenodd" d="M104.535 94.0488H99.8806V105.49C101.405 105.268 102.957 105.05 104.535 104.835V94.0488Z" fill="url(#paint7_linear_1244_53602)"/>
<path fill-rule="evenodd" clip-rule="evenodd" d="M123.264 102.125H113.928V97.7721H124.499V94.0488H109.303V104.207C113.79 103.638 118.456 103.106 123.264 102.633V102.125Z" fill="url(#paint8_linear_1244_53602)"/>
<path fill-rule="evenodd" clip-rule="evenodd" d="M132.427 94.0488H128.578V102.139C131.818 101.856 135.114 101.604 138.454 101.386L132.427 94.0488Z" fill="url(#paint9_linear_1244_53602)"/>
<path fill-rule="evenodd" clip-rule="evenodd" d="M147.02 94.0488H142.424V101.145C143.948 101.06 145.481 100.983 147.02 100.914V94.0488Z" fill="url(#paint10_linear_1244_53602)"/>
<path fill-rule="evenodd" clip-rule="evenodd" d="M156.443 97.8582H160.694C162.705 97.8582 164.309 98.4165 165.506 99.5336C165.828 99.8347 166.104 100.167 166.34 100.526C168.045 100.536 169.753 100.558 171.464 100.594C171.247 99.9631 170.965 99.3658 170.619 98.8034C169.69 97.295 168.388 96.1252 166.712 95.2947C165.036 94.4643 163.107 94.0488 160.924 94.0488H151.789V100.728C153.335 100.677 154.886 100.635 156.443 100.602V97.8582Z" fill="url(#paint11_linear_1244_53602)"/>
<path fill-rule="evenodd" clip-rule="evenodd" d="M178.964 99.7196C178.964 99.0321 179.275 98.4786 179.898 98.0583C180.52 97.6388 181.482 97.4283 182.785 97.4283C184.642 97.4283 186.5 97.9536 188.358 99.0035L189.794 95.4807C188.875 94.9079 187.802 94.4687 186.576 94.1632C185.35 93.858 184.096 93.7051 182.813 93.7051C180.975 93.7051 179.419 93.982 178.145 94.5356C176.871 95.0895 175.919 95.8386 175.287 96.7838C174.655 97.729 174.339 98.7841 174.339 99.9487C174.339 100.199 174.356 100.438 174.38 100.669C176.07 100.72 177.761 100.784 179.453 100.862C179.129 100.56 178.964 100.18 178.964 99.7196Z" fill="url(#paint12_linear_1244_53602)"/>
<path fill-rule="evenodd" clip-rule="evenodd" d="M65.0648 114.097V111.741C63.3013 112.122 61.7433 112.471 60.4109 112.776V114.097H65.0648Z" fill="#F3FFAE"/>
<path fill-rule="evenodd" clip-rule="evenodd" d="M83.4209 114.097V108.512H87.4712H87.7013L91.5792 114.097H96.5778L92.0677 107.653C92.8527 107.313 93.5285 106.881 94.1008 106.362C88.5127 107.236 83.3669 108.132 78.7671 108.989V114.097H83.4209Z" fill="#F3FFAE"/>
<path fill-rule="evenodd" clip-rule="evenodd" d="M104.535 114.097V104.835C102.957 105.05 101.405 105.268 99.8806 105.49V114.097H104.535Z" fill="#F3FFAE"/>
<path fill-rule="evenodd" clip-rule="evenodd" d="M124.872 114.097V110.374H113.928V105.734H123.264V102.633C118.456 103.106 113.79 103.638 109.303 104.207V114.097H124.872Z" fill="#F3FFAE"/>
<path fill-rule="evenodd" clip-rule="evenodd" d="M133.174 114.097V101.925L143.199 114.097H147.02V100.914C145.481 100.983 143.948 101.06 142.424 101.145V106.221L138.454 101.386C135.114 101.604 131.818 101.856 128.578 102.139V114.097H133.174Z" fill="#F3FFAE"/>
<path fill-rule="evenodd" clip-rule="evenodd" d="M160.924 114.097C163.107 114.097 165.036 113.682 166.712 112.851C168.388 112.02 169.69 110.851 170.619 109.343C171.548 107.835 172.012 106.077 172.012 104.073C172.012 102.815 171.829 101.656 171.464 100.594C169.753 100.558 168.045 100.536 166.339 100.525C166.978 101.497 167.301 102.678 167.301 104.073C167.301 105.982 166.703 107.495 165.506 108.612C164.309 109.729 162.705 110.287 160.694 110.287H156.443V100.602C154.886 100.635 153.334 100.677 151.789 100.727V114.097H160.924Z" fill="#F3FFAE"/>
<path fill-rule="evenodd" clip-rule="evenodd" d="M177.901 104.903C178.878 105.267 180.132 105.629 181.664 105.992C182.66 106.221 183.45 106.431 184.034 106.622C184.618 106.813 185.097 107.066 185.471 107.381C185.844 107.696 186.031 108.092 186.031 108.57C186.031 109.219 185.714 109.739 185.083 110.13C184.451 110.522 183.474 110.717 182.152 110.717C180.965 110.717 179.778 110.527 178.591 110.144C177.403 109.763 176.378 109.257 175.517 108.627L173.937 112.121C174.837 112.808 176.029 113.367 177.513 113.796C178.997 114.225 180.534 114.44 182.124 114.44C183.962 114.44 185.523 114.163 186.806 113.61C188.089 113.056 189.051 112.307 189.693 111.362C190.335 110.417 190.655 109.371 190.655 108.226C190.655 106.89 190.306 105.83 189.607 105.047C188.908 104.264 188.07 103.691 187.094 103.328C186.117 102.966 184.862 102.603 183.331 102.24C181.856 101.915 180.759 101.586 180.041 101.252C179.805 101.142 179.611 101.011 179.452 100.862C177.761 100.784 176.07 100.72 174.38 100.669C174.486 101.674 174.819 102.505 175.388 103.156C176.086 103.958 176.924 104.541 177.901 104.903Z" fill="#F3FFAE"/>
<path fill-rule="evenodd" clip-rule="evenodd" d="M154.604 48.0673C154.604 65.4423 140.476 79.5274 123.048 79.5274C105.621 79.5274 91.493 65.4423 91.493 48.0673C91.493 30.6922 105.621 16.6072 123.048 16.6072C140.476 16.6072 154.604 30.6922 154.604 48.0673Z" fill="url(#paint13_linear_1244_53602)"/>
<path fill-rule="evenodd" clip-rule="evenodd" d="M115.072 24.6136C115.102 24.6362 115.117 24.6555 115.135 24.6604C116.926 25.2774 118.556 26.1862 120.092 27.2643L117.086 36.2911C117.07 36.2956 117.056 36.2997 117.041 36.3063C116.426 36.5599 115.798 36.7871 115.193 37.0618C112.697 38.1926 110.264 39.4452 107.972 40.9469L102.039 37.4475C102.048 37.2627 102.08 37.0752 102.143 36.9081C102.541 35.8497 102.933 34.7857 103.384 33.7488C103.731 32.9499 104.126 32.1781 104.558 31.4241C104.84 31.1134 105.133 30.8056 105.434 30.5053C108.252 27.6968 111.581 25.7025 115.127 24.5234C115.108 24.552 115.089 24.582 115.072 24.6136ZM140.664 30.5049C142.861 32.6963 144.561 35.1967 145.764 37.8682C144.276 36.8472 142.686 36.0075 141.013 35.3229C140.753 35.216 140.486 35.1213 140.215 35.0281L132.377 26.2215C132.432 25.8413 132.46 25.46 132.472 25.0762C135.454 26.286 138.249 28.0977 140.664 30.5049ZM137.993 38.6077C137.43 40.0901 136.827 41.5572 136.228 43.0274L124.668 44.2109C124.53 44.0294 124.386 43.8504 124.236 43.6796C122.871 42.1386 121.497 40.6068 120.125 39.0706C120.138 39.0554 120.15 39.0435 120.163 39.0298C119.609 38.4785 119.054 37.9276 118.501 37.3748L121.719 27.715C121.941 27.6563 122.164 27.6073 122.39 27.5832C124.14 27.4057 125.891 27.2049 127.645 27.1039C128.719 27.0438 129.799 27.0092 130.891 27.0861L138.854 36.0338C138.58 36.897 138.312 37.7627 137.993 38.6077ZM140.4 51.2816C140.622 51.7023 140.84 52.1273 141.059 52.5584L135.314 63.2436C135.28 63.251 135.249 63.258 135.216 63.2625C132.11 63.8409 128.979 64.1486 125.822 64.1631L120.089 54.2791C120.981 52.6274 121.865 50.9687 122.742 49.3096C123.337 48.184 123.923 47.0509 124.507 45.9186L136.373 44.7035C137.827 46.8289 139.204 48.9996 140.4 51.2816ZM140.664 65.6295C139.719 66.5729 138.716 67.423 137.665 68.1807C137.491 66.7927 137.19 65.4324 136.766 64.1037L142.714 53.0406C144.353 52.2966 145.933 51.4532 147.4 50.4074C147.592 50.2719 147.752 50.12 147.875 49.9544C147.445 55.6716 145.041 61.267 140.664 65.6295ZM120.908 69.7236L109.034 67.6135C107.644 65.9317 106.395 64.1524 105.321 62.2505C105.047 61.7667 104.742 61.2971 104.511 60.7922L109.162 53.5221C109.264 53.5477 109.379 53.5748 109.509 53.6094C112.419 54.3853 115.38 54.9373 118.361 55.3698C118.535 55.3939 118.681 55.4151 118.805 55.4281L124.38 65.0382C123.413 66.3939 122.434 67.7427 121.434 69.0762C121.268 69.2986 121.092 69.5117 120.908 69.7236ZM120.945 71.5342C121.981 72.0614 123.046 72.5061 124.14 72.8681C119.491 73.0697 114.795 71.9838 110.644 69.6093L120.707 71.3965C120.784 71.4459 120.863 71.4926 120.945 71.5342ZM103.097 59.2319C101.816 58.43 100.635 57.5067 99.59 56.4189C97.9936 51.9399 97.7229 47.0907 98.7808 42.4872C99.2783 41.509 99.8443 40.5694 100.485 39.6695C100.682 39.3918 100.865 39.1022 101.077 38.8327L107.08 42.3736V42.524C107.065 45.7427 107.392 48.938 108.045 52.0872C108.047 52.1017 108.049 52.1099 108.052 52.1229L103.397 59.4004C103.296 59.3492 103.195 59.2935 103.097 59.2319ZM113.04 23.4895C109.74 24.8233 106.779 26.7843 104.24 29.315C101.701 31.8462 99.7356 34.7991 98.3969 38.0879C97.1048 41.2658 96.449 44.6237 96.449 48.0681C96.449 51.5118 97.1048 54.8697 98.3969 58.0461C99.7356 61.3357 101.701 64.2886 104.24 66.819C106.779 69.3513 109.739 71.3107 113.04 72.6446C116.227 73.9343 119.594 74.5858 123.049 74.5858C126.504 74.5858 129.871 73.9325 133.058 72.6446C136.357 71.3107 139.32 69.3513 141.858 66.819C144.398 64.2886 146.363 61.3372 147.701 58.0461C148.993 54.8697 149.648 51.5118 149.648 48.0681C149.648 44.6237 148.993 41.2658 147.701 38.0879C146.363 34.7991 144.396 31.8455 141.858 29.315C139.32 26.7843 136.36 24.8233 133.058 23.4895C129.871 22.2016 126.504 21.5486 123.049 21.5486C119.594 21.5486 116.227 22.2016 113.04 23.4895Z" fill="url(#paint14_linear_1244_53602)"/>
<defs>
<linearGradient id="paint0_linear_1244_53602" x1="53.901" y1="10.5876" x2="53.901" y2="186" gradientUnits="userSpaceOnUse">
<stop stop-color="#DEEF5F"/>
<stop offset="1" stop-color="#BADB31"/>
</linearGradient>
<linearGradient id="paint1_linear_1244_53602" x1="42.2488" y1="0" x2="42.2488" y2="90.0425" gradientUnits="userSpaceOnUse">
<stop stop-color="#EAE3B7"/>
<stop offset="1" stop-color="#C3B15A"/>
</linearGradient>
<linearGradient id="paint2_linear_1244_53602" x1="153.644" y1="0" x2="153.644" y2="90.0425" gradientUnits="userSpaceOnUse">
<stop stop-color="#EAE3B7"/>
<stop offset="1" stop-color="#C3B15A"/>
</linearGradient>
<linearGradient id="paint3_linear_1244_53602" x1="193.617" y1="73.5259" x2="193.617" y2="137.453" gradientUnits="userSpaceOnUse">
<stop stop-color="#3C3C3C"/>
<stop offset="1" stop-color="#1C1C1C"/>
</linearGradient>
<linearGradient id="paint4_linear_1244_53602" x1="36.7255" y1="65.0381" x2="36.7255" y2="150.228" gradientUnits="userSpaceOnUse">
<stop stop-color="#595959"/>
<stop offset="1" stop-color="#2D2D2D"/>
</linearGradient>
<linearGradient id="paint5_linear_1244_53602" x1="60.4109" y1="94.0488" x2="60.4109" y2="112.776" gradientUnits="userSpaceOnUse">
<stop stop-color="#E6FA80"/>
<stop offset="1" stop-color="#C9F249"/>
</linearGradient>
<linearGradient id="paint6_linear_1244_53602" x1="78.7671" y1="94.0488" x2="78.7671" y2="108.99" gradientUnits="userSpaceOnUse">
<stop stop-color="#E6FA80"/>
<stop offset="1" stop-color="#C9F249"/>
</linearGradient>
<linearGradient id="paint7_linear_1244_53602" x1="99.8806" y1="94.0488" x2="99.8806" y2="105.49" gradientUnits="userSpaceOnUse">
<stop stop-color="#E6FA80"/>
<stop offset="1" stop-color="#C9F249"/>
</linearGradient>
<linearGradient id="paint8_linear_1244_53602" x1="109.303" y1="94.0488" x2="109.303" y2="104.207" gradientUnits="userSpaceOnUse">
<stop stop-color="#E6FA80"/>
<stop offset="1" stop-color="#C9F249"/>
</linearGradient>
<linearGradient id="paint9_linear_1244_53602" x1="128.578" y1="94.0488" x2="128.578" y2="102.139" gradientUnits="userSpaceOnUse">
<stop stop-color="#E6FA80"/>
<stop offset="1" stop-color="#C9F249"/>
</linearGradient>
<linearGradient id="paint10_linear_1244_53602" x1="142.424" y1="94.0488" x2="142.424" y2="101.145" gradientUnits="userSpaceOnUse">
<stop stop-color="#E6FA80"/>
<stop offset="1" stop-color="#C9F249"/>
</linearGradient>
<linearGradient id="paint11_linear_1244_53602" x1="151.789" y1="94.0488" x2="151.789" y2="100.728" gradientUnits="userSpaceOnUse">
<stop stop-color="#E6FA80"/>
<stop offset="1" stop-color="#C9F249"/>
</linearGradient>
<linearGradient id="paint12_linear_1244_53602" x1="174.339" y1="93.7051" x2="174.339" y2="100.862" gradientUnits="userSpaceOnUse">
<stop stop-color="#E6FA80"/>
<stop offset="1" stop-color="#C9F249"/>
</linearGradient>
<linearGradient id="paint13_linear_1244_53602" x1="91.493" y1="16.6072" x2="91.493" y2="79.5274" gradientUnits="userSpaceOnUse">
<stop stop-color="#6C6C6C"/>
<stop offset="1" stop-color="#3A3A3A"/>
</linearGradient>
<linearGradient id="paint14_linear_1244_53602" x1="96.449" y1="21.5486" x2="96.449" y2="74.5858" gradientUnits="userSpaceOnUse">
<stop stop-color="#E6FA80"/>
<stop offset="1" stop-color="#C9F249"/>
</linearGradient>
</defs>
</svg>
