<svg width="77" height="42" viewBox="0 0 77 42" fill="none" xmlns="http://www.w3.org/2000/svg">
<ellipse cx="38.5" cy="26.6865" rx="38.5" ry="14.5" fill="url(#paint0_linear_1244_53609)"/>
<path d="M23.3346 28.4069C23.4252 28.4493 23.5158 28.4918 23.6064 28.5343C23.7876 28.6192 23.9734 28.7084 24.1591 28.7891C24.2679 28.8401 24.3811 28.8825 24.4944 28.9335C24.6665 29.0057 24.8341 29.0779 25.0108 29.1501C25.1331 29.1968 25.2555 29.2436 25.3778 29.2903C25.4956 29.337 25.6134 29.3837 25.7312 29.4262C25.7674 29.4389 25.8082 29.4517 25.8444 29.4644C26.2295 29.6046 26.6146 29.7405 27.0132 29.8637C27.0766 29.8849 27.1355 29.9019 27.199 29.9189C27.5433 30.0251 27.8921 30.127 28.2409 30.2204C28.2998 30.2374 28.3542 30.2544 28.4131 30.2714C28.4811 30.2884 28.549 30.3054 28.617 30.3224C28.8389 30.3818 29.0609 30.4328 29.2874 30.488C29.4234 30.522 29.5593 30.5517 29.6997 30.5857C29.9443 30.6409 30.1935 30.6919 30.4427 30.7429C30.5378 30.7598 30.6284 30.7853 30.719 30.8023C30.7462 30.8066 30.7689 30.8108 30.796 30.8151C31.0226 30.8575 31.2491 30.8958 31.4801 30.9382C31.6024 30.9595 31.7293 30.9849 31.8516 31.0019C32.1506 31.0486 32.4541 31.0954 32.7531 31.1336C32.803 31.1421 32.8573 31.1506 32.9072 31.1548C32.9072 31.1548 32.9117 31.1548 32.9162 31.1548C33.2651 31.2016 33.6184 31.244 33.9718 31.2822C34.0533 31.2907 34.1304 31.295 34.2119 31.3035C34.4837 31.329 34.7601 31.3587 35.0364 31.3799C35.0455 31.3799 35.05 31.3799 35.0591 31.3799C35.1814 31.3884 35.3037 31.3969 35.426 31.4054C35.6525 31.4224 35.8791 31.4352 36.1101 31.4479C36.2551 31.4564 36.4046 31.4606 36.5495 31.4649C36.7625 31.4734 36.9709 31.4819 37.1838 31.4861C37.2019 31.4861 37.22 31.4861 37.2381 31.4861C37.3559 31.4861 37.4783 31.4861 37.596 31.4861C37.8271 31.4861 38.0536 31.4946 38.2847 31.4946C38.4342 31.4946 38.5882 31.4946 38.7377 31.4904C38.9506 31.4904 39.1681 31.4861 39.381 31.4776C39.4218 31.4776 39.4625 31.4776 39.4988 31.4776C39.5984 31.4776 39.6981 31.4691 39.7978 31.4649C40.0469 31.4564 40.2961 31.4436 40.5407 31.4309C40.6902 31.4224 40.8398 31.4139 40.9893 31.4012C41.2248 31.3842 41.4649 31.3672 41.7005 31.346C41.7821 31.3375 41.8681 31.3332 41.9497 31.3247C42.0086 31.3205 42.0629 31.312 42.1218 31.3035C42.4888 31.2695 42.8557 31.227 43.2227 31.1803C43.2816 31.1718 43.3405 31.1676 43.3994 31.1591C43.8207 31.1039 44.233 31.0402 44.6497 30.9722C44.6905 30.9637 44.7268 30.9595 44.7675 30.9552C44.8763 30.9382 44.985 30.9127 45.0937 30.8957C45.2885 30.8618 45.4788 30.8278 45.6691 30.7896C45.8276 30.7598 45.9817 30.7259 46.1357 30.6919C46.326 30.6537 46.5117 30.6112 46.6975 30.5687C46.8515 30.5347 47.0055 30.4965 47.1641 30.4583C47.3498 30.4158 47.531 30.3691 47.7122 30.3224C47.8663 30.2842 48.0158 30.2417 48.1698 30.1992C48.351 30.1482 48.5277 30.0973 48.7089 30.0463C48.7859 30.0251 48.8675 30.0038 48.9445 29.9784C48.9988 29.9614 49.0532 29.9401 49.1076 29.9231C49.4292 29.8212 49.7509 29.7193 50.068 29.6088C50.1314 29.5876 50.1994 29.5664 50.2673 29.5409C50.6388 29.4092 51.0058 29.2648 51.3682 29.1204C51.4633 29.0822 51.5539 29.0439 51.6491 29.0015C51.9254 28.8868 52.1973 28.7636 52.4691 28.6405C52.5687 28.5937 52.6684 28.547 52.7681 28.5003C53.1124 28.3347 53.4522 28.1648 53.7829 27.9821C53.8735 27.9312 53.9641 27.8844 54.0547 27.8335C54.1362 27.7868 54.2132 27.7358 54.2948 27.6891C54.4307 27.6084 54.5666 27.5319 54.698 27.4512C54.8158 27.379 54.9336 27.3026 55.0513 27.2304C55.1782 27.1497 55.305 27.0647 55.4274 26.984C55.5406 26.9076 55.6493 26.8311 55.7535 26.7547C55.8713 26.6697 55.9891 26.5848 56.1024 26.4998C56.2066 26.4234 56.3062 26.3427 56.4059 26.262C56.5146 26.1771 56.6234 26.0879 56.723 26.0029C56.7638 25.9689 56.8136 25.9307 56.8544 25.8967C56.9405 25.8245 57.022 25.7481 57.1036 25.6759C57.1353 25.6504 57.1625 25.6207 57.1942 25.5952C57.3528 25.4465 57.5068 25.2979 57.6563 25.145C57.6925 25.111 57.7242 25.0728 57.7605 25.0388C57.8828 24.9071 58.0051 24.7754 58.1184 24.6438C58.1456 24.614 58.1682 24.5843 58.1954 24.5588C58.2044 24.5461 58.218 24.5334 58.2316 24.5206C58.2724 24.4739 58.3086 24.4229 58.3449 24.372C58.4536 24.2403 58.5578 24.1044 58.6575 23.9727C58.7118 23.9005 58.7617 23.8241 58.8115 23.7519C58.8976 23.6287 58.9791 23.5098 59.0516 23.3866C59.0743 23.3526 59.0969 23.3186 59.1196 23.2847C59.1513 23.2337 59.1739 23.1827 59.2011 23.1318C59.26 23.0298 59.3189 22.9236 59.3733 22.8217C59.4186 22.7325 59.4639 22.6476 59.5047 22.5584C59.5545 22.4522 59.5998 22.3503 59.6451 22.2441C59.6632 22.1974 59.6904 22.1506 59.7085 22.1039C59.7266 22.0615 59.7357 22.019 59.7538 21.9765C59.7901 21.8788 59.8263 21.7769 59.858 21.6749C59.8897 21.5858 59.9169 21.4923 59.9441 21.4031C59.9713 21.3012 59.9985 21.2035 60.0211 21.1016C60.0347 21.0463 60.0528 20.9911 60.0619 20.9402C60.0709 20.902 60.0709 20.868 60.08 20.8297C60.0981 20.7278 60.1162 20.6216 60.1298 20.5197C60.1434 20.4305 60.157 20.3371 60.1661 20.2479C60.1751 20.1417 60.1842 20.0397 60.1887 19.9336C60.1887 19.8741 60.2023 19.8104 60.2023 19.7509C60.2023 19.6915 60.2023 19.6278 60.2023 19.5683L60.225 12.0507C60.225 12.1738 60.2159 12.2928 60.2068 12.4159C60.2023 12.5221 60.1933 12.624 60.1842 12.7302C60.1751 12.8194 60.1615 12.9129 60.148 13.002C60.1344 13.104 60.1162 13.2102 60.0981 13.3121C60.08 13.4055 60.0574 13.4947 60.0392 13.5839C60.0166 13.6859 59.9894 13.7835 59.9622 13.8855C59.935 13.9789 59.9078 14.0681 59.8761 14.1573C59.8444 14.2592 59.8082 14.3569 59.7719 14.4589C59.7402 14.548 59.6995 14.6372 59.6632 14.7264C59.6179 14.8326 59.5726 14.9345 59.5228 15.0407C59.482 15.1299 59.4367 15.2149 59.3914 15.3041C59.337 15.406 59.2781 15.5122 59.2192 15.6141C59.1694 15.6991 59.1241 15.784 59.0697 15.8647C58.9927 15.9879 58.9112 16.111 58.8296 16.23C58.7798 16.3022 58.73 16.3786 58.6756 16.4508C58.5759 16.5867 58.4717 16.7184 58.363 16.8501C58.3132 16.9138 58.2679 16.9732 58.2135 17.0369C58.1909 17.0667 58.1637 17.0964 58.1365 17.1219C58.0232 17.2535 57.9009 17.3852 57.7786 17.5169C57.7424 17.5509 57.7106 17.5891 57.6744 17.6231C57.5249 17.776 57.3754 17.9246 57.2123 18.0733C57.1851 18.0988 57.1534 18.1285 57.1217 18.154C56.9994 18.2644 56.8725 18.3748 56.7457 18.481C56.6415 18.5702 56.5328 18.6551 56.4286 18.7401C56.3289 18.8208 56.2292 18.8972 56.125 18.9779C56.0118 19.0629 55.894 19.1478 55.7762 19.2328C55.6675 19.3092 55.5587 19.3857 55.45 19.4621C55.3277 19.5471 55.2008 19.6278 55.074 19.7085C54.9562 19.7849 54.843 19.8571 54.7206 19.9336C54.5893 20.0143 54.4534 20.0907 54.322 20.1714C54.1544 20.2691 53.9867 20.3668 53.81 20.4645C53.4793 20.6429 53.1396 20.817 52.7953 20.9826C52.6956 21.0294 52.5959 21.0761 52.4963 21.1228C52.229 21.246 51.9526 21.3692 51.6763 21.4838C51.5811 21.5221 51.4905 21.5645 51.3954 21.6028C51.033 21.7514 50.666 21.8916 50.2945 22.0232C50.2311 22.0487 50.1631 22.0657 50.0952 22.0912C49.7781 22.2016 49.4609 22.3078 49.1348 22.4055C49.0034 22.4479 48.8675 22.4862 48.7361 22.5287C48.5594 22.5796 48.3782 22.6306 48.197 22.6815C48.043 22.724 47.8934 22.7665 47.7394 22.8047C47.5582 22.8514 47.3725 22.8982 47.1913 22.9406C47.0372 22.9789 46.8832 23.0171 46.7246 23.0511C46.5389 23.0935 46.3486 23.1318 46.1629 23.1742C46.0088 23.2082 45.8503 23.2379 45.6917 23.2719C45.5014 23.3101 45.3066 23.3441 45.1164 23.3781C44.9669 23.4036 44.8174 23.4333 44.6679 23.4546C44.2556 23.5225 43.8388 23.5862 43.4175 23.6414C43.3586 23.6499 43.2997 23.6542 43.2408 23.6627C42.8739 23.7094 42.5069 23.7476 42.1399 23.7858C41.9995 23.7986 41.8591 23.8113 41.7186 23.8241C41.4831 23.8453 41.2429 23.8623 41.0074 23.8793C40.8579 23.8878 40.7084 23.9005 40.5589 23.909C40.3142 23.9218 40.0651 23.9345 39.8159 23.943C39.6755 23.9472 39.535 23.9557 39.3946 23.96C39.1817 23.9642 38.9642 23.9685 38.7513 23.9727C38.6018 23.9727 38.4523 23.977 38.2982 23.977C38.0672 23.977 37.8362 23.977 37.6051 23.9685C37.4692 23.9685 37.3333 23.9685 37.2019 23.9642C36.989 23.96 36.7761 23.9515 36.5631 23.9387C36.4182 23.9345 36.2732 23.9302 36.1237 23.9218C35.8972 23.909 35.6707 23.892 35.4396 23.8793C35.3082 23.8708 35.1814 23.8623 35.05 23.8538C34.7737 23.8326 34.5018 23.8071 34.2255 23.7773C34.1439 23.7689 34.0669 23.7646 33.9854 23.7561C33.632 23.7179 33.2787 23.6754 32.9298 23.6329C32.8709 23.6244 32.812 23.616 32.7531 23.6075C32.4541 23.565 32.1551 23.5225 31.8607 23.4758C31.7338 23.4545 31.6115 23.4333 31.4892 23.4121C31.2627 23.3738 31.0316 23.3356 30.8051 23.2889C30.6873 23.2677 30.5695 23.2422 30.4517 23.2167C30.2026 23.1657 29.9534 23.1148 29.7088 23.0596C29.5729 23.0298 29.4369 22.9958 29.301 22.9619C29.0745 22.9067 28.8525 22.8514 28.6306 22.7962C28.5037 22.7623 28.3769 22.7283 28.2545 22.6943C27.9012 22.5966 27.5523 22.4989 27.208 22.3885C27.1491 22.3715 27.0857 22.3503 27.0223 22.3333C26.6281 22.2059 26.2385 22.0742 25.8535 21.934C25.6949 21.8788 25.5409 21.8194 25.3868 21.7599C25.2645 21.7132 25.1422 21.6665 25.0199 21.6197C24.8477 21.5518 24.6756 21.4753 24.5034 21.4031C24.3902 21.3564 24.2814 21.3097 24.1682 21.2587C23.9824 21.1738 23.8012 21.0888 23.6155 21.0039C23.5249 20.9614 23.4343 20.9189 23.3437 20.8765C23.0719 20.7448 22.8091 20.6089 22.5463 20.4687C18.1882 18.1115 16.0136 15.0152 16.0227 11.9275L16 19.4451C15.991 22.5371 18.1655 25.6292 22.5237 27.9864C22.7819 28.1265 23.0492 28.2625 23.321 28.3941L23.3346 28.4069Z" fill="#FF8F00"/>
<path d="M53.8017 20.4774C62.4003 15.7926 62.355 8.19428 53.7021 3.51379C45.0446 -1.17094 31.0595 -1.17094 22.461 3.51379C13.8625 8.19852 13.9078 15.7926 22.5652 20.4774C31.2181 25.1621 45.2077 25.1621 53.8017 20.4774Z" fill="#FFC300"/>
<path d="M38.2031 21.2251C43.4537 21.2251 48.5413 20.0953 52.152 18.1288C55.1963 16.4681 56.945 14.3573 56.9405 12.3356C56.9405 10.2926 55.1601 8.1605 52.0613 6.48283C48.419 4.5121 43.3133 3.38232 38.0581 3.38232C32.803 3.38232 27.72 4.5121 24.1048 6.47858C21.0604 8.13926 19.3162 10.2459 19.3162 12.2676C19.3162 14.3105 21.0966 16.4427 24.1999 18.1203C27.8423 20.0911 32.9434 21.2208 38.1986 21.2208L38.2031 21.2251Z" fill="#FFB100"/>
<path d="M24.1048 6.47884C27.72 4.50811 32.803 3.38259 38.0581 3.38259C43.3133 3.38259 48.419 4.51237 52.0613 6.48309C54.929 8.03334 56.6641 9.97858 56.9088 11.8771C56.9269 11.72 56.9405 11.5671 56.9405 11.4142C56.9405 9.37123 55.1601 7.2391 52.0613 5.56143C48.419 3.5907 43.3133 2.46094 38.0581 2.46094C32.803 2.46094 27.72 3.59071 24.1048 5.55719C21.0604 7.21787 19.3162 9.3245 19.3162 11.3462C19.3162 11.4991 19.3298 11.652 19.3479 11.8049C19.588 9.92762 21.2869 8.0121 24.1002 6.47884H24.1048Z" fill="#FF8F00"/>
<path d="M53.801 21.445C58.0821 19.0028 60.2205 15.8047 60.2205 12.6065V12.5343C60.2205 12.4621 60.2114 12.3856 60.2114 12.3134C60.2114 12.3474 60.2114 12.3856 60.2069 12.4196C60.2023 12.5258 60.1933 12.6277 60.1842 12.7339C60.1751 12.8231 60.1616 12.9165 60.148 13.0057C60.1344 13.1077 60.1163 13.2138 60.0981 13.3158C60.08 13.4092 60.0574 13.4984 60.0392 13.5876C60.0166 13.6895 59.9894 13.7872 59.9622 13.8892C59.935 13.9826 59.9079 14.0718 59.8762 14.161C59.8444 14.2629 59.8082 14.3606 59.772 14.4625C59.7402 14.5517 59.6995 14.6409 59.6632 14.7301C59.6179 14.8363 59.5726 14.9382 59.5228 15.0444C59.482 15.1336 59.4367 15.2185 59.3914 15.3077C59.337 15.4097 59.2781 15.5158 59.2193 15.6178C59.1694 15.7027 59.1241 15.7877 59.0698 15.8684C58.9927 15.9916 58.9112 16.1147 58.8296 16.2336C58.7798 16.3058 58.73 16.3823 58.6756 16.4545C58.5759 16.5904 58.4718 16.7221 58.363 16.8537C58.3132 16.9174 58.2679 16.9769 58.2135 17.0406C58.1909 17.0703 58.1637 17.1001 58.1365 17.1256C58.0233 17.2572 57.9009 17.3889 57.7786 17.5206C57.7424 17.5545 57.7107 17.5928 57.6744 17.6267C57.5249 17.7796 57.3754 17.9283 57.2123 18.0769C57.1851 18.1024 57.1534 18.1322 57.1217 18.1576C56.9994 18.2681 56.8726 18.3785 56.7457 18.4847C56.6415 18.5739 56.5328 18.6588 56.4286 18.7438C56.3289 18.8245 56.2292 18.9009 56.125 18.9816C56.0118 19.0666 55.894 19.1515 55.7762 19.2365C55.6675 19.3129 55.5588 19.3894 55.45 19.4658C55.3277 19.5508 55.2009 19.6315 55.074 19.7121C54.9562 19.7886 54.843 19.8608 54.7206 19.9373C54.5893 20.018 54.4534 20.0944 54.322 20.1751C54.1544 20.2728 53.9867 20.3705 53.8101 20.4682C53.4793 20.6465 53.1396 20.8207 52.7953 20.9863C52.6956 21.033 52.5959 21.0798 52.4963 21.1265C52.229 21.2497 51.9526 21.3728 51.6763 21.4875C51.5811 21.5257 51.4905 21.5682 51.3954 21.6064C51.033 21.7551 50.666 21.8952 50.2945 22.0269C50.2311 22.0524 50.1632 22.0694 50.0952 22.0949C49.7781 22.2053 49.461 22.3115 49.1348 22.4092C49.0034 22.4516 48.8675 22.4899 48.7361 22.5323C48.5594 22.5833 48.3782 22.6343 48.197 22.6852C48.043 22.7277 47.8935 22.7702 47.7394 22.8084C47.5582 22.8551 47.3725 22.9018 47.1913 22.9443C47.0372 22.9825 46.8832 23.0208 46.7246 23.0547C46.5389 23.0972 46.3486 23.1354 46.1629 23.1779C46.0089 23.2119 45.8503 23.2416 45.6917 23.2756C45.5015 23.3138 45.3067 23.3478 45.1164 23.3818C44.9669 23.4073 44.8174 23.437 44.6679 23.4582C44.2556 23.5262 43.8388 23.5899 43.4175 23.6451C43.3586 23.6536 43.2997 23.6579 43.2408 23.6663C42.8739 23.7131 42.5069 23.7513 42.14 23.7895C41.9995 23.8023 41.8591 23.815 41.7186 23.8277C41.4831 23.849 41.243 23.866 41.0074 23.883C40.8579 23.8915 40.7084 23.9042 40.5589 23.9127C40.3142 23.9254 40.0651 23.9382 39.8159 23.9467C39.6755 23.9509 39.535 23.9594 39.3946 23.9637C39.1817 23.9679 38.9642 23.9722 38.7513 23.9764C38.6018 23.9764 38.4523 23.9806 38.2983 23.9806C38.0672 23.9806 37.8362 23.9806 37.6051 23.9722C37.4692 23.9722 37.3333 23.9721 37.2019 23.9679C36.989 23.9637 36.7761 23.9552 36.5631 23.9424C36.4182 23.9382 36.2732 23.9339 36.1237 23.9254C35.8972 23.9127 35.6707 23.8957 35.4396 23.883C35.3082 23.8745 35.1814 23.866 35.05 23.8575C34.7737 23.8362 34.5019 23.8108 34.2255 23.781C34.144 23.7725 34.0669 23.7683 33.9854 23.7598C33.632 23.7216 33.2787 23.6791 32.9298 23.6324C32.8709 23.6239 32.812 23.6154 32.7532 23.6069C32.4541 23.5644 32.1551 23.5219 31.8607 23.4752C31.7338 23.454 31.6115 23.4327 31.4892 23.4115C31.2627 23.3733 31.0316 23.3351 30.8051 23.2883C30.6873 23.2671 30.5695 23.2416 30.4517 23.2161C30.2026 23.1652 29.9534 23.1142 29.7088 23.059C29.5729 23.0293 29.437 22.9953 29.301 22.9613C29.0745 22.9061 28.8525 22.8509 28.6306 22.7957C28.5037 22.7617 28.3769 22.7277 28.2545 22.6937C27.9012 22.596 27.5523 22.4983 27.208 22.3879C27.1491 22.3709 27.0857 22.3497 27.0223 22.3327C26.6282 22.2053 26.2386 22.0736 25.8535 21.9335C25.6949 21.8783 25.5409 21.8188 25.3869 21.7593C25.2645 21.7126 25.1422 21.6659 25.0199 21.6192C24.8477 21.5512 24.6756 21.4748 24.5034 21.4026C24.3902 21.3558 24.2815 21.3091 24.1682 21.2582C23.9825 21.1732 23.8012 21.0883 23.6155 21.0033C23.5249 20.9608 23.4343 20.9184 23.3437 20.8759C23.0719 20.7442 22.8091 20.6083 22.5463 20.4682C18.3286 18.1831 16.1631 15.21 16.0363 12.22C15.9004 15.5456 18.0704 18.8967 22.5463 21.4365C31.1992 26.3421 45.1889 26.3421 53.7829 21.4365L53.801 21.445Z" fill="#FFE473"/>
<g filter="url(#filter0_d_1244_53609)">
<path fill-rule="evenodd" clip-rule="evenodd" d="M27.4916 10.5569C27.052 10.836 27.0512 11.2897 27.4899 11.5702L32.6902 14.8962L32.6902 14.8961L36.5213 17.3463C37.7161 18.1105 39.6554 18.1138 40.8527 17.3537L45.5869 14.3483C47.5775 13.0846 47.5809 11.0302 45.5945 9.75978C43.995 8.7368 41.5931 8.534 39.6788 9.15354C39.6138 8.52312 39.2037 7.90405 38.4484 7.42098C36.793 6.36227 34.1063 6.35771 32.4474 7.41081L27.4916 10.5569Z" fill="#FFF2D6"/>
</g>
<defs>
<filter id="filter0_d_1244_53609" x="23.1614" y="2.62402" width="27.9207" height="19.2976" filterUnits="userSpaceOnUse" color-interpolation-filters="sRGB">
<feFlood flood-opacity="0" result="BackgroundImageFix"/>
<feColorMatrix in="SourceAlpha" type="matrix" values="0 0 0 0 0 0 0 0 0 0 0 0 0 0 0 0 0 0 127 0" result="hardAlpha"/>
<feOffset/>
<feGaussianBlur stdDeviation="2"/>
<feComposite in2="hardAlpha" operator="out"/>
<feColorMatrix type="matrix" values="0 0 0 0 0.770833 0 0 0 0 0.432271 0 0 0 0 0 0 0 0 1 0"/>
<feBlend mode="normal" in2="BackgroundImageFix" result="effect1_dropShadow_1244_53609"/>
<feBlend mode="normal" in="SourceGraphic" in2="effect1_dropShadow_1244_53609" result="shape"/>
</filter>
<linearGradient id="paint0_linear_1244_53609" x1="46" y1="12.1865" x2="39" y2="45.6865" gradientUnits="userSpaceOnUse">
<stop stop-color="#1C1C1C"/>
<stop offset="1" stop-color="#282828" stop-opacity="0"/>
</linearGradient>
</defs>
</svg>
