<svg width="25" height="25" viewBox="0 0 25 25" fill="none" xmlns="http://www.w3.org/2000/svg">
<path fill-rule="evenodd" clip-rule="evenodd" d="M4.1 2H20.9C22.055 2 23 2.945 23 4.1V16.7C23 17.855 22.055 18.8 20.9 18.8H6.2L2 23V4.1C2 2.945 2.945 2 4.1 2ZM10 6.05213C10 6.02334 10.0233 6 10.0521 6H13.0257C14.2626 6 15.2653 7.0027 15.2653 8.23958C15.2653 8.81126 15.0511 9.33291 14.6986 9.72866C15.5429 10.0495 16.1429 10.8661 16.1429 11.8229C16.1429 13.0598 15.1402 14.0625 13.9033 14.0625H10.3386C10.1516 14.0625 10 13.9109 10 13.7239V10.4792V9.58333V6.05213Z" fill="#9AE343"/>
</svg>
