<svg width="24" height="24" viewBox="0 0 24 24" fill="none" xmlns="http://www.w3.org/2000/svg">
<rect width="24" height="24" rx="4" fill="#9AE343"/>
<rect width="24" height="24" rx="4" fill="#9AE343"/>
<path d="M10.3148 19.6312C10.6747 19.6312 10.9593 19.4721 11.1602 19.1624L19.0703 6.70706C19.221 6.46432 19.2796 6.28017 19.2796 6.08765C19.2796 5.62726 18.9782 5.32593 18.5179 5.32593C18.183 5.32593 17.9989 5.43474 17.798 5.75283L10.2813 17.731L6.38061 12.625C6.17135 12.332 5.96209 12.2149 5.66075 12.2149C5.18363 12.2149 4.85718 12.5413 4.85718 13.0017C4.85718 13.1942 4.94088 13.4119 5.09992 13.6127L9.44423 19.1457C9.69535 19.4721 9.95483 19.6312 10.3148 19.6312Z" fill="white"/>
</svg>
