<svg width="21" height="21" viewBox="0 0 21 21" fill="none" xmlns="http://www.w3.org/2000/svg">
<path fill-rule="evenodd" clip-rule="evenodd" d="M9.46284 12.3085C9.46159 12.2957 9.45921 12.2834 9.4574 12.2709C9.45522 12.2556 9.45344 12.2404 9.45046 12.2253C9.44759 12.2108 9.44364 12.1968 9.44005 12.1827C9.43678 12.1696 9.43392 12.1565 9.43 12.1436C9.42581 12.1297 9.42057 12.1163 9.41568 12.1027C9.41104 12.0898 9.40681 12.0768 9.40156 12.0641C9.39632 12.0514 9.39011 12.0392 9.3843 12.0269C9.37812 12.0138 9.37231 12.0006 9.36546 11.9878C9.35908 11.9759 9.35186 11.9646 9.34496 11.9531C9.33746 11.9405 9.33036 11.9278 9.32217 11.9156C9.31366 11.9028 9.30413 11.8908 9.29498 11.8786C9.28731 11.8684 9.28021 11.8579 9.27206 11.8479C9.25419 11.8262 9.23539 11.8052 9.2155 11.7853C9.21534 11.7852 9.21522 11.785 9.21506 11.7848C9.2149 11.7847 9.21474 11.7846 9.21461 11.7844C9.19469 11.7645 9.17379 11.7457 9.152 11.7278C9.14204 11.7196 9.13155 11.7125 9.1213 11.7049C9.10908 11.6957 9.09709 11.6862 9.08435 11.6777C9.07208 11.6695 9.05937 11.6624 9.04679 11.6549C9.03525 11.648 9.02399 11.6408 9.01213 11.6344C8.9993 11.6276 8.98615 11.6218 8.97304 11.6156C8.96065 11.6098 8.94847 11.6036 8.9358 11.5983C8.9231 11.5931 8.91011 11.5888 8.8972 11.5842C8.8836 11.5793 8.87021 11.5741 8.85633 11.5699C8.84342 11.566 8.83027 11.5631 8.81724 11.5598C8.80308 11.5563 8.78908 11.5523 8.77467 11.5494C8.75955 11.5465 8.7443 11.5446 8.72909 11.5425C8.71654 11.5407 8.7042 11.5383 8.69145 11.537C8.66317 11.5343 8.63485 11.5328 8.60649 11.5328H2.58192C2.1066 11.5328 1.72128 11.9181 1.72128 12.3934C1.72128 12.8687 2.1066 13.2541 2.58192 13.2541H6.52866L0.252073 19.5307C-0.0840242 19.8668 -0.0840242 20.4118 0.252073 20.7479C0.588169 21.084 1.13312 21.084 1.46922 20.7479L7.74581 14.4712V18.418C7.74581 18.8933 8.13112 19.2786 8.60644 19.2786C9.08177 19.2786 9.46712 18.8933 9.46712 18.418V12.3935C9.46712 12.3651 9.46563 12.3367 9.46284 12.3085Z" fill="white"/>
<path fill-rule="evenodd" clip-rule="evenodd" d="M19.5306 0.252114L13.254 6.52873V2.58197C13.254 2.10664 12.8687 1.72133 12.3934 1.72133C11.918 1.72133 11.5327 2.10664 11.5327 2.58197V8.60652C11.5327 8.63488 11.5342 8.6632 11.537 8.69144C11.5382 8.70415 11.5406 8.71649 11.5424 8.72908C11.5446 8.74429 11.5464 8.75958 11.5494 8.77467C11.5523 8.78911 11.5562 8.80307 11.5598 8.81723C11.5631 8.8303 11.5659 8.84341 11.5698 8.85632C11.574 8.8702 11.5792 8.88363 11.5841 8.89719C11.5888 8.9101 11.593 8.92309 11.5982 8.9358C11.6035 8.94851 11.6097 8.96065 11.6155 8.97304C11.6217 8.98611 11.6275 8.9993 11.6344 9.01213C11.6408 9.02399 11.648 9.03524 11.6549 9.04678C11.6624 9.05933 11.6695 9.07208 11.6777 9.08434C11.6862 9.09709 11.6957 9.10903 11.7048 9.1213C11.7125 9.13154 11.7196 9.14203 11.7278 9.152C11.7457 9.17378 11.7645 9.19472 11.7844 9.21461C11.7845 9.21477 11.7846 9.21493 11.7848 9.21505C11.7849 9.21522 11.7851 9.21534 11.7853 9.2155C11.8052 9.23535 11.8261 9.25419 11.8478 9.27206C11.8578 9.28025 11.8683 9.28735 11.8785 9.29497C11.8908 9.30413 11.9027 9.31365 11.9155 9.32216C11.9277 9.33035 11.9404 9.33745 11.953 9.34496C11.9646 9.35186 11.9758 9.35908 11.9877 9.36545C12.0005 9.37231 12.0137 9.37812 12.0268 9.38429C12.0392 9.39014 12.0514 9.39631 12.064 9.40156C12.0767 9.4068 12.0897 9.41104 12.1026 9.41568C12.1162 9.42056 12.1296 9.42577 12.1436 9.43C12.1565 9.43391 12.1696 9.43678 12.1826 9.44005C12.1968 9.44364 12.2108 9.44759 12.2252 9.45046C12.2403 9.45344 12.2556 9.45522 12.2708 9.45739C12.2833 9.45917 12.2957 9.46159 12.3084 9.46284C12.3367 9.46562 12.365 9.46712 12.3933 9.46712H12.3934H18.4179C18.8932 9.46712 19.2785 9.0818 19.2785 8.60648C19.2785 8.13116 18.8932 7.74584 18.4179 7.74584H14.4711L20.7478 1.46918C21.0839 1.13309 21.0839 0.588131 20.7478 0.252033C20.4117 -0.0840649 19.8667 -0.0839842 19.5306 0.252114Z" fill="white"/>
</svg>
