<svg width="20" height="20" viewBox="0 0 20 20" fill="none" xmlns="http://www.w3.org/2000/svg">
<path d="M4.05692 17.5696H15.4911C17.2405 17.5696 18.1111 16.699 18.1111 14.9747V4.75429C18.1111 3.02996 17.2405 2.15942 15.4911 2.15942H4.05692C2.30748 2.15942 1.42857 3.02159 1.42857 4.75429V14.9747C1.42857 16.7074 2.30748 17.5696 4.05692 17.5696ZM3.93137 16.2219C3.18639 16.2219 2.77623 15.8285 2.77623 15.05V7.15663C2.77623 6.38655 3.18639 5.98476 3.93137 5.98476H15.5999C16.3449 5.98476 16.7634 6.38655 16.7634 7.15663V15.05C16.7634 15.8285 16.3449 16.2219 15.5999 16.2219H3.93137ZM8.14174 8.98978H8.63557C8.92857 8.98978 9.02064 8.90607 9.02064 8.6131V8.11925C9.02064 7.82627 8.92857 7.7342 8.63557 7.7342H8.14174C7.84877 7.7342 7.74833 7.82627 7.74833 8.11925V8.6131C7.74833 8.90607 7.84877 8.98978 8.14174 8.98978ZM10.9208 8.98978H11.4146C11.7076 8.98978 11.808 8.90607 11.808 8.6131V8.11925C11.808 7.82627 11.7076 7.7342 11.4146 7.7342H10.9208C10.6278 7.7342 10.5274 7.82627 10.5274 8.11925V8.6131C10.5274 8.90607 10.6278 8.98978 10.9208 8.98978ZM13.6998 8.98978H14.1936C14.4866 8.98978 14.5871 8.90607 14.5871 8.6131V8.11925C14.5871 7.82627 14.4866 7.7342 14.1936 7.7342H13.6998C13.4068 7.7342 13.3147 7.82627 13.3147 8.11925V8.6131C13.3147 8.90607 13.4068 8.98978 13.6998 8.98978ZM5.36272 11.727H5.84822C6.14956 11.727 6.24163 11.6433 6.24163 11.3503V10.8564C6.24163 10.5635 6.14956 10.4798 5.84822 10.4798H5.36272C5.06139 10.4798 4.96931 10.5635 4.96931 10.8564V11.3503C4.96931 11.6433 5.06139 11.727 5.36272 11.727ZM8.14174 11.727H8.63557C8.92857 11.727 9.02064 11.6433 9.02064 11.3503V10.8564C9.02064 10.5635 8.92857 10.4798 8.63557 10.4798H8.14174C7.84877 10.4798 7.74833 10.5635 7.74833 10.8564V11.3503C7.74833 11.6433 7.84877 11.727 8.14174 11.727ZM10.9208 11.727H11.4146C11.7076 11.727 11.808 11.6433 11.808 11.3503V10.8564C11.808 10.5635 11.7076 10.4798 11.4146 10.4798H10.9208C10.6278 10.4798 10.5274 10.5635 10.5274 10.8564V11.3503C10.5274 11.6433 10.6278 11.727 10.9208 11.727ZM13.6998 11.727H14.1936C14.4866 11.727 14.5871 11.6433 14.5871 11.3503V10.8564C14.5871 10.5635 14.4866 10.4798 14.1936 10.4798H13.6998C13.4068 10.4798 13.3147 10.5635 13.3147 10.8564V11.3503C13.3147 11.6433 13.4068 11.727 13.6998 11.727ZM5.36272 14.4725H5.84822C6.14956 14.4725 6.24163 14.3804 6.24163 14.0875V13.5935C6.24163 13.3006 6.14956 13.2169 5.84822 13.2169H5.36272C5.06139 13.2169 4.96931 13.3006 4.96931 13.5935V14.0875C4.96931 14.3804 5.06139 14.4725 5.36272 14.4725ZM8.14174 14.4725H8.63557C8.92857 14.4725 9.02064 14.3804 9.02064 14.0875V13.5935C9.02064 13.3006 8.92857 13.2169 8.63557 13.2169H8.14174C7.84877 13.2169 7.74833 13.3006 7.74833 13.5935V14.0875C7.74833 14.3804 7.84877 14.4725 8.14174 14.4725ZM10.9208 14.4725H11.4146C11.7076 14.4725 11.808 14.3804 11.808 14.0875V13.5935C11.808 13.3006 11.7076 13.2169 11.4146 13.2169H10.9208C10.6278 13.2169 10.5274 13.3006 10.5274 13.5935V14.0875C10.5274 14.3804 10.6278 14.4725 10.9208 14.4725Z" fill="#9AE343"/>
</svg>
