<svg width="147" height="148" viewBox="0 0 147 148" fill="none" xmlns="http://www.w3.org/2000/svg">
<g filter="url(#filter0_d_1244_53589)">
<ellipse cx="78.7081" cy="77.1417" rx="21.511" ry="24.0122" transform="rotate(28.7363 78.7081 77.1417)" fill="#FF8F00"/>
<rect x="84.0969" y="52.9923" width="6.42231" height="46.0434" transform="rotate(26.5501 84.0969 52.9923)" fill="#FF8F00"/>
<rect x="81.5287" y="58.7809" width="4.54539" height="41.9236" transform="rotate(24.1806 81.5287 58.7809)" fill="#FF8F00"/>
<ellipse cx="73.8195" cy="74.6973" rx="21.511" ry="24.0122" transform="rotate(28.7363 73.8195 74.6973)" fill="#FFC300"/>
<path fill-rule="evenodd" clip-rule="evenodd" d="M62.2746 95.7523C72.6917 101.464 86.305 96.6677 92.6809 85.0394C98.595 74.2533 96.2048 61.3777 87.514 55.0107C97.1549 61.0452 100.028 74.5785 93.8558 85.8358C87.4799 97.4641 73.8665 102.26 63.4495 96.5487C62.695 96.135 61.9779 95.6775 61.2993 95.1804C61.6171 95.3793 61.9422 95.57 62.2746 95.7523Z" fill="#FFE473"/>
<ellipse cx="74.3078" cy="75.8025" rx="16.0082" ry="19.0097" transform="rotate(28.7363 74.3078 75.8025)" fill="#FFB100"/>
<path fill-rule="evenodd" clip-rule="evenodd" d="M87.7163 62.7881C86.5707 61.3102 85.1419 60.063 83.4474 59.134C75.6952 54.8834 65.3189 58.9003 60.2714 68.1061C56.6478 74.7146 56.7554 82.2007 59.9725 87.4712C55.8766 82.1875 55.3999 73.9541 59.3442 66.7604C64.3918 57.5547 74.7681 53.5377 82.5203 57.7883C84.7074 58.9875 86.452 60.7167 87.7163 62.7881Z" fill="#FF8F00"/>
<g filter="url(#filter1_d_1244_53589)">
<path fill-rule="evenodd" clip-rule="evenodd" d="M73.6389 63.5119C73.5825 63.481 73.5117 63.5016 73.4808 63.558L69.261 71.2541L68.192 73.2036L64.2799 80.3386C64.0791 80.7048 64.2132 81.1645 64.5794 81.3653L71.0738 84.9263C73.7656 86.4022 77.1441 85.4165 78.62 82.7248C79.7324 80.696 79.4465 78.2771 78.0857 76.5767C79.3587 76.1461 80.48 75.2554 81.177 73.9842C82.6529 71.2925 81.6673 67.914 78.9755 66.4381L73.6389 63.5119Z" fill="#FFF2D6"/>
</g>
<ellipse cx="72.4943" cy="69.3001" rx="21.511" ry="24.0122" transform="rotate(28.7363 72.4943 69.3001)" fill="#FF8F00"/>
<rect x="77.8831" y="45.1507" width="6.42231" height="46.0434" transform="rotate(26.5501 77.8831 45.1507)" fill="#FF8F00"/>
<rect x="75.3149" y="50.9393" width="4.54539" height="41.9236" transform="rotate(24.1806 75.3149 50.9393)" fill="#FF8F00"/>
<ellipse cx="67.6057" cy="66.8557" rx="21.511" ry="24.0122" transform="rotate(28.7363 67.6057 66.8557)" fill="#FFC300"/>
<path fill-rule="evenodd" clip-rule="evenodd" d="M56.0608 87.9106C66.4779 93.6224 80.0912 88.826 86.4671 77.1977C92.3812 66.4116 89.991 53.536 81.3002 47.1691C90.9411 53.2036 93.8144 66.7369 87.642 77.9941C81.2661 89.6225 67.6527 94.4188 57.2357 88.707C56.4812 88.2933 55.7641 87.8359 55.0855 87.3387C55.4033 87.5376 55.7284 87.7284 56.0608 87.9106Z" fill="#FFE473"/>
<ellipse cx="68.094" cy="67.9608" rx="16.0082" ry="19.0097" transform="rotate(28.7363 68.094 67.9608)" fill="#FFB100"/>
<path fill-rule="evenodd" clip-rule="evenodd" d="M81.5025 54.9464C80.3569 53.4685 78.9281 52.2214 77.2336 51.2923C69.4814 47.0417 59.1051 51.0587 54.0576 60.2644C50.434 66.873 50.5416 74.359 53.7587 79.6296C49.6628 74.3458 49.1861 66.1124 53.1304 58.9188C58.178 49.713 68.5543 45.6961 76.3065 49.9467C78.4936 51.1459 80.2382 52.8751 81.5025 54.9464Z" fill="#FF8F00"/>
<g filter="url(#filter2_d_1244_53589)">
<path fill-rule="evenodd" clip-rule="evenodd" d="M67.4251 55.6703C67.3687 55.6394 67.2979 55.66 67.267 55.7164L63.0472 63.4124L61.9782 65.3619L58.0661 72.4969C57.8653 72.8632 57.9994 73.3229 58.3656 73.5237L64.86 77.0846C67.5518 78.5605 70.9303 77.5749 72.4062 74.8831C73.5186 72.8544 73.2327 70.4355 71.8719 68.7351C73.1449 68.3045 74.2662 67.4138 74.9632 66.1426C76.4391 63.4509 75.4535 60.0723 72.7617 58.5964L67.4251 55.6703Z" fill="#FFF2D6"/>
</g>
</g>
<defs>
<filter id="filter0_d_1244_53589" x="0" y="0" width="146.313" height="148" filterUnits="userSpaceOnUse" color-interpolation-filters="sRGB">
<feFlood flood-opacity="0" result="BackgroundImageFix"/>
<feColorMatrix in="SourceAlpha" type="matrix" values="0 0 0 0 0 0 0 0 0 0 0 0 0 0 0 0 0 0 127 0" result="hardAlpha"/>
<feOffset dy="2"/>
<feGaussianBlur stdDeviation="8"/>
<feColorMatrix type="matrix" values="0 0 0 0 0 0 0 0 0 0 0 0 0 0 0 0 0 0 0.5 0"/>
<feBlend mode="normal" in2="BackgroundImageFix" result="effect1_dropShadow_1244_53589"/>
<feBlend mode="normal" in="SourceGraphic" in2="effect1_dropShadow_1244_53589" result="shape"/>
</filter>
<filter id="filter1_d_1244_53589" x="60.1845" y="59.4954" width="25.6801" height="30.1184" filterUnits="userSpaceOnUse" color-interpolation-filters="sRGB">
<feFlood flood-opacity="0" result="BackgroundImageFix"/>
<feColorMatrix in="SourceAlpha" type="matrix" values="0 0 0 0 0 0 0 0 0 0 0 0 0 0 0 0 0 0 127 0" result="hardAlpha"/>
<feOffset/>
<feGaussianBlur stdDeviation="2"/>
<feComposite in2="hardAlpha" operator="out"/>
<feColorMatrix type="matrix" values="0 0 0 0 0.770833 0 0 0 0 0.432271 0 0 0 0 0 0 0 0 1 0"/>
<feBlend mode="normal" in2="BackgroundImageFix" result="effect1_dropShadow_1244_53589"/>
<feBlend mode="normal" in="SourceGraphic" in2="effect1_dropShadow_1244_53589" result="shape"/>
</filter>
<filter id="filter2_d_1244_53589" x="53.9707" y="51.6538" width="25.6801" height="30.1184" filterUnits="userSpaceOnUse" color-interpolation-filters="sRGB">
<feFlood flood-opacity="0" result="BackgroundImageFix"/>
<feColorMatrix in="SourceAlpha" type="matrix" values="0 0 0 0 0 0 0 0 0 0 0 0 0 0 0 0 0 0 127 0" result="hardAlpha"/>
<feOffset/>
<feGaussianBlur stdDeviation="2"/>
<feComposite in2="hardAlpha" operator="out"/>
<feColorMatrix type="matrix" values="0 0 0 0 0.770833 0 0 0 0 0.432271 0 0 0 0 0 0 0 0 1 0"/>
<feBlend mode="normal" in2="BackgroundImageFix" result="effect1_dropShadow_1244_53589"/>
<feBlend mode="normal" in="SourceGraphic" in2="effect1_dropShadow_1244_53589" result="shape"/>
</filter>
</defs>
</svg>
