<svg width="126" height="97" viewBox="0 0 126 97" fill="none" xmlns="http://www.w3.org/2000/svg">
<g clip-path="url(#clip0_1244_53585)">
<path d="M0.0345801 85.0884C1.86564 66.6902 6.44694 20.9941 7.44741 14.3152C8.70452 5.92027 19.0302 7.77345 19.0302 7.77345L21.2411 92.7235H6.84434C4.90953 92.7235 3.06451 91.8925 1.76736 90.4358C0.470807 88.9791 -0.159568 87.0419 0.0345801 85.089V85.0884Z" fill="#353535"/>
<path d="M116.511 94.8645C121.007 94.7697 124.574 91.0615 124.478 86.5827L123.01 17.6179C122.929 13.813 119.869 10.7389 116.051 10.6265L15.5786 7.65691C12.5905 7.56866 10.123 9.9622 10.1321 12.9402L10.373 92.0129C10.3815 94.8108 12.6925 97.058 15.5009 96.9988L116.512 94.8645H116.511Z" fill="#9AE343"/>
<path d="M122.986 89.0754C124.424 89.0536 125.511 87.7699 125.287 86.3537C123.804 76.9633 119.15 44.6614 120.643 17.8422C120.711 16.6195 119.76 15.5792 118.531 15.54L17.6062 12.3329C16.2223 12.2887 15.0629 13.3652 15.0101 14.7439C14.5812 26.0195 12.9825 72.4518 15.0738 88.9576C15.2012 89.9621 16.0682 90.7086 17.0845 90.6929L122.986 89.076V89.0754Z" fill="#9A9A9A"/>
<path d="M120.436 88.0196C121.821 87.9984 122.866 86.763 122.651 85.4006C121.225 76.3638 116.746 45.2786 118.182 19.4688C118.248 18.292 117.332 17.2911 116.15 17.2536L19.0253 14.1668C17.6936 14.1245 16.5779 15.1605 16.5269 16.4872C16.1137 27.3379 14.5757 72.0221 16.5882 87.9059C16.7107 88.8724 17.545 89.5905 18.523 89.576L120.436 88.0196Z" fill="#353535"/>
<path opacity="0.72" d="M60.7412 33.6504L60.8892 40.6188C60.9117 41.6826 60.0556 42.5584 58.9878 42.5645L51.8128 42.605C50.768 42.611 49.9119 41.7805 49.8901 40.7403L49.7342 33.414C49.7105 32.3128 50.6266 31.4212 51.7309 31.4702L58.9131 31.7875C59.9197 31.8322 60.7193 32.647 60.7406 33.6504H60.7412Z" fill="white"/>
<path opacity="0.72" d="M85.8252 42.5059L78.6508 42.5464C77.606 42.5525 76.7499 41.722 76.7281 40.6812L76.5952 34.4501C76.5722 33.3555 77.4774 32.4664 78.5761 32.5056L85.7572 32.7625C86.7704 32.7988 87.5792 33.6166 87.6004 34.626L87.7266 40.5597C87.749 41.6235 86.893 42.4993 85.8252 42.5053V42.5059Z" fill="white"/>
<path opacity="0.72" d="M79.539 73.5457L86.3639 73.4798C87.5069 73.469 88.4467 74.3762 88.471 75.5149L88.6063 81.882C88.6306 83.0129 87.7424 83.9558 86.6078 84.0036L79.7877 84.2913C78.6186 84.3408 77.6375 83.4233 77.6127 82.258L77.4725 75.6691C77.4482 74.5116 78.3771 73.5572 79.539 73.5457Z" fill="white"/>
<path opacity="0.72" d="M91.0211 81.7292L90.8882 75.5035C90.8639 74.366 91.777 73.4279 92.9195 73.4164L99.816 73.35C100.94 73.3391 101.863 74.2312 101.887 75.35L102.015 81.3514C102.038 82.4629 101.166 83.3895 100.051 83.4367L93.1591 83.7274C92.0106 83.7757 91.0459 82.8739 91.0217 81.7292H91.0211Z" fill="white"/>
<path opacity="0.72" d="M90.4228 53.6238L90.3142 48.5134C90.2881 47.2792 91.2862 46.2655 92.5251 46.2673L99.111 46.2794C100.31 46.2818 101.288 47.2374 101.314 48.4318L101.418 53.3156C101.443 54.5202 100.491 55.5205 99.2827 55.5604L92.7016 55.775C91.4731 55.8149 90.4483 54.8478 90.4222 53.6238H90.4228Z" fill="white"/>
<path opacity="0.72" d="M90.7389 68.4745L90.5727 60.658C90.549 59.5386 91.433 58.609 92.5566 58.5722L99.2918 58.3528C100.52 58.3129 101.545 59.2799 101.571 60.5039L101.739 68.3869C101.764 69.5323 100.838 70.474 99.6886 70.474H92.7908C91.6751 70.4752 90.7632 69.5861 90.7395 68.4745H90.7389Z" fill="white"/>
<path opacity="0.72" d="M72.4077 42.5814L65.2333 42.6219C64.1885 42.628 63.3324 41.7975 63.3106 40.7573L63.1662 33.9701C63.1425 32.8755 64.0484 31.9864 65.1471 32.0257L72.3282 32.2826C73.3414 32.3188 74.1502 33.1366 74.1714 34.1466L74.3097 40.6364C74.3322 41.7002 73.4761 42.576 72.4083 42.582L72.4077 42.5814Z" fill="white"/>
<path opacity="0.72" d="M77.319 68.4415L77.1631 61.1309C77.1388 59.9921 78.0386 59.0462 79.1816 59.0087L86.0029 58.7863C87.1642 58.7482 88.1331 59.6627 88.158 60.8202L88.3181 68.3526C88.343 69.5179 87.4014 70.476 86.2316 70.476H79.4055C78.2697 70.4766 77.3427 69.5723 77.3184 68.4415H77.319Z" fill="white"/>
<path opacity="0.72" d="M65.0464 46.2178L72.8815 46.2317C73.7418 46.2329 74.4432 46.9183 74.4614 47.7754L74.6113 54.8049C74.6295 55.6686 73.9469 56.3861 73.0805 56.4145L65.2515 56.6696C64.3705 56.6986 63.6358 56.0047 63.617 55.1271L63.4617 47.828C63.4429 46.9431 64.1588 46.216 65.047 46.2178H65.0464Z" fill="white"/>
<path opacity="0.72" d="M61.0494 48.1471L61.192 54.8418C61.215 55.9273 60.3571 56.8291 59.2681 56.8648L52.2514 57.0933C51.1442 57.1295 50.2207 56.258 50.1971 55.1543L50.0497 48.2178C50.026 47.1057 50.9257 46.1918 52.0421 46.1936L59.0636 46.2063C60.1448 46.2081 61.0263 47.0694 61.0494 48.1465V48.1471Z" fill="white"/>
<path opacity="0.72" d="M86.4895 55.9775L78.6599 56.2326C77.7789 56.2616 77.0442 55.5677 77.0254 54.6901L76.8798 47.8521C76.8609 46.9673 77.5769 46.2401 78.4651 46.2419L86.3002 46.2559C87.1605 46.2577 87.8619 46.9431 87.8801 47.7996L88.0196 54.3679C88.0378 55.2316 87.3553 55.9491 86.4889 55.9775H86.4895Z" fill="white"/>
<path opacity="0.72" d="M65.7714 59.4455L72.5927 59.2231C73.754 59.185 74.7229 60.0995 74.7478 61.257L74.8988 68.3536C74.9237 69.5189 73.9821 70.4769 72.8123 70.4769H65.9862C64.8504 70.4781 63.9234 69.5733 63.8991 68.4424L63.7529 61.5677C63.7286 60.4289 64.6284 59.4824 65.7714 59.4455Z" fill="white"/>
<path opacity="0.72" d="M52.1252 59.8905L59.424 59.6524C60.4524 59.6185 61.3103 60.4285 61.3321 61.4536L61.4844 68.5979C61.5062 69.6297 60.6726 70.4783 59.6369 70.4783H52.3327C51.3274 70.4795 50.5059 69.6787 50.4847 68.6771L50.3378 61.7697C50.3166 60.7615 51.1132 59.9232 52.1252 59.8905Z" fill="white"/>
<path opacity="0.72" d="M98.2397 42.3439L92.7945 42.3748C91.3462 42.3826 90.1589 41.2318 90.1286 39.789L90.0333 35.3132C90.0042 33.9611 91.123 32.8629 92.4802 32.9112L98.5407 33.1282C99.9155 33.1772 101.013 34.2869 101.042 35.6577L101.122 39.3955C101.156 41.0075 99.8584 42.3355 98.2403 42.3445L98.2397 42.3439Z" fill="white"/>
<path opacity="0.72" d="M104.309 75.5312C104.283 74.3072 105.265 73.2972 106.494 73.2851L108.866 73.2622C110.669 73.2446 112.143 74.4317 112.175 75.9271L112.268 80.2536C112.299 81.7363 110.899 82.979 109.113 83.0545L106.566 83.1621C105.418 83.2105 104.453 82.3092 104.429 81.1639L104.309 75.5318V75.5312Z" fill="white"/>
<path opacity="0.72" d="M28.0308 74.0437L32.6958 73.9984C33.8401 73.9875 34.7805 74.8954 34.8041 76.0353L34.9771 84.1419C35.0013 85.274 34.1125 86.2175 32.9773 86.2653L28.3335 86.4611C26.4818 86.5391 24.9281 85.3363 24.8959 83.7998L24.7479 76.8477C24.7157 75.3233 26.1931 74.0612 28.0314 74.0437H28.0308Z" fill="white"/>
<path opacity="0.72" d="M108.678 70.4727H106.362C105.161 70.4727 104.18 69.5165 104.155 68.3204L103.985 60.3739C103.96 59.1693 104.911 58.1684 106.12 58.1291L108.451 58.0529C110.289 57.9931 111.819 59.1911 111.851 60.716L111.999 67.6682C112.032 69.2053 110.531 70.4721 108.678 70.4727H108.678Z" fill="white"/>
<path opacity="0.72" d="M108.483 55.2605L105.568 55.3554C104.639 55.3856 103.863 54.6543 103.844 53.7283L103.722 47.9892C103.702 47.056 104.457 46.289 105.394 46.2908L108.338 46.2962C110.123 46.2992 111.57 47.4809 111.601 48.9611L111.676 52.459C111.708 53.9543 110.285 55.2025 108.483 55.2611L108.483 55.2605Z" fill="white"/>
<path opacity="0.72" d="M27.2857 30.578L31.9641 30.7455C33.018 30.7829 33.8595 31.634 33.8819 32.6839L34.0524 40.6913C34.0761 41.7981 33.1854 42.7089 32.0745 42.7156L27.2572 42.7428C25.4607 42.7531 23.9961 41.5678 23.9646 40.0779L23.822 33.3796C23.788 31.796 25.3788 30.5097 27.2857 30.578Z" fill="white"/>
<path opacity="0.72" d="M66.1227 73.6756L72.9476 73.6097C74.0907 73.5988 75.0305 74.5061 75.0548 75.6448L75.1998 82.4477C75.224 83.5786 74.3358 84.5215 73.2012 84.5692L66.3812 84.8569C65.212 84.9065 64.231 83.989 64.2061 82.8236L64.0563 75.799C64.0314 74.6415 64.9609 73.6871 66.1227 73.6756Z" fill="white"/>
<path opacity="0.72" d="M27.4823 46.15L32.2238 46.1585C33.305 46.1603 34.1865 47.0222 34.2096 48.0987L34.3716 55.7163C34.3946 56.8019 33.5367 57.7037 32.4477 57.7393L27.6868 57.8947C25.849 57.9545 24.3195 56.7565 24.2868 55.2316L24.1533 48.954C24.1205 47.4145 25.6258 46.1464 27.4823 46.1494V46.15Z" fill="white"/>
<path opacity="0.72" d="M27.6552 60.6882L32.6048 60.5269C33.6332 60.4936 34.4911 61.303 34.5129 62.3281L34.6464 68.6008C34.6682 69.6326 33.8346 70.4812 32.799 70.4812H27.8257C26.0377 70.4818 24.5865 69.2996 24.5549 67.8169L24.4627 63.4904C24.4312 61.995 25.8533 60.7469 27.6552 60.6882Z" fill="white"/>
<path opacity="0.72" d="M47.9225 61.8912L48.0657 68.5998C48.0875 69.6315 47.2539 70.4801 46.2183 70.4801H38.914C37.9087 70.4808 37.0872 69.6805 37.066 68.6783L36.9283 62.2067C36.907 61.1985 37.7036 60.3602 38.7156 60.3275L46.015 60.0894C47.0434 60.0556 47.9013 60.8655 47.9231 61.8906L47.9225 61.8912Z" fill="white"/>
<path opacity="0.72" d="M39.2914 73.9349L46.1127 73.869C47.2569 73.8581 48.1974 74.766 48.2216 75.9059L48.3848 83.5767C48.4091 84.7088 47.5203 85.6523 46.3851 85.7001L39.5687 85.9872C38.3989 86.0368 37.4167 85.1186 37.3918 83.9521L37.2237 76.0594C37.1988 74.9008 38.1289 73.9458 39.292 73.9343L39.2914 73.9349Z" fill="white"/>
<path opacity="0.72" d="M108.099 42.2883L105.245 42.3046C104.333 42.3101 103.585 41.5848 103.566 40.6769L103.447 35.0636C103.426 34.108 104.216 33.3319 105.176 33.3663L108.2 33.4745C109.93 33.5362 111.297 34.6997 111.328 36.137L111.399 39.485C111.432 41.0148 109.944 42.2786 108.1 42.2889L108.099 42.2883Z" fill="white"/>
<path opacity="0.72" d="M52.7077 73.805L59.4143 73.7403C60.6223 73.7289 61.6148 74.6875 61.6403 75.8903L61.792 83.0111C61.8163 84.1432 60.9274 85.0867 59.7917 85.1344L52.9752 85.4221C51.8055 85.4717 50.8232 84.5536 50.7983 83.387L50.6394 75.9302C50.6145 74.7715 51.5446 73.8165 52.7077 73.805Z" fill="white"/>
<path opacity="0.72" d="M47.3109 33.165L47.4699 40.6164C47.4936 41.7231 46.6029 42.634 45.492 42.6406L38.4711 42.6799C37.3845 42.686 36.4938 41.8222 36.4708 40.7397L36.3058 32.997C36.2815 31.8582 37.2237 30.9334 38.3662 30.9739L45.3931 31.2254C46.447 31.2629 47.2885 32.1139 47.3109 33.1644V33.165Z" fill="white"/>
<path opacity="0.72" d="M47.6295 48.1227L47.7818 55.2792C47.8048 56.3647 46.9469 57.2665 45.8579 57.3022L38.8412 57.5313C37.734 57.5675 36.8106 56.6959 36.7869 55.5923L36.6291 48.1946C36.6055 47.0825 37.5052 46.1686 38.6216 46.1704L45.6431 46.1831C46.7243 46.1849 47.6058 47.0462 47.6289 48.1233L47.6295 48.1227Z" fill="white"/>
<path d="M108.878 27.4369L108.555 29.7966C108.451 30.5522 107.812 31.1203 107.046 31.1367L106.935 31.1391C106.075 31.1572 105.364 30.4784 105.346 29.622L105.295 27.2067C105.275 26.2704 106.086 25.5306 107.02 25.6333L107.507 25.6865C108.377 25.782 108.996 26.5732 108.878 27.4369H108.878Z" fill="white"/>
<path d="M97.8842 26.8295L97.5608 29.1892C97.4577 29.9448 96.8176 30.5129 96.0525 30.5292L95.9409 30.5317C95.0818 30.5498 94.3707 29.871 94.3525 29.0145L94.3009 26.5992C94.2809 25.663 95.0927 24.9232 96.0264 25.0259L96.513 25.0791C97.3831 25.1746 98.0025 25.9658 97.8842 26.8295Z" fill="white"/>
<path d="M84.3569 27.0151L84.0335 29.3748C83.9298 30.1303 83.2903 30.6985 82.5252 30.7148L82.413 30.7172C81.5539 30.7353 80.8428 30.0566 80.8246 29.2001L80.773 26.7848C80.753 25.8485 81.5648 25.1087 82.4991 25.2115L82.9857 25.2646C83.8558 25.3601 84.4752 26.1513 84.3569 27.0151Z" fill="white"/>
<path d="M71.1779 26.4268L70.8545 28.7865C70.7507 29.542 70.1113 30.1102 69.3456 30.1265L69.2339 30.1289C68.3748 30.1471 67.6638 29.4683 67.6456 28.6124L67.594 26.1971C67.574 25.2609 68.3858 24.5211 69.3195 24.6238L69.8061 24.677C70.6761 24.7725 71.2962 25.5637 71.1773 26.4274L71.1779 26.4268Z" fill="white"/>
<path d="M57.6415 24.7121L57.3181 27.0718C57.2143 27.8273 56.5749 28.3955 55.8098 28.4118L55.6982 28.4142C54.8391 28.4324 54.128 27.753 54.1098 26.8971L54.0582 24.4818C54.0382 23.5456 54.85 22.8057 55.7837 22.9079L56.2703 22.9611C57.1403 23.0566 57.7598 23.8478 57.6415 24.7115V24.7121Z" fill="white"/>
<path d="M43.3018 25.0148L42.9784 27.3745C42.8747 28.1301 42.2352 28.6982 41.4695 28.7145L41.3579 28.717C40.4988 28.7351 39.7877 28.0563 39.7695 27.1998L39.7179 24.7845C39.6979 23.8483 40.5097 23.1085 41.4434 23.2106L41.93 23.2638C42.8 23.3593 43.4195 24.1505 43.3012 25.0142L43.3018 25.0148Z" fill="white"/>
<path d="M31.1978 24.7629L30.8745 27.1226C30.7707 27.8781 30.1312 28.4463 29.3662 28.4626L29.2539 28.465C28.3948 28.4831 27.6838 27.8044 27.6655 26.9479L27.614 24.5326C27.594 23.5963 28.4057 22.8565 29.3401 22.9593L29.8267 23.0124C30.6967 23.1079 31.3161 23.8991 31.1978 24.7629Z" fill="white"/>
<path d="M75.6772 38.9143C75.707 38.4042 76.2421 38.186 76.6359 38.4949C77.7486 39.3677 78.2006 40.724 78.7484 41.9885C79.3873 43.4621 79.9995 44.9472 80.5437 46.4582C81.117 48.0515 81.6061 49.6732 81.9786 51.3203C82.7169 49.3534 83.5748 47.4374 84.6627 45.6193C84.9515 45.1363 85.7675 45.4192 85.6055 45.9922C84.6645 49.325 83.5063 52.5896 82.6205 55.9393C82.308 57.121 80.6851 56.8417 80.5643 55.706C80.2343 52.6041 79.4826 49.6369 78.4153 46.7072C77.9075 45.3146 77.3415 43.9432 76.7542 42.582C76.2342 41.3768 75.599 40.2532 75.6772 38.9149V38.9143Z" fill="#9AE343"/>
<path d="M74.1489 41.3865C75.1166 41.2058 75.4685 42.44 74.5815 42.8293C68.7091 45.403 67.9416 52.6555 72.1838 57.0473C74.1459 59.0782 76.7493 60.6551 79.2144 62.0103C81.7147 63.3847 84.5055 64.4346 87.4069 64.1445C94.1323 63.4712 95.0466 56.652 93.0353 51.3904C91.1017 46.3295 86.9597 42.4225 81.8888 40.5494C81.2335 40.3076 81.4878 39.245 82.1588 39.485C86.9166 41.1846 90.9658 44.5374 93.4746 48.9256C95.7819 52.9613 97.1664 58.6545 94.1456 62.7059C91.0198 66.8983 85.0868 66.9732 80.6171 65.2258C75.7003 63.3031 69.578 59.737 67.6207 54.5613C65.57 49.1395 68.1006 42.515 74.1489 41.3877V41.3865Z" fill="#9AE343"/>
<path d="M106.958 23.4837C108.397 23.0495 109.211 21.5351 108.775 20.1012C108.339 18.6674 106.819 17.8571 105.379 18.2913C103.94 18.7256 103.127 20.24 103.563 21.6739C103.999 23.1077 105.519 23.918 106.958 23.4837Z" fill="#9AE343"/>
<path d="M85.7832 22.6069C86.8465 21.5475 86.8465 19.8299 85.7832 18.7706C84.7198 17.7112 82.9957 17.7112 81.9324 18.7706C80.869 19.8299 80.869 21.5475 81.9324 22.6069C82.9957 23.6662 84.7198 23.6662 85.7832 22.6069Z" fill="#9AE343"/>
<path d="M61.3364 22.6702C62.8402 22.6702 64.0593 21.4557 64.0593 19.9576C64.0593 18.4594 62.8402 17.2449 61.3364 17.2449C59.8325 17.2449 58.6134 18.4594 58.6134 19.9576C58.6134 21.4557 59.8325 22.6702 61.3364 22.6702Z" fill="#9AE343"/>
<path d="M39.6495 21.5563C41.1131 21.2122 42.0196 19.7512 41.6742 18.293C41.3287 16.8349 39.8622 15.9319 38.3985 16.276C36.9349 16.6202 36.0285 18.0812 36.3739 19.5393C36.7194 20.9974 38.1859 21.9005 39.6495 21.5563Z" fill="#9AE343"/>
<path d="M36.9537 0.116068C41.5362 1.11217 41.1037 13.1228 40.7354 17.9987C40.6486 19.1459 39.6894 20.0314 38.5342 20.0314C38.2133 20.0314 37.9081 19.8936 37.6939 19.6561C37.4798 19.4185 37.3772 19.1006 37.4118 18.7827C37.8074 15.0974 38.6501 4.48367 35.2762 3.91611C35.2762 3.91611 32.856 3.48939 32.4489 8.15921H29.8309C29.8309 8.15921 31.1924 -1.13631 36.9537 0.116068Z" fill="#686868"/>
<path d="M59.2656 0.733724C63.8481 1.72982 63.4156 13.7447 63.0473 18.6206C62.9605 19.7678 62.0013 20.6551 60.8461 20.6551C60.5252 20.6551 60.22 20.5185 60.0058 20.281C59.7917 20.0434 59.6891 19.7255 59.7237 19.4082C60.1193 15.723 60.962 5.10133 57.5881 4.53377C57.5881 4.53377 55.1679 4.20073 54.7608 8.76901H52.1428C52.1428 8.76901 53.5043 -0.518049 59.2656 0.734329V0.733724Z" fill="#686868"/>
<path d="M81.5769 1.3539C86.1594 2.35 85.7269 14.3679 85.3586 19.2438C85.2718 20.391 84.3126 21.2801 83.1574 21.2801C82.8365 21.2801 82.5313 21.1441 82.3171 20.9066C82.103 20.669 82.0004 20.3517 82.035 20.0338C82.4306 16.3486 83.2733 5.72151 79.8994 5.15395C79.8994 5.15395 77.4804 4.88256 77.0733 9.47441L74.4541 9.38375C74.4541 9.38375 75.8156 0.102131 81.5769 1.35451V1.3539Z" fill="#686868"/>
<path d="M103.889 2.07194C108.471 3.06804 108.039 15.0919 107.67 19.9679C107.583 21.1151 106.624 22.0072 105.469 22.0072C105.148 22.0072 104.843 21.873 104.628 21.6355C104.414 21.398 104.312 21.0812 104.346 20.7639C104.742 17.0787 105.585 6.43894 102.211 5.87138C102.211 5.87138 99.7905 5.52021 99.3834 10.0885H96.7654C96.7654 10.0885 98.1269 0.819562 103.888 2.07194H103.889Z" fill="#686868"/>
</g>
<defs>
<clipPath id="clip0_1244_53585">
<rect width="125.317" height="97" fill="white"/>
</clipPath>
</defs>
</svg>
