<svg width="141" height="141" viewBox="0 0 141 141" fill="none" xmlns="http://www.w3.org/2000/svg">
<g filter="url(#filter0_d_1244_53574)">
<ellipse cx="72.9297" cy="69.7162" rx="21.6401" ry="24.1564" transform="rotate(28.7363 72.9297 69.7162)" fill="#FF8F00"/>
<rect x="78.3508" y="45.4218" width="6.46088" height="46.3199" transform="rotate(26.5501 78.3508 45.4218)" fill="#FF8F00"/>
<rect x="75.7671" y="51.2452" width="4.57269" height="42.1753" transform="rotate(24.1806 75.7671 51.2452)" fill="#FF8F00"/>
<ellipse cx="68.0117" cy="67.2572" rx="21.6401" ry="24.1564" transform="rotate(28.7363 68.0117 67.2572)" fill="#FFC300"/>
<path fill-rule="evenodd" clip-rule="evenodd" d="M56.3975 88.4385C66.8771 94.1846 80.5722 89.3594 86.9864 77.6613C92.936 66.8104 90.5314 53.8575 81.7884 47.4524C91.4872 53.523 94.3777 67.1376 88.1682 78.4625C81.7541 90.1606 68.0589 94.9858 57.5794 89.2397C56.8203 88.8235 56.099 88.3633 55.4163 87.8632C55.736 88.0633 56.0631 88.2552 56.3975 88.4385Z" fill="#FFE473"/>
<ellipse cx="68.5029" cy="68.3689" rx="16.1043" ry="19.1238" transform="rotate(28.7363 68.5029 68.3689)" fill="#FFB100"/>
<path fill-rule="evenodd" clip-rule="evenodd" d="M81.992 55.2764C80.8394 53.7896 79.402 52.535 77.6974 51.6003C69.8987 47.3242 59.4601 51.3653 54.3822 60.6263C50.7369 67.2745 50.8452 74.8055 54.0815 80.1077C49.961 74.7923 49.4814 66.5094 53.4495 59.2726C58.5274 50.0116 68.966 45.9705 76.7647 50.2466C78.965 51.453 80.72 53.1926 81.992 55.2764Z" fill="#FF8F00"/>
<g filter="url(#filter1_d_1244_53574)">
<path fill-rule="evenodd" clip-rule="evenodd" d="M67.8299 56.0046C67.7732 55.9735 67.702 55.9942 67.6709 56.051L63.4258 63.7932L62.3504 65.7544L58.4148 72.9323C58.2127 73.3007 58.3477 73.7632 58.7161 73.9652L65.2495 77.5475C67.9574 79.0323 71.3562 78.0407 72.841 75.3328C73.9601 73.2919 73.6724 70.8584 72.3035 69.1478C73.5841 68.7147 74.7122 67.8186 75.4134 66.5398C76.8981 63.8319 75.9066 60.4331 73.1987 58.9483L67.8299 56.0046Z" fill="#FFF2D6"/>
</g>
</g>
<defs>
<filter id="filter0_d_1244_53574" x="0" y="0" width="140.941" height="141" filterUnits="userSpaceOnUse" color-interpolation-filters="sRGB">
<feFlood flood-opacity="0" result="BackgroundImageFix"/>
<feColorMatrix in="SourceAlpha" type="matrix" values="0 0 0 0 0 0 0 0 0 0 0 0 0 0 0 0 0 0 127 0" result="hardAlpha"/>
<feOffset dy="2"/>
<feGaussianBlur stdDeviation="8"/>
<feColorMatrix type="matrix" values="0 0 0 0 0 0 0 0 0 0 0 0 0 0 0 0 0 0 0.5 0"/>
<feBlend mode="normal" in2="BackgroundImageFix" result="effect1_dropShadow_1244_53574"/>
<feBlend mode="normal" in="SourceGraphic" in2="effect1_dropShadow_1244_53574" result="shape"/>
</filter>
<filter id="filter1_d_1244_53574" x="54.2948" y="51.9639" width="25.8343" height="30.2992" filterUnits="userSpaceOnUse" color-interpolation-filters="sRGB">
<feFlood flood-opacity="0" result="BackgroundImageFix"/>
<feColorMatrix in="SourceAlpha" type="matrix" values="0 0 0 0 0 0 0 0 0 0 0 0 0 0 0 0 0 0 127 0" result="hardAlpha"/>
<feOffset/>
<feGaussianBlur stdDeviation="2"/>
<feComposite in2="hardAlpha" operator="out"/>
<feColorMatrix type="matrix" values="0 0 0 0 0.770833 0 0 0 0 0.432271 0 0 0 0 0 0 0 0 1 0"/>
<feBlend mode="normal" in2="BackgroundImageFix" result="effect1_dropShadow_1244_53574"/>
<feBlend mode="normal" in="SourceGraphic" in2="effect1_dropShadow_1244_53574" result="shape"/>
</filter>
</defs>
</svg>
