<svg width="20" height="20" viewBox="0 0 20 20" fill="none" xmlns="http://www.w3.org/2000/svg">
<path d="M2.91294 8.91459C3.35658 8.91459 3.67466 8.57977 3.67466 8.13612V7.433L3.50725 4.51169L5.7087 6.83032L8.28682 9.42518C8.42912 9.57582 8.61327 9.64282 8.81417 9.64282C9.29128 9.64282 9.64285 9.33311 9.64285 8.86437C9.64285 8.63836 9.5675 8.43747 9.41685 8.28679L6.83035 5.70867L4.51172 3.50722L7.4414 3.67463H8.13615C8.5798 3.67463 8.92299 3.36492 8.92299 2.91291C8.92299 2.4609 8.58817 2.14282 8.13615 2.14282H3.49051C2.63671 2.14282 2.14285 2.63668 2.14285 3.49048V8.13612C2.14285 8.57139 2.4693 8.91459 2.91294 8.91459ZM12.0954 18.1138H16.7411C17.5949 18.1138 18.0971 17.62 18.0971 16.7662V12.1205C18.0971 11.6853 17.7706 11.342 17.3186 11.342C16.8834 11.342 16.5569 11.6769 16.5569 12.1205V12.8236L16.7327 15.745L14.5229 13.4263L11.9531 10.8315C11.8109 10.6808 11.6183 10.6138 11.4174 10.6138C10.9486 10.6138 10.5887 10.9235 10.5887 11.3923C10.5887 11.6183 10.6724 11.8192 10.8231 11.9698L13.4012 14.548L15.7282 16.7494L12.7986 16.582H12.0954C11.6518 16.582 11.3086 16.8917 11.3086 17.3437C11.3086 17.7958 11.6518 18.1138 12.0954 18.1138Z" fill="white"/>
</svg>
