<svg width="80" height="80" viewBox="0 0 80 80" fill="none" xmlns="http://www.w3.org/2000/svg">
<path d="M39.5 65C37.5657 65 36 63.5668 36 61.8009V52.1991C36 50.4332 37.5657 49 39.5 49C41.4343 49 43 50.4332 43 52.1991V61.8009C43 63.5668 41.432 65 39.5 65Z" fill="#9A9A9A"/>
<path d="M54 62.2V71.8C54 73.5707 52.5569 75 50.7692 75H29.2308C27.4431 75 26 73.5707 26 71.8V62.2C26 60.4293 27.4431 59 29.2308 59H50.7692C52.5569 59 54 60.4293 54 62.2Z" fill="#9A9A9A"/>
<path d="M54.7353 75H24.2647C22.4604 75 21 73.432 21 71.5C21 69.568 22.4604 68 24.2647 68H54.7353C56.5396 68 58 69.568 58 71.5C58 73.432 56.5374 75 54.7353 75Z" fill="#9A9A9A"/>
<path d="M57.3073 40C55.687 40 54.2698 38.8297 54.0336 37.2087C53.7753 35.4337 55.0336 33.7845 56.8437 33.531C62.8502 32.6879 67.3776 27.5495 67.3776 21.5789V18.5015H57.422C55.5921 18.5015 54.1109 17.0452 54.1109 15.2508C54.1109 13.4563 55.5921 12 57.422 12H70.6888C72.5188 12 74 13.4563 74 15.2508V21.5789C74 30.7635 67.0267 38.6693 57.7797 39.9675C57.6207 39.9892 57.464 40 57.3073 40Z" fill="#9A9A9A"/>
<path fill-rule="evenodd" clip-rule="evenodd" d="M22.3158 5H57.6842C59.5189 5 61 6.45652 61 8.26087V34.3478C61 45.7391 51.5832 55 40 55C28.4168 55 19 45.7391 19 34.3478V8.26087C19 6.45652 20.4811 5 22.3158 5ZM28.9695 26.7391C30.8042 26.7391 32.2853 25.2826 32.2853 23.4783V14.7826C32.2853 12.9783 30.8042 11.5217 28.9695 11.5217C27.1347 11.5217 25.6537 12.9783 25.6537 14.7826V23.4783C25.6537 25.2826 27.1347 26.7391 28.9695 26.7391Z" fill="#9A9A9A"/>
<path d="M22.6881 40C22.529 40 22.3654 39.9892 22.2041 39.9653C12.9651 38.6412 6 30.7353 6 21.5789V15.2508C6 13.4563 7.48275 12 9.31463 12H22.5732C24.405 12 25.8878 13.4563 25.8878 15.2508C25.8878 17.0452 24.405 18.5015 22.5732 18.5015H12.6293V21.5789C12.6293 27.5322 17.1571 32.6706 23.1632 33.5331C24.9752 33.7932 26.2281 35.4446 25.9651 37.2195C25.7221 38.8362 24.3078 40 22.6881 40Z" fill="#9A9A9A"/>
</svg>
