<svg width="112" height="126" viewBox="0 0 112 126" fill="none" xmlns="http://www.w3.org/2000/svg">
<path d="M38.8846 94.0574H73.1154C75.9497 94.0574 78.25 96.3746 78.25 99.2298V111.299C78.25 112.25 77.4832 113.023 76.5385 113.023L75.3543 113.252C62.5697 115.722 49.4303 115.722 36.6457 113.252L35.4615 113.023C34.5168 113.023 33.75 112.25 33.75 111.299V99.2298C33.75 96.3746 36.0503 94.0574 38.8846 94.0574Z" fill="url(#paint0_linear_1244_53598)"/>
<path d="M73 94.5076V91.4299C73 90.1708 72.3098 89.0183 71.1861 88.4396C68.2536 86.93 62.8 83.1257 62.8 75.6999V74.0076H49.2V75.6999C49.2 83.124 43.7464 86.93 40.8139 88.4396C39.6902 89.0183 39 90.1708 39 91.4299V94.5076C50.2944 95.8363 61.7056 95.8363 73 94.5076Z" fill="#3B3B3B"/>
<path d="M75.9737 54.3677C85.8321 53.7815 93.6538 45.5229 93.6538 35.4367V28.5401C93.6538 27.5884 92.8871 26.816 91.9423 26.816L79.9615 28.9041V22.0075L97.0769 19.9194C98.9596 19.9194 100.5 21.4712 100.5 23.3677V35.4367C100.5 49.7125 88.9985 61.2987 74.8269 61.2987H69.6923V54.4022L75.9737 54.3677Z" fill="url(#paint1_linear_1244_53598)"/>
<path d="M36.0263 54.3677C26.1679 53.7815 18.3462 45.5229 18.3462 35.4367V28.5401C18.3462 27.5884 19.1129 26.816 20.0577 26.816L32.0385 28.5401V22.0075L14.9231 19.9194C13.0404 19.9194 11.5 21.4712 11.5 23.3677V35.4367C11.5 49.7125 23.0015 61.2987 37.1731 61.2987H42.3077V54.4022L36.0263 54.3677Z" fill="url(#paint2_linear_1244_53598)"/>
<path d="M66.2692 64.7471V71.6436C66.2692 73.5402 64.7288 75.0919 62.8462 75.0919C58.3681 76.3449 53.6319 76.3449 49.1538 75.0919C47.2712 75.0919 45.7308 73.5402 45.7308 71.6436V64.7471H66.2692Z" fill="url(#paint3_linear_1244_53598)"/>
<path d="M64.5577 104.402C58.8762 105.136 53.1238 105.136 47.4423 104.402C46.4958 104.402 45.7308 103.631 45.7308 102.678C45.7308 101.725 46.4958 100.954 47.4423 100.954C53.1238 101.688 58.8762 101.688 64.5577 100.954C65.5042 100.954 66.2692 101.725 66.2692 102.678C66.2692 103.631 65.5042 104.402 64.5577 104.402Z" fill="#BFDE38"/>
<path d="M28.6154 19.9195C28.6154 19.9195 28.6154 68.1953 56 68.1953C83.3846 68.1953 83.3846 19.9195 83.3846 19.9195V16.4712H28.6154V19.9195Z" fill="url(#paint4_linear_1244_53598)"/>
<path fill-rule="evenodd" clip-rule="evenodd" d="M49 28.2001C49 28.0897 49.0883 28 49.197 28H56.3884C59.4085 28 61.857 30.4873 61.857 33.5556C61.857 34.9738 61.3339 36.2679 60.473 37.2498C62.5348 38.0449 64 40.0709 64 42.4444C64 45.5127 61.5515 48 58.5312 48H50.1485C49.5142 48 49 47.4776 49 46.8333V28.2001Z" fill="white"/>
<path d="M25.1923 16.0255C25.1923 14.3079 26.4665 12.8568 28.1698 12.6349L34.1161 11.8599C48.6439 9.96651 63.3561 9.96651 77.8839 11.8599L83.8302 12.6349C85.5335 12.8568 86.8077 14.3079 86.8077 16.0255C86.8077 18.0895 84.9931 19.683 82.9464 19.4162L76.1513 18.5306C62.7737 16.7872 49.2263 16.7872 35.8487 18.5306L29.0536 19.4162C27.0069 19.683 25.1923 18.0895 25.1923 16.0255Z" fill="url(#paint5_linear_1244_53598)"/>
<defs>
<linearGradient id="paint0_linear_1244_53598" x1="33.75" y1="94.0574" x2="33.75" y2="113.023" gradientUnits="userSpaceOnUse">
<stop stop-color="#343434"/>
<stop offset="1"/>
</linearGradient>
<linearGradient id="paint1_linear_1244_53598" x1="69.6923" y1="19.9194" x2="69.6923" y2="61.2987" gradientUnits="userSpaceOnUse">
<stop stop-color="#EBDDBF"/>
<stop offset="1" stop-color="#E3E3E3"/>
</linearGradient>
<linearGradient id="paint2_linear_1244_53598" x1="11.5" y1="19.9194" x2="11.5" y2="61.2987" gradientUnits="userSpaceOnUse">
<stop stop-color="#EBDDBF"/>
<stop offset="1" stop-color="#E3E3E3"/>
</linearGradient>
<linearGradient id="paint3_linear_1244_53598" x1="45.7308" y1="64.7471" x2="45.7308" y2="75.0919" gradientUnits="userSpaceOnUse">
<stop stop-color="#F1E9DE"/>
<stop offset="1" stop-color="#DFCEB9"/>
</linearGradient>
<linearGradient id="paint4_linear_1244_53598" x1="28.6154" y1="16.4712" x2="28.6154" y2="68.1953" gradientUnits="userSpaceOnUse">
<stop stop-color="#939393"/>
<stop offset="1" stop-color="#212121"/>
</linearGradient>
<linearGradient id="paint5_linear_1244_53598" x1="25.1923" y1="13.0229" x2="25.1923" y2="19.9195" gradientUnits="userSpaceOnUse">
<stop stop-color="#F1E9DE"/>
<stop offset="1" stop-color="#DFCEB9"/>
</linearGradient>
</defs>
</svg>
