<svg width="56" height="57" viewBox="0 0 56 57" fill="none" xmlns="http://www.w3.org/2000/svg">
<g filter="url(#filter0_d_1244_54658)">
<mask id="mask0_1244_54658" style="mask-type:alpha" maskUnits="userSpaceOnUse" x="16" y="9" width="24" height="33">
<path d="M40 41.9977L15.9999 41.9977L40 9.99758L40 41.9977Z" fill="#D9D9D9"/>
</mask>
<g mask="url(#mask0_1244_54658)">
<g clip-path="url(#clip0_1244_54658)">
<path d="M40.0001 18H16V34.0002H40.0001V18Z" fill="#F0F0F0"/>
<path d="M29.5001 17.9998H26.5001V24.4998H16V27.4998H26.5001V33.9998H29.5001V27.4998H40.0001V24.4998H29.5001V17.9998Z" fill="#D80027"/>
<path d="M34.4588 28.7825L40.0001 31.8611V28.7825H34.4588Z" fill="#0052B4"/>
<path d="M30.6088 28.7825L40.0001 33.9999V32.5246L33.2645 28.7825H30.6088Z" fill="#0052B4"/>
<path d="M37.4986 33.9999L30.6088 30.1719V33.9999H37.4986Z" fill="#0052B4"/>
<path d="M30.6088 28.7825L40.0001 33.9999V32.5246L33.2645 28.7825H30.6088Z" fill="#F0F0F0"/>
<path d="M30.6088 28.7825L40.0001 33.9999V32.5246L33.2645 28.7825H30.6088Z" fill="#D80027"/>
<path d="M20.2348 28.7823L16 31.135V28.7823H20.2348Z" fill="#0052B4"/>
<path d="M25.3914 29.4459V33.9998H17.1949L25.3914 29.4459Z" fill="#0052B4"/>
<path d="M22.7357 28.7825L16 32.5246V33.9999L25.3914 28.7825H22.7357Z" fill="#D80027"/>
<path d="M21.5414 23.2173L16 20.1387V23.2173H21.5414Z" fill="#0052B4"/>
<path d="M25.3914 23.2172L16 17.9998V19.4751L22.7357 23.2172H25.3914Z" fill="#0052B4"/>
<path d="M18.5016 17.9998L25.3914 21.8278V17.9998H18.5016Z" fill="#0052B4"/>
<path d="M25.3914 23.2172L16 17.9998V19.4751L22.7357 23.2172H25.3914Z" fill="#F0F0F0"/>
<path d="M25.3914 23.2172L16 17.9998V19.4751L22.7357 23.2172H25.3914Z" fill="#D80027"/>
<path d="M35.7654 23.2175L40.0001 20.8648V23.2175H35.7654Z" fill="#0052B4"/>
<path d="M30.6088 22.554V18H38.8052L30.6088 22.554Z" fill="#0052B4"/>
<path d="M33.2645 23.2172L40.0001 19.4751V17.9998L30.6088 23.2172H33.2645Z" fill="#D80027"/>
</g>
</g>
<mask id="mask1_1244_54658" style="mask-type:alpha" maskUnits="userSpaceOnUse" x="16" y="9" width="24" height="33">
<path d="M15.9999 9.99758L40 9.99758L15.9999 41.9977L15.9999 9.99758Z" fill="#D9D9D9"/>
</mask>
<g mask="url(#mask1_1244_54658)">
<g clip-path="url(#clip1_1244_54658)">
<path d="M40.0005 18.0022H16.0004V34.0024H40.0005V18.0022Z" fill="#F0F0F0"/>
<path d="M40.0005 20.002H16.0004V22.0018H40.0005V20.002Z" fill="#D80027"/>
<path d="M40.0005 24.0022H16.0004V26.0021H40.0005V24.0022Z" fill="#D80027"/>
<path d="M40.0005 28.0018H16.0004V30.0016H40.0005V28.0018Z" fill="#D80027"/>
<path d="M40.0005 32.002H16.0004V34.0019H40.0005V32.002Z" fill="#D80027"/>
<path d="M28.0004 18.0022H16.0004V26.6177H28.0004V18.0022Z" fill="#2E52B2"/>
<path d="M20.6796 21.5315L20.4863 22.1261H19.8612L20.367 22.4934L20.1738 23.0879L20.6796 22.7206L21.1851 23.0879L20.9919 22.4934L21.4977 22.1261H20.8725L20.6796 21.5315Z" fill="#F0F0F0"/>
<path d="M20.8725 24.2716L20.6796 23.6771L20.4863 24.2716H19.8612L20.367 24.6389L20.1738 25.2334L20.6796 24.8661L21.1851 25.2334L20.9919 24.6389L21.4977 24.2716H20.8725Z" fill="#F0F0F0"/>
<path d="M18.2306 24.2716L18.0376 23.6771L17.8443 24.2716H17.2192L17.725 24.6389L17.5318 25.2334L18.0376 24.8661L18.5432 25.2334L18.3499 24.6389L18.8557 24.2716H18.2306Z" fill="#F0F0F0"/>
<path d="M18.0376 21.5315L17.8443 22.1261H17.2192L17.725 22.4934L17.5318 23.0879L18.0376 22.7206L18.5432 23.0879L18.3499 22.4934L18.8557 22.1261H18.2306L18.0376 21.5315Z" fill="#F0F0F0"/>
<path d="M20.6796 19.3858L20.4863 19.9804H19.8612L20.367 20.3477L20.1738 20.9422L20.6796 20.5749L21.1851 20.9422L20.9919 20.3477L21.4977 19.9804H20.8725L20.6796 19.3858Z" fill="#F0F0F0"/>
<path d="M18.0376 19.3858L17.8443 19.9804H17.2192L17.725 20.3477L17.5318 20.9422L18.0376 20.5749L18.5432 20.9422L18.3499 20.3477L18.8557 19.9804H18.2306L18.0376 19.3858Z" fill="#F0F0F0"/>
<path d="M23.3215 21.5315L23.1283 22.1261H22.5032L23.0089 22.4934L22.8158 23.0879L23.3215 22.7206L23.8271 23.0879L23.6338 22.4934L24.1397 22.1261H23.5145L23.3215 21.5315Z" fill="#F0F0F0"/>
<path d="M23.5145 24.2716L23.3215 23.6771L23.1283 24.2716H22.5032L23.0089 24.6389L22.8158 25.2334L23.3215 24.8661L23.8271 25.2334L23.6338 24.6389L24.1397 24.2716H23.5145Z" fill="#F0F0F0"/>
<path d="M26.1565 24.2716L25.9635 23.6771L25.7703 24.2716H25.1452L25.6509 24.6389L25.4577 25.2334L25.9635 24.8661L26.4691 25.2334L26.2758 24.6389L26.7817 24.2716H26.1565Z" fill="#F0F0F0"/>
<path d="M25.9635 21.5315L25.7703 22.1261H25.1452L25.6509 22.4934L25.4577 23.0879L25.9635 22.7206L26.4691 23.0879L26.2758 22.4934L26.7817 22.1261H26.1565L25.9635 21.5315Z" fill="#F0F0F0"/>
<path d="M23.3215 19.3858L23.1283 19.9804H22.5032L23.0089 20.3477L22.8158 20.9422L23.3215 20.5749L23.8271 20.9422L23.6338 20.3477L24.1397 19.9804H23.5145L23.3215 19.3858Z" fill="#F0F0F0"/>
<path d="M25.9635 19.3858L25.7703 19.9804H25.1452L25.6509 20.3477L25.4577 20.9422L25.9635 20.5749L26.4691 20.9422L26.2758 20.3477L26.7817 19.9804H26.1565L25.9635 19.3858Z" fill="#F0F0F0"/>
</g>
</g>
</g>
<defs>
<filter id="filter0_d_1244_54658" x="-0.000122071" y="-0.00244141" width="56.0001" height="56.0048" filterUnits="userSpaceOnUse" color-interpolation-filters="sRGB">
<feFlood flood-opacity="0" result="BackgroundImageFix"/>
<feColorMatrix in="SourceAlpha" type="matrix" values="0 0 0 0 0 0 0 0 0 0 0 0 0 0 0 0 0 0 127 0" result="hardAlpha"/>
<feOffset dy="2"/>
<feGaussianBlur stdDeviation="8"/>
<feColorMatrix type="matrix" values="0 0 0 0 0 0 0 0 0 0 0 0 0 0 0 0 0 0 0.5 0"/>
<feBlend mode="normal" in2="BackgroundImageFix" result="effect1_dropShadow_1244_54658"/>
<feBlend mode="normal" in="SourceGraphic" in2="effect1_dropShadow_1244_54658" result="shape"/>
</filter>
<clipPath id="clip0_1244_54658">
<rect width="24" height="24" fill="white" transform="translate(16 14)"/>
</clipPath>
<clipPath id="clip1_1244_54658">
<rect width="24" height="24" fill="white" transform="translate(16.0004 14.0022)"/>
</clipPath>
</defs>
</svg>
