<svg width="21" height="16" viewBox="0 0 21 16" fill="none" xmlns="http://www.w3.org/2000/svg">
<path fill-rule="evenodd" clip-rule="evenodd" d="M3.65181 3.48615C2.35565 4.40506 1.19124 5.58646 0.241458 6.99297C0.0841074 7.22531 0 7.49947 0 7.78008C0 8.06068 0.0841074 8.33485 0.241458 8.56717C2.7012 12.2098 6.6006 14.3427 10.5 14.316C11.6618 14.3239 12.8237 14.1402 13.9475 13.7819L12.0747 11.9091C11.5766 12.0991 11.0434 12.1991 10.5 12.1991C9.626 12.1991 8.77162 11.94 8.04489 11.4544C7.31817 10.9688 6.75179 10.2787 6.41731 9.47118C6.08283 8.6637 5.99534 7.77517 6.16584 6.91796C6.21437 6.67401 6.28315 6.43572 6.37102 6.20537L3.65181 3.48615ZM7.65423 7.48859C7.64453 7.58447 7.63955 7.68176 7.63955 7.7802C7.63955 9.35999 8.92021 10.6407 10.5 10.6407C10.5985 10.6407 10.6957 10.6357 10.7916 10.626L7.65423 7.48859ZM13.3458 8.07171L10.2085 4.93441C10.3043 4.9247 10.4016 4.91974 10.5 4.91974C12.0798 4.91974 13.3605 6.20042 13.3605 7.7802C13.3605 7.87861 13.3555 7.97586 13.3458 8.07171ZM14.629 9.35488C14.819 8.8567 14.9191 8.32355 14.9191 7.78008C14.9191 6.90607 14.6599 6.05169 14.1743 5.32497C13.6888 4.59825 12.9986 4.03186 12.1911 3.69738C11.3836 3.36291 10.4951 3.2754 9.6379 3.44591C9.39391 3.49444 9.15559 3.56325 8.92521 3.65112L7.05242 1.77833C8.17621 1.42 9.33812 1.23622 10.5 1.24416C14.3994 1.2175 18.2988 3.35034 20.7585 6.99297C20.9159 7.22531 21 7.49947 21 7.78008C21 8.06068 20.9159 8.33485 20.7585 8.56717C19.8088 9.97371 18.6443 11.1551 17.3481 12.074L14.629 9.35488Z" fill="white"/>
<rect x="2.71985" y="1.11427" width="1.57587" height="20.0002" rx="0.787924" transform="rotate(-45 2.71985 1.11427)" fill="white"/>
</svg>
