<svg width="24" height="24" viewBox="0 0 24 24" fill="none" xmlns="http://www.w3.org/2000/svg">
<path fill-rule="evenodd" clip-rule="evenodd" d="M16.5 2.99634C14.76 2.99634 13.09 3.80538 12 5.08386C10.91 3.80538 9.24 2.99634 7.5 2.99634C4.42 2.99634 2 5.41347 2 8.48982C2 12.2653 5.4 15.3417 10.55 20.0161L12 21.3246L13.45 20.0062C18.6 15.3417 22 12.2653 22 8.48982C22 5.41347 19.58 2.99634 16.5 2.99634ZM12.1 18.5279L12 18.6278L11.9 18.5279C7.14 14.223 4 11.3764 4 8.48982C4 6.49219 5.5 4.99397 7.5 4.99397C9.04 4.99397 10.54 5.98279 11.07 7.35117H12.94C13.46 5.98279 14.96 4.99397 16.5 4.99397C18.5 4.99397 20 6.49219 20 8.48982C20 11.3764 16.86 14.223 12.1 18.5279Z" fill="white"/>
</svg>
