<svg width="58" height="59" viewBox="0 0 58 59" fill="none" xmlns="http://www.w3.org/2000/svg">
<path fill-rule="evenodd" clip-rule="evenodd" d="M23.4255 6.42578C24.3138 6.2912 24.9237 5.46561 24.7886 4.58046L24.2998 1.3769C24.1647 0.491755 23.3362 -0.115917 22.4478 0.0186627C21.5595 0.153242 20.9497 0.978829 21.0847 1.86398L21.5736 5.06754C21.7086 5.95268 22.5372 6.56036 23.4255 6.42578ZM31.4094 8.01373L34.1357 4.3231C34.6681 3.60227 34.5135 2.58864 33.7901 2.05808C33.0666 1.52752 32.0494 1.68163 31.5169 2.40246L28.7907 6.09309C28.2582 6.81391 28.4129 7.82754 29.1363 8.3581C29.8597 8.88867 30.877 8.73455 31.4094 8.01373ZM18.5492 9.96202C18.0167 10.6828 16.9994 10.837 16.276 10.3064L12.5721 7.58992C11.8487 7.05935 11.694 6.04573 12.2265 5.3249C12.759 4.60408 13.7762 4.44996 14.4997 4.98053L18.2035 7.69701C18.927 8.22757 19.0816 9.2412 18.5492 9.96202ZM12.9348 24.6217C12.3956 21.0882 9.07319 18.6515 5.52699 19.1887C1.98078 19.7259 -0.464669 23.0365 0.0745019 26.57C0.613672 30.1035 3.93608 32.5402 7.48228 32.0029C3.05068 32.6743 -0.00711035 36.8138 0.666678 41.2295L3.1108 57.2473C3.24586 58.1325 4.07442 58.7401 4.96274 58.6055L17.823 56.6572C18.7101 56.5229 19.2998 55.7003 19.165 54.8168L16.8886 39.8363C25.94 36.21 31.4618 26.7565 29.9753 17.0144C29.571 14.3648 27.0786 12.5368 24.4194 12.9397C21.7603 13.3425 19.9258 15.826 20.3301 18.4756C21.2733 24.6575 16.9014 30.576 10.6973 31.5159L7.48228 32.0029C11.0285 31.4657 13.4739 28.1552 12.9348 24.6217ZM51.7299 18.7443C51.1907 15.2108 47.8683 12.7741 44.3221 13.3113C40.7759 13.8486 38.3305 17.1591 38.8696 20.6926C39.4085 24.2238 42.7269 26.6596 46.2704 26.1266L43.0624 26.6126C39.3659 27.1726 35.7086 25.7666 33.2362 23.3261C32.8002 26.7756 31.6196 30.0251 29.8236 32.9265C32.7309 34.7928 36.1713 36.1025 39.632 36.389L41.9275 51.3684C42.0623 52.2519 42.8708 52.8626 43.7579 52.7282L56.6181 50.7799C57.5065 50.6453 58.1163 49.8197 57.9813 48.9346L55.5371 32.9168C54.8634 28.501 50.709 25.4542 46.2774 26.1256C49.8236 25.5883 52.2691 22.2778 51.7299 18.7443Z" fill="url(#paint0_linear_1244_54076)"/>
<defs>
<linearGradient id="paint0_linear_1244_54076" x1="42.9411" y1="-2.70187" x2="83.9979" y2="77.805" gradientUnits="userSpaceOnUse">
<stop stop-color="white" stop-opacity="0.61"/>
<stop offset="1" stop-color="white" stop-opacity="0"/>
</linearGradient>
</defs>
</svg>
