<svg width="24" height="24" viewBox="0 0 24 24" fill="none" xmlns="http://www.w3.org/2000/svg">
<path d="M12.0536 22.8584C13.7512 22.8584 14.9967 21.6128 15.1373 20.2065H8.96988C9.10046 21.6128 10.346 22.8584 12.0536 22.8584ZM4.08818 18.8305H16.2121L5.73551 8.34382C5.51452 9.29806 5.40403 10.3527 5.38394 11.538C5.30358 12.6932 5.13282 14.1195 4.46988 14.8125C3.59599 15.7065 2.57144 16.6106 2.57144 17.615C2.57144 18.3482 3.14399 18.8305 4.08818 18.8305ZM12.0536 1.71436C10.567 1.71436 9.53238 2.74895 9.15068 4.0648C8.61832 4.2456 8.15626 4.49672 7.76452 4.81815L21.2746 18.3482C21.4453 18.1574 21.5257 17.9063 21.5257 17.615C21.5257 16.6106 20.5112 15.7065 19.6373 14.8125C18.9743 14.1195 18.7936 12.6932 18.7233 11.538C18.6429 7.68088 17.6284 5.02909 14.9565 4.0648C14.5748 2.74895 13.5302 1.71436 12.0536 1.71436ZM2.79242 3.75342L20.8426 21.7735C21.144 22.0849 21.6362 22.0849 21.9376 21.7735C22.2288 21.4722 22.2388 20.99 21.9376 20.6786L3.89734 2.65855C3.59599 2.35721 3.10381 2.35721 2.79242 2.65855C2.50113 2.94985 2.50113 3.46212 2.79242 3.75342Z" fill="#9A9A9A"/>
</svg>
