<svg width="24" height="24" viewBox="0 0 24 24" fill="none" xmlns="http://www.w3.org/2000/svg">
<path d="M4.08818 18.8305H20.009C20.9531 18.8305 21.5257 18.3482 21.5257 17.615C21.5257 16.6106 20.5012 15.7065 19.6373 14.8125C18.9743 14.1195 18.7936 12.6932 18.7132 11.538C18.6429 7.68088 17.6183 5.02909 14.9464 4.0648C14.5648 2.74895 13.5302 1.71436 12.0436 1.71436C10.567 1.71436 9.52234 2.74895 9.15068 4.0648C6.4788 5.02909 5.45425 7.68088 5.38394 11.538C5.30358 12.6932 5.12278 14.1195 4.45983 14.8125C3.58595 15.7065 2.57144 16.6106 2.57144 17.615C2.57144 18.3482 3.13394 18.8305 4.08818 18.8305ZM12.0436 22.8584C13.7512 22.8584 14.9967 21.6128 15.1272 20.2065H8.96988C9.10046 21.6128 10.346 22.8584 12.0436 22.8584Z" fill="#9A9A9A"/>
</svg>
