<svg width="120" height="120" viewBox="0 0 120 120" fill="none" xmlns="http://www.w3.org/2000/svg">
<mask id="mask0_1244_53604" style="mask-type:luminance" maskUnits="userSpaceOnUse" x="15" y="4" width="90" height="116">
<path fill-rule="evenodd" clip-rule="evenodd" d="M15.0697 4.53223H104.104V120H15.0697V4.53223Z" fill="white"/>
</mask>
<g mask="url(#mask0_1244_53604)">
<path fill-rule="evenodd" clip-rule="evenodd" d="M104.104 25.3111V44.7752C104.104 46.8793 103.114 48.9834 101.136 49.5092C100.641 49.5092 89.2645 55.8219 89.2645 72.6556C89.2645 85.8069 94.7055 96.3279 94.7055 96.3279C95.2003 97.3799 95.6951 98.9582 95.2003 100.536C94.7055 102.114 93.7162 103.166 92.727 103.693L62.0599 119.474C61.0707 120 60.5759 120 59.5867 120C59.0923 120 58.1031 120 57.6082 119.474L26.9411 103.693C25.9519 103.166 24.9623 102.114 24.4679 100.536C23.9731 98.9582 23.9731 97.9057 24.9623 96.3279C24.9623 96.3279 30.4032 85.8069 30.4032 72.6556C30.4032 55.2961 19.027 49.5092 18.5321 49.5092C16.0589 48.4571 15.0697 46.8793 15.0697 44.7752V25.3111C15.0697 22.6808 17.5429 20.0504 20.0162 20.0504H35.8445L56.619 5.32126C58.1031 4.26921 60.5759 4.26921 62.0599 5.32126L83.3292 20.0504H99.1572C101.63 20.0504 104.104 22.6808 104.104 25.3111Z" fill="black"/>
</g>
<path d="M94.7055 91.7957C94.7055 91.7957 89.2645 81.2747 89.2645 68.1234C89.2645 51.2897 100.641 44.977 101.136 44.977C103.114 44.4512 104.104 42.347 104.104 40.2425V20.7789C104.104 18.1485 101.63 15.5182 99.1572 15.5182L94.7055 91.7957ZM94.7055 91.7957C95.2003 92.8477 95.6951 94.426 95.2003 96.0039L94.7055 91.7957ZM102.104 40.2425C102.104 41.8739 101.375 42.8055 100.678 43.0279C100.539 43.058 100.442 43.0924 100.411 43.1031C100.409 43.104 100.407 43.1048 100.405 43.1053C100.289 43.1455 100.181 43.1914 100.092 43.2319C99.9096 43.315 99.7051 43.4222 99.4891 43.546C99.0525 43.7963 98.4983 44.1554 97.8699 44.6282C96.6115 45.5751 95.0154 47.0082 93.4447 48.9986C90.2855 53.0018 87.2645 59.2177 87.2645 68.1234C87.2645 74.9644 88.6776 81.0938 90.0792 85.4978C90.7815 87.7046 91.4851 89.4912 92.0166 90.7332C92.2826 91.3545 92.5058 91.8405 92.665 92.1757C92.7445 92.3433 92.8081 92.4733 92.853 92.5637C92.8754 92.6089 92.8932 92.6442 92.906 92.6694L92.9084 92.6741C93.3215 93.5622 93.5585 94.5555 93.2919 95.4054L93.2919 95.4055C92.9526 96.4877 92.3104 97.113 91.7978 97.3894L61.1448 113.163L61.1327 113.17L61.1206 113.176C60.7584 113.369 60.5877 113.413 60.4741 113.433C60.309 113.462 60.123 113.468 59.5867 113.468C59.4611 113.468 59.3511 113.468 59.2352 113.462C59.1199 113.456 59.0237 113.446 58.9468 113.433C58.9418 113.432 58.9369 113.431 58.9323 113.43L58.8295 113.321L58.5234 113.163L27.8703 97.3893C27.3574 97.1128 26.7152 96.4874 26.3764 95.406L26.3762 95.4054C26.1622 94.723 26.1241 94.3603 26.1498 94.0869C26.1737 93.8328 26.2704 93.4744 26.6568 92.858L26.7008 92.7879L26.7388 92.7144L24.9623 91.7957C26.7388 92.7144 26.739 92.7139 26.7393 92.7134L26.7399 92.7121L26.7416 92.7089L26.7464 92.6996L26.7618 92.6694C26.7674 92.6584 26.7739 92.6454 26.7814 92.6305C26.791 92.6114 26.8021 92.5891 26.8148 92.5637C26.8596 92.4733 26.9232 92.3433 27.0028 92.1757C27.1619 91.8405 27.3852 91.3545 27.6511 90.7332C28.1827 89.4912 28.8863 87.7046 29.5886 85.4978C30.9901 81.0938 32.4032 74.9644 32.4032 68.1234C32.4032 58.968 29.3908 52.7436 26.2123 48.7877C24.6337 46.8229 23.0282 45.4346 21.7604 44.5265C21.1273 44.073 20.5692 43.7327 20.1292 43.4968C19.9114 43.38 19.7065 43.2803 19.5245 43.2035C19.4354 43.1659 19.3295 43.1244 19.2168 43.0884C19.215 43.0879 19.2129 43.0872 19.2103 43.0863C19.2021 43.0837 19.1897 43.0797 19.1734 43.0747C18.2663 42.6678 17.7791 42.2364 17.5079 41.8517C17.234 41.4634 17.0697 40.9671 17.0697 40.2425V20.7789C17.0697 20.0719 17.4195 19.2267 18.0725 18.5322C18.733 17.8297 19.4748 17.5182 20.0162 17.5182H35.8445H36.4816L37.0013 17.1497L57.7757 2.42064C58.1102 2.18347 58.6706 2 59.3395 2C60.0083 2 60.5687 2.18347 60.9033 2.42064L60.9123 2.42701L60.9213 2.43327L82.1906 17.1624L82.7043 17.5182H83.3292H99.1572C99.6985 17.5182 100.44 17.8297 101.101 18.5322C101.754 19.2267 102.104 20.0719 102.104 20.7789V40.2425Z" fill="url(#paint0_linear_1244_53604)" stroke="#E9DCCD" stroke-width="4"/>
<mask id="mask1_1244_53604" style="mask-type:luminance" maskUnits="userSpaceOnUse" x="0" y="57" width="26" height="31">
<path fill-rule="evenodd" clip-rule="evenodd" d="M0 57.3914H25.3659V87.6522H0V57.3914Z" fill="white"/>
</mask>
<g mask="url(#mask1_1244_53604)">
<path fill-rule="evenodd" clip-rule="evenodd" d="M24.0687 87.5846L0.612127 78.121C0.122119 77.9231 -0.123807 77.3472 0.0619777 76.8321L2.60047 69.7917C2.66882 69.6023 2.68072 69.3954 2.63465 69.1988L0.161822 58.6331C-0.021952 57.8478 0.711972 57.1694 1.43149 57.4599L24.7541 66.8694C25.1226 67.0183 25.3659 67.3898 25.3659 67.8041V86.65C25.3659 87.3528 24.6939 87.8367 24.0687 87.5846Z" fill="#1C1C1C"/>
</g>
<mask id="mask2_1244_53604" style="mask-type:luminance" maskUnits="userSpaceOnUse" x="94" y="57" width="26" height="31">
<path fill-rule="evenodd" clip-rule="evenodd" d="M120 57.3914H94.6341V87.6522H120V57.3914Z" fill="white"/>
</mask>
<g mask="url(#mask2_1244_53604)">
<path fill-rule="evenodd" clip-rule="evenodd" d="M95.9313 87.5846L119.388 78.121C119.878 77.9231 120.124 77.3472 119.938 76.8321L117.4 69.7917C117.331 69.6023 117.319 69.3954 117.365 69.1988L119.838 58.6331C120.022 57.8478 119.288 57.1694 118.569 57.4599L95.2459 66.8694C94.8774 67.0183 94.6341 67.3898 94.6341 67.8041V86.65C94.6341 87.3528 95.3061 87.8367 95.9313 87.5846Z" fill="#1C1C1C"/>
</g>
<mask id="mask3_1244_53604" style="mask-type:luminance" maskUnits="userSpaceOnUse" x="14" y="52" width="91" height="48">
<path fill-rule="evenodd" clip-rule="evenodd" d="M14.6341 52.1738H104.39V99.1303H14.6341V52.1738Z" fill="white"/>
</mask>
<g mask="url(#mask3_1244_53604)">
<path fill-rule="evenodd" clip-rule="evenodd" d="M59.5701 99.1303L15.91 79.3221C15.1632 79.1399 14.6341 78.4366 14.6341 77.6262V53.9149C14.6341 52.7953 15.6195 51.9671 16.6514 52.2193L59.5122 71.8457L102.373 52.2193C103.405 51.9671 104.39 52.7953 104.39 53.9149V77.6273C104.39 78.4373 103.862 79.1402 103.115 79.3228L59.5701 99.1303Z" fill="url(#paint1_linear_1244_53604)"/>
</g>
<mask id="mask4_1244_53604" style="mask-type:luminance" maskUnits="userSpaceOnUse" x="35" y="62" width="50" height="27">
<path fill-rule="evenodd" clip-rule="evenodd" d="M35.1219 62.6086H84.878V88.6956H35.1219V62.6086Z" fill="white"/>
</mask>
<g mask="url(#mask4_1244_53604)">
<path fill-rule="evenodd" clip-rule="evenodd" d="M60.0321 86.6086L35.8292 75.604C35.4152 75.5028 35.1219 75.1121 35.1219 74.6619V73.5651C35.1219 72.9432 35.6682 72.4831 36.2402 72.6232L60 83.5267L83.7596 72.6232C84.3316 72.4831 84.878 72.9432 84.878 73.5651V74.6625C84.878 75.1125 84.5849 75.503 84.1712 75.6044L60.0321 86.6086Z" fill="url(#paint2_linear_1244_53604)"/>
</g>
<path fill-rule="evenodd" clip-rule="evenodd" d="M52.4847 25.9287C52.4847 25.8019 52.5806 25.699 52.6986 25.699H60.5059C63.7846 25.699 66.4427 28.554 66.4427 32.0758C66.4427 33.7037 65.8747 35.1891 64.9402 36.3161C67.1785 37.2288 68.7692 39.5542 68.7692 42.2786C68.7692 45.8005 66.1111 48.6555 62.8321 48.6555H53.7315C53.043 48.6555 52.4847 48.0559 52.4847 47.3163V25.9287Z" fill="white"/>
<defs>
<linearGradient id="paint0_linear_1244_53604" x1="15.0697" y1="0" x2="15.0697" y2="115.468" gradientUnits="userSpaceOnUse">
<stop stop-color="#898989"/>
<stop offset="1" stop-color="#323232"/>
</linearGradient>
<linearGradient id="paint1_linear_1244_53604" x1="14.6341" y1="52.1738" x2="14.6341" y2="99.1303" gradientUnits="userSpaceOnUse">
<stop/>
<stop offset="1" stop-color="#3E3E3E"/>
</linearGradient>
<linearGradient id="paint2_linear_1244_53604" x1="35.1219" y1="72.5979" x2="35.1219" y2="86.6086" gradientUnits="userSpaceOnUse">
<stop stop-color="#444444"/>
<stop offset="1" stop-color="#3E3E3E"/>
</linearGradient>
</defs>
</svg>
