<svg width="104" height="105" viewBox="0 0 104 105" fill="none" xmlns="http://www.w3.org/2000/svg">
<path fill-rule="evenodd" clip-rule="evenodd" d="M80.3476 14.5652L21.6419 25.0376C17.6059 25.7576 14.8859 29.6875 15.5976 33.7707L27.2429 100.587L39.3315 83.1209L90.699 73.9575C94.735 73.2375 97.4549 69.3076 96.7433 65.2244L88.9797 20.6802C88.2681 16.5969 84.3836 13.8452 80.3476 14.5652Z" fill="url(#paint0_linear_1244_53565)"/>
<path fill-rule="evenodd" clip-rule="evenodd" d="M74.8832 10.042L16.1775 20.5145C12.1415 21.2345 9.42159 25.1644 10.1332 29.2476L21.7786 96.0639L33.8671 78.5978L85.2346 69.4343C89.2706 68.7144 91.9906 64.7845 91.2789 60.7012L83.5154 16.157C82.8037 12.0738 78.9192 9.32205 74.8832 10.042Z" fill="url(#paint1_linear_1244_53565)"/>
<path fill-rule="evenodd" clip-rule="evenodd" d="M51.4341 29.1234L38.0909 31.5037L40.8513 47.3416L41.6276 51.7961L44.2943 67.0965C44.346 67.3934 44.6285 67.5911 44.9252 67.5382L61.6449 64.5556C67.2446 63.5567 70.9922 58.2043 70.0156 52.6007C69.2799 48.3793 66.0729 45.2196 62.1415 44.3447C63.2891 42.3294 63.77 39.9193 63.3415 37.4609C62.3649 31.8573 57.0337 28.1245 51.4341 29.1234Z" fill="#66974F"/>
<path fill-rule="evenodd" clip-rule="evenodd" d="M47.4605 26.108L34.1173 28.4883L36.8776 44.3262L37.654 48.7806L40.3207 64.081C40.3724 64.3779 40.6549 64.5757 40.9515 64.5228L57.6713 61.5401C63.2709 60.5412 67.0186 55.1888 66.042 49.5853C65.3062 45.3639 62.0992 42.2042 58.1679 41.3293C59.3155 39.314 59.7964 36.9039 59.3679 34.4455C58.3913 28.8419 53.0601 25.1091 47.4605 26.108Z" fill="white"/>
<defs>
<linearGradient id="paint0_linear_1244_53565" x1="14.3037" y1="26.3467" x2="27.538" y2="100.534" gradientUnits="userSpaceOnUse">
<stop stop-color="#9CC780" stop-opacity="0.01"/>
<stop offset="1" stop-color="#629649"/>
</linearGradient>
<linearGradient id="paint1_linear_1244_53565" x1="8.83932" y1="21.8236" x2="22.0736" y2="96.0113" gradientUnits="userSpaceOnUse">
<stop stop-color="#9BC15A"/>
<stop offset="1" stop-color="#66AE43"/>
</linearGradient>
</defs>
</svg>
