<svg width="25" height="25" viewBox="0 0 25 25" fill="none" xmlns="http://www.w3.org/2000/svg">
<path d="M6.89375 24H1.71875C1.35938 24 1 23.6409 1 23.2818V18.039C1 17.6081 1.35938 17.3208 1.71875 17.3208H6.75V23.2818C6.75 23.4972 6.82188 23.7845 6.89375 24Z" fill="#9AE343"/>
<path d="M16.8125 14.6635V23.2818C16.8125 23.6409 16.4531 24 16.0938 24H8.90625C8.54688 24 8.1875 23.6409 8.1875 23.2818V14.6635C8.1875 14.2326 8.54688 13.9453 8.90625 13.9453H16.0938C16.4531 13.9453 16.8125 14.2326 16.8125 14.6635Z" fill="#9AE343"/>
<path d="M24 18.9726V23.2817C24 23.6408 23.6406 23.9999 23.2813 23.9999H18.1063C18.1781 23.7844 18.25 23.4972 18.25 23.2817V18.2544H23.2813C23.6406 18.2544 24 18.5417 24 18.9726Z" fill="#9AE343"/>
<path d="M18.3219 6.04528L15.95 8.34348L16.525 11.6472C16.5969 11.9344 16.4531 12.2217 16.2375 12.3653C16.0219 12.509 15.6625 12.509 15.4469 12.4372L12.5 10.8571L9.55311 12.3653C9.33749 12.509 9.04999 12.509 8.83436 12.2935C8.61874 12.1499 8.47499 11.8626 8.54686 11.5753L9.12186 8.27166L6.67811 6.04528C6.53436 5.90164 6.46249 5.61436 6.53436 5.32709C6.60624 5.03981 6.82186 4.89617 7.10936 4.82436L10.4156 4.32162L11.8531 1.37705C12.0687 0.874317 12.9312 0.874317 13.1469 1.37705L14.5844 4.32162L17.8906 4.82436C18.1781 4.89617 18.3937 5.03981 18.4656 5.32709C18.5375 5.61436 18.4656 5.90164 18.3219 6.04528Z" fill="#9AE343"/>
</svg>
