<svg width="46" height="46" viewBox="0 0 46 46" fill="none" xmlns="http://www.w3.org/2000/svg">
<g clip-path="url(#clip0_1244_54691)" filter="url(#filter0_d_1244_54691)">
<path d="M23 6C20.0333 6 17.1332 6.87973 14.6665 8.52796C12.1997 10.1762 10.2771 12.5189 9.14181 15.2597C8.0065 18.0006 7.70945 21.0166 8.28823 23.9264C8.86701 26.8361 10.2956 29.5088 12.3934 31.6066C14.4912 33.7044 17.1639 35.133 20.0737 35.7118C22.9834 36.2906 25.9994 35.9935 28.7403 34.8582C31.4811 33.7229 33.8238 31.8003 35.4721 29.3336C37.1203 26.8668 38 23.9667 38 21C38 17.0218 36.4197 13.2064 33.6066 10.3934C30.7936 7.58035 26.9783 6 23 6ZM29.2803 15.2132C29.6609 15.2132 30.0329 15.326 30.3494 15.5375C30.6658 15.7489 30.9125 16.0495 31.0581 16.4011C31.2038 16.7527 31.2419 17.1396 31.1676 17.5129C31.0934 17.8862 30.9101 18.2291 30.641 18.4982C30.3719 18.7673 30.029 18.9506 29.6557 19.0249C29.2824 19.0991 28.8955 19.061 28.5439 18.9154C28.1922 18.7697 27.8917 18.5231 27.6802 18.2066C27.4688 17.8902 27.3559 17.5181 27.3559 17.1375C27.3559 16.6271 27.5587 16.1377 27.9196 15.7768C28.2804 15.4159 28.7699 15.2132 29.2803 15.2132ZM16.7197 15.2132C17.1003 15.2132 17.4724 15.326 17.7889 15.5375C18.1053 15.7489 18.352 16.0495 18.4976 16.4011C18.6433 16.7527 18.6814 17.1396 18.6071 17.5129C18.5329 17.8862 18.3496 18.2291 18.0805 18.4982C17.8113 18.7673 17.4685 18.9506 17.0952 19.0249C16.7219 19.0991 16.335 19.061 15.9833 18.9154C15.6317 18.7697 15.3312 18.5231 15.1197 18.2066C14.9083 17.8902 14.7954 17.5181 14.7954 17.1375C14.7954 16.6271 14.9981 16.1377 15.359 15.7768C15.7199 15.4159 16.2094 15.2132 16.7197 15.2132ZM31.0921 26.627C28.6132 29.1928 25.9408 30.4875 23.1342 30.4875H22.9368C19.2105 30.4066 16.3092 28.0441 14.9178 26.6546C14.798 26.5362 14.7049 26.3937 14.6446 26.2364C14.5843 26.0792 14.5582 25.9109 14.5681 25.7428C14.578 25.5747 14.6236 25.4106 14.702 25.2615C14.7803 25.1125 14.8895 24.9818 15.0224 24.8783C15.2492 24.7011 15.5328 24.6126 15.8201 24.6293C16.1074 24.646 16.3788 24.7668 16.5836 24.9691C17.7105 26.0921 20.0947 28.0618 22.998 28.127C25.1691 28.1684 27.3224 27.1184 29.379 25.0007C29.5427 24.8299 29.7539 24.7121 29.9852 24.6625C30.2166 24.6129 30.4575 24.6337 30.6768 24.7223C30.8962 24.8109 31.0841 24.9631 31.2161 25.1594C31.3482 25.3557 31.4184 25.5871 31.4178 25.8237C31.4172 26.1235 31.3005 26.4114 31.0921 26.627Z" fill="white"/>
</g>
<defs>
<filter id="filter0_d_1244_54691" x="0" y="0" width="46" height="46" filterUnits="userSpaceOnUse" color-interpolation-filters="sRGB">
<feFlood flood-opacity="0" result="BackgroundImageFix"/>
<feColorMatrix in="SourceAlpha" type="matrix" values="0 0 0 0 0 0 0 0 0 0 0 0 0 0 0 0 0 0 127 0" result="hardAlpha"/>
<feOffset dy="2"/>
<feGaussianBlur stdDeviation="4"/>
<feComposite in2="hardAlpha" operator="out"/>
<feColorMatrix type="matrix" values="0 0 0 0 0 0 0 0 0 0 0 0 0 0 0 0 0 0 0.5 0"/>
<feBlend mode="normal" in2="BackgroundImageFix" result="effect1_dropShadow_1244_54691"/>
<feBlend mode="normal" in="SourceGraphic" in2="effect1_dropShadow_1244_54691" result="shape"/>
</filter>
<clipPath id="clip0_1244_54691">
<rect width="30" height="30" fill="white" transform="translate(8 6)"/>
</clipPath>
</defs>
</svg>
