<svg width="62" height="41" viewBox="0 0 62 41" fill="none" xmlns="http://www.w3.org/2000/svg">
<path fill-rule="evenodd" clip-rule="evenodd" d="M13.252 9.66866L53.1742 9.66915L50.1416 26.8509L10.2194 26.8504L13.252 9.66866Z" fill="#353535"/>
<g filter="url(#filter0_d_1244_53573)">
<path d="M22.4069 21.0132H21.4001L21.0271 22.8076H19.2919L19.665 21.0132H16.171L16.4553 19.6275L21.0152 14.1496H22.857L21.7022 19.592H22.7089L22.4069 21.0132ZM19.967 19.592L20.3105 18.1233C20.3579 17.8943 20.4368 17.5706 20.5474 17.1521C20.6579 16.7336 20.7408 16.4553 20.7961 16.3171H20.7606C20.6224 16.5658 20.3618 16.9231 19.9789 17.389L18.1253 19.592H19.967ZM26.3924 20.2967L26.7063 18.8162H29.8094L29.4955 20.2967H26.3924ZM37.283 22.8076H35.4767L36.5427 17.8983C36.6809 17.2982 36.8309 16.7316 36.9928 16.1987C36.9572 16.2302 36.8349 16.323 36.6256 16.477C36.4203 16.631 35.9031 16.9665 35.074 17.4837L34.2864 16.2105L37.6383 14.1496H39.1129L37.283 22.8076ZM43.963 22.8076H42.1568L43.2227 17.8983C43.3609 17.2982 43.5109 16.7316 43.6728 16.1987C43.6373 16.2302 43.5149 16.323 43.3056 16.477C43.1003 16.631 42.5831 16.9665 41.7541 17.4837L40.9664 16.2105L44.3183 14.1496H45.7929L43.963 22.8076Z" fill="white"/>
</g>
<defs>
<filter id="filter0_d_1244_53573" x="0" y="0" width="61.9639" height="41" filterUnits="userSpaceOnUse" color-interpolation-filters="sRGB">
<feFlood flood-opacity="0" result="BackgroundImageFix"/>
<feColorMatrix in="SourceAlpha" type="matrix" values="0 0 0 0 0 0 0 0 0 0 0 0 0 0 0 0 0 0 127 0" result="hardAlpha"/>
<feOffset dy="2"/>
<feGaussianBlur stdDeviation="8"/>
<feColorMatrix type="matrix" values="0 0 0 0 0 0 0 0 0 0 0 0 0 0 0 0 0 0 0.5 0"/>
<feBlend mode="normal" in2="BackgroundImageFix" result="effect1_dropShadow_1244_53573"/>
<feBlend mode="normal" in="SourceGraphic" in2="effect1_dropShadow_1244_53573" result="shape"/>
</filter>
</defs>
</svg>
