<svg width="46" height="46" viewBox="0 0 46 46" fill="none" xmlns="http://www.w3.org/2000/svg">
<g clip-path="url(#clip0_1244_54693)" filter="url(#filter0_d_1244_54693)">
<path d="M23 6C20.0333 6 17.1332 6.87973 14.6665 8.52796C12.1997 10.1762 10.2771 12.5189 9.14181 15.2597C8.0065 18.0006 7.70945 21.0166 8.28823 23.9264C8.86701 26.8361 10.2956 29.5088 12.3934 31.6066C14.4912 33.7044 17.1639 35.133 20.0737 35.7118C22.9834 36.2906 25.9994 35.9935 28.7403 34.8582C31.4811 33.7229 33.8238 31.8003 35.4721 29.3336C37.1203 26.8668 38 23.9667 38 21C38 17.0218 36.4197 13.2064 33.6066 10.3934C30.7936 7.58035 26.9783 6 23 6ZM15.5849 17.5322C15.5849 17.1516 15.6978 16.7794 15.9093 16.4629C16.1209 16.1464 16.4215 15.8998 16.7733 15.7542C17.125 15.6086 17.512 15.5706 17.8854 15.645C18.2587 15.7194 18.6016 15.9029 18.8706 16.1722C19.1397 16.4415 19.3228 16.7846 19.3968 17.158C19.4709 17.5314 19.4325 17.9184 19.2865 18.27C19.1406 18.6216 18.8936 18.922 18.5769 19.1332C18.2602 19.3444 17.8879 19.457 17.5072 19.4566C17.2546 19.4566 17.0045 19.4068 16.7711 19.3101C16.5378 19.2133 16.3258 19.0716 16.1472 18.8928C15.9687 18.7141 15.8271 18.502 15.7306 18.2685C15.6341 18.035 15.5846 17.7849 15.5849 17.5322ZM29.2033 28.8809C28.9906 29.0612 28.7174 29.154 28.4389 29.1405C28.1604 29.1269 27.8974 29.008 27.7033 28.8079C26.2151 27.2724 24.6678 26.4947 23.1007 26.4947H23C20.8803 26.5362 19.1276 27.973 18.2632 28.8257C18.1622 28.9262 18.0425 29.0058 17.9107 29.06C17.779 29.1142 17.6379 29.1419 17.4954 29.1414C17.278 29.1423 17.0653 29.0784 16.8844 28.958C16.7034 28.8376 16.5623 28.666 16.4792 28.4652C16.396 28.2643 16.3745 28.0433 16.4173 27.8302C16.4601 27.6171 16.5654 27.4215 16.7197 27.2684C17.7993 26.1888 20.0434 24.3671 22.9329 24.3079H23.0888C25.2599 24.3079 27.3461 25.3125 29.2625 27.2921C29.3656 27.3987 29.4456 27.5254 29.4975 27.6643C29.5495 27.8032 29.5723 27.9513 29.5645 28.0993C29.5591 28.2474 29.524 28.393 29.4613 28.5272C29.3986 28.6615 29.3095 28.7818 29.1994 28.8809H29.2033ZM28.4947 19.4566C28.1141 19.457 27.7418 19.3444 27.4251 19.1332C27.1084 18.922 26.8614 18.6216 26.7155 18.27C26.5695 17.9184 26.5311 17.5314 26.6052 17.158C26.6792 16.7846 26.8623 16.4415 27.1314 16.1722C27.4004 15.9029 27.7433 15.7194 28.1166 15.645C28.49 15.5706 28.877 15.6086 29.2287 15.7542C29.5805 15.8998 29.8811 16.1464 30.0927 16.4629C30.3042 16.7794 30.4171 17.1516 30.4171 17.5322C30.4166 18.0428 30.2134 18.5322 29.8522 18.8931C29.491 19.2539 29.0013 19.4566 28.4908 19.4566H28.4947Z" fill="white"/>
</g>
<defs>
<filter id="filter0_d_1244_54693" x="0" y="0" width="46" height="46" filterUnits="userSpaceOnUse" color-interpolation-filters="sRGB">
<feFlood flood-opacity="0" result="BackgroundImageFix"/>
<feColorMatrix in="SourceAlpha" type="matrix" values="0 0 0 0 0 0 0 0 0 0 0 0 0 0 0 0 0 0 127 0" result="hardAlpha"/>
<feOffset dy="2"/>
<feGaussianBlur stdDeviation="4"/>
<feComposite in2="hardAlpha" operator="out"/>
<feColorMatrix type="matrix" values="0 0 0 0 0 0 0 0 0 0 0 0 0 0 0 0 0 0 0.5 0"/>
<feBlend mode="normal" in2="BackgroundImageFix" result="effect1_dropShadow_1244_54693"/>
<feBlend mode="normal" in="SourceGraphic" in2="effect1_dropShadow_1244_54693" result="shape"/>
</filter>
<clipPath id="clip0_1244_54693">
<rect width="30" height="30" fill="white" transform="translate(8 6)"/>
</clipPath>
</defs>
</svg>
