<svg width="46" height="46" viewBox="0 0 46 46" fill="none" xmlns="http://www.w3.org/2000/svg">
<g clip-path="url(#clip0_1244_54690)" filter="url(#filter0_d_1244_54690)">
<path d="M23 6C20.0333 6 17.1332 6.87973 14.6665 8.52796C12.1997 10.1762 10.2771 12.5189 9.14181 15.2597C8.0065 18.0006 7.70945 21.0166 8.28823 23.9264C8.86701 26.8361 10.2956 29.5088 12.3934 31.6066C14.4912 33.7044 17.1639 35.133 20.0737 35.7118C22.9834 36.2906 25.9994 35.9935 28.7403 34.8582C31.4811 33.7229 33.8238 31.8003 35.4721 29.3336C37.1203 26.8668 38 23.9667 38 21C38 17.0218 36.4197 13.2064 33.6066 10.3934C30.7936 7.58035 26.9783 6 23 6ZM14.15 15.3612H15.8711C15.9589 15.3612 16.0445 15.3333 16.1154 15.2815C16.1864 15.2297 16.239 15.1567 16.2658 15.073L16.7987 13.4368C16.8265 13.3542 16.8795 13.2823 16.9504 13.2314C17.0212 13.1805 17.1062 13.1531 17.1934 13.1531C17.2807 13.1531 17.3657 13.1805 17.4365 13.2314C17.5073 13.2823 17.5604 13.3542 17.5882 13.4368L18.123 15.0789C18.1498 15.1626 18.2025 15.2356 18.2734 15.2874C18.3444 15.3392 18.4299 15.3671 18.5178 15.3671H20.2368C20.3244 15.3675 20.4096 15.3955 20.4804 15.4471C20.5511 15.4988 20.6038 15.5714 20.6309 15.6547C20.658 15.7379 20.6582 15.8277 20.6314 15.911C20.6046 15.9944 20.5521 16.0672 20.4816 16.1191L19.1 17.1316C19.0287 17.1832 18.9756 17.2561 18.9483 17.3398C18.921 17.4234 18.9209 17.5136 18.948 17.5974L19.473 19.2237C19.5004 19.3074 19.5006 19.3977 19.4734 19.4815C19.4463 19.5653 19.3932 19.6384 19.3219 19.6902C19.2506 19.7419 19.1648 19.7698 19.0766 19.7696C18.9885 19.7695 18.9027 19.7414 18.8316 19.6895L17.4401 18.677C17.3683 18.626 17.2825 18.5986 17.1944 18.5986C17.1064 18.5986 17.0205 18.626 16.9487 18.677L15.5572 19.6895C15.4863 19.7448 15.3994 19.7757 15.3094 19.7776C15.2195 19.7794 15.1314 19.752 15.0583 19.6996C14.9851 19.6472 14.931 19.5724 14.9039 19.4867C14.8768 19.4009 14.8782 19.3086 14.9079 19.2237L15.4408 17.5875C15.4685 17.5057 15.4701 17.4173 15.4453 17.3346C15.4206 17.2518 15.3707 17.1788 15.3026 17.1257L13.9211 16.1132C13.8503 16.0628 13.7971 15.9914 13.7691 15.9091C13.7411 15.8269 13.7396 15.7379 13.7649 15.6548C13.7902 15.5717 13.841 15.4986 13.9101 15.4459C13.9792 15.3932 14.0631 15.3636 14.15 15.3612ZM31.4454 24.825C30.8158 28.4191 27.273 30.9118 23 30.9118C18.727 30.9118 15.1822 28.4191 14.5526 24.825C14.5465 24.7885 14.5432 24.7515 14.5428 24.7145C14.5428 24.1954 15.1724 23.8599 15.727 24.0493C17.8586 24.7855 20.3474 25.1605 23.004 25.1605C25.6605 25.1605 28.1454 24.7855 30.279 24.0493C30.8296 23.852 31.4632 24.1934 31.4632 24.7145C31.4601 24.7517 31.4542 24.7887 31.4454 24.825ZM32.0928 16.1132L30.7112 17.1257C30.6399 17.1773 30.5868 17.2502 30.5595 17.3338C30.5322 17.4175 30.5321 17.5077 30.5592 17.5914L31.0921 19.2237C31.1195 19.3074 31.1196 19.3977 31.0925 19.4815C31.0653 19.5653 31.0123 19.6384 30.941 19.6902C30.8697 19.7419 30.7838 19.7698 30.6957 19.7696C30.6076 19.7695 30.5218 19.7414 30.4507 19.6895L29.0691 18.677C28.9977 18.6259 28.9121 18.5984 28.8243 18.5984C28.7366 18.5984 28.651 18.6259 28.5796 18.677L27.1862 19.6895C27.1158 19.7496 27.0273 19.7845 26.9349 19.7887C26.8424 19.7929 26.7511 19.7662 26.6755 19.7128C26.5999 19.6594 26.5443 19.5823 26.5174 19.4937C26.4905 19.4051 26.4939 19.3101 26.527 19.2237L27.0579 17.5875C27.085 17.5038 27.085 17.4136 27.0577 17.3299C27.0304 17.2462 26.9772 17.1733 26.9059 17.1217L25.5145 16.1092C25.4453 16.0566 25.3943 15.9837 25.3686 15.9007C25.3429 15.8177 25.3438 15.7287 25.3712 15.6462C25.3987 15.5638 25.4512 15.4919 25.5215 15.4408C25.5917 15.3897 25.6763 15.3619 25.7632 15.3612H27.4803C27.5679 15.3603 27.653 15.332 27.7238 15.2804C27.7946 15.2287 27.8474 15.1562 27.875 15.073L28.4059 13.4368C28.4337 13.3542 28.4868 13.2823 28.5576 13.2314C28.6284 13.1805 28.7134 13.1531 28.8007 13.1531C28.8879 13.1531 28.9729 13.1805 29.0437 13.2314C29.1146 13.2823 29.1676 13.3542 29.1954 13.4368L29.7283 15.073C29.7551 15.1567 29.8077 15.2297 29.8787 15.2815C29.9496 15.3333 30.0352 15.3612 30.123 15.3612H31.8441C31.9326 15.3594 32.0194 15.3861 32.0917 15.4372C32.164 15.4884 32.218 15.5614 32.2458 15.6454C32.2736 15.7295 32.2738 15.8203 32.2462 15.9045C32.2187 15.9886 32.1649 16.0618 32.0928 16.1132Z" fill="white"/>
</g>
<defs>
<filter id="filter0_d_1244_54690" x="0" y="0" width="46" height="46" filterUnits="userSpaceOnUse" color-interpolation-filters="sRGB">
<feFlood flood-opacity="0" result="BackgroundImageFix"/>
<feColorMatrix in="SourceAlpha" type="matrix" values="0 0 0 0 0 0 0 0 0 0 0 0 0 0 0 0 0 0 127 0" result="hardAlpha"/>
<feOffset dy="2"/>
<feGaussianBlur stdDeviation="4"/>
<feComposite in2="hardAlpha" operator="out"/>
<feColorMatrix type="matrix" values="0 0 0 0 0 0 0 0 0 0 0 0 0 0 0 0 0 0 0.5 0"/>
<feBlend mode="normal" in2="BackgroundImageFix" result="effect1_dropShadow_1244_54690"/>
<feBlend mode="normal" in="SourceGraphic" in2="effect1_dropShadow_1244_54690" result="shape"/>
</filter>
<clipPath id="clip0_1244_54690">
<rect width="30" height="30" fill="white" transform="translate(8 6)"/>
</clipPath>
</defs>
</svg>
