<svg width="39" height="41" viewBox="0 0 39 41" fill="none" xmlns="http://www.w3.org/2000/svg">
<path fill-rule="evenodd" clip-rule="evenodd" d="M12.7835 9.73537H29.8641L26.8493 26.8159H9.76873L12.7835 9.73537Z" fill="url(#paint0_linear_1244_53591)"/>
<g filter="url(#filter0_d_1244_53591)">
<path d="M22.4928 16.0326C22.4928 16.6449 22.3064 17.159 21.9335 17.5751C21.5646 17.9911 21.0524 18.256 20.397 18.3698V18.3934C20.9111 18.4954 21.2997 18.7054 21.5626 19.0233C21.8295 19.3373 21.963 19.7317 21.963 20.2066C21.963 20.7286 21.8177 21.1957 21.5273 21.6078C21.2369 22.0199 20.8208 22.3417 20.2792 22.5733C19.7376 22.8009 19.0959 22.9147 18.3541 22.9147C17.4161 22.9147 16.6567 22.7597 16.0758 22.4496V20.8778C16.4055 21.074 16.7626 21.2231 17.1473 21.3252C17.5319 21.4233 17.9067 21.4724 18.2717 21.4724C18.8918 21.4724 19.3687 21.3487 19.7023 21.1015C20.0359 20.8503 20.2027 20.5029 20.2027 20.0594C20.2027 19.3844 19.6964 19.0469 18.6838 19.0469H17.8714L18.1422 17.7458H18.572C19.2274 17.7458 19.7435 17.6241 20.1203 17.3808C20.4971 17.1375 20.6854 16.7999 20.6854 16.3682C20.6854 16.1053 20.6011 15.9012 20.4323 15.7559C20.2635 15.6107 20.0261 15.5381 19.72 15.5381C19.194 15.5381 18.6308 15.7344 18.0303 16.1268L17.2827 14.9259C17.7693 14.608 18.2246 14.3862 18.6485 14.2606C19.0763 14.1311 19.561 14.0663 20.1026 14.0663C20.8483 14.0663 21.4331 14.2449 21.857 14.6021C22.2809 14.9553 22.4928 15.4322 22.4928 16.0326Z" fill="white"/>
</g>
<defs>
<filter id="filter0_d_1244_53591" x="0" y="0" width="38.5686" height="41" filterUnits="userSpaceOnUse" color-interpolation-filters="sRGB">
<feFlood flood-opacity="0" result="BackgroundImageFix"/>
<feColorMatrix in="SourceAlpha" type="matrix" values="0 0 0 0 0 0 0 0 0 0 0 0 0 0 0 0 0 0 127 0" result="hardAlpha"/>
<feOffset dy="2"/>
<feGaussianBlur stdDeviation="8"/>
<feColorMatrix type="matrix" values="0 0 0 0 0 0 0 0 0 0 0 0 0 0 0 0 0 0 0.5 0"/>
<feBlend mode="normal" in2="BackgroundImageFix" result="effect1_dropShadow_1244_53591"/>
<feBlend mode="normal" in="SourceGraphic" in2="effect1_dropShadow_1244_53591" result="shape"/>
</filter>
<linearGradient id="paint0_linear_1244_53591" x1="9.76873" y1="9.73537" x2="9.76873" y2="26.8159" gradientUnits="userSpaceOnUse">
<stop stop-color="#FF903B"/>
<stop offset="1" stop-color="#C65F24"/>
</linearGradient>
</defs>
</svg>
