<svg width="46" height="46" viewBox="0 0 46 46" fill="none" xmlns="http://www.w3.org/2000/svg">
<g clip-path="url(#clip0_1244_54694)" filter="url(#filter0_d_1244_54694)">
<path d="M23 6C20.0333 6 17.1332 6.87973 14.6665 8.52796C12.1997 10.1762 10.2771 12.5189 9.14181 15.2597C8.0065 18.0006 7.70945 21.0166 8.28823 23.9264C8.86701 26.8361 10.2956 29.5088 12.3934 31.6066C14.4912 33.7044 17.1639 35.133 20.0737 35.7118C22.9834 36.2906 25.9994 35.9935 28.7403 34.8582C31.4811 33.7229 33.8238 31.8003 35.4721 29.3336C37.1203 26.8668 38 23.9667 38 21C38 17.0218 36.4197 13.2064 33.6066 10.3934C30.7936 7.58035 26.9783 6 23 6ZM14.977 21.3375C14.1105 21.5053 14.0474 20.8678 14.075 20.5125C14.0861 20.3812 14.1347 20.2558 14.2151 20.1513L15.7546 18.1776C15.8486 18.0574 15.8986 17.9087 15.8965 17.7561C15.8943 17.6036 15.8401 17.4563 15.7428 17.3388L14.225 15.5072C14.1403 15.4067 14.088 15.2828 14.075 15.152C14.0178 14.4493 14.5665 14.3013 14.8961 14.2757C15.0347 14.2664 15.1728 14.3009 15.2908 14.3743L19.9072 17.2184C20.679 17.6941 20.1046 18.2171 19.9447 18.3434C19.9245 18.359 19.9034 18.3735 19.8816 18.3868L15.1921 21.2526C15.1264 21.2943 15.0534 21.3231 14.977 21.3375ZM29.454 29.9645C27.3943 29.1754 25.2055 28.7778 23 28.7921C20.7951 28.7778 18.607 29.1754 16.548 29.9645C16.4339 30.0124 16.3097 30.0316 16.1865 30.0202C16.0632 30.0088 15.9446 29.9672 15.8413 29.8991C15.7379 29.831 15.6528 29.7385 15.5937 29.6298C15.5345 29.5211 15.503 29.3994 15.502 29.2757C15.5 29.2441 15.5 29.2125 15.502 29.1809C15.7796 27.3934 16.6872 25.764 18.061 24.5872C19.4348 23.4103 21.1841 22.7634 22.9931 22.7634C24.8021 22.7634 26.5514 23.4103 27.9252 24.5872C29.2989 25.764 30.2066 27.3934 30.4842 29.1809C30.4862 29.2131 30.4862 29.2454 30.4842 29.2776C30.4819 29.3993 30.4501 29.5185 30.3917 29.6252C30.3332 29.7319 30.2498 29.8229 30.1486 29.8904C30.0474 29.9578 29.9314 29.9998 29.8104 30.0127C29.6894 30.0256 29.5671 30.0091 29.454 29.9645ZM31.0329 21.3375C30.9563 21.3236 30.8832 21.2948 30.8178 21.2526L26.1204 18.3868C26.0986 18.3735 26.0775 18.359 26.0572 18.3434C25.8974 18.2171 25.323 17.6941 26.0947 17.2184L30.7092 14.3842C30.8275 14.3114 30.9653 14.2769 31.104 14.2855C31.4336 14.3112 31.9822 14.4592 31.923 15.1618C31.9118 15.2931 31.8593 15.4175 31.773 15.5171L30.2572 17.3487C30.1592 17.4659 30.1046 17.6132 30.1024 17.766C30.1003 17.9187 30.1507 18.0676 30.2454 18.1875L31.7829 20.1612C31.8647 20.265 31.9141 20.3906 31.925 20.5224C31.9546 20.8678 31.8915 21.5053 31.025 21.3375H31.0329Z" fill="white"/>
</g>
<defs>
<filter id="filter0_d_1244_54694" x="0" y="0" width="46" height="46" filterUnits="userSpaceOnUse" color-interpolation-filters="sRGB">
<feFlood flood-opacity="0" result="BackgroundImageFix"/>
<feColorMatrix in="SourceAlpha" type="matrix" values="0 0 0 0 0 0 0 0 0 0 0 0 0 0 0 0 0 0 127 0" result="hardAlpha"/>
<feOffset dy="2"/>
<feGaussianBlur stdDeviation="4"/>
<feComposite in2="hardAlpha" operator="out"/>
<feColorMatrix type="matrix" values="0 0 0 0 0 0 0 0 0 0 0 0 0 0 0 0 0 0 0.5 0"/>
<feBlend mode="normal" in2="BackgroundImageFix" result="effect1_dropShadow_1244_54694"/>
<feBlend mode="normal" in="SourceGraphic" in2="effect1_dropShadow_1244_54694" result="shape"/>
</filter>
<clipPath id="clip0_1244_54694">
<rect width="30" height="30" fill="white" transform="translate(8 6)"/>
</clipPath>
</defs>
</svg>
