<svg width="46" height="46" viewBox="0 0 46 46" fill="none" xmlns="http://www.w3.org/2000/svg">
<g clip-path="url(#clip0_1244_54692)" filter="url(#filter0_d_1244_54692)">
<path d="M23 6C20.0333 6 17.1332 6.87973 14.6665 8.52796C12.1997 10.1762 10.2771 12.5189 9.14181 15.2597C8.0065 18.0006 7.70945 21.0166 8.28823 23.9264C8.86701 26.8361 10.2956 29.5088 12.3934 31.6066C14.4912 33.7044 17.1639 35.133 20.0737 35.7118C22.9834 36.2906 25.9994 35.9935 28.7403 34.8582C31.4811 33.7229 33.8238 31.8003 35.4721 29.3336C37.1203 26.8668 38 23.9667 38 21C38 17.0218 36.4197 13.2064 33.6066 10.3934C30.7936 7.58035 26.9783 6 23 6ZM16.9171 15.0158C17.2978 15.0154 17.67 15.1279 17.9868 15.3391C18.3035 15.5504 18.5504 15.8508 18.6964 16.2023C18.8423 16.5539 18.8807 16.9409 18.8067 17.3143C18.7327 17.6878 18.5495 18.0308 18.2805 18.3001C18.0115 18.5695 17.6686 18.7529 17.2952 18.8274C16.9219 18.9018 16.5349 18.8638 16.1831 18.7182C15.8314 18.5726 15.5307 18.3259 15.3192 18.0094C15.1077 17.6929 14.9947 17.3208 14.9947 16.9401C14.9947 16.4301 15.1972 15.9409 15.5577 15.5801C15.9181 15.2193 16.4071 15.0163 16.9171 15.0158ZM30.6658 28.3382C30.5575 28.4465 30.4289 28.5325 30.2873 28.5911C30.1458 28.6497 29.994 28.6798 29.8408 28.6796H16.1612C15.8518 28.6796 15.5551 28.5567 15.3364 28.338C15.1176 28.1192 14.9947 27.8225 14.9947 27.5132C14.9947 27.2038 15.1176 26.9071 15.3364 26.6884C15.5551 26.4696 15.8518 26.3467 16.1612 26.3467H29.8408C30.0716 26.3466 30.2972 26.415 30.489 26.5432C30.6809 26.6713 30.8305 26.8535 30.9188 27.0667C31.0071 27.2799 31.0302 27.5145 30.9852 27.7408C30.9402 27.9671 30.829 28.175 30.6658 28.3382ZM29.0868 18.8645C28.7062 18.8645 28.334 18.7516 28.0175 18.54C27.701 18.3285 27.4544 18.0278 27.3088 17.6761C27.1632 17.3243 27.1252 16.9373 27.1996 16.564C27.274 16.1906 27.4575 15.8478 27.7268 15.5787C27.9962 15.3097 28.3392 15.1266 28.7126 15.0525C29.0861 14.9785 29.473 15.0169 29.8246 15.1628C30.1762 15.3088 30.4766 15.5557 30.6878 15.8725C30.8991 16.1892 31.0116 16.5614 31.0112 16.9421C31.0109 17.1949 30.9608 17.4451 30.8637 17.6785C30.7666 17.9119 30.6245 18.1239 30.4454 18.3022C30.2662 18.4806 30.0537 18.6219 29.8199 18.7181C29.5861 18.8142 29.3357 18.8633 29.0829 18.8625L29.0868 18.8645Z" fill="white"/>
</g>
<defs>
<filter id="filter0_d_1244_54692" x="0" y="0" width="46" height="46" filterUnits="userSpaceOnUse" color-interpolation-filters="sRGB">
<feFlood flood-opacity="0" result="BackgroundImageFix"/>
<feColorMatrix in="SourceAlpha" type="matrix" values="0 0 0 0 0 0 0 0 0 0 0 0 0 0 0 0 0 0 127 0" result="hardAlpha"/>
<feOffset dy="2"/>
<feGaussianBlur stdDeviation="4"/>
<feComposite in2="hardAlpha" operator="out"/>
<feColorMatrix type="matrix" values="0 0 0 0 0 0 0 0 0 0 0 0 0 0 0 0 0 0 0.5 0"/>
<feBlend mode="normal" in2="BackgroundImageFix" result="effect1_dropShadow_1244_54692"/>
<feBlend mode="normal" in="SourceGraphic" in2="effect1_dropShadow_1244_54692" result="shape"/>
</filter>
<clipPath id="clip0_1244_54692">
<rect width="30" height="30" fill="white" transform="translate(8 6)"/>
</clipPath>
</defs>
</svg>
