<svg width="25" height="25" viewBox="0 0 25 25" fill="none" xmlns="http://www.w3.org/2000/svg">
<path fill-rule="evenodd" clip-rule="evenodd" d="M24 10.515C23.7928 11.1542 23.3195 11.3766 22.6862 11.376C19.7686 11.3731 16.8511 11.376 13.9336 11.3767C13.635 11.3768 13.6221 11.3645 13.6219 11.0813C13.6216 9.74233 13.6212 8.40352 13.6222 7.06458C13.6223 6.72953 13.6247 6.72784 13.9576 6.72784C16.8976 6.7277 19.8376 6.72672 22.7776 6.72925C23.4612 6.72995 23.773 6.95739 24 7.59757V10.515Z" fill="#9AE343"/>
<mask id="mask0_1244_53603" style="mask-type:luminance" maskUnits="userSpaceOnUse" x="4" y="1" width="17" height="5">
<path fill-rule="evenodd" clip-rule="evenodd" d="M4.47208 1H20.5511V5.648H4.47208V1Z" fill="white"/>
</mask>
<g mask="url(#mask0_1244_53603)">
<path fill-rule="evenodd" clip-rule="evenodd" d="M17.5361 1C18.4613 1.1697 19.2461 1.58638 19.816 2.34751C20.5129 3.27849 20.7333 4.30725 20.3954 5.43842C20.3537 5.57763 20.2801 5.63088 20.1392 5.63032C19.3539 5.62723 18.5686 5.63088 17.7833 5.62765C17.5642 5.6268 17.5452 5.58396 17.6687 5.39501C17.73 5.30145 17.7982 5.2121 17.8671 5.12373C18.222 4.66885 18.1812 4.0489 17.7694 3.65892C17.3302 3.24267 16.7012 3.20895 16.2673 3.61326C15.7808 4.06688 15.2852 4.51896 14.8581 5.02596C14.4484 5.51217 13.9871 5.68258 13.3602 5.6424C12.5484 5.59028 11.7306 5.62765 10.9154 5.63355C10.746 5.63481 10.6201 5.58143 10.5001 5.46005C9.91716 4.86946 9.32537 4.28744 8.73891 3.70022C8.27075 3.23143 7.59887 3.21261 7.13619 3.6592C6.67956 4.0999 6.67914 4.75637 7.13605 5.24146C7.20279 5.31212 7.27628 5.37646 7.34175 5.44811C7.37926 5.48927 7.45528 5.52313 7.42043 5.59225C7.38868 5.65518 7.31337 5.63102 7.25661 5.63102C6.47134 5.63158 5.68607 5.62596 4.9008 5.63228C4.72278 5.63369 4.65422 5.55446 4.60771 5.39627C4.03614 3.45508 5.33186 1.39139 7.3513 1.03231C7.39514 1.02458 7.43771 1.01096 7.48099 1H8.46844C9.41009 1.15776 10.1489 1.65844 10.7925 2.34063C11.2951 2.8732 11.8286 3.37669 12.339 3.9021C12.4711 4.03794 12.5519 4.02769 12.6825 3.90097C13.2889 3.31333 13.9167 2.74705 14.5144 2.15041C15.1013 1.56488 15.7584 1.12728 16.5934 1H17.5361Z" fill="#9AE343"/>
</g>
<path fill-rule="evenodd" clip-rule="evenodd" d="M11.3928 18.8143C11.3928 20.4374 11.3931 22.0604 11.3926 23.6835C11.3924 23.9943 11.3907 23.9953 11.0804 23.9954C8.5145 23.9957 5.9485 23.9964 3.3825 23.9949C2.59147 23.9944 2.13343 23.5516 2.13231 22.763C2.12823 19.801 2.13329 16.8391 2.12964 13.877C2.12936 13.6751 2.1923 13.6018 2.39997 13.6021C5.31006 13.6063 8.22001 13.6059 11.13 13.5991C11.3632 13.5986 11.3987 13.7038 11.398 13.9002C11.3933 15.5382 11.3954 17.1762 11.3954 18.8143H11.3928Z" fill="#9AE343"/>
<mask id="mask1_1244_53603" style="mask-type:luminance" maskUnits="userSpaceOnUse" x="13" y="13" width="10" height="11">
<path fill-rule="evenodd" clip-rule="evenodd" d="M13.6212 13.6055H22.8872V24.0001H13.6212V13.6055Z" fill="white"/>
</mask>
<g mask="url(#mask1_1244_53603)">
<path fill-rule="evenodd" clip-rule="evenodd" d="M13.6242 18.8186C13.6242 17.1882 13.6239 15.5578 13.6243 13.9275C13.6245 13.6072 13.6262 13.6057 13.9535 13.6057C16.8182 13.6053 19.6831 13.6055 22.5481 13.6056C22.8835 13.6057 22.8863 13.6067 22.8864 13.9426C22.8871 16.8519 22.888 19.7613 22.8856 22.6705C22.8852 23.1827 22.7626 23.6385 22.2473 23.8831C22.0898 23.9579 21.9244 23.9953 21.7486 23.9953C19.1232 23.9946 16.4976 23.9925 13.8722 24.0001C13.6394 24.0008 13.6208 23.8884 13.6213 23.7097C13.6239 22.0794 13.6228 20.449 13.6228 18.8186H13.6242Z" fill="#9AE343"/>
</g>
<mask id="mask2_1244_53603" style="mask-type:luminance" maskUnits="userSpaceOnUse" x="1" y="6" width="11" height="6">
<path fill-rule="evenodd" clip-rule="evenodd" d="M1 6.72705H11.3962V11.3779H1V6.72705Z" fill="white"/>
</mask>
<g mask="url(#mask2_1244_53603)">
<path fill-rule="evenodd" clip-rule="evenodd" d="M6.60279 6.72904C8.09872 6.72904 9.59466 6.7289 11.0906 6.72918C11.3882 6.72933 11.3922 6.73256 11.3924 7.02869C11.3932 8.38225 11.3894 9.73594 11.3962 11.0895C11.3973 11.2992 11.3355 11.3783 11.1162 11.3779C8.16912 11.3723 5.22221 11.3764 2.27531 11.3727C1.43103 11.3717 1.00292 10.9365 1.00151 10.0989C1.00025 9.36605 0.998423 8.63301 1.00236 7.90011C1.00615 7.17339 1.45154 6.73003 2.18244 6.72862C3.65589 6.72567 5.12934 6.72778 6.60279 6.72778V6.72904Z" fill="#9AE343"/>
</g>
</svg>
