<svg width="24" height="24" viewBox="0 0 24 24" fill="none" xmlns="http://www.w3.org/2000/svg">
<path fill-rule="evenodd" clip-rule="evenodd" d="M13.4001 4.66706C13.4001 2.64832 15.1077 1.00047 17.2001 1.00047L17.2 1C19.2922 1 21 2.64767 21 4.66659C21 6.68532 19.2924 8.33318 17.2 8.33318C15.8922 8.33318 14.7373 7.68828 14.053 6.71273L8.99755 10.0357C9.3751 10.605 9.59984 11.2767 9.59984 12C9.59984 12.7218 9.3821 13.3958 9.00608 13.9643L14.0528 17.2873C14.7371 16.3117 15.8921 15.6668 17.1998 15.6668C19.292 15.6668 20.9998 17.3145 20.9998 19.3334C20.9998 21.3521 19.2922 23 17.1998 23C15.1076 23 13.3998 21.3523 13.3998 19.3334C13.3998 18.9485 13.4631 18.5776 13.578 18.2285L8.29375 14.7583C7.62558 15.3208 6.75253 15.6668 5.79999 15.6668C3.70781 15.6668 2 14.0192 2 12.0002C2 9.9815 3.70761 8.33365 5.79999 8.33365C6.75311 8.33365 7.62539 8.67894 8.29375 9.24218L13.5698 5.76374C13.4569 5.41756 13.4001 5.04833 13.4001 4.66706ZM19.9144 4.66706C19.9144 3.21446 18.7055 2.048 17.2001 2.048C15.6947 2.048 14.4858 3.21446 14.4858 4.66706C14.4858 6.11965 15.6947 7.28612 17.2001 7.28612C18.7055 7.28612 19.9144 6.11965 19.9144 4.66706ZM5.79984 9.38136C7.30529 9.38136 8.51419 10.5478 8.51419 12.0004C8.51419 13.453 7.30529 14.6195 5.79984 14.6195C4.2944 14.6195 3.0855 13.453 3.0855 12.0004C3.0855 10.5478 4.2944 9.38136 5.79984 9.38136ZM19.9144 19.3338C19.9144 17.8811 18.7055 16.7147 17.2001 16.7147C15.6947 16.7147 14.4858 17.8811 14.4858 19.3338C14.4858 20.7864 15.6947 21.9528 17.2001 21.9528C18.7055 21.9528 19.9144 20.7864 19.9144 19.3338Z" fill="white"/>
<path d="M17.2001 1.00047V1.50047H17.8026L17.6915 0.908276L17.2001 1.00047ZM17.2 1V0.5H16.5975L16.7086 1.09219L17.2 1ZM14.053 6.71273L14.4624 6.42561L14.1838 6.02844L13.7784 6.29491L14.053 6.71273ZM8.99755 10.0357L8.72291 9.61788L8.30336 9.89365L8.58086 10.3121L8.99755 10.0357ZM9.00608 13.9643L8.58904 13.6885L8.31264 14.1064L8.73111 14.3819L9.00608 13.9643ZM14.0528 17.2873L13.7779 17.7049L14.1834 17.9719L14.4622 17.5744L14.0528 17.2873ZM13.578 18.2285L14.0529 18.3848L14.1727 18.0209L13.8525 17.8106L13.578 18.2285ZM8.29375 14.7583L8.56821 14.3404L8.25676 14.1358L7.97173 14.3758L8.29375 14.7583ZM8.29375 9.24218L7.97154 9.62452L8.25714 9.8652L8.56896 9.65962L8.29375 9.24218ZM13.5698 5.76374L13.845 6.18118L14.1633 5.9713L14.0451 5.60878L13.5698 5.76374ZM17.2001 0.500468C14.8486 0.500468 12.9001 2.35551 12.9001 4.66706H13.9001C13.9001 2.94114 15.3669 1.50047 17.2001 1.50047V0.500468ZM16.7086 1.09219L16.7087 1.09266L17.6915 0.908276L17.6914 0.907809L16.7086 1.09219ZM21.5 4.66659C21.5 2.35482 19.5513 0.5 17.2 0.5V1.5C19.0331 1.5 20.5 2.94052 20.5 4.66659H21.5ZM17.2 8.83318C19.5516 8.83318 21.5 6.97814 21.5 4.66659H20.5C20.5 6.3925 19.0332 7.83318 17.2 7.83318V8.83318ZM13.6437 6.99985C14.4193 8.10567 15.7254 8.83318 17.2 8.83318V7.83318C16.0591 7.83318 15.0552 7.27089 14.4624 6.42561L13.6437 6.99985ZM9.27218 10.4535L14.3277 7.13055L13.7784 6.29491L8.72291 9.61788L9.27218 10.4535ZM10.0998 12C10.0998 11.1708 9.84172 10.4039 9.41423 9.75935L8.58086 10.3121C8.90847 10.806 9.09984 11.3827 9.09984 12H10.0998ZM9.42311 14.2401C9.85083 13.5934 10.0998 12.8242 10.0998 12H9.09984C9.09984 12.6194 8.91337 13.1981 8.58904 13.6885L9.42311 14.2401ZM14.3278 16.8697L9.28104 13.5467L8.73111 14.3819L13.7779 17.7049L14.3278 16.8697ZM17.1998 15.1668C15.7253 15.1668 14.4191 15.8943 13.6435 17.0002L14.4622 17.5744C15.0551 16.7291 16.0589 16.1668 17.1998 16.1668V15.1668ZM21.4998 19.3334C21.4998 17.0216 19.5511 15.1668 17.1998 15.1668V16.1668C19.0329 16.1668 20.4998 17.6073 20.4998 19.3334H21.4998ZM17.1998 23.5C19.5514 23.5 21.4998 21.645 21.4998 19.3334H20.4998C20.4998 21.0593 19.033 22.5 17.1998 22.5V23.5ZM12.8998 19.3334C12.8998 21.6452 14.8485 23.5 17.1998 23.5V22.5C15.3668 22.5 13.8998 21.0595 13.8998 19.3334H12.8998ZM13.1031 18.0722C12.9722 18.4697 12.8998 18.8933 12.8998 19.3334H13.8998C13.8998 19.0037 13.9539 18.6855 14.0529 18.3848L13.1031 18.0722ZM8.01928 15.1762L13.3035 18.6464L13.8525 17.8106L8.56821 14.3404L8.01928 15.1762ZM5.79999 16.1668C6.87514 16.1668 7.86119 15.7761 8.61576 15.1408L7.97173 14.3758C7.38998 14.8656 6.62992 15.1668 5.79999 15.1668V16.1668ZM1.5 12.0002C1.5 14.312 3.44868 16.1668 5.79999 16.1668V15.1668C3.96694 15.1668 2.5 13.7263 2.5 12.0002H1.5ZM5.79999 7.83365C3.44845 7.83365 1.5 9.68868 1.5 12.0002H2.5C2.5 10.2743 3.96678 8.83365 5.79999 8.83365V7.83365ZM8.61595 8.85984C7.86095 8.22359 6.87556 7.83365 5.79999 7.83365V8.83365C6.63066 8.83365 7.38982 9.13429 7.97154 9.62452L8.61595 8.85984ZM13.2945 5.3463L8.01853 8.82474L8.56896 9.65962L13.845 6.18118L13.2945 5.3463ZM12.9001 4.66706C12.9001 5.09802 12.9643 5.51977 13.0944 5.9187L14.0451 5.60878C13.9495 5.31535 13.9001 4.99864 13.9001 4.66706H12.9001ZM17.2001 2.548C18.4464 2.548 19.4144 3.50729 19.4144 4.66706H20.4144C20.4144 2.92163 18.9647 1.548 17.2001 1.548V2.548ZM14.9858 4.66706C14.9858 3.50729 15.9538 2.548 17.2001 2.548V1.548C15.4355 1.548 13.9858 2.92163 13.9858 4.66706H14.9858ZM17.2001 6.78612C15.9538 6.78612 14.9858 5.82682 14.9858 4.66706H13.9858C13.9858 6.41249 15.4355 7.78612 17.2001 7.78612V6.78612ZM19.4144 4.66706C19.4144 5.82682 18.4464 6.78612 17.2001 6.78612V7.78612C18.9647 7.78612 20.4144 6.41249 20.4144 4.66706H19.4144ZM9.01419 12.0004C9.01419 10.255 7.56444 8.88136 5.79984 8.88136V9.88136C7.04614 9.88136 8.01419 10.8407 8.01419 12.0004H9.01419ZM5.79984 15.1195C7.56444 15.1195 9.01419 13.7458 9.01419 12.0004H8.01419C8.01419 13.1602 7.04614 14.1195 5.79984 14.1195V15.1195ZM2.5855 12.0004C2.5855 13.7458 4.03525 15.1195 5.79984 15.1195V14.1195C4.55355 14.1195 3.5855 13.1602 3.5855 12.0004H2.5855ZM5.79984 8.88136C4.03525 8.88136 2.5855 10.255 2.5855 12.0004H3.5855C3.5855 10.8407 4.55355 9.88136 5.79984 9.88136V8.88136ZM17.2001 17.2147C18.4464 17.2147 19.4144 18.1739 19.4144 19.3338H20.4144C20.4144 17.5882 18.9647 16.2147 17.2001 16.2147V17.2147ZM14.9858 19.3338C14.9858 18.1739 15.9538 17.2147 17.2001 17.2147V16.2147C15.4355 16.2147 13.9858 17.5882 13.9858 19.3338H14.9858ZM17.2001 21.4528C15.9538 21.4528 14.9858 20.4935 14.9858 19.3338H13.9858C13.9858 21.0792 15.4355 22.4528 17.2001 22.4528V21.4528ZM19.4144 19.3338C19.4144 20.4935 18.4464 21.4528 17.2001 21.4528V22.4528C18.9647 22.4528 20.4144 21.0792 20.4144 19.3338H19.4144Z" fill="white"/>
</svg>
