<svg width="21" height="14" viewBox="0 0 21 14" fill="none" xmlns="http://www.w3.org/2000/svg">
<path d="M10.5 9.39651C12.0798 9.39651 13.3605 8.11583 13.3605 6.53604C13.3605 4.95625 12.0798 3.67558 10.5 3.67558C8.92021 3.67558 7.63954 4.95625 7.63954 6.53604C7.63954 8.11583 8.92021 9.39651 10.5 9.39651Z" fill="white"/>
<path d="M20.7585 5.74906C18.2988 2.10642 14.3994 -0.0264135 10.5 0.000247009C6.6006 -0.0264135 2.7012 2.10642 0.241467 5.74906C0.084108 5.98139 0 6.25556 0 6.53616C0 6.81677 0.084108 7.09093 0.241467 7.32326C2.7012 10.9659 6.6006 13.0987 10.5 13.0721C14.3994 13.0987 18.2988 10.9659 20.7585 7.32326C20.9159 7.09093 21 6.81677 21 6.53616C21 6.25556 20.9159 5.98139 20.7585 5.74906ZM10.5 10.9552C9.62599 10.9552 8.77161 10.6961 8.0449 10.2105C7.31818 9.72492 6.75178 9.03475 6.41731 8.22727C6.08284 7.41979 5.99533 6.53126 6.16584 5.67404C6.33635 4.81683 6.75723 4.02942 7.37525 3.4114C7.99326 2.79339 8.78067 2.37251 9.63788 2.202C10.4951 2.03149 11.3836 2.119 12.1911 2.45347C12.9986 2.78794 13.6888 3.35434 14.1743 4.08106C14.6599 4.80777 14.9191 5.66215 14.9191 6.53616C14.9191 7.70817 14.4535 8.83218 13.6248 9.66092C12.796 10.4897 11.672 10.9552 10.5 10.9552Z" fill="white"/>
</svg>
