<svg width="58" height="58" viewBox="0 0 58 58" fill="none" xmlns="http://www.w3.org/2000/svg">
<g filter="url(#filter0_d_1244_54660)">
<path d="M24.8888 36.0704C25.2072 36.0704 25.444 35.907 25.8277 35.5478L28.7751 32.8536H34.2942C36.7272 32.8536 38.0335 31.5146 38.0335 29.1225V22.8685C38.0335 20.4763 36.7272 19.1292 34.2942 19.1292H23.7785C21.3454 19.1292 20.0391 20.4681 20.0391 22.8685V29.1225C20.0391 31.5228 21.3454 32.8536 23.7785 32.8536H24.1622V35.2294C24.1622 35.7356 24.4234 36.0704 24.8888 36.0704ZM24.9133 27.1956C24.252 27.1956 23.705 26.6568 23.705 25.9873C23.705 25.3178 24.252 24.779 24.9133 24.779C25.5828 24.779 26.1216 25.3178 26.1216 25.9873C26.1216 26.6568 25.5828 27.1956 24.9133 27.1956ZM29.0445 27.1956C28.375 27.1956 27.828 26.6568 27.828 25.9873C27.828 25.3178 28.375 24.779 29.0445 24.779C29.7058 24.779 30.2529 25.3178 30.2529 25.9873C30.2529 26.6568 29.7058 27.1956 29.0445 27.1956ZM33.1676 27.1956C32.4981 27.1956 31.9592 26.6568 31.9592 25.9873C31.9592 25.3178 32.4981 24.779 33.1676 24.779C33.837 24.779 34.3759 25.3178 34.3759 25.9873C34.3759 26.6568 33.837 27.1956 33.1676 27.1956Z" fill="white"/>
</g>
<defs>
<filter id="filter0_d_1244_54660" x="0" y="0" width="57.9413" height="58" filterUnits="userSpaceOnUse" color-interpolation-filters="sRGB">
<feFlood flood-opacity="0" result="BackgroundImageFix"/>
<feColorMatrix in="SourceAlpha" type="matrix" values="0 0 0 0 0 0 0 0 0 0 0 0 0 0 0 0 0 0 127 0" result="hardAlpha"/>
<feOffset dy="2"/>
<feGaussianBlur stdDeviation="8"/>
<feColorMatrix type="matrix" values="0 0 0 0 0 0 0 0 0 0 0 0 0 0 0 0 0 0 0.5 0"/>
<feBlend mode="normal" in2="BackgroundImageFix" result="effect1_dropShadow_1244_54660"/>
<feBlend mode="normal" in="SourceGraphic" in2="effect1_dropShadow_1244_54660" result="shape"/>
</filter>
</defs>
</svg>
