<svg width="152" height="132" viewBox="0 0 152 132" fill="none" xmlns="http://www.w3.org/2000/svg">
<circle cx="61" cy="4" r="4" fill="white"/>
<circle cx="77" cy="4" r="4" fill="white"/>
<circle cx="93" cy="4" r="4" fill="white"/>
<path fill-rule="evenodd" clip-rule="evenodd" d="M138.182 70.6909C138.182 70.6909 149.521 87.5907 149.225 89.3543C148.935 91.118 139.425 94.5783 139.425 94.5783L136.208 82.0374L138.177 70.6853L138.182 70.6909Z" fill="#333333"/>
<path fill-rule="evenodd" clip-rule="evenodd" d="M31.4671 70.1215C28.9242 76.6235 8.24998 94.6898 7.23978 107.42C7.0598 109.714 6.0438 112.801 5.17874 115.519C5.17874 115.519 2.23524 121.809 4.53431 125.576C3.98857 125.085 3.46605 124.504 2.96095 123.829C0.354177 120.341 -0.365735 113.828 0.162587 107.108C2.27007 80.4466 16.616 79.509 21.7019 66.583L31.4671 70.1159V70.1215Z" fill="url(#paint0_linear_1244_53799)"/>
<path fill-rule="evenodd" clip-rule="evenodd" d="M86.9409 20.9514C86.9409 20.9514 91.2952 25.5615 90.3779 32.9007C89.0078 43.8175 80.6649 70.3615 85.1527 67.4091L94.2794 61.4093L95.1735 51.6758C95.1735 51.6758 93.7104 37.1703 92.8337 31.8235C91.9571 26.4768 90.8075 22.2518 86.9467 20.9514H86.9409Z" fill="#333333"/>
<path fill-rule="evenodd" clip-rule="evenodd" d="M75.4746 21.6882C75.4746 21.6882 70.4933 25.6732 70.3481 33.0682C70.1333 44.0576 74.5631 71.4611 70.5455 67.9394L62.3768 60.7787L62.8994 51.0229C62.8994 51.0229 66.4409 36.8523 68.0781 31.6729C69.7211 26.4936 71.4686 22.464 75.4746 21.6882Z" fill="#333333"/>
<path fill-rule="evenodd" clip-rule="evenodd" d="M10.0497 83.4605C10.0497 83.4605 11.4431 79.509 17.8759 80.9099C24.3086 82.3052 20.2969 86.2957 20.2969 86.2957L12.6855 90.4202L10.0497 83.4661V83.4605Z" fill="#484848"/>
<path fill-rule="evenodd" clip-rule="evenodd" d="M18.3868 87.3282L12.9062 90.2974C12.7842 90.2193 12.6623 90.13 12.5462 90.0407L11.0251 86.039C12.0701 81.747 17.2082 81.1833 17.2082 81.1833C17.2082 81.1833 18.9383 85.7041 18.9383 86.1729C18.9383 86.2957 18.7177 86.7422 18.3868 87.3282Z" fill="#373737"/>
<path fill-rule="evenodd" clip-rule="evenodd" d="M32.5063 57.5752C32.5063 57.5752 22.8224 57.977 19.6408 67.2864C17.7539 72.8062 15.4317 87.2 13.8525 98.0107C12.4359 107.7 7.90161 119.398 17.841 125.403C32.4018 134.199 124.475 134.199 139.036 125.403C148.975 119.398 144.441 107.694 143.024 98.0107C141.445 87.2 139.123 72.8006 137.236 67.2864C134.054 57.977 124.371 57.5752 124.371 57.5752C92.7641 57.2347 64.1128 57.2347 32.5063 57.5752Z" fill="#98BF34"/>
<path fill-rule="evenodd" clip-rule="evenodd" d="M16.2328 82.9303C15.362 87.9534 14.5376 93.3169 13.8525 98.0051C12.4359 107.694 7.90161 119.392 17.841 125.397C32.4018 134.193 124.475 134.193 139.036 125.397C148.975 119.392 144.441 107.688 143.024 98.0051C142.322 93.1997 141.474 87.6855 140.58 82.5564C141.341 120.04 85.594 131.939 47.398 119.816C15.8613 109.804 15.42 89.6501 16.227 82.9303H16.2328Z" fill="#41861C"/>
<path fill-rule="evenodd" clip-rule="evenodd" d="M21.9689 126.943C43.1889 133.697 114.03 133.68 135.041 126.899C135.053 126.854 135.053 126.826 135.053 126.826C133.689 116.205 131.877 103.603 130.374 98.4571C127.569 88.8352 119.023 88.4222 119.023 88.4222C91.1443 88.0705 65.8777 88.0705 38.0044 88.4222C38.0044 88.4222 29.4641 88.8352 26.6541 98.4571C25.1505 103.62 23.3275 116.295 21.9631 126.938L21.9689 126.943Z" fill="#98BF34"/>
<path fill-rule="evenodd" clip-rule="evenodd" d="M21.9689 126.943C43.1889 133.697 114.03 133.68 135.041 126.899C135.053 126.854 135.053 126.826 135.053 126.826C134.142 119.71 133.021 111.701 131.935 105.646C114.901 124.449 76.1713 128.947 47.398 119.816C36.6865 116.417 29.5628 111.841 24.8544 107.024C23.8384 112.918 22.8107 120.324 21.9631 126.943H21.9689Z" fill="#53A727"/>
<path fill-rule="evenodd" clip-rule="evenodd" d="M24.0648 125.989C25.3478 117.835 26.1258 100.338 32.5876 94.489C34.1552 93.0714 36.1581 91.9607 38.6604 91.6761C45.575 90.878 74.5631 91.5421 75.2191 91.6761C75.8752 91.81 75.9797 92.809 75.8752 94.7011C75.7707 96.5987 76.8215 127.915 77.1989 128.713C77.5705 129.511 77.1989 90.0408 77.1989 90.0408C77.1989 90.0408 40.8376 89.8231 37.3831 90.6212C35.653 91.0175 33.3888 92.1393 31.4148 93.7634C24.5409 99.4116 24.866 117.4 24.0706 125.984L24.0648 125.989Z" fill="#76B52B"/>
<path fill-rule="evenodd" clip-rule="evenodd" d="M133.149 125.989C131.866 117.835 131.088 100.338 124.626 94.489C123.058 93.0714 121.055 91.9607 118.553 91.6761C111.639 90.878 82.6853 91.5421 82.0293 91.6761C81.3732 91.81 81.2687 92.809 81.3732 94.7011C81.4777 96.5987 80.4269 127.915 80.0495 128.713C79.6779 129.511 80.0495 90.0408 80.0495 90.0408C80.0495 90.0408 116.376 89.8231 119.836 90.6212C121.566 91.0175 123.831 92.1393 125.805 93.7634C132.679 99.4116 132.353 117.4 133.149 125.984V125.989Z" fill="#76B52B"/>
<path fill-rule="evenodd" clip-rule="evenodd" d="M31.6413 57.6643C29.1971 58.0159 22.2476 59.6679 19.6408 67.2807C17.8701 72.46 15.7161 85.4641 14.1486 95.979L21.8586 92.6861C21.8586 92.6861 25.464 77.1593 25.7426 69.6471C25.9981 62.7543 32.2973 60.8958 31.6355 57.6643H31.6413Z" fill="#595959"/>
<path fill-rule="evenodd" clip-rule="evenodd" d="M11.327 81.8252C11.327 81.8252 9.89878 82.9526 10.5026 84.6604C11.0832 86.2957 13.6377 88.4947 16.2851 88.997C21.6902 90.0295 22.5611 90.3365 21.8586 92.6862C20.7787 96.2916 16.3373 122.785 15.3446 122.618C13.15 122.244 6.82755 115.692 6.95527 102.297C7.0888 88.9021 7.74485 84.6939 11.3212 81.8252H11.327Z" fill="#ACACAC"/>
<path fill-rule="evenodd" clip-rule="evenodd" d="M20.2794 100.171C19.0022 104.613 17.7423 123.025 15.3446 122.624C13.15 122.25 6.82755 115.697 6.95527 102.303C7.01333 96.4535 7.17009 92.357 7.62874 89.3599C7.94805 91.4863 8.04095 92.9988 10.6013 95.8843C13.1616 98.7753 20.2794 100.171 20.2794 100.171Z" fill="#474747"/>
<path fill-rule="evenodd" clip-rule="evenodd" d="M146.804 83.4605C146.804 83.4605 145.41 79.509 138.978 80.9099C132.545 82.3052 136.557 86.2957 136.557 86.2957L144.168 90.4202L146.804 83.4661V83.4605Z" fill="#424242"/>
<path fill-rule="evenodd" clip-rule="evenodd" d="M138.467 87.3282L143.947 90.2974C144.069 90.2193 144.191 90.13 144.307 90.0407L145.829 86.039C144.783 81.747 139.645 81.1833 139.645 81.1833C139.645 81.1833 137.915 85.7041 137.915 86.1729C137.915 86.2957 138.136 86.7422 138.467 87.3282Z" fill="#333333"/>
<path fill-rule="evenodd" clip-rule="evenodd" d="M125.218 57.6643C127.668 58.0159 134.612 59.6679 137.219 67.2807C138.989 72.46 141.143 85.4641 142.711 95.979L135.001 92.6861C135.001 92.6861 131.395 77.1593 131.117 69.6471C130.861 62.7543 124.562 60.8958 125.224 57.6643H125.218Z" fill="#595959"/>
<path fill-rule="evenodd" clip-rule="evenodd" d="M145.527 81.8252C145.527 81.8252 146.955 82.9526 146.351 84.6604C145.77 86.2957 143.216 88.4947 140.569 88.997C135.163 90.0295 134.293 90.3365 134.995 92.6862C136.075 96.2916 140.516 122.785 141.509 122.618C143.704 122.244 150.026 115.692 149.898 102.297C149.765 88.9021 149.115 84.6939 145.532 81.8252H145.527Z" fill="#C6C6C6"/>
<path fill-rule="evenodd" clip-rule="evenodd" d="M136.574 100.171C137.851 104.613 139.111 123.025 141.509 122.624C143.704 122.25 150.026 115.697 149.898 102.303C149.84 96.4535 149.684 92.357 149.225 89.3599C148.906 91.4863 148.813 92.9988 146.252 95.8843C143.692 98.7753 136.574 100.171 136.574 100.171Z" fill="#474747"/>
<path fill-rule="evenodd" clip-rule="evenodd" d="M9.75944 85.6707C9.75944 85.6707 10.9322 89.1198 15.0485 90.0854C19.1647 91.0565 20.2388 91.3523 20.2736 91.9885C20.3085 92.6192 20.4014 96.487 18.1952 97.0339C15.989 97.5753 11.4547 94.3159 10.073 91.3913C8.69119 88.4668 9.34724 86.2734 9.75944 85.6707Z" fill="#D7D7D7"/>
<path fill-rule="evenodd" clip-rule="evenodd" d="M147.019 85.6707C147.019 85.6707 145.846 89.1198 141.73 90.0854C137.613 91.0565 136.539 91.3523 136.504 91.9885C136.47 92.6192 136.377 96.487 138.583 97.0339C140.789 97.5753 145.323 94.3159 146.705 91.3913C148.087 88.4668 147.431 86.2734 147.019 85.6707Z" fill="#DADADA"/>
<path fill-rule="evenodd" clip-rule="evenodd" d="M28.7152 61.3982C28.7152 61.3982 29.9924 60.2987 33.2088 60.2653C36.4252 60.2318 58.9747 60.9629 70.7371 60.695C82.4937 60.4271 101.867 60.695 107.4 61.0969C112.933 61.4931 122.722 59.869 123.517 60.0308C124.312 60.1983 129.224 60.3657 130.263 61.2252C131.303 62.0903 129.021 58.3677 123.413 58.63C117.81 58.8979 113.311 59.3611 109.229 59.2272C105.148 59.0932 91.8642 59.1602 84.398 59.0932C76.926 59.0262 38.1205 58.8253 34.0739 59.0262C30.0273 59.2272 28.7152 61.3871 28.7152 61.3871V61.3982Z" fill="#323232"/>
<path fill-rule="evenodd" clip-rule="evenodd" d="M29.3074 62.2018C29.0403 62.4083 29.3596 62.7934 29.6325 62.5981H29.6383L29.3074 62.2018ZM129.294 62.7376C129.578 62.8771 129.84 62.4362 129.509 62.28C129.183 62.1348 128.858 62.0065 128.522 61.8893C128.179 61.7777 128.034 62.2632 128.347 62.3637C128.673 62.4809 128.98 62.5981 129.294 62.7376ZM126.873 61.9451C127.256 62.0065 127.291 61.5042 126.995 61.4539C126.646 61.3758 126.304 61.3144 125.95 61.2586C125.613 61.2028 125.52 61.6995 125.868 61.7553C126.211 61.8111 126.536 61.8669 126.873 61.9451ZM124.33 61.5879C124.719 61.5879 124.667 61.0856 124.365 61.0856C124.011 61.0633 123.662 61.0465 123.308 61.0409C122.948 61.0409 122.966 61.5432 123.296 61.5432C123.645 61.5488 123.982 61.5656 124.33 61.5879ZM121.746 61.56C122.066 61.56 122.095 61.0577 121.729 61.0577C121.381 61.0688 121.026 61.0856 120.678 61.1135C120.376 61.1135 120.324 61.6158 120.713 61.6158C121.055 61.5879 121.404 61.5711 121.746 61.56ZM119.157 61.7442C119.534 61.6828 119.407 61.1972 119.105 61.2419C118.756 61.2753 118.408 61.3144 118.06 61.3535C117.688 61.4149 117.81 61.9004 118.124 61.8502C118.46 61.8056 118.82 61.7721 119.157 61.7386V61.7442ZM116.568 62.0455C116.928 61.9897 116.817 61.4986 116.498 61.5488L115.459 61.6828C115.099 61.7386 115.209 62.2297 115.528 62.1795L116.568 62.0455ZM113.972 62.3748C114.338 62.3134 114.222 61.8279 113.909 61.8781L112.875 61.9953C112.498 62.0567 112.625 62.5423 112.933 62.4976L113.978 62.3804L113.972 62.3748ZM111.354 62.626C111.656 62.626 111.708 62.1237 111.319 62.1237C110.971 62.146 110.628 62.1628 110.286 62.1739C109.961 62.1739 109.937 62.6762 110.303 62.6762C110.657 62.6651 111.006 62.6483 111.354 62.626ZM108.712 62.6651C109.096 62.6651 109.049 62.1628 108.741 62.1628C108.416 62.146 108.045 62.1237 107.72 62.079C107.4 62.0288 107.29 62.5199 107.65 62.5758C108.004 62.6148 108.352 62.6483 108.712 62.6651ZM106.117 62.3916C106.5 62.3916 106.454 61.8893 106.146 61.8893L105.095 61.839C104.724 61.839 104.759 62.3413 105.078 62.3413L106.117 62.386V62.3916ZM103.51 62.2967C103.876 62.2967 103.853 61.7944 103.528 61.7944L102.483 61.7665C102.123 61.7665 102.14 62.2688 102.471 62.2688L103.516 62.2967H103.51ZM100.898 62.2297C101.258 62.2297 101.24 61.7274 100.91 61.7274L99.8645 61.7051C99.5045 61.7051 99.5219 62.2074 99.8529 62.2074L100.898 62.2297ZM98.2853 62.1795C98.6453 62.1795 98.6279 61.6772 98.2969 61.6772L97.2519 61.6604C96.8977 61.6604 96.9094 62.1628 97.2403 62.1628L98.2853 62.1795ZM95.6727 62.1348C96.0269 62.1348 96.0153 61.6325 95.6843 61.6325L94.6393 61.6158C94.2852 61.6158 94.2968 62.1181 94.6277 62.1181L95.6727 62.1348ZM93.0602 62.0958C93.4143 62.0958 93.4027 61.5935 93.066 61.5935C92.7176 61.5935 92.3693 61.5879 92.0209 61.5767C91.6668 61.5767 91.6784 62.079 92.0151 62.079C92.3635 62.0902 92.7118 62.0902 93.0602 62.0958ZM90.4476 62.0567C90.8017 62.0567 90.7901 61.5544 90.4534 61.5544L89.4083 61.5377C89.0542 61.5377 89.0658 62.04 89.4025 62.04L90.4476 62.0567ZM87.835 62.0176C88.1891 62.0176 88.1775 61.5153 87.8408 61.5153L86.7958 61.4986C86.4416 61.4986 86.4532 62.0009 86.79 62.0009L87.835 62.0176ZM85.2224 61.9842C85.5766 61.9842 85.565 61.4818 85.2282 61.4818C84.9147 61.4818 84.4793 61.4986 84.1832 61.4651C83.829 61.4651 83.8406 61.9674 84.1774 61.9674C84.4909 61.9897 84.8973 61.9786 85.2224 61.9842ZM82.6098 61.9507C82.964 61.9507 82.9524 61.4484 82.6156 61.4484L81.5706 61.4316C81.2165 61.4316 81.2281 61.9339 81.5648 61.9339L82.6098 61.9507ZM79.9972 61.9116C80.3514 61.9116 80.3398 61.4093 80.0031 61.4093L78.958 61.3926C78.6039 61.3926 78.6155 61.8949 78.9464 61.8949L79.9914 61.9116H79.9972ZM77.3847 61.8725C77.7388 61.8725 77.7272 61.3702 77.3963 61.3702L76.3512 61.3535C75.9971 61.3535 76.0087 61.8558 76.3454 61.8558L77.3905 61.8725H77.3847ZM74.7721 61.839C75.1204 61.839 75.1146 61.3367 74.7721 61.3367C74.4295 61.3367 74.0754 61.3312 73.7271 61.3256C73.3787 61.3256 73.3845 61.8279 73.7271 61.8279C74.0754 61.8279 74.4237 61.839 74.7721 61.839ZM72.1595 61.8167C72.5079 61.8167 72.502 61.3144 72.1595 61.3144H71.1145C70.7661 61.3088 70.7719 61.8111 71.1145 61.8111H72.1595V61.8167ZM69.5469 61.8056C69.8953 61.8056 69.8895 61.3033 69.5469 61.3033C69.2276 61.3033 68.8096 61.32 68.5019 61.2977C68.1535 61.2977 68.1594 61.8 68.5019 61.8C68.8096 61.8223 69.2276 61.8056 69.5469 61.8056ZM66.9343 61.7888C67.2827 61.7888 67.2769 61.2865 66.9343 61.2865H65.8893C65.541 61.2809 65.5468 61.7832 65.8893 61.7832H66.9343V61.7888ZM64.3218 61.7777C64.6701 61.7777 64.6643 61.2753 64.3218 61.2753H63.2767C62.9284 61.2698 62.9342 61.7721 63.2767 61.7721H64.3218V61.7777ZM61.7092 61.7665C62.0575 61.7665 62.0517 61.2642 61.7092 61.2642H60.6641C60.3158 61.2586 60.3216 61.7609 60.6641 61.7609H61.7092V61.7665ZM59.0966 61.7553C59.4449 61.7553 59.4391 61.253 59.0966 61.253H58.0516C57.7032 61.2474 57.709 61.7497 58.0516 61.7497H59.0966V61.7553ZM56.484 61.7442C56.8324 61.7442 56.8266 61.2419 56.484 61.2419C56.1415 61.2419 55.7873 61.2419 55.439 61.2307C55.0906 61.2307 55.0964 61.733 55.439 61.733C55.7873 61.733 56.1357 61.7442 56.484 61.7442ZM53.8714 61.7218C54.2198 61.7218 54.214 61.2195 53.8714 61.2195L52.8264 61.2084C52.4722 61.2084 52.4839 61.7107 52.8206 61.7107L53.8656 61.7218H53.8714ZM51.2589 61.6939C51.613 61.6939 51.6014 61.1916 51.2647 61.1916L50.2196 61.1749C49.8655 61.1749 49.8771 61.6772 50.2138 61.6772L51.2589 61.6939ZM48.6463 61.6549C49.0004 61.6549 48.9888 61.1526 48.6579 61.1526C48.3211 61.1526 47.9496 61.1526 47.6129 61.1358C47.2529 61.1358 47.2703 61.6381 47.6012 61.6381C47.9438 61.6549 48.3037 61.6493 48.6463 61.6549ZM46.0337 61.6046C46.3936 61.6046 46.3762 61.1023 46.0453 61.1023C45.7144 61.1023 45.3428 61.0856 45.0003 61.08C44.6403 61.08 44.6577 61.5823 44.9887 61.5823C45.337 61.5935 45.6912 61.6046 46.0337 61.6046ZM43.4153 61.5377C43.7811 61.5377 43.7578 61.0354 43.4327 61.0354L42.3877 61.0019C42.0219 61.0019 42.0451 61.5042 42.3703 61.5042L43.4153 61.5377ZM40.7969 61.4428C41.1685 61.4428 41.1336 60.9405 40.8201 60.9405L39.7751 60.9014C39.4093 60.9014 39.4326 61.4037 39.7577 61.4037L40.8027 61.4428H40.7969ZM38.1959 61.3702C38.5443 61.3702 38.5385 60.8679 38.1959 60.8679C37.8476 60.8679 37.4934 60.8679 37.1451 60.8679C36.8142 60.8679 36.7968 61.3702 37.1567 61.3702C37.5051 61.3646 37.8476 61.3646 38.1959 61.3646V61.3702ZM35.6008 61.4316C35.9085 61.4316 35.9549 60.9293 35.5718 60.9293C35.2234 60.9461 34.8693 60.974 34.5209 61.0019C34.1319 61.0633 34.2771 61.5488 34.5674 61.5042C34.9041 61.4707 35.264 61.4484 35.6008 61.4316ZM33.023 61.6772C33.3714 61.6214 33.2785 61.1247 32.9418 61.1805C32.5992 61.2307 32.2393 61.2865 31.8967 61.3591C31.5832 61.4093 31.6355 61.9116 32.007 61.8502C32.3438 61.7832 32.6805 61.7218 33.023 61.6716V61.6772ZM30.5324 62.2465C30.8401 62.146 30.6949 61.666 30.3524 61.7721L30.5324 62.2465Z" fill="#76B52B"/>
<path fill-rule="evenodd" clip-rule="evenodd" d="M28.7442 73.3698C28.7442 73.3698 33.0346 65.7905 43.6882 64.8585C54.3417 63.9264 85.0541 66.1868 100.55 65.7905C116.045 65.3943 121.166 64.7245 122.548 66.4547C123.929 68.1849 123.79 73.9 110.373 74.4358C96.95 74.966 78.5516 74.1679 59.1837 75.3678C39.8157 76.5678 30.6833 78.1584 29.0229 81.0885C27.3624 84.0131 26.3929 77.6282 28.7442 73.3754V73.3698Z" fill="#B2DD43"/>
<path fill-rule="evenodd" clip-rule="evenodd" d="M30.3988 94.7457C30.3988 94.7457 33.3075 89.3933 40.1583 89.1254C47.0091 88.8575 82.1802 89.0919 87.5099 88.9245C91.7655 88.7905 109.821 88.5394 118.704 89.4045C125.439 90.0575 127.14 93.0434 129.509 99.3724C129.509 99.3724 125.143 90.9058 118.327 90.4482C111.511 89.9905 83.4575 90.264 76.9202 90.0463C70.383 89.8286 39.7054 89.89 37.0058 90.7216C34.3061 91.5532 30.393 94.7457 30.393 94.7457H30.3988Z" fill="#424242"/>
<path fill-rule="evenodd" clip-rule="evenodd" d="M31.8038 59.8857C31.8038 59.8857 31.4497 59.5117 31.4323 59.4113C31.4148 59.3108 32.6747 58.295 32.9882 58.2727C33.3017 58.2504 33.8533 58.9983 34.0158 59.1769C34.1784 59.361 34.3467 59.6736 34.1435 59.7182C33.9461 59.7573 33.7546 59.8745 33.6675 59.7852C33.5804 59.6959 33.4236 59.5787 33.4759 59.5173C33.5281 59.4615 33.4991 59.2662 33.3656 59.1601C33.2262 59.0541 33.2785 58.8531 32.965 58.9592C32.6515 59.0652 32.0128 59.3778 32.0244 59.4392C32.0303 59.5061 32.396 59.8689 32.1986 60.0196C32.0012 60.1703 31.798 59.8801 31.798 59.8801L31.8038 59.8857Z" fill="#373538"/>
<path fill-rule="evenodd" clip-rule="evenodd" d="M31.4323 59.4114C31.4323 59.4114 25.8297 61.6606 25.7601 61.828C25.6904 61.9955 25.8646 62.442 26.1084 62.4587C26.3522 62.4754 30.6195 60.6783 31.0201 60.4997C31.4207 60.3155 31.8212 59.9081 31.8212 59.9081L31.4323 59.4114Z" fill="#373538"/>
<path fill-rule="evenodd" clip-rule="evenodd" d="M35.8853 90.0798C35.8853 90.0798 35.5311 89.7058 35.5137 89.6054C35.4963 89.5049 36.7561 88.4891 37.0696 88.4668C37.3831 88.4445 37.9347 89.1923 38.0973 89.3709C38.2598 89.5495 38.4282 89.8677 38.225 89.9123C38.0276 89.9514 37.836 90.0686 37.7489 89.9793C37.6618 89.89 37.5051 89.7728 37.5573 89.7114C37.6096 89.6556 37.5805 89.4602 37.447 89.3542C37.3077 89.2482 37.3599 89.0472 37.0464 89.1533C36.7329 89.2593 36.0943 89.5663 36.1059 89.6333C36.1117 89.7002 36.4775 90.063 36.2801 90.2137C36.0827 90.3644 35.8795 90.0742 35.8795 90.0742L35.8853 90.0798Z" fill="#373538"/>
<path fill-rule="evenodd" clip-rule="evenodd" d="M35.5137 89.6055C35.5137 89.6055 29.9112 91.8547 29.8415 92.0221C29.7718 92.1896 29.946 92.636 30.1898 92.6528C30.4337 92.6695 34.7009 90.8724 35.1015 90.6938C35.5021 90.5096 35.9027 90.1022 35.9027 90.1022L35.5137 89.6055Z" fill="#373538"/>
<path fill-rule="evenodd" clip-rule="evenodd" d="M30.4685 100.584C30.4685 100.584 34.5499 94.3998 42.4341 93.2668C50.3183 92.1338 70.9751 91.9385 73.4252 93.931C75.8694 95.9234 75.2249 98.0554 71.486 99.7856C67.753 101.516 48.4489 100.98 41.8129 103.575C35.1712 106.17 33.0288 109.759 30.8807 108.297C28.7384 106.835 27.9779 104.574 30.4685 100.584Z" fill="#B2DD43"/>
<path fill-rule="evenodd" clip-rule="evenodd" d="M126.861 100.584C126.861 100.584 122.78 94.3998 114.896 93.2668C107.011 92.1338 86.3545 91.9385 83.9045 93.931C81.4545 95.9234 82.1047 98.0554 85.8436 99.7856C89.5767 101.516 108.881 100.98 115.517 103.575C122.159 106.17 124.301 109.759 126.449 108.297C128.591 106.835 129.352 104.574 126.861 100.584Z" fill="#B2DD43"/>
<path fill-rule="evenodd" clip-rule="evenodd" d="M28.6339 62.481C28.6339 62.481 26.869 65.1822 26.2826 67.9003C25.6962 70.6183 23.7222 86.0558 23.3042 87.7804C22.892 89.5106 22.5263 91.7654 22.0502 91.8491C21.5741 91.9328 22.3695 88.8073 22.5785 86.9488C22.7875 85.0847 24.5467 73.5819 24.7208 71.4555C24.895 69.3291 25.4465 65.7348 28.6339 62.481Z" fill="#76B52B"/>
<path fill-rule="evenodd" clip-rule="evenodd" d="M128.208 62.481C128.208 62.481 129.973 65.1822 130.559 67.9003C131.146 70.6183 133.12 86.0558 133.538 87.7804C133.95 89.5106 134.316 91.7654 134.792 91.8491C135.268 91.9328 134.472 88.8073 134.263 86.9488C134.054 85.0847 132.295 73.5819 132.121 71.4555C131.947 69.3291 131.395 65.7348 128.208 62.481Z" fill="#76B52B"/>
<path fill-rule="evenodd" clip-rule="evenodd" d="M47.7696 62.9109C47.7696 62.1798 48.1644 58.6525 48.9946 56.0628C49.8248 53.4676 54.5971 44.6605 56.873 40.4691C59.1488 36.2776 62.6497 34.6814 64.8385 32.354C67.0272 30.0267 70.3771 17.6811 80.7694 17.0281C90.5114 16.4142 92.3635 27.5152 95.9572 31.2266C100.596 36.0153 103.4 40.1398 104.451 44.6605C105.502 49.1813 109.049 59.1883 109.136 62.1184C109.392 70.7357 109.113 79.5931 109.113 88.2327H97.1068C97.1068 84.4375 97.5364 58.6525 95.574 55.1196C93.9136 52.1281 88.5723 44.214 88.044 37.4999C87.5215 30.7857 90.494 31.115 88.613 27.7886C86.7319 24.4623 90.0121 20.0085 81.4777 20.0085C72.9433 20.0085 67.2943 31.6452 67.2072 35.8367C67.1201 40.0281 68.9605 42.9527 67.2072 46.2121C65.4539 49.4715 59.9849 56.7158 59.7178 60.0422C59.0908 67.9898 59.7236 80.9214 59.7236 88.2383H47.7173C47.7173 79.727 47.7754 71.372 47.7754 62.9221L47.7696 62.9109Z" fill="url(#paint1_linear_1244_53799)"/>
<path fill-rule="evenodd" clip-rule="evenodd" d="M90.5463 22.3244C92.7466 25.5224 94.1284 29.3344 95.9572 31.2208C100.596 36.0095 103.4 40.1339 104.451 44.6547C104.718 45.7932 105.136 47.2778 105.624 48.9131C104.155 45.5142 101.531 43.5775 99.7542 41.4399C97.5422 38.7777 94.2213 33.9947 94.1516 30.7353C94.0878 27.6935 90.9643 22.9328 90.5521 22.3188L90.5463 22.3244ZM106.46 51.6925L106.826 52.8981C106.686 52.6413 106.564 52.2451 106.46 51.6925Z" fill="#555555"/>
<path fill-rule="evenodd" clip-rule="evenodd" d="M88.1253 26.5718L88.1079 26.4937C88.1079 26.4937 88.1253 26.5439 88.1253 26.5718ZM87.9859 25.8853C87.5215 22.9775 88.4504 19.9972 81.4661 19.9972C78.3949 19.9972 75.701 21.5041 73.5006 23.6249C73.5006 23.6249 74.8766 20.8288 79.5154 19.5619C84.1484 18.3005 87.9918 20.226 88.3691 21.3255C88.7001 22.2743 87.8931 24.4733 87.9859 25.8853Z" fill="#333333"/>
<path fill-rule="evenodd" clip-rule="evenodd" d="M109.183 78.365C109.148 81.6635 109.107 84.9619 109.107 88.2213H97.101C97.101 87.0828 97.1416 83.9685 97.1416 80.0728C97.757 81.5016 99.0865 83.2653 101.984 83.935C106.123 84.8894 108.387 80.7091 109.189 78.365H109.183Z" fill="url(#paint2_linear_1244_53799)"/>
<path fill-rule="evenodd" clip-rule="evenodd" d="M59.5785 79.5593C59.6481 82.802 59.7178 85.8158 59.7178 88.2269H47.7115C47.7115 85.2298 47.7174 82.2495 47.729 79.2803C48.1644 80.7649 49.3894 83.1424 52.8554 83.9406C56.3505 84.7498 58.5102 81.8867 59.5843 79.5649L59.5785 79.5593Z" fill="url(#paint3_linear_1244_53799)"/>
<path fill-rule="evenodd" clip-rule="evenodd" d="M48.5069 78.5323C48.1644 78.5323 48.1644 79.0346 48.5069 79.0346H49.552C49.8945 79.0346 49.8945 78.5267 49.552 78.5267H48.5069V78.5323ZM57.3955 79.0067C57.7381 79.0067 57.7381 78.5044 57.3955 78.5044H56.3505C56.0079 78.5044 56.0079 79.0123 56.3505 79.0123H57.3955V79.0067ZM54.7829 79.0067C55.1255 79.0067 55.1255 78.5044 54.7829 78.5044H53.7379C53.3954 78.5044 53.3954 79.0123 53.7379 79.0123H54.7829V79.0067ZM52.1704 79.0067C52.5129 79.0067 52.5129 78.5044 52.1704 78.5044H51.1253C50.7828 78.5044 50.7828 79.0123 51.1253 79.0123H52.1704V79.0067Z" fill="black"/>
<path fill-rule="evenodd" clip-rule="evenodd" d="M48.5069 86.5301C48.1644 86.5301 48.1644 87.0324 48.5069 87.0324H49.552C49.8945 87.0324 49.8945 86.5245 49.552 86.5245H48.5069V86.5301ZM57.3955 87.0045C57.7381 87.0045 57.7381 86.5022 57.3955 86.5022H56.3505C56.0079 86.5022 56.0079 87.0101 56.3505 87.0101H57.3955V87.0045ZM54.7829 87.0045C55.1255 87.0045 55.1255 86.5022 54.7829 86.5022H53.7379C53.3954 86.5022 53.3954 87.0101 53.7379 87.0101H54.7829V87.0045ZM52.1704 87.0045C52.5129 87.0045 52.5129 86.5022 52.1704 86.5022H51.1253C50.7828 86.5022 50.7828 87.0101 51.1253 87.0101H52.1704V87.0045Z" fill="black"/>
<path fill-rule="evenodd" clip-rule="evenodd" d="M98.6395 78.5323C98.2969 78.5323 98.2969 79.0346 98.6395 79.0346H99.6845C100.027 79.0346 100.027 78.5267 99.6845 78.5267H98.6395V78.5323ZM107.528 79.0067C107.871 79.0067 107.871 78.5044 107.528 78.5044H106.483C106.14 78.5044 106.14 79.0123 106.483 79.0123H107.528V79.0067ZM104.915 79.0067C105.258 79.0067 105.258 78.5044 104.915 78.5044H103.87C103.528 78.5044 103.528 79.0123 103.87 79.0123H104.915V79.0067ZM102.303 79.0067C102.645 79.0067 102.645 78.5044 102.303 78.5044H101.258C100.915 78.5044 100.915 79.0123 101.258 79.0123H102.303V79.0067Z" fill="black"/>
<path fill-rule="evenodd" clip-rule="evenodd" d="M98.6395 86.5301C98.2969 86.5301 98.2969 87.0324 98.6395 87.0324H99.6845C100.027 87.0324 100.027 86.5245 99.6845 86.5245H98.6395V86.5301ZM107.528 87.0045C107.871 87.0045 107.871 86.5022 107.528 86.5022H106.483C106.14 86.5022 106.14 87.0101 106.483 87.0101H107.528V87.0045ZM104.915 87.0045C105.258 87.0045 105.258 86.5022 104.915 86.5022H103.87C103.528 86.5022 103.528 87.0101 103.87 87.0101H104.915V87.0045ZM102.303 87.0045C102.645 87.0045 102.645 86.5022 102.303 86.5022H101.258C100.915 86.5022 100.915 87.0101 101.258 87.0101H102.303V87.0045Z" fill="black"/>
<path fill-rule="evenodd" clip-rule="evenodd" d="M65.6222 32.6328C65.6222 32.6328 63.2012 37.0866 61.2621 40.413C59.323 43.7393 56.0079 48.9912 54.899 48.595C53.7902 48.1987 56.5595 43.0752 58.9108 40.2846C61.2621 37.494 65.6222 32.6384 65.6222 32.6384V32.6328Z" fill="#555555"/>
<path fill-rule="evenodd" clip-rule="evenodd" d="M65.9009 38.0188C65.9009 38.0188 65.6919 42.4056 65.1404 44.9339C64.5888 47.4621 63.6193 48.8574 62.371 49.5886C61.1286 50.3197 61.7498 46.798 63.1316 44.2027C64.5133 41.6075 65.9009 38.0188 65.9009 38.0188Z" fill="#555555"/>
<path opacity="0.5" fill-rule="evenodd" clip-rule="evenodd" d="M50.2893 57.4133C51.5027 57.4077 53.645 57.8319 55.3751 57.6031C57.1052 57.3742 58.905 57.3854 58.5915 58.976C58.278 60.5667 58.8411 60.5946 55.9325 61.6941C53.0238 62.7935 50.15 62.8103 49.5636 61.6941C48.9772 60.5778 48.6695 57.1733 50.2893 57.4189V57.4133Z" fill="#808080"/>
<path opacity="0.5" fill-rule="evenodd" clip-rule="evenodd" d="M50.7828 58.764C51.8278 58.764 53.674 58.9593 55.1661 58.8533C56.6582 58.7472 58.2083 58.7528 57.9413 59.5007C57.6742 60.2485 58.1561 60.2597 55.648 60.7788C53.1399 61.2978 50.6667 61.3034 50.1616 60.7788C49.6565 60.2541 49.3952 58.6523 50.7886 58.7695L50.7828 58.764Z" fill="#808080"/>
<path opacity="0.5" fill-rule="evenodd" clip-rule="evenodd" d="M106.129 57.4133C104.915 57.4077 102.773 57.8319 101.043 57.6031C99.3129 57.3742 97.5132 57.3854 97.8267 58.976C98.1402 60.5667 97.577 60.5946 100.486 61.6941C103.394 62.7935 106.268 62.8103 106.855 61.6941C107.441 60.5778 107.749 57.1733 106.129 57.4189V57.4133Z" fill="#808080"/>
<path opacity="0.5" fill-rule="evenodd" clip-rule="evenodd" d="M105.635 58.764C104.59 58.764 102.744 58.9593 101.252 58.8533C99.76 58.7472 98.2099 58.7528 98.4827 59.5007C98.7498 60.2485 98.2679 60.2597 100.776 60.7788C103.284 61.2978 105.757 61.3034 106.262 60.7788C106.768 60.2541 107.035 58.6523 105.635 58.7695V58.764Z" fill="#808080"/>
<path fill-rule="evenodd" clip-rule="evenodd" d="M73.3845 22.1347C73.3845 22.1347 76.5544 19.372 80.5256 18.9087C84.4909 18.4455 85.9772 19.372 86.4939 19.3943C87.0106 19.4166 83.8523 15.8224 78.5052 17.7255C73.1581 19.6287 71.3351 23.1169 73.3903 22.1347H73.3845Z" fill="#696969"/>
<path fill-rule="evenodd" clip-rule="evenodd" d="M89.6464 25.6843C90.1283 26.8787 91.3068 28.3465 91.2372 30.339C91.1675 32.3315 89.9947 36.9918 91.5855 41.1107C93.1763 45.2352 95.7366 49.7559 95.7366 51.4861C95.7366 53.2162 88.9555 43.3041 89.0252 38.2531C89.0948 33.1966 91.034 30.7074 89.6464 25.6843Z" fill="#555555"/>
<path fill-rule="evenodd" clip-rule="evenodd" d="M5.17872 115.519C4.28463 118.326 3.55311 120.732 4.08143 121.44C4.27883 121.703 14.6827 117.238 18.1197 116.105C21.5219 114.989 25.133 113.8 28.9126 113.504C32.7444 113.208 38.3411 114.542 45.517 116.256C57.5058 119.119 74.3483 123.137 91.2023 121.502C99.0343 120.743 135.012 118.661 145.283 113.275C146.392 112.689 147.21 112.07 147.646 111.405C148.894 109.519 149.306 107.158 149.312 104.909C149.637 103.497 149.858 101.923 149.893 100.198C151.001 102.543 152.168 106.187 151.965 110.931C151.054 132.34 106.733 130.063 92.2183 131.475C73.5703 133.284 55.7177 129.025 43.0205 125.995C36.791 124.504 31.9257 123.349 29.7254 123.517C27.2231 123.712 24.2564 124.689 21.4638 125.604C14.9556 127.742 9.06856 129.678 4.52847 125.576C2.2294 121.803 5.17291 115.519 5.17291 115.519H5.17872Z" fill="url(#paint4_linear_1244_53799)"/>
<path fill-rule="evenodd" clip-rule="evenodd" d="M137.776 115.826C140.882 115.072 143.489 114.23 145.294 113.281C146.403 112.695 147.222 112.075 147.657 111.411C148.906 109.525 149.318 107.164 149.324 104.915C149.649 103.503 149.869 101.929 149.904 100.204C150.723 101.934 151.57 104.373 151.878 107.437C151.228 109.273 150.363 111.02 149.26 112.064C146.525 114.659 137.77 115.831 137.77 115.831L137.776 115.826Z" fill="#4E4E4E"/>
<path fill-rule="evenodd" clip-rule="evenodd" d="M50.0687 116.01L45.0874 125.487C44.6868 126.246 44.6519 127.094 44.9074 127.842C45.1628 128.601 45.7202 129.26 46.5098 129.645L49.8945 131.286C50.6841 131.671 51.5665 131.704 52.3503 131.459C53.1341 131.207 53.8192 130.677 54.2198 129.918L59.2011 120.441C59.6017 119.682 59.6365 118.834 59.3811 118.081C59.1256 117.322 58.5683 116.663 57.7787 116.278L54.3939 114.637C53.6044 114.252 52.7219 114.218 51.9439 114.464C51.1602 114.715 50.4751 115.245 50.0745 116.004L50.0687 116.01ZM46.9568 126.397L51.9381 116.92C52.0775 116.657 52.3155 116.468 52.5884 116.378C52.8612 116.295 53.1689 116.306 53.4418 116.44L56.8265 118.081C57.0994 118.215 57.2968 118.443 57.3897 118.706C57.4768 118.974 57.4652 119.269 57.3258 119.532L52.3445 129.009C52.2052 129.271 51.9671 129.461 51.6943 129.55C51.4214 129.634 51.1137 129.622 50.8408 129.488L47.4561 127.848C47.1832 127.714 46.9858 127.485 46.8929 127.223C46.8058 126.955 46.8175 126.659 46.9568 126.397Z" fill="#989898"/>
<path fill-rule="evenodd" clip-rule="evenodd" d="M51.5259 116.518C51.7001 116.189 51.5607 115.781 51.2182 115.614C50.8757 115.446 50.4518 115.58 50.2777 115.91L45.4009 125.185C44.5184 126.86 44.768 128.674 46.7942 129.611C47.1426 129.773 47.5548 129.634 47.7232 129.299C47.8915 128.964 47.7464 128.568 47.398 128.406C46.1034 127.809 46.2949 126.609 46.3646 126.33L51.5259 116.512V116.518Z" fill="#B2B2B2"/>
<path fill-rule="evenodd" clip-rule="evenodd" d="M51.7814 117.215L46.9568 126.391C46.8175 126.659 46.8 126.949 46.8929 127.211C46.9045 127.25 46.9162 127.278 46.9336 127.312C48.6347 127.965 50.3706 128.629 52.1239 129.299C52.211 129.215 52.2923 129.12 52.3503 129.008L57.3317 119.532C57.3781 119.442 57.4129 119.347 57.4303 119.247C57.4652 119.063 57.4536 118.879 57.3955 118.706C57.3026 118.438 57.111 118.209 56.8382 118.075L53.4534 116.434C53.1806 116.3 52.8728 116.283 52.6 116.373C52.3271 116.462 52.0891 116.646 51.9497 116.914L51.793 117.215H51.7814Z" fill="url(#paint5_linear_1244_53799)"/>
<defs>
<linearGradient id="paint0_linear_1244_53799" x1="21.8586" y1="96.6153" x2="4.60956" y2="95.4863" gradientUnits="userSpaceOnUse">
<stop stop-color="#151A1D"/>
<stop offset="0.5" stop-color="#383C3D"/>
<stop offset="1"/>
</linearGradient>
<linearGradient id="paint1_linear_1244_53799" x1="80.1192" y1="29.3793" x2="78.3216" y2="82.7514" gradientUnits="userSpaceOnUse">
<stop stop-color="#4B4E4F"/>
<stop offset="0.45" stop-color="#5C5F60"/>
<stop offset="1" stop-color="#2A2E30"/>
</linearGradient>
<linearGradient id="paint2_linear_1244_53799" x1="102.32" y1="72.2759" x2="103.405" y2="88.0656" gradientUnits="userSpaceOnUse">
<stop stop-color="#7B7E7F"/>
<stop offset="0.33" stop-color="#47484B"/>
<stop offset="0.62" stop-color="#202125"/>
<stop offset="0.86" stop-color="#08080D"/>
<stop offset="1" stop-color="#000005"/>
</linearGradient>
<linearGradient id="paint3_linear_1244_53799" x1="52.867" y1="72.4936" x2="53.8438" y2="88.0477" gradientUnits="userSpaceOnUse">
<stop stop-color="#7B7E7F"/>
<stop offset="0.33" stop-color="#47484B"/>
<stop offset="0.62" stop-color="#202125"/>
<stop offset="0.86" stop-color="#08080D"/>
<stop offset="1" stop-color="#000005"/>
</linearGradient>
<linearGradient id="paint4_linear_1244_53799" x1="107.267" y1="124.091" x2="29.0938" y2="93.6053" gradientUnits="userSpaceOnUse">
<stop stop-color="#151A1D"/>
<stop offset="0.5" stop-color="#383C3D"/>
<stop offset="1"/>
</linearGradient>
<linearGradient id="paint5_linear_1244_53799" x1="53.8308" y1="123.522" x2="50.3699" y2="121.826" gradientUnits="userSpaceOnUse">
<stop stop-color="#151A1D"/>
<stop offset="0.45" stop-color="#383C3D"/>
<stop offset="1"/>
</linearGradient>
</defs>
</svg>
