<svg width="174" height="186" viewBox="0 0 174 186" fill="none" xmlns="http://www.w3.org/2000/svg">
<g opacity="0.5">
<path d="M173.231 151.549L116.237 15.1961C115.135 12.5588 112.112 11.311 109.484 12.4091L44.1995 39.6974C41.5723 40.7956 40.3362 43.8238 41.4386 46.4611L98.4325 182.814C99.5349 185.451 102.558 186.699 105.185 185.601L170.47 158.313C173.098 157.215 174.334 154.186 173.231 151.549Z" fill="#727272"/>
<path d="M51.308 70.0729L41.4386 46.4611C40.3362 43.8238 41.5723 40.7956 44.1995 39.6974L109.484 12.4091C112.112 11.311 115.135 12.5588 116.237 15.1961L126.107 38.808L51.308 70.0729Z" fill="#9AE343"/>
<path d="M126.352 39.3943L125.99 38.5289L124.697 39.0694L125.059 39.9347L126.352 39.3943Z" fill="white"/>
<path d="M55.5194 68.9994L55.1577 68.1341L57.8331 67.0158L58.1948 67.8811L55.5194 68.9994ZM60.8687 66.7634L60.507 65.8981L63.1824 64.7798L63.5441 65.6452L60.8687 66.7634ZM66.2181 64.5275L65.8564 63.6621L68.5303 62.5444L68.8921 63.4098L66.2181 64.5275ZM71.5675 62.2915L71.2057 61.4262L73.8797 60.3085L74.2414 61.1738L71.5675 62.2915ZM76.9168 60.0555L76.5551 59.1902L79.2291 58.0725L79.5908 58.9379L76.9168 60.0555ZM82.2662 57.8196L81.9045 56.9542L84.5784 55.8365L84.9401 56.7019L82.2662 57.8196ZM87.6155 55.5836L87.2538 54.7183L89.9278 53.6006L90.2895 54.4659L87.6155 55.5836ZM92.9649 53.3476L92.6032 52.4823L95.2771 51.3646L95.6388 52.23L92.9649 53.3476ZM98.3142 51.1117L97.9525 50.2463L100.626 49.1286L100.988 49.994L98.3142 51.1117ZM103.664 48.8757L103.302 48.0104L105.976 46.8927L106.338 47.758L103.664 48.8757ZM109.013 46.6397L108.651 45.7744L111.325 44.6567L111.687 45.5221L109.013 46.6397ZM114.362 44.4038L114.001 43.5384L116.675 42.4207L117.036 43.2861L114.362 44.4038ZM119.712 42.1678L119.35 41.3025L122.024 40.1848L122.386 41.0501L119.712 42.1678Z" fill="white"/>
<path d="M52.846 70.1185L52.4843 69.2532L51.1913 69.7937L51.553 70.659L52.846 70.1185Z" fill="white"/>
<path d="M126.026 67.0582L112.573 72.6816C112.511 72.7075 112.43 72.7138 112.333 72.6986C112.273 72.6861 112.223 72.6341 112.183 72.54L110.654 68.8818C110.615 68.7878 110.612 68.7159 110.646 68.6642C110.705 68.5853 110.764 68.5318 110.827 68.5053L115.358 66.6116L112.594 59.9999L108.064 61.8936C108.002 61.9196 107.921 61.9259 107.823 61.9107C107.764 61.8982 107.713 61.8462 107.674 61.7521L106.145 58.0939C106.106 57.9999 106.103 57.928 106.137 57.8763C106.196 57.7974 106.254 57.7439 106.318 57.7174L119.771 52.094C119.833 52.0681 119.914 52.0618 120.011 52.077C120.093 52.0974 120.15 52.1464 120.184 52.2259L121.713 55.8841C121.745 55.9623 121.74 56.0378 121.698 56.1114C121.639 56.1903 121.579 56.2444 121.517 56.2703L116.145 58.5159L118.908 65.1276L124.281 62.882C124.342 62.856 124.423 62.8497 124.521 62.8649C124.602 62.8853 124.66 62.9343 124.693 63.0138L126.222 66.672C126.255 66.7502 126.249 66.8257 126.207 66.8993C126.148 66.9782 126.088 67.0323 126.026 67.0582Z" fill="white"/>
<path d="M118.32 86.3635L119.602 85.029L117.034 78.8862L115.184 78.8604C114.943 78.8507 114.772 78.73 114.674 78.4956L113.028 74.5566C112.975 74.4307 113.004 74.3456 113.112 74.3004C113.158 74.2812 113.265 74.2724 113.431 74.2776L129.637 74.9118L131.284 78.8507L120.35 90.8306C120.267 90.9386 120.188 91.009 120.11 91.0416C120 91.0874 119.921 91.0474 119.868 90.9215L118.222 86.9826C118.124 86.7482 118.156 86.5425 118.32 86.3635ZM122.647 78.9912L120.959 78.9541L122.311 82.1898L123.471 80.9621L125.751 78.9347L125.693 78.7943C124.349 78.9512 123.334 79.0185 122.648 78.9926L122.647 78.9912Z" fill="white"/>
<path d="M136.101 91.1606L125.893 95.4271L128.48 101.616C128.506 101.678 128.497 101.766 128.452 101.876C128.407 101.987 128.353 102.056 128.291 102.081L125.395 103.292C125.317 103.324 125.233 103.322 125.145 103.286C125.057 103.249 124.995 103.192 124.963 103.114L120.729 92.9842C120.689 92.8902 120.687 92.8183 120.721 92.7666C120.779 92.6863 120.838 92.6342 120.902 92.6077L134.355 86.9843C134.417 86.9584 134.497 86.9521 134.595 86.9673C134.676 86.9877 134.734 87.0367 134.767 87.1162L136.297 90.7744C136.329 90.8526 136.323 90.9281 136.281 91.0017C136.223 91.0806 136.163 91.1347 136.101 91.1606Z" fill="white"/>
<path d="M127.493 109.163L125.889 105.455C125.856 105.377 125.853 105.305 125.881 105.237C125.939 105.158 126 105.104 126.062 105.078L139.515 99.4551C139.577 99.4291 139.657 99.4228 139.755 99.438C139.837 99.4584 139.894 99.5074 139.928 99.587L144.456 110.42C144.482 110.482 144.472 110.569 144.427 110.68C144.382 110.79 144.328 110.859 144.266 110.885L141.37 112.095C141.292 112.128 141.208 112.126 141.12 112.089C141.009 112.044 140.941 111.989 140.915 111.927L138.033 105.033L135.581 106.058L138.208 112.341C138.24 112.419 138.238 112.503 138.202 112.592C138.157 112.702 138.103 112.771 138.041 112.797L135.285 113.949C135.207 113.981 135.123 113.979 135.035 113.943C134.947 113.906 134.886 113.849 134.853 113.771L132.227 107.487L127.906 109.293C127.829 109.326 127.748 109.332 127.666 109.31C127.585 109.29 127.527 109.239 127.494 109.161L127.493 109.163Z" fill="white"/>
<path d="M86.396 70.568L84.8438 66.9194C84.8111 66.8413 84.8082 66.7694 84.8358 66.7018C84.8784 66.6295 84.9388 66.5754 85.0166 66.5429L98.47 60.9195C98.5479 60.887 98.6267 60.8812 98.7101 60.9025C98.7915 60.9229 98.8492 60.9718 98.8824 61.0514L101.47 67.242C102.209 69.0089 102.307 70.647 101.769 72.1574C101.221 73.6902 100.143 74.7916 98.5405 75.4616C96.9375 76.1316 95.4006 76.1127 93.9815 75.3834C92.5676 74.6705 91.4958 73.4391 90.7639 71.6881L89.8234 69.4379L86.8107 70.6972C86.7328 70.7297 86.6525 70.7361 86.5706 70.7143C86.4892 70.6939 86.4309 70.6434 86.3988 70.5667L86.396 70.568ZM97.694 68.3239L96.9064 66.5045L93.0533 68.115L93.8179 69.9441C94.0858 70.5852 94.4799 71.0256 95.0021 71.2663C95.5163 71.4917 96.0619 71.4846 96.6385 71.2436C97.2151 71.0026 97.6035 70.6192 97.8044 70.095C97.9986 69.5549 97.9628 68.963 97.6955 68.3233L97.694 68.3239Z" fill="white"/>
<path d="M91.007 80.8135L104.451 75.167C104.513 75.1411 104.593 75.1347 104.691 75.15C104.772 75.1704 104.83 75.2193 104.863 75.2975L107.803 82.3317C108.541 84.0985 108.663 85.7271 108.172 87.2175C107.67 88.7311 106.64 89.8126 105.084 90.4633C103.153 91.2701 101.372 90.949 99.7431 89.4998L99.697 89.519C99.5355 89.7888 99.341 90.0894 99.115 90.4236L96.7506 93.8903C96.6409 94.0653 96.5471 94.1691 96.4693 94.2017C96.3597 94.2475 96.2737 94.1916 96.2084 94.0353L94.4053 89.7216C94.3334 89.5494 94.3391 89.4093 94.4212 89.3019L97.1213 85.3906L96.3277 83.492L92.7543 84.9857C92.6923 85.0116 92.612 85.018 92.5142 85.0027C92.4547 84.9902 92.4042 84.9382 92.3649 84.8441L90.8358 81.1859C90.7965 81.0919 90.7936 81.02 90.8278 80.9683C90.8863 80.8895 90.9452 80.8359 91.0087 80.8094L91.007 80.8135ZM104.081 83.4743L102.921 80.7649L99.6275 82.1417L100.764 84.8607C101.032 85.5017 101.403 85.9518 101.878 86.2124C102.346 86.457 102.821 86.4795 103.304 86.2776C103.786 86.0758 104.104 85.722 104.259 85.217C104.407 84.6962 104.347 84.1159 104.079 83.4749L104.081 83.4743Z" fill="white"/>
<path d="M112.644 94.769L99.1907 100.392C99.1287 100.418 99.0484 100.425 98.9506 100.409C98.8912 100.397 98.8407 100.345 98.8014 100.251L97.2723 96.5927C97.233 96.4986 97.23 96.4267 97.2649 96.3765C97.3228 96.2962 97.3823 96.2441 97.4457 96.2176L110.899 90.5942C110.961 90.5683 111.041 90.562 111.139 90.5772C111.221 90.5976 111.278 90.6465 111.311 90.7247L112.84 94.3829C112.873 94.461 112.867 94.5365 112.825 94.6102C112.766 94.689 112.706 94.7431 112.644 94.769Z" fill="white"/>
<path d="M113.963 113.744L112.49 110.284C112.398 110.065 112.463 109.872 112.686 109.705C113.29 109.269 113.684 108.7 113.867 108C114.05 107.3 113.974 106.551 113.641 105.754C113.235 104.784 112.558 104.103 111.607 103.712C110.656 103.321 109.62 103.358 108.5 103.826C107.38 104.294 106.636 104.991 106.226 105.934C105.831 106.871 105.839 107.831 106.251 108.815C106.93 110.441 108.036 111.163 109.57 110.981C109.846 110.939 110.039 111.052 110.149 111.317L111.551 114.669C111.669 114.952 111.618 115.138 111.4 115.229C109.889 115.86 108.3 115.753 106.63 114.909C104.982 114.073 103.688 112.53 102.748 110.28C101.807 108.029 101.731 105.967 102.463 103.954C103.204 101.919 104.625 100.462 106.727 99.5833C108.828 98.7048 110.835 98.738 112.842 99.643C114.848 100.549 116.306 102.088 117.214 104.26C118.122 106.432 118.289 108.429 117.714 110.249C117.145 112.084 116.076 113.33 114.503 113.988C114.254 114.092 114.074 114.011 113.964 113.746L113.963 113.744Z" fill="white"/>
<path d="M116.942 128.419L113.985 121.475L112.117 122.256L115.331 129.945C115.357 130.007 115.348 130.095 115.303 130.205C115.258 130.316 115.204 130.385 115.142 130.411L112.246 131.621C112.168 131.654 112.084 131.651 111.996 131.615C111.907 131.577 111.846 131.521 111.814 131.443L106.953 119.813C106.92 119.735 106.917 119.663 106.945 119.595C106.987 119.521 107.048 119.469 107.125 119.436L120.579 113.813C120.657 113.78 120.735 113.775 120.819 113.796C120.9 113.816 120.958 113.865 120.991 113.945L125.813 125.481C125.839 125.543 125.83 125.63 125.785 125.741C125.74 125.852 125.685 125.92 125.623 125.946L122.727 127.156C122.649 127.189 122.565 127.187 122.477 127.15C122.367 127.105 122.298 127.05 122.272 126.988L119.097 119.391L117.369 120.113L120.25 127.006C120.276 127.068 120.266 127.155 120.221 127.266C120.176 127.376 120.122 127.445 120.06 127.471L117.397 128.584C117.319 128.616 117.235 128.614 117.147 128.578C117.037 128.532 116.968 128.477 116.942 128.415L116.942 128.419Z" fill="white"/>
<path d="M77.4332 86.0758L75.9597 82.6154C75.8683 82.3969 75.933 82.2033 76.1564 82.0368C76.7599 81.601 77.1536 81.0318 77.3367 80.3314C77.5198 79.6311 77.444 78.8825 77.1107 78.0852C76.7054 77.1156 76.028 76.4349 75.0771 76.0437C74.1255 75.6509 73.0901 75.6894 71.97 76.1575C70.85 76.6257 70.1065 77.3223 69.6964 78.2655C69.3008 79.2026 69.3093 80.1629 69.7206 81.1469C70.3998 82.772 71.5061 83.4944 73.0403 83.3121C73.3157 83.2701 73.5086 83.3832 73.6193 83.6481L75.0208 87.0009C75.1381 87.2816 75.0878 87.4693 74.8702 87.5602C73.3595 88.1917 71.7688 88.0848 70.1002 87.2405C68.452 86.4046 67.1583 84.8613 66.2178 82.6111C65.2772 80.3609 65.2009 78.2985 65.9328 76.2859C66.6738 74.2508 68.0949 72.7932 70.1966 71.9147C72.2983 71.0363 74.3052 71.0694 76.3125 71.9745C78.3183 72.8802 79.7762 74.4195 80.6841 76.5915C81.592 78.7636 81.7596 80.7606 81.1842 82.5803C80.6154 84.4159 79.5461 85.6618 77.9735 86.3192C77.7241 86.4234 77.5445 86.3421 77.4338 86.0773L77.4332 86.0758Z" fill="white"/>
<path d="M87.6128 93.1677C88.5473 95.4034 88.6767 97.5524 88.0032 99.6154C87.3363 101.694 85.9034 103.192 83.7081 104.11C81.5127 105.028 79.4443 105.002 77.5016 104.032C75.5813 103.072 74.1516 101.467 73.2105 99.2149C72.2693 96.9632 72.1312 94.8179 72.7976 92.7783C73.4711 90.7153 74.907 89.2243 77.1024 88.3067C79.2978 87.389 81.3692 87.4225 83.3186 88.4078C85.2599 89.3779 86.6982 90.9797 87.6327 93.2154L87.6128 93.1677ZM84.0624 94.6517L84.0163 94.671C83.5916 93.6551 82.8943 92.9267 81.924 92.4891C80.9531 92.0501 79.9166 92.0618 78.811 92.5239C77.7053 92.986 76.9674 93.7161 76.5992 94.7148C76.2295 95.7142 76.2574 96.7208 76.682 97.7366C77.1066 98.7525 77.8059 99.4614 78.7979 99.9103C79.7674 100.35 80.8053 100.338 81.9109 99.8755C83.0166 99.4134 83.7539 98.6819 84.1227 97.6846C84.5002 96.6633 84.4809 95.6531 84.0624 94.6517Z" fill="white"/>
<path d="M88.8356 116.702L95.5833 113.743C95.6611 113.711 95.743 113.712 95.833 113.75C95.921 113.786 95.9824 113.843 96.015 113.922L97.5441 117.58C97.5768 117.658 97.5741 117.741 97.5387 117.83C97.5027 117.918 97.4454 117.98 97.3676 118.012L90.4773 120.892C88.2041 121.843 86.178 121.918 84.3984 121.12C82.6488 120.345 81.2826 118.786 80.3027 116.442C79.3228 114.097 79.1851 112.042 79.8742 110.231C80.571 108.398 82.0406 107.012 84.2821 106.075L91.1724 103.195C91.2502 103.162 91.3327 103.165 91.4222 103.201C91.5102 103.237 91.5715 103.295 91.6042 103.373L93.1326 107.03C93.1653 107.108 93.1632 107.192 93.1273 107.28C93.0913 107.368 93.034 107.43 92.9561 107.462L86.1365 110.313C84.953 110.808 84.1758 111.464 83.8036 112.279C83.432 113.096 83.4545 114.004 83.8724 115.004C84.2904 116.004 84.9315 116.683 85.773 116.991C86.6535 117.303 87.6732 117.206 88.8356 116.702Z" fill="white"/>
<path d="M86.4006 130.305L84.8485 126.657C84.8158 126.579 84.8129 126.507 84.8405 126.439C84.8831 126.367 84.9435 126.313 85.0213 126.28L98.4747 120.657C98.5525 120.624 98.6314 120.619 98.7148 120.64C98.7961 120.66 98.8539 120.709 98.8871 120.789L101.475 126.979C102.213 128.746 102.312 130.384 101.773 131.895C101.225 133.428 100.148 134.529 98.5451 135.199C96.9422 135.869 95.4053 135.85 93.9862 135.121C92.5723 134.408 91.5005 133.176 90.7686 131.425L89.828 129.175L86.8153 130.435C86.7375 130.467 86.6572 130.473 86.5752 130.452C86.4939 130.431 86.4356 130.381 86.4035 130.304L86.4006 130.305ZM97.6987 128.061L96.9111 126.242L93.058 127.852L93.8225 129.682C94.0905 130.323 94.4846 130.763 95.0068 131.004C95.521 131.229 96.0666 131.222 96.6432 130.981C97.2198 130.74 97.6082 130.357 97.8091 129.832C98.0032 129.292 97.9675 128.7 97.7001 128.061L97.6987 128.061Z" fill="white"/>
<path d="M107.997 141.935C108.932 144.171 109.061 146.32 108.388 148.383C107.721 150.462 106.288 151.96 104.092 152.878C101.897 153.795 99.8286 153.769 97.8859 152.8C95.9656 151.84 94.5359 150.234 93.5948 147.983C92.6536 145.731 92.5155 143.586 93.1819 141.546C93.8554 139.483 95.2913 137.992 97.4867 137.074C99.6821 136.157 101.753 136.19 103.703 137.176C105.644 138.146 107.083 139.747 108.017 141.983L107.997 141.935ZM104.447 143.419L104.401 143.439C103.976 142.423 103.279 141.694 102.308 141.257C101.337 140.818 100.301 140.829 99.1953 141.292C98.0897 141.754 97.3517 142.484 96.9835 143.483C96.6138 144.482 96.6417 145.488 97.0663 146.504C97.4909 147.52 98.1902 148.229 99.1822 148.678C100.152 149.118 101.19 149.105 102.295 148.643C103.401 148.181 104.138 147.45 104.507 146.452C104.884 145.431 104.865 144.421 104.447 143.419Z" fill="white"/>
<path d="M102.777 169.483L106.273 161.108L107.273 159.038L107.234 158.944L99.9704 161.98C99.9085 162.006 99.8282 162.012 99.7303 161.997C99.6709 161.984 99.6204 161.932 99.5811 161.838L98.0526 158.182C98.0133 158.088 98.0104 158.016 98.0446 157.964C98.1025 157.884 98.162 157.832 98.2254 157.805L111.679 152.182C111.741 152.156 111.821 152.15 111.919 152.165C112 152.185 112.058 152.234 112.091 152.314L113.414 155.478L109.86 164.042L108.95 165.937L108.98 166.008L116.22 162.982C116.298 162.949 116.378 162.943 116.46 162.965C116.542 162.987 116.6 163.036 116.633 163.114L118.162 166.772C118.194 166.85 118.189 166.925 118.146 166.998C118.104 167.071 118.043 167.124 117.965 167.157L104.512 172.78C104.434 172.812 104.354 172.819 104.272 172.797C104.19 172.777 104.132 172.726 104.1 172.649L102.777 169.483Z" fill="white"/>
<path d="M157.353 141.782C157.37 141.775 157.385 141.774 157.399 141.778C157.415 141.785 157.426 141.796 157.433 141.812L158.499 144.363C158.505 144.377 158.505 144.393 158.498 144.409C158.492 144.425 158.481 144.437 158.465 144.443L157.376 144.899C156.963 145.071 156.574 145.091 156.205 144.962C155.831 144.83 155.56 144.563 155.393 144.162C155.225 143.761 155.213 143.379 155.362 143.036C155.515 142.692 155.813 142.426 156.257 142.24L157.353 141.782ZM157.232 144.554L157.979 144.237L157.15 142.253L156.388 142.572C156.049 142.713 155.831 142.908 155.731 143.159C155.633 143.411 155.647 143.692 155.775 143.999C155.903 144.306 156.101 144.507 156.37 144.603C156.638 144.699 156.925 144.684 157.231 144.556L157.232 144.554Z" fill="white"/>
<path d="M152.221 143.995L152.664 144.386L154.133 143.772L154.17 143.181C154.173 143.147 154.179 143.126 154.185 143.116C154.194 143.106 154.212 143.095 154.239 143.084L154.526 142.964C154.552 142.953 154.571 142.957 154.579 142.977L154.58 143.04L154.358 146.155L154.2 146.221L151.827 144.191L151.783 144.146C151.774 144.126 151.783 144.11 151.809 144.099L152.139 143.961C152.148 143.958 152.158 143.959 152.17 143.964C152.183 143.969 152.199 143.979 152.22 143.996L152.221 143.995ZM154.045 145.038L154.103 144.183L152.97 144.656L153.619 145.216C153.639 145.232 153.691 145.281 153.778 145.364C153.83 145.415 153.889 145.474 153.951 145.541L154.026 145.619L154.052 145.608C154.038 145.368 154.036 145.178 154.047 145.037L154.045 145.038Z" fill="white"/>
<path d="M152.562 146.512C152.573 146.507 152.589 146.509 152.61 146.517C152.63 146.525 152.643 146.535 152.647 146.547L152.736 146.76C152.741 146.771 152.739 146.787 152.732 146.809C152.723 146.83 152.713 146.842 152.702 146.847L150.223 147.884C150.211 147.888 150.195 147.887 150.173 147.879C150.153 147.87 150.139 147.859 150.135 147.847L150.046 147.635C150.041 147.623 150.043 147.607 150.051 147.586C150.059 147.566 150.071 147.553 150.082 147.548L151.127 147.111L150.18 144.845C150.175 144.833 150.173 144.817 150.176 144.799C150.178 144.788 150.188 144.779 150.207 144.771L150.489 144.653C150.507 144.646 150.52 144.645 150.531 144.651C150.545 144.662 150.555 144.673 150.561 144.686L151.508 146.952L152.562 146.512Z" fill="white"/>
<path d="M147.191 147.446L148.687 146.81L148.324 145.942L146.647 146.643C146.636 146.648 146.62 146.646 146.599 146.637C146.579 146.629 146.566 146.619 146.561 146.606L146.472 146.393C146.467 146.382 146.468 146.364 146.477 146.344C146.483 146.327 146.494 146.316 146.508 146.31L148.519 145.469C148.531 145.465 148.545 145.464 148.565 145.466C148.581 145.472 148.593 145.483 148.599 145.499L149.665 148.049C149.671 148.063 149.671 148.079 149.665 148.096C149.658 148.113 149.647 148.124 149.631 148.131L147.664 148.953C147.652 148.958 147.636 148.956 147.614 148.948C147.594 148.94 147.581 148.928 147.576 148.917L147.487 148.704C147.482 148.692 147.484 148.676 147.492 148.656C147.501 148.635 147.511 148.623 147.524 148.617L149.155 147.935L148.83 147.157L147.331 147.783C147.319 147.788 147.303 147.786 147.283 147.778C147.262 147.77 147.25 147.759 147.244 147.746L147.155 147.534C147.15 147.522 147.152 147.506 147.161 147.486C147.169 147.465 147.179 147.452 147.19 147.448L147.191 147.446Z" fill="white"/>
<path d="M146.112 146.71C146.139 146.775 146.142 146.842 146.117 146.91C146.094 146.976 146.048 147.023 145.98 147.051C145.912 147.079 145.846 147.08 145.783 147.05C145.719 147.017 145.671 146.969 145.645 146.906C145.618 146.842 145.615 146.773 145.639 146.706C145.665 146.642 145.711 146.597 145.778 146.569C145.846 146.541 145.911 146.539 145.973 146.566C146.039 146.598 146.085 146.645 146.112 146.71ZM146.652 148.004C146.68 148.069 146.682 148.135 146.658 148.204C146.635 148.27 146.588 148.316 146.521 148.345C146.453 148.373 146.387 148.373 146.324 148.344C146.259 148.311 146.213 148.264 146.185 148.199C146.158 148.134 146.156 148.067 146.179 147.998C146.204 147.931 146.249 147.885 146.317 147.857C146.384 147.829 146.45 147.828 146.514 147.858C146.579 147.89 146.625 147.939 146.652 148.004Z" fill="white"/>
<path d="M144.106 150.493L143.018 147.852C143.013 147.841 143.015 147.825 143.023 147.803C143.031 147.782 143.041 147.77 143.052 147.765L143.309 147.657C143.32 147.653 143.336 147.654 143.358 147.662C143.379 147.671 143.391 147.681 143.397 147.694L144.217 149.655L144.227 149.655L144.61 148.922C144.615 148.91 144.629 148.899 144.649 148.891C144.669 148.882 144.687 148.88 144.698 148.886L144.903 148.992C144.915 148.997 144.925 149.012 144.93 149.033C144.934 149.059 144.935 149.076 144.93 149.081L144.22 150.444L144.106 150.491L144.106 150.493Z" fill="white"/>
<path d="M142.938 149.37C143.111 149.784 143.148 150.157 143.05 150.494C142.952 150.829 142.723 151.073 142.366 151.222C142.008 151.371 141.673 151.364 141.366 151.198C141.059 151.032 140.819 150.742 140.646 150.328C140.473 149.914 140.435 149.54 140.533 149.204C140.63 148.872 140.858 148.631 141.219 148.48C141.581 148.329 141.914 148.336 142.217 148.5C142.525 148.665 142.765 148.956 142.938 149.37ZM142.665 150.367C142.72 150.125 142.682 149.847 142.55 149.532C142.418 149.216 142.246 148.992 142.036 148.863C141.826 148.731 141.602 148.716 141.365 148.815C141.127 148.915 140.98 149.085 140.925 149.327C140.87 149.569 140.909 149.847 141.041 150.163C141.172 150.478 141.344 150.702 141.554 150.832C141.765 150.963 141.988 150.979 142.227 150.879C142.466 150.779 142.612 150.609 142.665 150.367Z" fill="white"/>
<path d="M139.707 149.387C139.734 149.452 139.737 149.519 139.713 149.587C139.688 149.654 139.643 149.7 139.575 149.728C139.508 149.756 139.442 149.757 139.378 149.727C139.313 149.695 139.267 149.646 139.24 149.583C139.214 149.519 139.21 149.451 139.235 149.383C139.26 149.319 139.306 149.274 139.374 149.246C139.442 149.218 139.507 149.216 139.569 149.243C139.635 149.275 139.68 149.322 139.707 149.387Z" fill="white"/>
<path d="M138.673 152.764L137.585 150.123C137.58 150.112 137.582 150.096 137.59 150.074C137.598 150.053 137.608 150.04 137.619 150.036L137.876 149.928C137.888 149.924 137.904 149.925 137.925 149.933C137.946 149.942 137.959 149.952 137.964 149.965L138.784 151.925L138.794 151.926L139.177 151.193C139.182 151.181 139.194 151.171 139.216 151.162C139.238 151.153 139.254 151.151 139.266 151.156L139.472 151.262C139.484 151.267 139.493 151.282 139.499 151.303C139.503 151.329 139.503 151.346 139.499 151.351L138.788 152.714L138.674 152.762L138.673 152.764Z" fill="white"/>
<path d="M137.503 151.641C137.676 152.055 137.714 152.429 137.616 152.765C137.517 153.101 137.289 153.344 136.931 153.494C136.574 153.643 136.239 153.635 135.932 153.469C135.624 153.304 135.384 153.013 135.211 152.599C135.038 152.185 135.001 151.812 135.099 151.475C135.196 151.144 135.423 150.903 135.785 150.751C136.147 150.6 136.48 150.607 136.782 150.771C137.09 150.937 137.33 151.227 137.503 151.641ZM137.231 152.639C137.286 152.397 137.247 152.119 137.115 151.803C136.984 151.488 136.812 151.264 136.602 151.134C136.391 151.003 136.168 150.987 135.93 151.087C135.692 151.186 135.545 151.356 135.491 151.599C135.436 151.841 135.474 152.119 135.606 152.434C135.738 152.75 135.91 152.974 136.12 153.104C136.33 153.235 136.553 153.25 136.793 153.15C137.032 153.05 137.178 152.88 137.231 152.639Z" fill="white"/>
<path d="M134.273 151.659C134.3 151.724 134.303 151.791 134.278 151.859C134.254 151.925 134.209 151.971 134.141 152C134.073 152.028 134.007 152.028 133.944 151.999C133.88 151.966 133.832 151.918 133.806 151.854C133.779 151.79 133.776 151.722 133.8 151.654C133.826 151.591 133.872 151.546 133.939 151.518C134.007 151.489 134.073 151.488 134.135 151.514C134.2 151.546 134.246 151.594 134.273 151.659Z" fill="white"/>
<path d="M133.251 151.856L133.372 152.134L132.45 153.497C132.215 153.848 132.149 154.154 132.258 154.415C132.327 154.58 132.442 154.688 132.601 154.739C132.765 154.792 132.949 154.776 133.155 154.689C133.594 154.506 133.723 154.2 133.544 153.772C133.523 153.721 133.534 153.688 133.579 153.669L133.84 153.56C133.883 153.542 133.912 153.547 133.925 153.577C134.053 153.884 134.07 154.163 133.974 154.415C133.877 154.67 133.65 154.873 133.294 155.022C132.938 155.171 132.661 155.187 132.405 155.091C132.148 154.998 131.967 154.824 131.861 154.569C131.781 154.38 131.766 154.182 131.814 153.975C131.861 153.768 131.979 153.527 132.165 153.252L132.531 152.713L132.742 152.484L132.734 152.467L131.265 153.081C131.254 153.086 131.238 153.084 131.216 153.076C131.196 153.067 131.183 153.057 131.178 153.046L131.089 152.833C131.083 152.819 131.083 152.803 131.09 152.787C131.098 152.766 131.11 152.753 131.121 152.748L133.252 151.858L133.251 151.856Z" fill="white"/>
<path d="M131.13 154.305C131.303 154.719 131.341 155.092 131.243 155.429C131.144 155.765 130.916 156.008 130.558 156.157C130.201 156.307 129.866 156.299 129.559 156.133C129.251 155.968 129.011 155.677 128.838 155.263C128.665 154.849 128.628 154.476 128.726 154.139C128.823 153.808 129.05 153.566 129.412 153.415C129.774 153.264 130.107 153.271 130.409 153.435C130.717 153.601 130.957 153.891 131.13 154.305ZM130.858 155.303C130.913 155.061 130.874 154.783 130.743 154.467C130.611 154.152 130.439 153.928 130.229 153.798C130.018 153.667 129.795 153.651 129.557 153.751C129.32 153.85 129.172 154.02 129.118 154.262C129.063 154.504 129.101 154.783 129.233 155.098C129.365 155.413 129.537 155.638 129.747 155.767C129.957 155.899 130.181 155.914 130.42 155.814C130.659 155.714 130.805 155.544 130.858 155.303Z" fill="white"/>
<path d="M127.84 154.118L127.961 154.396L127.039 155.759C126.803 156.11 126.738 156.416 126.847 156.677C126.916 156.842 127.031 156.95 127.189 157.001C127.353 157.053 127.538 157.037 127.744 156.951C128.182 156.768 128.312 156.462 128.133 156.034C128.112 155.983 128.123 155.95 128.168 155.931L128.429 155.822C128.472 155.804 128.501 155.809 128.514 155.839C128.642 156.146 128.658 156.425 128.562 156.677C128.466 156.932 128.239 157.135 127.883 157.284C127.527 157.433 127.249 157.449 126.994 157.353C126.737 157.26 126.556 157.086 126.449 156.831C126.37 156.642 126.355 156.444 126.402 156.237C126.451 156.03 126.567 155.789 126.754 155.514L127.12 154.975L127.33 154.746L127.323 154.729L125.854 155.343C125.843 155.347 125.827 155.346 125.805 155.338C125.784 155.329 125.772 155.319 125.767 155.308L125.678 155.095C125.672 155.081 125.672 155.065 125.679 155.049C125.687 155.028 125.699 155.015 125.71 155.01L127.841 154.12L127.84 154.118Z" fill="white"/>
<path d="M125.718 156.568C125.891 156.981 125.928 157.355 125.83 157.692C125.732 158.027 125.503 158.27 125.146 158.42C124.788 158.569 124.453 158.561 124.146 158.395C123.839 158.23 123.599 157.939 123.426 157.526C123.253 157.112 123.215 156.738 123.313 156.401C123.41 156.07 123.639 155.828 123.999 155.678C124.36 155.527 124.694 155.533 124.997 155.698C125.305 155.863 125.545 156.154 125.718 156.568ZM125.445 157.565C125.5 157.323 125.462 157.045 125.33 156.73C125.198 156.414 125.026 156.19 124.816 156.06C124.606 155.929 124.382 155.914 124.145 156.013C123.907 156.112 123.76 156.283 123.705 156.525C123.65 156.767 123.689 157.045 123.821 157.36C123.952 157.676 124.124 157.9 124.334 158.03C124.545 158.161 124.768 158.177 125.007 158.076C125.246 157.976 125.392 157.807 125.445 157.565Z" fill="white"/>
<path d="M157.672 149.176L157.936 149.051C157.959 149.041 157.978 149.038 157.99 149.043C157.998 149.046 158.013 149.064 158.033 149.098C158.123 149.28 158.27 149.4 158.474 149.459C158.676 149.521 158.907 149.498 159.165 149.39C159.456 149.268 159.655 149.076 159.763 148.812C159.871 148.548 159.858 148.257 159.725 147.939C159.592 147.621 159.396 147.41 159.132 147.303C158.868 147.194 158.592 147.201 158.3 147.322C158.044 147.43 157.864 147.571 157.758 147.746C157.655 147.922 157.633 148.103 157.69 148.289C157.699 148.327 157.702 148.351 157.699 148.359C157.694 148.371 157.676 148.384 157.647 148.396L157.4 148.499C157.353 148.519 157.325 148.517 157.315 148.492C157.2 148.217 157.218 147.938 157.369 147.654C157.514 147.374 157.781 147.153 158.169 146.991C158.557 146.829 158.957 146.806 159.316 146.944C159.677 147.083 159.947 147.363 160.122 147.783C160.297 148.203 160.305 148.59 160.148 148.947C159.993 149.302 159.714 149.565 159.312 149.733C158.909 149.901 158.565 149.925 158.255 149.811C157.945 149.697 157.735 149.51 157.625 149.247C157.613 149.218 157.628 149.194 157.673 149.176L157.672 149.176Z" fill="white"/>
<path d="M156.179 151.049L156.182 151.058C155.774 151.229 155.381 151.247 155.004 151.114C154.626 150.981 154.35 150.704 154.174 150.284C153.999 149.865 153.997 149.475 154.166 149.111C154.335 148.753 154.624 148.488 155.036 148.316C155.448 148.144 155.835 148.125 156.209 148.258C156.586 148.39 156.861 148.667 157.035 149.083C157.209 149.5 157.211 149.889 157.042 150.252C156.872 150.614 156.585 150.88 156.179 151.049ZM156.042 150.722L156.046 150.731C156.34 150.608 156.548 150.413 156.67 150.142C156.792 149.872 156.786 149.578 156.653 149.26C156.52 148.942 156.317 148.736 156.037 148.628C155.761 148.523 155.475 148.53 155.178 148.655C154.881 148.779 154.676 148.973 154.554 149.244C154.431 149.514 154.436 149.806 154.568 150.121C154.7 150.437 154.905 150.652 155.18 150.755C155.458 150.858 155.745 150.847 156.042 150.722Z" fill="white"/>
<path d="M152.964 149.22C152.981 149.212 152.996 149.211 153.009 149.216C153.026 149.223 153.037 149.233 153.044 149.249L154.109 151.799C154.116 151.813 154.115 151.829 154.109 151.847C154.102 151.863 154.092 151.874 154.076 151.881L152.986 152.336C152.575 152.508 152.184 152.529 151.815 152.399C151.441 152.266 151.171 152 151.004 151.599C150.836 151.199 150.824 150.816 150.973 150.473C151.126 150.129 151.424 149.863 151.868 149.678L152.964 149.22ZM152.842 151.99L153.589 151.673L152.76 149.689L151.998 150.008C151.659 150.149 151.441 150.344 151.341 150.595C151.241 150.847 151.257 151.128 151.385 151.435C151.513 151.742 151.712 151.944 151.98 152.04C152.248 152.135 152.535 152.12 152.841 151.993L152.842 151.99Z" fill="white"/>
<path d="M148.466 152.516L149.961 151.881L149.598 151.012L147.922 151.713C147.91 151.718 147.894 151.716 147.874 151.708C147.853 151.699 147.841 151.689 147.836 151.678L147.747 151.465C147.742 151.453 147.744 151.437 147.752 151.415C147.758 151.399 147.769 151.388 147.783 151.382L149.794 150.541C149.806 150.536 149.82 150.535 149.84 150.537C149.856 150.544 149.867 150.555 149.874 150.571L150.94 153.122C150.947 153.136 150.946 153.152 150.94 153.168C150.933 153.184 150.922 153.196 150.906 153.202L148.939 154.025C148.927 154.03 148.911 154.028 148.889 154.02C148.869 154.011 148.856 154.001 148.851 153.988L148.762 153.776C148.757 153.764 148.759 153.748 148.767 153.726C148.775 153.706 148.785 153.693 148.798 153.688L150.43 153.005L150.104 152.225L148.604 152.852C148.593 152.857 148.577 152.855 148.556 152.847C148.536 152.838 148.523 152.827 148.518 152.815L148.429 152.602C148.424 152.591 148.426 152.575 148.434 152.553C148.442 152.532 148.452 152.52 148.464 152.515L148.466 152.516Z" fill="white"/>
<path d="M147.386 151.781C147.413 151.846 147.416 151.913 147.392 151.98C147.368 152.046 147.322 152.093 147.254 152.121C147.186 152.15 147.121 152.15 147.057 152.12C146.993 152.088 146.946 152.041 146.919 151.976C146.892 151.911 146.889 151.844 146.913 151.776C146.939 151.712 146.985 151.668 147.053 151.639C147.12 151.611 147.186 151.609 147.248 151.636C147.314 151.668 147.359 151.715 147.386 151.781ZM147.927 153.074C147.954 153.139 147.957 153.206 147.932 153.274C147.909 153.34 147.863 153.387 147.795 153.415C147.727 153.443 147.661 153.442 147.598 153.414C147.534 153.381 147.486 153.333 147.46 153.269C147.433 153.206 147.43 153.137 147.454 153.069C147.479 153.003 147.524 152.957 147.592 152.929C147.659 152.9 147.725 152.9 147.789 152.93C147.854 152.962 147.9 153.009 147.927 153.074Z" fill="white"/>
<path d="M145.382 155.562L144.294 152.922C144.289 152.91 144.29 152.894 144.298 152.872C144.307 152.852 144.317 152.839 144.328 152.834L144.585 152.727C144.596 152.722 144.612 152.724 144.634 152.732C144.655 152.74 144.667 152.75 144.673 152.763L145.493 154.726L145.503 154.726L145.886 153.993C145.891 153.981 145.904 153.971 145.925 153.962C145.947 153.953 145.963 153.951 145.976 153.956L146.181 154.062C146.193 154.067 146.202 154.081 146.208 154.102C146.212 154.129 146.211 154.143 146.207 154.15L145.497 155.513L145.381 155.561L145.382 155.562Z" fill="white"/>
<path d="M143.656 153.11L143.777 153.388L142.855 154.75C142.619 155.102 142.554 155.408 142.663 155.669C142.732 155.834 142.847 155.942 143.005 155.993C143.169 156.045 143.354 156.029 143.56 155.943C143.998 155.76 144.128 155.454 143.949 155.026C143.928 154.975 143.939 154.942 143.984 154.923L144.245 154.814C144.289 154.795 144.317 154.801 144.33 154.831C144.458 155.138 144.474 155.416 144.378 155.669C144.282 155.924 144.055 156.127 143.699 156.276C143.343 156.425 143.065 156.441 142.811 156.346C142.553 156.252 142.372 156.079 142.266 155.825C142.187 155.635 142.172 155.437 142.219 155.23C142.266 155.024 142.384 154.782 142.57 154.506L142.936 153.969L143.147 153.739L143.14 153.722L141.671 154.336C141.659 154.341 141.643 154.339 141.621 154.331C141.601 154.323 141.588 154.313 141.583 154.3L141.494 154.087C141.488 154.073 141.487 154.056 141.494 154.039C141.503 154.019 141.514 154.005 141.525 154.001L143.656 153.11Z" fill="white"/>
<path d="M140.533 155.827L140.527 155.814C140.539 155.809 140.555 155.811 140.577 155.818C140.593 155.825 140.604 155.836 140.61 155.85L140.699 156.063C140.704 156.074 140.702 156.091 140.695 156.112C140.686 156.133 140.676 156.146 140.665 156.15L140.453 156.239C140.097 156.388 139.973 156.591 140.08 156.847C140.137 156.983 140.232 157.069 140.365 157.107C140.501 157.144 140.673 157.119 140.878 157.034C141.266 156.872 141.409 156.63 141.305 156.309C141.29 156.256 141.303 156.222 141.34 156.206L141.601 156.097C141.644 156.079 141.673 156.084 141.685 156.113C141.786 156.355 141.783 156.591 141.674 156.82C141.567 157.048 141.347 157.232 141.018 157.369C140.69 157.507 140.394 157.542 140.17 157.459C139.943 157.377 139.783 157.225 139.69 157.003C139.598 156.782 139.628 156.567 139.786 156.365L139.78 156.352C139.618 156.369 139.478 156.337 139.359 156.263C139.237 156.186 139.149 156.082 139.095 155.952C138.993 155.707 139.001 155.464 139.122 155.223C139.242 154.986 139.485 154.791 139.855 154.636C140.226 154.481 140.518 154.454 140.773 154.538C141.034 154.623 141.217 154.794 141.325 155.052C141.337 155.082 141.322 155.106 141.277 155.124L141.018 155.233C140.979 155.249 140.947 155.234 140.92 155.185C140.839 155.032 140.721 154.935 140.566 154.897C140.411 154.858 140.222 154.884 139.998 154.977C139.775 155.071 139.62 155.193 139.53 155.345C139.441 155.496 139.429 155.649 139.493 155.802C139.602 156.063 139.823 156.122 140.159 155.981L140.534 155.825L140.533 155.827Z" fill="white"/>
<path d="M136.45 156.819L136.759 156.69L136.538 156.163C136.534 156.152 136.535 156.136 136.543 156.114C136.551 156.093 136.561 156.081 136.573 156.076L136.829 155.969C136.841 155.964 136.857 155.966 136.879 155.973C136.899 155.982 136.912 155.992 136.917 156.005L137.138 156.532L138.681 155.886L138.789 156.144L137.97 158.608L137.612 158.757L136.891 157.031L136.591 157.156C136.579 157.161 136.563 157.159 136.542 157.151C136.521 157.143 136.508 157.132 136.503 157.12L136.414 156.907C136.409 156.896 136.411 156.88 136.419 156.858C136.427 156.837 136.437 156.825 136.45 156.819ZM138.178 156.493L137.287 156.865L137.68 157.804L137.788 158.123L137.807 158.12C137.85 157.919 137.877 157.805 137.888 157.779L138.285 156.587L138.395 156.392L138.387 156.385C138.307 156.432 138.237 156.468 138.178 156.493Z" fill="white"/>
<path d="M134.847 159.519L136.196 158.955L135.983 158.185L135.973 158.185C135.821 158.394 135.61 158.556 135.336 158.67C135.03 158.798 134.756 158.823 134.512 158.744C134.263 158.665 134.085 158.493 133.975 158.231C133.857 157.947 133.86 157.676 133.987 157.415C134.109 157.16 134.332 156.965 134.659 156.828C134.908 156.724 135.16 156.687 135.41 156.717C135.673 156.75 135.87 156.861 136.001 157.053C136.024 157.092 136.037 157.114 136.039 157.12C136.048 157.14 136.048 157.162 136.04 157.183C136.031 157.203 136.017 157.218 135.996 157.227L135.758 157.326C135.717 157.343 135.681 157.333 135.651 157.293C135.553 157.177 135.427 157.111 135.271 157.093C135.111 157.076 134.952 157.1 134.794 157.166C134.585 157.254 134.442 157.382 134.362 157.549C134.283 157.716 134.281 157.889 134.355 158.067C134.422 158.226 134.529 158.333 134.675 158.386C134.821 158.439 134.995 158.423 135.199 158.338C135.454 158.232 135.663 158.054 135.822 157.808C135.842 157.775 135.878 157.76 135.928 157.763L136.275 157.81C136.293 157.813 136.307 157.826 136.317 157.85L136.675 159.152L134.99 159.857C134.979 159.862 134.963 159.86 134.942 159.851C134.922 159.843 134.909 159.833 134.904 159.82L134.815 159.607C134.809 159.593 134.809 159.577 134.815 159.559C134.823 159.539 134.833 159.526 134.845 159.521L134.847 159.519Z" fill="white"/>
<path d="M131.987 157.931C132.381 157.767 132.719 157.765 133 157.924C133.286 158.085 133.514 158.371 133.684 158.778C133.867 159.215 133.91 159.601 133.813 159.941C133.715 160.279 133.48 160.527 133.107 160.683C132.816 160.805 132.556 160.832 132.327 160.764C132.105 160.697 131.942 160.558 131.835 160.346C131.823 160.317 131.839 160.294 131.883 160.275L132.143 160.166C132.163 160.158 132.181 160.156 132.193 160.161C132.205 160.166 132.221 160.185 132.24 160.214C132.311 160.317 132.411 160.382 132.541 160.411C132.67 160.441 132.813 160.422 132.969 160.357C133.466 160.149 133.587 159.709 133.334 159.034L133.321 159.04C133.291 159.159 133.222 159.277 133.111 159.393C132.995 159.511 132.854 159.604 132.69 159.673C132.35 159.815 132.057 159.847 131.812 159.769C131.565 159.689 131.39 159.528 131.289 159.286C131.179 159.024 131.186 158.768 131.309 158.517C131.431 158.273 131.659 158.081 131.992 157.942L131.987 157.931ZM132.547 159.331L132.535 159.326C132.752 159.235 132.905 159.115 132.996 158.967C133.085 158.822 133.098 158.681 133.04 158.542C132.975 158.386 132.858 158.276 132.691 158.213C132.527 158.153 132.337 158.169 132.12 158.26C131.885 158.358 131.734 158.484 131.67 158.635C131.603 158.787 131.604 158.947 131.674 159.113C131.734 159.258 131.841 159.351 131.993 159.396C132.151 159.441 132.335 159.42 132.547 159.331Z" fill="white"/>
<path d="M130.102 161.502L131.53 160.905C131.542 160.9 131.558 160.902 131.58 160.91C131.6 160.918 131.613 160.928 131.618 160.941L131.707 161.154C131.712 161.166 131.71 161.182 131.703 161.204C131.694 161.224 131.684 161.237 131.671 161.242L129.65 162.087L129.645 162.074L129.937 158.904C129.941 158.865 129.968 158.833 130.017 158.813L130.33 158.682C130.347 158.675 130.361 158.679 130.368 158.697C130.373 158.708 130.374 158.723 130.372 158.742L130.099 161.495L130.102 161.504L130.102 161.502Z" fill="white"/>
<path d="M72.511 40.3068L66.9358 42.683L67.6127 45.1369L67.6601 45.1409C68.2621 44.3895 69.0271 43.8216 69.9526 43.4347C71.4604 42.8045 72.7541 42.7074 73.8373 43.1437C74.9206 43.5799 75.6838 44.3284 76.1278 45.3906C76.6552 46.6524 76.6292 47.8702 76.0494 49.0475C75.4771 50.2064 74.4259 51.1064 72.8921 51.7475C71.6755 52.2561 70.4751 52.4468 69.2873 52.3194C68.101 52.1914 67.2137 51.7055 66.6279 50.859C66.534 50.7113 66.4668 50.583 66.4227 50.4773C66.384 50.3847 66.3866 50.2816 66.4341 50.1683C66.4801 50.0556 66.5554 49.9765 66.6621 49.9319L68.6052 49.1197C68.7897 49.0426 68.9426 49.0722 69.0625 49.209C69.3451 49.5125 69.7594 49.6895 70.309 49.7403C70.8456 49.7965 71.3974 49.7069 71.9668 49.4689C72.7596 49.1375 73.2673 48.6992 73.4898 48.154C73.7124 47.6088 73.7214 47.0917 73.5158 46.5997C73.3325 46.1612 72.9874 45.838 72.4805 45.63C71.973 45.4205 71.3365 45.4775 70.571 45.7975C69.8705 46.0903 69.2616 46.5862 68.7478 47.2854C68.5361 47.5609 68.3849 47.7176 68.2926 47.7561C68.0937 47.8393 67.8554 47.8607 67.5749 47.8216L65.6134 47.5892C65.4161 47.5629 65.2905 47.4284 65.2351 47.1864L63.6558 41.3461L71.5681 38.0389C71.6215 38.0166 71.6945 38.0251 71.7886 38.064C71.8827 38.1028 71.9407 38.1483 71.9631 38.2018L72.6786 39.9137C72.701 39.9673 72.6926 40.0405 72.6542 40.1347C72.6157 40.229 72.5705 40.287 72.5172 40.3093L72.511 40.3068Z" fill="white"/>
<path d="M76.9937 42.7831L77.0106 42.8236C76.234 40.9656 76.0855 39.2734 76.5657 37.7484C77.0398 36.209 78.0974 35.0972 79.7364 34.4121C81.3754 33.7271 82.9071 33.7498 84.3297 34.4794C85.7583 35.2234 86.8597 36.5174 87.6303 38.3609C88.4008 40.2045 88.55 41.8982 88.0738 43.4367C87.6011 44.9432 86.5387 46.0434 84.8867 46.7339C83.2348 47.4244 81.716 47.3963 80.2934 46.6667C78.8708 45.9371 77.7709 44.6426 76.9943 42.7845L76.9937 42.7831ZM79.7077 41.6963C80.2127 42.9046 80.8338 43.7584 81.572 44.2607C82.3287 44.7705 83.1172 44.8541 83.9359 44.5118C84.7547 44.1696 85.2492 43.5498 85.4179 42.6531C85.5791 41.7749 85.4072 40.7316 84.9028 39.5248C84.3983 38.3179 83.7767 37.4626 83.0384 36.9604C82.2817 36.4505 81.4933 36.367 80.6745 36.7092C79.8558 37.0515 79.3613 37.6712 79.1925 38.5679C79.0313 39.4461 79.2032 40.4894 79.7077 41.6963Z" fill="white"/>
<path d="M92.9014 43.0558L97.0686 26.4416L98.7175 26.8743L94.5425 43.4697L92.9014 43.0558ZM87.7176 34.4419L87.7059 34.4706C87.3618 33.6472 87.352 32.8421 87.6735 32.0515C87.9956 31.2624 88.5867 30.6873 89.4458 30.3282C90.3049 29.9691 91.1352 29.9501 91.9375 30.2693C92.7383 30.589 93.3098 31.1542 93.6479 31.9631C93.986 32.772 93.9912 33.5824 93.6432 34.35C93.2882 35.1375 92.6884 35.7078 91.8423 36.0615C90.9961 36.4152 90.1948 36.4305 89.3994 36.1238C88.617 35.8117 88.0557 35.2508 87.7176 34.4419ZM89.4516 33.7409L89.46 33.7612C89.6155 34.133 89.861 34.4044 90.1965 34.5752C90.5137 34.7384 90.856 34.7432 91.2265 34.5884C91.597 34.4335 91.8283 34.1889 91.9609 33.8377C92.0935 33.4865 92.0801 33.1182 91.9192 32.7332C91.7583 32.3483 91.5056 32.08 91.1625 31.9276C90.814 31.7622 90.4614 31.7532 90.1039 31.9026C89.7464 32.0521 89.4949 32.3051 89.3897 32.6448C89.2755 33.0036 89.2967 33.3704 89.4516 33.7409ZM97.9842 37.9378L97.9725 37.9665C97.6283 37.1431 97.618 36.3365 97.9401 35.5474C98.2622 34.7583 98.8533 34.1832 99.7124 33.8241C100.572 33.465 101.402 33.446 102.204 33.7652C103.005 34.0849 103.576 34.6501 103.914 35.459C104.253 36.2679 104.257 37.0768 103.91 37.8459C103.564 38.6144 102.959 39.178 102.1 39.5371C101.241 39.8962 100.43 39.9243 99.666 39.6197C98.8891 39.3206 98.3284 38.7611 97.9842 37.9378ZM99.7181 37.2368L99.7266 37.2571C99.8821 37.629 100.128 37.9003 100.463 38.0711C100.78 38.2343 101.123 38.2391 101.493 38.0843C101.864 37.9294 102.095 37.6848 102.228 37.3336C102.355 36.9694 102.341 36.5996 102.186 36.2291C102.031 35.8587 101.779 35.5883 101.429 35.4235C101.081 35.2581 100.728 35.2491 100.37 35.3985C100.013 35.548 99.7615 35.801 99.6562 36.1407C99.5427 36.501 99.5633 36.8663 99.7181 37.2368Z" fill="white"/>
</g>
<path d="M132.196 139.539L75.2019 3.18576C74.0995 0.548418 71.0761 -0.699365 68.4489 0.398759L3.16402 27.6871C0.536858 28.7852 -0.699233 31.8134 0.403144 34.4507L57.3971 170.804C58.4994 173.441 61.5228 174.689 64.15 173.591L129.435 146.302C132.062 145.204 133.298 142.176 132.196 139.539Z" fill="#727272"/>
<path d="M10.2726 58.0626L0.403144 34.4507C-0.699233 31.8134 0.536858 28.7852 3.16402 27.6871L68.4489 0.398759C71.0761 -0.699365 74.0995 0.548418 75.2019 3.18576L85.0713 26.7976L10.2726 58.0626Z" fill="#9AE343"/>
<path d="M85.3164 27.3839L84.9547 26.5185L83.6617 27.059L84.0234 27.9243L85.3164 27.3839Z" fill="white"/>
<path d="M14.4839 56.989L14.1222 56.1237L16.7976 55.0054L17.1593 55.8707L14.4839 56.989ZM19.8333 54.7531L19.4716 53.8877L22.147 52.7694L22.5087 53.6348L19.8333 54.7531ZM25.1827 52.5171L24.8209 51.6518L27.4949 50.5341L27.8566 51.3994L25.1827 52.5171ZM30.532 50.2811L30.1703 49.4158L32.8443 48.2981L33.206 49.1634L30.532 50.2811ZM35.8814 48.0452L35.5197 47.1798L38.1936 46.0621L38.5553 46.9275L35.8814 48.0452ZM41.2307 45.8092L40.869 44.9439L43.543 43.8262L43.9047 44.6915L41.2307 45.8092ZM46.5801 43.5732L46.2184 42.7079L48.8923 41.5902L49.254 42.4556L46.5801 43.5732ZM51.9294 41.3373L51.5677 40.4719L54.2417 39.3542L54.6034 40.2196L51.9294 41.3373ZM57.2788 39.1013L56.9171 38.236L59.591 37.1183L59.9527 37.9836L57.2788 39.1013ZM62.6281 36.8653L62.2664 36L64.9404 34.8823L65.3021 35.7477L62.6281 36.8653ZM67.9775 34.6294L67.6158 33.764L70.2897 32.6463L70.6515 33.5117L67.9775 34.6294ZM73.3269 32.3934L72.9651 31.5281L75.6391 30.4104L76.0008 31.2757L73.3269 32.3934ZM78.6762 30.1574L78.3145 29.2921L80.9885 28.1744L81.3502 29.0398L78.6762 30.1574Z" fill="white"/>
<path d="M11.8106 58.1082L11.4489 57.2428L10.1559 57.7833L10.5176 58.6486L11.8106 58.1082Z" fill="white"/>
<path d="M84.9907 55.0478L71.5373 60.6712C71.4753 60.6971 71.395 60.7035 71.2972 60.6882C71.2378 60.6757 71.1873 60.6237 71.1479 60.5296L69.6189 56.8715C69.5795 56.7774 69.5766 56.7055 69.6109 56.6538C69.6693 56.575 69.7283 56.5214 69.7917 56.4949L74.3223 54.6012L71.5587 47.9895L67.0281 49.8833C66.9661 49.9092 66.8858 49.9156 66.788 49.9003C66.7286 49.8878 66.678 49.8358 66.6387 49.7417L65.1096 46.0836C65.0703 45.9895 65.0674 45.9176 65.1016 45.8659C65.1601 45.7871 65.219 45.7335 65.2825 45.707L78.7359 40.0837C78.7978 40.0578 78.8782 40.0514 78.976 40.0666C79.0573 40.087 79.115 40.136 79.1483 40.2156L80.6774 43.8738C80.71 43.9519 80.7043 44.0274 80.6623 44.101C80.6038 44.1799 80.5435 44.234 80.4815 44.2599L75.1091 46.5055L77.8727 53.1172L83.2451 50.8716C83.3071 50.8457 83.3874 50.8393 83.4852 50.8545C83.5665 50.8749 83.6242 50.9239 83.6575 51.0035L85.1866 54.6617C85.2192 54.7398 85.2135 54.8153 85.1715 54.889C85.113 54.9678 85.0527 55.0219 84.9907 55.0478Z" fill="white"/>
<path d="M77.285 74.3531L78.5661 73.0186L75.9985 66.8758L74.1488 66.85C73.9077 66.8403 73.737 66.7196 73.639 66.4852L71.9926 62.5463C71.9399 62.4204 71.9687 62.3352 72.0768 62.2901C72.1229 62.2708 72.2293 62.262 72.3958 62.2672L88.6019 62.9014L90.2483 66.8403L79.3147 78.8203C79.2312 78.9283 79.1522 78.9987 79.0744 79.0312C78.9649 79.077 78.8855 79.0371 78.8329 78.9112L77.1865 74.9722C77.0885 74.7378 77.121 74.5321 77.285 74.3531ZM81.6118 66.9808L79.9233 66.9437L81.2757 70.1794L82.4356 68.9517L84.7157 66.9243L84.6571 66.7839C83.3138 66.9408 82.2988 67.0081 81.6124 66.9823L81.6118 66.9808Z" fill="white"/>
<path d="M95.0652 79.1502L84.858 83.4167L87.445 89.6058C87.471 89.668 87.4617 89.7552 87.4166 89.8659C87.3714 89.9766 87.3171 90.0452 87.2551 90.0711L84.3592 91.2815C84.2813 91.3141 84.1974 91.3118 84.1094 91.2754C84.0214 91.2391 83.96 91.1815 83.9274 91.1033L79.6934 80.9738C79.6541 80.8798 79.6511 80.8079 79.6854 80.7562C79.7433 80.6759 79.8028 80.6238 79.8662 80.5973L93.3196 74.974C93.3816 74.9481 93.4619 74.9417 93.5597 74.9569C93.641 74.9773 93.6987 75.0263 93.732 75.1059L95.2611 78.7641C95.2937 78.8422 95.288 78.9177 95.246 78.9913C95.1875 79.0702 95.1272 79.1243 95.0652 79.1502Z" fill="white"/>
<path d="M86.4577 97.1529L84.8535 93.4446C84.8208 93.3664 84.8179 93.2946 84.8455 93.2269C84.904 93.1481 84.9643 93.0939 85.0263 93.068L98.4797 87.4447C98.5417 87.4188 98.622 87.4124 98.7198 87.4276C98.8011 87.448 98.8589 87.497 98.8921 87.5766L103.42 98.4093C103.446 98.4716 103.437 98.5587 103.392 98.6694C103.346 98.7801 103.292 98.8487 103.23 98.8746L100.334 100.085C100.256 100.118 100.172 100.115 100.084 100.079C99.9739 100.033 99.9054 99.9787 99.8794 99.9165L96.9978 93.0227L94.5459 94.0476L97.1722 100.331C97.2048 100.409 97.2027 100.493 97.1668 100.581C97.1216 100.692 97.0673 100.76 97.0053 100.786L94.2492 101.938C94.1713 101.971 94.0874 101.969 93.9994 101.932C93.9114 101.896 93.8501 101.838 93.8174 101.76L91.1911 95.477L86.871 97.2828C86.7931 97.3153 86.7128 97.3217 86.6309 97.2998C86.5496 97.2794 86.4912 97.229 86.4586 97.1509L86.4577 97.1529Z" fill="white"/>
<path d="M45.3605 58.5576L43.8084 54.909C43.7757 54.8309 43.7728 54.759 43.8004 54.6914C43.843 54.6192 43.9034 54.5651 43.9812 54.5325L57.4346 48.9092C57.5124 48.8766 57.5913 48.8709 57.6747 48.8921C57.756 48.9125 57.8137 48.9615 57.847 49.041L60.4346 55.2316C61.1731 56.9985 61.272 58.6367 60.7332 60.147C60.1852 61.6799 59.108 62.7812 57.505 63.4512C55.9021 64.1212 54.3651 64.1024 52.9461 63.373C51.5322 62.6602 50.4604 61.4287 49.7285 59.6777L48.7879 57.4276L45.7752 58.6868C45.6974 58.7194 45.6171 58.7257 45.5351 58.7039C45.4538 58.6835 45.3955 58.6331 45.3634 58.5564L45.3605 58.5576ZM56.6586 56.3136L55.871 54.4941L52.0179 56.1047L52.7824 57.9338C53.0504 58.5748 53.4444 59.0153 53.9667 59.2559C54.4808 59.4813 55.0265 59.4742 55.6031 59.2332C56.1797 58.9922 56.5681 58.6088 56.7689 58.0846C56.9631 57.5445 56.9274 56.9526 56.66 56.313L56.6586 56.3136Z" fill="white"/>
<path d="M49.9715 68.8032L63.4153 63.1567C63.4772 63.1307 63.5576 63.1244 63.6554 63.1396C63.7367 63.16 63.7944 63.209 63.8271 63.2871L66.7673 70.3213C67.5058 72.0882 67.6277 73.7167 67.1365 75.2072C66.6346 76.7207 65.605 77.8022 64.0482 78.4529C62.118 79.2597 60.3362 78.9386 58.7077 77.4894L58.6616 77.5087C58.5 77.7785 58.3056 78.079 58.0795 78.4132L55.7152 81.8799C55.6055 82.055 55.5117 82.1588 55.4338 82.1913C55.3243 82.2371 55.2383 82.1812 55.173 82.025L53.3699 77.7112C53.2979 77.539 53.3037 77.3989 53.3858 77.2915L56.0859 73.3802L55.2923 71.4816L51.7188 72.9753C51.6569 73.0012 51.5765 73.0076 51.4787 72.9924C51.4193 72.9798 51.3688 72.9278 51.3295 72.8338L49.8004 69.1756C49.7611 69.0815 49.7581 69.0097 49.7924 68.9579C49.8509 68.8791 49.9098 68.8256 49.9732 68.7991L49.9715 68.8032ZM63.0454 71.4639L61.8858 68.7545L58.592 70.1313L59.7286 72.8503C59.9965 73.4914 60.3675 73.9415 60.8422 74.202C61.3102 74.4467 61.7853 74.4691 62.2682 74.2673C62.7511 74.0654 63.0688 73.7116 63.2235 73.2067C63.3716 72.6858 63.3119 72.1056 63.044 71.4645L63.0454 71.4639Z" fill="white"/>
<path d="M71.6087 82.7587L58.1553 88.382C58.0933 88.4079 58.013 88.4143 57.9152 88.3991C57.8557 88.3865 57.8052 88.3345 57.7659 88.2405L56.2368 84.5823C56.1975 84.4882 56.1946 84.4164 56.2294 84.3661C56.2873 84.2858 56.3468 84.2337 56.4103 84.2072L69.8636 78.5839C69.9256 78.558 70.0059 78.5516 70.1037 78.5668C70.1851 78.5872 70.2428 78.6362 70.2755 78.7143L71.8045 82.3725C71.8372 82.4506 71.8315 82.5261 71.7895 82.5998C71.731 82.6786 71.6706 82.7327 71.6087 82.7587Z" fill="white"/>
<path d="M72.9277 101.734L71.4541 98.2736C71.3628 98.0551 71.4275 97.8614 71.6509 97.695C72.2544 97.2591 72.6481 96.69 72.8312 95.9896C73.0143 95.2892 72.9384 94.5406 72.6052 93.7433C72.1999 92.7738 71.5225 92.0931 70.5716 91.7018C69.6206 91.3105 68.5845 91.3475 67.4645 91.8157C66.3445 92.2839 65.601 92.9805 65.1909 93.9236C64.7952 94.8608 64.8038 95.8211 65.2151 96.8051C65.8943 98.4301 67.0006 99.1526 68.5348 98.9703C68.8102 98.9282 69.0031 99.0414 69.1138 99.3062L70.5152 102.659C70.6332 102.941 70.5823 103.127 70.3646 103.218C68.854 103.85 67.2647 103.742 65.5946 102.899C63.9465 102.063 62.6528 100.519 61.7123 98.2692C60.7717 96.019 60.6954 93.9567 61.4272 91.9441C62.1683 89.9089 63.5894 88.4514 65.6911 87.5729C67.7928 86.6944 69.7997 86.7276 71.807 87.6326C73.8128 88.5383 75.2707 90.0776 76.1786 92.2497C77.0865 94.4217 77.2541 96.4187 76.6786 98.2385C76.1099 100.074 75.0406 101.32 73.4679 101.977C73.2186 102.082 73.039 102 72.9283 101.735L72.9277 101.734Z" fill="white"/>
<path d="M75.9067 116.408L72.95 109.464L71.0818 110.245L74.296 117.935C74.322 117.997 74.3127 118.084 74.2676 118.195C74.2224 118.306 74.1681 118.374 74.1061 118.4L71.2101 119.611C71.1323 119.643 71.0484 119.641 70.9604 119.605C70.8718 119.567 70.811 119.511 70.7784 119.432L65.9171 107.802C65.8845 107.724 65.8815 107.652 65.9091 107.585C65.9511 107.511 66.0121 107.458 66.0899 107.426L79.5433 101.802C79.6212 101.77 79.7 101.764 79.7834 101.785C79.8648 101.806 79.9225 101.855 79.9558 101.934L84.7777 113.47C84.8037 113.533 84.7944 113.62 84.7492 113.73C84.7041 113.841 84.6498 113.91 84.5878 113.936L81.6918 115.146C81.614 115.179 81.53 115.176 81.4421 115.14C81.3316 115.094 81.263 115.04 81.237 114.978L78.0615 107.38L76.3331 108.103L79.2141 114.995C79.2401 115.057 79.2308 115.145 79.1856 115.255C79.1404 115.366 79.0861 115.435 79.0242 115.461L76.3617 116.573C76.2839 116.606 76.2 116.604 76.112 116.567C76.0015 116.522 75.9329 116.467 75.9069 116.405L75.9067 116.408Z" fill="white"/>
<path d="M36.3977 74.0655L34.9242 70.605C34.8329 70.3865 34.8976 70.1929 35.1209 70.0264C35.7245 69.5906 36.1182 69.0214 36.3013 68.3211C36.4843 67.6207 36.4085 66.8721 36.0752 66.0748C35.67 65.1052 34.9926 64.4245 34.0417 64.0333C33.0901 63.6406 32.0546 63.679 30.9346 64.1472C29.8145 64.6153 29.0711 65.312 28.661 66.2551C28.2653 67.1923 28.2738 68.1526 28.6851 69.1366C29.3644 70.7616 30.4707 71.484 32.0049 71.3017C32.2802 71.2597 32.4732 71.3729 32.5839 71.6377L33.9853 74.9905C34.1027 75.2713 34.0524 75.4589 33.8347 75.5499C32.324 76.1813 30.7334 76.0744 29.0647 75.2301C27.4165 74.3942 26.1229 72.8509 25.1823 70.6007C24.2418 68.3505 24.1654 66.2881 24.8973 64.2755C25.6384 62.2404 27.0595 60.7828 29.1611 59.9044C31.2628 59.0259 33.2697 59.0591 35.277 59.9641C37.2829 60.8698 38.7408 62.4091 39.6487 64.5811C40.5566 66.7532 40.7241 68.7502 40.1487 70.5699C39.5799 72.4056 38.5107 73.6515 36.938 74.3088C36.6886 74.4131 36.509 74.3317 36.3983 74.0669L36.3977 74.0655Z" fill="white"/>
<path d="M46.5773 81.1573C47.5118 83.393 47.6413 85.542 46.9678 87.605C46.3009 89.6839 44.868 91.1821 42.6726 92.0998C40.4772 93.0174 38.4089 92.9912 36.4661 92.0218C34.5459 91.0616 33.1162 89.4561 32.175 87.2045C31.2339 84.9529 31.0958 82.8075 31.7621 80.7679C32.4357 78.7049 33.8716 77.214 36.067 76.2963C38.2623 75.3787 40.3337 75.4121 42.2831 76.3974C44.2244 77.3675 45.6628 78.9693 46.5973 81.2051L46.5773 81.1573ZM43.0269 82.6413L42.9808 82.6606C42.5562 81.6448 41.8589 80.9163 40.8886 80.4787C39.9177 80.0397 38.8811 80.0514 37.7755 80.5135C36.6699 80.9757 35.932 81.7057 35.5637 82.7045C35.194 83.7038 35.2219 84.7104 35.6465 85.7263C36.0711 86.7421 36.7705 87.451 37.7625 87.8999C38.7319 88.3395 39.7699 88.3273 40.8755 87.8651C41.9811 87.403 42.7185 86.6715 43.0873 85.6742C43.4647 84.6529 43.4455 83.6427 43.0269 82.6413Z" fill="white"/>
<path d="M47.8002 104.691L54.5478 101.733C54.6257 101.701 54.7075 101.702 54.7976 101.739C54.8856 101.775 54.9469 101.833 54.9796 101.911L56.5087 105.569C56.5413 105.648 56.5386 105.73 56.5033 105.82C56.4673 105.908 56.41 105.969 56.3321 106.002L49.4418 108.882C47.1686 109.832 45.1426 109.907 43.363 109.109C41.6133 108.335 40.2471 106.776 39.2673 104.431C38.2874 102.087 38.1496 100.032 38.8387 98.2206C39.5355 96.3875 41.0051 95.0015 43.2467 94.0646L50.137 91.1845C50.2148 91.152 50.2973 91.1549 50.3867 91.1906C50.4747 91.2269 50.5361 91.2846 50.5687 91.3627L52.0972 95.0194C52.1299 95.0976 52.1278 95.1817 52.0918 95.2699C52.0559 95.358 51.9985 95.4194 51.9207 95.4519L45.101 98.3025C43.9176 98.7971 43.1403 99.4535 42.7682 100.269C42.3966 101.085 42.419 101.994 42.837 102.994C43.255 103.994 43.896 104.672 44.7376 104.98C45.6181 105.292 46.6378 105.196 47.8002 104.691Z" fill="white"/>
<path d="M45.3652 118.295L43.813 114.646C43.7804 114.568 43.7774 114.496 43.805 114.429C43.8477 114.357 43.908 114.302 43.9859 114.27L57.4393 108.647C57.5171 108.614 57.596 108.608 57.6794 108.629C57.7607 108.65 57.8184 108.699 57.8517 108.778L60.4393 114.969C61.1778 116.736 61.2766 118.374 60.7378 119.884C60.1898 121.417 59.1126 122.519 57.5097 123.189C55.9068 123.859 54.3698 123.84 52.9507 123.11C51.5369 122.398 50.465 121.166 49.7332 119.415L48.7926 117.165L45.7799 118.424C45.7021 118.457 45.6217 118.463 45.5398 118.441C45.4585 118.421 45.4001 118.37 45.3681 118.294L45.3652 118.295ZM56.6633 116.051L55.8756 114.231L52.0226 115.842L52.7871 117.671C53.055 118.312 53.4491 118.753 53.9714 118.993C54.4855 119.219 55.0312 119.212 55.6078 118.971C56.1844 118.73 56.5728 118.346 56.7736 117.822C56.9678 117.282 56.932 116.69 56.6647 116.05L56.6633 116.051Z" fill="white"/>
<path d="M66.9616 129.925C67.8961 132.161 68.0256 134.31 67.3521 136.373C66.6852 138.452 65.2523 139.95 63.0569 140.867C60.8615 141.785 58.7932 141.759 56.8504 140.789C54.9302 139.829 53.5005 138.224 52.5593 135.972C51.6182 133.721 51.4801 131.575 52.1464 129.536C52.82 127.473 54.2559 125.982 56.4513 125.064C58.6466 124.146 60.718 124.18 62.6674 125.165C64.6088 126.135 66.0471 127.737 66.9816 129.973L66.9616 129.925ZM63.4112 131.409L63.3651 131.428C62.9405 130.412 62.2432 129.684 61.2729 129.246C60.302 128.807 59.2654 128.819 58.1598 129.281C57.0542 129.743 56.3163 130.473 55.948 131.472C55.5783 132.472 55.6062 133.478 56.0308 134.494C56.4554 135.51 57.1548 136.219 58.1468 136.668C59.1162 137.107 60.1542 137.095 61.2598 136.633C62.3654 136.171 63.1028 135.439 63.4716 134.442C63.849 133.421 63.8298 132.41 63.4112 131.409Z" fill="white"/>
<path d="M61.7411 157.473L65.2374 149.098L66.238 147.028L66.1987 146.933L58.935 149.97C58.873 149.995 58.7927 150.002 58.6949 149.987C58.6355 149.974 58.585 149.922 58.5456 149.828L57.0172 146.171C56.9779 146.077 56.9749 146.005 57.0092 145.954C57.0671 145.873 57.1266 145.821 57.19 145.795L70.6434 140.171C70.7054 140.146 70.7857 140.139 70.8835 140.154C70.9648 140.175 71.0225 140.224 71.0558 140.303L72.3786 143.468L68.8243 152.032L67.9145 153.927L67.9441 153.998L75.1847 150.971C75.2626 150.939 75.3429 150.933 75.4248 150.954C75.5068 150.976 75.5645 151.025 75.5972 151.103L77.1262 154.761C77.1589 154.84 77.1532 154.915 77.1106 154.987C77.0685 155.061 77.0076 155.114 76.9297 155.146L63.4764 160.77C63.3985 160.802 63.3182 160.808 63.2363 160.787C63.1549 160.766 63.0966 160.716 63.0645 160.639L61.7411 157.473Z" fill="white"/>
<path d="M116.318 129.772C116.335 129.765 116.35 129.763 116.363 129.768C116.38 129.775 116.391 129.785 116.398 129.801L117.464 132.352C117.47 132.367 117.47 132.382 117.463 132.399C117.456 132.415 117.446 132.426 117.43 132.433L116.34 132.888C115.928 133.061 115.538 133.081 115.169 132.951C114.796 132.82 114.525 132.552 114.357 132.152C114.19 131.751 114.177 131.368 114.327 131.025C114.479 130.681 114.778 130.415 115.222 130.23L116.318 129.772ZM116.196 132.544L116.944 132.226L116.115 130.242L115.352 130.561C115.013 130.703 114.795 130.898 114.695 131.149C114.597 131.4 114.611 131.682 114.74 131.988C114.868 132.295 115.065 132.496 115.334 132.593C115.603 132.688 115.89 132.674 116.195 132.546L116.196 132.544Z" fill="white"/>
<path d="M111.186 131.985L111.628 132.376L113.097 131.762L113.134 131.17C113.137 131.137 113.144 131.115 113.15 131.106C113.159 131.095 113.177 131.085 113.204 131.073L113.491 130.953C113.517 130.942 113.535 130.947 113.544 130.967L113.545 131.029L113.323 134.145L113.164 134.211L110.791 132.18L110.747 132.136C110.739 132.115 110.748 132.1 110.774 132.089L111.104 131.951C111.112 131.947 111.123 131.948 111.135 131.953C111.147 131.958 111.163 131.969 111.184 131.985L111.186 131.985ZM113.01 133.028L113.067 132.172L111.934 132.646L112.583 133.206C112.603 133.221 112.656 133.271 112.743 133.353C112.795 133.405 112.853 133.464 112.916 133.531L112.99 133.609L113.016 133.598C113.002 133.357 113.001 133.167 113.011 133.027L113.01 133.028Z" fill="white"/>
<path d="M111.526 134.501C111.538 134.496 111.554 134.498 111.574 134.507C111.595 134.515 111.607 134.525 111.612 134.537L111.701 134.749C111.706 134.761 111.704 134.777 111.696 134.799C111.688 134.819 111.678 134.832 111.666 134.837L109.187 135.873C109.176 135.878 109.16 135.876 109.138 135.868C109.117 135.86 109.104 135.848 109.099 135.837L109.01 135.624C109.005 135.613 109.007 135.597 109.015 135.576C109.024 135.556 109.035 135.542 109.047 135.537L110.092 135.101L109.145 132.835C109.14 132.823 109.138 132.807 109.141 132.789C109.143 132.778 109.153 132.768 109.171 132.761L109.454 132.642C109.471 132.635 109.484 132.635 109.495 132.64C109.51 132.651 109.52 132.662 109.525 132.675L110.472 134.942L111.526 134.501Z" fill="white"/>
<path d="M106.156 135.435L107.651 134.8L107.288 133.932L105.612 134.632C105.6 134.637 105.584 134.635 105.564 134.627C105.544 134.619 105.531 134.609 105.525 134.595L105.436 134.383C105.432 134.371 105.433 134.354 105.441 134.333C105.448 134.317 105.458 134.306 105.473 134.3L107.484 133.459C107.495 133.454 107.51 133.453 107.53 133.455C107.546 133.462 107.557 133.473 107.564 133.489L108.63 136.038C108.636 136.053 108.635 136.068 108.629 136.086C108.622 136.102 108.612 136.114 108.596 136.12L106.628 136.943C106.617 136.948 106.601 136.946 106.579 136.938C106.559 136.929 106.545 136.918 106.54 136.906L106.452 136.694C106.447 136.682 106.448 136.666 106.457 136.646C106.465 136.625 106.475 136.612 106.488 136.607L108.12 135.925L107.794 135.146L106.295 135.773C106.284 135.778 106.268 135.776 106.247 135.768C106.227 135.759 106.214 135.749 106.209 135.736L106.12 135.523C106.115 135.512 106.117 135.496 106.125 135.475C106.133 135.455 106.143 135.442 106.155 135.437L106.156 135.435Z" fill="white"/>
<path d="M105.076 134.7C105.104 134.765 105.106 134.832 105.082 134.9C105.059 134.966 105.012 135.012 104.944 135.041C104.877 135.069 104.811 135.069 104.748 135.04C104.683 135.007 104.636 134.959 104.609 134.895C104.583 134.831 104.579 134.763 104.604 134.695C104.63 134.632 104.675 134.587 104.743 134.559C104.811 134.53 104.876 134.529 104.938 134.555C105.004 134.587 105.049 134.635 105.076 134.7ZM105.617 135.994C105.644 136.059 105.646 136.124 105.623 136.194C105.599 136.259 105.553 136.306 105.485 136.334C105.417 136.363 105.351 136.363 105.288 136.333C105.224 136.301 105.177 136.254 105.15 136.189C105.123 136.124 105.12 136.057 105.144 135.987C105.168 135.921 105.214 135.875 105.281 135.847C105.349 135.818 105.415 135.818 105.478 135.848C105.544 135.88 105.59 135.928 105.617 135.994Z" fill="white"/>
<path d="M103.071 138.482L101.982 135.842C101.978 135.83 101.979 135.814 101.987 135.792C101.995 135.772 102.005 135.759 102.017 135.754L102.273 135.647C102.285 135.642 102.301 135.644 102.323 135.652C102.343 135.66 102.356 135.67 102.361 135.683L103.181 137.644L103.192 137.645L103.574 136.912C103.579 136.9 103.593 136.889 103.614 136.88C103.634 136.872 103.651 136.87 103.662 136.875L103.868 136.982C103.88 136.987 103.889 137.001 103.895 137.023C103.899 137.048 103.899 137.065 103.895 137.071L103.184 138.433L103.07 138.481L103.071 138.482Z" fill="white"/>
<path d="M101.902 137.359C102.075 137.773 102.113 138.147 102.015 138.484C101.916 138.819 101.688 139.062 101.33 139.212C100.973 139.361 100.637 139.353 100.331 139.187C100.023 139.022 99.7831 138.731 99.6101 138.317C99.4372 137.904 99.3995 137.53 99.4976 137.193C99.5945 136.862 99.8221 136.621 100.184 136.47C100.546 136.318 100.879 136.325 101.181 136.49C101.489 136.655 101.729 136.946 101.902 137.359ZM101.63 138.357C101.685 138.115 101.646 137.837 101.514 137.521C101.382 137.206 101.211 136.982 101.001 136.852C100.79 136.721 100.567 136.705 100.329 136.805C100.091 136.904 99.9441 137.075 99.8895 137.317C99.8349 137.559 99.8733 137.837 100.005 138.152C100.137 138.468 100.309 138.692 100.519 138.822C100.729 138.953 100.952 138.968 101.192 138.868C101.431 138.768 101.577 138.599 101.63 138.357Z" fill="white"/>
<path d="M98.6718 137.377C98.699 137.442 98.7016 137.509 98.6774 137.577C98.6527 137.643 98.6076 137.689 98.5399 137.718C98.4721 137.746 98.4062 137.746 98.343 137.717C98.2772 137.685 98.2313 137.636 98.2047 137.572C98.1781 137.508 98.1749 137.44 98.1991 137.372C98.225 137.309 98.2707 137.264 98.3385 137.236C98.4062 137.207 98.4715 137.206 98.5335 137.232C98.5993 137.264 98.6446 137.312 98.6718 137.377Z" fill="white"/>
<path d="M97.6379 140.753L96.5494 138.113C96.5446 138.101 96.5463 138.085 96.5541 138.063C96.5625 138.043 96.5724 138.03 96.584 138.025L96.8405 137.918C96.8521 137.913 96.8681 137.915 96.89 137.923C96.9104 137.931 96.9231 137.941 96.9285 137.954L97.7481 139.915L97.7586 139.916L98.1414 139.183C98.1464 139.171 98.159 139.16 98.1807 139.151C98.2023 139.142 98.2185 139.14 98.2308 139.146L98.4361 139.252C98.4484 139.257 98.4579 139.272 98.4635 139.293C98.4674 139.319 98.4677 139.336 98.4631 139.341L97.7526 140.704L97.6387 140.751L97.6379 140.753Z" fill="white"/>
<path d="M96.4677 139.631C96.6407 140.045 96.6783 140.418 96.5803 140.755C96.4817 141.09 96.2532 141.334 95.8957 141.483C95.5382 141.633 95.2031 141.625 94.8966 141.459C94.5888 141.293 94.3487 141.003 94.1757 140.589C94.0028 140.175 93.9651 139.802 94.0632 139.465C94.1601 139.134 94.3877 138.892 94.7495 138.741C95.1114 138.59 95.4445 138.597 95.7468 138.761C96.0547 138.926 96.2947 139.217 96.4677 139.631ZM96.1955 140.629C96.2501 140.387 96.2118 140.108 96.0799 139.793C95.9481 139.478 95.7765 139.253 95.5665 139.124C95.3559 138.992 95.1326 138.977 94.8948 139.076C94.6569 139.176 94.5097 139.346 94.4551 139.588C94.4005 139.83 94.4389 140.108 94.5707 140.424C94.7026 140.739 94.8741 140.963 95.0842 141.093C95.2948 141.224 95.518 141.24 95.7573 141.14C95.9966 141.04 96.1424 140.87 96.1955 140.629Z" fill="white"/>
<path d="M93.2374 139.648C93.2646 139.714 93.2672 139.78 93.243 139.848C93.2183 139.915 93.1732 139.961 93.1055 139.989C93.0377 140.017 92.9718 140.018 92.9086 139.988C92.8442 139.956 92.7969 139.907 92.7703 139.844C92.7437 139.78 92.7405 139.712 92.7647 139.644C92.7906 139.58 92.8363 139.536 92.9041 139.507C92.9718 139.479 93.0371 139.477 93.0991 139.504C93.1649 139.536 93.2102 139.583 93.2374 139.648Z" fill="white"/>
<path d="M92.2159 139.846L92.3369 140.123L91.4148 141.486C91.1791 141.838 91.114 142.144 91.2229 142.405C91.2918 142.57 91.4066 142.678 91.5651 142.729C91.7291 142.781 91.9138 142.765 92.1199 142.679C92.5581 142.496 92.6877 142.19 92.5086 141.762C92.4875 141.711 92.4988 141.677 92.5435 141.659L92.8044 141.55C92.8477 141.532 92.8768 141.536 92.8895 141.567C93.0177 141.874 93.0343 142.152 92.9383 142.405C92.8416 142.66 92.6151 142.863 92.259 143.012C91.903 143.161 91.6251 143.176 91.3701 143.081C91.1127 142.988 90.9316 142.814 90.8251 142.559C90.7459 142.369 90.7309 142.172 90.7783 141.965C90.8256 141.758 90.9432 141.517 91.1297 141.242L91.4954 140.703L91.7061 140.474L91.6989 140.456L90.23 141.07C90.2185 141.075 90.2025 141.073 90.1806 141.066C90.1601 141.057 90.1475 141.047 90.1426 141.036L90.0537 140.823C90.0477 140.808 90.048 140.793 90.0547 140.777C90.063 140.756 90.0744 140.743 90.086 140.738L92.2165 139.847L92.2159 139.846Z" fill="white"/>
<path d="M90.0949 142.295C90.2679 142.709 90.3055 143.082 90.2075 143.419C90.1089 143.754 89.8804 143.998 89.5229 144.147C89.1654 144.296 88.8303 144.289 88.5238 144.123C88.2159 143.957 87.9759 143.667 87.8029 143.253C87.63 142.839 87.5923 142.465 87.6903 142.129C87.7873 141.797 88.0149 141.556 88.3767 141.405C88.7385 141.254 89.0716 141.26 89.374 141.425C89.6819 141.59 89.9219 141.881 90.0949 142.295ZM89.8227 143.292C89.8773 143.05 89.839 142.772 89.7071 142.457C89.5753 142.141 89.4037 141.917 89.1937 141.787C88.983 141.656 88.7598 141.641 88.522 141.74C88.2841 141.84 88.1369 142.01 88.0823 142.252C88.0277 142.494 88.066 142.772 88.1979 143.088C88.3298 143.403 88.5013 143.627 88.7114 143.757C88.922 143.888 89.1452 143.904 89.3845 143.804C89.6238 143.704 89.7696 143.534 89.8227 143.292Z" fill="white"/>
<path d="M86.8045 142.108L86.9256 142.385L86.0034 143.748C85.7678 144.1 85.7027 144.406 85.8115 144.666C85.8805 144.831 85.9952 144.94 86.1537 144.991C86.3178 145.043 86.5024 145.027 86.7085 144.941C87.1468 144.758 87.2764 144.452 87.0973 144.024C87.0761 143.973 87.0875 143.939 87.1322 143.921L87.3931 143.812C87.4363 143.794 87.4654 143.798 87.4781 143.829C87.6064 144.136 87.6229 144.414 87.527 144.667C87.4302 144.921 87.2037 145.125 86.8477 145.274C86.4916 145.423 86.2138 145.438 85.9587 145.343C85.7014 145.25 85.5202 145.076 85.4138 144.821C85.3345 144.631 85.3196 144.434 85.367 144.227C85.4157 144.019 85.5319 143.779 85.7183 143.504L86.0841 142.965L86.2948 142.736L86.2875 142.718L84.8187 143.332C84.8071 143.337 84.7911 143.335 84.7692 143.327C84.7488 143.319 84.7361 143.309 84.7313 143.297L84.6424 143.085C84.6363 143.07 84.6366 143.055 84.6433 143.038C84.6517 143.018 84.6631 143.005 84.6746 143L86.8051 142.109L86.8045 142.108Z" fill="white"/>
<path d="M84.6821 144.557C84.8551 144.971 84.8927 145.345 84.7947 145.681C84.6961 146.017 84.4676 146.26 84.1101 146.409C83.7527 146.559 83.4175 146.551 83.111 146.385C82.8032 146.22 82.5631 145.929 82.3902 145.515C82.2172 145.101 82.1796 144.728 82.2776 144.391C82.3745 144.06 82.6036 143.818 82.9639 143.667C83.3243 143.517 83.6589 143.523 83.9612 143.687C84.2691 143.853 84.5091 144.143 84.6821 144.557ZM84.41 145.555C84.4645 145.313 84.4262 145.035 84.2944 144.719C84.1625 144.404 83.9909 144.18 83.7809 144.05C83.5703 143.919 83.347 143.903 83.1092 144.003C82.8713 144.102 82.7241 144.272 82.6695 144.514C82.6149 144.757 82.6533 145.035 82.7851 145.35C82.917 145.666 83.0885 145.89 83.2986 146.019C83.5092 146.151 83.7324 146.166 83.9717 146.066C84.211 145.966 84.3568 145.796 84.41 145.555Z" fill="white"/>
<path d="M116.636 137.166L116.9 137.04C116.923 137.03 116.942 137.028 116.955 137.033C116.963 137.036 116.977 137.054 116.998 137.088C117.088 137.27 117.234 137.39 117.439 137.449C117.641 137.511 117.871 137.488 118.129 137.38C118.421 137.258 118.62 137.066 118.728 136.802C118.836 136.537 118.823 136.247 118.689 135.928C118.556 135.61 118.36 135.4 118.097 135.292C117.833 135.183 117.556 135.19 117.265 135.312C117.008 135.419 116.829 135.561 116.723 135.736C116.62 135.911 116.597 136.092 116.655 136.279C116.664 136.316 116.667 136.34 116.664 136.349C116.659 136.361 116.64 136.374 116.611 136.386L116.365 136.489C116.317 136.509 116.29 136.507 116.279 136.482C116.164 136.207 116.183 135.927 116.333 135.643C116.479 135.363 116.746 135.143 117.133 134.981C117.521 134.819 117.921 134.796 118.28 134.933C118.642 135.073 118.911 135.353 119.087 135.773C119.262 136.192 119.27 136.58 119.112 136.936C118.958 137.292 118.678 137.555 118.276 137.723C117.874 137.891 117.53 137.914 117.22 137.801C116.91 137.687 116.7 137.5 116.589 137.236C116.577 137.207 116.593 137.184 116.638 137.165L116.636 137.166Z" fill="white"/>
<path d="M115.143 139.039L115.147 139.048C114.739 139.218 114.345 139.237 113.968 139.104C113.591 138.971 113.314 138.694 113.139 138.274C112.963 137.854 112.961 137.464 113.131 137.101C113.3 136.743 113.588 136.478 114.001 136.306C114.413 136.133 114.8 136.114 115.174 136.247C115.551 136.38 115.825 136.656 116 137.073C116.174 137.49 116.175 137.878 116.007 138.241C115.837 138.603 115.55 138.869 115.143 139.039ZM115.007 138.712L115.01 138.721C115.304 138.598 115.512 138.402 115.634 138.132C115.757 137.861 115.751 137.568 115.618 137.25C115.485 136.931 115.282 136.725 115.002 136.618C114.726 136.513 114.439 136.52 114.142 136.644C113.845 136.768 113.64 136.963 113.518 137.233C113.396 137.504 113.401 137.796 113.533 138.111C113.665 138.426 113.87 138.642 114.145 138.744C114.423 138.847 114.71 138.836 115.007 138.712Z" fill="white"/>
<path d="M111.928 137.209C111.946 137.202 111.96 137.201 111.974 137.205C111.99 137.212 112.002 137.223 112.008 137.239L113.074 139.788C113.08 139.803 113.08 139.818 113.074 139.836C113.067 139.853 113.056 139.864 113.041 139.87L111.951 140.326C111.54 140.498 111.149 140.518 110.78 140.389C110.406 140.256 110.136 139.99 109.968 139.589C109.801 139.188 109.788 138.806 109.938 138.463C110.09 138.119 110.389 137.853 110.833 137.667L111.928 137.209ZM111.806 139.98L112.554 139.662L111.725 137.678L110.962 137.997C110.623 138.139 110.405 138.334 110.305 138.585C110.206 138.837 110.221 139.118 110.35 139.424C110.478 139.731 110.676 139.934 110.945 140.029C111.213 140.124 111.5 140.11 111.805 139.982L111.806 139.98Z" fill="white"/>
<path d="M107.43 140.505L108.926 139.87L108.563 139.002L106.886 139.703C106.875 139.707 106.859 139.706 106.838 139.697C106.818 139.689 106.805 139.679 106.8 139.667L106.711 139.454C106.707 139.443 106.708 139.427 106.716 139.405C106.723 139.388 106.733 139.377 106.748 139.371L108.759 138.531C108.77 138.526 108.785 138.525 108.804 138.527C108.821 138.534 108.832 138.544 108.839 138.56L109.905 141.111C109.911 141.126 109.911 141.141 109.904 141.158C109.897 141.174 109.887 141.185 109.871 141.192L107.903 142.014C107.892 142.019 107.876 142.017 107.854 142.009C107.833 142.001 107.821 141.991 107.815 141.978L107.726 141.765C107.722 141.754 107.723 141.738 107.731 141.716C107.739 141.695 107.749 141.683 107.762 141.677L109.394 140.995L109.068 140.215L107.569 140.842C107.557 140.847 107.541 140.845 107.521 140.836C107.501 140.828 107.487 140.816 107.482 140.805L107.394 140.592C107.389 140.581 107.39 140.565 107.398 140.543C107.407 140.522 107.417 140.509 107.428 140.505L107.43 140.505Z" fill="white"/>
<path d="M106.351 139.77C106.378 139.835 106.38 139.902 106.356 139.97C106.333 140.036 106.286 140.083 106.219 140.111C106.151 140.139 106.085 140.14 106.022 140.11C105.957 140.077 105.911 140.03 105.884 139.965C105.856 139.9 105.854 139.833 105.878 139.765C105.904 139.702 105.95 139.657 106.017 139.629C106.085 139.601 106.15 139.599 106.212 139.626C106.278 139.658 106.323 139.705 106.351 139.77ZM106.891 141.064C106.919 141.129 106.921 141.196 106.897 141.264C106.874 141.33 106.827 141.376 106.759 141.405C106.692 141.433 106.625 141.432 106.563 141.404C106.498 141.371 106.451 141.323 106.424 141.259C106.398 141.195 106.395 141.127 106.419 141.059C106.443 140.993 106.488 140.947 106.556 140.918C106.624 140.89 106.69 140.89 106.753 140.919C106.819 140.951 106.864 140.999 106.891 141.064Z" fill="white"/>
<path d="M104.347 143.552L103.258 140.911C103.253 140.9 103.255 140.884 103.263 140.862C103.271 140.841 103.281 140.829 103.293 140.824L103.549 140.717C103.561 140.712 103.577 140.714 103.599 140.722C103.619 140.73 103.632 140.74 103.637 140.753L104.457 142.715L104.468 142.716L104.851 141.983C104.856 141.971 104.868 141.96 104.89 141.951C104.912 141.942 104.928 141.941 104.94 141.946L105.145 142.052C105.158 142.057 105.167 142.07 105.172 142.092C105.177 142.119 105.176 142.133 105.172 142.14L104.461 143.502L104.346 143.551L104.347 143.552Z" fill="white"/>
<path d="M102.621 141.1L102.742 141.377L101.819 142.74C101.584 143.092 101.519 143.398 101.628 143.658C101.697 143.823 101.811 143.932 101.97 143.983C102.134 144.035 102.318 144.019 102.525 143.933C102.963 143.75 103.092 143.444 102.913 143.016C102.892 142.965 102.904 142.931 102.948 142.913L103.209 142.804C103.254 142.785 103.281 142.79 103.294 142.821C103.422 143.127 103.439 143.406 103.343 143.659C103.246 143.913 103.02 144.117 102.664 144.266C102.308 144.414 102.03 144.43 101.775 144.336C101.517 144.242 101.337 144.069 101.23 143.814C101.151 143.625 101.136 143.427 101.184 143.22C101.231 143.013 101.349 142.772 101.534 142.496L101.901 141.958L102.111 141.729L102.104 141.712L100.635 142.326C100.624 142.33 100.608 142.329 100.586 142.321C100.565 142.312 100.553 142.302 100.547 142.289L100.458 142.077C100.452 142.062 100.452 142.045 100.459 142.029C100.467 142.008 100.479 141.995 100.49 141.99L102.621 141.1Z" fill="white"/>
<path d="M99.4972 143.816L99.4918 143.803C99.5033 143.798 99.5193 143.8 99.5412 143.808C99.5576 143.815 99.5688 143.825 99.5749 143.84L99.6638 144.053C99.6686 144.064 99.6669 144.08 99.6591 144.102C99.6507 144.123 99.6408 144.135 99.6293 144.14L99.4174 144.229C99.0613 144.377 98.9378 144.58 99.0449 144.837C99.1018 144.973 99.197 145.059 99.3297 145.097C99.4653 145.133 99.6379 145.109 99.8426 145.023C100.23 144.861 100.373 144.62 100.27 144.299C100.254 144.246 100.267 144.212 100.305 144.196L100.565 144.087C100.609 144.069 100.638 144.074 100.65 144.103C100.751 144.344 100.748 144.58 100.639 144.809C100.531 145.038 100.312 145.222 99.9829 145.359C99.6543 145.496 99.359 145.531 99.1347 145.448C98.9074 145.367 98.7473 145.214 98.6547 144.993C98.5622 144.771 98.5925 144.556 98.7503 144.354L98.7448 144.341C98.5825 144.358 98.4424 144.327 98.3233 144.253C98.2015 144.176 98.1138 144.071 98.0594 143.941C97.9572 143.697 97.9656 143.453 98.0867 143.212C98.2061 142.976 98.4496 142.78 98.82 142.625C99.1905 142.471 99.4824 142.444 99.7375 142.528C99.9982 142.612 100.182 142.784 100.289 143.041C100.302 143.072 100.286 143.095 100.242 143.114L99.9823 143.222C99.9434 143.239 99.9115 143.223 99.8845 143.175C99.8036 143.022 99.6853 142.925 99.5302 142.886C99.3751 142.847 99.1862 142.874 98.9628 142.967C98.7394 143.06 98.5841 143.183 98.4949 143.334C98.4056 143.485 98.3934 143.638 98.4575 143.792C98.5664 144.052 98.7874 144.111 99.1233 143.971L99.4981 143.814L99.4972 143.816Z" fill="white"/>
<path d="M95.4146 144.809L95.7231 144.68L95.5029 144.153C95.4981 144.141 95.4999 144.125 95.5076 144.103C95.516 144.083 95.5259 144.07 95.5375 144.066L95.7941 143.958C95.8056 143.953 95.8216 143.955 95.8435 143.963C95.8639 143.972 95.8766 143.982 95.882 143.995L96.1022 144.521L97.646 143.876L97.7537 144.134L96.9345 146.597L96.577 146.747L95.8554 145.021L95.5556 145.146C95.544 145.151 95.528 145.149 95.5061 145.141C95.4857 145.133 95.4724 145.121 95.4676 145.11L95.3786 144.897C95.3738 144.885 95.3756 144.869 95.3833 144.847C95.3917 144.827 95.4016 144.814 95.4146 144.809ZM97.1426 144.482L96.2518 144.855L96.6443 145.794L96.7522 146.113L96.7713 146.11C96.8141 145.908 96.8412 145.795 96.8521 145.768L97.2499 144.577L97.3595 144.382L97.3516 144.375C97.2714 144.422 97.2017 144.458 97.1426 144.482Z" fill="white"/>
<path d="M93.8117 147.508L95.1609 146.944L94.9477 146.175L94.9373 146.174C94.786 146.384 94.5742 146.545 94.3003 146.66C93.9947 146.788 93.7205 146.812 93.4762 146.734C93.2278 146.654 93.0493 146.482 92.9398 146.221C92.8213 145.937 92.8245 145.665 92.9511 145.405C93.0731 145.15 93.2963 144.955 93.6235 144.818C93.8729 144.714 94.1249 144.676 94.3745 144.706C94.6372 144.739 94.8344 144.851 94.9654 145.042C94.9887 145.082 95.0012 145.104 95.0036 145.11C95.0121 145.13 95.0128 145.152 95.0044 145.172C94.996 145.193 94.9818 145.207 94.9601 145.216L94.7223 145.316C94.6819 145.333 94.6455 145.322 94.6152 145.282C94.5177 145.167 94.3918 145.1 94.2353 145.082C94.0759 145.066 93.9167 145.09 93.7581 145.156C93.5491 145.243 93.4061 145.371 93.327 145.539C93.2479 145.706 93.2456 145.879 93.32 146.057C93.3865 146.216 93.4937 146.322 93.6394 146.375C93.7852 146.428 93.96 146.413 94.1633 146.328C94.4184 146.221 94.6271 146.044 94.7864 145.797C94.8068 145.765 94.8428 145.75 94.8931 145.753L95.2396 145.8C95.2576 145.802 95.2715 145.815 95.2818 145.84L95.6398 147.142L93.9547 147.846C93.9432 147.851 93.9272 147.849 93.9067 147.841C93.8862 147.833 93.8736 147.823 93.8681 147.809L93.7792 147.597C93.7732 147.582 93.7735 147.567 93.7796 147.549C93.788 147.529 93.7979 147.516 93.8094 147.511L93.8117 147.508Z" fill="white"/>
<path d="M90.9519 145.921C91.3455 145.757 91.6834 145.755 91.965 145.914C92.2508 146.075 92.4785 146.361 92.6485 146.767C92.8312 147.204 92.8742 147.591 92.7774 147.931C92.68 148.269 92.4449 148.517 92.0716 148.673C91.7804 148.794 91.5208 148.821 91.2911 148.754C91.07 148.687 90.9068 148.548 90.7996 148.336C90.7875 148.307 90.8031 148.283 90.8478 148.264L91.1072 148.156C91.1274 148.148 91.1451 148.145 91.1574 148.15C91.1696 148.155 91.1859 148.174 91.205 148.204C91.2752 148.307 91.3753 148.372 91.5059 148.401C91.635 148.43 91.7778 148.411 91.9335 148.346C92.4308 148.138 92.5517 147.698 92.2986 147.024L92.2856 147.029C92.256 147.149 92.1865 147.266 92.0758 147.382C91.9594 147.501 91.8187 147.593 91.6543 147.662C91.3141 147.804 91.0212 147.837 90.7769 147.759C90.5299 147.678 90.3542 147.517 90.2532 147.276C90.1437 147.014 90.1502 146.758 90.274 146.507C90.3953 146.262 90.6232 146.07 90.9562 145.931L90.9519 145.921ZM91.5116 147.321L91.4993 147.316C91.717 147.225 91.87 147.105 91.9604 146.956C92.0492 146.812 92.0628 146.67 92.0047 146.532C91.9394 146.375 91.8226 146.266 91.6557 146.203C91.4916 146.143 91.302 146.159 91.0843 146.25C90.8494 146.348 90.6988 146.474 90.6348 146.625C90.568 146.777 90.5686 146.936 90.6382 147.103C90.6986 147.247 90.8053 147.341 90.9579 147.386C91.1154 147.43 91.2997 147.409 91.5116 147.321Z" fill="white"/>
<path d="M89.0663 149.492L90.4948 148.895C90.5064 148.89 90.5224 148.892 90.5443 148.9C90.5647 148.908 90.5774 148.918 90.5828 148.931L90.6717 149.144C90.6766 149.155 90.6748 149.171 90.6671 149.193C90.6587 149.214 90.6487 149.227 90.6358 149.232L88.6148 150.077L88.6094 150.064L88.9015 146.894C88.9055 146.855 88.9328 146.823 88.9818 146.802L89.2946 146.672C89.3119 146.664 89.3256 146.669 89.3329 146.686C89.3377 146.698 89.3388 146.713 89.3369 146.732L89.0633 149.485L89.0669 149.493L89.0663 149.492Z" fill="white"/>
<path d="M31.4756 28.2964L25.9004 30.6727L26.5773 33.1266L26.6246 33.1306C27.2267 32.3791 27.9917 31.8112 28.9171 31.4244C30.4249 30.7941 31.7187 30.697 32.8019 31.1333C33.8851 31.5696 34.6484 32.3181 35.0924 33.3802C35.6198 34.642 35.5937 35.8599 35.014 37.0372C34.4417 38.196 33.3904 39.0961 31.8567 39.7372C30.6401 40.2457 29.4396 40.4364 28.2518 40.309C27.0655 40.181 26.1783 39.6951 25.5925 38.8486C25.4986 38.7009 25.4314 38.5726 25.3872 38.467C25.3485 38.3743 25.3512 38.2713 25.3986 38.1579C25.4446 38.0452 25.52 37.9661 25.6266 37.9215L27.5697 37.1093C27.7543 37.0322 27.9072 37.0618 28.027 37.1987C28.3097 37.5021 28.724 37.6791 29.2735 37.7299C29.8101 37.7861 30.362 37.6965 30.9313 37.4585C31.7242 37.1271 32.2318 36.6888 32.4544 36.1436C32.6769 35.5985 32.686 35.0813 32.4803 34.5893C32.2971 34.1508 31.952 33.8276 31.4451 33.6196C30.9376 33.4102 30.301 33.4672 29.5356 33.7871C28.835 34.0799 28.2261 34.5758 27.7124 35.275C27.5007 35.5505 27.3494 35.7072 27.2572 35.7458C27.0583 35.8289 26.82 35.8503 26.5395 35.8112L24.578 35.5788C24.3807 35.5525 24.2551 35.418 24.1996 35.176L22.6204 29.3357L30.5327 26.0285C30.586 26.0062 30.659 26.0148 30.7532 26.0536C30.8473 26.0925 30.9053 26.1379 30.9276 26.1915L31.6432 27.9034C31.6656 27.9569 31.6572 28.0301 31.6187 28.1244C31.5802 28.2187 31.535 28.2766 31.4817 28.2989L31.4756 28.2964Z" fill="white"/>
<path d="M35.9583 30.7727L35.9752 30.8132C35.1986 28.9552 35.05 27.263 35.5302 25.738C36.0044 24.1986 37.062 23.0868 38.7009 22.4018C40.3399 21.7167 41.8717 21.7394 43.2943 22.469C44.7229 23.2131 45.8242 24.507 46.5948 26.3506C47.3654 28.1941 47.5145 29.8878 47.0383 31.4263C46.5657 32.9328 45.5032 34.0331 43.8513 34.7236C42.1994 35.4141 40.6805 35.3859 39.258 34.6563C37.8354 33.9267 36.7355 32.6322 35.9589 30.7742L35.9583 30.7727ZM38.6722 29.6859C39.1773 30.8942 39.7983 31.748 40.5366 32.2503C41.2933 32.7602 42.0817 32.8437 42.9005 32.5015C43.7192 32.1592 44.2137 31.5395 44.3825 30.6428C44.5437 29.7645 44.3718 28.7213 43.8673 27.5144C43.3629 26.3076 42.7412 25.4523 42.003 24.95C41.2463 24.4401 40.4578 24.3566 39.6391 24.6989C38.8203 25.0411 38.3258 25.6608 38.1571 26.5575C37.9959 27.4358 38.1678 28.479 38.6722 29.6859Z" fill="white"/>
<path d="M51.866 31.0454L56.0331 14.4313L57.6821 14.8639L53.5071 31.4593L51.866 31.0454ZM46.6822 22.4315L46.6705 22.4602C46.3263 21.6368 46.3166 20.8317 46.6381 20.0412C46.9602 19.2521 47.5512 18.6769 48.4104 18.3178C49.2695 17.9587 50.0998 17.9398 50.902 18.2589C51.7028 18.5786 52.2744 19.1438 52.6125 19.9527C52.9506 20.7616 52.9557 21.572 52.6077 22.3396C52.2528 23.1272 51.653 23.6974 50.8068 24.0511C49.9607 24.4048 49.1594 24.4202 48.364 24.1135C47.5816 23.8013 47.0203 23.2404 46.6822 22.4315ZM48.4161 21.7305L48.4246 21.7508C48.58 22.1227 48.8255 22.394 49.1611 22.5649C49.4782 22.7281 49.8206 22.7329 50.1911 22.578C50.5615 22.4232 50.7929 22.1786 50.9255 21.8274C51.0581 21.4762 51.0447 21.1078 50.8838 20.7229C50.7229 20.338 50.4702 20.0696 50.1271 19.9172C49.7785 19.7518 49.4259 19.7428 49.0684 19.8923C48.711 20.0417 48.4594 20.2947 48.3542 20.6345C48.24 20.9933 48.2613 21.3601 48.4161 21.7305ZM56.9488 25.9274L56.9371 25.9561C56.5929 25.1327 56.5826 24.3262 56.9047 23.5371C57.2268 22.748 57.8178 22.1728 58.6769 21.8137C59.5361 21.4546 60.3663 21.4357 61.1686 21.7548C61.9694 22.0745 62.5409 22.6397 62.879 23.4486C63.2172 24.2575 63.2217 25.0665 62.8743 25.8355C62.5283 26.604 61.924 27.1677 61.0649 27.5268C60.2058 27.8859 59.3945 27.9139 58.6306 27.6094C57.8536 27.3103 57.2929 26.7508 56.9488 25.9274ZM58.6827 25.2264L58.6912 25.2467C58.8466 25.6186 59.0921 25.8899 59.4277 26.0608C59.7448 26.224 60.0872 26.2288 60.4576 26.0739C60.8281 25.9191 61.0595 25.6745 61.1921 25.3233C61.3192 24.959 61.3052 24.5892 61.1503 24.2188C60.9955 23.8483 60.7436 23.5779 60.3936 23.4131C60.0451 23.2477 59.6925 23.2387 59.335 23.3882C58.9775 23.5376 58.726 23.7906 58.6208 24.1304C58.5072 24.4906 58.5279 24.856 58.6827 25.2264Z" fill="white"/>
</svg>
