<?xml version="1.0" encoding="utf-8"?>
<svg height="26px" version="1.1" viewBox="0 0 21 26" width="21px"
    xmlns="http://www.w3.org/2000/svg">
    <g id="apple">
        <path
            d="M6.9624 26C3.15194 25.9777 0 18.0825 0 14.0617C0 7.49365 4.85427 6.05573 6.72507 6.05573C7.56816 6.05573 8.46841 6.39179 9.26244 6.68917C9.8177 6.89661 10.392 7.11074 10.7113 7.11074C10.9025 7.11074 11.353 6.92858 11.7508 6.76875C12.599 6.426 13.6545 6 14.8836 6C14.8858 6 14.8888 6 14.8909 6C15.8087 6 18.5915 6.20445 20.2646 8.75463L20.6565 9.35238L20.0925 9.78437C19.2867 10.4015 17.8166 11.5271 17.8166 13.7569C17.8166 16.3978 19.4815 17.4134 20.2814 17.9019C20.6345 18.1175 21 18.3398 21 18.826C21 19.1435 18.5036 25.9606 14.8785 25.9606C13.9914 25.9606 13.3644 25.69 12.8114 25.4513C12.2518 25.2097 11.769 25.0015 10.9713 25.0015C10.567 25.0015 10.0557 25.1956 9.51437 25.4015C8.77464 25.6818 7.93735 26 6.9873 26L6.9624 26Z"
            fill="#FFFFFF" id="Path" stroke="none" />
        <path
            d="M14.9972 0C15.0953 3.63156 12.566 6.15098 10.0397 5.99297C9.62338 3.09485 12.5657 0 14.9972 0Z"
            fill="#FFFFFF" id="Path" stroke="none" />
    </g>
</svg>