<?xml version="1.0" encoding="utf-8"?>
<svg height="25px" version="1.1" viewBox="0 0 25 25" width="25px"
    xmlns="http://www.w3.org/2000/svg">
    <g id="b_plus">
        <g id="Group-21" transform="translate(18 0)">
            <path
                d="M0.4365 3.0625L6.5635 3.0625Q6.60649 3.0625 6.64866 3.07089Q6.69082 3.07927 6.73054 3.09573Q6.77026 3.11218 6.80601 3.13606Q6.84175 3.15995 6.87215 3.19035Q6.90255 3.22075 6.92644 3.25649Q6.95032 3.29224 6.96677 3.33196Q6.98322 3.37168 6.99161 3.41384Q7 3.45601 7 3.499L7 3.501Q7 3.54399 6.99161 3.58616Q6.98322 3.62832 6.96677 3.66804Q6.95032 3.70776 6.92644 3.74351Q6.90255 3.77925 6.87215 3.80965Q6.84175 3.84005 6.80601 3.86394Q6.77026 3.88782 6.73054 3.90427Q6.69082 3.92073 6.64866 3.92911Q6.60649 3.9375 6.5635 3.9375L0.4365 3.9375Q0.393508 3.9375 0.351343 3.92911Q0.309178 3.92073 0.269459 3.90427Q0.22974 3.88782 0.193994 3.86394Q0.158247 3.84005 0.127848 3.80965Q0.0974483 3.77925 0.0735635 3.74351Q0.0496787 3.70776 0.0332266 3.66804Q0.0167744 3.62832 0.00838722 3.58616Q0 3.54399 0 3.501L0 3.499Q0 3.45601 0.00838722 3.41384Q0.0167744 3.37168 0.0332266 3.33196Q0.0496787 3.29224 0.0735635 3.25649Q0.0974483 3.22075 0.127848 3.19035Q0.158247 3.15995 0.193994 3.13606Q0.22974 3.11218 0.269459 3.09573Q0.309178 3.07927 0.351343 3.07089Q0.393508 3.0625 0.4365 3.0625L0.4365 3.0625Z"
                fill="#7EBA61" fill-rule="evenodd" id="Rectangle" stroke="#7EBA61"
                stroke-width="1" />
            <path
                d="M3.9375 0.4365L3.9375 6.5635Q3.9375 6.60649 3.92911 6.64866Q3.92072 6.69082 3.90427 6.73054Q3.88782 6.77026 3.86394 6.80601Q3.84005 6.84175 3.80965 6.87215Q3.77925 6.90255 3.74351 6.92644Q3.70776 6.95032 3.66804 6.96677Q3.62832 6.98322 3.58616 6.99161Q3.54399 7 3.501 7L3.499 7Q3.45601 7 3.41384 6.99161Q3.37168 6.98322 3.33196 6.96677Q3.29224 6.95032 3.25649 6.92644Q3.22075 6.90255 3.19035 6.87215Q3.15995 6.84175 3.13606 6.80601Q3.11218 6.77026 3.09573 6.73054Q3.07927 6.69082 3.07089 6.64866Q3.0625 6.60649 3.0625 6.5635L3.0625 0.4365Q3.0625 0.393508 3.07089 0.351343Q3.07927 0.309178 3.09573 0.269459Q3.11218 0.22974 3.13606 0.193994Q3.15995 0.158247 3.19035 0.127848Q3.22075 0.0974483 3.25649 0.0735635Q3.29224 0.0496787 3.33196 0.0332266Q3.37168 0.0167744 3.41384 0.0083872Q3.45601 -2.37786e-08 3.499 -2.18994e-08L3.501 -2.1812e-08Q3.54399 -1.99327e-08 3.58616 0.00838721Q3.62832 0.0167744 3.66804 0.0332266Q3.70776 0.0496787 3.74351 0.0735635Q3.77925 0.0974483 3.80965 0.127848Q3.84005 0.158247 3.86394 0.193994Q3.88782 0.22974 3.90427 0.269459Q3.92073 0.309178 3.92911 0.351343Q3.9375 0.393508 3.9375 0.4365L3.9375 0.4365Z"
                fill="#7EBA61" fill-rule="evenodd" id="Rectangle" stroke="#7EBA61"
                stroke-width="1" />
        </g>
        <path
            d="M9.04068 2L0 2L0 23.001Q0 23.0992 0.00962573 23.1969Q0.0192515 23.2947 0.0384102 23.391Q0.057569 23.4873 0.0860763 23.5813Q0.114584 23.6753 0.152165 23.766Q0.189746 23.8567 0.236039 23.9433Q0.282333 24.0299 0.336892 24.1116Q0.391452 24.1932 0.453752 24.2692Q0.516052 24.3451 0.585494 24.4145Q0.654935 24.4839 0.730848 24.5462Q0.806761 24.6085 0.888415 24.6631Q0.970069 24.7177 1.05668 24.764Q1.14329 24.8103 1.23402 24.8478Q1.32474 24.8854 1.41872 24.9139Q1.5127 24.9424 1.60901 24.9616Q1.70533 24.9807 1.80306 24.9904Q1.9008 25 1.999 25L11.6121 25Q11.7689 25 11.9256 24.9923Q12.0822 24.9846 12.2382 24.9692Q12.3943 24.9539 12.5494 24.9309Q12.7045 24.9079 12.8583 24.8773Q13.0121 24.8467 13.1642 24.8086Q13.3164 24.7705 13.4664 24.7249Q13.6165 24.6794 13.7641 24.6266Q13.9118 24.5738 14.0566 24.5137Q14.2015 24.4537 14.3433 24.3867Q14.485 24.3196 14.6233 24.2457Q14.7616 24.1718 14.8961 24.0912Q15.0306 24.0106 15.161 23.9234Q15.2914 23.8363 15.4174 23.7429Q15.5433 23.6495 15.6645 23.55Q15.7858 23.4505 15.902 23.3452Q16.0181 23.2399 16.129 23.129Q16.2399 23.0181 16.3452 22.902Q16.4505 22.7858 16.55 22.6645Q16.6495 22.5433 16.7429 22.4174Q16.8363 22.2914 16.9234 22.161Q17.0106 22.0306 17.0912 21.8961Q17.1718 21.7616 17.2457 21.6233Q17.3196 21.485 17.3867 21.3433Q17.4537 21.2015 17.5138 21.0566Q17.5738 20.9118 17.6266 20.7641Q17.6794 20.6165 17.7249 20.4664Q17.7705 20.3164 17.8086 20.1642Q17.8467 20.0121 17.8773 19.8583Q17.9078 19.7045 17.9309 19.5494Q17.9539 19.3943 17.9692 19.2382Q17.9846 19.0822 17.9923 18.9255Q18 18.7689 18 18.6121L18 18.6101Q18 18.3672 17.9815 18.1249Q17.9631 17.8826 17.9263 17.6425Q17.8895 17.4023 17.8345 17.1657Q17.7796 16.929 17.7068 16.6972Q17.6341 16.4654 17.5439 16.2398Q17.4538 16.0141 17.3467 15.796Q17.2397 15.5779 17.1164 15.3686Q16.9931 15.1592 16.8543 14.9598Q16.7155 14.7604 16.5619 14.5722Q16.4083 14.3839 16.2409 14.2079Q16.0734 14.0318 15.8931 13.869Q15.7128 13.7062 15.5206 13.5575Q15.3284 13.4089 15.1255 13.2752Q14.9226 13.1416 14.7102 13.0238Q14.4977 12.9059 14.2769 12.8046Q14.0561 12.7032 13.8282 12.6189Q14.2117 12.1848 14.5109 11.6887Q14.8101 11.1926 15.0151 10.6508Q15.2201 10.1089 15.3244 9.53907Q15.4286 8.96921 15.4286 8.38989L15.4286 8.38789Q15.4286 8.23108 15.4209 8.07445Q15.4132 7.91782 15.3978 7.76177Q15.3824 7.60571 15.3594 7.45059Q15.3364 7.29547 15.3058 7.14167Q15.2752 6.98787 15.2371 6.83576Q15.199 6.68364 15.1535 6.53358Q15.108 6.38352 15.0552 6.23587Q15.0023 6.08823 14.9423 5.94335Q14.8823 5.79847 14.8153 5.65671Q14.7482 5.51496 14.6743 5.37666Q14.6004 5.23836 14.5198 5.10386Q14.4391 4.96935 14.352 4.83897Q14.2649 4.70858 14.1715 4.58263Q14.0781 4.45667 13.9786 4.33545Q13.8791 4.21424 13.7738 4.09804Q13.6685 3.98185 13.5576 3.87097Q13.4467 3.76008 13.3305 3.65478Q13.2143 3.54947 13.0931 3.44998Q12.9719 3.3505 12.8459 3.25709Q12.72 3.16367 12.5896 3.07655Q12.4592 2.98943 12.3247 2.90881Q12.1902 2.8282 12.0519 2.75427Q11.9136 2.68035 11.7719 2.61331Q11.6301 2.54626 11.4852 2.48625Q11.3403 2.42624 11.1927 2.37341Q11.045 2.32058 10.895 2.27506Q10.7449 2.22954 10.5928 2.19144Q10.4407 2.15333 10.2869 2.12274Q10.1331 2.09215 9.97798 2.06914Q9.82286 2.04613 9.66681 2.03076Q9.51075 2.01539 9.35412 2.00769Q9.1975 2 9.04068 2Z"
            fill="#7EBA61" fill-rule="evenodd" id="Combined-Shape" stroke="none" />
    </g>
</svg>