<?xml version="1.0" encoding="utf-8"?>
<svg xmlns:xlink="http://www.w3.org/1999/xlink" height="122px" version="1.1" viewBox="0 0 361 122"
    width="361px" xmlns="http://www.w3.org/2000/svg">
    <defs>
        <rect height="121.81765" id="artboard_1" width="361" />
        <clipPath id="clip_1">
            <use clip-rule="evenodd" xlink:href="#artboard_1" />
        </clipPath>
    </defs>
    <g clip-path="url(#clip_1)" id="ElementsVisualLoginTop">
        <g id="Group-2" transform="translate(79 7)">
            <path
                d="M115.851 4.9738e-14L115.849 4.9738e-14Q113.141 4.99859e-14 110.435 0.1262Q107.729 0.2524 105.032 0.504526Q102.336 0.756651 99.6534 1.13416Q96.9712 1.51166 94.3095 2.01372Q91.6477 2.51578 89.0123 3.14131Q86.3769 3.76684 83.7735 4.51448Q81.17 5.26212 78.6043 6.13025Q76.0385 6.99837 73.516 7.9851Q70.9935 8.97182 68.5197 10.075Q66.0458 11.1782 63.6261 12.3954Q61.2064 13.6127 58.846 14.9413Q56.4856 16.27 54.1897 17.7072Q51.8938 19.1444 49.6673 20.687Q47.4408 22.2296 45.2887 23.8742Q43.1365 25.5189 41.0633 27.262Q38.9901 29.0052 37.0003 30.843Q35.0106 32.6809 33.1086 34.6094Q31.2067 36.538 29.3966 38.5531Q27.5866 40.5681 25.8724 42.6654Q24.1582 44.7626 22.5436 46.9374Q20.929 49.1122 19.4175 51.3599Q17.9059 53.6075 16.5008 55.9232Q15.0956 58.2389 13.7998 60.6175Q12.5041 62.9961 11.3206 65.4325Q10.1371 67.8689 9.06833 70.3578Q7.99961 72.8467 7.04802 75.3827Q6.09642 77.9186 5.26401 80.4962Q4.4316 83.0738 3.72019 85.6873Q3.00878 88.3009 2.41991 90.9448Q1.83104 93.5886 1.36599 96.2571Q0.900944 98.9255 0.560727 101.613Q0.220509 104.3 0.00586168 107L231.695 107Q231.48 104.3 231.14 101.613Q230.8 98.9255 230.335 96.2571Q229.87 93.5886 229.281 90.9448Q228.692 88.3009 227.981 85.6873Q227.269 83.0738 226.437 80.4962Q225.604 77.9186 224.653 75.3827Q223.701 72.8467 222.633 70.3578Q221.564 67.8689 220.38 65.4325Q219.197 62.9961 217.901 60.6175Q216.605 58.2389 215.2 55.9232Q213.795 53.6075 212.283 51.3599Q210.772 49.1122 209.157 46.9374Q207.543 44.7626 205.828 42.6654Q204.114 40.5681 202.304 38.5531Q200.494 36.538 198.592 34.6094Q196.69 32.6809 194.701 30.843Q192.711 29.0052 190.638 27.262Q188.564 25.5189 186.412 23.8742Q184.26 22.2296 182.034 20.687Q179.807 19.1444 177.511 17.7072Q175.215 16.27 172.855 14.9413Q170.494 13.6127 168.075 12.3954Q165.655 11.1782 163.181 10.075Q160.707 8.97182 158.185 7.9851Q155.662 6.99837 153.097 6.13025Q150.531 5.26212 147.927 4.51448Q145.324 3.76684 142.689 3.14131Q140.053 2.51578 137.391 2.01372Q134.73 1.51166 132.047 1.13416Q129.365 0.756651 126.668 0.504526Q123.971 0.2524 121.266 0.1262Q118.56 4.9738e-14 115.851 4.9738e-14Z"
                fill="#FFF8E2" fill-rule="evenodd" id="Combined-Shape" stroke="none" />
            <path
                d="M115.689 14L115.687 14Q113.333 14 110.981 14.1097Q108.629 14.2194 106.285 14.4385Q103.941 14.6577 101.61 14.9858Q99.2789 15.3139 96.9655 15.7503Q94.6521 16.1866 92.3615 16.7303Q90.071 17.274 87.8083 17.9238Q85.5455 18.5737 83.3155 19.3282Q81.0855 20.0828 78.8931 20.9404Q76.7007 21.798 74.5506 22.7569Q72.4005 23.7157 70.2974 24.7737Q68.1943 25.8317 66.1428 26.9865Q64.0913 28.1413 62.0959 29.3905Q60.1004 30.6397 58.1653 31.9804Q56.2302 33.3212 54.3597 34.7507Q52.4892 36.1802 50.6873 37.6953Q48.8854 39.2103 47.1561 40.8077Q45.4268 42.4051 43.7738 44.0814Q42.1207 45.7576 40.5476 47.509Q38.9745 49.2604 37.4846 51.0833Q35.9948 52.9061 34.5915 54.7963Q33.1883 56.6866 31.8746 58.6402Q30.5609 60.5938 29.3397 62.6065Q28.1185 64.6191 26.9924 66.6865Q25.8662 68.7539 24.8377 70.8715Q23.8091 72.9891 22.8803 75.1524Q21.9515 77.3156 21.1245 79.5198Q20.2975 81.724 19.5741 83.9642Q18.8507 86.2046 18.2325 88.4761Q17.6143 90.7477 17.1026 93.0456Q16.5909 95.3435 16.1868 97.6628Q15.7827 99.982 15.4871 102.318Q15.1915 104.653 15.0051 107L216.371 107Q216.184 104.653 215.888 102.318Q215.593 99.982 215.189 97.6628Q214.785 95.3435 214.273 93.0456Q213.761 90.7477 213.143 88.4761Q212.525 86.2046 211.801 83.9642Q211.078 81.724 210.251 79.5198Q209.424 77.3156 208.495 75.1524Q207.566 72.9891 206.538 70.8715Q205.509 68.7539 204.383 66.6865Q203.257 64.6191 202.036 62.6065Q200.815 60.5938 199.501 58.6402Q198.187 56.6866 196.784 54.7963Q195.381 52.9061 193.891 51.0833Q192.401 49.2604 190.828 47.509Q189.255 45.7576 187.602 44.0814Q185.949 42.4051 184.219 40.8077Q182.49 39.2103 180.688 37.6953Q178.886 36.1802 177.016 34.7507Q175.145 33.3212 173.21 31.9804Q171.275 30.6397 169.28 29.3905Q167.284 28.1413 165.233 26.9865Q163.181 25.8317 161.078 24.7737Q158.975 23.7157 156.825 22.7569Q154.675 21.798 152.483 20.9404Q150.29 20.0828 148.06 19.3282Q145.83 18.5737 143.567 17.9238Q141.305 17.274 139.014 16.7303Q136.723 16.1866 134.41 15.7503Q132.097 15.3139 129.765 14.9858Q127.434 14.6577 125.09 14.4385Q122.746 14.2194 120.395 14.1097Q118.043 14 115.689 14Z"
                fill="#FFEAAE" fill-rule="evenodd" id="Combined-Shape" stroke="none" />
        </g>
        <g id="Group-33" transform="translate(69 37)">
            <g id="Group-32">
                <g id="coins-2-copy-3" transform="translate(118.5933 37.260273)">
                    <g id="Group-17">
                        <path
                            d="M0 0L3.58124 0Q3.7385 0 3.895 0.015414Q4.0515 0.0308279 4.20574 0.0615074Q4.35997 0.0921868 4.51046 0.137836Q4.66094 0.183486 4.80623 0.243666Q4.95152 0.303846 5.09021 0.377976Q5.2289 0.452107 5.35965 0.539475Q5.49041 0.626843 5.61197 0.726606Q5.73353 0.826369 5.84473 0.937567Q5.95593 1.04877 6.05569 1.17033Q6.15545 1.29189 6.24282 1.42264Q6.33019 1.5534 6.40432 1.69209Q6.47845 1.83078 6.53863 1.97606Q6.59881 2.12135 6.64446 2.27184Q6.69011 2.42232 6.72079 2.57656Q6.75147 2.7308 6.76688 2.8873Q6.7823 3.0438 6.7823 3.20105L6.7823 3.20305Q6.7823 3.36031 6.76688 3.51681Q6.75147 3.67331 6.72079 3.82755Q6.69011 3.98179 6.64446 4.13227Q6.59881 4.28276 6.53863 4.42804Q6.47845 4.57333 6.40432 4.71202Q6.33019 4.85071 6.24282 4.98146Q6.15545 5.11222 6.05569 5.23378Q5.95593 5.35534 5.84473 5.46654Q5.73353 5.57774 5.61197 5.6775Q5.49041 5.77727 5.35965 5.86463Q5.2289 5.952 5.09021 6.02613Q4.95152 6.10026 4.80623 6.16044Q4.66094 6.22062 4.51046 6.26627Q4.35997 6.31192 4.20574 6.3426Q4.0515 6.37328 3.895 6.3887Q3.7385 6.40411 3.58124 6.40411L0 6.40411L0 0Z"
                            fill="#FFFFFF" fill-rule="evenodd" id="Rectangle" stroke="none" />
                        <path
                            d="M0 5.12329L4.29729 5.12329Q4.48601 5.12329 4.67382 5.14179Q4.86163 5.16028 5.04672 5.1971Q5.23182 5.23392 5.41241 5.2887Q5.593 5.34348 5.76735 5.4157Q5.94171 5.48792 6.10814 5.57688Q6.27458 5.66584 6.43149 5.77069Q6.58841 5.87554 6.73429 5.99526Q6.88017 6.11498 7.01362 6.24843Q7.14706 6.38187 7.26678 6.52775Q7.3865 6.67363 7.49135 6.83055Q7.5962 6.98746 7.68516 7.1539Q7.77412 7.32033 7.84634 7.49469Q7.91856 7.66904 7.97334 7.84963Q8.02813 8.03023 8.06494 8.21532Q8.10176 8.40041 8.12026 8.58822Q8.13876 8.77603 8.13876 8.96475L8.13876 8.96675Q8.13876 9.15547 8.12026 9.34328Q8.10176 9.53109 8.06494 9.71619Q8.02813 9.90128 7.97334 10.0819Q7.91856 10.2625 7.84634 10.4368Q7.77412 10.6112 7.68516 10.7776Q7.5962 10.944 7.49135 11.101Q7.38651 11.2579 7.26678 11.4038Q7.14706 11.5496 7.01362 11.6831Q6.88017 11.8165 6.73429 11.9362Q6.58841 12.056 6.43149 12.1608Q6.27458 12.2657 6.10814 12.3546Q5.94171 12.4436 5.76735 12.5158Q5.593 12.588 5.41241 12.6428Q5.23182 12.6976 5.04672 12.7344Q4.86163 12.7712 4.67382 12.7897Q4.48601 12.8082 4.29729 12.8082L1.999 12.8082Q1.9008 12.8082 1.80306 12.7986Q1.70533 12.789 1.60901 12.7698Q1.5127 12.7506 1.41872 12.7221Q1.32474 12.6936 1.23402 12.6561Q1.14329 12.6185 1.05668 12.5722Q0.970069 12.5259 0.888415 12.4713Q0.806761 12.4168 0.730848 12.3545Q0.654935 12.2922 0.585494 12.2227Q0.516052 12.1533 0.453752 12.0774Q0.391452 12.0015 0.336892 11.9198Q0.282333 11.8381 0.236039 11.7515Q0.189746 11.6649 0.152165 11.5742Q0.114584 11.4835 0.0860763 11.3895Q0.057569 11.2955 0.0384102 11.1992Q0.0192515 11.1029 0.00962573 11.0052Q0 10.9074 0 10.8092L0 5.12329Z"
                            fill="#FFFFFF" fill-rule="evenodd" id="Rectangle-Copy-4"
                            stroke="none" />
                    </g>
                </g>
                <g id="bus-2">
                    <g id="bus">
                        <path
                            d="M37.6726 2.32108L231.655 0.00083216C237.905 -0.0527709 243 5.03952 243 11.3341L243 67.8853C243 74.1492 237.965 79.2262 231.754 79.2262L23.0774 79.2262C16.7138 79.2262 11.6184 73.9118 11.8387 67.5024L13.2435 26.3353C13.6991 13.0264 24.4671 2.4436 37.6726 2.32108ZM238.269 31.9253L238.269 11.3417C238.269 7.71202 235.353 4.77151 231.746 4.79448L200.999 5.16204L196.951 5.20799L157.487 5.6751L153.439 5.72105L113.975 6.19582L109.927 6.24176L70.4624 6.70887L66.4149 6.75482L37.7106 7.09941C27.0034 7.1913 18.3313 15.7218 17.9668 26.5037L17.1239 51.2071L24.6949 51.2071C32.4329 51.2071 39.7609 47.6616 44.5981 41.5662C47.0205 38.5185 50.0656 36.114 53.46 34.46C56.862 32.8136 60.6285 31.9253 64.5013 31.9253L238.269 31.9253Z"
                            fill="#7EBA61" fill-rule="evenodd" id="Combined-Shape" stroke="none" />
                        <path
                            d="M196.967 73.0312C196.967 65.2588 190.717 58.9566 183.009 58.9566C175.302 58.9566 169.052 65.2588 169.052 73.0312C169.052 75.2596 169.568 77.3577 170.48 79.2262L195.554 79.2262C196.45 77.3577 196.967 75.2596 196.967 73.0312Z"
                            fill="#2F3235" id="Path" stroke="none" />
                        <g id="Group" transform="translate(0 10.629557)">
                            <path
                                d="M92.2565 44.2915L127.324 44.2915L127.324 68.5966L92.2565 68.5966L92.2565 44.2915Z"
                                fill="#709F59" id="Rectangle" stroke="none" />
                            <path
                                d="M129.701 44.2915L164.769 44.2915L164.769 68.5966L129.701 68.5966L129.701 44.2915Z"
                                fill="#709F59" id="Rectangle" stroke="none" />
                            <path
                                d="M5.33081 6.08255e-16C2.38444 6.08255e-16 0 2.41214 0 5.37562L0 14.3733C0 16.3566 1.59469 17.9647 3.56147 17.9647C5.52825 17.9647 7.12294 16.3566 7.12294 14.3733L7.12294 4.81662L16.1443 4.81662C17.0708 3.07835 18.1946 1.4626 19.4856 0.00765758L19.4856 1.42109e-14L5.33081 6.08255e-16L5.33081 6.08255e-16Z"
                                fill="#BAD450" id="Path" stroke="none" />
                        </g>
                        <path
                            d="M86.1511 73.0312C86.1511 65.2588 79.9014 58.9566 72.1938 58.9566C64.4861 58.9566 58.2365 65.2588 58.2365 73.0312C58.2365 75.2596 58.7528 77.3577 59.6641 79.2262L84.7387 79.2262C85.6347 77.3577 86.1511 75.2596 86.1511 73.0312Z"
                            fill="#2F3235" id="Path" stroke="none" />
                        <path
                            d="M72.1862 85C78.7413 85 84.0552 79.6414 84.0552 73.0312C84.0552 66.421 78.7413 61.0624 72.1862 61.0624C65.6311 61.0624 60.3172 66.421 60.3172 73.0312C60.3172 79.6414 65.6311 85 72.1862 85Z"
                            fill="#3F4347" id="Oval" stroke="none" />
                        <path
                            d="M72.1862 80.2676C76.1494 80.2676 79.3623 77.0278 79.3623 73.0312C79.3623 69.0346 76.1494 65.7948 72.1862 65.7948C68.2229 65.7948 65.0101 69.0346 65.0101 73.0312C65.0101 77.0278 68.2229 80.2676 72.1862 80.2676Z"
                            fill="#DAE5EF" id="Oval" stroke="none" />
                        <path
                            d="M182.857 85C189.413 85 194.727 79.6414 194.727 73.0312C194.727 66.421 189.413 61.0624 182.857 61.0624C176.302 61.0624 170.988 66.421 170.988 73.0312C170.988 79.6414 176.302 85 182.857 85Z"
                            fill="#3F4347" id="Oval" stroke="none" />
                        <path
                            d="M182.857 80.2676C186.821 80.2676 190.034 77.0278 190.034 73.0312C190.034 69.0346 186.821 65.7948 182.857 65.7948C178.894 65.7948 175.681 69.0346 175.681 73.0312C175.681 77.0278 178.894 80.2676 182.857 80.2676Z"
                            fill="#DAE5EF" id="Oval" stroke="none" />
                        <path
                            d="M234.89 54.9287L243 54.9287L243 67.2038L234.89 67.2038L234.89 54.9287Z"
                            fill="#E14B4B" id="Rectangle" stroke="none" />
                        <path
                            d="M17.1239 69.9682L17.1239 59.7147C17.1239 59.2399 16.6227 58.857 16 58.857L12.1348 58.857L11.8387 67.5024C11.8007 68.6587 11.9829 69.7614 12.2715 70.8258L16 70.8258C16.6227 70.8182 17.1239 70.4353 17.1239 69.9682Z"
                            fill="#E9EFF4" id="Path" stroke="none" />
                        <path
                            d="M238.269 11.3417L238.269 31.9253L64.5013 31.9253C60.6285 31.9253 56.862 32.8136 53.46 34.46C50.0656 36.114 47.0205 38.5185 44.5981 41.5662C39.7609 47.6616 32.4329 51.2071 24.6949 51.2071L17.1239 51.2071L17.9668 26.5037C18.3313 15.7218 27.0034 7.1913 37.7106 7.09941L66.4149 6.75482L70.4624 6.70887L109.927 6.24176L113.975 6.19582L153.439 5.72105L157.487 5.6751L196.951 5.20799L200.999 5.16204L231.746 4.79448C235.353 4.77151 238.269 7.71202 238.269 11.3417Z"
                            fill="#3F4347" fill-opacity="0.49697948" id="Path" stroke="none" />
                        <path
                            d="M238.269 14.6651L238.269 31.9253L64.5013 31.9253C60.6285 31.9253 56.862 32.8136 53.46 34.46C50.058 36.114 47.0205 38.5185 44.5981 41.5662C39.7533 47.6616 32.4329 51.2071 24.6949 51.2071L12.393 51.2071L12.1348 58.8647L24.6949 58.8647C34.7946 58.8647 44.2032 54.3084 50.5212 46.3598C52.2146 44.231 54.3181 42.5464 56.7405 41.3671C59.1401 40.2108 61.8283 39.5905 64.5013 39.5905L243 39.5905L243 14.6651L238.269 14.6651L238.269 14.6651Z"
                            fill="#BAD450" id="Path" stroke="none" />
                        <path
                            d="M0 16.4417L0 25.0105C0 26.9938 1.59469 28.6019 3.56147 28.6019C5.52825 28.6019 7.12294 26.9938 7.12294 25.0105L7.12294 16.4417L0 16.4417Z"
                            fill="#3F4347" id="Path" stroke="none" />
                        <g id="Group" transform="translate(52.928436 6.1268983)">
                            <path
                                d="M61.0537 0.0536031L57.0063 0.0995486L51.8577 0.160809L26.4338 25.7984L39.7381 25.7984L65.3214 0L61.0537 0.0536031Z"
                                fill="#FFFFFF" fill-opacity="0.30221203" id="Path" stroke="none" />
                            <path
                                d="M43.5122 0.229727L18.1491 25.8061L11.5425 25.8061C7.66969 25.8061 3.94875 26.725 0.531563 28.3331C0.379688 28.4096 0.151875 28.4862 -3.60822e-16 28.6394L27.945 0.382879L43.5122 0.229727Z"
                                fill="#FFFFFF" fill-opacity="0.30221203" id="Path" stroke="none" />
                        </g>
                    </g>
                </g>
                <g id="Group-13" opacity="0.40422875" transform="translate(2.3253589 10.126553)">
                    <path
                        d="M5.26388 14.0127L5.26388 7.29977L5.26388 6.5192L1.05412 6.5192L1.05412 7.29977L1.05412 14.0127L1.05412 14.0187C1.05412 14.8522 0.645355 15.5986 0 16.1142C0.559055 16.5608 1.29534 16.8347 2.10488 16.8347C3.8494 16.8347 5.26388 15.5738 5.26388 14.0187L5.26388 14.0127Z"
                        fill="#5A5F63" fill-rule="evenodd" id="Fill-1" stroke="none" />
                    <path
                        d="M10.1962 4.54143L10.2142 4.54143C10.2689 4.43853 10.3178 4.33228 10.3743 4.22986C10.3163 4.33467 10.2527 4.43566 10.1962 4.54143"
                        fill="#5A5F63" fill-rule="evenodd" id="Fill-3" stroke="none" />
                    <path
                        d="M14.4967 0.132573L14.4739 0.132573L14.4739 0.14023C14.4145 0.207234 14.3604 0.278546 14.302 0.346029C14.3651 0.273281 14.4326 0.204841 14.4967 0.132573"
                        fill="#5A5F63" fill-rule="evenodd" id="Fill-5" stroke="none" />
                    <path
                        d="M76.8278 68.6539C74.8884 71.6786 71.6705 73.8882 67.8826 74.6152C68.764 74.7843 69.6753 74.8735 70.6096 74.8735C75.5581 74.8735 79.8914 72.3818 82.2819 68.6539L79.5805 68.6539L76.8278 68.6539Z"
                        fill="#5A5F63" fill-rule="evenodd" id="Fill-7" stroke="none" />
                    <path
                        d="M187.908 68.6539C185.969 71.6786 182.751 73.8882 178.963 74.6152C179.845 74.7843 180.756 74.8735 181.69 74.8735C186.639 74.8735 190.972 72.3818 193.363 68.6539L190.827 68.6539L187.908 68.6539Z"
                        fill="#5A5F63" fill-rule="evenodd" id="Fill-11" stroke="none" />
                </g>
            </g>
        </g>
        <g id="clouds-2" transform="translate(304 0)">
            <g id="clouds">
                <path
                    d="M15.2313 12.8008L18.9671 12.8008C20.3626 10.2529 22.7476 8.32095 25.6101 7.51788C25.0342 6.12632 23.659 5.14675 22.0535 5.14675C21.6522 5.14675 21.2656 5.20827 20.9022 5.3215C20.9041 5.26338 20.9067 5.20536 20.9067 5.14675C20.9067 2.30455 18.5908 1.38114e-15 15.7348 1.38114e-15C13.2716 1.38114e-15 11.2124 1.71364 10.6916 4.00799C10.3822 3.90536 10.0521 3.84918 9.70826 3.84918C8.65025 3.84918 7.71626 4.37633 7.15619 5.18096C6.84369 5.10078 6.51557 5.05734 6.17777 5.05734C4.02932 5.05734 2.28771 6.79071 2.28771 8.92897C2.28771 11.0668 4.02942 12.8006 6.17777 12.8006L12.3972 12.8006"
                    fill="#FFFBF0" id="Path" stroke="none" />
                <path
                    d="M36.4783 10.4574C34.4795 8.3296 31.6339 6.99957 28.4762 6.99957C23.2606 6.99957 18.8994 10.6291 17.7963 15.4881C17.1416 15.2708 16.4423 15.1512 15.7144 15.1512C13.4735 15.1512 11.4961 16.2679 10.31 17.9718C9.64801 17.8017 8.95376 17.7102 8.23813 17.7102C3.6883 17.7102 0 21.3809 0 25.9089C0 30.4368 3.6883 34.1079 8.23813 34.1079L17.3213 34.1079C17.3404 31.321 19.6152 29.0678 22.4196 29.0678C22.9514 29.0678 23.4642 29.149 23.9462 29.2993C23.944 29.2226 23.9405 29.1456 23.9405 29.0678C23.9405 25.2982 27.011 22.2422 30.7987 22.2422C34.0647 22.2422 36.7958 24.5152 37.4865 27.5576C37.8964 27.4215 38.334 27.3467 38.7899 27.3467C40.193 27.3467 41.4316 28.0459 42.1742 29.1131C42.5887 29.0064 43.0234 28.9491 43.4714 28.9491C45.3495 28.9491 46.9927 29.9481 47.8948 31.4407C49.203 30.003 50 28.096 50 26.004C50 21.5278 46.3543 17.8999 41.857 17.8999C41.0078 17.8999 40.189 18.0295 39.4192 18.2695C39.4232 18.1468 39.4286 18.0237 39.4286 17.8999C39.4286 16.0697 38.9753 14.3448 38.1741 12.8302"
                    fill="#FFF3D3" id="Path" stroke="none" />
                <path
                    d="M8.73462 17.7254C8.57036 17.7155 8.40493 17.7101 8.23813 17.7101C3.6883 17.71 0 21.3808 0 25.9088C0 30.4367 3.6883 34.1078 8.23813 34.1078L17.3213 34.1078C17.3273 33.2333 17.5557 32.4114 17.9525 31.6953C13.4614 28.2554 10.1525 23.3638 8.73462 17.7254Z"
                    fill="#F1E4C2" id="Path" stroke="none" />
                <path
                    d="M7.97016 11.5331C7.97016 8.87377 8.3811 6.3103 9.14195 3.90098C8.32143 4.05172 7.61401 4.52367 7.15629 5.18106C6.84379 5.10088 6.51566 5.05744 6.17787 5.05744C4.02942 5.05744 2.28781 6.79081 2.28781 8.92907C2.28781 11.0669 4.02952 12.8007 6.17787 12.8007L8.0019 12.8007C7.9812 12.3806 7.97016 11.9582 7.97016 11.5331Z"
                    fill="#F5EFDE" id="Path" stroke="none" />
                <path
                    d="M43.4715 28.7322C43.0235 28.7322 42.5886 28.7893 42.1743 28.8962C41.4317 27.8289 40.1931 27.1298 38.79 27.1298C38.3341 27.1298 37.8965 27.2045 37.4866 27.3407C36.7958 24.2982 34.0648 22.0253 30.7988 22.0253C27.0111 22.0253 23.9406 25.0812 23.9406 28.8509C23.9406 28.9287 23.944 29.0056 23.9463 29.0824C23.4643 28.9321 22.9515 28.8509 22.4197 28.8509C19.6037 28.8509 17.3208 31.1225 17.3208 33.9258C17.3208 36.7282 19.6038 39 22.4197 39L37.6863 39L40.5196 39L43.4717 39C46.3209 39 48.6307 36.7014 48.6307 33.8661C48.6305 31.0306 46.3207 28.7322 43.4715 28.7322Z"
                    fill="#FFFBF0" id="Path" stroke="none" />
                <path
                    d="M27.8574 27.4234C27.8574 25.5917 28.248 23.8509 28.9497 22.2781C26.0605 23.0816 23.9404 25.7189 23.9404 28.8507C23.9404 28.9285 23.9438 29.0054 23.9461 29.0822C23.4641 28.9319 22.9513 28.8507 22.4195 28.8507C19.6035 28.8507 17.3206 31.1223 17.3206 33.9256C17.3206 36.728 19.6036 38.9998 22.4195 38.9998L35.3763 38.9998C30.9435 37.012 27.8574 32.5764 27.8574 27.4234Z"
                    fill="#F5EFDE" id="Path" stroke="none" />
            </g>
        </g>
        <g id="tree-2" transform="translate(311 42)">
            <g id="tree" transform="matrix(1 0 0 1 3.5527137E-15 0)">
                <path
                    d="M46.4297 26.4777L46.4297 26.4777C47.9564 24.3269 48.8639 21.7013 48.8639 18.8573C48.8639 11.5986 43.0131 5.71444 35.7957 5.71444C35.6888 5.71444 35.5851 5.72794 35.4789 5.73061C33.2496 2.28389 29.3931 0 25.0001 0C19.904 0 15.528 3.07167 13.5818 7.4707C5.77176 9.52256 3.97411e-15 16.6454 3.97411e-15 25.1429C3.97411e-15 29.815 1.75692 34.0642 4.62378 37.2966C4.57428 37.8104 4.54534 38.3303 4.54534 38.8572C4.54534 47.6938 11.6681 54.8573 20.4545 54.8573C21.4122 54.8573 25.2261 54.7713 26.1364 54.6071L26.5215 50.6471C28.7725 51.874 31.3506 52.5715 34.0908 52.5715C42.8772 52.5715 50 45.4081 50 36.5715C50.0003 32.743 48.6596 29.2316 46.4297 26.4777Z"
                    fill="#AFD755" id="Path" stroke="none" />
                <path
                    d="M26.1365 48.8431C24.3132 49.3162 22.2942 49.3003 20.1364 48.2753C17.214 46.8872 15.0964 44.0658 14.8096 40.8284C14.6969 39.5567 14.8471 38.3348 15.2074 37.2075C15.349 36.7643 15.1667 36.2935 14.8087 35.9982C12.0152 33.6938 10.2273 30.2029 10.2273 26.2856C10.2273 21.2022 13.233 16.8355 17.5503 14.8559C18.0008 14.6493 18.2914 14.1989 18.2415 13.7035C18.204 13.331 18.1819 12.954 18.1819 12.5713C18.1819 6.61753 22.3019 1.64222 27.8279 0.342C26.9176 0.129375 25.9751 0 25.0001 0C19.904 0 15.528 3.07167 13.5818 7.4707C5.77176 9.52256 5.96116e-15 16.6454 5.96116e-15 25.1429C5.96116e-15 29.815 1.75692 34.0642 4.62378 37.2966C4.57428 37.8104 4.54534 38.3303 4.54534 38.8572C4.54534 47.6938 11.6681 54.8573 20.4545 54.8573C21.4122 54.8573 25.2261 54.7713 26.1364 54.6071L26.1364 51.1147L26.1364 48.8431L26.1365 48.8431Z"
                    fill="#96BE4B" id="Path" stroke="none" />
                <path
                    d="M23.8638 49.1428C23.8273 49.1428 23.7922 49.1377 23.7558 49.1373L22.7274 70.8571L29.5456 70.8571L28.5393 49.6053C28.5032 48.844 27.7455 48.2951 27.0362 48.5633C26.049 48.9365 24.9811 49.1428 23.8638 49.1428Z"
                    fill="#AF6E5A" id="Path" stroke="none" />
                <path
                    d="M28.5393 49.6053C28.5032 48.844 27.7455 48.2951 27.0362 48.5633C26.049 48.9365 24.9811 49.143 23.8638 49.143C23.8273 49.143 23.7922 49.1379 23.7558 49.1375L22.7274 70.8573L26.1365 70.8573L26.1365 52.2523C26.1365 51.7603 26.4496 51.3236 26.9135 51.1681L28.5868 50.6071L28.5393 49.6053Z"
                    fill="#965A50" id="Path" stroke="none" />
                <path
                    d="M31.8184 72L20.4547 72C19.8271 72 19.3183 71.4888 19.3183 70.8571C19.3183 70.2254 19.8271 69.7143 20.4547 69.7143L31.8184 69.7143C32.4459 69.7143 32.9547 70.2254 32.9547 70.8571C32.9547 71.4888 32.4459 72 31.8184 72Z"
                    fill="#96BE4B" id="Path" stroke="none" />
            </g>
        </g>
        <path
            d="M195 112C215.987 112 233 94.9868 233 74C233 53.0132 215.987 36 195 36C174.013 36 157 53.0132 157 74C157 94.9868 174.013 112 195 112Z"
            fill="#BAD450" id="Oval" stroke="none" />
        <path
            d="M195 106C212.673 106 227 91.6731 227 74C227 56.3269 212.673 42 195 42C177.327 42 163 56.3269 163 74C163 91.6731 177.327 106 195 106Z"
            fill="#7EBA61" fill-rule="evenodd" id="Oval" stroke="none" />
        <g id="ElementLogo" transform="translate(181.94444 54.5)">
            <path
                d="M15.5566 0L0 0L0 38.001Q0 38.0992 0.00962573 38.1969Q0.0192515 38.2947 0.0384102 38.391Q0.057569 38.4873 0.0860763 38.5813Q0.114584 38.6753 0.152165 38.766Q0.189746 38.8567 0.236039 38.9433Q0.282333 39.0299 0.336892 39.1116Q0.391452 39.1932 0.453752 39.2692Q0.516052 39.3451 0.585494 39.4145Q0.654935 39.4839 0.730848 39.5462Q0.806761 39.6085 0.888415 39.6631Q0.970069 39.7177 1.05668 39.764Q1.14329 39.8102 1.23402 39.8478Q1.32474 39.8854 1.41872 39.9139Q1.5127 39.9424 1.60901 39.9616Q1.70533 39.9807 1.80306 39.9904Q1.9008 40 1.999 40L20.001 40Q20.2737 40 20.5461 39.9866Q20.8186 39.9732 21.09 39.9465Q21.3614 39.9198 21.6312 39.8797Q21.901 39.8397 22.1685 39.7865Q22.436 39.7333 22.7005 39.667Q22.9651 39.6008 23.2261 39.5216Q23.4871 39.4424 23.7439 39.3505Q24.0007 39.2587 24.2527 39.1543Q24.5046 39.0499 24.7512 38.9333Q24.9977 38.8167 25.2383 38.6881Q25.4788 38.5596 25.7127 38.4193Q25.9467 38.2791 26.1734 38.1276Q26.4002 37.9761 26.6193 37.8136Q26.8383 37.6511 27.0492 37.4781Q27.26 37.3051 27.4621 37.1219Q27.6642 36.9388 27.857 36.7459Q28.0499 36.5531 28.233 36.351Q28.4162 36.1489 28.5892 35.9381Q28.7623 35.7272 28.9247 35.5082Q29.0872 35.2891 29.2387 35.0623Q29.3902 34.8356 29.5305 34.6016Q29.6707 34.3677 29.7992 34.1272Q29.9278 33.8866 30.0444 33.6401Q30.161 33.3935 30.2654 33.1415Q30.3698 32.8896 30.4617 32.6328Q30.5535 32.376 30.6327 32.115Q30.7119 31.854 30.7782 31.5894Q30.8444 31.3249 30.8976 31.0574Q30.9508 30.7899 30.9909 30.5201Q31.0309 30.2503 31.0576 29.9789Q31.0843 29.7074 31.0977 29.435Q31.1111 29.1626 31.1111 28.8899L31.1111 28.8879Q31.1111 28.466 31.0791 28.0454Q31.0471 27.6247 30.9833 27.2077Q30.9195 26.7907 30.8243 26.3797Q30.729 25.9687 30.6029 25.5661Q30.4768 25.1636 30.3205 24.7717Q30.1642 24.3799 29.9786 24.001Q29.7931 23.6221 29.5793 23.2584Q29.3655 22.8947 29.1248 22.5483Q28.8841 22.2018 28.6178 21.8746Q28.3515 21.5474 28.0611 21.2414Q27.7708 20.9353 27.458 20.6522Q27.1453 20.369 26.812 20.1104Q26.4787 19.8518 26.1268 19.6191Q25.7748 19.3865 25.4062 19.1813Q25.0377 18.976 24.6546 18.7993Q24.2715 18.6226 23.8761 18.4755Q24.2098 18.0985 24.508 17.6929Q24.8062 17.2873 25.0664 16.8564Q25.3267 16.4255 25.547 15.9728Q25.7672 15.5201 25.9456 15.0493Q26.124 14.5786 26.2591 14.0936Q26.3942 13.6086 26.4849 13.1135Q26.5756 12.6183 26.6211 12.1169Q26.6667 11.6155 26.6667 11.1121L26.6667 11.1101Q26.6667 10.8374 26.6533 10.565Q26.6399 10.2926 26.6132 10.0211Q26.5864 9.74971 26.5464 9.47992Q26.5064 9.21013 26.4532 8.94263Q26.4 8.67514 26.3337 8.41057Q26.2674 8.14601 26.1883 7.88502Q26.1091 7.62402 26.0172 7.36723Q25.9253 7.11043 25.821 6.85845Q25.7166 6.60648 25.6 6.35993Q25.4834 6.11337 25.3548 5.87284Q25.2262 5.63231 25.086 5.39837Q24.9458 5.16444 24.7943 4.93766Q24.6427 4.71089 24.4803 4.49182Q24.3178 4.27276 24.1448 4.06193Q23.9718 3.8511 23.7886 3.64902Q23.6054 3.44693 23.4126 3.25408Q23.2197 3.06122 23.0177 2.87806Q22.8156 2.6949 22.6047 2.52188Q22.3939 2.34886 22.1748 2.18639Q21.9558 2.02392 21.729 1.87239Q21.5022 1.72087 21.2683 1.58065Q21.0344 1.44044 20.7938 1.31187Q20.5533 1.1833 20.3067 1.06669Q20.0602 0.950079 19.8082 0.845707Q19.5562 0.741334 19.2994 0.649452Q19.0426 0.557569 18.7817 0.478398Q18.5207 0.399226 18.2561 0.332956Q17.9915 0.266686 17.724 0.213478Q17.4565 0.160269 17.1867 0.12025Q16.917 0.0802312 16.6455 0.0534982Q16.3741 0.0267652 16.1017 0.0133826Q15.8293 0 15.5566 0Z"
                fill="#FFFFFF" fill-rule="evenodd" id="Combined-Shape" stroke="none" />
        </g>
    </g>
</svg>