<svg fill="none" height="105" viewBox="0 0 104 105" width="104" xmlns="http://www.w3.org/2000/svg">
    <path clip-rule="evenodd"
        d="M80.2026 14.4907L21.7973 24.9096C17.7819 25.6259 15.0759 29.5356 15.7839 33.598L27.3696 100.072L39.3964 82.6957L90.5011 73.5791C94.5164 72.8628 97.2224 68.953 96.5144 64.8907L88.7906 20.5744C88.0826 16.512 84.218 13.7744 80.2026 14.4907Z"
        fill="url(#paint0_linear_749_26175)" fill-rule="evenodd" />
    <path clip-rule="evenodd"
        d="M74.7661 9.99066L16.3607 20.4096C12.3454 21.1259 9.63935 25.0356 10.3474 29.098L21.9331 95.5725L33.9598 78.1957L85.0645 69.0791C89.0799 68.3628 91.7859 64.453 91.0779 60.3907L83.3541 16.0744C82.646 12.012 78.7815 9.27436 74.7661 9.99066Z"
        fill="url(#paint1_linear_749_26175)" fill-rule="evenodd" />
    <path clip-rule="evenodd"
        d="M51.437 28.9747L38.1621 31.3428L40.9084 47.0997L41.6807 51.5313L44.3338 66.7535C44.3853 67.0488 44.6663 67.2456 44.9614 67.1929L61.5956 64.2256C67.1666 63.2317 70.8952 57.9067 69.9235 52.3318C69.1915 48.132 66.0009 44.9885 62.0897 44.1181C63.2315 42.1131 63.7099 39.7154 63.2836 37.2695C62.3119 31.6946 57.0081 27.9809 51.437 28.9747Z"
        fill="#66974F" fill-rule="evenodd" />
    <path clip-rule="evenodd"
        d="M47.4839 25.9747L34.209 28.3428L36.9552 44.0997L37.7276 48.5313L40.3807 63.7535C40.4321 64.0488 40.7131 64.2456 41.0083 64.1929L57.6425 61.2256C63.2135 60.2317 66.942 54.9067 65.9704 49.3318C65.2384 45.132 62.0478 41.9885 58.1365 41.1181C59.2783 39.1131 59.7567 36.7154 59.3304 34.2695C58.3588 28.6946 53.0549 24.9809 47.4839 25.9747Z"
        fill="white" fill-rule="evenodd" />
    <defs>
        <linearGradient gradientUnits="userSpaceOnUse" id="paint0_linear_749_26175" x1="14.4966"
            x2="27.6632" y1="26.2119" y2="100.02">
            <stop stop-color="#9CC780" stop-opacity="0.01" />
            <stop offset="1" stop-color="#629649" />
        </linearGradient>
        <linearGradient gradientUnits="userSpaceOnUse" id="paint1_linear_749_26175" x1="9.06006"
            x2="22.2267" y1="21.7119" y2="95.5201">
            <stop stop-color="#9AE343" />
            <stop offset="1" stop-color="#66AE43" />
        </linearGradient>
    </defs>
</svg>
