<svg fill="none" height="48" viewBox="0 0 48 48" width="48" xmlns="http://www.w3.org/2000/svg">
    <g id="Social media / ic_Facebook">
        <g filter="url(#filter0_d_962_68280)" id="Path">
            <path clip-rule="evenodd"
                d="M29.3027 14.5H18.6973C17.4858 14.5 16.5 15.4858 16.5 16.6973V27.3027C16.5 28.5142 17.4858 29.5 18.6973 29.5H23.1211V24.1973H21.3633V21.5605H23.1211V19.7734C23.1211 18.3195 24.3038 17.1367 25.7578 17.1367H28.4238V19.7734H26.9245C26.2801 19.7734 25.7578 20.2958 25.7578 20.9401V21.5605H28.4238L27.9844 24.1973H25.7578V29.5H29.3027C30.5142 29.5 31.5 28.5142 31.5 27.3027V16.6973C31.5 15.4858 30.5142 14.5 29.3027 14.5Z"
                fill="white" fill-rule="evenodd" />
        </g>
    </g>
    <defs>
        <filter color-interpolation-filters="sRGB" filterUnits="userSpaceOnUse" height="47"
            id="filter0_d_962_68280" width="47" x="0.5" y="0.5">
            <feFlood flood-opacity="0" result="BackgroundImageFix" />
            <feColorMatrix in="SourceAlpha" result="hardAlpha" type="matrix"
                values="0 0 0 0 0 0 0 0 0 0 0 0 0 0 0 0 0 0 127 0" />
            <feOffset dy="2" />
            <feGaussianBlur stdDeviation="8" />
            <feColorMatrix type="matrix" values="0 0 0 0 0 0 0 0 0 0 0 0 0 0 0 0 0 0 0.5 0" />
            <feBlend in2="BackgroundImageFix" mode="normal" result="effect1_dropShadow_962_68280" />
            <feBlend in="SourceGraphic" in2="effect1_dropShadow_962_68280" mode="normal"
                result="shape" />
        </filter>
    </defs>
</svg>
