<svg fill="none" height="48" viewBox="0 0 48 48" width="48" xmlns="http://www.w3.org/2000/svg">
    <g filter="url(#filter0_d_1423_12762)">
        <path
            d="M30.9337 20.6961L24.8153 20.6958C24.5452 20.6958 24.3262 20.9148 24.3262 21.1849V23.1395C24.3262 23.4096 24.5452 23.6286 24.8153 23.6286H28.2608C27.8835 24.6078 27.1793 25.4277 26.2809 25.9488L27.7501 28.492C30.1068 27.129 31.5001 24.7375 31.5001 22.0604C31.5001 21.6793 31.472 21.4068 31.4158 21.1C31.3731 20.8668 31.1707 20.6961 30.9337 20.6961Z"
            fill="white" />
        <path
            d="M23.9999 26.5653C22.3138 26.5653 20.8418 25.644 20.0512 24.2808L17.5081 25.7466C18.8022 27.9896 21.2267 29.5001 23.9999 29.5001C25.3604 29.5001 26.6441 29.1338 27.7499 28.4954V28.492L26.2808 25.9487C25.6088 26.3385 24.8311 26.5653 23.9999 26.5653Z"
            fill="white" />
        <path
            d="M27.7502 28.4955V28.492L26.2811 25.9487C25.6091 26.3385 24.8315 26.5653 24.0002 26.5653V29.5001C25.3607 29.5001 26.6445 29.1338 27.7502 28.4955Z"
            fill="white" />
        <path
            d="M19.435 21.9999C19.435 21.1688 19.6618 20.3912 20.0515 19.7193L17.5084 18.2534C16.8665 19.3558 16.5002 20.636 16.5002 21.9999C16.5002 23.3639 16.8665 24.6441 17.5084 25.7464L20.0515 24.2806C19.6618 23.6086 19.435 22.8311 19.435 21.9999Z"
            fill="white" />
        <path
            d="M23.9999 17.4348C25.0995 17.4348 26.1094 17.8255 26.8983 18.4754C27.0929 18.6357 27.3758 18.6241 27.5541 18.4458L28.9389 17.061C29.1412 16.8587 29.1268 16.5276 28.9107 16.3402C27.589 15.1935 25.8693 14.5 23.9999 14.5C21.2267 14.5 18.8022 16.0105 17.5081 18.2535L20.0512 19.7193C20.8418 18.3561 22.3138 17.4348 23.9999 17.4348Z"
            fill="white" />
        <path
            d="M26.8986 18.4754C27.0933 18.6357 27.3762 18.6241 27.5544 18.4458L28.9393 17.061C29.1415 16.8587 29.1271 16.5276 28.911 16.3402C27.5893 15.1935 25.8696 14.5 24.0002 14.5V17.4348C25.0998 17.4348 26.1098 17.8255 26.8986 18.4754Z"
            fill="white" />
    </g>
    <defs>
        <filter color-interpolation-filters="sRGB" filterUnits="userSpaceOnUse" height="47"
            id="filter0_d_1423_12762" width="46.9999" x="0.500244" y="0.5">
            <feFlood flood-opacity="0" result="BackgroundImageFix" />
            <feColorMatrix in="SourceAlpha" result="hardAlpha" type="matrix"
                values="0 0 0 0 0 0 0 0 0 0 0 0 0 0 0 0 0 0 127 0" />
            <feOffset dy="2" />
            <feGaussianBlur stdDeviation="8" />
            <feColorMatrix type="matrix" values="0 0 0 0 0 0 0 0 0 0 0 0 0 0 0 0 0 0 0.5 0" />
            <feBlend in2="BackgroundImageFix" mode="normal"
                result="effect1_dropShadow_1423_12762" />
            <feBlend in="SourceGraphic" in2="effect1_dropShadow_1423_12762" mode="normal"
                result="shape" />
        </filter>
    </defs>
</svg>
