<?xml version="1.0" encoding="utf-8"?>
<svg xmlns:xlink="http://www.w3.org/1999/xlink" height="12px" version="1.1" viewBox="0 0 19 12"
    width="19px" xmlns="http://www.w3.org/2000/svg">
    <defs>
        <rect height="11.176468" id="artboard_1" width="19" />
        <clipPath id="clip_1">
            <use clip-rule="evenodd" xlink:href="#artboard_1" />
        </clipPath>
    </defs>
    <g clip-path="url(#clip_1)" id="ic_arrow_down">
        <path
            d="M7.86175 0.751736L1.86581 7.69437Q1.81918 7.74836 1.77651 7.80554Q1.73385 7.86273 1.69537 7.9228Q1.65689 7.98288 1.62279 8.04555Q1.5887 8.10821 1.55915 8.17315Q1.52961 8.23809 1.50477 8.30497Q1.47993 8.37185 1.45992 8.44033Q1.43991 8.50881 1.42484 8.57854Q1.40976 8.64827 1.39969 8.7189Q1.38963 8.78953 1.38462 8.8607Q1.37962 8.93186 1.3797 9.00321Q1.37978 9.07455 1.38494 9.14571Q1.39011 9.21686 1.40033 9.28747Q1.41056 9.35808 1.42579 9.42777Q1.44103 9.49747 1.46119 9.56591Q1.48135 9.63434 1.50634 9.70117Q1.53133 9.76799 1.56102 9.83286Q1.59071 9.89773 1.62495 9.96032Q1.65919 10.0229 1.6978 10.0829Q1.73642 10.1429 1.77921 10.2Q1.822 10.2571 1.86875 10.311Q1.91551 10.3648 1.96598 10.4153Q2.01646 10.4657 2.0704 10.5124Q2.12434 10.5591 2.18147 10.6018Q2.23861 10.6445 2.29864 10.6831Q2.35867 10.7216 2.4213 10.7558Q2.48393 10.7899 2.54884 10.8196Q2.61374 10.8492 2.68059 10.8741Q2.74744 10.899 2.8159 10.9191Q2.88436 10.9392 2.95407 10.9543Q3.02379 10.9695 3.09441 10.9796Q3.16502 10.9898 3.23619 10.9949Q3.30735 11 3.37869 11L15.3705 11Q15.4419 11 15.513 10.9949Q15.5842 10.9898 15.6548 10.9797Q15.7254 10.9695 15.7952 10.9544Q15.8649 10.9392 15.9333 10.9191Q16.0018 10.899 16.0686 10.8741Q16.1355 10.8492 16.2004 10.8196Q16.2653 10.79 16.3279 10.7558Q16.3906 10.7216 16.4506 10.6831Q16.5106 10.6446 16.5678 10.6018Q16.6249 10.5591 16.6788 10.5124Q16.7328 10.4657 16.7832 10.4153Q16.8337 10.3649 16.8805 10.311Q16.9272 10.2571 16.97 10.2Q17.0128 10.1429 17.0514 10.0829Q17.09 10.023 17.1243 9.96036Q17.1585 9.89777 17.1882 9.8329Q17.2179 9.76803 17.2429 9.70121Q17.2679 9.63438 17.288 9.56595Q17.3082 9.49751 17.3234 9.42781Q17.3387 9.35812 17.3489 9.28751Q17.3591 9.2169 17.3643 9.14575Q17.3695 9.07459 17.3695 9.00325Q17.3696 8.93191 17.3646 8.86074Q17.3596 8.78957 17.3495 8.71894Q17.3395 8.64831 17.3244 8.57858Q17.3093 8.50885 17.2893 8.44037Q17.2693 8.37189 17.2445 8.30501Q17.2196 8.23813 17.1901 8.17319Q17.1605 8.10825 17.1264 8.04559Q17.0924 7.98292 17.0539 7.92284Q17.0154 7.86276 16.9727 7.80558Q16.9301 7.7484 16.8834 7.69441L10.8875 0.751744Q10.8174 0.670496 10.7389 0.59723Q10.6604 0.523964 10.5746 0.459523Q10.4887 0.395082 10.3964 0.340207Q10.3042 0.285333 10.2065 0.240656Q10.1089 0.195979 10.0071 0.162014Q9.90525 0.128048 9.80036 0.105185Q9.69547 0.0823222 9.58873 0.0708244Q9.482 0.0593266 9.37464 0.0593263Q9.26729 0.0593261 9.16055 0.0708233Q9.05381 0.0823206 8.94892 0.105183Q8.84403 0.128046 8.74219 0.16201Q8.64035 0.195975 8.54274 0.240652Q8.44512 0.285328 8.35285 0.340202Q8.26058 0.395076 8.17472 0.459517Q8.08885 0.523957 8.01039 0.597223Q7.93192 0.670488 7.86175 0.751736L7.86175 0.751736Z"
            fill="#5A5A5A" fill-rule="evenodd" id="Triangle" stroke="none" />
    </g>
</svg>