<?xml version="1.0" encoding="utf-8"?>
<svg xmlns:xlink="http://www.w3.org/1999/xlink" height="12px" version="1.1" viewBox="0 0 19 12"
    width="19px" xmlns="http://www.w3.org/2000/svg">
    <defs>
        <rect height="11.176468" id="artboard_1" width="19" />
        <clipPath id="clip_1">
            <use clip-rule="evenodd" xlink:href="#artboard_1" />
        </clipPath>
    </defs>
    <g clip-path="url(#clip_1)" id="ic_arrow_down">
        <path
            d="M10.8882 10.2482L16.8842 3.30559Q16.9308 3.25159 16.9735 3.19441Q17.0161 3.13723 17.0546 3.07715Q17.0931 3.01708 17.1272 2.95441Q17.1613 2.89174 17.1908 2.8268Q17.2204 2.76186 17.2452 2.69499Q17.27 2.62811 17.2901 2.55963Q17.3101 2.49115 17.3251 2.42141Q17.3402 2.35168 17.3503 2.28105Q17.3603 2.21042 17.3654 2.13926Q17.3704 2.06809 17.3703 1.99675Q17.3702 1.9254 17.365 1.85425Q17.3599 1.78309 17.3496 1.71248Q17.3394 1.64188 17.3242 1.57218Q17.3089 1.50248 17.2888 1.43405Q17.2686 1.36561 17.2436 1.29879Q17.2186 1.23197 17.189 1.16709Q17.1593 1.10222 17.125 1.03963Q17.0908 0.977042 17.0522 0.917052Q17.0136 0.857062 16.9708 0.799978Q16.928 0.742893 16.8812 0.689004Q16.8345 0.635115 16.784 0.584697Q16.7335 0.534278 16.6796 0.487586Q16.6256 0.440893 16.5685 0.398165Q16.5114 0.355437 16.4513 0.316891Q16.3913 0.278345 16.3287 0.244176Q16.266 0.210007 16.2011 0.18039Q16.1362 0.150773 16.0694 0.125858Q16.0025 0.100944 15.9341 0.0808581Q15.8656 0.0607724 15.7959 0.0456181Q15.7262 0.0304637 15.6556 0.0203178Q15.5849 0.0101718 15.5138 0.00508591Q15.4426 0 15.3713 0L3.37943 0Q3.30809 0 3.23693 0.00508591Q3.16577 0.0101718 3.09515 0.0203178Q3.02453 0.0304637 2.95481 0.0456181Q2.8851 0.0607724 2.81664 0.0808581Q2.74818 0.100944 2.68133 0.125858Q2.61448 0.150773 2.54958 0.18039Q2.48467 0.210007 2.42204 0.244176Q2.35941 0.278345 2.29938 0.316891Q2.23935 0.355437 2.18221 0.398165Q2.12508 0.440893 2.07114 0.487586Q2.0172 0.534278 1.96672 0.584697Q1.91625 0.635115 1.86949 0.689004Q1.82274 0.742893 1.77995 0.799978Q1.73716 0.857062 1.69854 0.917052Q1.65993 0.977042 1.62569 1.03963Q1.59145 1.10222 1.56176 1.16709Q1.53207 1.23197 1.50708 1.29879Q1.48209 1.36561 1.46193 1.43405Q1.44176 1.50248 1.42653 1.57218Q1.4113 1.64188 1.40107 1.71248Q1.39085 1.78309 1.38568 1.85425Q1.38051 1.9254 1.38043 1.99675Q1.38035 2.06809 1.38536 2.13926Q1.39036 2.21042 1.40043 2.28105Q1.4105 2.35168 1.42557 2.42141Q1.44065 2.49115 1.46066 2.55963Q1.48067 2.62811 1.5055 2.69499Q1.53034 2.76186 1.55989 2.8268Q1.58943 2.89174 1.62353 2.95441Q1.65763 3.01708 1.69611 3.07715Q1.73458 3.13723 1.77725 3.19441Q1.81991 3.25159 1.86654 3.30559L7.86247 10.2482Q7.93264 10.3295 8.0111 10.4027Q8.08957 10.476 8.17543 10.5405Q8.26129 10.6049 8.35356 10.6598Q8.44583 10.7146 8.54345 10.7593Q8.64107 10.804 8.74291 10.838Q8.84474 10.8719 8.94964 10.8948Q9.05453 10.9177 9.16126 10.9291Q9.268 10.9406 9.37536 10.9406Q9.48271 10.9406 9.58945 10.9292Q9.69618 10.9177 9.80107 10.8948Q9.90597 10.8719 10.0078 10.838Q10.1096 10.804 10.2073 10.7593Q10.3049 10.7146 10.3971 10.6598Q10.4894 10.6049 10.5753 10.5405Q10.6611 10.476 10.7396 10.4027Q10.8181 10.3295 10.8882 10.2482Z"
            fill="#5A5A5A" fill-rule="evenodd" id="Triangle" stroke="none" />
    </g>
</svg>