<?xml version="1.0" encoding="utf-8"?>
<svg xmlns:xlink="http://www.w3.org/1999/xlink" height="27px" version="1.1" viewBox="0 0 21 27"
    width="21px" xmlns="http://www.w3.org/2000/svg">
    <defs>
        <rect height="27" id="artboard_1" width="21" />
        <clipPath id="clip_1">
            <use clip-rule="evenodd" xlink:href="#artboard_1" />
        </clipPath>
    </defs>
    <g clip-path="url(#clip_1)" id="ElementLogo">
        <path
            d="M10.501 0L0 0L0 25.001Q0 25.0992 0.00962573 25.1969Q0.0192515 25.2947 0.0384102 25.391Q0.057569 25.4873 0.0860763 25.5813Q0.114584 25.6753 0.152165 25.766Q0.189746 25.8567 0.236039 25.9433Q0.282333 26.0299 0.336892 26.1116Q0.391452 26.1932 0.453752 26.2691Q0.516052 26.3451 0.585494 26.4145Q0.654935 26.4839 0.730848 26.5462Q0.806761 26.6085 0.888415 26.6631Q0.970069 26.7177 1.05668 26.764Q1.14329 26.8103 1.23402 26.8478Q1.32474 26.8854 1.41872 26.9139Q1.5127 26.9424 1.60901 26.9616Q1.70533 26.9807 1.80306 26.9904Q1.9008 27 1.999 27L13.501 27Q13.6851 27 13.869 26.991Q14.0528 26.9819 14.236 26.9639Q14.4192 26.9458 14.6013 26.9188Q14.7834 26.8918 14.964 26.8559Q15.1445 26.82 15.3231 26.7753Q15.5017 26.7305 15.6778 26.6771Q15.854 26.6237 16.0273 26.5616Q16.2007 26.4996 16.3707 26.4292Q16.5408 26.3587 16.7072 26.28Q16.8736 26.2013 17.036 26.1145Q17.1984 26.0277 17.3563 25.9331Q17.5142 25.8385 17.6672 25.7362Q17.8203 25.6339 17.9681 25.5242Q18.116 25.4146 18.2583 25.2978Q18.4006 25.181 18.537 25.0574Q18.6734 24.9338 18.8036 24.8036Q18.9338 24.6734 19.0574 24.537Q19.181 24.4006 19.2978 24.2583Q19.4146 24.116 19.5243 23.9681Q19.6339 23.8203 19.7362 23.6672Q19.8385 23.5142 19.9331 23.3563Q20.0277 23.1984 20.1145 23.036Q20.2013 22.8736 20.28 22.7072Q20.3587 22.5408 20.4292 22.3707Q20.4996 22.2007 20.5616 22.0273Q20.6237 21.854 20.6771 21.6778Q20.7305 21.5017 20.7753 21.3231Q20.82 21.1445 20.8559 20.964Q20.8918 20.7834 20.9188 20.6013Q20.9458 20.4192 20.9639 20.236Q20.9819 20.0528 20.991 19.869Q21 19.6851 21 19.501L21 19.499Q21 19.2142 20.9784 18.9303Q20.9568 18.6464 20.9138 18.3649Q20.8707 18.0834 20.8064 17.806Q20.7421 17.5286 20.657 17.2569Q20.5718 16.9852 20.4663 16.7207Q20.3608 16.4562 20.2356 16.2005Q20.1103 15.9448 19.9661 15.6993Q19.8218 15.4538 19.6593 15.2199Q19.4968 14.9861 19.3171 14.7652Q19.1373 14.5444 18.9413 14.3378Q18.7454 14.1312 18.5343 13.9401Q18.3232 13.749 18.0982 13.5744Q17.8733 13.3999 17.6357 13.2429Q17.3981 13.0859 17.1494 12.9473Q16.9006 12.8088 16.642 12.6895Q16.3834 12.5702 16.1166 12.4709Q16.3418 12.2165 16.543 11.9427Q16.7443 11.6689 16.92 11.3781Q17.0956 11.0872 17.2443 10.7817Q17.3929 10.4762 17.5134 10.1584Q17.6338 9.84068 17.7249 9.51336Q17.8161 9.18603 17.8773 8.85181Q17.9385 8.51758 17.9693 8.17918Q18 7.84079 18 7.501L18 7.499Q18 7.31491 17.991 7.13104Q17.9819 6.94717 17.9639 6.76397Q17.9458 6.58077 17.9188 6.39867Q17.8918 6.21657 17.8559 6.03602Q17.82 5.85546 17.7753 5.67689Q17.7305 5.49832 17.6771 5.32216Q17.6237 5.14599 17.5616 4.97266Q17.4996 4.79933 17.4292 4.62926Q17.3587 4.45918 17.28 4.29276Q17.2013 4.12635 17.1145 3.964Q17.0277 3.80164 16.9331 3.64374Q16.8385 3.48584 16.7362 3.33278Q16.6339 3.17971 16.5243 3.03185Q16.4146 2.88399 16.2978 2.74168Q16.181 2.59938 16.0574 2.46298Q15.9338 2.32658 15.8036 2.19641Q15.6734 2.06623 15.537 1.94261Q15.4006 1.81898 15.2583 1.70219Q15.116 1.58541 14.9681 1.47575Q14.8203 1.36608 14.6672 1.26381Q14.5142 1.16153 14.3563 1.06689Q14.1984 0.972252 14.036 0.885472Q13.8736 0.798693 13.7072 0.719984Q13.5408 0.641275 13.3707 0.570827Q13.2007 0.500379 13.0273 0.438361Q12.854 0.376343 12.6778 0.322904Q12.5017 0.269466 12.3231 0.224736Q12.1445 0.180005 11.964 0.144091Q11.7834 0.108177 11.6013 0.0811653Q11.4192 0.0541537 11.236 0.0361097Q11.0528 0.0180657 10.869 0.00903287Q10.6851 0 10.501 0Z"
            fill="#FFFFFF" fill-rule="evenodd" id="Combined-Shape" stroke="none" />
    </g>
</svg>