<?xml version="1.0" encoding="utf-8"?><!-- Generator: Adobe Illustrator 26.0.3, SVG Export Plug-In . SVG Version: 6.00 Build 0)  -->
<svg style="enable-background:new 0 0 176.6 50;" id="Layer_1" version="1.1" viewBox="0 0 176.6 50"
    x="0px" xmlns="http://www.w3.org/2000/svg" y="0px" xml:space="preserve">
<style type="text/css">
	.st0{fill:#FFFFFF;}
	.st1{fill:#FEE007;}
</style>
    <rect height="50" width="176.6" />
    <g>
	<path class="st0" d="M14.99,10.4H22l-2.08,10.05h0.09c1.69-2.47,3.94-3.16,5.89-3.16c5.72,0,5.72,5.24,4.2,12.51
		c-1.82,8.75-4.98,12.12-9.74,12.12c-3.12,0-4.16-1.91-4.37-3.46H15.9l-0.56,2.86H8.58L14.99,10.4z M18.89,36.81
		c2.64,0,3.46-3.59,4.24-7.36c0.91-4.29,1.34-7.06-1.21-7.06c-2.38,0-3.25,3.2-4.07,7.36C16.85,34.3,16.81,36.81,18.89,36.81z" />
        <path class="st0" d="M39.02,30.75l-0.3,1.43c-0.74,3.64-0.61,5.41,1.43,5.41c1.86,0,2.64-1.34,3.46-4.29h6.49
		c-1.34,5.85-5.02,8.62-10.87,8.62c-8.79,0-8.31-6.24-6.8-13.16c1.39-6.58,4.24-11.47,11.91-11.47c8.7,0,8.1,5.5,6.49,13.47H39.02z
		 M44.95,26.68c0.69-3.29,0.61-5.07-1.34-5.07c-2.29,0-3.07,1.91-3.72,5.07H44.95z" />
        <path class="st0" d="M55.78,22.74h-2.9l1-4.85h2.9L58.2,11h7.01l-1.43,6.88h3.25l-1,4.85h-3.25l-2.47,11.82
		c-0.35,1.69,0.13,2.16,1.82,2.16c0.3,0,0.69-0.04,1-0.09l-0.95,4.68c-1.39,0.17-2.77,0.26-4.11,0.26c-4.85,0-6.06-0.87-4.89-6.32
		L55.78,22.74z" />
</g>
    <g>
	<path class="st1"
        d="M71.72,10.4h17.88l-1.21,5.89H77.79l-1.3,6.19h9.96l-1.21,5.89h-9.96l-2.68,12.95h-7.27L71.72,10.4z" />
        <path class="st1" d="M91.81,10.4h7.27l-6.41,30.91h-7.27L91.81,10.4z" />
        <path class="st1" d="M102.86,10.4h12.21c6.19,0,7.53,3.81,6.62,8.05c-0.91,4.5-3.16,6.71-6.75,7.53v0.09
		c4.46,0.69,4.2,3.55,3.38,7.71c-0.56,3.07-0.87,4.72-0.87,5.72c0,0.91,0.26,1.21,0.74,1.43l-0.04,0.39h-7.84
		c-0.39-1.04-0.22-2.77,0.52-6.28c1.04-5.37,0.61-6.49-1.69-6.49h-2.77l-2.64,12.77h-7.27L102.86,10.4z M107.4,23.43h2.25
		c2.9,0,4.24-2.16,4.59-4.03c0.48-2.29-0.09-3.9-2.99-3.9h-2.21L107.4,23.43z" />
        <path class="st1" d="M128.4,31.87l-0.22,1.08c-0.13,0.56-0.22,1.13-0.22,1.65c0,1.47,0.61,2.47,2.51,2.47
		c2.51,0,3.72-1.91,4.07-3.68c1.39-6.62-12.6-2.99-10.31-14.5c1.04-4.94,4.55-9.09,12.04-9.09c7.27,0,9.14,3.72,8.1,8.44l-0.13,0.74
		h-7.01c0.3-1.52,0.35-2.6,0.04-3.25c-0.26-0.74-0.91-1.08-1.95-1.08c-1.86,0-3.12,1.08-3.59,3.33c-1.39,6.45,12.6,3.2,10.35,14.12
		c-1.52,7.06-5.89,9.83-12.6,9.83c-5.24,0-9.92-1.6-8.53-8.05l0.43-1.99H128.4z" />
        <path class="st1"
            d="M152.52,16.29h-6.49l1.21-5.89h20.26l-1.21,5.89h-6.49l-5.2,25.03h-7.27L152.52,16.29z" />
</g>
</svg>
