<?xml version="1.0" encoding="utf-8"?>
<svg xmlns:xlink="http://www.w3.org/1999/xlink" height="19px" version="1.1" viewBox="0 0 12 19"
    width="12px" xmlns="http://www.w3.org/2000/svg">
    <defs>
        <rect height="19" id="artboard_1" width="11.176471" />
        <clipPath id="clip_1">
            <use clip-rule="evenodd" xlink:href="#artboard_1" />
        </clipPath>
    </defs>
    <g clip-path="url(#clip_1)" id="IconsBack">
        <path
            d="M1.7919 7.97688L7.88282 2.7996Q7.93699 2.75356 7.9943 2.71148Q8.05161 2.66939 8.11176 2.63149Q8.17191 2.59359 8.2346 2.56005Q8.29729 2.52652 8.36221 2.49752Q8.42712 2.46853 8.49393 2.44421Q8.56075 2.4199 8.62912 2.4004Q8.69749 2.3809 8.76707 2.3663Q8.83665 2.3517 8.90709 2.34209Q8.97754 2.33247 9.04849 2.32788Q9.11944 2.3233 9.19053 2.32376Q9.26163 2.32423 9.33251 2.32974Q9.40339 2.33525 9.47371 2.34579Q9.54402 2.35633 9.6134 2.37183Q9.68279 2.38734 9.7509 2.40773Q9.81901 2.42812 9.8855 2.45331Q9.95198 2.47849 10.0165 2.50833Q10.081 2.53817 10.1433 2.57252Q10.2055 2.60687 10.2652 2.64556Q10.3248 2.68425 10.3816 2.72707Q10.4383 2.7699 10.4919 2.81665Q10.5455 2.8634 10.5956 2.91384Q10.6457 2.96427 10.6921 3.01814Q10.7385 3.07201 10.7809 3.12904Q10.8234 3.18607 10.8617 3.24598Q10.9 3.30588 10.9339 3.36835Q10.9679 3.43082 10.9973 3.49554Q11.0267 3.56027 11.0515 3.62692Q11.0762 3.69357 11.0962 3.76181Q11.1161 3.83005 11.1312 3.89954Q11.1462 3.96903 11.1563 4.0394Q11.1664 4.10978 11.1714 4.1807Q11.1765 4.25162 11.1765 4.32272L11.1765 14.6773Q11.1765 14.7484 11.1714 14.8193Q11.1664 14.8902 11.1563 14.9606Q11.1462 15.031 11.1312 15.1005Q11.1161 15.1699 11.0962 15.2382Q11.0762 15.3064 11.0515 15.3731Q11.0267 15.4397 10.9973 15.5045Q10.9679 15.5692 10.9339 15.6317Q10.9 15.6941 10.8617 15.754Q10.8234 15.8139 10.7809 15.871Q10.7385 15.928 10.6921 15.9819Q10.6457 16.0357 10.5956 16.0862Q10.5455 16.1366 10.4919 16.1833Q10.4383 16.2301 10.3816 16.2729Q10.3248 16.3158 10.2652 16.3544Q10.2055 16.3931 10.1433 16.4275Q10.081 16.4618 10.0165 16.4917Q9.95199 16.5215 9.8855 16.5467Q9.81901 16.5719 9.7509 16.5923Q9.68279 16.6127 9.6134 16.6282Q9.54402 16.6437 9.47371 16.6542Q9.40339 16.6647 9.33251 16.6703Q9.26163 16.6758 9.19053 16.6762Q9.11944 16.6767 9.04849 16.6721Q8.97754 16.6675 8.90709 16.6579Q8.83665 16.6483 8.76707 16.6337Q8.69749 16.6191 8.62912 16.5996Q8.56075 16.5801 8.49393 16.5558Q8.42712 16.5315 8.36221 16.5025Q8.29729 16.4735 8.2346 16.4399Q8.17191 16.4064 8.11176 16.3685Q8.05161 16.3306 7.9943 16.2885Q7.93699 16.2464 7.88282 16.2004L1.7919 11.0231Q1.70935 10.953 1.63487 10.8743Q1.56039 10.7956 1.49485 10.7093Q1.42931 10.6231 1.37347 10.5302Q1.31764 10.4374 1.27216 10.339Q1.22669 10.2407 1.19211 10.138Q1.15753 10.0354 1.13425 9.92956Q1.11097 9.82375 1.09926 9.71605Q1.08755 9.60834 1.08755 9.5Q1.08755 9.39166 1.09926 9.28395Q1.11097 9.17625 1.13425 9.07044Q1.15753 8.96463 1.19211 8.86196Q1.22669 8.75929 1.27216 8.66095Q1.31764 8.56262 1.37347 8.46978Q1.42931 8.37693 1.49485 8.29067Q1.56039 8.2044 1.63487 8.12572Q1.70935 8.04705 1.7919 7.97688Z"
            fill="#838383" fill-rule="evenodd" id="Triangle" stroke="none" />
    </g>
</svg>