<?xml version="1.0" encoding="utf-8"?>
<svg height="20px" version="1.1" viewBox="0 0 69 20" width="69px"
    xmlns="http://www.w3.org/2000/svg">
    <g id="Bet365-logo-2">
        <g id="Bet365-logo">
            <g id="#027b5bff">
                <path
                    d="M1.27724 0.388901C2.56344 -0.191551 4.00272 0.0668437 5.36546 0.00879852C6.47245 -0.00430847 7.79039 -0.0323949 8.59683 0.86637C9.46861 1.80071 9.2726 3.17694 9.2838 4.34908C11.117 4.28729 12.9931 4.94264 14.2326 6.33385C15.7895 4.96885 17.884 4.40338 19.9169 4.35844C21.2629 4.29853 22.5864 4.67301 23.8222 5.17295C24.0481 5.04375 24.2721 4.91643 24.498 4.78723C24.6212 3.85102 24.9852 2.8268 25.9316 2.44295C27.4008 1.89059 28.8998 1.4075 30.3932 0.918798C31.3863 0.54244 32.6595 0.821431 33.2848 1.7202C34.8884 1.03489 36.6656 0.808324 38.3998 0.834538C40.8042 0.780238 43.3 1.54793 45.0081 3.30427C46.7648 1.48427 49.3764 0.750279 51.8461 0.834538C53.2798 0.7896 54.706 1.01616 56.0837 1.40563C56.6456 1.22775 57.2168 1.04612 57.8123 1.04799C60.366 1.04987 62.9198 1.04987 65.4735 1.04799C66.448 1.07983 67.5848 1.32324 68.1038 2.25009C68.6377 3.29116 68.4174 4.49888 68.4678 5.62233C68.4977 6.65778 68.4286 7.92916 67.4467 8.53583C68.4771 9.67613 68.8542 11.2246 68.9961 12.7188C69.0633 14.8553 68.2643 17.134 66.4666 18.3979C65.3316 19.3247 63.8718 19.6431 62.4661 19.8958C60.4034 20.2048 58.3313 19.776 56.3357 19.2704C55.9978 19.1787 55.7327 18.9409 55.449 18.7518C52.2176 20.6617 47.6739 20.3939 44.9783 17.6564C43.5129 19.1843 41.3959 19.8003 39.3444 19.9763C37.7128 20.055 36.0738 19.8921 34.487 19.5026C33.7833 19.2424 33.0888 19.6262 32.4 19.7479C30.2831 20.2684 27.8432 19.9595 26.1911 18.4428C25.8308 18.8791 25.3511 19.2068 24.8004 19.3435C22.325 20.0587 19.6294 20.2834 17.1392 19.5157C16.0322 19.2573 15.0988 18.5739 14.2326 17.868C13.1163 19.3304 11.2476 19.967 9.46675 19.9857C8.7219 19.9689 8.00507 19.7386 7.29009 19.5607C6.24284 19.8958 5.13771 19.7367 4.06059 19.7704C3.06 19.7835 1.97541 19.8284 1.09056 19.2817C0.291582 18.7574 0.039568 17.7557 0.00223262 16.855C0.00223262 12.2339 0.00409939 7.61085 0.000365853 2.98783C-0.00896799 1.98608 0.330784 0.881349 1.27724 0.388901M2.4477 2.44482C2.44583 7.40863 2.4533 12.3724 2.4421 17.3344C3.7955 17.3362 5.14704 17.3325 6.49858 17.3381C6.52845 16.709 6.56019 16.0798 6.59192 15.4507C6.98208 16.1379 7.3629 16.928 8.13761 17.2538C9.60862 17.8942 11.5631 17.5104 12.517 16.1622C13.4206 14.9039 13.6334 13.2937 13.6054 11.7807C13.5792 10.4288 13.2768 8.99832 12.3789 7.94788C11.4418 6.81319 9.75423 6.51922 8.41202 7.01729C7.75305 7.26445 7.28823 7.82243 6.82714 8.32986C6.83647 6.36756 6.80473 4.40713 6.82527 2.44482C5.36546 2.44295 3.90564 2.44482 2.4477 2.44482M26.9266 4.63182C26.9322 5.42573 26.9266 6.21964 26.936 7.01354C26.4095 7.01354 25.8831 7.01354 25.3567 7.01729C25.366 8.00031 25.3623 8.98334 25.3604 9.96636C25.8831 9.93453 26.4058 9.90831 26.9285 9.89708C26.9546 11.337 26.8818 12.7806 26.9658 14.2186C27.0442 15.4582 27.5949 16.8363 28.8438 17.2932C30.3129 17.8212 31.9053 17.4392 33.3595 17.0385C33.4024 16.0742 33.3763 15.1062 33.3819 14.1419C32.9021 14.2037 32.3851 14.4059 31.9202 14.1756C31.5226 13.9696 31.3807 13.4884 31.3602 13.069C31.3079 12.0354 31.3583 10.9981 31.3285 9.96262C32.0154 9.92329 32.7061 9.92329 33.395 9.91019C33.3894 8.94589 33.3763 7.98159 33.38 7.01542C32.6987 7.01354 32.0154 7.01542 31.3322 7.0098C31.3453 5.71408 31.3322 4.41836 31.3471 3.12264C29.8724 3.61884 28.3995 4.12814 26.9266 4.63182M34.5038 3.78735C34.4964 4.80034 34.4908 5.81145 34.515 6.82256C35.79 6.44058 37.1882 6.08857 38.5006 6.4799C39.4041 6.74017 39.6785 8.1913 38.7787 8.6257C37.8995 9.02266 36.8933 8.93465 35.9562 8.87286C35.958 9.86899 35.9562 10.8651 35.9543 11.8613C36.925 11.7639 37.9854 11.5729 38.8945 12.0429C39.7532 12.4511 39.7121 13.9752 38.7601 14.2261C37.3021 14.61 35.7826 14.2711 34.3788 13.8292C34.3974 14.8965 34.3377 15.9656 34.4348 17.031C36.1746 17.471 37.9798 17.6527 39.77 17.4954C40.8844 17.3624 42.0101 17.0011 42.8856 16.2764C44.2465 15.168 44.5265 12.9622 43.4979 11.5448C43.048 10.8913 42.3051 10.5562 41.5957 10.2716C42.0456 10.0675 42.5197 9.88023 42.8894 9.54132C44.3548 8.31862 44.2484 5.76838 42.7904 4.58313C41.5845 3.56641 39.9492 3.21252 38.4035 3.28742C37.0874 3.23686 35.7602 3.37729 34.5038 3.78735M46.0069 5.91817C44.8252 7.69323 44.6254 9.92891 44.8364 12.0017C45.0865 14.0108 46.2215 15.975 48.0491 16.9224C49.2084 17.5628 50.5804 17.6339 51.8722 17.4954C53.3507 17.2801 54.8441 16.5348 55.63 15.2148C56.2629 14.2018 56.3618 12.9435 56.2069 11.7826C55.9847 10.2435 54.8105 8.89908 53.3227 8.47216C51.9189 8.06585 50.3434 8.29241 49.1262 9.10879C49.1934 8.14823 49.5388 7.10342 50.4722 6.66715C51.9525 5.97809 53.6494 6.40875 55.1596 6.77949C55.1559 5.7328 55.1185 4.68612 55.1447 3.63943C53.6513 3.22001 52.0906 3.27244 50.5562 3.29491C48.7529 3.42972 46.9944 4.37904 46.0069 5.91817M57.3064 3.48777C57.2989 6.08669 57.3568 8.68562 57.2784 11.2827C58.5198 10.9307 59.9236 10.7341 61.1426 11.2714C62.2291 11.7395 62.2589 13.5446 61.1631 14.0164C59.8639 14.5238 58.4563 14.1718 57.1533 13.8685C57.1533 14.9133 57.1477 15.9563 57.172 17.0011C59.1302 17.5235 61.2229 17.7856 63.2147 17.2969C64.5084 16.973 65.7759 16.1472 66.2501 14.844C66.9482 12.9978 66.5618 10.5674 64.8351 9.41961C63.8195 8.66502 62.5016 8.80546 61.3143 8.83916C61.3424 8.12951 61.3442 7.41799 61.3199 6.70647C62.8843 6.5885 64.4524 6.65217 66.0205 6.6297C66.0018 5.58114 66.0055 4.53445 66.0167 3.48777C63.112 3.48215 60.2092 3.48215 57.3064 3.48777M16.301 7.80184C15.3116 8.49089 14.7348 9.6443 14.5724 10.8239C14.3427 12.4679 14.5294 14.2804 15.5375 15.6492C16.413 16.8269 17.8765 17.3868 19.2953 17.5141C20.9978 17.6077 22.7376 17.5122 24.3617 16.9561C24.3579 16.0948 24.3523 15.2335 24.3654 14.3722C23.0549 15.0032 21.5429 15.0781 20.126 14.8721C19.3345 14.7822 18.7894 14.11 18.752 13.333C20.8316 13.3161 22.9112 13.3292 24.9926 13.3236C25.0337 11.8463 24.9273 10.3034 24.2291 8.9721C23.6467 7.76813 22.3997 6.99482 21.0948 6.84315C19.4614 6.70647 17.6843 6.82817 16.301 7.80184Z"
                    fill="#027B5B" id="Shape" stroke="none" />
                <path
                    d="M19.1105 9.64992C19.4054 9.04325 20.3276 8.90469 20.7775 9.41587C21.1807 9.92329 21.177 10.603 21.1938 11.219C20.3985 11.2153 19.6014 11.2171 18.8062 11.2153C18.8361 10.6854 18.8361 10.1255 19.1105 9.64992Z"
                    fill="#027B5B" id="Path" stroke="none" />
                <path
                    d="M7.51411 9.85963C7.9976 9.62745 8.59496 9.93453 8.79097 10.412C9.05606 11.0243 9.00192 11.7077 9.00752 12.3574C8.98512 12.9323 8.91792 13.5689 8.52029 14.0145C8.08534 14.4546 7.24156 14.3291 6.99328 13.7487C6.64979 13.0016 6.69459 12.1477 6.74313 11.3463C6.7954 10.7884 6.91487 10.0806 7.51411 9.85963Z"
                    fill="#027B5B" id="Path" stroke="none" />
                <path
                    d="M50.0671 10.9775C50.754 10.6966 51.6501 10.9269 52.001 11.616C52.4509 12.5203 52.3184 13.8142 51.4541 14.4265C50.7204 14.8628 49.6657 14.5538 49.354 13.7374C48.9937 12.8237 49.0982 11.468 50.0671 10.9775Z"
                    fill="#027B5B" id="Path" stroke="none" />
            </g>
            <g id="#fafcfcff" transform="translate(2.442098 2.4439924)">
                <path
                    d="M0.0056003 0.000832189C1.46355 0.000832189 2.92336 -0.00104024 4.38317 0.000832189C4.36264 1.96313 4.39437 3.92356 4.38504 5.88587C4.84613 5.37844 5.31095 4.82046 5.96992 4.5733C7.31213 4.07523 8.99969 4.3692 9.9368 5.50389C10.8347 6.55432 11.1371 7.98486 11.1633 9.33675C11.1913 10.8497 10.9785 12.46 10.0749 13.7182C9.12103 15.0664 7.16652 15.4502 5.69551 14.8098C4.9208 14.484 4.53998 13.6939 4.14982 13.0067C4.11809 13.6358 4.08635 14.265 4.05649 14.8941C2.70495 14.8885 1.35341 14.8922 0 14.8904C0.0112006 9.92843 0.00373354 4.96463 0.0056003 0.000832189M5.07201 7.41564C4.47277 7.63658 4.3533 8.34436 4.30103 8.90234C4.2525 9.70374 4.20769 10.5576 4.55118 11.3047C4.79946 11.8851 5.64324 12.0106 6.0782 11.5706C6.47582 11.1249 6.54302 10.4883 6.56542 9.91346C6.55982 9.26372 6.61396 8.58029 6.34888 7.968C6.15287 7.49054 5.5555 7.18346 5.07201 7.41564Z"
                    fill="#FAFCFC" id="Shape" stroke="none" />
                <path
                    d="M24.4845 2.18783C25.9574 1.68414 27.4303 1.17484 28.905 0.67865C28.8901 1.97437 28.9032 3.27009 28.8901 4.56581C29.5733 4.57142 30.2566 4.56955 30.9379 4.57142C30.9342 5.5376 30.9473 6.5019 30.9529 7.46619C30.264 7.4793 29.5733 7.4793 28.8864 7.51862C28.9162 8.55407 28.8658 9.5914 28.9181 10.625C28.9386 11.0444 29.0805 11.5256 29.4781 11.7316C29.943 11.9619 30.46 11.7597 30.9398 11.6979C30.9342 12.6622 30.9603 13.6302 30.9174 14.5945C29.4632 14.9952 27.8708 15.3772 26.4017 14.8492C25.1528 14.3923 24.6021 13.0142 24.5237 11.7746C24.4397 10.3366 24.5125 8.89298 24.4864 7.45309C23.9637 7.46432 23.441 7.49054 22.9183 7.52237C22.9202 6.53934 22.9239 5.55632 22.9146 4.5733C23.441 4.56955 23.9674 4.56955 24.4939 4.56955C24.4845 3.77564 24.4901 2.98173 24.4845 2.18783Z"
                    fill="#FAFCFC" id="Path" stroke="none" />
                <path
                    d="M13.8589 5.35784C15.2422 4.38418 17.0193 4.26247 18.6527 4.39916C19.9576 4.55083 21.2046 5.32414 21.787 6.52811C22.4852 7.8594 22.5916 9.40228 22.5506 10.8796C20.4691 10.8852 18.3895 10.8721 16.3099 10.889C16.3473 11.666 16.8924 12.3382 17.6839 12.4281C19.1008 12.6341 20.6128 12.5592 21.9233 11.9282C21.9103 12.7895 21.9159 13.6508 21.9196 14.5121C20.2955 15.0682 18.5557 15.1637 16.8532 15.0701C15.4344 14.9428 13.9709 14.3829 13.0954 13.2052C12.0873 11.8364 11.9006 10.0239 12.1303 8.37994C12.2927 7.20031 12.8695 6.0469 13.8589 5.35784M16.6684 7.20593C16.394 7.68152 16.394 8.24138 16.3641 8.77127C17.1593 8.77315 17.9564 8.77127 18.7517 8.77502C18.7349 8.15899 18.7386 7.4793 18.3354 6.97187C17.8855 6.4607 16.9633 6.59926 16.6684 7.20593Z"
                    fill="#FAFCFC" id="Shape" stroke="none" />
            </g>
            <g id="#f9dc1cff" transform="translate(34.377342 3.2775548)">
                <path
                    d="M0.12649 0.509799C1.38282 0.0997379 2.7101 -0.040694 4.02617 0.0098615C5.57185 -0.0650355 7.20714 0.288853 8.41307 1.30558C9.87102 2.49083 9.97742 5.04107 8.51201 6.26376C8.14239 6.60267 7.66823 6.78992 7.21834 6.99401C7.92771 7.27862 8.67068 7.61378 9.12058 8.26726C10.1492 9.68469 9.86915 11.8904 8.50828 12.9989C7.63276 13.7235 6.5071 14.0849 5.39264 14.2178C3.60241 14.3751 1.79725 14.1935 0.0574194 13.7535C-0.0396525 12.6881 0.020084 11.6189 0.00141637 10.5516C1.40523 10.9935 2.92477 11.3324 4.38272 10.9486C5.33477 10.6977 5.37584 9.17351 4.51713 8.76533C3.60801 8.29535 2.54769 8.48633 1.57697 8.5837C1.57884 7.58757 1.5807 6.59144 1.57884 5.59531C2.51595 5.6571 3.52214 5.7451 4.40139 5.34815C5.30117 4.91374 5.02675 3.46261 4.12324 3.20235C2.8109 2.81101 1.41269 3.16303 0.13769 3.545C0.113422 2.53389 0.119023 1.52278 0.12649 0.509799Z"
                    fill="#F9DC1C" id="Path" stroke="none" />
                <path
                    d="M11.6295 2.64062C12.617 1.10149 14.3755 0.152166 16.1788 0.0173512C17.7133 -0.00511791 19.2739 -0.0575458 20.7673 0.361878C20.7412 1.40856 20.7785 2.45525 20.7823 3.50194C19.2721 3.1312 17.5752 2.70054 16.0948 3.38959C15.1614 3.82587 14.8161 4.87068 14.7489 5.83123C15.966 5.01486 17.5416 4.78829 18.9454 5.19461C20.4332 5.62152 21.6074 6.96592 21.8295 8.50506C21.9845 9.66596 21.8855 10.9242 21.2527 11.9372C20.4668 13.2573 18.9734 14.0025 17.4949 14.2178C16.2031 14.3564 14.831 14.2852 13.6718 13.6449C11.8442 12.6974 10.7092 10.7332 10.459 8.72413C10.2481 6.65136 10.4478 4.41568 11.6295 2.64062M15.6897 7.69991C14.7209 8.19049 14.6163 9.54613 14.9766 10.4599C15.2884 11.2762 16.3431 11.5852 17.0767 11.1489C17.9411 10.5366 18.0736 9.24279 17.6237 8.33841C17.2728 7.64936 16.3767 7.41905 15.6897 7.69991Z"
                    fill="#F9DC1C" id="Shape" stroke="none" />
                <path
                    d="M22.9291 0.210211C25.8319 0.204594 28.7347 0.204594 31.6394 0.210211C31.6282 1.2569 31.6245 2.30358 31.6431 3.35214C30.075 3.37461 28.507 3.31095 26.9426 3.42891C26.9669 4.14043 26.965 4.85195 26.937 5.5616C28.1243 5.5279 29.4422 5.38747 30.4577 6.14206C32.1845 7.28985 32.5709 9.72026 31.8727 11.5665C31.3986 12.8697 30.131 13.6954 28.8374 14.0194C26.8455 14.5081 24.7529 14.2459 22.7946 13.7235C22.7704 12.6787 22.776 11.6358 22.776 10.5909C24.079 10.8943 25.4865 11.2463 26.7858 10.7389C27.8816 10.267 27.8517 8.46199 26.7653 7.99389C25.5463 7.4565 24.1425 7.6531 22.9011 8.00512C22.9795 5.40807 22.9216 2.80914 22.9291 0.210211Z"
                    fill="#F9DC1C" id="Path" stroke="none" />
            </g>
        </g>
    </g>
</svg>