<?xml version="1.0" encoding="utf-8"?>
<svg xmlns:xlink="http://www.w3.org/1999/xlink" height="19px" version="1.1" viewBox="0 0 19 19"
    width="19px" xmlns="http://www.w3.org/2000/svg">
    <defs>
        <rect height="19" id="artboard_1" width="19" />
        <clipPath id="clip_1">
            <use clip-rule="evenodd" xlink:href="#artboard_1" />
        </clipPath>
    </defs>
    <g clip-path="url(#clip_1)" id="coin">
        <g id="Group-18-Copy-2">
            <g id="Group-6">
                <g id="money-2">
                    <path
                        d="M9.97418 11.8059C10.5193 11.6721 10.9225 11.3212 10.9225 10.9179C10.9225 10.5146 10.5193 10.1638 9.97418 10.0299L9.97418 11.8059Z"
                        fill="#FECF43" id="Path" stroke="none" />
                    <path
                        d="M9.5 2.81481C5.81379 2.81481 2.81481 5.81379 2.81481 9.5C2.81481 13.1862 5.81379 16.1852 9.5 16.1852C13.1862 16.1852 16.1852 13.1862 16.1852 9.5C16.1852 5.81379 13.1862 2.81481 9.5 2.81481Z"
                        fill="#FECF43" fill-rule="evenodd" id="Shape" stroke="none" />
                    <path
                        d="M9.02582 7.18479C8.48068 7.31867 8.07747 7.66956 8.07747 8.07283C8.07747 8.4761 8.48068 8.82699 9.02582 8.96086L9.02582 7.18479Z"
                        fill="#FECF43" id="Path" stroke="none" />
                    <path
                        d="M9.5 0C4.28205 0 0 4.28205 0 9.5C0 14.7179 4.28205 19 9.5 19C14.7179 19 19 14.7179 19 9.5C19 4.28205 14.7179 0 9.5 0ZM9.5 16.8889C5.42588 16.8889 2.11111 13.5741 2.11111 9.5C2.11111 5.42588 5.42588 2.11111 9.5 2.11111C13.5741 2.11111 16.8889 5.42588 16.8889 9.5C16.8889 13.5741 13.5741 16.8889 9.5 16.8889Z"
                        fill="#FECF43" id="Shape" stroke="none" />
                </g>
            </g>
            <g id="Group-17" transform="translate(7 6)">
                <path
                    d="M0 0L3.251 0Q3.33692 0 3.42243 0.00842191Q3.50794 0.0168438 3.59221 0.0336065Q3.67648 0.0503693 3.75871 0.0753113Q3.84093 0.100253 3.92031 0.133135Q3.9997 0.166016 4.07547 0.20652Q4.15125 0.247023 4.22269 0.29476Q4.29413 0.342496 4.36055 0.397005Q4.42697 0.451514 4.48773 0.51227Q4.54849 0.573027 4.60299 0.639446Q4.6575 0.705865 4.70524 0.777308Q4.75298 0.84875 4.79348 0.924527Q4.83398 1.0003 4.86686 1.07969Q4.89975 1.15907 4.92469 1.24129Q4.94963 1.32352 4.96639 1.40779Q4.98316 1.49206 4.99158 1.57757Q5 1.66308 5 1.749L5 1.751Q5 1.83692 4.99158 1.92243Q4.98316 2.00794 4.96639 2.09221Q4.94963 2.17648 4.92469 2.25871Q4.89975 2.34093 4.86686 2.42031Q4.83398 2.4997 4.79348 2.57547Q4.75298 2.65125 4.70524 2.72269Q4.6575 2.79413 4.60299 2.86055Q4.54849 2.92697 4.48773 2.98773Q4.42697 3.04849 4.36055 3.103Q4.29413 3.1575 4.22269 3.20524Q4.15125 3.25298 4.07547 3.29348Q3.9997 3.33398 3.92031 3.36686Q3.84093 3.39975 3.75871 3.42469Q3.67648 3.44963 3.59221 3.46639Q3.50794 3.48316 3.42243 3.49158Q3.33692 3.5 3.251 3.5L0 3.5L0 0Z"
                    fill="#FFFFFF" fill-rule="evenodd" id="Rectangle" stroke="none" />
                <path
                    d="M0 2.8L3.901 2.8Q4.00412 2.8 4.10674 2.81011Q4.20936 2.82021 4.31049 2.84033Q4.41163 2.86045 4.51031 2.89038Q4.60898 2.92032 4.70425 2.95978Q4.79952 2.99924 4.89046 3.04785Q4.9814 3.09646 5.06714 3.15374Q5.15288 3.21103 5.23259 3.27645Q5.3123 3.34187 5.38522 3.41478Q5.45813 3.4877 5.52355 3.56741Q5.58896 3.64712 5.64625 3.73286Q5.70354 3.8186 5.75215 3.90954Q5.80076 4.00048 5.84022 4.09575Q5.87968 4.19102 5.90962 4.28969Q5.93955 4.38837 5.95967 4.48951Q5.97978 4.59064 5.98989 4.69326Q6 4.79588 6 4.899L6 4.901Q6 5.00412 5.98989 5.10674Q5.97978 5.20936 5.95967 5.31049Q5.93955 5.41163 5.90962 5.51031Q5.87968 5.60898 5.84022 5.70425Q5.80076 5.79952 5.75215 5.89046Q5.70354 5.9814 5.64625 6.06714Q5.58896 6.15288 5.52355 6.23259Q5.45813 6.3123 5.38522 6.38522Q5.3123 6.45813 5.23259 6.52355Q5.15288 6.58897 5.06714 6.64625Q4.9814 6.70354 4.89046 6.75215Q4.79952 6.80076 4.70425 6.84022Q4.60898 6.87968 4.51031 6.90962Q4.41163 6.93955 4.31049 6.95967Q4.20936 6.97978 4.10674 6.98989Q4.00412 7 3.901 7L1.999 7Q1.9008 7 1.80306 6.99037Q1.70533 6.98075 1.60901 6.96159Q1.5127 6.94243 1.41872 6.91392Q1.32474 6.88542 1.23402 6.84783Q1.14329 6.81025 1.05668 6.76396Q0.970069 6.71767 0.888415 6.66311Q0.806761 6.60855 0.730848 6.54625Q0.654935 6.48395 0.585494 6.41451Q0.516052 6.34506 0.453752 6.26915Q0.391452 6.19324 0.336892 6.11158Q0.282333 6.02993 0.236039 5.94332Q0.189746 5.85671 0.152165 5.76598Q0.114584 5.67525 0.0860763 5.58128Q0.057569 5.4873 0.0384102 5.39098Q0.0192515 5.29467 0.00962573 5.19694Q0 5.0992 0 5.001L0 2.8Z"
                    fill="#FFFFFF" fill-rule="evenodd" id="Rectangle-Copy-4" stroke="none" />
            </g>
        </g>
    </g>
</svg>