<?xml version="1.0" encoding="utf-8"?>
<svg xmlns:xlink="http://www.w3.org/1999/xlink" height="31px" version="1.1" viewBox="0 0 32 31"
    width="32px" xmlns="http://www.w3.org/2000/svg">
    <defs>
        <rect height="31" id="artboard_1" width="32" />
        <clipPath id="clip_1">
            <use clip-rule="evenodd" xlink:href="#artboard_1" />
        </clipPath>
    </defs>
    <g clip-path="url(#clip_1)" id="confetti-2">
        <path
            d="M12 31C18.6274 31 24 25.6274 24 19C24 12.3726 18.6274 7 12 7C5.37258 7 0 12.3726 0 19C0 25.6274 5.37258 31 12 31Z"
            fill="#FFFFFF" fill-rule="evenodd" id="Oval" stroke="none" />
        <g id="confetti-2" transform="translate(3 0)">
            <g id="confetti">
                <path
                    d="M11.2128 17.7872L9.20373 14.9237L6.16701 12.7415C5.93301 13.3583 5.73198 13.8883 5.49804 14.5052L7.40582 17.179L9.99644 19.0036L11.2127 18.8705L11.2128 17.7872Z"
                    fill="#FC6DAE" id="XMLID_478_" stroke="none" />
                <path
                    d="M7.56373 21.4363L6.3474 19.5108L4.16004 18.0326C3.9261 18.6494 3.72507 19.1794 3.49107 19.7963L4.60189 21.6706L6.3474 22.6526L7.31023 22.6526L7.56373 21.4363Z"
                    fill="#FC6DAE" id="XMLID_479_" stroke="none" />
                <path
                    d="M9.99644 19.0036L11.8591 21.575L14.4948 23.5019C15.1117 23.268 15.6417 23.0669 16.2585 22.8329L14.038 20.046L11.2128 17.7872C10.7873 18.2126 10.4218 18.5782 9.99644 19.0036L9.99644 19.0036Z"
                    fill="#F73D7F" id="XMLID_493_" stroke="none" />
                <path
                    d="M6.3474 22.6526L7.38672 24.3082L9.20373 25.5089C9.82058 25.2749 10.3506 25.0739 10.9674 24.84L9.50826 22.833L7.56373 21.4363C7.13833 21.8617 6.7728 22.2272 6.3474 22.6526L6.3474 22.6526Z"
                    fill="#F73D7F" id="XMLID_494_" stroke="none" />
                <path
                    d="M13.0372 15.9627L10.6046 12.7415L7.1705 10.0959C6.85164 10.9365 6.48588 11.9008 6.16701 12.7415C6.77744 13.3518 10.5983 17.1728 11.2128 17.7872L12.4899 17.3129L13.0372 15.9627Z"
                    fill="#FFD92E" id="XMLID_473_" stroke="none" />
                <path
                    d="M11.2128 17.7872C11.8231 18.3976 15.6441 22.2185 16.2585 22.833C17.0991 22.5141 18.0634 22.1484 18.904 21.8295L16.2585 18.4979L13.0373 15.9628C12.4572 16.5428 11.7927 17.2073 11.2128 17.7872Z"
                    fill="#FCBE00" id="XMLID_488_" stroke="none" />
                <g id="XMLID_325_" transform="translate(11.212769 0.7584772)">
                    <path
                        d="M1.21627 12.1634L0 12.1634L0 10.9471C0.87132 10.0758 1.94109 9.00603 2.43265 8.51435C3.4073 7.5397 3.94416 6.24379 3.94416 4.86531C3.94416 3.48694 3.40736 2.19103 2.43265 1.21633C2.85805 0.790931 3.22359 0.425396 3.64898 0C6.32728 2.67824 6.34895 7.03071 3.64898 9.73073L2.12853 11.2511L1.21627 12.1634Z"
                        fill="#C6EA4B" id="XMLID_53_" stroke="none" />
                </g>
                <g id="XMLID_324_" transform="translate(16.078077 12.122907)">
                    <path
                        d="M1.21633 5.66433L0 5.66433L0 4.448C0.843281 3.60472 1.59 2.85799 2.43271 2.01529C3.73224 0.71576 5.46008 3.25933e-15 7.29802 3.25933e-15C9.13584 3.25933e-15 10.8637 0.715645 12.1634 2.01529C11.738 2.44068 11.3725 2.80622 10.9471 3.23161C9.94099 2.2256 8.61951 1.72257 7.29802 1.72257C5.97653 1.72257 4.65511 2.2256 3.64904 3.23161C2.80696 4.07363 2.06076 4.8199 1.21633 5.66433L1.21633 5.66433Z"
                        fill="#55C8FF" id="XMLID_356_" stroke="none" />
                </g>
                <g id="XMLID_315_" transform="translate(8.380577 2.5576532)">
                    <path
                        d="M0 4.07416e-16L1.72016 4.07416e-16L1.72016 1.72016L0 1.72016L0 4.07416e-16Z"
                        fill="#84DFFF" id="XMLID_65_" stroke="none" />
                </g>
                <g id="XMLID_309_" transform="translate(10.10074 5.997979)">
                    <path d="M0 0L1.72016 0L1.72016 1.72016L0 1.72016L0 0Z" fill="#84DFFF"
                        id="XMLID_379_" stroke="none" />
                </g>
                <g id="XMLID_308_" transform="translate(22.141882 16.318958)">
                    <path d="M0 0L1.72016 0L1.72016 1.72016L0 1.72016L0 0Z" fill="#92E200"
                        id="XMLID_403_" stroke="none" />
                </g>
                <g id="XMLID_307_" transform="translate(23.862045 19.759283)">
                    <path
                        d="M1.72016 1.72016C1.11856 1.72016 0.601656 1.72016 0 1.72016C0 1.11856 0 0 0 0L1.72016 0L1.72016 1.72016Z"
                        fill="#92E200" id="XMLID_538_" stroke="none" />
                </g>
                <g id="XMLID_304_" transform="translate(25.582209 7.7181425)">
                    <path d="M0 0L1.72016 0L1.72016 1.72016L0 1.72016L0 0Z" fill="#55C8FF"
                        id="XMLID_350_" stroke="none" />
                </g>
                <g id="XMLID_303_" transform="translate(18.701555 0.8374901)">
                    <path
                        d="M0 -1.01854e-16L1.72016 -1.01854e-16L1.72016 1.72016L0 1.72016L0 -1.01854e-16Z"
                        fill="#C6EA4B" id="XMLID_383_" stroke="none" />
                </g>
                <path
                    d="M25.4855 3.51447C25.9393 3.06069 26.3292 2.67078 26.7829 2.21706C26.0989 2.34607 25.613 2.83873 25.4855 3.51447L25.4855 3.51447Z"
                    fill="none" fill-rule="evenodd" id="XMLID_467_" stroke="none" />
                <path
                    d="M20.97 8.03001C21.4238 7.57617 21.8138 7.18621 22.2676 6.73237C21.5837 6.86139 21.0975 7.35416 20.97 8.03001Z"
                    fill="none" fill-rule="evenodd" id="XMLID_469_" stroke="none" />
                <path
                    d="M22.2676 6.73237L24.0914 5.5106L25.4855 3.51447C25.6143 2.83202 26.1059 2.3447 26.783 2.21706L28.0765 1.52556L28.3919 0.608135C28.1791 0.395465 27.9963 0.212727 27.7837 0C26.9564 0.827169 26.0375 0.124253 24.7151 1.44671C23.6567 2.50513 23.8517 3.45833 23.612 4.03023C23.4746 4.35821 23.1117 4.72116 22.7835 4.85872C22.374 5.03039 21.8028 4.97718 21.1156 5.30303C20.4622 5.61283 19.8506 6.22418 19.5407 6.8779C19.0684 7.87416 19.4207 8.36286 18.7528 9.03086C18.9655 9.24358 19.1483 9.42632 19.361 9.63899L20.1655 9.32363L20.97 8.03001C21.0993 7.34418 21.5828 6.86156 22.2676 6.73237Z"
                    fill="#FC6DAE" id="XMLID_470_" stroke="none" />
                <path
                    d="M14.2536 14.7464C14.0727 14.5655 8.02038 8.51326 7.83947 8.3323C7.60547 8.94909 7.40444 9.47913 7.1705 10.0959C7.49659 10.422 12.7112 15.6367 13.0372 15.9627L14.158 15.8672L14.2536 14.7464Z"
                    fill="#FCBE00" id="XMLID_472_" stroke="none" />
                <path
                    d="M3.49107 19.7963C3.39256 20.056 0.0983933 28.7405 0 29C0 29 3.49107 26.296 3.49107 26.296C3.49107 26.296 6.3474 22.6527 6.3474 22.6527C6.00205 22.3072 3.83866 20.1439 3.49107 19.7963Z"
                    fill="#FFD92E" id="XMLID_475_" stroke="none" />
                <path
                    d="M9.99644 19.0036C9.48939 18.4965 6.03232 15.0395 5.49804 14.5052C5.13434 15.4639 4.37254 17.4723 4.16004 18.0326C4.57363 18.4462 7.14888 21.0214 7.56373 21.4363L9.20373 20.6194L9.99644 19.0036Z"
                    fill="#FFD92E" id="XMLID_476_" stroke="none" />
                <g id="Group" transform="translate(19.360952 0.6081923)">
                    <path
                        d="M5.12385 5.12328C5.85148 4.39565 5.94781 3.8429 6.12453 2.90627C4.99908 4.03166 4.03206 4.99874 2.90667 6.12418C3.78895 5.95773 4.37202 5.87516 5.12385 5.12328Z"
                        fill="#F73D7F" id="XMLID_482_" stroke="none" />
                    <path
                        d="M9.63905 0.608135C9.42632 0.395465 9.24358 0.212727 9.03091 1.01854e-16C8.46819 0.562665 7.98471 1.0462 7.42204 1.60893C8.00765 1.49838 8.78539 1.46179 9.63905 0.608135Z"
                        fill="#F73D7F" id="XMLID_484_" stroke="none" />
                    <path
                        d="M1.60904 7.42182C1.04626 7.98454 0.56278 8.46813 0 9.0308C0.212669 9.24353 0.395465 9.42626 0.608135 9.63899C1.43335 8.81377 1.4837 8.08591 1.60904 7.42182Z"
                        fill="#F73D7F" id="XMLID_485_" stroke="none" />
                </g>
                <path
                    d="M18.904 21.8295C19.5208 21.5956 20.0508 21.3945 20.6676 21.1605C20.4867 20.9796 14.4345 14.9273 14.2536 14.7464C13.8282 15.1718 13.4627 15.5374 13.0372 15.9628C13.3633 16.2888 18.5779 21.5035 18.904 21.8295L18.904 21.8295Z"
                    fill="#FF9000" id="XMLID_487_" stroke="none" />
                <path
                    d="M6.3474 22.6526C5.99528 23.0048 0.352175 28.6478 0 29C0.259687 28.9015 8.94427 25.6074 9.20373 25.5089C8.85838 25.1636 6.69499 23.0002 6.3474 22.6526Z"
                    fill="#FCBE00" id="XMLID_490_" stroke="none" />
                <path
                    d="M7.56373 21.4363C7.97731 21.8499 10.5526 24.4251 10.9674 24.84C11.9262 24.4763 13.9346 23.7145 14.4948 23.502C13.9878 22.9949 10.5308 19.5379 9.99644 19.0036C9.70206 19.2979 7.86 21.14 7.56373 21.4363L7.56373 21.4363Z"
                    fill="#FCBE00" id="XMLID_491_" stroke="none" />
            </g>
        </g>
    </g>
</svg>