<?xml version="1.0" encoding="utf-8"?>
<svg height="19px" version="1.1" viewBox="0 0 24 19" width="24px"
    xmlns="http://www.w3.org/2000/svg">
    <g id="1-AtomsRankingDiamond">
        <path
            d="M16.7617 5.59973C16.7617 5.59973 15.5351 9.30462 9.76162 9.30462C3.98817 9.30462 3.33826 5.65662 3.33826 5.65662L-6.42534e-16 5.65662C-6.42534e-16 5.65662 2.45162 12.0991 9.72222 12.0991C16.9928 12.0991 20 5.59973 20 5.59973L16.7617 5.59973Z"
            fill="none" fill-rule="evenodd" id="Path-10" stroke="none" />
        <g id="Group-2" transform="translate(4 3.9995117)">
            <path
                d="M12.9176 0L3.47374 0Q3.39131 0 3.33303 0.0582857L0.129989 3.26132Q0.103445 3.28787 0.0883951 3.32226Q0.0733455 3.35665 0.0718594 3.39416Q0.0703733 3.43167 0.0826548 3.46714Q0.0949364 3.50262 0.119298 3.53118L8.04427 12.8225Q8.05828 12.8389 8.07549 12.852Q8.0927 12.865 8.1123 12.874Q8.1319 12.8831 8.15299 12.8877Q8.17408 12.8924 8.19567 12.8924Q8.21726 12.8924 8.23835 12.8877Q8.25944 12.8831 8.27904 12.874Q8.29865 12.865 8.31586 12.852Q8.33307 12.8389 8.34708 12.8225L16.272 3.53118Q16.2964 3.50262 16.3087 3.46714Q16.321 3.43167 16.3195 3.39416Q16.318 3.35665 16.3029 3.32226Q16.2879 3.28787 16.2614 3.26132L13.0583 0.0582858Q13 0 12.9176 0Z"
                fill="#00C3FF" id="Path" stroke="#E9FDFF" stroke-width="2" />
            <g id="diamond-5">
                <path d="M13 0L3.39131 0L0 3.39131L8.19567 13L16.3913 3.39131L13 0Z" fill="#00C3FF"
                    id="Path" stroke="none" />
                <path d="M13.0016 0L8.19727 13L16.3929 3.39131L13.0016 0Z" fill="#87DAFF" id="Path"
                    stroke="none" />
                <path d="M3.39131 0L4.64477 3.39131L0 3.39131L3.39131 0Z" fill="#00AAF0" id="Path"
                    stroke="none" />
                <path d="M8.19543 0L4.64453 3.39131L11.7463 3.39131L8.19543 0Z" fill="#87DAFF"
                    id="Path" stroke="none" />
                <path d="M11.7461 3.39131L16.3909 3.39131L12.9996 0L11.7461 3.39131Z" fill="#C2ECFF"
                    id="Path" stroke="none" />
                <path d="M0 3.39136L4.64477 3.39136L8.19567 13L0 3.39136Z" fill="#0096DC" id="Path"
                    stroke="none" />
            </g>
        </g>
    </g>
</svg>