<?xml version="1.0" encoding="utf-8"?>
<svg xmlns:xlink="http://www.w3.org/1999/xlink" height="18px" version="1.1" viewBox="0 0 23 18"
    width="23px" xmlns="http://www.w3.org/2000/svg">
    <defs>
        <filter id="filter_1">
            <feColorMatrix in="SourceGraphic" type="matrix"
                values="0 0 0 0 1 0 0 0 0 1 0 0 0 0 1 0 0 0 1 0" />
        </filter>
        <rect height="18" id="artboard_1" width="23" />
        <clipPath id="clip_1">
            <use clip-rule="evenodd" xlink:href="#artboard_1" />
        </clipPath>
    </defs>
    <g clip-path="url(#clip_1)" id="IconsFilter">
        <g filter="url(#filter_1)" id="filter-4">
            <g id="filter-3">
                <g id="filter">
                    <path
                        d="M19.8602 18C20.3138 18 20.6814 17.64 20.6814 17.196L20.6814 14.6954C22.0491 14.3364 23 13.1229 23 11.7366C23 10.3503 22.0491 9.13678 20.6814 8.77774L20.6814 0.82586C20.6814 0.381805 20.3138 0.0218275 19.8602 0.0218275C19.4067 0.0218275 19.039 0.381805 19.039 0.82586L19.039 8.78578C17.6713 9.14482 16.7204 10.3583 16.7204 11.7446C16.7204 13.1309 17.6713 14.3444 19.039 14.7035L19.039 17.204C19.0435 17.6449 19.4098 18 19.8602 18ZM18.3573 11.7366C18.3573 10.924 19.0302 10.2652 19.8602 10.2652C20.6902 10.2652 21.3631 10.924 21.3631 11.7366C21.3631 12.5492 20.6902 13.208 19.8602 13.208C19.0302 13.208 18.3573 12.5492 18.3573 11.7366L18.3573 11.7366Z"
                        fill="#000000" id="Shape" stroke="none" />
                    <path
                        d="M11.5 18C11.9536 18 12.3212 17.64 12.3212 17.196L12.3212 6.05207C13.8436 5.64895 14.8256 4.20443 14.6179 2.6739C14.4103 1.14336 13.077 0 11.5 0C9.92298 0 8.58974 1.14336 8.38205 2.6739C8.17437 4.20443 9.15644 5.64895 10.6788 6.05207L10.6788 17.196C10.6788 17.64 11.0464 18 11.5 18L11.5 18ZM9.99713 3.10127C9.99381 2.50543 10.3579 1.96645 10.9192 1.73618C11.4805 1.5059 12.1282 1.62979 12.5597 2.04996C12.9913 2.47014 13.1214 3.10363 12.8892 3.65443C12.6571 4.20524 12.1086 4.5646 11.5 4.56461C10.6732 4.56462 10.0017 3.91075 9.99713 3.10127L9.99713 3.10127Z"
                        fill="#000000" id="Shape" stroke="none" />
                    <path
                        d="M2.31855 11.9698L2.31855 17.196C2.31855 17.64 2.68623 18 3.13979 18C3.59335 18 3.96103 17.64 3.96103 17.196L3.96103 11.9698C5.32867 11.6107 6.27958 10.3972 6.27958 9.01091C6.27958 7.62462 5.32867 6.41111 3.96103 6.05207L3.96103 0.82586C3.96103 0.381805 3.59335 0.0218275 3.13979 0.0218275C2.68623 0.0218275 2.31855 0.381805 2.31855 0.82586L2.31855 6.05207C0.950908 6.41111 0 7.62462 0 9.01091C0 10.3972 0.950908 11.6107 2.31855 11.9698L2.31855 11.9698ZM3.13979 7.53953C3.74838 7.53628 4.29889 7.8927 4.5341 8.44225C4.7693 8.9918 4.64276 9.62598 4.2136 10.0485C3.78443 10.4709 3.13739 10.5983 2.57479 10.371C2.0122 10.1438 1.64515 9.60676 1.64514 9.01091C1.64512 8.20142 2.31299 7.54396 3.13979 7.53953L3.13979 7.53953Z"
                        fill="#000000" id="Shape" stroke="none" />
                </g>
            </g>
        </g>
    </g>
</svg>