<?xml version="1.0" encoding="utf-8"?>
<svg xmlns:xlink="http://www.w3.org/1999/xlink" height="25px" version="1.1" viewBox="0 0 25 25"
    width="25px" xmlns="http://www.w3.org/2000/svg">
    <defs>
        <filter id="filter_1">
            <feColorMatrix in="SourceGraphic" type="matrix"
                values="0 0 0 0 0.8784314 0 0 0 0 0.8784314 0 0 0 0 0.8784314 0 0 0 1 0" />
        </filter>
        <rect height="25" id="artboard_1" width="25" />
        <clipPath id="clip_1">
            <use clip-rule="evenodd" xlink:href="#artboard_1" />
        </clipPath>
    </defs>
    <g clip-path="url(#clip_1)" id="IconsLike">
        <g filter="url(#filter_1)" id="thumb-up-copy-2" transform="translate(5 0)">
            <path
                d="M14.504 13.4244C14.5039 12.8747 14.297 12.3476 13.9287 11.9585C13.8973 11.9226 13.8635 11.8892 13.8275 11.8585C14.6685 11.4829 15.1426 10.5355 14.9617 9.59188C14.7808 8.6483 13.9949 7.96917 13.0814 7.96716L6.22143 7.96716C6.25936 7.8972 6.29414 7.8339 6.32575 7.7706C6.52316 7.43474 6.68031 7.0744 6.79362 6.69781C6.94485 6.17577 7.03716 5.63677 7.06865 5.09196C7.15711 3.50179 6.63277 1.9413 5.61446 0.764171C5.23079 0.304867 4.68654 0.0295059 4.10652 0.00122653C3.29313 -0.031687 2.59307 0.601523 2.50058 1.45382C2.49796 1.4692 2.4969 1.48484 2.49742 1.50046L2.49742 4.41897L0.663872 9.31647C0.513721 9.71477 0.287793 10.0765 0 10.3793L0 21.6668C0.452597 21.7982 0.913083 21.8973 1.37832 21.9634C1.55123 21.9877 1.72549 22 1.89994 22L11.1973 22C11.6568 21.9994 12.0975 21.8078 12.4239 21.4669C12.7483 21.125 12.9303 20.6611 12.9297 20.1776C12.9308 19.7358 12.7778 19.3089 12.4998 18.9782C13.247 18.8127 13.8381 18.2103 14.0201 17.4287C14.2022 16.6471 13.9429 15.8248 13.3533 15.3134C14.0539 14.9745 14.5033 14.2368 14.504 13.4244L14.504 13.4244Z"
                fill="#BAD450" id="Path" stroke="none" />
        </g>
    </g>
</svg>