<?xml version="1.0" encoding="utf-8"?>
<svg xmlns:xlink="http://www.w3.org/1999/xlink" height="11px" version="1.1" viewBox="0 0 11 11"
    width="11px" xmlns="http://www.w3.org/2000/svg">
    <defs>
        <rect height="11" id="artboard_1" width="11" />
        <clipPath id="clip_1">
            <use clip-rule="evenodd" xlink:href="#artboard_1" />
        </clipPath>
    </defs>
    <g clip-path="url(#clip_1)" id="dd">
        <g id="Group-21">
            <path
                d="M0.999 4.5L10.001 4.5Q10.0994 4.5 10.1959 4.5192Q10.2924 4.53839 10.3833 4.57604Q10.4742 4.6137 10.556 4.66836Q10.6378 4.72303 10.7074 4.7926Q10.777 4.86217 10.8316 4.94399Q10.8863 5.0258 10.924 5.1167Q10.9616 5.2076 10.9808 5.3041Q11 5.40061 11 5.499L11 5.501Q11 5.59939 10.9808 5.69589Q10.9616 5.7924 10.924 5.8833Q10.8863 5.9742 10.8316 6.05601Q10.777 6.13782 10.7074 6.2074Q10.6378 6.27697 10.556 6.33164Q10.4742 6.3863 10.3833 6.42395Q10.2924 6.46161 10.1959 6.4808Q10.0994 6.5 10.001 6.5L0.999 6.5Q0.900607 6.5 0.804105 6.4808Q0.707602 6.46161 0.616699 6.42395Q0.525796 6.3863 0.443985 6.33164Q0.362175 6.27697 0.2926 6.2074Q0.223026 6.13782 0.168362 6.05601Q0.113698 5.9742 0.0760443 5.8833Q0.038391 5.7924 0.0191955 5.69589Q0 5.59939 0 5.501L0 5.499Q0 5.40061 0.0191955 5.3041Q0.038391 5.2076 0.0760443 5.1167Q0.113698 5.0258 0.168362 4.94399Q0.223026 4.86217 0.2926 4.7926Q0.362175 4.72303 0.443985 4.66836Q0.525796 4.6137 0.616699 4.57604Q0.707602 4.53839 0.804105 4.5192Q0.900607 4.5 0.999 4.5L0.999 4.5Z"
                fill="#7EBA61" fill-rule="evenodd" id="Rectangle" stroke="none" />
            <path
                d="M6.5 0.999L6.5 10.001Q6.5 10.0994 6.4808 10.1959Q6.46161 10.2924 6.42395 10.3833Q6.3863 10.4742 6.33164 10.556Q6.27697 10.6378 6.2074 10.7074Q6.13782 10.777 6.05601 10.8316Q5.9742 10.8863 5.8833 10.924Q5.7924 10.9616 5.69589 10.9808Q5.59939 11 5.501 11L5.499 11Q5.40061 11 5.3041 10.9808Q5.2076 10.9616 5.1167 10.924Q5.02579 10.8863 4.94398 10.8316Q4.86217 10.777 4.7926 10.7074Q4.72302 10.6378 4.66836 10.556Q4.6137 10.4742 4.57604 10.3833Q4.53839 10.2924 4.51919 10.1959Q4.5 10.0994 4.5 10.001L4.5 0.999Q4.5 0.900607 4.5192 0.804105Q4.53839 0.707602 4.57604 0.616699Q4.6137 0.525796 4.66836 0.443985Q4.72303 0.362175 4.7926 0.2926Q4.86217 0.223026 4.94399 0.168362Q5.0258 0.113698 5.1167 0.0760443Q5.2076 0.0383909 5.3041 0.0191955Q5.40061 -4.8056e-08 5.499 -4.37551e-08L5.501 -4.36677e-08Q5.59939 -3.93668e-08 5.69589 0.0191955Q5.7924 0.038391 5.8833 0.0760443Q5.9742 0.113698 6.05601 0.168362Q6.13782 0.223026 6.2074 0.2926Q6.27697 0.362175 6.33164 0.443985Q6.3863 0.525796 6.42395 0.616699Q6.46161 0.707602 6.4808 0.804105Q6.5 0.900607 6.5 0.999L6.5 0.999Z"
                fill="#7EBA61" fill-rule="evenodd" id="Rectangle" stroke="none" />
        </g>
    </g>
</svg>