<?xml version="1.0" encoding="utf-8"?>
<svg xmlns:xlink="http://www.w3.org/1999/xlink" height="16px" version="1.1" viewBox="0 0 15 16"
    width="15px" xmlns="http://www.w3.org/2000/svg">
    <defs>
        <rect height="15.833333" id="artboard_1" width="15" />
        <clipPath id="clip_1">
            <use clip-rule="evenodd" xlink:href="#artboard_1" />
        </clipPath>
    </defs>
    <g clip-path="url(#clip_1)" id="ElementsIconSearch">
        <path
            d="M14.7719 14.4217L11.0742 10.5024C12.0249 9.35058 12.5459 7.90138 12.5459 6.3927C12.5459 2.86782 9.73177 1.86517e-14 6.27293 1.86517e-14C2.81409 1.86517e-14 0 2.86782 0 6.3927C0 9.91758 2.81409 12.7854 6.27293 12.7854C7.57143 12.7854 8.80883 12.3863 9.86677 11.6286L13.5926 15.5776C13.7484 15.7424 13.9578 15.8333 14.1823 15.8333C14.3947 15.8333 14.5963 15.7508 14.7493 15.6007C15.0744 15.2819 15.0848 14.7532 14.7719 14.4217ZM6.27293 1.66766C8.82956 1.66766 10.9094 3.78726 10.9094 6.3927C10.9094 8.99815 8.82956 11.1177 6.27293 11.1177C3.7163 11.1177 1.63642 8.99815 1.63642 6.3927C1.63642 3.78726 3.7163 1.66766 6.27293 1.66766Z"
            fill="#838383" fill-rule="evenodd" id="Shape" stroke="none" />
    </g>
</svg>