<?xml version="1.0" encoding="utf-8"?>
<svg height="19px" version="1.1" viewBox="0 0 20 19" width="20px"
    xmlns="http://www.w3.org/2000/svg">
    <g id="language">
        <path
            d="M16.2734 7.93148L12.837 7.93148C12.8664 7.74287 12.8812 7.5523 12.8811 7.36144L12.8811 3.70713C12.8788 1.6607 11.2117 0.00231442 9.15456 0L3.72658 0C1.66941 0.00231717 0.00232656 1.6607 0 3.70713L0 7.36143C0.00232933 9.40786 1.66941 11.0662 3.72658 11.0686L7.16384 11.0686C7.13403 11.2571 7.11899 11.4477 7.11885 11.6386L7.11885 15.2929C7.12117 17.3393 8.78825 18.9977 10.8454 19L16.2734 19C18.3306 18.9977 19.9977 17.3393 20 15.2929L20 11.6386C19.9977 9.59214 18.3306 7.93377 16.2734 7.93148L16.2734 7.93148ZM0.803162 7.36143L0.803162 3.70713C0.804988 2.10175 2.11278 0.800799 3.72658 0.798994L9.15456 0.798994C10.7684 0.800802 12.0761 2.10176 12.078 3.70713L12.078 7.36143C12.0761 8.9668 10.7684 10.2678 9.15456 10.2696L3.72658 10.2696C2.11278 10.2678 0.804988 8.9668 0.803162 7.36143ZM16.5746 12.5366L15.5957 12.5366C15.3286 13.4854 14.8318 14.3545 14.1488 15.068C14.4912 15.3403 14.8614 15.5759 15.2533 15.7711L15.7997 16.044C15.9279 16.1081 16.012 16.2353 16.0204 16.3778C16.0287 16.5203 15.96 16.6564 15.8402 16.7348C15.7203 16.8133 15.5675 16.8221 15.4393 16.7581L14.8929 16.4852C14.4163 16.2483 13.9684 15.9583 13.5576 15.6209C13.1481 15.9584 12.7013 16.2483 12.2259 16.4851L11.6795 16.758C11.4813 16.8571 11.24 16.7775 11.1404 16.5803C11.0409 16.3831 11.1209 16.143 11.3191 16.044L11.8654 15.7711C12.2564 15.5762 12.6257 15.3408 12.9669 15.0688C12.5625 14.6422 12.2211 14.1606 11.9528 13.6384C11.8877 13.5113 11.8957 13.3592 11.9738 13.2395C12.052 13.1198 12.1884 13.0506 12.3316 13.0581C12.4749 13.0655 12.6033 13.1485 12.6685 13.2756C12.9035 13.7328 13.2029 14.1542 13.5577 14.5272C14.1014 13.9607 14.5112 13.2806 14.7572 12.5366L10.5442 12.5366C10.3224 12.5366 10.1426 12.3578 10.1426 12.1371C10.1426 11.9165 10.3224 11.7376 10.5442 11.7376L13.1578 11.7376L13.1578 10.5304C13.1578 10.3098 13.3376 10.1309 13.5594 10.1309C13.7812 10.1309 13.961 10.3098 13.961 10.5304L13.961 11.7376L16.5746 11.7376C16.7964 11.7376 16.9762 11.9165 16.9762 12.1371C16.9762 12.3578 16.7964 12.5366 16.5746 12.5366L16.5746 12.5366Z"
            fill="#000000" id="Shape" stroke="none" />
        <path
            d="M7.22362 3.48985C7.09151 3.18771 6.81416 3 6.49979 3C6.18543 3 5.90805 3.18771 5.77594 3.48987L4.02949 7.4847C3.97532 7.60861 3.99676 7.74983 4.08573 7.85515C4.1747 7.96048 4.31768 8.01392 4.46081 7.99535C4.60395 7.97677 4.72549 7.88899 4.77966 7.76508L5.43442 6.2674L7.56515 6.2674L8.2199 7.76508C8.27378 7.88938 8.3954 7.97757 8.5388 7.99631C8.68219 8.01505 8.82549 7.9615 8.91452 7.85588C9.00355 7.75027 9.02473 7.6087 8.97007 7.4847L7.22362 3.48985ZM5.76151 5.51923L6.49979 3.83048L7.23807 5.51923L5.76151 5.51923Z"
            fill="#000000" id="Shape" stroke="none" />
    </g>
</svg>