<?xml version="1.0" encoding="utf-8"?>
<svg height="22px" version="1.1" viewBox="0 0 63 22" width="63px"
    xmlns="http://www.w3.org/2000/svg">
    <g id="Unibet-2">
        <g id="Unibet">
            <g id="#000000ff">
                <path
                    d="M0.116414 0.00355199C1.16693 -0.000708983 2.21744 0.00294328 3.26826 0.00172586C3.35374 -0.0104484 3.44014 0.0531619 3.42961 0.143251C3.43178 2.69071 3.42961 5.23846 3.43085 7.78622C3.44696 8.15297 3.6111 8.5115 3.87682 8.76898C4.1537 9.04473 4.54423 9.21121 4.9391 9.20939C5.42627 9.22308 5.90971 8.98021 6.19278 8.59215C6.38139 8.34319 6.48421 8.03488 6.48886 7.72505C6.48886 5.19798 6.48886 2.67123 6.48886 0.144164C6.47306 0.0577272 6.5573 -0.0119701 6.64154 0.00172586C7.68555 0.00203022 8.72987 0.00111715 9.77387 0.00203022C9.84325 -0.00496996 9.91324 0.0492053 9.91107 0.12012C9.91138 2.69527 9.91107 5.27103 9.91107 7.84648C9.88908 8.67798 9.64411 9.50248 9.20619 10.2147C8.72553 11.0005 8.01507 11.6485 7.18135 12.0606C6.45417 12.4209 5.63501 12.5993 4.82111 12.5762C3.96881 12.5539 3.12301 12.3123 2.39521 11.8752C1.48158 11.3353 0.75626 10.4965 0.359221 9.52439C0.115175 8.93608 -3.44555e-05 8.29997 0.000275247 7.66539C0.000894653 5.15872 0.000275247 2.65205 0.00058495 0.145382C-0.00591881 0.0765973 0.0423948 0.00568248 0.116414 0.00355199Z"
                    fill="#000000" id="Path" stroke="none" />
                <path
                    d="M12.2264 0.266819C12.2177 0.121642 12.3484 -0.00588302 12.4962 0.00233457C13.6935 0.00111715 14.8908 0.00111715 16.0881 0.00233457C16.1903 0.000204083 16.2928 0.054988 16.3331 0.149643C17.247 2.23022 18.1547 4.31322 19.0702 6.39319C19.0708 4.34031 19.0699 2.28743 19.0708 0.234862C19.0677 0.0975978 19.2052 -0.00649173 19.3387 0.00172586C20.2691 0.00203022 21.2 0.000812794 22.1304 0.00233457C22.223 0.00111715 22.3137 0.0482922 22.3602 0.128033C22.4091 0.207166 22.3881 0.303342 22.3924 0.390692C22.3921 4.235 22.3921 8.07932 22.3924 11.9233C22.3874 12.0168 22.4116 12.1215 22.3534 12.2036C22.3066 12.2776 22.2171 12.3178 22.1301 12.3135C21.0768 12.312 20.0232 12.3138 18.9699 12.3126C18.8677 12.3117 18.7701 12.2481 18.7348 12.1531C17.6914 9.80227 16.635 7.45691 15.5978 5.10394C15.5882 7.42952 15.5988 9.7554 15.5926 12.0813C15.5885 12.2045 15.4761 12.3153 15.3495 12.3126C14.3974 12.3138 13.4457 12.3123 12.4937 12.3132C12.3732 12.3211 12.2558 12.2344 12.2326 12.1178C12.2202 12.0438 12.227 11.9687 12.2258 11.8944C12.2264 8.01845 12.2255 4.14248 12.2264 0.266819Z"
                    fill="#000000" id="Path" stroke="none" />
                <path
                    d="M24.9258 0.00537812C25.5721 -0.00923093 26.2191 0.0132914 26.8661 0.00933474C27.1857 0.0096391 27.5056 0.00842168 27.8255 0.0096391C27.9643 0.00263893 28.0934 0.129555 28.0754 0.267428C28.0742 4.20487 28.0761 8.14232 28.0745 12.0798C28.073 12.2045 27.9528 12.3108 27.8271 12.305C26.8568 12.3041 25.8858 12.3114 24.9159 12.2955C24.7929 12.2849 24.7062 12.1644 24.7077 12.0481C24.7059 8.15236 24.708 4.25631 24.7065 0.360561C24.6842 0.210818 24.752 0.0239438 24.9258 0.00537812Z"
                    fill="#000000" id="Path" stroke="none" />
                <path
                    d="M30.3979 0.265602C30.3892 0.129555 30.5063 0.00537812 30.645 0.00385635C32.2763 -0.00831787 33.9078 0.0257699 35.539 0.00172586C35.9831 -0.00649173 36.4269 0.0230307 36.871 0.00263893C37.5462 0.00233457 38.2201 0.209296 38.7723 0.592479C39.2312 0.908096 39.6075 1.33967 39.8519 1.83547C40.183 2.48922 40.2675 3.25468 40.112 3.96656C39.9721 4.60814 39.6236 5.20011 39.1386 5.64965C39.5546 5.97165 39.9052 6.37675 40.1532 6.83724C40.7386 7.90157 40.7407 9.24926 40.16 10.316C39.6236 11.3332 38.583 12.0752 37.4313 12.2551C37.042 12.3239 36.6455 12.3022 36.2525 12.3053C34.3841 12.305 32.516 12.3059 30.6475 12.305C30.5543 12.3059 30.4626 12.2535 30.4214 12.1711C30.3837 12.1059 30.401 12.0277 30.3976 11.9568C30.3985 8.05984 30.3976 4.16257 30.3979 0.265602M33.6885 4.21705C34.4909 4.21705 35.2937 4.21674 36.0961 4.21735C36.2392 4.22313 36.3851 4.21187 36.5189 4.15739C36.871 4.02226 37.1123 3.65125 37.0782 3.27963C37.0519 2.86114 36.6802 2.49531 36.2531 2.47522C35.3984 2.4737 34.5436 2.47522 33.6888 2.47461C33.6882 3.05532 33.6888 3.63603 33.6885 4.21705M33.6885 6.81198C33.6885 7.66387 33.6885 8.51607 33.6885 9.36796C34.481 9.36887 35.2736 9.36765 36.0661 9.36856C36.246 9.3707 36.4291 9.35182 36.5985 9.28882C37.0098 9.14456 37.3315 8.78512 37.4254 8.36602C37.5136 7.99714 37.4167 7.59326 37.1773 7.29743C36.9373 6.9952 36.552 6.80407 36.1605 6.81107C35.3364 6.81259 34.5123 6.81107 33.6885 6.81198Z"
                    fill="#000000" id="Shape" stroke="none" />
                <path
                    d="M42.5578 0.00811732C42.6021 0.000204083 42.6473 0.0014215 42.6934 0.00111715C45.3875 0.018161 48.0822 0.00537812 50.7767 0.00933474C50.9073 0.0142044 51.0703 -0.0183616 51.1678 0.091815C51.2325 0.153904 51.2387 0.246428 51.2338 0.330125C51.2319 1.07001 51.2344 1.8102 51.2328 2.55009C51.2387 2.69375 51.1093 2.81945 50.9625 2.8091C50.1675 2.80788 49.3722 2.81519 48.5771 2.80179C47.6223 2.8021 46.6675 2.80119 45.7127 2.8024C45.713 3.39803 45.7127 3.99395 45.7127 4.58988C46.6777 4.5841 47.6425 4.60266 48.6078 4.59688C48.7078 4.5914 48.824 4.59323 48.8946 4.67632C48.9602 4.74145 48.9593 4.83793 48.9575 4.92346C48.9556 5.66487 48.9581 6.40658 48.9562 7.14799C48.9578 7.27947 48.8367 7.39665 48.7029 7.38995C47.7063 7.38995 46.7096 7.38995 45.7127 7.38995C45.7071 8.09758 45.7022 8.8049 45.705 9.51283C47.5824 9.51618 49.4604 9.50461 51.3375 9.52105C51.4605 9.52531 51.5692 9.64401 51.5587 9.76514C51.5577 10.5358 51.559 11.3064 51.558 12.077C51.5596 12.165 51.5032 12.2499 51.423 12.2879C51.357 12.3223 51.2799 12.3114 51.209 12.3135C49.453 12.3111 47.697 12.3156 45.9406 12.3111C44.8121 12.2965 43.6826 12.3117 42.5537 12.3035C42.4432 12.2879 42.3407 12.1912 42.345 12.0773C42.3444 9.38865 42.345 6.69998 42.3447 4.011C42.3481 2.76345 42.3568 1.51559 42.3521 0.267732C42.3397 0.14599 42.4354 0.0269873 42.5578 0.00811732Z"
                    fill="#000000" id="Path" stroke="none" />
                <path
                    d="M53.0997 0.236079C53.1031 0.0982065 53.2385 -0.00770915 53.3751 0.00233457C55.0171 0.0209002 56.6598 -0.00283947 58.3015 0.0169436C59.7998 0.0199872 61.2985 0.00903039 62.7965 0.0269873C62.9124 0.0440312 62.9969 0.153904 63 0.266515C62.9873 1.02801 62.9975 1.79042 62.9938 2.55222C62.9972 2.67518 62.8904 2.78658 62.7665 2.79327C61.7661 2.79753 60.7655 2.79236 59.7655 2.78688C59.7658 3.69234 59.7655 4.5978 59.7655 5.50325C59.771 6.28484 59.7531 7.06581 59.7577 7.8474C59.7543 9.21608 59.7652 10.5854 59.7506 11.9538C59.7472 12.0396 59.7655 12.137 59.706 12.2094C59.6434 12.3022 59.5208 12.3193 59.4164 12.3135C58.4567 12.3096 57.4969 12.301 56.5368 12.3059C56.4086 12.3153 56.2856 12.21 56.2773 12.0843C56.2618 11.7471 56.2856 11.4096 56.2813 11.0723C56.2826 9.40874 56.2764 7.74453 56.2891 6.08122C56.2891 4.9828 56.2891 3.88469 56.2891 2.78658C55.3188 2.77958 54.3481 2.77684 53.3775 2.77927C53.2834 2.78536 53.1843 2.74853 53.1347 2.66697C53.0669 2.55892 53.0982 2.42683 53.0988 2.30752C53.1 1.61694 53.0979 0.926357 53.0997 0.236079Z"
                    fill="#000000" id="Path" stroke="none" />
            </g>
            <g id="#94d090ff" transform="translate(11.603693 15.5835905)">
                <path
                    d="M2.92102 0.0166489C4.00808 -0.0980931 5.1292 0.387658 5.78515 1.24503C6.54051 2.19309 6.67431 3.56787 6.12118 4.64133C5.67273 5.55044 4.75972 6.22306 3.74173 6.37615C3.05884 6.4842 2.33971 6.3725 1.72959 6.05049C0.850037 5.60066 0.212979 4.73111 0.0485269 3.77118C-0.0738057 3.07177 0.0352097 2.33249 0.374954 1.7046C0.866452 0.77145 1.85255 0.106434 2.92102 0.0166489Z"
                    fill="#94D090" id="Path" stroke="none" />
            </g>
            <g id="#80c87cff" transform="translate(18.271841 15.583411)">
                <path
                    d="M2.91148 0.017437C4.01247 -0.101566 5.15001 0.396359 5.80503 1.27229C6.45107 2.10471 6.63225 3.25426 6.28848 4.24311C6.00138 5.09165 5.33552 5.80932 4.49747 6.15963C3.62535 6.53338 2.58196 6.49777 1.74142 6.05737C0.685028 5.52688 -0.0158292 4.38676 0.000585027 3.22078C-0.0201651 2.19266 0.512524 1.17825 1.36637 0.586886C1.81854 0.267921 2.35711 0.0691774 2.91148 0.017437Z"
                    fill="#80C87C" id="Path" stroke="none" />
            </g>
            <g id="#6bbf69ff" transform="translate(24.925516 15.584583)">
                <path
                    d="M2.91889 0.0159606C3.79721 -0.0735199 4.70618 0.216835 5.36337 0.796632C5.81244 1.18651 6.14816 1.70178 6.32128 2.26575C6.56161 3.03912 6.49472 3.90136 6.1302 4.62725C5.72325 5.45814 4.93165 6.09881 4.01895 6.31946C3.15303 6.53769 2.19697 6.37942 1.45493 5.88819C0.682836 5.38874 0.150767 4.55116 0.0315315 3.65057C-0.103189 2.71985 0.198461 1.73648 0.846979 1.04377C1.37533 0.463667 2.12946 0.0871797 2.91889 0.0159606Z"
                    fill="#6BBF69" id="Path" stroke="none" />
            </g>
            <g id="#57b753ff" transform="translate(31.603378 15.5849695)">
                <path
                    d="M2.90088 0.0167921C3.56736 -0.0516878 4.25521 0.0904461 4.83497 0.421889C5.69439 0.904901 6.30172 1.79362 6.42994 2.75873C6.52997 3.46422 6.38999 4.20229 6.02547 4.81891C5.76098 5.27118 5.3819 5.65832 4.93253 5.93559C4.32706 6.31025 3.5912 6.4743 2.88013 6.39577C1.83395 6.29351 0.872632 5.64097 0.384541 4.72882C0.0163042 4.05893 -0.088685 3.25878 0.074838 2.51616C0.278932 1.55744 0.961517 0.712853 1.86461 0.299234C2.19042 0.148274 2.54255 0.0530104 2.90088 0.0167921Z"
                    fill="#57B753" id="Path" stroke="none" />
            </g>
            <g id="#44ae3fff" transform="translate(38.26993 15.585062)">
                <path
                    d="M2.92142 0.0148735C3.61609 -0.052389 4.33212 0.109832 4.92396 0.474146C5.78741 0.996419 6.3712 1.93414 6.44925 2.92786C6.5053 3.56731 6.36656 4.22289 6.04632 4.78321C5.78989 5.23365 5.42165 5.62262 4.98126 5.90415C4.34729 6.31503 3.56034 6.48669 2.80838 6.38747C1.84149 6.26938 0.954502 5.6841 0.460526 4.86143C0.0557444 4.20067 -0.0860995 3.39474 0.0504794 2.63689C0.213693 1.70039 0.827214 0.852459 1.67487 0.395013C2.05735 0.184704 2.48536 0.0559615 2.92142 0.0148735Z"
                    fill="#44AE3F" id="Path" stroke="none" />
            </g>
            <g id="#3baa34ff" transform="translate(44.936684 15.585151)">
                <path
                    d="M2.91359 0.015698C3.56273 -0.0488253 4.232 0.0866128 4.80061 0.402534C5.30945 0.683454 5.73839 1.10225 6.02858 1.59987C6.60649 2.57624 6.60494 3.85331 6.02115 4.82664C5.72105 5.33644 5.27445 5.76284 4.74641 6.04132C4.12081 6.37368 3.38093 6.48812 2.681 6.36851C1.71504 6.21115 0.850041 5.58662 0.390752 4.7399C0.0194188 4.06728 -0.090216 3.26347 0.0745459 2.51659C0.281118 1.54661 0.97702 0.693193 1.89591 0.284748C2.21676 0.139875 2.56239 0.0497858 2.91359 0.015698Z"
                    fill="#3BAA34" id="Path" stroke="none" />
            </g>
        </g>
    </g>
</svg>