<?xml version="1.0" encoding="utf-8"?>
<svg xmlns:xlink="http://www.w3.org/1999/xlink" height="25px" version="1.1" viewBox="0 0 25 25"
    width="25px" xmlns="http://www.w3.org/2000/svg">
    <defs>
        <filter id="filter_1">
            <feColorMatrix in="SourceGraphic" type="matrix"
                values="0 0 0 0 0.5137255 0 0 0 0 0.5137255 0 0 0 0 0.5137255 0 0 0 1 0" />
        </filter>
        <rect height="25" id="artboard_1" width="25" />
        <clipPath id="clip_1">
            <use clip-rule="evenodd" xlink:href="#artboard_1" />
        </clipPath>
    </defs>
    <g clip-path="url(#clip_1)" id="IconsRevealed">
        <g filter="url(#filter_1)" id="view" transform="translate(0 4.839384)">
            <path
                d="M12.5001 11.9313C14.6257 11.9313 16.3489 10.2081 16.3489 8.08248C16.3489 5.95685 14.6257 4.23368 12.5001 4.23368C10.3744 4.23368 8.65126 5.95685 8.65126 8.08248C8.65126 10.2081 10.3744 11.9313 12.5001 11.9313Z"
                fill="#000000" id="Oval" stroke="none" />
            <path
                d="M24.6166 7.01636C21.6581 3.44131 17.1798 0 12.5001 0C7.81944 0 3.34006 3.44371 0.383557 7.01636C-0.127852 7.6341 -0.127852 8.53087 0.383557 9.1486C1.12686 10.0468 2.68514 11.7807 4.76638 13.2957C10.0079 17.1114 14.9807 17.1198 20.2337 13.2957C22.315 11.7807 23.8733 10.0468 24.6166 9.1486C25.1265 8.53207 25.1291 7.63612 24.6166 7.01636ZM12.5001 2.69416C15.4713 2.69416 17.8884 5.11121 17.8884 8.08248C17.8884 11.0538 15.4713 13.4708 12.5001 13.4708C9.52879 13.4708 7.11174 11.0538 7.11174 8.08248C7.11174 5.11121 9.52879 2.69416 12.5001 2.69416Z"
                fill="#000000" id="Shape" stroke="none" />
        </g>
    </g>
</svg>