<?xml version="1.0" encoding="utf-8"?>
<svg xmlns:xlink="http://www.w3.org/1999/xlink" height="46px" version="1.1" viewBox="0 0 119 46"
    width="119px" xmlns="http://www.w3.org/2000/svg">
    <defs>
        <path
            d="M4.999 0L113.001 0Q113.124 0 113.246 0.00602151Q113.369 0.012043 113.491 0.0240715Q113.613 0.0361001 113.735 0.0541066Q113.856 0.0721132 113.976 0.0960544Q114.097 0.119996 114.216 0.149814Q114.335 0.179632 114.452 0.215255Q114.57 0.250879 114.685 0.292221Q114.801 0.333564 114.914 0.380526Q115.027 0.427489 115.138 0.479957Q115.249 0.532426 115.358 0.590276Q115.466 0.648125 115.571 0.711215Q115.676 0.774305 115.778 0.842483Q115.88 0.910662 115.979 0.983765Q116.077 1.05687 116.172 1.13472Q116.267 1.21257 116.358 1.29499Q116.449 1.3774 116.536 1.46417Q116.623 1.55095 116.705 1.64188Q116.787 1.73281 116.865 1.82767Q116.943 1.92253 117.016 2.0211Q117.089 2.11967 117.158 2.2217Q117.226 2.32374 117.289 2.429Q117.352 2.53426 117.41 2.64249Q117.468 2.75072 117.52 2.86165Q117.573 2.97259 117.619 3.08597Q117.666 3.19934 117.708 3.31489Q117.749 3.43043 117.785 3.54787Q117.82 3.6653 117.85 3.78434Q117.88 3.90338 117.904 4.02374Q117.928 4.1441 117.946 4.26549Q117.964 4.38688 117.976 4.50901Q117.988 4.63114 117.994 4.75371Q118 4.87628 118 4.999L118 36L4.999 36Q4.87628 36 4.75371 35.994Q4.63114 35.988 4.50901 35.9759Q4.38688 35.9639 4.26549 35.9459Q4.1441 35.9279 4.02374 35.9039Q3.90338 35.88 3.78434 35.8502Q3.6653 35.8204 3.54787 35.7847Q3.43043 35.7491 3.31489 35.7078Q3.19934 35.6664 3.08597 35.6195Q2.97259 35.5725 2.86165 35.52Q2.75072 35.4676 2.64249 35.4097Q2.53426 35.3519 2.429 35.2888Q2.32374 35.2257 2.2217 35.1575Q2.11967 35.0893 2.0211 35.0162Q1.92253 34.9431 1.82767 34.8653Q1.73281 34.7874 1.64188 34.705Q1.55095 34.6226 1.46417 34.5358Q1.3774 34.449 1.29499 34.3581Q1.21257 34.2672 1.13472 34.1723Q1.05687 34.0775 0.983765 33.9789Q0.910662 33.8803 0.842483 33.7783Q0.774305 33.6763 0.711215 33.571Q0.648125 33.4657 0.590276 33.3575Q0.532426 33.2493 0.479957 33.1383Q0.427489 33.0274 0.380526 32.914Q0.333564 32.8007 0.292221 32.6851Q0.250879 32.5696 0.215255 32.4521Q0.179632 32.3347 0.149814 32.2157Q0.119996 32.0966 0.0960544 31.9763Q0.0721132 31.8559 0.0541066 31.7345Q0.0361001 31.6131 0.0240715 31.491Q0.012043 31.3689 0.00602151 31.2463Q0 31.1237 0 31.001L0 4.999Q0 4.87628 0.00602151 4.75371Q0.012043 4.63114 0.0240715 4.50901Q0.0361001 4.38688 0.0541066 4.26549Q0.0721132 4.1441 0.0960544 4.02374Q0.119996 3.90338 0.149814 3.78434Q0.179632 3.6653 0.215255 3.54787Q0.250879 3.43043 0.292221 3.31489Q0.333564 3.19934 0.380526 3.08597Q0.427489 2.97259 0.479957 2.86165Q0.532426 2.75072 0.590276 2.64249Q0.648125 2.53426 0.711215 2.429Q0.774305 2.32374 0.842483 2.2217Q0.910662 2.11967 0.983765 2.0211Q1.05687 1.92253 1.13472 1.82767Q1.21257 1.73281 1.29499 1.64188Q1.3774 1.55095 1.46417 1.46417Q1.55095 1.3774 1.64188 1.29499Q1.73281 1.21257 1.82767 1.13472Q1.92253 1.05687 2.0211 0.983765Q2.11967 0.910662 2.2217 0.842483Q2.32374 0.774305 2.429 0.711215Q2.53426 0.648125 2.64249 0.590276Q2.75072 0.532426 2.86165 0.479957Q2.97259 0.427489 3.08597 0.380526Q3.19934 0.333564 3.31489 0.292221Q3.43043 0.250879 3.54787 0.215255Q3.6653 0.179632 3.78434 0.149814Q3.90338 0.119996 4.02374 0.0960544Q4.1441 0.0721132 4.26549 0.0541066Q4.38688 0.0361001 4.50901 0.0240715Q4.63114 0.012043 4.75371 0.00602151Q4.87628 0 4.999 0L4.999 0Z"
            id="path_1" />
        <clipPath id="clip_1">
            <use xlink:href="#path_1" />
        </clipPath>
    </defs>
    <g id="Group-4" transform="translate(0.5 0.5)">
        <path d="M110 45L110 36L118 36L110 45Z" fill="#7EBA61" fill-rule="evenodd" id="Path-7"
            stroke="none" />
        <g id="Group-4-Copy-4">
            <g id="Group">
                <g id="Rectangle-Copy-2">
                    <use fill="#BAD450" stroke="none" xlink:href="#path_1" />
                    <g clip-path="url(#clip_1)">
                        <use fill="none" stroke="#D9ED88" stroke-width="10" xlink:href="#path_1" />
                    </g>
                </g>
            </g>
        </g>
    </g>
</svg>