<svg width="381" height="521" viewBox="0 0 381 521" fill="none" xmlns="http://www.w3.org/2000/svg">
<path d="M37.0171 3C33.2972 3 30.227 5.90955 30.0272 9.62413L3.08777 510.624C2.87226 514.632 6.064 518 10.0777 518H370.21C374.232 518 377.427 514.618 377.198 510.602L348.679 9.60219C348.468 5.8967 345.401 3 341.69 3H37.0171Z" fill="#343434" stroke="#5E5E5E" stroke-width="6"/>
<mask id="mask0_702_705" style="mask-type:luminance" maskUnits="userSpaceOnUse" x="0" y="0" width="381" height="521">
<path d="M37.0171 3C33.2972 3 30.227 5.90955 30.0272 9.62413L3.08777 510.624C2.87226 514.632 6.064 518 10.0777 518H370.21C374.232 518 377.427 514.618 377.198 510.602L348.679 9.60219C348.468 5.8967 345.401 3 341.69 3H37.0171Z" fill="white" stroke="white" stroke-width="6"/>
</mask>
<g mask="url(#mask0_702_705)">
<rect opacity="0.500605" x="21" y="-2" width="335" height="51" fill="#444444"/>
<path d="M131.57 66.5L134.022 1.5H242.646L245.413 66.5H131.57Z" stroke="#5E5E5E" stroke-width="7"/>
<rect opacity="0.500605" x="23" y="106" width="332" height="51" fill="#444444"/>
<rect opacity="0.500605" x="23" y="206" width="332" height="51" fill="#444444"/>
<rect opacity="0.500605" x="6" y="316" width="366" height="51" fill="#444444"/>
<rect x="144" y="215" width="90" height="94" rx="45" stroke="#5E5E5E" stroke-width="8"/>
<rect opacity="0.500605" x="2" y="415" width="374" height="51" fill="#444444"/>
<path fill-rule="evenodd" clip-rule="evenodd" d="M58 5C58 -9.3594 43.6731 -21 26 -21C8.32689 -21 -6 -9.3594 -6 5C-6 19.3594 8.32689 31 26 31C43.6731 31 58 19.3594 58 5ZM0 5C0 -6.59798 11.6406 -16 26 -16C40.3594 -16 52 -6.59798 52 5C52 16.598 40.3594 26 26 26C11.6406 26 0 16.598 0 5Z" fill="#5E5E5E"/>
<path d="M125.017 523L125.943 459H186.952H249.154L251.665 523H125.017Z" stroke="#5E5E5E" stroke-width="8"/>
<path fill-rule="evenodd" clip-rule="evenodd" d="M384 5C384 -9.3594 369.673 -21 352 -21C334.327 -21 320 -9.3594 320 5C320 19.3594 334.327 31 352 31C369.673 31 384 19.3594 384 5ZM326 5C326 -6.59798 337.641 -16 352 -16C366.359 -16 378 -6.59798 378 5C378 16.598 366.359 26 352 26C337.641 26 326 16.598 326 5Z" fill="#5E5E5E"/>
<path fill-rule="evenodd" clip-rule="evenodd" d="M407 514C407 495.775 391.33 481 372 481C352.67 481 337 495.775 337 514C337 532.225 352.67 547 372 547C391.33 547 407 532.225 407 514ZM344 515C344 500.088 356.76 488 372.5 488C388.24 488 401 500.088 401 515C401 529.912 388.24 542 372.5 542C356.76 542 344 529.912 344 515Z" fill="#5E5E5E"/>
<path fill-rule="evenodd" clip-rule="evenodd" d="M37 514C37 495.775 21.33 481 2 481C-17.33 481 -33 495.775 -33 514C-33 532.225 -17.33 547 2 547C21.33 547 37 532.225 37 514ZM-27 515C-27 500.088 -14.2401 488 1.5 488C17.2401 488 30 500.088 30 515C30 529.912 17.2401 542 1.5 542C-14.2401 542 -27 529.912 -27 515Z" fill="#5E5E5E"/>
<rect x="8.5" y="257.5" width="358" height="10" fill="#5E5E5E"/>
</g>
</svg>
