<svg width="354" height="554" viewBox="0 0 354 554" fill="none" xmlns="http://www.w3.org/2000/svg">
<path d="M121.509 150.598C122.119 157.311 121.763 162.889 121.509 164.839L133.201 191.287L156.84 220.532L179.971 218.498L203.61 183.403L209.71 164.839L207.931 143.477C206.406 147.292 194.968 161.024 191.663 164.839C188.359 168.653 175.396 175.011 164.72 176.283C154.044 177.554 137.522 167.891 133.201 164.839C129.744 162.398 123.966 154.327 121.509 150.598Z" fill="#DAB28F"/>
<mask id="mask0_902_39987" style="mask-type:alpha" maskUnits="userSpaceOnUse" x="121" y="143" width="89" height="78">
<path d="M121.509 150.598C122.119 157.311 121.763 162.889 121.509 164.839L133.201 191.287L156.84 220.532L179.971 218.498L203.61 183.403L209.71 164.839L207.931 143.477C206.406 147.292 194.968 161.024 191.663 164.839C188.359 168.653 175.396 175.011 164.72 176.283C154.044 177.554 137.522 167.891 133.201 164.839C129.744 162.398 123.966 154.327 121.509 150.598Z" fill="#DAB28F"/>
</mask>
<g mask="url(#mask0_902_39987)">
<path d="M200.042 190.731V151.567L209.447 135.8L213.26 176.235L200.042 190.731Z" fill="#C29B80"/>
</g>
<path d="M96.0903 102.533C99.1405 100.499 101.937 102.533 104.224 103.55C101.937 96.5994 97.1071 81.5786 96.0903 77.1028C94.8193 71.508 92.2776 60.0642 93.5485 53.1979C94.8195 46.3316 101.174 37.1766 106.766 30.3103C112.358 23.444 133.201 14.543 143.114 12.7628C153.027 10.9827 171.837 10.9826 183.275 16.3231C194.713 21.6636 202.339 30.31 205.389 35.3962C208.376 40.3766 210.631 54.3794 211.917 62.3614L211.998 62.8614C213.014 69.1682 213.099 78.035 213.014 81.6801C214.285 80.9172 215.811 77.1026 220.386 78.3741C224.961 79.6457 226.232 90.8352 226.232 95.1584C226.232 99.4816 223.436 105.585 222.673 109.4C221.911 113.214 219.877 119.063 218.098 120.843C216.675 122.268 214.116 121.437 213.014 120.843C212.93 122.963 212.785 129.286 210.727 137.119C206.651 152.632 192.171 173.485 165.736 176.282C139.301 179.08 124.559 156.192 122.017 152.632C119.984 149.784 116.933 143.138 115.662 140.171C114.137 140.934 112.612 140.679 110.325 139.408C108.037 138.136 104.224 130.253 102.445 127.201C100.666 124.149 98.3779 122.624 96.0903 119.063C93.8027 115.503 93.0401 104.568 96.0903 102.533Z" fill="#DAB28F"/>
<mask id="mask1_902_39987" style="mask-type:alpha" maskUnits="userSpaceOnUse" x="93" y="11" width="134" height="166">
<path d="M96.0903 102.533C99.1405 100.499 101.937 102.533 104.224 103.55C101.937 96.5994 97.1071 81.5786 96.0903 77.1028C94.8193 71.508 92.2776 60.0642 93.5485 53.1979C94.8195 46.3316 101.174 37.1766 106.766 30.3103C112.358 23.444 133.201 14.543 143.114 12.7628C153.027 10.9827 171.837 10.9826 183.275 16.3231C194.713 21.6636 202.339 30.31 205.389 35.3962C208.376 40.3766 210.631 54.3794 211.917 62.3614L211.998 62.8614C213.014 69.1682 213.099 78.035 213.014 81.6801C214.285 80.9172 215.811 77.1026 220.386 78.3741C224.961 79.6457 226.232 90.8352 226.232 95.1584C226.232 99.4816 223.436 105.585 222.673 109.4C221.911 113.214 219.877 119.063 218.098 120.843C216.675 122.268 214.116 121.437 213.014 120.843C212.93 122.963 212.785 129.286 210.727 137.119C206.651 152.632 192.171 173.485 165.736 176.282C139.301 179.08 124.559 156.192 122.017 152.632C119.984 149.784 116.933 143.138 115.662 140.171C114.137 140.934 112.612 140.679 110.325 139.408C108.037 138.136 104.224 130.253 102.445 127.201C100.666 124.149 98.3779 122.624 96.0903 119.063C93.8027 115.503 93.0401 104.568 96.0903 102.533Z" fill="#DAB28F"/>
</mask>
<g mask="url(#mask1_902_39987)">
<path d="M164.893 150.117C154.937 150.706 149.568 154.409 146.917 155.636C162.957 151.711 173.42 152.61 181.486 153.428C177.684 152.529 174.849 149.528 164.893 150.117Z" fill="#C29B80"/>
<path d="M175.386 144.447C164.812 149.94 153.357 148.092 148.951 146.481C152.51 148.515 156.068 150.55 162.169 150.804C167.049 151.008 173.014 146.651 175.386 144.447Z" fill="#C39B81"/>
<path d="M135.225 159.959C125.465 155.687 115.738 134.783 112.095 124.865L117.178 146.735L121.499 156.399L132.938 169.877L153.018 179.287L180.978 176.489L199.534 161.739L212.243 139.869L213.514 127.917L212.243 103.503C212.137 113.2 210.198 122.155 207.655 129.697C204.064 140.351 199.581 148.468 196.738 151.313C190.383 157.671 187.333 167.387 165.473 168.351C145.393 169.238 147.426 165.3 135.225 159.959Z" fill="#C29B80"/>
<path d="M149.714 114.438C148.019 114.438 144.249 116.727 142.342 120.542C141.381 122.466 134.173 126.532 133.446 128.171C132.328 130.69 132.683 134.529 133.446 137.326C134.208 128.425 142.173 124.769 143.105 123.085C147.934 115.713 147.96 119.264 149.714 114.438Z" fill="#C29B80"/>
<path d="M170.303 113.074C171.889 112.478 176.215 114.54 180.216 118.253C181.797 119.72 187.344 121.04 188.604 122.322C190.531 124.282 190.397 127.539 191.4 129.188C189.755 127.542 188.66 124.751 187.333 123.593C184.398 121.034 181.22 120.741 179.192 119.631C174.545 117.087 172.671 115.842 170.303 113.074Z" fill="#C29B80"/>
<path opacity="0.5" d="M99.8938 107.318C96.6402 105.08 94.3018 107.826 93.7934 110.115C92.5733 108.488 94.4712 104.69 94.3018 102.995C94.9796 101.723 97.0469 99.231 99.8938 99.4345C103.452 99.6888 107.265 104.775 108.536 107.318C109.807 109.861 109.807 119.524 113.111 128.68C114.355 132.124 114.806 137.326 116.67 141.65H111.078L109.807 137.072C109.807 135.97 110.061 133.512 111.078 132.494C112.095 131.477 110.654 128.51 109.807 127.154C108.96 126.137 107.113 123.899 106.503 123.085C105.893 122.271 106.757 117.66 107.265 115.456C106.164 113.676 103.147 109.556 99.8938 107.318Z" fill="#C39B81"/>
<path opacity="0.5" d="M218.089 111.895C219.919 113.523 220.715 117.659 220.885 119.524L215.801 123.593L212.243 121.559V107.318V81.6327L215.801 76.2922H222.41C225.206 79.9372 229.73 86.4136 225.46 83.1584C220.122 79.0895 218.089 83.667 215.801 85.1929C213.971 86.4136 213.514 93.5002 213.514 96.891C214.191 97.4844 215.598 99.3324 215.801 101.977C216.005 104.622 214.869 107.318 214.276 108.335C214.785 108.843 216.259 110.268 218.089 111.895Z" fill="#C29B80"/>
<path opacity="0.5" d="M161.5 141.698C148.3 142.898 141 137.531 139 134.698C139.667 139.865 145.3 149.798 162.5 148.198C184 146.198 186 128.698 185.5 130.198C185 131.698 178 140.198 161.5 141.698Z" fill="#C29B80" fill-opacity="0.3"/>
</g>
<path d="M108.809 95.8551L111.605 117.726C110.249 113.233 107.214 106.046 105.994 105.029C104.774 104.012 103.537 103.06 102.69 102.976L95.0831 75.0018L91.0162 59.489C90.6095 49.9271 96.9472 37.3643 100.167 32.2782H97.1166L107.538 20.3257L104.234 19.0542C106.691 17.6131 111.351 14.6801 110.334 14.4766C109.063 14.2223 108.809 10.9163 110.334 9.13619C111.554 7.71207 113.384 8.54281 114.147 9.13619C114.147 6.0845 119.569 5.66066 122.281 5.83019C123.806 4.64347 128.839 1.91397 136.769 0.489827C144.7 -0.934317 156.511 1.08322 161.425 2.27001C164.221 1.76139 172.151 1.45622 181.505 4.30447C190.859 7.15271 197.604 17.0198 199.807 21.5974C206.669 25.9206 211.753 48.8083 213.024 52.8772C214.041 56.1323 213.448 72.8827 213.024 80.851C212.431 81.2748 212.649 81.4801 211.226 82.9042C209.803 84.3283 208.872 91.6167 209.465 94.5836L202.348 70.1701L195.721 64.3398L191.673 40.6704C187.809 40.8739 175.49 39.3989 169.813 38.636C160.459 45.1462 145.411 49.3169 139.057 50.5884L141.09 48.8083C137.43 50.0289 130.076 50.5036 126.856 50.5884L129.652 48.8083C126.398 48.8083 122.196 47.791 120.501 47.2824C117.655 51.3513 112.537 54.2335 110.334 55.1659L114.147 79.5794L108.809 95.8551Z" fill="#B7B6B4"/>
<path d="M171.293 119.195C172.4 116.822 167.808 117.053 159.845 117.453C154.025 117.746 148.328 118.032 148.529 120.339C148.799 123.433 156.262 125.585 160.229 125.114C164.196 124.642 169.392 123.269 171.293 119.195Z" fill="#C29B80"/>
<path d="M185.611 129.442C182.815 137.58 166.802 141.395 161.21 141.904C143.925 141.904 138.757 135.97 138.333 133.003C141.892 135.8 158.16 134.783 162.989 134.274C166.853 133.867 179.681 130.884 185.611 129.442Z" fill="white"/>
<path d="M185.611 129.442C182.815 137.58 166.802 141.395 161.21 141.904C143.925 141.904 138.757 135.97 138.333 133.003C141.892 135.8 158.16 134.783 162.989 134.274C166.853 133.867 179.681 130.884 185.611 129.442Z" fill="#514041"/>
<mask id="mask2_902_39987" style="mask-type:alpha" maskUnits="userSpaceOnUse" x="138" y="129" width="48" height="13">
<path d="M185.611 129.442C182.815 137.58 166.802 141.395 161.21 141.904C143.925 141.904 138.757 135.97 138.333 133.003C141.892 135.8 158.16 134.783 162.989 134.274C166.853 133.867 179.681 130.884 185.611 129.442Z" fill="#514041"/>
</mask>
<g mask="url(#mask2_902_39987)">
<path d="M142.325 142.502C140.913 142.228 142.161 138.394 142 136.698C157.239 139.213 173.254 136.193 181.482 134.198C182.5 137.198 183.013 138.716 181.482 139.895C164.678 145.663 151.721 144.328 142.325 142.502Z" fill="white"/>
<g filter="url(#filter0_d_902_39987)">
<path d="M142.342 137.598C140.93 137.33 140.224 133.444 140.055 131.749C155.306 134.19 175.556 130.731 183.774 128.697C183.367 132.562 183.012 133.613 181.486 134.8C164.71 140.649 151.747 139.378 142.342 137.598Z" fill="white"/>
</g>
</g>
<path d="M138.333 129.442C135.893 131.884 136.808 135.376 137.571 136.817C137.571 135.8 137.91 134.868 138.333 134.274C142.655 136.563 158.668 135.8 163.498 135.546C168.327 135.292 181.799 132.494 185.611 130.205C185.96 129.996 187.645 131.392 188.407 131.986C187.391 128.12 184.934 126.815 183.832 126.645C183.425 127.459 184.002 128.34 184.341 128.68C183.409 129.273 180.884 130.511 178.24 130.714C175.597 130.917 167.649 131.646 164.006 131.986L161.718 133.003L159.431 132.494C156.889 132.494 145.705 133.766 143.417 133.766C141.587 133.766 139.604 132.579 138.842 131.986C139.248 129.951 138.672 129.442 138.333 129.442Z" fill="#C39B81"/>
<path d="M150.476 88.4988C148.94 87.6608 142.258 87.0577 138.784 87.2273L146.155 90.7875C146.155 92.6184 143.274 97.8233 141.834 100.197C144.274 98.7727 146.918 95.1955 147.934 93.5848C148.748 94.8055 149.12 106.131 149.205 111.641C149.684 107.616 150.353 101.201 150.66 96.1279C150.896 92.2264 153.272 90.0245 150.476 88.4988Z" fill="#C39B81"/>
<path d="M163.948 86.7188C165.925 85.5806 172.714 83.9571 177.419 83.6668L168.523 89.7703C168.729 91.7956 173.43 94.7177 175.64 97.1452C172.188 95.9055 167.149 93.3775 165.596 91.7358C164.636 93.1979 166.744 100.96 168.523 107.826C165.596 103.249 164.672 96.872 162.931 93.5851C162.173 89.3018 160.348 88.7911 163.948 86.7188Z" fill="#C39B81"/>
<path d="M133.305 73.6854C129.612 73.9297 120.02 78.6253 117.994 80.7899C123.388 83.5135 132.073 79.4033 137.559 79.2854C141.948 79.1911 146.677 80.8176 148.492 81.6427C150.694 81.0769 151.196 77.5427 149.778 75.6761C148.359 73.8095 144.969 73.8588 142.075 74.0153C139.76 74.1405 136.316 74.5947 134.884 74.8062L133.305 73.6854Z" fill="#B7B5B6"/>
<path d="M181.209 67.6915C184.9 67.4143 193.598 70.9501 195.909 72.8083C192.581 75.0308 182.185 73.8357 176.737 74.4902C172.379 75.0137 164.982 79.1649 163.301 80.237C161.041 79.9864 158.928 77.1765 160.07 75.1291C161.212 73.0816 168.228 69.7382 171.115 69.4863C173.425 69.2847 175.507 68.44 176.955 68.448L181.209 67.6915Z" fill="#B7B5B6"/>
<path d="M135.48 86.9969C142.597 86.59 146.325 89.7095 146.918 91.3202L133.954 89.7943L125.312 94.8805L121.5 95.6434L124.55 93.3546C125.821 90.5573 130.889 87.2594 135.48 86.9969Z" fill="#C39B81"/>
<path d="M177.928 82.928C173.048 83.1315 169.032 86.8306 168.015 89.0346L176.912 86.2373L189.621 87.0002L193.688 85.22L188.604 84.7113C186.74 83.8636 182.809 82.7246 177.928 82.928Z" fill="#C39B81"/>
<path d="M146.918 91.3206C135.53 84.8103 127.6 90.9815 125.058 94.8809C127.6 96.9154 130.904 99.4584 137.513 97.9325C142.8 96.7119 145.986 93.016 146.918 91.3206Z" fill="white"/>
<path d="M189.875 86.743C177.877 81.0465 170.472 86.2344 168.269 89.5404C169.286 90.5575 172.082 94.8809 180.978 93.3551C188.095 92.1345 189.875 88.4385 189.875 86.743Z" fill="white"/>
<path d="M119.327 101.69C119.097 101.887 118.887 102.07 118.704 102.232C118.899 102.036 119.108 101.856 119.327 101.69C120.906 100.339 123.408 98.3402 124.296 98.1626C126.583 99.2646 132.429 101.062 137.513 99.4342C135.903 100.621 131.108 102.384 124.804 99.9428C123.669 99.9428 121.155 100.308 119.327 101.69Z" fill="#C39B81"/>
<path d="M197.42 93.1503C197.689 93.2872 197.937 93.4154 198.153 93.5294C197.917 93.3852 197.671 93.2595 197.42 93.1503C195.567 92.2093 192.665 90.8554 191.76 90.8919C189.796 92.5017 184.537 95.6253 179.214 95.2408C181.057 96.0151 186.133 96.5992 191.685 92.7417C192.788 92.4744 195.318 92.2372 197.42 93.1503Z" fill="#C39B81"/>
<mask id="mask3_902_39987" style="mask-type:alpha" maskUnits="userSpaceOnUse" x="125" y="84" width="65" height="15">
<path d="M146.918 91.3206C135.53 84.8103 127.6 90.9815 125.058 94.8809C127.6 96.9154 130.904 99.4584 137.513 97.9325C142.8 96.7119 145.986 93.016 146.918 91.3206Z" fill="white"/>
<path d="M189.875 86.743C177.877 81.0465 170.472 86.2344 168.269 89.5404C169.286 90.5575 172.082 94.8809 180.978 93.3551C188.095 92.1345 189.875 88.4385 189.875 86.743Z" fill="white"/>
</mask>
<g mask="url(#mask3_902_39987)">
<path fill-rule="evenodd" clip-rule="evenodd" d="M179.633 93.1399C183.454 92.8406 186.327 89.7273 186.049 86.1863C185.772 82.6453 182.45 80.0175 178.629 80.3168C174.808 80.6161 171.935 83.7294 172.212 87.2704C172.489 90.8114 175.812 93.4392 179.633 93.1399ZM135.918 97.6621C139.734 97.3631 142.603 94.254 142.326 90.7177C142.05 87.1813 138.732 84.5569 134.916 84.8558C131.1 85.1548 128.23 88.2639 128.507 91.8002C128.784 95.3366 132.102 97.961 135.918 97.6621Z" fill="#546268"/>
</g>
<ellipse cx="1.7793" cy="2.54304" rx="1.7793" ry="2.54304" transform="matrix(0.985799 0.167928 -0.167768 0.985826 130.487 89.0076)" fill="white"/>
<ellipse cx="1.7793" cy="2.54304" rx="1.7793" ry="2.54304" transform="matrix(0.985799 0.167928 -0.167768 0.985826 174.206 84.43)" fill="white"/>
<path d="M194.812 86.9273C195.893 86.9273 196.931 86.9055 197.999 86.7451" stroke="#C39B81" stroke-width="3" stroke-linecap="round"/>
<path d="M194.812 89.2957L198.272 89.8422" stroke="#C39B81" stroke-width="3" stroke-linecap="round"/>
<path d="M121.76 97.5432C120.825 97.678 119.896 97.8629 118.966 98.0259" stroke="#C39B81" stroke-width="3" stroke-linecap="round"/>
<path d="M190.891 98.1626C182.554 100.401 175.895 99.6037 173.607 98.9256C174.624 99.6885 181.232 101.214 185.045 100.706C188.095 100.299 190.214 98.8408 190.891 98.1626Z" fill="#C39B81"/>
<path d="M125.566 105.187C134.163 105.967 140.588 104.043 142.727 102.983C141.855 103.909 135.604 106.542 131.761 106.693C128.686 106.814 126.35 105.74 125.566 105.187Z" fill="#C39B81"/>
<path d="M159.373 129.697L159.627 126.391C158.949 127.832 157.644 130.765 157.847 130.968C158.102 131.223 160.104 131.731 161.152 131.731C162.423 131.731 163.948 130.968 163.948 129.697C162.677 129.697 160.389 129.866 159.373 129.697Z" fill="#C29B80"/>
<path opacity="0.5" d="M162.931 109.861C162.931 108.589 161.152 100.197 157.848 99.1799C155.56 100.451 155.306 109.098 155.56 110.369C155.814 111.641 157.085 112.912 159.373 112.912C161.66 112.912 162.931 111.132 162.931 109.861Z" fill="#F7DDB6"/>
<path d="M176.657 59.7914C167.507 62.843 141.495 64.9623 129.633 65.6404C134.717 65.6404 146.918 67.6749 152.764 67.4206C158.61 67.1663 188.095 55.9767 176.657 59.7914Z" fill="#C39B81"/>
<path d="M168.938 53.7385C162.378 55.0253 143.729 55.919 135.225 56.2049C138.87 56.2049 147.617 57.0628 151.808 56.9556C156 56.8483 177.139 52.13 168.938 53.7385Z" fill="#C39B81"/>
<path d="M156.227 181.403C155.574 181.298 155.009 181.183 154.543 181.067C155.067 181.067 155.628 181.194 156.227 181.403C160.802 182.134 169.692 182.339 178.945 178.778C176.996 180.643 171.98 184.475 167.507 184.881C162.875 185.303 159.115 182.409 156.227 181.403Z" fill="#C29B80"/>
<path d="M153.527 84.43C151.033 87.9512 141.722 87.6252 140.309 87.3644C140.642 87.7556 147.541 89.5162 150.534 89.5162C152.778 89.5162 153.527 85.7994 153.527 84.43Z" fill="#C39B81"/>
<path d="M116.67 34.0772H126.583H133.954L128.616 36.366L135.479 38.909L131.412 40.1806C133.022 40.5196 138.021 41.1978 145.138 41.1978C152.255 41.1978 164.033 35.4335 169.031 32.5513C164.202 35.4335 153.17 41.7573 147.68 43.9952C142.19 46.2331 130.141 45.7753 124.804 45.2667L131.412 43.9952L114.891 41.1978L126.583 40.1806L111.84 36.366H124.804L116.67 34.0772Z" fill="#F5F5F5"/>
<path fill-rule="evenodd" clip-rule="evenodd" d="M19.5811 241.894C20.0894 237.91 24.6647 227.704 38.899 218.752C52.7335 210.052 78.7081 200.736 91.7308 196.066C95.4568 194.73 98.1225 193.774 99.1403 193.321C99.6607 193.09 100.26 192.832 100.916 192.55C106.029 190.351 114.594 186.668 116.171 182.386C117.594 178.521 116.764 168.569 116.171 164.076L121.254 161.787C122.61 165.771 126.135 174.604 129.388 178.063C133.455 182.386 142.351 191.287 148.198 193.321C152.875 194.949 161.33 194.678 164.974 194.338C165.651 194.508 167.109 195.101 167.515 196.119C167.922 197.136 169.38 210.106 170.057 216.463V196.627L171.328 193.321C175.819 192.219 185.512 189.608 188.358 187.981C191.917 185.946 202.339 177.046 204.118 173.994C205.897 170.942 209.456 155.938 209.71 152.886L214.539 153.904C214.794 161.109 215.556 176.028 216.573 178.063C224.029 181.199 241.584 188.388 252.158 192.05C259.147 194.47 268.837 197.602 277.469 200.391C285.162 202.878 292.016 205.093 295.369 206.291C302.487 208.834 311.129 213.92 312.4 215.192C308.502 216.972 299.894 221.855 296.64 227.144C295.971 228.232 295.192 229.451 294.348 230.771C290.062 237.474 284.105 246.79 282.406 254.864C281.295 260.144 280.791 266.866 280.272 273.787C279.841 279.532 279.401 285.414 278.593 290.721C277.56 297.518 274.81 305.773 272.637 312.297C271.07 317.001 269.804 320.805 269.697 322.509C269.494 325.765 269.612 328.443 269.697 329.376L260.546 349.72L235.891 369.556L201.068 381.254L119.729 379.22L78.2973 379.983L71.9427 379.22L70.4176 360.147L71.9427 342.6L60.2503 306.742L48.8121 271.648L20.5978 244.437L19.5811 241.894ZM60.5045 459.579C59.4877 486.366 57.6068 541.568 58.2168 548.078C83.3809 549.774 143.673 553.266 183.529 553.673C223.385 554.08 281.474 549.435 305.537 547.061C307.774 508.812 302.571 460.936 299.691 441.78L208.693 436.946L139.555 459.579H60.5045Z" fill="#333333"/>
<path fill-rule="evenodd" clip-rule="evenodd" d="M19.5811 241.894C20.0894 237.91 24.6647 227.704 38.899 218.752C52.7335 210.052 78.7081 200.736 91.7308 196.066C95.4568 194.73 98.1225 193.774 99.1403 193.321C99.6607 193.09 100.26 192.832 100.916 192.55C106.029 190.351 114.594 186.668 116.171 182.386C117.594 178.521 116.764 168.569 116.171 164.076L121.254 161.787C122.61 165.771 126.135 174.604 129.388 178.063C133.455 182.386 142.351 191.287 148.198 193.321C152.875 194.949 161.33 194.678 164.974 194.338C165.651 194.508 167.109 195.101 167.515 196.119C167.922 197.136 169.38 210.106 170.057 216.463V196.627L171.328 193.321C175.819 192.219 185.512 189.608 188.358 187.981C191.917 185.946 202.339 177.046 204.118 173.994C205.897 170.942 209.456 155.938 209.71 152.886L214.539 153.904C214.794 161.109 215.556 176.028 216.573 178.063C224.029 181.199 241.584 188.388 252.158 192.05C259.147 194.47 268.837 197.602 277.469 200.391C285.162 202.878 292.016 205.093 295.369 206.291C302.487 208.834 311.129 213.92 312.4 215.192C308.502 216.972 299.894 221.855 296.64 227.144C295.971 228.232 295.192 229.451 294.348 230.771C290.062 237.474 284.105 246.79 282.406 254.864C281.295 260.144 280.791 266.866 280.272 273.787C279.841 279.532 279.401 285.414 278.593 290.721C277.56 297.518 274.81 305.773 272.637 312.297C271.07 317.001 269.804 320.805 269.697 322.509C269.494 325.765 269.612 328.443 269.697 329.376L260.546 349.72L235.891 369.556L201.068 381.254L119.729 379.22L78.2973 379.983L71.9427 379.22L70.4176 360.147L71.9427 342.6L60.2503 306.742L48.8121 271.648L20.5978 244.437L19.5811 241.894ZM60.5045 459.579C59.4877 486.366 57.6068 541.568 58.2168 548.078C83.3809 549.774 143.673 553.266 183.529 553.673C223.385 554.08 281.474 549.435 305.537 547.061C307.774 508.812 302.571 460.936 299.691 441.78L208.693 436.946L139.555 459.579H60.5045Z" fill="url(#paint0_linear_902_39987)" fill-opacity="0.5"/>
<mask id="mask4_902_39987" style="mask-type:alpha" maskUnits="userSpaceOnUse" x="19" y="152" width="294" height="402">
<path fill-rule="evenodd" clip-rule="evenodd" d="M19.5811 241.894C20.0894 237.91 24.6647 227.704 38.899 218.752C52.7335 210.052 78.7081 200.736 91.7308 196.066C95.4568 194.73 98.1225 193.774 99.1403 193.321C99.6607 193.09 100.26 192.832 100.916 192.55C106.029 190.351 114.594 186.668 116.171 182.386C117.594 178.521 116.764 168.569 116.171 164.076L121.254 161.787C122.61 165.771 126.135 174.604 129.388 178.063C133.455 182.386 142.351 191.287 148.198 193.321C152.875 194.949 161.33 194.678 164.974 194.338C165.651 194.508 167.109 195.101 167.515 196.119C167.922 197.136 169.38 210.106 170.057 216.463V196.627L171.328 193.321C175.819 192.219 185.512 189.608 188.358 187.981C191.917 185.946 202.339 177.046 204.118 173.994C205.897 170.942 209.456 155.938 209.71 152.886L214.539 153.904C214.794 161.109 215.556 176.028 216.573 178.063C224.029 181.199 241.584 188.388 252.158 192.05C259.147 194.47 268.837 197.602 277.469 200.391C285.162 202.878 292.016 205.093 295.369 206.291C302.487 208.834 311.129 213.92 312.4 215.192C308.502 216.972 299.894 221.855 296.64 227.144C295.971 228.232 295.192 229.451 294.348 230.771C290.062 237.474 284.105 246.79 282.406 254.864C281.295 260.144 280.791 266.866 280.272 273.787C279.841 279.532 279.401 285.414 278.593 290.721C277.56 297.518 274.81 305.773 272.637 312.297C271.07 317.001 269.804 320.805 269.697 322.509C269.494 325.765 269.612 328.443 269.697 329.376L260.546 349.72L235.891 369.556L201.068 381.254L119.729 379.22L78.2973 379.983L71.9427 379.22L70.4176 360.147L71.9427 342.6L60.2503 306.742L48.8121 271.648L20.5978 244.437L19.5811 241.894ZM60.5045 459.579C59.4877 486.366 57.6068 541.568 58.2168 548.078C83.3809 549.774 143.673 553.266 183.529 553.673C223.385 554.08 281.474 549.435 305.537 547.061C307.774 508.812 302.571 460.936 299.691 441.78L208.693 436.946L139.555 459.579H60.5045Z" fill="#333333"/>
<path fill-rule="evenodd" clip-rule="evenodd" d="M19.5811 241.894C20.0894 237.91 24.6647 227.704 38.899 218.752C52.7335 210.052 78.7081 200.736 91.7308 196.066C95.4568 194.73 98.1225 193.774 99.1403 193.321C99.6607 193.09 100.26 192.832 100.916 192.55C106.029 190.351 114.594 186.668 116.171 182.386C117.594 178.521 116.764 168.569 116.171 164.076L121.254 161.787C122.61 165.771 126.135 174.604 129.388 178.063C133.455 182.386 142.351 191.287 148.198 193.321C152.875 194.949 161.33 194.678 164.974 194.338C165.651 194.508 167.109 195.101 167.515 196.119C167.922 197.136 169.38 210.106 170.057 216.463V196.627L171.328 193.321C175.819 192.219 185.512 189.608 188.358 187.981C191.917 185.946 202.339 177.046 204.118 173.994C205.897 170.942 209.456 155.938 209.71 152.886L214.539 153.904C214.794 161.109 215.556 176.028 216.573 178.063C224.029 181.199 241.584 188.388 252.158 192.05C259.147 194.47 268.837 197.602 277.469 200.391C285.162 202.878 292.016 205.093 295.369 206.291C302.487 208.834 311.129 213.92 312.4 215.192C308.502 216.972 299.894 221.855 296.64 227.144C295.971 228.232 295.192 229.451 294.348 230.771C290.062 237.474 284.105 246.79 282.406 254.864C281.295 260.144 280.791 266.866 280.272 273.787C279.841 279.532 279.401 285.414 278.593 290.721C277.56 297.518 274.81 305.773 272.637 312.297C271.07 317.001 269.804 320.805 269.697 322.509C269.494 325.765 269.612 328.443 269.697 329.376L260.546 349.72L235.891 369.556L201.068 381.254L119.729 379.22L78.2973 379.983L71.9427 379.22L70.4176 360.147L71.9427 342.6L60.2503 306.742L48.8121 271.648L20.5978 244.437L19.5811 241.894ZM60.5045 459.579C59.4877 486.366 57.6068 541.568 58.2168 548.078C83.3809 549.774 143.673 553.266 183.529 553.673C223.385 554.08 281.474 549.435 305.537 547.061C307.774 508.812 302.571 460.936 299.691 441.78L208.693 436.946L139.555 459.579H60.5045Z" fill="url(#paint1_linear_902_39987)" fill-opacity="0.5"/>
</mask>
<g mask="url(#mask4_902_39987)">
<path opacity="0.5" d="M139.292 480.895C115.297 482.523 73.3739 471.232 55.4116 465.382V456.99C88.7943 457.923 158.661 459.228 171.065 456.99C183.469 454.752 202.329 442.834 210.209 437.154C217.834 438.934 236.339 442.698 249.353 443.512C262.367 444.326 295.445 439.613 310.357 437.154L316.966 555.662H277.567C280.618 527.942 284.888 472.503 277.567 472.503C270.247 472.503 235.204 467.756 218.597 465.382C202.16 469.875 163.287 479.268 139.292 480.895Z" fill="black"/>
<path opacity="0.5" d="M130.395 370.526C116.365 369.509 115.06 374.595 113.874 376.375C136.072 388.582 166.794 404.196 169.031 404.603C171.268 405.01 234.356 401.721 265.621 400.025L277.567 343.061L282.651 303.897V259.902C279.686 270.753 275.752 288.232 271.975 298.811C269.433 305.932 262.062 323.733 263.333 327.294C250.878 334.668 243.401 345.44 237.152 348.401C227.493 352.979 223.172 366.966 223.172 366.966C223.172 366.966 193.179 371.034 179.961 366.966C166.744 362.897 167.506 369 161.66 369C155.814 369 147.934 371.797 130.395 370.526Z" fill="black"/>
</g>
<mask id="mask5_902_39987" style="mask-type:alpha" maskUnits="userSpaceOnUse" x="19" y="152" width="294" height="230">
<path d="M38.899 218.752C24.6647 227.704 20.0894 237.91 19.5811 241.894L20.5978 244.437L48.8121 271.648L60.2503 306.742L71.9427 342.6L70.4176 360.147L71.9427 379.22L78.2973 379.983L119.729 379.22L201.068 381.254L235.891 369.556L260.546 349.72L269.697 329.376C269.612 328.443 269.494 325.765 269.697 322.509C269.951 318.44 276.814 302.419 278.593 290.721C280.373 279.023 280.373 264.527 282.406 254.864C284.44 245.2 292.573 233.756 296.64 227.144C299.894 221.855 308.502 216.972 312.4 215.192C311.129 213.92 302.487 208.834 295.369 206.291C288.252 203.748 265.376 196.627 252.158 192.05C241.584 188.388 224.029 181.199 216.573 178.063C215.556 176.028 214.794 161.109 214.539 153.904L209.71 152.886C209.456 155.938 205.897 170.942 204.118 173.994C202.339 177.046 191.917 185.946 188.358 187.981C185.512 189.608 175.819 192.219 171.328 193.321L170.057 196.627V216.463C169.38 210.106 167.922 197.136 167.515 196.119C167.109 195.101 165.651 194.508 164.974 194.338C161.33 194.678 152.875 194.949 148.198 193.321C142.351 191.287 133.455 182.386 129.388 178.063C126.135 174.604 122.61 165.771 121.254 161.787L116.171 164.076C116.764 168.569 117.594 178.521 116.171 182.386C114.391 187.218 103.716 191.287 99.1403 193.321C94.565 195.356 56.6918 207.562 38.899 218.752Z" fill="#333333"/>
</mask>
<g mask="url(#mask5_902_39987)">
<path d="M131.93 203.748C124.203 199.069 115.154 187.557 111.595 182.386L97.3608 146.274L223.69 134.831L218.352 175.011C215.895 178.826 209.862 187.981 205.389 194.084C199.797 201.713 183.783 214.174 169.549 215.192C155.315 216.209 141.589 209.597 131.93 203.748Z" fill="#454545"/>
</g>
<path d="M172.599 214.937H167.77C169.803 225.364 171.836 293.773 172.599 301.402C173.362 309.031 178.445 388.121 179.208 396.004C179.97 403.888 183.529 470.771 185.308 481.197C187.087 491.624 186.071 532.059 185.054 553.166H190.646C190.985 534.602 193.696 494.828 190.646 481.197C186.833 464.159 178.445 312.337 177.683 293.773C177.073 278.921 175.649 229.772 172.599 214.937Z" fill="#454545"/>
<path opacity="0.5" d="M236.701 516.63L146.247 502.508C150.997 500.709 164.457 497.402 180.297 498.561C196.136 499.72 224.5 511.09 236.701 516.63Z" fill="black"/>
<path d="M174.623 227.351C174.623 224.553 172.59 213.618 169.54 213.618C167.252 213.618 166.235 224.808 166.235 227.351C166.235 228.898 168.015 229.894 170.302 229.894C172.59 229.894 174.623 229.654 174.623 227.351Z" stroke="#9A9A9A" stroke-width="7"/>
<path d="M166.744 221.502H173.861" stroke="#9A9A9A" stroke-width="7"/>
<path d="M94.0568 365.233C103.004 365.233 104.732 365.233 129.897 369.048L124.559 394.733L129.897 411.771L106.766 408.974L79.3142 398.039L71.9429 384.052C77.2807 380.491 85.1095 365.233 94.0568 365.233Z" fill="#DAB28F"/>
<mask id="mask6_902_39987" style="mask-type:alpha" maskUnits="userSpaceOnUse" x="71" y="365" width="59" height="47">
<path opacity="0.5" d="M94.0568 365.233C103.004 365.233 104.732 365.233 129.897 369.048L124.559 394.733L129.897 411.771L106.766 408.974L79.3142 398.039L71.9429 384.052C77.2807 380.491 85.1095 365.233 94.0568 365.233Z" fill="#DAB28F"/>
</mask>
<g mask="url(#mask6_902_39987)">
<path d="M88.7191 368.539C89.3291 367.115 91.6845 365.233 92.786 364.47L82.6186 367.522L75.2473 375.914L69.6553 383.543L79.8226 399.565L97.6154 402.108L108.799 409.737L130.659 411.771L126.338 402.108C123.118 402.955 116.171 404.6 114.137 404.396C111.595 404.142 100.157 398.547 98.1238 398.039C96.0903 397.53 91.0066 396.513 89.2274 395.75C87.4481 394.987 86.1772 391.172 86.1772 389.647C86.1772 388.121 87.4481 384.56 87.4481 383.543C87.4481 382.526 86.1772 379.729 86.1772 378.203C86.1772 376.677 88.7191 374.388 88.7191 373.371C88.7191 372.354 87.9565 370.319 88.7191 368.539Z" fill="#C29B80"/>
</g>
<path d="M35.849 255.118C30.562 252.066 22.9704 245.03 19.8355 241.894L17.802 255.118C17.2936 258.424 12.4641 270.631 11.1932 279.277C9.92232 287.924 8.6514 306.742 7.63467 318.186C6.61794 329.63 0.263381 378.457 0.00919812 385.832C-0.244985 393.207 4.83867 419.909 6.61795 429.573C8.39723 439.236 10.1765 447.374 15.5144 452.715C20.8522 458.055 25.4275 457.038 32.5446 458.055C39.6617 459.072 40.9326 458.31 58.2171 462.633C75.5015 466.956 125.83 469.499 147.181 467.719C164.262 466.295 194.459 454.241 213.014 444.068C199.289 440.254 164.974 417.366 152.519 414.06C140.064 410.754 114.9 407.448 110.579 406.685C106.258 405.922 101.682 401.345 98.378 400.073C95.0736 398.802 89.7357 398.039 84.6521 395.75C80.5852 393.919 76.8571 389.731 75.5015 387.866C75.5015 387.866 75.8044 383.697 77.2716 378.664C80.8301 366.457 74.4848 336.242 72.4513 331.41C70.4178 326.578 66.0967 318.695 61.7756 300.385C57.4545 282.075 57.4545 288.941 53.1334 276.225C48.8123 263.51 42.4577 258.933 35.849 255.118Z" fill="#9AE343"/>
<mask id="mask7_902_39987" style="mask-type:alpha" maskUnits="userSpaceOnUse" x="0" y="241" width="214" height="228">
<path d="M36.1122 255.118C30.8252 252.066 23.2336 245.03 20.0986 241.894L18.0652 255.118C17.5568 258.424 12.7273 270.631 11.4564 279.277C10.1855 287.924 8.91459 306.742 7.89785 318.186C6.88112 329.63 0.526565 378.457 0.272382 385.832C0.0181989 393.207 5.10186 419.909 6.88114 429.573C8.66042 439.236 10.4397 447.374 15.7775 452.715C21.1154 458.055 25.6907 457.038 32.8078 458.055C39.9249 459.072 41.1958 458.31 58.4803 462.633C75.7647 466.956 126.093 469.499 147.444 467.719C164.525 466.295 194.722 454.241 213.278 444.068C199.552 440.254 165.237 417.366 152.782 414.06C140.327 410.754 115.163 407.448 110.842 406.685C106.521 405.922 101.946 401.345 98.6411 400.073C95.3368 398.802 89.9989 398.039 84.9153 395.75C80.8483 393.919 77.1203 389.731 75.7647 387.866C74.8057 386.547 76.7993 383.241 77.7798 376.375C79.7043 362.897 74.748 336.242 72.7145 331.41C70.681 326.578 66.3599 318.695 62.0388 300.385C57.7177 282.075 57.7177 288.941 53.3966 276.225C49.0755 263.51 42.7209 258.933 36.1122 255.118Z" fill="#98C031"/>
</mask>
<g mask="url(#mask7_902_39987)">
<path d="M17.5475 432.116C13.6839 426.826 3.22852 380.746 -1.51623 358.367C-3.12605 391.681 -6.3457 459.53 -6.3457 464.413C-6.3457 469.296 9.58309 480.689 17.5475 485.775C61.7753 486.792 150.841 488.826 153.281 488.826C155.721 488.826 201.915 468.482 224.707 458.31L220.385 438.728L191.154 421.181C170.396 415.671 131.218 405.617 140.572 409.483C152.264 414.314 193.696 437.456 191.154 442.542C188.613 447.629 144.131 447.374 134.472 449.154C124.813 450.935 130.15 454.495 114.9 454.495C99.6486 454.495 66.3506 446.103 54.6582 442.542C42.9658 438.982 32.7985 443.051 27.2064 442.542C21.6144 442.034 22.377 438.728 17.5475 432.116Z" fill="#7AB727"/>
<path d="M75.4919 387.564C79.9656 389.599 85.3203 393.668 87.4385 395.448L101.164 399.263L113.619 406.129L125.312 408.926C121.753 409.181 112.552 408.977 104.215 406.129C93.7931 402.569 94.0473 401.297 87.4385 399.263C80.8298 397.228 78.7963 393.668 73.4585 390.616C69.1882 388.175 58.6311 385.53 53.8864 384.513C57.6209 384.631 63.0378 383.556 68.3748 384.513C68.3748 384.513 71.425 372.052 71.425 357.81C71.425 343.569 69.4393 341.878 68.3748 337.974C66.0946 332.549 63.5453 326.531 48.8027 317.121C48.8027 317.121 56.4229 319.777 59.9868 322.716C63.6312 325.722 68.3748 329.328 68.3748 329.328C66.3478 323.423 63.4913 319.232 61.5119 308.729C59.5245 298.185 56.4282 281.773 56.4282 281.773L65.3246 303.134L76.2545 336.194L78.5421 357.81V373.578L76.0003 383.495C76.4964 383.656 75.0993 387.386 75.4919 387.564Z" fill="#7AB727"/>
</g>
<path d="M123.542 391.935C123.542 398.039 125.745 406.007 126.846 409.228C159.89 414.06 160.907 418.129 187.596 432.116C214.285 446.103 207.931 443.814 236.653 447.374C265.376 450.935 301.216 445.34 306.045 443.814C309.909 442.593 331.887 437.88 342.393 435.676L349.511 424.995C357.39 384.306 352.052 366.759 351.036 358.112C350.019 349.466 350.019 327.85 348.24 314.88C346.46 301.911 336.801 272.411 334.005 266.053C331.209 259.695 327.905 243.42 324.346 234.773C321.5 227.856 314.688 218.837 311.637 215.192C308.333 216.802 300.097 222.211 293.59 230.959C285.456 241.894 280.881 259.441 280.373 270.122C279.864 280.803 280.119 293.264 274.018 307.76C269.138 319.356 269.274 327.85 269.951 330.647L289.778 347.177C291.557 350.822 292.116 358.774 280.119 361.418C265.122 364.724 249.617 370.319 242.5 371.591C235.382 372.862 219.877 371.591 214.285 371.591C208.693 371.591 192.171 372.099 187.596 371.591C183.021 371.082 169.295 365.233 166.753 365.233C164.211 365.233 158.365 368.793 154.552 368.793C150.74 368.793 148.198 367.522 141.081 367.522H130.405C128.117 373.117 123.542 385.832 123.542 391.935Z" fill="#9AE343"/>
<mask id="mask8_902_39987" style="mask-type:alpha" maskUnits="userSpaceOnUse" x="123" y="215" width="231" height="234">
<path d="M123.796 392.19C123.796 398.293 125.999 406.261 127.1 409.483C160.144 414.314 161.161 418.383 187.85 432.37C214.539 446.357 208.185 444.068 236.907 447.629C265.63 451.189 301.47 445.594 306.299 444.068C310.163 442.848 332.141 438.134 342.647 435.93L349.764 425.25C357.644 384.56 352.306 367.013 351.29 358.367C350.273 349.72 350.273 328.104 348.494 315.134C346.714 302.165 337.055 272.665 334.259 266.307C331.463 259.95 328.159 243.674 324.6 235.028C321.754 228.111 314.941 219.091 311.891 215.446C308.587 217.057 300.351 222.465 293.844 231.213C285.71 242.148 281.135 259.695 280.627 270.376C280.118 281.057 280.373 293.518 274.272 308.014C269.392 319.61 269.527 328.104 270.205 330.902L290.031 347.432C291.811 351.077 292.37 359.028 280.373 361.673C265.376 364.979 249.871 370.574 242.753 371.845C235.636 373.117 220.131 371.845 214.539 371.845C208.947 371.845 192.425 372.354 187.85 371.845C183.275 371.336 169.549 365.487 167.007 365.487C164.465 365.487 158.619 369.048 154.806 369.048C150.993 369.048 148.452 367.776 141.335 367.776H130.659C128.371 373.371 123.796 386.086 123.796 392.19Z" fill="#98C031"/>
</mask>
<g mask="url(#mask8_902_39987)">
<path d="M149.468 398.039C146.011 398.853 130.066 400.073 122.525 400.582V413.297H131.93L174.378 428.81L202.847 446.611L245.804 453.732L324.092 446.611L352.306 437.711L356.882 406.431V361.418L352.306 306.234L335.784 260.204C336.716 290.975 343.369 342.985 344.417 365.185C345.942 397.482 338.072 418.129 332.226 423.469C326.38 428.81 260.038 430.844 249.616 428.81C239.195 426.775 224.706 413.806 215.556 413.297C206.405 412.789 191.154 420.672 181.75 418.129C172.345 415.586 153.789 397.022 149.468 398.039Z" fill="#7AB727"/>
<path d="M274.771 330.6L269.688 333.143L262.825 330.6L266.892 304.915L277.567 257.359L290.276 234.217C289.09 238.795 286.311 249.577 284.684 256.088C282.651 264.225 284.43 281.01 282.651 289.91C281.228 297.031 279.94 300.761 278.838 303.134C280.465 301.1 284.684 291.945 297.394 282.535C283.988 295.759 279.601 311.527 277.567 315.595C275.941 318.851 275.025 326.954 274.771 330.6Z" fill="#7AB727"/>
</g>
<path opacity="0.5" d="M101.165 252.273C124.38 273.889 183.011 320.427 231.815 333.651C196.398 325.852 120.686 298.659 101.165 252.273Z" fill="black"/>
<path opacity="0.5" d="M131.667 329.29C162.951 341.057 171.672 352.755 222.225 353.619C185.979 354.735 169.648 357.2 131.667 329.29Z" fill="black"/>
<path d="M225.27 371.733L225.215 371.845C231.062 372.608 238.179 372.048 242.246 371.845C247.329 371.591 265.376 364.979 270.714 363.707C276.052 362.436 286.728 360.147 290.54 358.875C294.353 357.604 296.895 348.957 297.912 347.94L304.266 341.582C308.079 337.768 306.808 334.208 305.283 333.445C304.063 332.834 301.894 333.699 300.962 334.208C301.47 333.19 304.52 328.358 302.995 325.052C301.47 321.746 298.928 322.509 296.895 323.272C295.268 323.883 290.964 326.239 289.015 327.341C289.524 325.561 288.761 322.764 287.49 321.492C286.219 320.221 283.932 320.475 281.644 321.492C279.356 322.51 266.393 331.41 260.801 335.225C255.209 339.04 248.854 345.906 243.771 350.483C238.687 355.061 233.603 357.095 231.062 360.91C229.055 363.921 226.636 368.913 225.27 371.733Z" fill="#DAB28F"/>
<mask id="mask9_902_39987" style="mask-type:alpha" maskUnits="userSpaceOnUse" x="225" y="320" width="82" height="53">
<path opacity="0.5" d="M225.27 371.733L225.215 371.845C231.062 372.608 238.179 372.048 242.246 371.845C247.329 371.591 265.376 364.979 270.714 363.707C276.052 362.436 286.728 360.147 290.54 358.875C294.353 357.604 296.895 348.957 297.912 347.94L304.266 341.582C308.079 337.768 306.808 334.208 305.283 333.445C304.063 332.834 301.894 333.699 300.962 334.208C301.47 333.19 304.52 328.358 302.995 325.052C301.47 321.746 298.928 322.509 296.895 323.272C295.268 323.883 290.964 326.239 289.015 327.341C289.524 325.561 288.761 322.764 287.49 321.492C286.219 320.221 283.932 320.475 281.644 321.492C279.356 322.51 266.393 331.41 260.801 335.225C255.209 339.04 248.854 345.906 243.771 350.483C238.687 355.061 233.603 357.095 231.062 360.91C229.055 363.921 226.636 368.913 225.27 371.733Z" fill="#DAB28F"/>
</mask>
<g mask="url(#mask9_902_39987)">
<path d="M287.49 326.07C289.117 324.442 289.015 322.848 288.761 322.255C289.439 319.627 290.896 314.321 291.303 314.117C291.811 313.863 305.537 311.065 306.3 311.32C307.062 311.574 317.484 316.152 317.992 317.932C318.5 319.712 316.721 345.397 316.213 346.16C315.806 346.77 289.778 367.098 276.814 377.185L225.978 378.966L220.386 371.845C222.504 368.369 226.842 362.13 227.249 364.979C227.757 368.539 230.553 369.302 232.332 369.302C234.112 369.302 235.128 368.539 238.433 368.539C241.737 368.539 244.279 368.793 248.6 367.522C252.921 366.25 259.53 365.742 266.393 363.961C273.256 362.181 281.39 357.095 283.169 355.315C284.948 353.535 292.065 349.975 294.607 348.449C297.149 346.923 304.266 339.548 305.537 337.513C306.554 335.886 306.469 333.784 306.3 332.936L304.774 331.919C302.572 333.19 297.454 336.089 294.607 337.513C291.049 339.294 279.102 346.16 275.543 347.94C272.697 349.364 265.037 354.637 261.563 357.095C264.359 354.298 274.781 346.16 277.831 344.888C280.881 343.617 286.219 339.294 288.761 337.513C291.303 335.733 299.945 332.427 300.962 330.647C301.775 329.223 302.656 325.307 302.995 323.527L306.3 322.255L304.266 317.932L292.065 325.307C288.083 327.85 279.661 333.19 277.831 334.207C275.543 335.479 261.309 345.143 260.292 346.16C259.479 346.974 250.125 354.298 245.55 357.858C247.922 355.654 253.023 350.89 254.446 349.466C256.226 347.686 270.206 337.259 273.002 335.225C275.798 333.19 285.457 328.104 287.49 326.07Z" fill="#C29B80"/>
</g>
<path fill-rule="evenodd" clip-rule="evenodd" d="M221.984 249.221C221.878 249.221 221.793 249.307 221.793 249.412V262.784V266.175V278.5C221.793 279.184 222.347 279.738 223.031 279.738H235.781C240.463 279.738 244.258 275.943 244.258 271.261C244.258 267.671 242.026 264.603 238.875 263.367C240.226 261.865 241.049 259.877 241.049 257.698C241.049 253.016 237.253 249.221 232.572 249.221H221.984Z" fill="#9AE343"/>
<defs>
<filter id="filter0_d_902_39987" x="140.055" y="128.697" width="43.7192" height="11.3925" filterUnits="userSpaceOnUse" color-interpolation-filters="sRGB">
<feFlood flood-opacity="0" result="BackgroundImageFix"/>
<feColorMatrix in="SourceAlpha" type="matrix" values="0 0 0 0 0 0 0 0 0 0 0 0 0 0 0 0 0 0 127 0" result="hardAlpha"/>
<feOffset dy="1"/>
<feComposite in2="hardAlpha" operator="out"/>
<feColorMatrix type="matrix" values="0 0 0 0 0 0 0 0 0 0 0 0 0 0 0 0 0 0 0.1 0"/>
<feBlend mode="normal" in2="BackgroundImageFix" result="effect1_dropShadow_902_39987"/>
<feBlend mode="normal" in="SourceGraphic" in2="effect1_dropShadow_902_39987" result="shape"/>
</filter>
<linearGradient id="paint0_linear_902_39987" x1="169.803" y1="260.204" x2="165.987" y2="553.698" gradientUnits="userSpaceOnUse">
<stop stop-opacity="0"/>
<stop offset="1"/>
</linearGradient>
<linearGradient id="paint1_linear_902_39987" x1="169.803" y1="260.204" x2="165.987" y2="553.698" gradientUnits="userSpaceOnUse">
<stop stop-opacity="0"/>
<stop offset="1"/>
</linearGradient>
</defs>
</svg>
