<svg fill="none" height="17" viewBox="0 0 17 17" width="17" xmlns="http://www.w3.org/2000/svg">
    <mask style="mask-type:alpha" height="17" id="mask0_3957_30200" maskUnits="userSpaceOnUse"
        width="17" x="0" y="0">
        <rect fill="#D9D9D9" height="16" width="16" x="0.5" y="0.5" />
    </mask>
    <g mask="url(#mask0_3957_30200)">
        <path
            d="M8.50003 9.43337L5.23337 12.7C5.11114 12.8223 4.95559 12.8834 4.7667 12.8834C4.57781 12.8834 4.42225 12.8223 4.30003 12.7C4.17781 12.5778 4.1167 12.4223 4.1167 12.2334C4.1167 12.0445 4.17781 11.8889 4.30003 11.7667L7.5667 8.50003L4.30003 5.23337C4.17781 5.11114 4.1167 4.95559 4.1167 4.7667C4.1167 4.57781 4.17781 4.42225 4.30003 4.30003C4.42225 4.17781 4.57781 4.1167 4.7667 4.1167C4.95559 4.1167 5.11114 4.17781 5.23337 4.30003L8.50003 7.5667L11.7667 4.30003C11.8889 4.17781 12.0445 4.1167 12.2334 4.1167C12.4223 4.1167 12.5778 4.17781 12.7 4.30003C12.8223 4.42225 12.8834 4.57781 12.8834 4.7667C12.8834 4.95559 12.8223 5.11114 12.7 5.23337L9.43337 8.50003L12.7 11.7667C12.8223 11.8889 12.8834 12.0445 12.8834 12.2334C12.8834 12.4223 12.8223 12.5778 12.7 12.7C12.5778 12.8223 12.4223 12.8834 12.2334 12.8834C12.0445 12.8834 11.8889 12.8223 11.7667 12.7L8.50003 9.43337Z"
            fill="#F13E3E" />
    </g>
</svg>