<svg fill="none" height="17" viewBox="0 0 16 17" width="16" xmlns="http://www.w3.org/2000/svg">
    <mask style="mask-type:alpha" height="17" id="mask0_3957_40521" maskUnits="userSpaceOnUse"
        width="16" x="0" y="0">
        <rect fill="#D9D9D9" height="16" width="16" y="0.5" />
    </mask>
    <g mask="url(#mask0_3957_40521)">
        <path
            d="M1.16661 9.19981C1.03328 9.06648 0.969387 8.91092 0.974943 8.73315C0.980498 8.55537 1.04994 8.39981 1.18328 8.26648C1.31661 8.14426 1.47216 8.08037 1.64994 8.07481C1.82772 8.06926 1.98328 8.13315 2.11661 8.26648L4.94994 11.0998C5.08328 11.2331 5.14717 11.3887 5.14161 11.5665C5.13605 11.7443 5.06661 11.8998 4.93328 12.0331C4.79994 12.1554 4.64439 12.2193 4.46661 12.2248C4.28883 12.2304 4.13328 12.1665 3.99994 12.0331L1.16661 9.19981ZM8.23328 10.6165L13.8999 4.94981C14.0333 4.81648 14.1888 4.75259 14.3666 4.75815C14.5444 4.7637 14.6999 4.83315 14.8333 4.96648C14.9555 5.09981 15.0194 5.25537 15.0249 5.43315C15.0305 5.61092 14.9666 5.76648 14.8333 5.89981L8.69994 12.0331C8.56661 12.1665 8.41105 12.2331 8.23328 12.2331C8.0555 12.2331 7.89994 12.1665 7.76661 12.0331L4.93328 9.19981C4.81105 9.07759 4.74994 8.92481 4.74994 8.74148C4.74994 8.55815 4.81105 8.39981 4.93328 8.26648C5.06661 8.13315 5.22494 8.06648 5.40828 8.06648C5.59161 8.06648 5.74994 8.13315 5.88328 8.26648L8.23328 10.6165ZM11.0499 5.91648L8.69994 8.26648C8.57772 8.3887 8.42494 8.44981 8.24161 8.44981C8.05828 8.44981 7.89994 8.3887 7.76661 8.26648C7.63328 8.13315 7.56661 7.97481 7.56661 7.79148C7.56661 7.60815 7.63328 7.44981 7.76661 7.31648L10.1166 4.96648C10.2388 4.84426 10.3916 4.78315 10.5749 4.78315C10.7583 4.78315 10.9166 4.84426 11.0499 4.96648C11.1833 5.09981 11.2499 5.25815 11.2499 5.44148C11.2499 5.62481 11.1833 5.78315 11.0499 5.91648Z"
            fill="#989898" />
    </g>
</svg>