<svg fill="none" height="17" viewBox="0 0 17 17" width="17" xmlns="http://www.w3.org/2000/svg">
    <mask style="mask-type:alpha" height="17" id="mask0_3957_12882" maskUnits="userSpaceOnUse"
        width="17" x="0" y="0">
        <rect fill="#D9D9D9" height="16" width="16" x="0.5" y="0.5" />
    </mask>
    <g mask="url(#mask0_3957_12882)">
        <path
            d="M9.16668 8.2335V5.8335C9.16668 5.64461 9.10279 5.48627 8.97501 5.3585C8.84723 5.23072 8.6889 5.16683 8.50001 5.16683C8.31112 5.16683 8.15279 5.23072 8.02501 5.3585C7.89723 5.48627 7.83334 5.64461 7.83334 5.8335V8.4835C7.83334 8.57238 7.85001 8.6585 7.88334 8.74183C7.91668 8.82516 7.96668 8.90016 8.03334 8.96683L10.2333 11.1668C10.3556 11.2891 10.5111 11.3502 10.7 11.3502C10.8889 11.3502 11.0445 11.2891 11.1667 11.1668C11.2889 11.0446 11.35 10.8891 11.35 10.7002C11.35 10.5113 11.2889 10.3557 11.1667 10.2335L9.16668 8.2335ZM8.50001 15.1668C7.57779 15.1668 6.71112 14.9918 5.90001 14.6418C5.0889 14.2918 4.38334 13.8168 3.78334 13.2168C3.18334 12.6168 2.70834 11.9113 2.35834 11.1002C2.00834 10.2891 1.83334 9.42238 1.83334 8.50016C1.83334 7.57794 2.00834 6.71127 2.35834 5.90016C2.70834 5.08905 3.18334 4.3835 3.78334 3.7835C4.38334 3.1835 5.0889 2.7085 5.90001 2.3585C6.71112 2.0085 7.57779 1.8335 8.50001 1.8335C9.42223 1.8335 10.2889 2.0085 11.1 2.3585C11.9111 2.7085 12.6167 3.1835 13.2167 3.7835C13.8167 4.3835 14.2917 5.08905 14.6417 5.90016C14.9917 6.71127 15.1667 7.57794 15.1667 8.50016C15.1667 9.42238 14.9917 10.2891 14.6417 11.1002C14.2917 11.9113 13.8167 12.6168 13.2167 13.2168C12.6167 13.8168 11.9111 14.2918 11.1 14.6418C10.2889 14.9918 9.42223 15.1668 8.50001 15.1668Z"
            fill="#FEC101" />
    </g>
</svg>
