<svg fill="none" height="39" viewBox="0 0 42 39" width="42" xmlns="http://www.w3.org/2000/svg">
    <path
        d="M25.8649 0C27.4705 0.0110342 28.9133 0.47884 30.097 1.58943C31.5444 2.94788 32.2199 4.61192 31.9872 6.61363C31.9583 6.86003 31.8503 6.97136 31.6133 7.01218C30.9596 7.12479 30.3064 7.24018 29.6532 7.35557C28.9864 7.47335 28.3195 7.59116 27.6522 7.70599C27.2835 7.76954 27.239 7.70314 27.3906 7.3489C27.4658 7.17346 27.5541 7.00302 27.6437 6.83407C28.1054 5.96419 27.8532 4.9341 27.0453 4.40059C26.1836 3.83104 25.1162 3.96082 24.5067 4.76909L24.3483 4.97898C23.7161 5.81618 23.0803 6.65826 22.5564 7.56161C22.0118 8.5004 21.2869 8.92359 20.2211 9.04187C19.1999 9.15509 18.1878 9.35162 17.1761 9.54809C16.8204 9.61716 16.4647 9.68622 16.1087 9.75165C15.8243 9.804 15.5968 9.75158 15.3591 9.5831C14.6395 9.07221 13.9151 8.56792 13.1907 8.06363C12.7525 7.75861 12.3139 7.45328 11.8768 7.14679C10.9509 6.4975 9.81582 6.66501 9.17042 7.5529C8.53343 8.42908 8.72731 9.53277 9.63919 10.2128C9.70049 10.2584 9.7638 10.3013 9.82709 10.3442C9.90125 10.3945 9.97538 10.4447 10.0462 10.4992C10.064 10.5129 10.0852 10.5253 10.1068 10.5379C10.1768 10.5787 10.2503 10.6215 10.2212 10.7182C10.1939 10.8088 10.1053 10.8168 10.0222 10.8243C9.99973 10.8264 9.97765 10.8283 9.95731 10.8319C9.5071 10.9116 9.05668 10.9902 8.60626 11.0687C7.73615 11.2203 6.86604 11.372 5.99747 11.5323C5.69863 11.5875 5.55988 11.4746 5.43481 11.2225C3.89859 8.12866 5.46504 4.27543 8.75338 3.07322C8.80235 3.0554 8.8495 3.03309 8.89671 3.01075C8.91834 3.00052 8.93998 2.99028 8.96181 2.98046L10.6218 2.68777C12.2515 2.67386 13.6418 3.29654 14.926 4.25254C15.4991 4.67912 16.0864 5.08674 16.6738 5.49438C17.114 5.7999 17.5543 6.10549 17.9886 6.41903C18.2509 6.60825 18.3836 6.56707 18.5657 6.31532C18.9158 5.83177 19.2731 5.35329 19.6304 4.87479C20.1358 4.19793 20.6413 3.52091 21.1263 2.82956C21.9393 1.67129 22.9143 0.740876 24.2802 0.279409L25.8649 0Z"
        fill="url(#paint0_linear_3802_51793)" />
    <path
        d="M39.5514 14.0791C39.3925 15.2151 38.6629 15.7292 37.598 15.916C34.0457 16.5386 30.4944 17.1665 26.9431 17.7943C25.5903 18.0335 24.2375 18.2727 22.8846 18.5116C22.3828 18.6003 22.3574 18.5833 22.2732 18.1073L22.1652 17.4956C21.8038 15.4489 21.4425 13.402 21.0831 11.355C20.984 10.7917 20.9875 10.7881 21.547 10.6895L24.4167 10.1832C28.4024 9.48003 32.388 8.77683 36.3744 8.07746C37.5237 7.87603 38.1152 8.16596 38.6866 9.17483L39.5514 14.0791Z"
        fill="url(#paint1_linear_3802_51793)" />
    <path
        d="M21.1794 33.8157L20.8183 31.7678L20.8225 31.7671L20.4807 29.831C20.1083 27.7229 19.736 25.6148 19.3704 23.5055C19.3134 23.1751 19.2224 23.0088 18.8305 23.0788C13.9407 23.9527 9.0491 24.816 4.15585 25.6715C3.80668 25.7326 3.7226 25.8745 3.78291 26.2138C4.21452 28.644 4.64263 31.0748 5.07074 33.5056C5.51957 36.0541 5.96847 38.6029 6.42132 41.1507C6.65698 42.4762 7.55822 43.0848 8.8881 42.851C12.5213 42.2126 16.1539 41.5716 19.7865 40.9306L21.8287 40.5702C22.3504 40.478 22.353 40.4758 22.2611 39.9534C21.9011 37.9073 21.5402 35.8615 21.1794 33.8157Z"
        fill="url(#paint2_linear_3802_51793)" />
    <path
        d="M24.5705 31.1134L24.1564 28.765C23.811 26.807 23.4657 24.849 23.1209 22.891C23.0262 22.3525 23.0286 22.3497 23.579 22.2526C28.3944 21.4028 33.2103 20.5539 38.0264 19.7049C38.5902 19.6057 38.5956 19.6065 38.6954 20.1711L38.8053 20.7934C39.6322 25.4764 40.4591 30.1595 41.2811 34.8434C41.4322 35.7045 41.3613 36.507 40.5674 37.0709C40.3249 37.2434 40.0579 37.3553 39.7625 37.4074L38.0863 37.7024C34.2312 38.3808 30.376 39.0592 26.5232 39.7501C26.1321 39.8203 26.0676 39.6368 26.0153 39.3363C25.646 37.2217 25.2729 35.1076 24.8998 32.9935L24.5681 31.1138L24.5705 31.1134Z"
        fill="url(#paint3_linear_3802_51793)" />
    <path
        d="M11.0697 12.5391C10.441 12.65 9.81237 12.7608 9.18369 12.8717L9.18331 12.8696C8.4548 12.998 7.72623 13.1262 6.99767 13.2543C5.24911 13.5619 3.50055 13.8695 1.75274 14.1812C0.524491 14.4003 -0.0928165 15.2776 0.116216 16.5004C0.308128 17.624 0.508112 18.7464 0.708072 19.8686C0.727572 19.9781 0.747072 20.0875 0.766565 20.197C1.01719 21.6045 1.86587 22.2092 3.28544 21.9606C5.48322 21.5759 7.68056 21.1886 9.87791 20.8014C12.6345 20.3155 15.3912 19.8297 18.1488 19.3488C18.5177 19.2845 18.5982 19.1332 18.5341 18.781C18.2476 17.2022 17.9696 15.6219 17.6917 14.0416C17.5694 13.3462 17.4471 12.6509 17.324 11.9557C17.236 11.4579 17.2282 11.4537 16.7279 11.5417C14.8418 11.8739 12.9558 12.2065 11.0697 12.5391Z"
        fill="url(#paint4_linear_3802_51793)" />
    <defs>
        <linearGradient gradientUnits="userSpaceOnUse" id="paint0_linear_3802_51793" x1="30.6302"
            x2="61.1658" y1="-1.97718" y2="56.2426">
            <stop stop-color="white" stop-opacity="0.61" />
            <stop offset="1" stop-color="white" stop-opacity="0" />
        </linearGradient>
        <linearGradient gradientUnits="userSpaceOnUse" id="paint1_linear_3802_51793" x1="30.6302"
            x2="61.1658" y1="-1.97718" y2="56.2426">
            <stop stop-color="white" stop-opacity="0.61" />
            <stop offset="1" stop-color="white" stop-opacity="0" />
        </linearGradient>
        <linearGradient gradientUnits="userSpaceOnUse" id="paint2_linear_3802_51793" x1="30.6302"
            x2="61.1658" y1="-1.97718" y2="56.2426">
            <stop stop-color="white" stop-opacity="0.61" />
            <stop offset="1" stop-color="white" stop-opacity="0" />
        </linearGradient>
        <linearGradient gradientUnits="userSpaceOnUse" id="paint3_linear_3802_51793" x1="30.6302"
            x2="61.1658" y1="-1.97718" y2="56.2426">
            <stop stop-color="white" stop-opacity="0.61" />
            <stop offset="1" stop-color="white" stop-opacity="0" />
        </linearGradient>
        <linearGradient gradientUnits="userSpaceOnUse" id="paint4_linear_3802_51793" x1="30.6302"
            x2="61.1658" y1="-1.97718" y2="56.2426">
            <stop stop-color="white" stop-opacity="0.61" />
            <stop offset="1" stop-color="white" stop-opacity="0" />
        </linearGradient>
    </defs>
</svg>