<?xml version="1.0" encoding="utf-8"?>
<svg xmlns:xlink="http://www.w3.org/1999/xlink" height="41px" version="1.1" viewBox="0 0 50 41"
    width="50px" xmlns="http://www.w3.org/2000/svg">
    <defs>
        <rect height="41" id="artboard_1" width="50" />
        <clipPath id="clip_1">
            <use clip-rule="evenodd" xlink:href="#artboard_1" />
        </clipPath>
    </defs>
    <g clip-path="url(#clip_1)" id="ElementsButtonAddFriendsLeague">
        <g>
            <g id="Group-5">
                <path
                    d="M9.999 0L40.001 0Q40.2465 0 40.4916 0.0120442Q40.7368 0.0240885 40.9811 0.0481479Q41.2253 0.0722074 41.4682 0.108224Q41.711 0.144241 41.9517 0.192128Q42.1924 0.240015 42.4306 0.299657Q42.6687 0.3593 42.9036 0.430553Q43.1384 0.501807 43.3696 0.584501Q43.6007 0.667194 43.8274 0.761128Q44.0542 0.855062 44.2761 0.960011Q44.498 1.06496 44.7145 1.18067Q44.931 1.29638 45.1415 1.42257Q45.352 1.54876 45.5561 1.68514Q45.7602 1.82151 45.9574 1.96773Q46.1545 2.11395 46.3443 2.26967Q46.534 2.42539 46.7159 2.59023Q46.8978 2.75507 47.0714 2.92864Q47.2449 3.10221 47.4098 3.28408Q47.5746 3.46596 47.7303 3.6557Q47.886 3.84545 48.0323 4.0426Q48.1785 4.23976 48.3149 4.44385Q48.4512 4.64795 48.5774 4.85849Q48.7036 5.06903 48.8193 5.2855Q48.935 5.50198 49.04 5.72388Q49.1449 5.94577 49.2389 6.17255Q49.3328 6.39932 49.4155 6.63044Q49.4982 6.86155 49.5694 7.09644Q49.6407 7.33134 49.7003 7.56944Q49.76 7.80755 49.8079 8.04829Q49.8558 8.28904 49.8918 8.53184Q49.9278 8.77465 49.9519 9.01893Q49.9759 9.26321 49.988 9.50837Q50 9.75354 50 9.999L50 31.001Q50 31.2465 49.988 31.4916Q49.9759 31.7368 49.9519 31.9811Q49.9278 32.2254 49.8918 32.4682Q49.8558 32.711 49.8079 32.9517Q49.76 33.1924 49.7003 33.4306Q49.6407 33.6687 49.5694 33.9036Q49.4982 34.1384 49.4155 34.3696Q49.3328 34.6007 49.2389 34.8274Q49.1449 35.0542 49.04 35.2761Q48.935 35.498 48.8193 35.7145Q48.7036 35.931 48.5774 36.1415Q48.4512 36.352 48.3149 36.5561Q48.1785 36.7602 48.0323 36.9574Q47.886 37.1546 47.7303 37.3443Q47.5746 37.534 47.4098 37.7159Q47.2449 37.8978 47.0714 38.0714Q46.8978 38.2449 46.7159 38.4098Q46.534 38.5746 46.3443 38.7303Q46.1545 38.8861 45.9574 39.0323Q45.7602 39.1785 45.5561 39.3149Q45.352 39.4512 45.1415 39.5774Q44.931 39.7036 44.7145 39.8193Q44.498 39.935 44.2761 40.04Q44.0542 40.1449 43.8274 40.2389Q43.6007 40.3328 43.3696 40.4155Q43.1384 40.4982 42.9036 40.5694Q42.6687 40.6407 42.4306 40.7003Q42.1924 40.76 41.9517 40.8079Q41.711 40.8558 41.4682 40.8918Q41.2253 40.9278 40.9811 40.9519Q40.7368 40.9759 40.4916 40.988Q40.2465 41 40.001 41L9.999 41Q9.75354 41 9.50837 40.988Q9.26321 40.9759 9.01893 40.9519Q8.77465 40.9278 8.53184 40.8918Q8.28904 40.8558 8.04829 40.8079Q7.80755 40.76 7.56944 40.7003Q7.33134 40.6407 7.09644 40.5694Q6.86155 40.4982 6.63044 40.4155Q6.39932 40.3328 6.17255 40.2389Q5.94577 40.1449 5.72388 40.04Q5.50198 39.935 5.2855 39.8193Q5.06903 39.7036 4.85849 39.5774Q4.64795 39.4512 4.44385 39.3149Q4.23976 39.1785 4.0426 39.0323Q3.84545 38.8861 3.6557 38.7303Q3.46596 38.5746 3.28408 38.4098Q3.10221 38.2449 2.92864 38.0714Q2.75507 37.8978 2.59023 37.7159Q2.42539 37.534 2.26967 37.3443Q2.11395 37.1546 1.96773 36.9574Q1.82151 36.7602 1.68514 36.5561Q1.54876 36.352 1.42257 36.1415Q1.29638 35.931 1.18067 35.7145Q1.06496 35.498 0.960011 35.2761Q0.855062 35.0542 0.761128 34.8274Q0.667194 34.6007 0.584501 34.3696Q0.501807 34.1384 0.430553 33.9036Q0.3593 33.6687 0.299657 33.4306Q0.240015 33.1924 0.192128 32.9517Q0.144241 32.711 0.108224 32.4682Q0.0722074 32.2254 0.0481479 31.9811Q0.0240885 31.7368 0.0120442 31.4916Q0 31.2465 0 31.001L0 9.999Q0 9.75354 0.0120442 9.50837Q0.0240885 9.26321 0.0481479 9.01893Q0.0722074 8.77465 0.108224 8.53184Q0.144241 8.28904 0.192128 8.04829Q0.240015 7.80755 0.299657 7.56944Q0.3593 7.33134 0.430553 7.09644Q0.501807 6.86155 0.584501 6.63044Q0.667194 6.39932 0.761128 6.17255Q0.855062 5.94577 0.960011 5.72388Q1.06496 5.50198 1.18067 5.2855Q1.29638 5.06903 1.42257 4.85849Q1.54876 4.64795 1.68514 4.44385Q1.82151 4.23976 1.96773 4.0426Q2.11395 3.84545 2.26967 3.6557Q2.42539 3.46596 2.59023 3.28408Q2.75507 3.10221 2.92864 2.92864Q3.10221 2.75507 3.28408 2.59023Q3.46596 2.42539 3.6557 2.26967Q3.84545 2.11395 4.0426 1.96773Q4.23976 1.82151 4.44385 1.68514Q4.64795 1.54876 4.85849 1.42257Q5.06903 1.29638 5.2855 1.18067Q5.50198 1.06496 5.72388 0.960011Q5.94577 0.855062 6.17255 0.761128Q6.39932 0.667194 6.63044 0.584501Q6.86155 0.501807 7.09644 0.430553Q7.33134 0.3593 7.56944 0.299657Q7.80755 0.240015 8.04829 0.192128Q8.28904 0.144241 8.53184 0.108224Q8.77465 0.0722074 9.01893 0.0481479Q9.26321 0.0240885 9.50837 0.0120442Q9.75354 0 9.999 0Z"
                    fill="#FECF43" fill-rule="evenodd" id="Rectangle" stroke="none" />
                <g id="Group" transform="translate(16 6.0367074)">
                    <path
                        d="M16.4934 0.444534L16.4954 0.444534Q16.5481 0.444534 16.6005 0.449697Q16.653 0.45486 16.7046 0.465136Q16.7563 0.475412 16.8067 0.490703Q16.8571 0.505993 16.9057 0.526151Q16.9544 0.546308 17.0009 0.571138Q17.0473 0.595969 17.0911 0.625233Q17.1349 0.654497 17.1756 0.687913Q17.2164 0.721328 17.2536 0.758574Q17.2908 0.795821 17.3243 0.836538Q17.3577 0.877255 17.3869 0.921052Q17.4162 0.964849 17.441 1.0113Q17.4659 1.05776 17.486 1.10642Q17.5062 1.15509 17.5215 1.20549Q17.5368 1.2559 17.547 1.30756Q17.5573 1.35922 17.5625 1.41164Q17.5676 1.46406 17.5676 1.51673L17.5676 5.00564L21.0565 5.00564Q21.1092 5.00564 21.1616 5.0108Q21.2141 5.01596 21.2657 5.02624Q21.3174 5.03652 21.3678 5.05181Q21.4182 5.0671 21.4669 5.08725Q21.5155 5.10741 21.562 5.13224Q21.6084 5.15707 21.6522 5.18634Q21.696 5.2156 21.7367 5.24902Q21.7775 5.28243 21.8147 5.31968Q21.8519 5.35692 21.8854 5.39764Q21.9188 5.43836 21.948 5.48215Q21.9773 5.52595 22.0021 5.57241Q22.027 5.61886 22.0471 5.66752Q22.0673 5.71619 22.0826 5.76659Q22.0979 5.817 22.1081 5.86866Q22.1184 5.92032 22.1236 5.97274Q22.1287 6.02516 22.1287 6.07784L22.1287 6.07984Q22.1287 6.13251 22.1236 6.18493Q22.1184 6.23735 22.1081 6.28901Q22.0979 6.34068 22.0826 6.39108Q22.0673 6.44149 22.0471 6.49015Q22.027 6.53882 22.0021 6.58527Q21.9773 6.63172 21.948 6.67552Q21.9188 6.71932 21.8854 6.76003Q21.8519 6.80075 21.8147 6.838Q21.7775 6.87524 21.7367 6.90866Q21.696 6.94208 21.6522 6.97134Q21.6084 7.0006 21.562 7.02543Q21.5155 7.05026 21.4669 7.07042Q21.4182 7.09058 21.3678 7.10587Q21.3174 7.12116 21.2657 7.13144Q21.2141 7.14171 21.1616 7.14688Q21.1092 7.15204 21.0565 7.15204L17.5676 7.15204L17.5676 10.6409Q17.5676 10.6936 17.5625 10.746Q17.5573 10.7985 17.547 10.8501Q17.5368 10.9018 17.5215 10.9522Q17.5062 11.0026 17.486 11.0513Q17.4659 11.0999 17.441 11.1464Q17.4162 11.1928 17.3869 11.2366Q17.3577 11.2804 17.3243 11.3211Q17.2908 11.3619 17.2536 11.3991Q17.2164 11.4363 17.1756 11.4698Q17.1349 11.5032 17.0911 11.5324Q17.0473 11.5617 17.0009 11.5865Q16.9544 11.6114 16.9057 11.6315Q16.8571 11.6517 16.8067 11.667Q16.7563 11.6823 16.7046 11.6925Q16.653 11.7028 16.6005 11.708Q16.5481 11.7131 16.4954 11.7131L16.4934 11.7131Q16.4408 11.7131 16.3883 11.708Q16.3359 11.7028 16.2843 11.6925Q16.2326 11.6823 16.1822 11.667Q16.1318 11.6517 16.0831 11.6315Q16.0345 11.6114 15.988 11.5865Q15.9416 11.5617 15.8978 11.5324Q15.854 11.5032 15.8132 11.4698Q15.7725 11.4363 15.7353 11.3991Q15.698 11.3619 15.6646 11.3211Q15.6312 11.2804 15.6019 11.2366Q15.5727 11.1928 15.5478 11.1464Q15.523 11.0999 15.5029 11.0513Q15.4827 11.0026 15.4674 10.9522Q15.4521 10.9018 15.4418 10.8501Q15.4316 10.7985 15.4264 10.746Q15.4212 10.6936 15.4212 10.6409L15.4212 7.15204L11.9323 7.15204Q11.8797 7.15204 11.8272 7.14688Q11.7748 7.14171 11.7232 7.13144Q11.6715 7.12116 11.6211 7.10587Q11.5707 7.09058 11.522 7.07042Q11.4734 7.05026 11.4269 7.02543Q11.3805 7.0006 11.3367 6.97134Q11.2929 6.94208 11.2521 6.90866Q11.2114 6.87524 11.1742 6.838Q11.1369 6.80075 11.1035 6.76003Q11.0701 6.71932 11.0408 6.67552Q11.0116 6.63172 10.9867 6.58527Q10.9619 6.53882 10.9418 6.49015Q10.9216 6.44149 10.9063 6.39108Q10.891 6.34067 10.8807 6.28901Q10.8705 6.23735 10.8653 6.18493Q10.8601 6.13251 10.8601 6.07984L10.8601 6.07784Q10.8601 6.02516 10.8653 5.97274Q10.8705 5.92032 10.8807 5.86866Q10.891 5.817 10.9063 5.76659Q10.9216 5.71619 10.9418 5.66752Q10.9619 5.61886 10.9867 5.57241Q11.0116 5.52595 11.0408 5.48215Q11.0701 5.43836 11.1035 5.39764Q11.1369 5.35692 11.1742 5.31968Q11.2114 5.28243 11.2521 5.24902Q11.2929 5.2156 11.3367 5.18634Q11.3805 5.15707 11.4269 5.13224Q11.4734 5.10741 11.522 5.08725Q11.5707 5.0671 11.6211 5.05181Q11.6715 5.03651 11.7232 5.02624Q11.7748 5.01596 11.8272 5.0108Q11.8797 5.00564 11.9323 5.00564L15.4212 5.00564L15.4212 1.51673Q15.4212 1.46406 15.4264 1.41164Q15.4316 1.35922 15.4418 1.30756Q15.4521 1.2559 15.4674 1.20549Q15.4827 1.15509 15.5029 1.10642Q15.523 1.05776 15.5478 1.0113Q15.5727 0.964849 15.6019 0.921052Q15.6312 0.877255 15.6646 0.836538Q15.698 0.795821 15.7353 0.758575Q15.7725 0.721329 15.8132 0.687913Q15.854 0.654497 15.8978 0.625233Q15.9416 0.595969 15.988 0.571138Q16.0345 0.546308 16.0831 0.526151Q16.1318 0.505993 16.1822 0.490703Q16.2326 0.475412 16.2843 0.465136Q16.3359 0.45486 16.3883 0.449697Q16.4408 0.444534 16.4934 0.444534Z"
                        fill="#5A5A5A" fill-rule="evenodd" id="Combined-Shape" stroke="none" />
                    <g id="user-2" transform="translate(0 7.9632926)">
                        <g id="user">
                            <path
                                d="M7.879 9.15232C9.14812 9.15232 10.2471 8.70136 11.145 7.81161C12.0429 6.92201 12.4981 5.83352 12.4981 4.57601C12.4981 3.31894 12.0429 2.23031 11.1449 1.34042C10.2468 0.450962 9.14798 0 7.879 0C6.60973 0 5.51106 0.450962 4.61313 1.34057C3.7152 2.23017 3.25987 3.3188 3.25987 4.57601C3.25987 5.83352 3.7152 6.92215 4.61327 7.81175C5.51135 8.70121 6.61017 9.15232 7.879 9.15232Z"
                                fill="#5A5A5A" id="Path" stroke="none" />
                            <path
                                d="M15.9612 14.61C15.9353 14.2397 15.8829 13.8359 15.8058 13.4094C15.728 12.9798 15.6278 12.5736 15.5078 12.2024C15.3839 11.8187 15.2153 11.4397 15.007 11.0766C14.7907 10.6997 14.5367 10.3716 14.2517 10.1015C13.9537 9.81898 13.5887 9.59183 13.1668 9.42614C12.7463 9.26133 12.2803 9.17783 11.7818 9.17783C11.586 9.17783 11.3967 9.25741 11.031 9.49326C10.806 9.63865 10.5428 9.8068 10.249 9.99278C9.99777 10.1514 9.65744 10.2999 9.23708 10.4345C8.82697 10.5659 8.41056 10.6326 7.99956 10.6326C7.58857 10.6326 7.1723 10.5659 6.76175 10.4345C6.34183 10.3001 6.0015 10.1515 5.75057 9.99293C5.45955 9.80869 5.19619 9.64054 4.96779 9.49311C4.60259 9.25727 4.41312 9.17769 4.21735 9.17769C3.71871 9.17769 3.25285 9.26133 2.83249 9.42629C2.41081 9.59169 2.04576 9.81883 1.74743 10.1016C1.46255 10.3718 1.20841 10.6999 0.992447 11.0766C0.784242 11.4397 0.615689 11.8185 0.491614 12.2025C0.371783 12.5737 0.271558 12.9798 0.193719 13.4094C0.116612 13.8353 0.0642318 14.2393 0.0383342 14.6104C0.0128756 14.974 0 15.3513 0 15.7324C0 16.7242 0.318233 17.5271 0.945772 18.1192C1.56556 18.7036 2.38565 19 3.38292 19L12.6171 19C13.6144 19 14.4341 18.7037 15.0541 18.1192C15.6818 17.5275 16 16.7245 16 15.7322C15.9999 15.3494 15.9868 14.9718 15.9612 14.61L15.9612 14.61Z"
                                fill="#5A5A5A" id="Path" stroke="none" />
                        </g>
                    </g>
                </g>
            </g>
        </g>
    </g>
</svg>