<?xml version="1.0" encoding="utf-8"?>
<svg xmlns:xlink="http://www.w3.org/1999/xlink" height="8px" version="1.1" viewBox="0 0 14 8"
    width="14px" xmlns="http://www.w3.org/2000/svg">
    <defs>
        <rect height="8" id="artboard_1" width="14" />
        <clipPath id="clip_1">
            <use clip-rule="evenodd" xlink:href="#artboard_1" />
        </clipPath>
    </defs>
    <g clip-path="url(#clip_1)" id="1-AtomsIconUp">
        <g id="Group-6" transform="matrix(1 0 0 -1 0 8)">
            <path
                d="M5.27688 6.2081L1.3991 1.646Q1.37609 1.61893 1.35506 1.59029Q1.33403 1.56165 1.31509 1.53159Q1.29614 1.50153 1.27939 1.4702Q1.26263 1.43887 1.24814 1.40643Q1.23365 1.37399 1.2215 1.3406Q1.20935 1.30721 1.1996 1.27304Q1.18985 1.23887 1.18256 1.2041Q1.17526 1.16932 1.17046 1.13412Q1.16565 1.09892 1.16336 1.06346Q1.16107 1.028 1.1613 0.992472Q1.16153 0.956942 1.16429 0.921519Q1.16704 0.886095 1.17231 0.850956Q1.17757 0.815818 1.18532 0.781142Q1.19307 0.746466 1.20326 0.712429Q1.21346 0.678391 1.22604 0.645164Q1.23863 0.611936 1.25354 0.579687Q1.26845 0.547437 1.28562 0.516329Q1.30279 0.48522 1.32212 0.45541Q1.34145 0.4256 1.36286 0.397238Q1.38426 0.368877 1.40762 0.342107Q1.43099 0.315338 1.45619 0.290296Q1.4814 0.265254 1.50832 0.242066Q1.53524 0.218879 1.56374 0.197662Q1.59224 0.176445 1.62218 0.157307Q1.65211 0.138168 1.68333 0.121205Q1.71455 0.104242 1.7469 0.0895395Q1.77925 0.0748371 1.81255 0.0624698Q1.84586 0.0501025 1.87997 0.0401328Q1.91407 0.0301631 1.9488 0.0226415Q1.98352 0.0151198 2.01869 0.0100841Q2.05387 0.00504843 2.08931 0.00252421Q2.12475 0 2.16028 0L11.4397 9.53674e-07Q11.4753 9.53674e-07 11.5107 0.00252517Q11.5461 0.00504938 11.5813 0.0100851Q11.6165 0.0151207 11.6512 0.0226424Q11.6859 0.0301641 11.72 0.0401338Q11.7541 0.0501035 11.7874 0.0624708Q11.8208 0.0748381 11.8531 0.0895405Q11.8854 0.104243 11.9167 0.121206Q11.9479 0.138169 11.9778 0.157308Q12.0078 0.176446 12.0363 0.197663Q12.0648 0.21888 12.0917 0.242067Q12.1186 0.265255 12.1438 0.290297Q12.169 0.315339 12.1924 0.342108Q12.2157 0.368878 12.2371 0.397239Q12.2585 0.425601 12.2779 0.455411Q12.2972 0.485221 12.3144 0.51633Q12.3315 0.547438 12.3465 0.579688Q12.3614 0.611937 12.374 0.645165Q12.3865 0.678392 12.3967 0.71243Q12.4069 0.746467 12.4147 0.781143Q12.4224 0.815819 12.4277 0.850957Q12.433 0.886096 12.4357 0.92152Q12.4385 0.956943 12.4387 0.992473Q12.4389 1.028 12.4366 1.06346Q12.4343 1.09892 12.4295 1.13412Q12.4247 1.16933 12.4174 1.2041Q12.4101 1.23887 12.4004 1.27304Q12.3907 1.30721 12.3785 1.3406Q12.3664 1.37399 12.3519 1.40643Q12.3374 1.43887 12.3206 1.4702Q12.3039 1.50153 12.2849 1.53159Q12.266 1.56165 12.2449 1.59029Q12.2239 1.61893 12.2009 1.646L8.32312 6.2081Q8.25295 6.29065 8.17427 6.36513Q8.0956 6.43961 8.00933 6.50515Q7.92307 6.57069 7.83022 6.62653Q7.73738 6.68236 7.63905 6.72784Q7.54071 6.77331 7.43804 6.80789Q7.33537 6.84247 7.22956 6.86575Q7.12375 6.88903 7.01605 6.90074Q6.90834 6.91245 6.8 6.91245Q6.69166 6.91245 6.58396 6.90074Q6.47625 6.88903 6.37044 6.86575Q6.26463 6.84247 6.16196 6.80789Q6.05929 6.77331 5.96095 6.72784Q5.86262 6.68236 5.76978 6.62653Q5.67693 6.57069 5.59067 6.50515Q5.5044 6.43961 5.42573 6.36513Q5.34705 6.29065 5.27688 6.2081Z"
                fill="#838383" fill-rule="evenodd" id="Triangle-Copy-4" stroke="none" />
        </g>
    </g>
</svg>