<?xml version="1.0" encoding="utf-8"?>
<svg xmlns:xlink="http://www.w3.org/1999/xlink" height="80px" version="1.1" viewBox="0 0 80 80"
    width="80px" xmlns="http://www.w3.org/2000/svg">
    <defs>
        <rect height="80" id="artboard_1" width="80" />
        <clipPath id="clip_1">
            <use clip-rule="evenodd" xlink:href="#artboard_1" />
        </clipPath>
    </defs>
    <g clip-path="url(#clip_1)" id="ElementsIconAll">
        <path
            d="M39.501 3L12 3L12 74.001Q12 74.0992 12.0096 74.1969Q12.0192 74.2947 12.0384 74.391Q12.0576 74.4873 12.0861 74.5813Q12.1146 74.6752 12.1522 74.766Q12.1897 74.8567 12.236 74.9433Q12.2823 75.0299 12.3369 75.1116Q12.3915 75.1932 12.4538 75.2692Q12.5161 75.3451 12.5855 75.4145Q12.6549 75.4839 12.7308 75.5462Q12.8068 75.6085 12.8884 75.6631Q12.9701 75.7177 13.0567 75.764Q13.1433 75.8102 13.234 75.8478Q13.3247 75.8854 13.4187 75.9139Q13.5127 75.9424 13.609 75.9616Q13.7053 75.9807 13.8031 75.9904Q13.9008 76 13.999 76L47.501 76Q48.0042 76 48.5068 75.9753Q49.0094 75.9506 49.5103 75.9013Q50.011 75.852 50.5088 75.7781Q51.0066 75.7043 51.5002 75.6061Q51.9937 75.5079 52.4818 75.3857Q52.97 75.2634 53.4515 75.1173Q53.9331 74.9712 54.4069 74.8017Q54.8807 74.6322 55.3456 74.4396Q55.8105 74.247 56.2654 74.0319Q56.7204 73.8167 57.1642 73.5795Q57.608 73.3423 58.0396 73.0836Q58.4712 72.8249 58.8896 72.5453Q59.308 72.2657 59.7122 71.966Q60.1164 71.6662 60.5054 71.3469Q60.8944 71.0277 61.2673 70.6898Q61.6401 70.3518 61.996 69.996Q62.3518 69.6401 62.6898 69.2673Q63.0277 68.8944 63.3469 68.5054Q63.6662 68.1164 63.9659 67.7122Q64.2657 67.308 64.5453 66.8896Q64.8249 66.4712 65.0836 66.0396Q65.3423 65.608 65.5795 65.1642Q65.8167 64.7204 66.0319 64.2654Q66.247 63.8105 66.4396 63.3456Q66.6322 62.8807 66.8017 62.4069Q66.9712 61.9331 67.1173 61.4515Q67.2634 60.97 67.3857 60.4818Q67.5079 59.9937 67.6061 59.5002Q67.7043 59.0066 67.7781 58.5088Q67.852 58.011 67.9013 57.5103Q67.9506 57.0095 67.9753 56.5068Q68 56.0042 68 55.501L68 55.499Q68 55.1211 67.9861 54.7434Q67.9721 54.3657 67.9443 53.9888Q67.9164 53.6119 67.8747 53.2362Q67.833 52.8606 67.7775 52.4868Q67.7219 52.1129 67.6527 51.7414Q67.5834 51.3699 67.5005 51.0012Q67.4175 50.6324 67.3211 50.267Q67.2246 49.9016 67.1147 49.54Q67.0049 49.1783 66.8817 48.821Q66.7586 48.4637 66.6224 48.1112Q66.4862 47.7586 66.3371 47.4113Q66.188 47.0641 66.0262 46.7225Q65.8644 46.381 65.6901 46.0456Q65.5158 45.7103 65.3293 45.3816Q65.1427 45.0529 64.9442 44.7313Q64.7457 44.4097 64.5354 44.0956Q64.3252 43.7816 64.1035 43.4755Q63.8818 43.1694 63.649 42.8717Q63.4162 42.5739 63.1726 42.285Q62.929 41.9961 62.6749 41.7163Q62.4207 41.4365 62.1565 41.1663Q61.8922 40.8961 61.6182 40.6359Q61.3442 40.3756 61.0607 40.1256Q60.7773 39.8756 60.4849 39.6362Q60.1924 39.3968 59.8913 39.1684Q59.5902 38.9399 59.2809 38.7228Q58.9716 38.5056 58.6545 38.2999Q58.3374 38.0943 58.013 37.9005Q57.6885 37.7067 57.3571 37.525Q57.0257 37.3432 56.6879 37.1739Q56.35 37.0045 56.0061 36.8477Q55.6623 36.6909 55.3129 36.5469Q55.8757 35.8647 56.3777 35.1366Q56.8796 34.4085 57.3171 33.6399Q57.7545 32.8713 58.1241 32.0679Q58.4936 31.2644 58.7927 30.4322Q59.0917 29.5999 59.3179 28.7449Q59.5442 27.89 59.6959 27.0188Q59.8477 26.1475 59.9238 25.2664Q60 24.3854 60 23.501L60 23.499Q60 22.9958 59.9753 22.4932Q59.9506 21.9905 59.9013 21.4897Q59.852 20.9889 59.7781 20.4912Q59.7043 19.9934 59.6061 19.4998Q59.5079 19.0063 59.3857 18.5181Q59.2634 18.03 59.1173 17.5485Q58.9712 17.0669 58.8017 16.5931Q58.6322 16.1193 58.4396 15.6544Q58.247 15.1895 58.0319 14.7345Q57.8167 14.2796 57.5795 13.8358Q57.3423 13.392 57.0836 12.9604Q56.8249 12.5288 56.5453 12.1104Q56.2657 11.692 55.9659 11.2878Q55.6662 10.8836 55.3469 10.4946Q55.0277 10.1056 54.6898 9.73271Q54.3518 9.35985 53.996 9.00402Q53.6401 8.64819 53.2673 8.31024Q52.8944 7.9723 52.5054 7.65306Q52.1164 7.33382 51.7122 7.03405Q51.308 6.73428 50.8896 6.4547Q50.4712 6.17513 50.0396 5.91642Q49.608 5.65771 49.1642 5.4205Q48.7204 5.18328 48.2654 4.96812Q47.8105 4.75297 47.3456 4.56039Q46.8807 4.36782 46.4069 4.19829Q45.9331 4.02876 45.4515 3.88268Q44.97 3.7366 44.4818 3.61433Q43.9937 3.49206 43.5001 3.39388Q43.0066 3.29571 42.5088 3.22187Q42.011 3.14803 41.5103 3.09871Q41.0095 3.04938 40.5068 3.02469Q40.0042 3 39.501 3Z"
            fill="#BAD450" fill-rule="evenodd" id="Combined-Shape-Copy-2" stroke="none" />
    </g>
</svg>