<?xml version="1.0" encoding="UTF-8"?>
<svg height="27px" version="1.1" viewBox="0 0 23 27" width="23px"
    xmlns="http://www.w3.org/2000/svg">
    <title>ic_addplayer</title>
    <g fill="none" fill-rule="evenodd" id="Slices" stroke="none" stroke-width="1">
        <g fill="#5A5A5A" id="Artboard" transform="translate(-778.000000, -223.000000)">
            <g id="ic_addplayer" transform="translate(778.000000, 223.000000)">
                <path
                    d="M20.478492,2.09478341 C20.8976029,2.51389431 20.8976029,3.19340733 20.478492,3.61251823 L18.0120509,6.07845023 L20.478492,8.54515642 C20.8676664,8.93433083 20.8954645,9.54803564 20.5618865,9.96928582 L20.478492,10.0628913 C20.0593811,10.4820022 19.379868,10.4820022 18.9607571,10.0628913 L18.9607571,10.0628913 L16.4940509,7.59645023 L14.0281189,10.0628913 C13.609008,10.4820022 12.929495,10.4820022 12.5103841,10.0628913 C12.0912732,9.64378035 12.0912732,8.96426732 12.5103841,8.54515642 L14.9760509,6.07845023 L12.5103841,3.61251823 C12.1212097,3.22334383 12.0934115,2.60963901 12.4269896,2.18838883 L12.5103841,2.09478341 C12.929495,1.67567251 13.609008,1.67567251 14.0281189,2.09478341 L14.0281189,2.09478341 L16.4940509,4.56045023 L18.9607571,2.09478341 C19.379868,1.67567251 20.0593811,1.67567251 20.478492,2.09478341 Z"
                    id="Combined-Shape"
                    transform="translate(16.494438, 6.078837) rotate(45.000000) translate(-16.494438, -6.078837) "></path>
                <g fill-rule="nonzero" id="user-2" transform="translate(0.000000, 7.963292)">
                    <g id="user">
                        <path
                            d="M7.87899847,9.15231969 C9.14812445,9.15231969 10.2470875,8.70135727 11.1450153,7.81160879 C12.0429431,6.9220053 12.4981254,5.83352026 12.4981254,4.57601489 C12.4981254,3.31894441 12.0429431,2.23031439 11.144869,1.340421 C10.2467948,0.45096245 9.14797815,0 7.87899847,0 C6.60972623,0 5.51105582,0.45096245 4.613128,1.34056594 C3.71520018,2.23016944 3.25987161,3.31879946 3.25987161,4.57601489 C3.25987161,5.83352026 3.71520018,6.92215025 4.61327431,7.81175374 C5.51134847,8.70121229 6.61016514,9.15231969 7.87899847,9.15231969 Z"
                            id="Path"></path>
                        <path
                            d="M15.9612269,14.6099654 C15.9353293,14.2397443 15.882949,13.835893 15.8058416,13.4094283 C15.7280027,12.9797747 15.6277777,12.573604 15.5078004,12.2023682 C15.3838726,11.8186659 15.2153191,11.4397473 15.0069682,11.0766291 C14.7907164,10.6997398 14.5367156,10.3715563 14.2516963,10.1015007 C13.9536551,9.81897873 13.5887485,9.59183049 13.1667795,9.42614422 C12.7462736,9.26132764 12.2802641,9.17783219 11.781773,9.17783219 C11.5860051,9.17783219 11.396675,9.25741382 11.0310368,9.49325947 C10.8060062,9.63865174 10.5427877,9.80680231 10.2489895,9.99278265 C9.99776874,10.1513661 9.6574428,10.2999474 9.23708325,10.4344678 C8.82696564,10.5659442 8.41055656,10.6326246 7.99956105,10.6326246 C7.58856558,10.6326246 7.1723028,10.5659442 6.76174628,10.4344678 C6.34182564,10.3000923 6.0014997,10.151511 5.75057155,9.9929276 C5.45955336,9.80868675 5.19618851,9.64053618 4.96779267,9.49311452 C4.60259341,9.25726887 4.41311702,9.17768724 4.21734916,9.17768724 C3.71871171,9.17768724 3.25284855,9.26132764 2.83248899,9.42628917 C2.41081258,9.59168554 2.04575966,9.81883378 1.7474258,10.1016457 C1.46255281,10.3718462 1.20840574,10.6998848 0.99244656,11.0766291 C0.784242004,11.4397473 0.615688499,11.818521 0.491614391,12.2025131 C0.371783373,12.573749 0.271558425,12.9797747 0.19371948,13.4094283 C0.116612095,13.8353132 0.0642317705,14.2393094 0.0383342361,14.6104003 C0.012875615,14.9739535 0,15.3512776 0,15.7323705 C0,16.724169 0.318232539,17.527088 0.945772447,18.1192389 C1.56555773,18.7035621 2.38564661,19 3.38292152,19 L12.6170785,19 C13.6143534,19 14.4341497,18.7037071 15.0540812,18.1192389 C15.6817675,17.5275228 16,16.7244589 16,15.7322255 C16,15.3493931 15.9868318,14.9717791 15.9612269,14.6099654 L15.9612269,14.6099654 Z"
                            id="Path"></path>
                    </g>
                </g>
            </g>
        </g>
    </g>
</svg>