<?xml version="1.0" encoding="utf-8"?>
<svg xmlns:xlink="http://www.w3.org/1999/xlink" height="80px" version="1.1" viewBox="0 0 80 80"
    width="80px" xmlns="http://www.w3.org/2000/svg">
    <defs>
        <filter id="filter_1">
            <feColorMatrix in="SourceGraphic" type="matrix"
                values="0 0 0 0 0.8666667 0 0 0 0 0.62352943 0 0 0 0 0.22745098 0 0 0 1 0" />
        </filter>
        <rect height="80" id="artboard_1" width="80" />
        <clipPath id="clip_1">
            <use clip-rule="evenodd" xlink:href="#artboard_1" />
        </clipPath>
    </defs>
    <g clip-path="url(#clip_1)" id="ElementsIconBetman">
        <g id="Group-24-Copy" transform="translate(6 8)">
            <g id="Group-23">
                <path
                    d="M52.9457 53.7746C43.6165 63.2482 29.8251 65.4261 18.444 60.3052C15.7636 59.1005 13.2192 57.4908 10.8965 55.4763C10.2746 54.9383 9.67115 54.37 9.08348 53.7746C-3.02783 41.4722 -3.02783 21.5281 9.08348 9.22568C21.1963 -3.07523 40.8329 -3.07523 52.9457 9.22568C53.5334 9.82256 54.0913 10.4354 54.6212 11.0671C56.6046 13.4244 58.1895 16.0102 59.3757 18.7328C64.4176 30.2905 62.2733 44.2995 52.9457 53.7746Z"
                    fill="#DD9F3A" id="Path-Copy" stroke="none" />
                <path
                    d="M58.9168 53.7746C49.5875 63.2482 35.7962 65.4261 24.4151 60.3052C21.7347 59.1005 19.1903 57.4908 16.8676 55.4763C16.2456 54.9383 15.6422 54.37 15.0546 53.7746C2.94325 41.4722 2.94325 21.5281 15.0546 9.22568C27.1674 -3.07523 46.804 -3.07523 58.9168 9.22568C59.5045 9.82256 60.0624 10.4354 60.5923 11.0671C62.5757 13.4244 64.1606 16.0102 65.3468 18.7328C70.3887 30.2905 68.2444 44.2995 58.9168 53.7746Z"
                    fill="#F4B74A" id="Path" stroke="none" />
                <path
                    d="M65.3466 18.7328L24.4151 60.3052C21.7346 59.1005 19.1903 57.4908 16.8676 55.4763L60.5923 11.0671C62.5755 13.4244 64.1604 16.0104 65.3466 18.7328Z"
                    fill="#F9C662" id="Path" stroke="none" />
                <path
                    d="M58.9166 31.5002C58.9166 43.8019 49.0977 53.7744 36.9858 53.7744C30.1488 53.7744 24.0435 50.598 20.0207 45.6172C16.9165 41.7746 15.0549 36.8581 15.0549 31.5002C15.0549 19.1986 24.8739 9.22607 36.9858 9.22607C42.2622 9.22607 47.103 11.1195 50.8863 14.2725C55.7889 18.3565 58.9166 24.5577 58.9166 31.5002Z"
                    fill="#FFD488" id="Path" stroke="none" />
                <path
                    d="M50.8863 14.2723L20.0234 45.6183L20.0205 45.617C19.1145 44.4958 18.3143 43.2822 17.6367 41.9934C16.864 40.5286 16.2496 38.9676 15.8137 37.3297C15.3189 35.4713 15.0547 33.5163 15.0547 31.5001C15.0547 19.1984 24.8737 9.22588 36.9856 9.22588C38.9722 9.22588 40.8969 9.49381 42.7253 9.99675C44.3381 10.4395 45.875 11.065 47.3172 11.8497C48.5864 12.5382 49.781 13.3522 50.8863 14.2723Z"
                    fill="#F9C662" id="Path" stroke="none" />
                <path
                    d="M47.3174 11.8497L17.6368 41.9936C16.8642 40.5288 16.2498 38.9678 15.8139 37.3298L42.7257 9.99675C44.3381 10.4395 45.8752 11.065 47.3174 11.8497Z"
                    fill="#FFD488" id="Path" stroke="none" />
                <g filter="url(#filter_1)" id="Group-17-Copy"
                    transform="translate(26.20246 19.151642)">
                    <path
                        d="M0 0L12.2346 0Q12.3923 0 12.5498 0.00773926Q12.7074 0.0154785 12.8643 0.0309384Q13.0213 0.0463982 13.1773 0.0695415Q13.3333 0.0926847 13.488 0.123456Q13.6427 0.154226 13.7957 0.192551Q13.9487 0.230875 14.0997 0.276661Q14.2506 0.322446 14.3991 0.375582Q14.5476 0.428719 14.6933 0.489078Q14.839 0.549437 14.9816 0.616874Q15.1242 0.68431 15.2633 0.758662Q15.4024 0.833014 15.5377 0.914101Q15.673 0.995188 15.8041 1.08282Q15.9353 1.17044 16.062 1.2644Q16.1886 1.35836 16.3106 1.45842Q16.4325 1.55848 16.5494 1.6644Q16.6662 1.77032 16.7778 1.88185Q16.8893 1.99338 16.9952 2.11025Q17.1011 2.22712 17.2012 2.34904Q17.3013 2.47097 17.3952 2.59765Q17.4892 2.72434 17.5768 2.85548Q17.6644 2.98663 17.7455 3.12191Q17.8266 3.2572 17.901 3.3963Q17.9753 3.53541 18.0427 3.67799Q18.1102 3.82057 18.1705 3.96629Q18.2309 4.11201 18.284 4.26052Q18.3372 4.40902 18.383 4.55996Q18.4287 4.71089 18.4671 4.86389Q18.5054 5.01689 18.5362 5.17159Q18.5669 5.32628 18.5901 5.4823Q18.6132 5.63832 18.6287 5.79529Q18.6441 5.95225 18.6519 6.10979Q18.6596 6.26733 18.6596 6.42505L18.6596 6.42705Q18.6596 6.58478 18.6519 6.74231Q18.6441 6.89985 18.6287 7.05682Q18.6132 7.21378 18.5901 7.3698Q18.5669 7.52582 18.5362 7.68052Q18.5054 7.83521 18.4671 7.98821Q18.4287 8.14121 18.383 8.29215Q18.3372 8.44308 18.284 8.59159Q18.2309 8.74009 18.1705 8.88581Q18.1102 9.03153 18.0427 9.17412Q17.9753 9.3167 17.901 9.4558Q17.8266 9.5949 17.7455 9.73019Q17.6644 9.86547 17.5768 9.99662Q17.4892 10.1278 17.3952 10.2545Q17.3013 10.3811 17.2012 10.5031Q17.1011 10.625 16.9952 10.7419Q16.8893 10.8587 16.7778 10.9702Q16.6662 11.0818 16.5494 11.1877Q16.4325 11.2936 16.3106 11.3937Q16.1886 11.4937 16.062 11.5877Q15.9353 11.6817 15.8041 11.7693Q15.673 11.8569 15.5377 11.938Q15.4024 12.0191 15.2633 12.0934Q15.1242 12.1678 14.9816 12.2352Q14.839 12.3027 14.6933 12.363Q14.5476 12.4234 14.3991 12.4765Q14.2506 12.5297 14.0997 12.5754Q13.9487 12.6212 13.7957 12.6596Q13.6427 12.6979 13.488 12.7286Q13.3333 12.7594 13.1773 12.7826Q13.0213 12.8057 12.8643 12.8212Q12.7074 12.8366 12.5498 12.8444Q12.3923 12.8521 12.2346 12.8521L0 12.8521L0 0Z"
                        fill="#FFFFFF" fill-rule="evenodd" id="Rectangle" stroke="none" />
                    <path
                        d="M0 10.2817L14.6813 10.2817Q14.8706 10.2817 15.0596 10.291Q15.2486 10.3003 15.437 10.3188Q15.6254 10.3374 15.8126 10.3651Q15.9998 10.3929 16.1855 10.4298Q16.3711 10.4668 16.5547 10.5128Q16.7383 10.5587 16.9194 10.6137Q17.1006 10.6686 17.2788 10.7324Q17.457 10.7962 17.6319 10.8686Q17.8067 10.941 17.9778 11.0219Q18.1489 11.1029 18.3159 11.1921Q18.4828 11.2813 18.6451 11.3786Q18.8075 11.4759 18.9649 11.5811Q19.1222 11.6863 19.2743 11.799Q19.4263 11.9118 19.5726 12.0318Q19.7189 12.1519 19.8592 12.279Q19.9994 12.4061 20.1333 12.54Q20.2671 12.6738 20.3942 12.8141Q20.5213 12.9543 20.6414 13.1006Q20.7615 13.2469 20.8742 13.3989Q20.987 13.551 21.0921 13.7084Q21.1973 13.8657 21.2946 14.0281Q21.3919 14.1904 21.4811 14.3574Q21.5703 14.5243 21.6513 14.6954Q21.7322 14.8665 21.8046 15.0414Q21.8771 15.2162 21.9408 15.3944Q22.0046 15.5726 22.0595 15.7538Q22.1145 15.9349 22.1605 16.1185Q22.2065 16.3021 22.2434 16.4877Q22.2803 16.6734 22.3081 16.8606Q22.3359 17.0478 22.3544 17.2362Q22.373 17.4246 22.3822 17.6136Q22.3915 17.8027 22.3915 17.9919L22.3915 17.9939Q22.3915 18.1832 22.3822 18.3723Q22.373 18.5613 22.3544 18.7497Q22.3359 18.938 22.3081 19.1253Q22.2803 19.3125 22.2434 19.4981Q22.2065 19.6838 22.1605 19.8674Q22.1145 20.051 22.0595 20.2321Q22.0046 20.4132 21.9408 20.5915Q21.8771 20.7697 21.8046 20.9445Q21.7322 21.1194 21.6513 21.2905Q21.5703 21.4616 21.4811 21.6285Q21.3919 21.7955 21.2946 21.9578Q21.1973 22.1202 21.0921 22.2775Q20.987 22.4349 20.8742 22.5869Q20.7615 22.739 20.6414 22.8853Q20.5213 23.0316 20.3942 23.1718Q20.2671 23.3121 20.1333 23.4459Q19.9994 23.5798 19.8592 23.7069Q19.7189 23.834 19.5726 23.9541Q19.4263 24.0741 19.2743 24.1869Q19.1222 24.2996 18.9649 24.4048Q18.8075 24.5099 18.6451 24.6073Q18.4828 24.7046 18.3159 24.7938Q18.1489 24.883 17.9778 24.9639Q17.8067 25.0449 17.6319 25.1173Q17.457 25.1897 17.2788 25.2535Q17.1006 25.3173 16.9194 25.3722Q16.7383 25.4272 16.5547 25.4731Q16.3711 25.5191 16.1855 25.5561Q15.9998 25.593 15.8126 25.6208Q15.6254 25.6485 15.437 25.6671Q15.2486 25.6856 15.0596 25.6949Q14.8706 25.7042 14.6813 25.7042L1.999 25.7042Q1.9008 25.7042 1.80306 25.6946Q1.70533 25.685 1.60901 25.6658Q1.5127 25.6466 1.41872 25.6181Q1.32474 25.5896 1.23402 25.552Q1.14329 25.5145 1.05668 25.4682Q0.970069 25.4219 0.888415 25.3673Q0.806761 25.3128 0.730848 25.2505Q0.654935 25.1882 0.585494 25.1187Q0.516052 25.0493 0.453752 24.9734Q0.391452 24.8974 0.336892 24.8158Q0.282333 24.7341 0.236039 24.6475Q0.189746 24.5609 0.152165 24.4702Q0.114584 24.3795 0.0860763 24.2855Q0.057569 24.1915 0.0384102 24.0952Q0.0192515 23.9989 0.00962573 23.9011Q0 23.8034 0 23.7052L0 10.2817Z"
                        fill="#FFFFFF" fill-rule="evenodd" id="Rectangle-Copy-4" stroke="none" />
                </g>
            </g>
        </g>
    </g>
</svg>