<?xml version="1.0" encoding="utf-8"?>
<svg xmlns:xlink="http://www.w3.org/1999/xlink" height="80px" version="1.1" viewBox="0 0 80 80"
    width="80px" xmlns="http://www.w3.org/2000/svg">
    <defs>
        <rect height="80" id="artboard_1" width="80" />
        <clipPath id="clip_1">
            <use clip-rule="evenodd" xlink:href="#artboard_1" />
        </clipPath>
    </defs>
    <g clip-path="url(#clip_1)" id="ElementsIconBetboys">
        <g id="baseball-cap" transform="translate(0 10)">
            <path
                d="M58.2311 4.0467L57.5357 8.34989L49.9395 7.11895L50.632 2.79933C50.9212 0.988215 52.633 -0.245078 54.4612 0.0412998L55.4741 0.217751C57.3014 0.504269 58.5342 2.21598 58.2311 4.0467L58.2311 4.0467Z"
                fill="#FFB955" id="Path" stroke="none" />
            <path
                d="M17.7394 32.2395L22.4532 17.2785C25.4477 7.77407 34.8085 1.76914 44.696 3.00977L55.8799 4.41307L56.9589 4.6226C73.9265 7.91727 84.0607 25.4557 78.4419 41.8014L78.4418 41.8015C78.4418 41.8015 71.0286 45.7767 47.3386 34.8986C47.3386 34.8986 35.8427 29.1775 17.7394 32.2395Z"
                fill="#BAD450" id="Path" stroke="none" />
            <path
                d="M66.5889 41.658C61.9054 40.6912 55.6219 38.6913 47.3382 34.8912C47.3382 34.8912 40.9221 31.6913 30.122 31.3578L34.5719 17.2911C36.7553 10.3743 42.2722 5.3242 48.9389 3.54094L55.8718 4.42413L56.9558 4.62432C57.772 4.77427 58.572 4.97426 59.3557 5.19094C66.8387 15.3076 69.9051 28.5744 66.5889 41.658L66.5889 41.658Z"
                fill="#66974F" id="Path" stroke="none" />
            <path
                d="M66.4262 41.6253C66.4262 41.6253 59.103 66.1855 30.8427 50.6114C14.0565 41.3546 7.95839 39.0855 5.77963 38.7632L17.7436 32.2395C35.8448 29.1711 47.3449 34.8954 47.3449 34.8954C55.5318 38.66 61.7716 40.6455 66.4262 41.6253L66.4262 41.6253Z"
                fill="#9AB52D" id="Path" stroke="none" />
            <path
                d="M66.422 41.6247C66.422 41.6247 59.1059 66.1916 30.8381 50.6081C14.0549 41.3579 7.95457 39.0913 5.77193 38.758L9.83773 36.5412C13.5715 38.0579 19.9713 41.1246 30.8381 47.1248C52.5221 59.0581 61.872 47.3913 65.0556 41.3081C65.5219 41.4247 65.9891 41.5246 66.422 41.6247Z"
                fill="#FFB955" id="Path" stroke="none" />
            <path
                d="M20.6319 45.1449C20.6319 45.1449 9.09278 54.9045 2.64651 50.663C-4.7793 45.7767 5.77962 38.7632 5.77962 38.7632C7.44281 39.0081 11.388 40.3877 20.6319 45.1449Z"
                fill="#66974F" fill-rule="evenodd" id="Path" stroke="none" />
        </g>
    </g>
</svg>