<svg fill="none" height="115" viewBox="0 0 152 115" width="152" xmlns="http://www.w3.org/2000/svg">
    <path clip-rule="evenodd"
        d="M138.182 53.6909C138.182 53.6909 149.521 70.5906 149.225 72.3543C148.935 74.1179 139.425 77.5783 139.425 77.5783L136.208 65.0374L138.177 53.6853L138.182 53.6909Z"
        fill="#333333" fill-rule="evenodd" />
    <path clip-rule="evenodd"
        d="M31.4671 53.1216C28.9242 59.6236 8.24998 77.6899 7.23979 90.4205C7.05981 92.7144 6.0438 95.8008 5.17875 98.5188C5.17875 98.5188 2.23524 104.809 4.53431 108.576C3.98857 108.085 3.46606 107.504 2.96096 106.829C0.35418 103.341 -0.365731 96.8277 0.162591 90.108C2.27007 63.4467 16.6161 62.5091 21.7019 49.5831L31.4671 53.116V53.1216Z"
        fill="url(#paint0_linear_738_54900)" fill-rule="evenodd" />
    <path clip-rule="evenodd"
        d="M86.9408 3.95148C86.9408 3.95148 91.2951 8.56152 90.3778 15.9008C89.0077 26.8175 80.6648 53.3616 85.1527 50.4091L94.2793 44.4094L95.1734 34.6758C95.1734 34.6758 93.7103 20.1704 92.8336 14.8236C91.957 9.47683 90.8074 5.25189 86.9466 3.95148H86.9408Z"
        fill="#333333" fill-rule="evenodd" />
    <path clip-rule="evenodd"
        d="M75.4747 4.68817C75.4747 4.68817 70.4934 8.67313 70.3482 16.0682C70.1334 27.0575 74.5632 54.461 70.5456 50.9393L62.377 43.7787L62.8995 34.0228C62.8995 34.0228 66.441 19.8522 68.0782 14.6729C69.7212 9.49356 71.4687 5.46395 75.4747 4.68817Z"
        fill="#333333" fill-rule="evenodd" />
    <path clip-rule="evenodd"
        d="M10.0498 66.4606C10.0498 66.4606 11.4432 62.5091 17.8759 63.91C24.3087 65.3053 20.2969 69.2958 20.2969 69.2958L12.6856 73.4203L10.0498 66.4662V66.4606Z"
        fill="#484848" fill-rule="evenodd" />
    <path clip-rule="evenodd"
        d="M18.3866 70.3283L12.906 73.2975C12.784 73.2194 12.6621 73.1301 12.546 73.0408L11.0249 69.0391C12.0699 64.7471 17.208 64.1834 17.208 64.1834C17.208 64.1834 18.9381 68.7042 18.9381 69.173C18.9381 69.2958 18.7175 69.7423 18.3866 70.3283Z"
        fill="#373737" fill-rule="evenodd" />
    <path clip-rule="evenodd"
        d="M32.5064 40.5751C32.5064 40.5751 22.8225 40.9769 19.6409 50.2863C17.7541 55.8061 15.4318 70.1999 13.8526 81.0107C12.436 90.6996 7.90172 102.398 17.8411 108.403C32.4019 117.199 124.475 117.199 139.036 108.403C148.975 102.398 144.441 90.694 143.024 81.0107C141.445 70.1999 139.123 55.8005 137.236 50.2863C134.055 40.9769 124.371 40.5751 124.371 40.5751C92.7642 40.2347 64.1129 40.2347 32.5064 40.5751Z"
        fill="#98BF34" fill-rule="evenodd" />
    <path clip-rule="evenodd"
        d="M16.233 65.9303C15.3621 70.9534 14.5377 76.3169 13.8526 81.0051C12.436 90.694 7.90172 102.392 17.8411 108.397C32.4019 117.193 124.475 117.193 139.036 108.397C148.975 102.392 144.441 90.6884 143.024 81.0051C142.322 76.1997 141.474 70.6855 140.58 65.5564C141.341 103.04 85.5941 114.939 47.3982 102.816C15.8614 92.8037 15.4202 72.6501 16.2272 65.9303H16.233Z"
        fill="#41861C" fill-rule="evenodd" />
    <path clip-rule="evenodd"
        d="M21.9687 109.943C43.1887 116.697 114.03 116.68 135.041 109.899C135.053 109.854 135.053 109.826 135.053 109.826C133.688 99.2053 131.877 86.603 130.373 81.4572C127.569 71.8352 119.023 71.4222 119.023 71.4222C91.144 71.0706 65.8775 71.0706 38.0041 71.4222C38.0041 71.4222 29.4639 71.8352 26.6539 81.4572C25.1502 86.6197 23.3272 99.2946 21.9629 109.938L21.9687 109.943Z"
        fill="#98BF34" fill-rule="evenodd" />
    <path clip-rule="evenodd"
        d="M21.9687 109.943C43.1887 116.697 114.03 116.68 135.041 109.899C135.053 109.854 135.053 109.826 135.053 109.826C134.141 102.71 133.021 94.7013 131.935 88.6457C114.901 107.449 76.1711 111.947 47.3978 102.816C36.6862 99.4174 29.5626 94.8408 24.8541 90.0243C23.8381 95.918 22.8105 103.324 21.9629 109.943H21.9687Z"
        fill="#53A727" fill-rule="evenodd" />
    <path clip-rule="evenodd"
        d="M24.0649 108.989C25.348 100.835 26.126 83.338 32.5878 77.4889C34.1553 76.0713 36.1583 74.9607 38.6606 74.676C45.5752 73.8779 74.5632 74.5421 75.2193 74.676C75.8753 74.81 75.9798 75.809 75.8753 77.701C75.7708 79.5986 76.8217 110.915 77.1991 111.713C77.5706 112.511 77.1991 73.0408 77.1991 73.0408C77.1991 73.0408 40.8377 72.8231 37.3833 73.6212C35.6532 74.0175 33.389 75.1393 31.415 76.7634C24.541 82.4115 24.8661 100.4 24.0707 108.983L24.0649 108.989Z"
        fill="#76B52B" fill-rule="evenodd" />
    <path clip-rule="evenodd"
        d="M133.149 108.989C131.866 100.835 131.088 83.338 124.626 77.4889C123.059 76.0713 121.056 74.9607 118.554 74.676C111.639 73.8779 82.6857 74.5421 82.0297 74.676C81.3736 74.81 81.2691 75.809 81.3736 77.701C81.4781 79.5986 80.4273 110.915 80.0499 111.713C79.6783 112.511 80.0499 73.0408 80.0499 73.0408C80.0499 73.0408 116.376 72.8231 119.837 73.6212C121.567 74.0175 123.831 75.1393 125.805 76.7634C132.679 82.4115 132.354 100.4 133.149 108.983V108.989Z"
        fill="#76B52B" fill-rule="evenodd" />
    <path clip-rule="evenodd"
        d="M31.6411 40.6644C29.1969 41.016 22.2474 42.668 19.6407 50.2808C17.8699 55.4601 15.716 68.4642 14.1484 78.9791L21.8585 75.6862C21.8585 75.6862 25.4638 60.1594 25.7425 52.6472C25.9979 45.7544 32.2972 43.8959 31.6353 40.6644H31.6411Z"
        fill="#595959" fill-rule="evenodd" />
    <path clip-rule="evenodd"
        d="M11.3268 64.8253C11.3268 64.8253 9.89854 65.9527 10.5023 67.6605C11.0829 69.2958 13.6374 71.4948 16.2848 71.9971C21.69 73.0296 22.5609 73.3366 21.8584 75.6862C20.7785 79.2917 16.3371 105.785 15.3443 105.618C13.1498 105.244 6.82731 98.6918 6.95503 85.297C7.08856 71.9022 7.74461 67.694 11.3209 64.8253H11.3268Z"
        fill="#ACACAC" fill-rule="evenodd" />
    <path clip-rule="evenodd"
        d="M20.2792 83.1706C19.0019 87.6132 17.7421 106.025 15.3443 105.624C13.1498 105.25 6.82731 98.6974 6.95503 85.3026C7.01309 79.4535 7.16985 75.357 7.6285 72.3599C7.94781 74.4863 8.04071 75.9988 10.601 78.8843C13.1614 81.7753 20.2792 83.1706 20.2792 83.1706Z"
        fill="#474747" fill-rule="evenodd" />
    <path clip-rule="evenodd"
        d="M146.804 66.4606C146.804 66.4606 145.41 62.5091 138.978 63.91C132.545 65.3053 136.557 69.2958 136.557 69.2958L144.168 73.4203L146.804 66.4662V66.4606Z"
        fill="#424242" fill-rule="evenodd" />
    <path clip-rule="evenodd"
        d="M138.467 70.3283L143.948 73.2975C144.07 73.2194 144.192 73.1301 144.308 73.0408L145.829 69.0391C144.784 64.7471 139.646 64.1834 139.646 64.1834C139.646 64.1834 137.916 68.7042 137.916 69.173C137.916 69.2958 138.136 69.7423 138.467 70.3283Z"
        fill="#333333" fill-rule="evenodd" />
    <path clip-rule="evenodd"
        d="M125.218 40.6644C127.668 41.016 134.612 42.668 137.219 50.2808C138.989 55.4601 141.143 68.4642 142.711 78.9791L135.001 75.6862C135.001 75.6862 131.395 60.1594 131.117 52.6472C130.861 45.7544 124.562 43.8959 125.224 40.6644H125.218Z"
        fill="#595959" fill-rule="evenodd" />
    <path clip-rule="evenodd"
        d="M145.526 64.8253C145.526 64.8253 146.955 65.9527 146.351 67.6605C145.77 69.2958 143.216 71.4948 140.568 71.9971C135.163 73.0296 134.292 73.3366 134.995 75.6862C136.075 79.2917 140.516 105.785 141.509 105.618C143.703 105.244 150.026 98.6918 149.898 85.297C149.765 71.9022 149.114 67.694 145.532 64.8253H145.526Z"
        fill="#C6C6C6" fill-rule="evenodd" />
    <path clip-rule="evenodd"
        d="M136.574 83.1706C137.851 87.6132 139.111 106.025 141.509 105.624C143.704 105.25 150.026 98.6974 149.898 85.3026C149.84 79.4535 149.684 75.357 149.225 72.3599C148.906 74.4863 148.813 75.9988 146.252 78.8843C143.692 81.7753 136.574 83.1706 136.574 83.1706Z"
        fill="#474747" fill-rule="evenodd" />
    <path clip-rule="evenodd"
        d="M9.75968 68.6707C9.75968 68.6707 10.9324 72.1199 15.0487 73.0854C19.165 74.0565 20.239 74.3523 20.2739 74.9886C20.3087 75.6193 20.4016 79.487 18.1954 80.034C15.9892 80.5753 11.455 77.3159 10.0732 74.3914C8.69143 71.4669 9.34747 69.2735 9.75968 68.6707Z"
        fill="#D7D7D7" fill-rule="evenodd" />
    <path clip-rule="evenodd"
        d="M147.019 68.6707C147.019 68.6707 145.846 72.1199 141.729 73.0854C137.613 74.0565 136.539 74.3523 136.504 74.9886C136.469 75.6193 136.377 79.487 138.583 80.034C140.789 80.5753 145.323 77.3159 146.705 74.3914C148.087 71.4669 147.431 69.2735 147.019 68.6707Z"
        fill="#DADADA" fill-rule="evenodd" />
    <path clip-rule="evenodd"
        d="M28.7153 44.3982C28.7153 44.3982 29.9926 43.2987 33.209 43.2652C36.4254 43.2317 58.9748 43.9629 70.7373 43.695C82.4939 43.4271 101.868 43.695 107.4 44.0968C112.933 44.4931 122.722 42.869 123.517 43.0308C124.313 43.1983 129.224 43.3657 130.263 44.2252C131.303 45.0903 129.021 41.3676 123.413 41.6299C117.81 41.8978 113.311 42.3611 109.229 42.2271C105.148 42.0932 91.8643 42.1602 84.3981 42.0932C76.9262 42.0262 38.1206 41.8253 34.074 42.0262C30.0274 42.2271 28.7153 44.387 28.7153 44.387V44.3982Z"
        fill="#323232" fill-rule="evenodd" />
    <path clip-rule="evenodd"
        d="M29.3076 45.2019C29.0405 45.4084 29.3598 45.7935 29.6327 45.5981H29.6385L29.3076 45.2019ZM129.294 45.7377C129.578 45.8772 129.84 45.4363 129.509 45.28C129.184 45.1349 128.859 45.0065 128.522 44.8893C128.179 44.7777 128.034 45.2633 128.348 45.3637C128.673 45.4809 128.98 45.5981 129.294 45.7377ZM126.873 44.9451C127.256 45.0065 127.291 44.5042 126.995 44.454C126.647 44.3759 126.304 44.3145 125.95 44.2587C125.613 44.2029 125.52 44.6996 125.869 44.7554C126.211 44.8112 126.536 44.867 126.873 44.9451ZM124.33 44.588C124.719 44.588 124.667 44.0856 124.365 44.0856C124.011 44.0633 123.662 44.0466 123.308 44.041C122.948 44.041 122.966 44.5433 123.297 44.5433C123.645 44.5489 123.982 44.5656 124.33 44.588ZM121.747 44.56C122.066 44.56 122.095 44.0577 121.729 44.0577C121.381 44.0689 121.027 44.0856 120.678 44.1136C120.376 44.1136 120.324 44.6159 120.713 44.6159C121.056 44.588 121.404 44.5712 121.747 44.56ZM119.157 44.7442C119.535 44.6828 119.407 44.1973 119.105 44.2419C118.757 44.2754 118.408 44.3145 118.06 44.3535C117.688 44.4149 117.81 44.9005 118.124 44.8503C118.46 44.8056 118.82 44.7721 119.157 44.7386V44.7442ZM116.568 45.0456C116.928 44.9898 116.817 44.4987 116.498 44.5489L115.459 44.6828C115.099 44.7386 115.209 45.2298 115.529 45.1796L116.568 45.0456ZM113.973 45.3749C114.338 45.3135 114.222 44.8279 113.909 44.8782L112.875 44.9954C112.498 45.0568 112.626 45.5423 112.933 45.4977L113.978 45.3805L113.973 45.3749ZM111.354 45.6261C111.656 45.6261 111.708 45.1237 111.319 45.1237C110.971 45.1461 110.629 45.1628 110.286 45.174C109.961 45.174 109.938 45.6763 110.303 45.6763C110.658 45.6651 111.006 45.6484 111.354 45.6261ZM108.713 45.6651C109.096 45.6651 109.049 45.1628 108.742 45.1628C108.417 45.1461 108.045 45.1237 107.72 45.0791C107.401 45.0289 107.29 45.52 107.65 45.5758C108.004 45.6149 108.353 45.6484 108.713 45.6651ZM106.117 45.3916C106.501 45.3916 106.454 44.8893 106.147 44.8893L105.096 44.8391C104.724 44.8391 104.759 45.3414 105.078 45.3414L106.117 45.3861V45.3916ZM103.511 45.2968C103.876 45.2968 103.853 44.7945 103.528 44.7945L102.483 44.7665C102.123 44.7665 102.141 45.2689 102.471 45.2689L103.517 45.2968H103.511ZM100.898 45.2298C101.258 45.2298 101.241 44.7275 100.91 44.7275L99.8647 44.7052C99.5048 44.7052 99.5222 45.2075 99.8531 45.2075L100.898 45.2298ZM98.2855 45.1796C98.6455 45.1796 98.6281 44.6773 98.2972 44.6773L97.2521 44.6605C96.898 44.6605 96.9096 45.1628 97.2405 45.1628L98.2855 45.1796ZM95.673 45.1349C96.0271 45.1349 96.0155 44.6326 95.6846 44.6326L94.6395 44.6159C94.2854 44.6159 94.297 45.1182 94.6279 45.1182L95.673 45.1349ZM93.0604 45.0958C93.4145 45.0958 93.4029 44.5935 93.0662 44.5935C92.7178 44.5935 92.3695 44.588 92.0212 44.5768C91.667 44.5768 91.6786 45.0791 92.0154 45.0791C92.3637 45.0903 92.712 45.0903 93.0604 45.0958ZM90.4478 45.0568C90.802 45.0568 90.7903 44.5545 90.4536 44.5545L89.4086 44.5377C89.0544 44.5377 89.066 45.04 89.4028 45.04L90.4478 45.0568ZM87.8352 45.0177C88.1894 45.0177 88.1778 44.5154 87.841 44.5154L86.796 44.4987C86.4418 44.4987 86.4535 45.001 86.7902 45.001L87.8352 45.0177ZM85.2226 44.9842C85.5768 44.9842 85.5652 44.4819 85.2285 44.4819C84.9149 44.4819 84.4795 44.4987 84.1834 44.4652C83.8293 44.4652 83.8409 44.9675 84.1776 44.9675C84.4911 44.9898 84.8975 44.9786 85.2226 44.9842ZM82.6101 44.9507C82.9642 44.9507 82.9526 44.4484 82.6159 44.4484L81.5708 44.4317C81.2167 44.4317 81.2283 44.934 81.565 44.934L82.6101 44.9507ZM79.9975 44.9117C80.3516 44.9117 80.34 44.4094 80.0033 44.4094L78.9583 44.3926C78.6041 44.3926 78.6157 44.8949 78.9466 44.8949L79.9917 44.9117H79.9975ZM77.3849 44.8726C77.739 44.8726 77.7274 44.3703 77.3965 44.3703L76.3515 44.3535C75.9973 44.3535 76.0089 44.8559 76.3457 44.8559L77.3907 44.8726H77.3849ZM74.7723 44.8391C75.1207 44.8391 75.1148 44.3368 74.7723 44.3368C74.4298 44.3368 74.0756 44.3312 73.7273 44.3256C73.3789 44.3256 73.3847 44.8279 73.7273 44.8279C74.0756 44.8279 74.424 44.8391 74.7723 44.8391ZM72.1597 44.8168C72.5081 44.8168 72.5023 44.3145 72.1597 44.3145H71.1147C70.7664 44.3089 70.7722 44.8112 71.1147 44.8112H72.1597V44.8168ZM69.5472 44.8056C69.8955 44.8056 69.8897 44.3033 69.5472 44.3033C69.2278 44.3033 68.8098 44.3201 68.5021 44.2977C68.1538 44.2977 68.1596 44.8 68.5021 44.8C68.8098 44.8224 69.2278 44.8056 69.5472 44.8056ZM66.9346 44.7889C67.2829 44.7889 67.2771 44.2866 66.9346 44.2866H65.8895C65.5412 44.281 65.547 44.7833 65.8895 44.7833H66.9346V44.7889ZM64.322 44.7777C64.6703 44.7777 64.6645 44.2754 64.322 44.2754H63.277C62.9286 44.2698 62.9344 44.7721 63.277 44.7721H64.322V44.7777ZM61.7094 44.7665C62.0578 44.7665 62.0519 44.2642 61.7094 44.2642H60.6644C60.316 44.2587 60.3218 44.761 60.6644 44.761H61.7094V44.7665ZM59.0968 44.7554C59.4452 44.7554 59.4394 44.2531 59.0968 44.2531H58.0518C57.7034 44.2475 57.7093 44.7498 58.0518 44.7498H59.0968V44.7554ZM56.4842 44.7442C56.8326 44.7442 56.8268 44.2419 56.4842 44.2419C56.1417 44.2419 55.7876 44.2419 55.4392 44.2308C55.0909 44.2308 55.0967 44.7331 55.4392 44.7331C55.7876 44.7331 56.1359 44.7442 56.4842 44.7442ZM53.8717 44.7219C54.22 44.7219 54.2142 44.2196 53.8717 44.2196L52.8266 44.2084C52.4725 44.2084 52.4841 44.7107 52.8208 44.7107L53.8659 44.7219H53.8717ZM51.2591 44.694C51.6132 44.694 51.6016 44.1917 51.2649 44.1917L50.2199 44.1749C49.8657 44.1749 49.8773 44.6773 50.214 44.6773L51.2591 44.694ZM48.6465 44.6549C49.0006 44.6549 48.989 44.1526 48.6581 44.1526C48.3214 44.1526 47.9498 44.1526 47.6131 44.1359C47.2531 44.1359 47.2705 44.6382 47.6015 44.6382C47.944 44.6549 48.304 44.6493 48.6465 44.6549ZM46.0339 44.6047C46.3939 44.6047 46.3765 44.1024 46.0455 44.1024C45.7146 44.1024 45.343 44.0856 45.0005 44.0801C44.6405 44.0801 44.658 44.5824 44.9889 44.5824C45.3372 44.5935 45.6914 44.6047 46.0339 44.6047ZM43.4155 44.5377C43.7813 44.5377 43.7581 44.0354 43.4329 44.0354L42.3879 44.0019C42.0222 44.0019 42.0454 44.5042 42.3705 44.5042L43.4155 44.5377ZM40.7971 44.4428C41.1687 44.4428 41.1339 43.9405 40.8204 43.9405L39.7753 43.9015C39.4096 43.9015 39.4328 44.4038 39.7579 44.4038L40.8029 44.4428H40.7971ZM38.1962 44.3703C38.5445 44.3703 38.5387 43.868 38.1962 43.868C37.8478 43.868 37.4937 43.868 37.1453 43.868C36.8144 43.868 36.797 44.3703 37.1569 44.3703C37.5053 44.3647 37.8478 44.3647 38.1962 44.3647V44.3703ZM35.601 44.4317C35.9087 44.4317 35.9552 43.9294 35.572 43.9294C35.2236 43.9461 34.8695 43.974 34.5211 44.0019C34.1322 44.0633 34.2773 44.5489 34.5676 44.5042C34.9043 44.4707 35.2643 44.4484 35.601 44.4317ZM33.0233 44.6773C33.3716 44.6214 33.2787 44.1247 32.942 44.1805C32.5994 44.2308 32.2395 44.2866 31.8969 44.3591C31.5834 44.4094 31.6357 44.9117 32.0073 44.8503C32.344 44.7833 32.6807 44.7219 33.0233 44.6717V44.6773ZM30.5326 45.2465C30.8403 45.1461 30.6952 44.6661 30.3526 44.7721L30.5326 45.2465Z"
        fill="#76B52B" fill-rule="evenodd" />
    <path clip-rule="evenodd"
        d="M28.7441 56.3698C28.7441 56.3698 33.0345 48.7906 43.6881 47.8585C54.3416 46.9265 85.0539 49.1868 100.549 48.7906C116.045 48.3943 121.166 47.7246 122.547 49.4547C123.929 51.1849 123.79 56.9 110.373 57.4358C96.9499 57.966 78.5515 57.1679 59.1836 58.3679C39.8156 59.5678 30.6832 61.1584 29.0228 64.0886C27.3623 67.0131 26.3928 60.6282 28.7441 56.3754V56.3698Z"
        fill="#B2DD43" fill-rule="evenodd" />
    <path clip-rule="evenodd"
        d="M30.3989 77.7457C30.3989 77.7457 33.3075 72.3934 40.1583 72.1255C47.0091 71.8576 82.1802 72.092 87.5099 71.9245C91.7655 71.7906 109.821 71.5394 118.704 72.4045C125.439 73.0575 127.14 76.0435 129.509 82.3725C129.509 82.3725 125.143 73.9059 118.327 73.4482C111.511 72.9906 83.4575 73.264 76.9202 73.0464C70.383 72.8287 39.7055 72.8901 37.0058 73.7217C34.3061 74.5533 30.3931 77.7457 30.3931 77.7457H30.3989Z"
        fill="#424242" fill-rule="evenodd" />
    <path clip-rule="evenodd"
        d="M31.8039 42.8857C31.8039 42.8857 31.4497 42.5118 31.4323 42.4113C31.4149 42.3108 32.6747 41.2951 32.9882 41.2727C33.3018 41.2504 33.8533 41.9983 34.0159 42.1769C34.1784 42.3611 34.3468 42.6736 34.1436 42.7183C33.9462 42.7573 33.7546 42.8745 33.6675 42.7852C33.5804 42.6959 33.4237 42.5787 33.4759 42.5173C33.5282 42.4615 33.4992 42.2662 33.3656 42.1601C33.2263 42.0541 33.2785 41.8532 32.965 41.9592C32.6515 42.0653 32.0129 42.3778 32.0245 42.4392C32.0303 42.5062 32.3961 42.869 32.1987 43.0196C32.0013 43.1703 31.7981 42.8801 31.7981 42.8801L31.8039 42.8857Z"
        fill="#373538" fill-rule="evenodd" />
    <path clip-rule="evenodd"
        d="M31.4323 42.4113C31.4323 42.4113 25.8298 44.6605 25.7601 44.8279C25.6904 44.9954 25.8646 45.4419 26.1085 45.4586C26.3523 45.4753 30.6195 43.6782 31.0201 43.4996C31.4207 43.3154 31.8213 42.908 31.8213 42.908L31.4323 42.4113Z"
        fill="#373538" fill-rule="evenodd" />
    <path clip-rule="evenodd"
        d="M35.8854 73.0798C35.8854 73.0798 35.5313 72.7059 35.5139 72.6054C35.4964 72.505 36.7563 71.4892 37.0698 71.4669C37.3833 71.4446 37.9348 72.1924 38.0974 72.371C38.26 72.5496 38.4283 72.8678 38.2251 72.9124C38.0277 72.9515 37.8361 73.0687 37.7491 72.9794C37.662 72.8901 37.5052 72.7729 37.5575 72.7115C37.6097 72.6557 37.5807 72.4603 37.4472 72.3543C37.3078 72.2483 37.3601 72.0473 37.0466 72.1534C36.7331 72.2594 36.0944 72.5664 36.106 72.6334C36.1118 72.7003 36.4776 73.0631 36.2802 73.2138C36.0828 73.3645 35.8796 73.0743 35.8796 73.0743L35.8854 73.0798Z"
        fill="#373538" fill-rule="evenodd" />
    <path clip-rule="evenodd"
        d="M35.5139 72.6054C35.5139 72.6054 29.9113 74.8547 29.8417 75.0221C29.772 75.1895 29.9462 75.636 30.19 75.6528C30.4338 75.6695 34.7011 73.8724 35.1016 73.6938C35.5022 73.5096 35.9028 73.1022 35.9028 73.1022L35.5139 72.6054Z"
        fill="#373538" fill-rule="evenodd" />
    <path clip-rule="evenodd"
        d="M30.4683 83.5836C30.4683 83.5836 34.5497 77.3996 42.4339 76.2667C50.3181 75.1337 70.9749 74.9384 73.425 76.9308C75.8692 78.9233 75.2247 81.0553 71.4858 82.7855C67.7528 84.5156 48.4487 83.9798 41.8127 86.5751C35.171 89.1703 33.0286 92.759 30.8805 91.2968C28.7382 89.8345 27.9776 87.5741 30.4683 83.5836Z"
        fill="#B2DD43" fill-rule="evenodd" />
    <path clip-rule="evenodd"
        d="M126.861 83.5836C126.861 83.5836 122.78 77.3996 114.896 76.2667C107.011 75.1337 86.3545 74.9384 83.9045 76.9308C81.4545 78.9233 82.1047 81.0553 85.8436 82.7855C89.5767 84.5156 108.881 83.9798 115.517 86.5751C122.158 89.1703 124.301 92.759 126.449 91.2968C128.591 89.8345 129.352 87.5741 126.861 83.5836Z"
        fill="#B2DD43" fill-rule="evenodd" />
    <path clip-rule="evenodd"
        d="M28.634 45.481C28.634 45.481 26.8691 48.1822 26.2827 50.9003C25.6963 53.6183 23.7223 69.0558 23.3043 70.7804C22.8921 72.5106 22.5264 74.7654 22.0503 74.8491C21.5742 74.9328 22.3696 71.8073 22.5786 69.9488C22.7876 68.0847 24.5468 56.5819 24.7209 54.4555C24.8951 52.3291 25.4466 48.7348 28.634 45.481Z"
        fill="#76B52B" fill-rule="evenodd" />
    <path clip-rule="evenodd"
        d="M128.208 45.481C128.208 45.481 129.973 48.1822 130.559 50.9003C131.146 53.6183 133.12 69.0558 133.538 70.7804C133.95 72.5106 134.316 74.7654 134.792 74.8491C135.268 74.9328 134.472 71.8073 134.263 69.9488C134.054 68.0847 132.295 56.5819 132.121 54.4555C131.947 52.3291 131.395 48.7348 128.208 45.481Z"
        fill="#76B52B" fill-rule="evenodd" />
    <path clip-rule="evenodd"
        d="M47.7695 45.911C47.7695 45.1799 48.1643 41.6526 48.9945 39.0629C49.8248 36.4677 54.5971 27.6606 56.8729 23.4691C59.1488 19.2777 62.6496 17.6815 64.8384 15.3541C67.0272 13.0268 70.3771 0.681236 80.7693 0.028239C90.5114 -0.58569 92.3634 10.5153 95.9572 14.2267C100.596 19.0154 103.4 23.1399 104.451 27.6606C105.502 32.1814 109.049 42.1884 109.136 45.1185C109.392 53.7358 109.113 62.5931 109.113 71.2328H97.1067C97.1067 67.4376 97.5363 41.6526 95.574 38.1197C93.9135 35.1282 88.5723 27.2141 88.0439 20.5C87.5214 13.7858 90.494 14.1151 88.6129 10.7887C86.7318 7.46236 90.0121 3.00858 81.4776 3.00858C72.9432 3.00858 67.2942 14.6453 67.2071 18.8368C67.1201 23.0282 68.9605 25.9528 67.2071 29.2122C65.4538 32.4716 59.9848 39.7159 59.7177 43.0423C59.0907 50.9899 59.7235 63.9215 59.7235 71.2384H47.7173C47.7173 62.7271 47.7753 54.3721 47.7753 45.9222L47.7695 45.911Z"
        fill="url(#paint1_linear_738_54900)" fill-rule="evenodd" />
    <path clip-rule="evenodd"
        d="M90.5464 5.32443C92.7468 8.52244 94.1285 12.3344 95.9573 14.2208C100.596 19.0095 103.4 23.1339 104.451 27.6547C104.718 28.7932 105.136 30.2778 105.624 31.9131C104.155 28.5142 101.531 26.5775 99.7543 24.4399C97.5423 21.7777 94.2214 16.9947 94.1517 13.7353C94.0879 10.6935 90.9644 5.93278 90.5522 5.31885L90.5464 5.32443ZM106.46 34.6925L106.826 35.8981C106.686 35.6413 106.564 35.2451 106.46 34.6925Z"
        fill="#555555" fill-rule="evenodd" />
    <path clip-rule="evenodd"
        d="M88.1251 9.57171L88.1077 9.49358C88.1077 9.49358 88.1251 9.54381 88.1251 9.57171ZM87.9858 8.88523C87.5213 5.97744 88.4503 2.9971 81.466 2.9971C78.3947 2.9971 75.7009 4.50401 73.5005 6.62486C73.5005 6.62486 74.8765 3.82869 79.5152 2.56176C84.1482 1.30042 87.9916 3.22592 88.369 4.32541C88.6999 5.27421 87.8929 7.47319 87.9858 8.88523Z"
        fill="#333333" fill-rule="evenodd" />
    <path clip-rule="evenodd"
        d="M109.183 61.365C109.148 64.6634 109.107 67.9619 109.107 71.2213H97.1011C97.1011 70.0827 97.1417 66.9685 97.1417 63.0728C97.7571 64.5016 99.0866 66.2652 101.984 66.935C106.123 67.8893 108.387 63.7091 109.189 61.365H109.183Z"
        fill="url(#paint2_linear_738_54900)" fill-rule="evenodd" />
    <path clip-rule="evenodd"
        d="M59.5784 62.5593C59.648 65.802 59.7177 68.8158 59.7177 71.2269H47.7114C47.7114 68.2298 47.7172 65.2495 47.7288 62.2803C48.1643 63.7649 49.3893 66.1424 52.8553 66.9406C56.3504 67.7498 58.5101 64.8867 59.5842 62.5649L59.5784 62.5593Z"
        fill="url(#paint3_linear_738_54900)" fill-rule="evenodd" />
    <path clip-rule="evenodd"
        d="M48.5069 61.5324C48.1644 61.5324 48.1644 62.0347 48.5069 62.0347H49.5519C49.8945 62.0347 49.8945 61.5268 49.5519 61.5268H48.5069V61.5324ZM57.3955 62.0068C57.738 62.0068 57.738 61.5045 57.3955 61.5045H56.3505C56.0079 61.5045 56.0079 62.0124 56.3505 62.0124H57.3955V62.0068ZM54.7829 62.0068C55.1254 62.0068 55.1254 61.5045 54.7829 61.5045H53.7379C53.3953 61.5045 53.3953 62.0124 53.7379 62.0124H54.7829V62.0068ZM52.1703 62.0068C52.5129 62.0068 52.5129 61.5045 52.1703 61.5045H51.1253C50.7827 61.5045 50.7827 62.0124 51.1253 62.0124H52.1703V62.0068Z"
        fill="black" fill-rule="evenodd" />
    <path clip-rule="evenodd"
        d="M48.5069 69.5302C48.1644 69.5302 48.1644 70.0325 48.5069 70.0325H49.5519C49.8945 70.0325 49.8945 69.5246 49.5519 69.5246H48.5069V69.5302ZM57.3955 70.0046C57.738 70.0046 57.738 69.5023 57.3955 69.5023H56.3505C56.0079 69.5023 56.0079 70.0102 56.3505 70.0102H57.3955V70.0046ZM54.7829 70.0046C55.1254 70.0046 55.1254 69.5023 54.7829 69.5023H53.7379C53.3953 69.5023 53.3953 70.0102 53.7379 70.0102H54.7829V70.0046ZM52.1703 70.0046C52.5129 70.0046 52.5129 69.5023 52.1703 69.5023H51.1253C50.7827 69.5023 50.7827 70.0102 51.1253 70.0102H52.1703V70.0046Z"
        fill="black" fill-rule="evenodd" />
    <path clip-rule="evenodd"
        d="M98.6397 61.5324C98.2972 61.5324 98.2972 62.0347 98.6397 62.0347H99.6848C100.027 62.0347 100.027 61.5268 99.6848 61.5268H98.6397V61.5324ZM107.528 62.0068C107.871 62.0068 107.871 61.5045 107.528 61.5045H106.483C106.141 61.5045 106.141 62.0124 106.483 62.0124H107.528V62.0068ZM104.916 62.0068C105.258 62.0068 105.258 61.5045 104.916 61.5045H103.871C103.528 61.5045 103.528 62.0124 103.871 62.0124H104.916V62.0068ZM102.303 62.0068C102.646 62.0068 102.646 61.5045 102.303 61.5045H101.258C100.916 61.5045 100.916 62.0124 101.258 62.0124H102.303V62.0068Z"
        fill="black" fill-rule="evenodd" />
    <path clip-rule="evenodd"
        d="M98.6397 69.5302C98.2972 69.5302 98.2972 70.0325 98.6397 70.0325H99.6848C100.027 70.0325 100.027 69.5246 99.6848 69.5246H98.6397V69.5302ZM107.528 70.0046C107.871 70.0046 107.871 69.5023 107.528 69.5023H106.483C106.141 69.5023 106.141 70.0102 106.483 70.0102H107.528V70.0046ZM104.916 70.0046C105.258 70.0046 105.258 69.5023 104.916 69.5023H103.871C103.528 69.5023 103.528 70.0102 103.871 70.0102H104.916V70.0046ZM102.303 70.0046C102.646 70.0046 102.646 69.5023 102.303 69.5023H101.258C100.916 69.5023 100.916 70.0102 101.258 70.0102H102.303V70.0046Z"
        fill="black" fill-rule="evenodd" />
    <path clip-rule="evenodd"
        d="M65.6223 15.6328C65.6223 15.6328 63.2013 20.0866 61.2622 23.413C59.3231 26.7394 56.008 31.9913 54.8991 31.595C53.7902 31.1987 56.5595 26.0752 58.9109 23.2846C61.2622 20.494 65.6223 15.6384 65.6223 15.6384V15.6328Z"
        fill="#555555" fill-rule="evenodd" />
    <path clip-rule="evenodd"
        d="M65.9007 21.0187C65.9007 21.0187 65.6917 25.4055 65.1402 27.9337C64.5886 30.462 63.6191 31.8573 62.3709 32.5884C61.1284 33.3196 61.7496 29.7979 63.1314 27.2026C64.5132 24.6074 65.9007 21.0187 65.9007 21.0187Z"
        fill="#555555" fill-rule="evenodd" />
    <path clip-rule="evenodd"
        d="M50.2891 40.4132C51.5025 40.4077 53.6448 40.8318 55.3749 40.603C57.105 40.3742 58.9048 40.3853 58.5913 41.976C58.2778 43.5666 58.8409 43.5945 55.9323 44.694C53.0236 45.7935 50.1498 45.8102 49.5634 44.694C48.977 43.5778 48.6693 40.1732 50.2891 40.4188V40.4132Z"
        fill="#808080" fill-rule="evenodd" opacity="0.5" />
    <path clip-rule="evenodd"
        d="M50.7828 41.7639C51.8278 41.7639 53.674 41.9592 55.1661 41.8532C56.6582 41.7472 58.2083 41.7527 57.9412 42.5006C57.6742 43.2485 58.156 43.2597 55.648 43.7787C53.1399 44.2977 50.6666 44.3033 50.1615 43.7787C49.6564 43.2541 49.3952 41.6523 50.7886 41.7695L50.7828 41.7639Z"
        fill="#808080" fill-rule="evenodd" opacity="0.5" />
    <path clip-rule="evenodd"
        d="M106.129 40.4132C104.916 40.4077 102.773 40.8318 101.043 40.603C99.3131 40.3742 97.5133 40.3853 97.8268 41.976C98.1404 43.5666 97.5772 43.5945 100.486 44.694C103.395 45.7935 106.268 45.8102 106.855 44.694C107.441 43.5778 107.749 40.1732 106.129 40.4188V40.4132Z"
        fill="#808080" fill-rule="evenodd" opacity="0.5" />
    <path clip-rule="evenodd"
        d="M105.635 41.7639C104.59 41.7639 102.744 41.9592 101.252 41.8532C99.7599 41.7472 98.2098 41.7527 98.4826 42.5006C98.7497 43.2485 98.2678 43.2597 100.776 43.7787C103.284 44.2977 105.757 44.3033 106.262 43.7787C106.767 43.2541 107.034 41.6523 105.635 41.7695V41.7639Z"
        fill="#808080" fill-rule="evenodd" opacity="0.5" />
    <path clip-rule="evenodd"
        d="M73.3847 5.13469C73.3847 5.13469 76.5546 2.37201 80.5257 1.90877C84.491 1.44553 85.9773 2.37201 86.494 2.39433C87.0107 2.41666 83.8524 -1.17762 78.5053 0.725562C73.1582 2.62874 71.3352 6.11697 73.3905 5.13469H73.3847Z"
        fill="#696969" fill-rule="evenodd" />
    <path clip-rule="evenodd"
        d="M89.6462 8.6843C90.128 9.87867 91.3066 11.3465 91.2369 13.339C91.1673 15.3315 89.9945 19.9917 91.5853 24.1106C93.1761 28.2351 95.7364 32.7559 95.7364 34.486C95.7364 36.2162 88.9553 26.304 89.0249 21.2531C89.0946 16.1965 91.0337 13.7073 89.6462 8.6843Z"
        fill="#555555" fill-rule="evenodd" />
    <path clip-rule="evenodd"
        d="M5.17851 98.5188C4.28442 101.326 3.5529 103.732 4.08122 104.44C4.27862 104.703 14.6825 100.238 18.1195 99.1048C21.5217 97.9886 25.1328 96.7998 28.9124 96.504C32.7441 96.2082 38.3409 97.5421 45.5168 99.2555C57.5056 102.119 74.3481 106.137 91.2021 104.502C99.0341 103.743 135.012 101.661 145.283 96.2752C146.391 95.6891 147.21 95.0696 147.645 94.4055C148.894 92.519 149.306 90.1582 149.312 87.909C149.637 86.497 149.857 84.9231 149.892 83.1985C151.001 85.5426 152.168 89.1871 151.965 93.9311C151.053 115.34 106.732 113.063 92.2181 114.475C73.5701 116.284 55.7175 112.025 43.0203 108.995C36.7907 107.504 31.9255 106.349 29.7252 106.517C27.2229 106.712 24.2562 107.689 21.4636 108.604C14.9554 110.742 9.06835 112.678 4.52826 108.576C2.22919 104.803 5.1727 98.5188 5.1727 98.5188H5.17851Z"
        fill="url(#paint4_linear_738_54900)" fill-rule="evenodd" />
    <path clip-rule="evenodd"
        d="M137.776 98.8258C140.882 98.0723 143.489 97.2295 145.294 96.2807C146.403 95.6947 147.222 95.0752 147.657 94.4111C148.905 92.5246 149.318 90.1638 149.323 87.9146C149.649 86.5025 149.869 84.9287 149.904 83.2041C150.723 84.9342 151.57 87.3732 151.878 90.4373C151.228 92.2735 150.363 94.0204 149.26 95.0641C146.525 97.6593 137.77 98.8313 137.77 98.8313L137.776 98.8258Z"
        fill="#4E4E4E" fill-rule="evenodd" />
    <path clip-rule="evenodd"
        d="M50.0686 99.01L45.0873 108.487C44.6867 109.246 44.6518 110.094 44.9073 110.842C45.1627 111.601 45.7201 112.26 46.5097 112.645L49.8944 114.286C50.684 114.671 51.5665 114.704 52.3502 114.459C53.134 114.207 53.8191 113.677 54.2197 112.918L59.201 103.441C59.6016 102.682 59.6364 101.834 59.381 101.081C59.1255 100.322 58.5682 99.663 57.7786 99.2779L54.3939 97.637C53.6043 97.2519 52.7218 97.2184 51.9438 97.464C51.1601 97.7151 50.475 98.2454 50.0744 99.0044L50.0686 99.01ZM46.9567 109.397L51.938 99.9197C52.0774 99.6574 52.3154 99.4676 52.5883 99.3783C52.8612 99.2946 53.1689 99.3058 53.4417 99.4397L56.8265 101.081C57.0993 101.215 57.2967 101.443 57.3896 101.706C57.4767 101.974 57.4651 102.269 57.3258 102.532L52.3444 112.009C52.2051 112.271 51.9671 112.461 51.6942 112.55C51.4213 112.634 51.1136 112.622 50.8408 112.488L47.456 110.848C47.1831 110.714 46.9857 110.485 46.8929 110.223C46.8058 109.955 46.8174 109.659 46.9567 109.397Z"
        fill="#989898" fill-rule="evenodd" />
    <path clip-rule="evenodd"
        d="M51.526 99.5178C51.7002 99.1886 51.5608 98.7811 51.2183 98.6137C50.8758 98.4463 50.4519 98.5802 50.2778 98.9095L45.4009 108.185C44.5185 109.86 44.7681 111.674 46.7943 112.611C47.1427 112.773 47.5549 112.634 47.7232 112.299C47.8916 111.964 47.7465 111.568 47.3981 111.406C46.1034 110.809 46.295 109.609 46.3647 109.33L51.526 99.5123V99.5178Z"
        fill="#B2B2B2" fill-rule="evenodd" />
    <path clip-rule="evenodd"
        d="M51.7812 100.215L46.9567 109.391C46.8173 109.659 46.7999 109.949 46.8928 110.211C46.9044 110.25 46.916 110.278 46.9334 110.312C48.6345 110.965 50.3704 111.629 52.1238 112.299C52.2108 112.215 52.2921 112.12 52.3502 112.008L57.3315 102.532C57.378 102.442 57.4128 102.347 57.4302 102.247C57.465 102.063 57.4534 101.879 57.3954 101.706C57.3025 101.438 57.1109 101.209 56.838 101.075L53.4533 99.4341C53.1804 99.3002 52.8727 99.2834 52.5998 99.3727C52.327 99.462 52.0889 99.6462 51.9496 99.9141L51.7928 100.215H51.7812Z"
        fill="url(#paint5_linear_738_54900)" fill-rule="evenodd" />
    <defs>
        <linearGradient gradientUnits="userSpaceOnUse" id="paint0_linear_738_54900" x1="21.8586"
            x2="4.60956" y1="79.6154" y2="78.4864">
            <stop stop-color="#151A1D" />
            <stop offset="0.5" stop-color="#383C3D" />
            <stop offset="1" />
        </linearGradient>
        <linearGradient gradientUnits="userSpaceOnUse" id="paint1_linear_738_54900" x1="80.1191"
            x2="78.3216" y1="12.3794" y2="65.7515">
            <stop stop-color="#4B4E4F" />
            <stop offset="0.45" stop-color="#5C5F60" />
            <stop offset="1" stop-color="#2A2E30" />
        </linearGradient>
        <linearGradient gradientUnits="userSpaceOnUse" id="paint2_linear_738_54900" x1="102.32"
            x2="103.405" y1="55.2759" y2="71.0655">
            <stop stop-color="#7B7E7F" />
            <stop offset="0.33" stop-color="#47484B" />
            <stop offset="0.62" stop-color="#202125" />
            <stop offset="0.86" stop-color="#08080D" />
            <stop offset="1" stop-color="#000005" />
        </linearGradient>
        <linearGradient gradientUnits="userSpaceOnUse" id="paint3_linear_738_54900" x1="52.8669"
            x2="53.8437" y1="55.4936" y2="71.0477">
            <stop stop-color="#7B7E7F" />
            <stop offset="0.33" stop-color="#47484B" />
            <stop offset="0.62" stop-color="#202125" />
            <stop offset="0.86" stop-color="#08080D" />
            <stop offset="1" stop-color="#000005" />
        </linearGradient>
        <linearGradient gradientUnits="userSpaceOnUse" id="paint4_linear_738_54900" x1="107.267"
            x2="29.0936" y1="107.091" y2="76.6053">
            <stop stop-color="#151A1D" />
            <stop offset="0.5" stop-color="#383C3D" />
            <stop offset="1" />
        </linearGradient>
        <linearGradient gradientUnits="userSpaceOnUse" id="paint5_linear_738_54900" x1="53.8306"
            x2="50.3698" y1="106.522" y2="104.826">
            <stop stop-color="#151A1D" />
            <stop offset="0.45" stop-color="#383C3D" />
            <stop offset="1" />
        </linearGradient>
    </defs>
</svg>