<?xml version="1.0" encoding="utf-8"?>
<svg xmlns:xlink="http://www.w3.org/1999/xlink" height="14px" version="1.1" viewBox="0 0 14 14"
    width="14px" xmlns="http://www.w3.org/2000/svg">
    <defs>
        <rect height="13.606445" id="artboard_1" width="13.606567" />
        <clipPath id="clip_1">
            <use clip-rule="evenodd" xlink:href="#artboard_1" />
        </clipPath>
    </defs>
    <g clip-path="url(#clip_1)" id="ic_close">
        <path
            d="M13.168 0.440047L13.1666 0.438633Q13.0622 0.334236 12.9394 0.252213Q12.8166 0.170189 12.6802 0.11369Q12.5438 0.0571916 12.399 0.0283887Q12.2542 -0.000414169 12.1066 -0.000414169Q11.959 -0.000414169 11.8142 0.0283887Q11.6694 0.0571916 11.533 0.11369Q11.3966 0.170189 11.2738 0.252213Q11.151 0.334236 11.0466 0.438633L6.8033 4.68198L2.55995 0.438633Q2.50788 0.386561 2.45096 0.339843Q2.39403 0.293126 2.3328 0.252213Q2.27157 0.2113 2.20662 0.176586Q2.14168 0.141872 2.07364 0.11369Q2.00561 0.0855092 1.93514 0.0641323Q1.86467 0.0427554 1.79244 0.0283887Q1.72022 0.014022 1.64693 0.00680393Q1.57364 -0.000414169 1.5 -0.000414169Q1.42636 -0.000414169 1.35307 0.00680393Q1.27979 0.014022 1.20756 0.0283887Q1.13533 0.0427554 1.06486 0.0641323Q0.994394 0.0855092 0.926359 0.11369Q0.858323 0.141872 0.793377 0.176586Q0.728432 0.2113 0.667201 0.252213Q0.605971 0.293126 0.549046 0.339843Q0.49212 0.386561 0.440048 0.438633L0.438634 0.440047Q0.334238 0.544443 0.252214 0.6672Q0.17019 0.789957 0.113691 0.926358Q0.0571926 1.06276 0.0283897 1.20756Q-0.000413135 1.35236 -0.000413139 1.5Q-0.000413143 1.64764 0.0283897 1.79244Q0.0571926 1.93724 0.113691 2.07364Q0.17019 2.21004 0.252214 2.3328Q0.334238 2.45556 0.438634 2.55995L4.68198 6.8033L0.438633 11.0466Q0.386561 11.0987 0.339843 11.1556Q0.293126 11.2126 0.252213 11.2738Q0.2113 11.335 0.176586 11.4Q0.141872 11.4649 0.113691 11.533Q0.0855095 11.601 0.0641326 11.6715Q0.0427557 11.7419 0.028389 11.8142Q0.0140223 11.8864 0.00680426 11.9597Q-0.000413837 12.033 -0.000413837 12.1066Q-0.000413837 12.1802 0.00680426 12.2535Q0.0140223 12.3268 0.028389 12.399Q0.0427557 12.4713 0.0641326 12.5417Q0.0855095 12.6122 0.113691 12.6802Q0.141872 12.7483 0.176586 12.8132Q0.2113 12.8782 0.252213 12.9394Q0.293126 13.0006 0.339843 13.0576Q0.386561 13.1145 0.438633 13.1666L0.440047 13.168Q0.492119 13.22 0.549045 13.2668Q0.60597 13.3135 0.6672 13.3544Q0.728431 13.3953 0.793376 13.43Q0.858322 13.4647 0.926358 13.4929Q0.994393 13.5211 1.06486 13.5425Q1.13533 13.5638 1.20756 13.5782Q1.27979 13.5926 1.35307 13.5998Q1.42636 13.607 1.5 13.607Q1.57364 13.607 1.64693 13.5998Q1.72021 13.5926 1.79244 13.5782Q1.86467 13.5638 1.93514 13.5425Q2.00561 13.5211 2.07364 13.4929Q2.14168 13.4647 2.20662 13.43Q2.27157 13.3953 2.3328 13.3544Q2.39403 13.3135 2.45096 13.2668Q2.50788 13.22 2.55995 13.168L6.8033 8.92462L11.0467 13.168Q11.0987 13.22 11.1556 13.2668Q11.2126 13.3135 11.2738 13.3544Q11.335 13.3953 11.4 13.43Q11.4649 13.4647 11.533 13.4929Q11.601 13.5211 11.6715 13.5425Q11.7419 13.5638 11.8142 13.5782Q11.8864 13.5926 11.9597 13.5998Q12.033 13.607 12.1066 13.607Q12.1802 13.607 12.2535 13.5998Q12.3268 13.5926 12.399 13.5782Q12.4713 13.5638 12.5417 13.5425Q12.6122 13.5211 12.6802 13.4929Q12.7483 13.4647 12.8132 13.43Q12.8782 13.3953 12.9394 13.3544Q13.0006 13.3135 13.0576 13.2668Q13.1145 13.22 13.1666 13.168L13.168 13.1666Q13.22 13.1145 13.2668 13.0576Q13.3135 13.0006 13.3544 12.9394Q13.3953 12.8782 13.43 12.8132Q13.4647 12.7483 13.4929 12.6802Q13.5211 12.6122 13.5425 12.5417Q13.5638 12.4713 13.5782 12.399Q13.5926 12.3268 13.5998 12.2535Q13.607 12.1802 13.607 12.1066Q13.607 12.033 13.5998 11.9597Q13.5926 11.8864 13.5782 11.8142Q13.5638 11.7419 13.5425 11.6715Q13.5211 11.601 13.4929 11.533Q13.4647 11.4649 13.43 11.4Q13.3953 11.335 13.3544 11.2738Q13.3135 11.2126 13.2668 11.1556Q13.22 11.0987 13.168 11.0466L8.92462 6.8033L13.168 2.55995Q13.2724 2.45556 13.3544 2.3328Q13.4364 2.21004 13.4929 2.07364Q13.5494 1.93724 13.5782 1.79244Q13.607 1.64764 13.607 1.5Q13.607 1.35236 13.5782 1.20756Q13.5494 1.06276 13.4929 0.926358Q13.4364 0.789957 13.3544 0.6672Q13.2724 0.544443 13.168 0.440047Z"
            fill="#5A5A5A" fill-rule="evenodd" id="Combined-Shape" stroke="none" />
    </g>
</svg>