<?xml version="1.0" encoding="utf-8"?>
<svg height="55px" version="1.1" viewBox="0 0 59 55" width="59px"
    xmlns="http://www.w3.org/2000/svg">
    <defs>
        <filter id="filter_1">
            <feColorMatrix in="SourceGraphic" type="matrix"
                values="0 0 0 0 0.8666667 0 0 0 0 0.62352943 0 0 0 0 0.22745098 0 0 0 1 0" />
        </filter>
    </defs>
    <g id="coins-2" transform="translate(0.5 0.5)">
        <g id="Group-8" transform="matrix(1 0 0 1 0 -3.5527137E-15)">
            <g id="coins" transform="matrix(1 0 0 1 0 -3.5527137E-15)">
                <g id="Group" transform="translate(0 10.800357)">
                    <path
                        d="M41.8442 2.68207L41.8442 8.11599C41.8442 9.59795 40.6565 10.7992 39.1912 10.7992L7.41867 10.7992C5.95338 10.7992 4.76562 9.59795 4.76562 8.11599L4.76562 2.68207C4.76562 1.20126 5.95338 0 7.41867 0L39.1911 0C40.6565 1.62813e-15 41.8442 1.20126 41.8442 2.68207Z"
                        fill="#DD9F3A" id="Path" stroke="none" />
                    <path
                        d="M37.0786 13.4822L37.0786 18.9161C37.0786 20.3981 35.8909 21.5993 34.4256 21.5993L2.65304 21.5993C1.18775 21.5993 0 20.3981 0 18.9161L0 13.4822C0 12.0014 1.18775 10.8001 2.65304 10.8001L34.4255 10.8001C35.8909 10.8001 37.0786 12.0014 37.0786 13.4822Z"
                        fill="#DD9F3A" id="Path" stroke="none" />
                    <path
                        d="M38.8657 24.2821L38.8657 29.716C38.8657 31.198 37.678 32.3992 36.2127 32.3992L4.44017 32.3992C2.97488 32.3992 1.78712 31.198 1.78712 29.716L1.78712 24.2821C1.78712 22.8013 2.97488 21.6 4.44017 21.6L36.2126 21.6C37.678 21.6 38.8657 22.8013 38.8657 24.2821Z"
                        fill="#DD9F3A" id="Path" stroke="none" />
                    <path
                        d="M37.0786 35.0822L37.0786 40.5161C37.0786 41.9981 35.8909 43.1994 34.4256 43.1994L2.65304 43.1994C1.18775 43.1994 0 41.9981 0 40.5161L0 35.0822C0 33.6014 1.18775 32.4002 2.65304 32.4002L34.4255 32.4002C35.8909 32.4002 37.0786 33.6014 37.0786 35.0822Z"
                        fill="#DD9F3A" id="Path" stroke="none" />
                </g>
                <path
                    d="M37.0788 45.8827L37.0788 49.6298C37.0788 51.0154 36.0401 52.1564 34.707 52.2986C34.6141 52.3082 34.5211 52.313 34.4258 52.313L9.18291 52.313C7.71875 52.313 6.531 51.1118 6.531 49.6298L6.531 45.8827C6.531 44.4019 7.71875 43.2006 9.18291 43.2006L34.4258 43.2006C35.8911 43.2006 37.0788 44.4019 37.0788 45.8827Z"
                    fill="#F4B74A" id="SVGCleanerId_0" stroke="none" />
                <path
                    d="M37.0788 45.8827L37.0788 49.6298C37.0788 51.0154 36.0401 52.1564 34.707 52.2986C34.6141 52.3082 34.5211 52.313 34.4258 52.313L9.18291 52.313C7.71875 52.313 6.531 51.1118 6.531 49.6298L6.531 45.8827C6.531 44.4019 7.71875 43.2006 9.18291 43.2006L34.4258 43.2006C35.8911 43.2006 37.0788 44.4019 37.0788 45.8827Z"
                    fill="#F4B74A" id="SVGCleanerId_0_1_" stroke="none" />
                <g id="Group" transform="translate(6.530885 10.800587)">
                    <path
                        d="M30.5478 24.2818L30.5478 28.0289C30.5478 29.4145 29.5091 30.5555 28.176 30.6977C28.0831 30.7073 27.9901 30.7121 27.8948 30.7121L2.65191 30.7121C1.18775 30.7121 1.60982e-15 29.5108 1.60982e-15 28.0289L1.60982e-15 24.2818C1.60982e-15 22.8009 1.18775 21.5997 2.65191 21.5997L27.8948 21.5997C29.3602 21.5996 30.5478 22.8008 30.5478 24.2818Z"
                        fill="#F4B74A" id="Path" stroke="none" />
                    <path
                        d="M30.5478 13.4825L30.5478 17.2297C30.5478 18.6153 29.5091 19.7563 28.176 19.8984C28.0831 19.9081 27.9901 19.9129 27.8948 19.9129L2.65191 19.9129C1.18775 19.9129 1.60982e-15 18.7116 1.60982e-15 17.2297L1.60982e-15 13.4825C1.60982e-15 12.0017 1.18775 10.8005 2.65191 10.8005L27.8948 10.8005C29.3602 10.8005 30.5478 12.0017 30.5478 13.4825Z"
                        fill="#F4B74A" id="Path" stroke="none" />
                    <path
                        d="M35.3131 2.68207L35.3131 6.42918C35.3131 7.81479 34.2743 8.95579 32.9413 9.09797C32.8484 9.10759 32.7554 9.1124 32.6601 9.1124L7.4172 9.1124C5.95304 9.1124 4.76529 7.91114 4.76529 6.42918L4.76529 2.68207C4.76529 1.20126 5.95304 3.25626e-15 7.4172 3.25626e-15L32.6601 3.25626e-15C34.1255 6.51253e-15 35.3131 1.20126 35.3131 2.68207Z"
                        fill="#F4B74A" id="Path" stroke="none" />
                </g>
                <g id="Group" transform="translate(0 0.0002291391)">
                    <path
                        d="M37.0787 45.8826L37.0787 51.3165C37.0787 52.7021 36.0399 53.8431 34.7069 53.9853C34.465 53.9949 34.2231 53.9997 33.9813 53.9997C31.4176 53.9997 28.8538 53.4659 26.4664 52.3961C24.8641 51.6792 23.344 50.7202 21.9549 49.5213C21.5832 49.2009 21.2235 48.8635 20.8721 48.5092C19.3031 46.9224 18.0748 45.1223 17.1861 43.2005L34.4257 43.2005C35.891 43.2005 37.0787 44.4018 37.0787 45.8826Z"
                        fill="#DD9F3A" id="Path" stroke="none" />
                    <path
                        d="M37.0787 35.0821L37.0787 40.516C37.0787 41.998 35.891 43.1992 34.4257 43.1992L18.9707 43.1992C17.4018 39.8075 16.8919 36.0375 17.4422 32.4L34.4257 32.4C35.891 32.3999 37.0787 33.6013 37.0787 35.0821Z"
                        fill="#DD9F3A" id="Path" stroke="none" />
                    <path
                        d="M37.0786 2.68207L37.0786 8.11599C37.0786 9.59795 35.8909 10.7992 34.4256 10.7992L2.65304 10.7992C1.18775 10.7993 0 9.59806 0 8.11611L0 2.68207C0 1.20126 1.18775 1.2211e-15 2.65304 1.2211e-15L34.4255 1.2211e-15C35.8909 0.00011457 37.0786 1.20138 37.0786 2.68207Z"
                        fill="#DD9F3A" id="Path" stroke="none" />
                </g>
                <path
                    d="M37.0788 2.68207L37.0788 6.42918C37.0788 7.81479 36.0401 8.95579 34.707 9.09797C34.6141 9.10759 34.5211 9.1124 34.4258 9.1124L9.18291 9.1124C7.71875 9.1124 6.531 7.91114 6.531 6.42918L6.531 2.68207C6.531 1.20126 7.71875 1.62813e-15 9.18291 1.62813e-15L34.4258 1.62813e-15C35.8911 0.00011457 37.0788 1.20138 37.0788 2.68207Z"
                    fill="#F4B74A" id="Path" stroke="none" />
                <g id="Group" transform="translate(24.021723 0.00011456955)">
                    <path d="M4.80459 0L8.69546 0L8.69546 9.1124L4.80459 9.1124L4.80459 0Z"
                        fill="#F9C662" id="Rectangle" stroke="none" />
                    <path
                        d="M-3.21964e-15 0L1.94538 0L1.94538 9.1124L-3.21964e-15 9.1124L-3.21964e-15 0Z"
                        fill="#F9C662" id="Rectangle" stroke="none" />
                    <path
                        d="M9.49126 10.8008L13.3826 10.8008L13.3826 21.6013L9.49126 21.6013L9.49126 10.8008Z"
                        fill="#F9C662" id="Rectangle" stroke="none" />
                    <path
                        d="M4.68554 10.8008L6.63125 10.8008L6.63125 21.6013L4.68554 21.6013L4.68554 10.8008Z"
                        fill="#F9C662" id="Rectangle" stroke="none" />
                </g>
                <g id="Group" transform="translate(15.65523 16.501245)">
                    <path
                        d="M26.1888 0.659898L26.1888 2.41545C26.1888 3.8974 25.001 5.09867 23.5357 5.09867L8.59532 5.09867C13.4428 0.476587 20.15 -1.00285 26.1888 0.659898Z"
                        fill="#DD9F3A" id="Path" stroke="none" />
                    <path
                        d="M21.4235 7.78189L21.4235 13.2158C21.4235 14.6978 20.2358 15.899 18.7705 15.899L-3.21964e-15 15.899C0.575355 12.0892 2.31479 8.42519 5.21558 5.49141C5.34778 5.35771 5.48122 5.22756 5.61591 5.09981L18.7705 5.09981C20.2358 5.09981 21.4235 6.30107 21.4235 7.78189Z"
                        fill="#DD9F3A" id="Path" stroke="none" />
                </g>
                <path
                    d="M52.5705 48.5088C46.9939 54.1478 38.7501 55.4441 31.947 52.396C30.3447 51.6789 28.8238 50.7207 27.4355 49.5217C27.0637 49.2014 26.703 48.8631 26.3517 48.5088C19.1121 41.1859 19.1121 29.3146 26.3517 21.9917C33.5922 14.6698 45.33 14.6698 52.5705 21.9917C52.9218 22.347 53.2553 22.7118 53.572 23.0878C54.7576 24.491 55.705 26.0301 56.414 27.6507C59.4279 34.5302 58.1461 42.8688 52.5705 48.5088Z"
                    fill="#F4B74A" id="Path" stroke="none" />
                <path
                    d="M56.4139 27.6507L31.947 52.396C30.3447 51.6789 28.8238 50.7207 27.4354 49.5217L53.572 23.0878C54.7575 24.491 55.7049 26.0302 56.4139 27.6507Z"
                    fill="#F9C662" id="Path" stroke="none" />
                <path
                    d="M52.5704 35.2503C52.5704 42.5727 46.7011 48.5086 39.4612 48.5086C35.3743 48.5086 31.7248 46.6179 29.3202 43.6532C27.4647 41.3659 26.3519 38.4395 26.3519 35.2503C26.3519 27.9279 32.2212 21.992 39.4612 21.992C42.6151 21.992 45.5088 23.119 47.7702 24.9958C50.7008 27.4267 52.5704 31.1179 52.5704 35.2503Z"
                    fill="#FFD488" id="Path" stroke="none" />
                <path
                    d="M47.7702 24.9956L29.3218 43.6539L29.3201 43.6531C28.7785 42.9857 28.3002 42.2633 27.8951 41.4962C27.4333 40.6243 27.066 39.6951 26.8055 38.7202C26.5097 37.614 26.3518 36.4503 26.3518 35.2502C26.3518 27.9278 32.2211 21.9919 39.461 21.9919C40.6486 21.9919 41.799 22.1513 42.892 22.4507C43.856 22.7142 44.7747 23.0866 45.6368 23.5537C46.3954 23.9635 47.1096 24.448 47.7702 24.9956Z"
                    fill="#F9C662" id="Path" stroke="none" />
                <path
                    d="M45.6369 23.5537L27.8953 41.4963C27.4334 40.6244 27.0662 39.6953 26.8056 38.7203L42.8922 22.4507C43.856 22.7142 44.7748 23.0866 45.6369 23.5537Z"
                    fill="#FFD488" id="Path" stroke="none" />
            </g>
            <g filter="url(#filter_1)" id="Group-17" transform="translate(33 29)">
                <path
                    d="M0 0L7.08433 0Q7.26851 0 7.4518 0.0180525Q7.63509 0.0361049 7.81573 0.072036Q7.99636 0.107967 8.17261 0.161431Q8.34886 0.214894 8.51901 0.285376Q8.68917 0.355857 8.8516 0.442677Q9.01403 0.529497 9.16716 0.63182Q9.3203 0.734143 9.46267 0.850984Q9.60504 0.967824 9.73528 1.09806Q9.86551 1.22829 9.98235 1.37066Q10.0992 1.51303 10.2015 1.66617Q10.3038 1.8193 10.3907 1.98173Q10.4775 2.14416 10.548 2.31432Q10.6184 2.48448 10.6719 2.66072Q10.7254 2.83697 10.7613 3.01761Q10.7972 3.19824 10.8153 3.38153Q10.8333 3.56482 10.8333 3.749L10.8333 3.751Q10.8333 3.93518 10.8153 4.11847Q10.7972 4.30176 10.7613 4.48239Q10.7254 4.66303 10.6719 4.83928Q10.6184 5.01552 10.548 5.18568Q10.4775 5.35584 10.3907 5.51827Q10.3038 5.6807 10.2015 5.83383Q10.0992 5.98697 9.98235 6.12934Q9.86551 6.27171 9.73528 6.40194Q9.60504 6.53218 9.46267 6.64902Q9.3203 6.76586 9.16716 6.86818Q9.01403 6.9705 8.8516 7.05732Q8.68917 7.14414 8.51901 7.21462Q8.34886 7.28511 8.17261 7.33857Q7.99636 7.39203 7.81573 7.42796Q7.63509 7.46389 7.4518 7.48195Q7.26851 7.5 7.08433 7.5L0 7.5L0 0Z"
                    fill="#DD9F3A" fill-rule="evenodd" id="Rectangle" stroke="none" />
                <path
                    d="M0 6L8.501 6Q8.61144 6 8.72176 6.00542Q8.83207 6.01084 8.94198 6.02166Q9.05189 6.03249 9.16114 6.04869Q9.27039 6.0649 9.37871 6.08645Q9.48703 6.10799 9.59417 6.13483Q9.7013 6.16166 9.80699 6.19373Q9.91268 6.22579 10.0167 6.26299Q10.1207 6.3002 10.2227 6.34247Q10.3247 6.38473 10.4246 6.43195Q10.5244 6.47917 10.6218 6.53124Q10.7192 6.5833 10.8139 6.64008Q10.9087 6.69686 11.0005 6.75822Q11.0923 6.81958 11.181 6.88537Q11.2698 6.95116 11.3551 7.02123Q11.4405 7.09129 11.5223 7.16546Q11.6042 7.23963 11.6823 7.31773Q11.7604 7.39582 11.8345 7.47766Q11.9087 7.55949 11.9788 7.64486Q12.0488 7.73024 12.1146 7.81895Q12.1804 7.90766 12.2418 7.99949Q12.3031 8.09132 12.3599 8.18605Q12.4167 8.28078 12.4688 8.37819Q12.5208 8.47559 12.568 8.57543Q12.6153 8.67527 12.6575 8.77731Q12.6998 8.87934 12.737 8.98333Q12.7742 9.08732 12.8063 9.19301Q12.8383 9.2987 12.8652 9.40583Q12.892 9.51297 12.9136 9.62129Q12.9351 9.72961 12.9513 9.83886Q12.9675 9.94811 12.9783 10.058Q12.9892 10.1679 12.9946 10.2782Q13 10.3886 13 10.499L13 10.501Q13 10.6114 12.9946 10.7218Q12.9892 10.8321 12.9783 10.942Q12.9675 11.0519 12.9513 11.1611Q12.9351 11.2704 12.9136 11.3787Q12.892 11.487 12.8652 11.5942Q12.8383 11.7013 12.8063 11.807Q12.7742 11.9127 12.737 12.0167Q12.6998 12.1207 12.6575 12.2227Q12.6153 12.3247 12.568 12.4246Q12.5208 12.5244 12.4688 12.6218Q12.4167 12.7192 12.3599 12.8139Q12.3031 12.9087 12.2418 13.0005Q12.1804 13.0923 12.1146 13.181Q12.0488 13.2698 11.9788 13.3551Q11.9087 13.4405 11.8345 13.5223Q11.7604 13.6042 11.6823 13.6823Q11.6042 13.7604 11.5223 13.8345Q11.4405 13.9087 11.3551 13.9788Q11.2698 14.0488 11.181 14.1146Q11.0923 14.1804 11.0005 14.2418Q10.9087 14.3031 10.8139 14.3599Q10.7192 14.4167 10.6218 14.4688Q10.5244 14.5208 10.4246 14.568Q10.3247 14.6153 10.2227 14.6575Q10.1207 14.6998 10.0167 14.737Q9.91268 14.7742 9.80699 14.8063Q9.7013 14.8383 9.59417 14.8652Q9.48703 14.892 9.37871 14.9136Q9.27039 14.9351 9.16114 14.9513Q9.05189 14.9675 8.94198 14.9783Q8.83207 14.9892 8.72176 14.9946Q8.61144 15 8.501 15L1.999 15Q1.9008 15 1.80306 14.9904Q1.70533 14.9807 1.60901 14.9616Q1.5127 14.9424 1.41872 14.9139Q1.32474 14.8854 1.23402 14.8478Q1.14329 14.8103 1.05668 14.764Q0.970069 14.7177 0.888415 14.6631Q0.806761 14.6085 0.730848 14.5462Q0.654935 14.4839 0.585494 14.4145Q0.516052 14.3451 0.453752 14.2692Q0.391452 14.1932 0.336892 14.1116Q0.282333 14.0299 0.236039 13.9433Q0.189746 13.8567 0.152165 13.766Q0.114584 13.6753 0.0860763 13.5813Q0.057569 13.4873 0.0384102 13.391Q0.0192515 13.2947 0.00962573 13.1969Q0 13.0992 0 13.001L0 6Z"
                    fill="#DD9F3A" fill-rule="evenodd" id="Rectangle-Copy-4" stroke="none" />
            </g>
        </g>
    </g>
</svg>