<?xml version="1.0" encoding="utf-8"?>
<svg height="54px" version="1.1" viewBox="0 0 95 54" width="95px"
    xmlns="http://www.w3.org/2000/svg">
    <defs>
        <filter id="filter_1">
            <feColorMatrix in="SourceGraphic" type="matrix"
                values="0 0 0 0 0.8666667 0 0 0 0 0.62352943 0 0 0 0 0.22745098 0 0 0 1 0" />
        </filter>
    </defs>
    <g id="Group-31" transform="translate(0.5 0.5)">
        <g id="Group-29" transform="matrix(1 0 0 1 7.1054274E-15 0)">
            <g id="coins-2-copy-4" transform="translate(3.6915889 5.888889)">
                <g id="coins" transform="matrix(1 0 0 1 1.7053026E-13 0)">
                    <g id="Group" transform="translate(0 5.7418566)">
                        <path
                            d="M22.3718 1.42589L22.3718 4.31475C22.3718 5.10261 21.7367 5.74125 20.9533 5.74125L3.96635 5.74125C3.18294 5.74125 2.54791 5.10261 2.54791 4.31475L2.54791 1.42589C2.54791 0.638634 3.18294 0 3.96635 0L20.9533 0C21.7367 8.65573e-16 22.3718 0.638634 22.3718 1.42589Z"
                            fill="#DD9F3A" id="Path" stroke="none" />
                        <path
                            d="M19.8239 7.16762L19.8239 10.0565C19.8239 10.8443 19.1888 11.483 18.4054 11.483L1.41843 11.483C0.635025 11.483 0 10.8443 0 10.0565L0 7.16762C0 6.38037 0.635025 5.74173 1.41843 5.74173L18.4054 5.74173C19.1888 5.74173 19.8239 6.38037 19.8239 7.16762Z"
                            fill="#DD9F3A" id="Path" stroke="none" />
                        <path
                            d="M20.7793 12.9092L20.7793 15.7981C20.7793 16.586 20.1443 17.2246 19.3609 17.2246L2.37391 17.2246C1.5905 17.2246 0.955475 16.586 0.955475 15.7981L0.955475 12.9092C0.955475 12.122 1.5905 11.4833 2.37391 11.4833L19.3608 11.4833C20.1443 11.4833 20.7793 12.122 20.7793 12.9092Z"
                            fill="#DD9F3A" id="Path" stroke="none" />
                        <path
                            d="M19.8239 18.651L19.8239 21.5398C19.8239 22.3277 19.1888 22.9663 18.4054 22.9663L1.41843 22.9663C0.635025 22.9663 0 22.3277 0 21.5398L0 18.651C0 17.8637 0.635025 17.2251 1.41843 17.2251L18.4054 17.2251C19.1888 17.2251 19.8239 17.8637 19.8239 18.651Z"
                            fill="#DD9F3A" id="Path" stroke="none" />
                    </g>
                    <path
                        d="M19.824 24.3929L19.824 26.385C19.824 27.1216 19.2686 27.7282 18.5559 27.8038C18.5062 27.8089 18.4565 27.8115 18.4055 27.8115L4.90959 27.8115C4.12678 27.8115 3.49176 27.1728 3.49176 26.385L3.49176 24.3929C3.49176 23.6056 4.12678 22.967 4.90959 22.967L18.4055 22.967C19.189 22.967 19.824 23.6056 19.824 24.3929Z"
                        fill="#F4B74A" id="SVGCleanerId_0" stroke="none" />
                    <path
                        d="M19.824 24.3929L19.824 26.385C19.824 27.1216 19.2686 27.7282 18.5559 27.8038C18.5062 27.8089 18.4565 27.8115 18.4055 27.8115L4.90959 27.8115C4.12678 27.8115 3.49176 27.1728 3.49176 26.385L3.49176 24.3929C3.49176 23.6056 4.12678 22.967 4.90959 22.967L18.4055 22.967C19.189 22.967 19.824 23.6056 19.824 24.3929Z"
                        fill="#F4B74A" id="SVGCleanerId_0_1_" stroke="none" />
                    <g id="Group" transform="translate(3.491698 5.741978)">
                        <path
                            d="M16.3322 12.9091L16.3322 14.9011C16.3322 15.6378 15.7768 16.2444 15.0641 16.32C15.0144 16.3251 14.9647 16.3276 14.9138 16.3276L1.41783 16.3276C0.635025 16.3276 8.60682e-16 15.689 8.60682e-16 14.9011L8.60682e-16 12.9091C8.60682e-16 12.1218 0.635025 11.4832 1.41783 11.4832L14.9138 11.4832C15.6973 11.4831 16.3322 12.1217 16.3322 12.9091Z"
                            fill="#F4B74A" id="Path" stroke="none" />
                        <path
                            d="M16.3322 7.1678L16.3322 9.1599C16.3322 9.89654 15.7768 10.5031 15.0641 10.5787C15.0144 10.5838 14.9647 10.5864 14.9138 10.5864L1.41783 10.5864C0.635025 10.5864 8.60682e-16 9.94776 8.60682e-16 9.1599L8.60682e-16 7.1678C8.60682e-16 6.38055 0.635025 5.74192 1.41783 5.74192L14.9138 5.74192C15.6973 5.74192 16.3322 6.38055 16.3322 7.1678Z"
                            fill="#F4B74A" id="Path" stroke="none" />
                        <path
                            d="M18.88 1.42589L18.88 3.41798C18.88 4.15462 18.3246 4.76122 17.6118 4.83681C17.5622 4.84192 17.5125 4.84448 17.4615 4.84448L3.96556 4.84448C3.18276 4.84448 2.54773 4.20585 2.54773 3.41798L2.54773 1.42589C2.54773 0.638634 3.18276 1.73115e-15 3.96556 1.73115e-15L17.4615 1.73115e-15C18.245 3.46229e-15 18.88 0.638634 18.88 1.42589Z"
                            fill="#F4B74A" id="Path" stroke="none" />
                    </g>
                    <g id="Group" transform="translate(0 0.00012181855)">
                        <path
                            d="M19.8239 24.3928L19.8239 27.2817C19.8239 28.0183 19.2685 28.6249 18.5558 28.7005C18.4265 28.7056 18.2972 28.7082 18.1679 28.7082C16.7972 28.7082 15.4265 28.4244 14.1501 27.8556C13.2934 27.4745 12.4807 26.9647 11.7381 26.3273C11.5393 26.1569 11.347 25.9776 11.1591 25.7892C10.3203 24.9456 9.66358 23.9886 9.18845 22.9669L18.4055 22.9669C19.1889 22.9669 19.8239 23.6056 19.8239 24.3928Z"
                            fill="#DD9F3A" id="Path" stroke="none" />
                        <path
                            d="M19.8239 18.6509L19.8239 21.5398C19.8239 22.3276 19.1889 22.9663 18.4055 22.9663L10.1426 22.9663C9.30377 21.1631 9.03116 19.1588 9.32539 17.225L18.4055 17.225C19.1889 17.225 19.8239 17.8637 19.8239 18.6509Z"
                            fill="#DD9F3A" id="Path" stroke="none" />
                        <path
                            d="M19.8239 1.42589L19.8239 4.31475C19.8239 5.10261 19.1888 5.74125 18.4054 5.74125L1.41843 5.74125C0.635025 5.74131 0 5.10267 0 4.31481L0 1.42589C0 0.638634 0.635025 6.4918e-16 1.41843 6.4918e-16L18.4054 6.4918e-16C19.1888 6.09093e-05 19.8239 0.638695 19.8239 1.42589Z"
                            fill="#DD9F3A" id="Path" stroke="none" />
                    </g>
                    <path
                        d="M19.824 1.42589L19.824 3.41798C19.824 4.15462 19.2686 4.76122 18.5559 4.83681C18.5062 4.84192 18.4565 4.84448 18.4055 4.84448L4.90959 4.84448C4.12678 4.84448 3.49176 4.20585 3.49176 3.41798L3.49176 1.42589C3.49176 0.638634 4.12678 8.65573e-16 4.90959 8.65573e-16L18.4055 8.65573e-16C19.189 6.09093e-05 19.824 0.638695 19.824 1.42589Z"
                        fill="#F4B74A" id="Path" stroke="none" />
                    <g id="Group" transform="translate(12.843067 6.0909275E-05)">
                        <path d="M2.56875 0L4.64898 0L4.64898 4.84448L2.56875 4.84448L2.56875 0Z"
                            fill="#F9C662" id="Rectangle" stroke="none" />
                        <path
                            d="M-1.72136e-15 0L1.04008 0L1.04008 4.84448L-1.72136e-15 4.84448L-1.72136e-15 0Z"
                            fill="#F9C662" id="Rectangle" stroke="none" />
                        <path
                            d="M5.07445 5.7421L7.15492 5.7421L7.15492 11.484L5.07445 11.484L5.07445 5.7421Z"
                            fill="#F9C662" id="Rectangle" stroke="none" />
                        <path
                            d="M2.50509 5.7421L3.54536 5.7421L3.54536 11.484L2.50509 11.484L2.50509 5.7421Z"
                            fill="#F9C662" id="Rectangle" stroke="none" />
                    </g>
                    <g id="Group" transform="translate(8.369973 8.772654)">
                        <path
                            d="M14.0017 0.350825L14.0017 1.28414C14.0017 2.072 13.3667 2.71063 12.5832 2.71063L4.59544 2.71063C7.18714 0.253371 10.7731 -0.533151 14.0017 0.350825Z"
                            fill="#DD9F3A" id="Path" stroke="none" />
                        <path
                            d="M11.4539 4.13713L11.4539 7.02599C11.4539 7.81386 10.8189 8.45249 10.0355 8.45249L-1.72136e-15 8.45249C0.30761 6.42707 1.23759 4.47913 2.78848 2.91943C2.85916 2.84835 2.9305 2.77916 3.00251 2.71124L10.0355 2.71124C10.8189 2.71124 11.4539 3.34988 11.4539 4.13713Z"
                            fill="#DD9F3A" id="Path" stroke="none" />
                    </g>
                    <path
                        d="M28.1065 25.789C25.125 28.7869 20.7175 29.4761 17.0803 27.8556C16.2236 27.4743 15.4105 26.965 14.6682 26.3275C14.4694 26.1572 14.2766 25.9774 14.0888 25.789C10.2182 21.8959 10.2182 15.5847 14.0888 11.6916C17.9598 7.79901 24.2354 7.79901 28.1065 11.6916C28.2943 11.8805 28.4726 12.0744 28.642 12.2743C29.2758 13.0203 29.7823 13.8385 30.1614 14.7001C31.7727 18.3575 31.0875 22.7906 28.1065 25.789Z"
                        fill="#F4B74A" id="Path" stroke="none" />
                    <path
                        d="M30.1613 14.7001L17.0803 27.8556C16.2236 27.4743 15.4105 26.965 14.6682 26.3275L28.642 12.2743C29.2758 13.0203 29.7823 13.8386 30.1613 14.7001Z"
                        fill="#F9C662" id="Path" stroke="none" />
                    <path
                        d="M28.1064 18.7403C28.1064 22.6332 24.9684 25.7889 21.0977 25.7889C18.9127 25.7889 16.9615 24.7837 15.6759 23.2076C14.6838 21.9916 14.0889 20.4358 14.0889 18.7403C14.0889 14.8475 17.2269 11.6917 21.0977 11.6917C22.7839 11.6917 24.331 12.2909 25.5401 13.2886C27.1069 14.581 28.1064 16.5434 28.1064 18.7403Z"
                        fill="#FFD488" id="Path" stroke="none" />
                    <path
                        d="M25.5401 13.2886L15.6767 23.208L15.6758 23.2075C15.3863 22.8527 15.1306 22.4687 14.914 22.0609C14.667 21.5973 14.4707 21.1034 14.3314 20.585C14.1733 19.9969 14.0888 19.3783 14.0888 18.7403C14.0888 14.8474 17.2268 11.6917 21.0976 11.6917C21.7325 11.6917 22.3476 11.7764 22.9319 11.9356C23.4473 12.0757 23.9385 12.2736 24.3994 12.522C24.805 12.7398 25.1868 12.9974 25.5401 13.2886Z"
                        fill="#F9C662" id="Path" stroke="none" />
                    <path
                        d="M24.3995 12.522L14.914 22.0609C14.6671 21.5974 14.4708 21.1034 14.3315 20.5851L22.9321 11.9356C23.4473 12.0757 23.9386 12.2736 24.3995 12.522Z"
                        fill="#FFD488" id="Path" stroke="none" />
                </g>
                <g filter="url(#filter_1)" id="Group-17" transform="translate(17.719625 15.458333)">
                    <path
                        d="M0 0L3.51408 0Q3.61348 0 3.7124 0.00974277Q3.81132 0.0194855 3.9088 0.0388772Q4.00629 0.058269 4.10141 0.0871229Q4.19653 0.115977 4.28836 0.154015Q4.3802 0.192053 4.46786 0.238909Q4.55552 0.285766 4.63817 0.340988Q4.72081 0.396211 4.79765 0.459269Q4.87449 0.522327 4.94477 0.592612Q5.01506 0.662898 5.07811 0.739734Q5.14117 0.81657 5.19639 0.899217Q5.25162 0.981864 5.29847 1.06953Q5.34533 1.15719 5.38337 1.24902Q5.42141 1.34085 5.45026 1.43597Q5.47911 1.53109 5.4985 1.62858Q5.5179 1.72607 5.52764 1.82499Q5.53738 1.92391 5.53738 2.02331L5.53738 2.02531Q5.53738 2.1247 5.52764 2.22362Q5.5179 2.32254 5.49851 2.42003Q5.47911 2.51752 5.45026 2.61264Q5.42141 2.70776 5.38337 2.79959Q5.34533 2.89142 5.29847 2.97908Q5.25162 3.06675 5.19639 3.14939Q5.14117 3.23204 5.07811 3.30888Q5.01506 3.38571 4.94477 3.456Q4.87449 3.52628 4.79765 3.58934Q4.72081 3.6524 4.63817 3.70762Q4.55552 3.76285 4.46786 3.8097Q4.3802 3.85656 4.28836 3.8946Q4.19653 3.93263 4.10141 3.96149Q4.00629 3.99034 3.9088 4.00973Q3.81132 4.02913 3.7124 4.03887Q3.61348 4.04861 3.51408 4.04861L0 4.04861L0 0Z"
                        fill="#DD9F3A" fill-rule="evenodd" id="Rectangle" stroke="none" />
                    <path
                        d="M0 3.23889L4.21669 3.23889Q4.33598 3.23889 4.45469 3.25058Q4.57341 3.26227 4.6904 3.28555Q4.8074 3.30882 4.92155 3.34345Q5.0357 3.37807 5.14591 3.42372Q5.25612 3.46937 5.36132 3.5256Q5.46653 3.58184 5.56571 3.64811Q5.6649 3.71438 5.75711 3.79006Q5.84932 3.86573 5.93367 3.95008Q6.01802 4.03443 6.09369 4.12664Q6.16937 4.21885 6.23564 4.31804Q6.30191 4.41722 6.35814 4.52243Q6.41438 4.62763 6.46003 4.73784Q6.50568 4.84804 6.5403 4.9622Q6.57493 5.07635 6.5982 5.19334Q6.62148 5.31034 6.63317 5.42905Q6.64486 5.54777 6.64486 5.66706L6.64486 5.66906Q6.64486 5.78834 6.63317 5.90706Q6.62148 6.02577 6.5982 6.14277Q6.57493 6.25976 6.5403 6.37391Q6.50568 6.48807 6.46003 6.59827Q6.41438 6.70848 6.35814 6.81368Q6.30191 6.91889 6.23564 7.01807Q6.16937 7.11726 6.09369 7.20947Q6.01802 7.30168 5.93367 7.38603Q5.84932 7.47038 5.75711 7.54605Q5.6649 7.62173 5.56571 7.688Q5.46653 7.75427 5.36132 7.81051Q5.25612 7.86674 5.14591 7.91239Q5.0357 7.95804 4.92155 7.99267Q4.8074 8.02729 4.6904 8.05056Q4.57341 8.07384 4.4547 8.08553Q4.33598 8.09722 4.21669 8.09722L1.999 8.09722Q1.9008 8.09722 1.80306 8.0876Q1.70533 8.07797 1.60901 8.05881Q1.5127 8.03965 1.41872 8.01115Q1.32474 7.98264 1.23402 7.94506Q1.14329 7.90747 1.05668 7.86118Q0.970069 7.81489 0.888415 7.76033Q0.806761 7.70577 0.730848 7.64347Q0.654935 7.58117 0.585494 7.51173Q0.516052 7.44229 0.453752 7.36637Q0.391452 7.29046 0.336892 7.20881Q0.282333 7.12715 0.236039 7.04054Q0.189746 6.95394 0.152165 6.86321Q0.114584 6.77248 0.0860763 6.6785Q0.057569 6.58453 0.0384102 6.48821Q0.0192515 6.39189 0.00962573 6.29416Q0 6.19643 0 6.09822L0 3.23889Z"
                        fill="#DD9F3A" fill-rule="evenodd" id="Rectangle-Copy-4" stroke="none" />
                </g>
            </g>
            <g id="Group-24-Copy" transform="translate(16.24299 9.569445)">
                <g id="Group-23" transform="matrix(1 0 0 1 0 -4.973799E-14)">
                    <path
                        d="M14.3716 14.4513C11.8393 16.9973 8.09575 17.5825 5.00645 16.2064C4.27887 15.8826 3.58822 15.45 2.95776 14.9087C2.78893 14.7641 2.62514 14.6113 2.46562 14.4513C-0.821874 11.1452 -0.821874 5.78545 2.46562 2.4793C5.75353 -0.826434 11.0837 -0.826434 14.3716 2.4793C14.5311 2.6397 14.6826 2.8044 14.8264 2.97417C15.3648 3.60766 15.795 4.30255 16.117 5.03423C17.4855 8.14024 16.9035 11.905 14.3716 14.4513Z"
                        fill="#DD9F3A" id="Path-Copy" stroke="none" />
                    <path
                        d="M15.9924 14.4513C13.4601 16.9973 9.71654 17.5825 6.62724 16.2064C5.89966 15.8826 5.20901 15.45 4.57855 14.9087C4.40972 14.7641 4.24593 14.6113 4.08641 14.4513C0.798917 11.1452 0.798917 5.78545 4.08641 2.4793C7.37432 -0.826434 12.7045 -0.826434 15.9924 2.4793C16.1519 2.6397 16.3034 2.8044 16.4472 2.97417C16.9856 3.60766 17.4158 4.30255 17.7377 5.03423C19.1063 8.14024 18.5243 11.905 15.9924 14.4513Z"
                        fill="#F4B74A" id="Path" stroke="none" />
                    <path
                        d="M17.7377 5.03423L6.62724 16.2064C5.89966 15.8826 5.20901 15.45 4.57855 14.9087L16.4472 2.97417C16.9855 3.60766 17.4157 4.30261 17.7377 5.03423Z"
                        fill="#F9C662" id="Path" stroke="none" />
                    <path
                        d="M15.9924 8.46534C15.9924 11.7713 13.3271 14.4513 10.0394 14.4513C8.18359 14.4513 6.52637 13.5976 5.43443 12.2591C4.59182 11.2265 4.08652 9.9052 4.08652 8.46534C4.08652 5.1594 6.75178 2.4794 10.0394 2.4794C11.4717 2.4794 12.7857 2.98824 13.8126 3.83557C15.1434 4.9331 15.9924 6.59962 15.9924 8.46534Z"
                        fill="#FFD488" id="Path" stroke="none" />
                    <path
                        d="M13.8126 3.83552L5.43515 12.2594L5.43438 12.2591C5.18844 11.9578 4.97125 11.6316 4.7873 11.2853C4.57757 10.8916 4.4108 10.4721 4.29249 10.0319C4.15817 9.53251 4.08647 9.00713 4.08647 8.46529C4.08647 5.15935 6.75173 2.47935 10.0394 2.47935C10.5786 2.47935 11.1011 2.55136 11.5974 2.68652C12.0351 2.80549 12.4523 2.9736 12.8438 3.18449C13.1883 3.36951 13.5126 3.58826 13.8126 3.83552Z"
                        fill="#F9C662" id="Path" stroke="none" />
                    <path
                        d="M12.8438 3.18449L4.78735 11.2853C4.57763 10.8917 4.41085 10.4722 4.29254 10.032L11.5975 2.68652C12.0351 2.80549 12.4524 2.9736 12.8438 3.18449Z"
                        fill="#FFD488" id="Path" stroke="none" />
                    <g filter="url(#filter_1)" id="Group-17-Copy"
                        transform="translate(7.112405 5.1467924)">
                        <path
                            d="M0 0L3.33904 0Q3.42383 0 3.50821 0.00831083Q3.59259 0.0166217 3.67575 0.0331633Q3.75891 0.0497049 3.84005 0.074318Q3.92119 0.0989311 3.99953 0.131379Q4.07786 0.163826 4.15264 0.203796Q4.22742 0.243765 4.29792 0.290872Q4.36842 0.337978 4.43396 0.391768Q4.4995 0.445558 4.55946 0.505513Q4.61941 0.565469 4.6732 0.631012Q4.72699 0.696555 4.7741 0.767055Q4.82121 0.837555 4.86118 0.912332Q4.90115 0.98711 4.93359 1.06545Q4.96604 1.14378 4.99065 1.22492Q5.01527 1.30606 5.03181 1.38922Q5.04835 1.47238 5.05666 1.55676Q5.06497 1.64114 5.06497 1.72593L5.06497 1.72793Q5.06497 1.81272 5.05666 1.8971Q5.04835 1.98148 5.03181 2.06464Q5.01527 2.1478 4.99065 2.22894Q4.96604 2.31008 4.93359 2.38842Q4.90115 2.46675 4.86118 2.54153Q4.82121 2.61631 4.7741 2.68681Q4.72699 2.75731 4.6732 2.82285Q4.61941 2.88839 4.55946 2.94835Q4.4995 3.0083 4.43396 3.06209Q4.36842 3.11588 4.29792 3.16299Q4.22742 3.2101 4.15264 3.25007Q4.07786 3.29004 3.99953 3.32248Q3.92119 3.35493 3.84005 3.37954Q3.75891 3.40416 3.67575 3.4207Q3.59259 3.43724 3.50821 3.44555Q3.42383 3.45386 3.33904 3.45386L0 3.45386L0 0Z"
                            fill="#DD9F3A" fill-rule="evenodd" id="Rectangle" stroke="none" />
                        <path
                            d="M0 2.76309L4.00665 2.76309Q4.10841 2.76309 4.20967 2.77306Q4.31094 2.78304 4.41074 2.80289Q4.51055 2.82274 4.60792 2.85228Q4.7053 2.88182 4.79931 2.92076Q4.89332 2.9597 4.98306 3.00767Q5.0728 3.05564 5.15741 3.11217Q5.24202 3.1687 5.32068 3.23326Q5.39934 3.29781 5.47129 3.36976Q5.54325 3.44172 5.6078 3.52038Q5.67235 3.59904 5.72889 3.68364Q5.78542 3.76825 5.83339 3.85799Q5.88136 3.94774 5.9203 4.04175Q5.95924 4.13576 5.98878 4.23313Q6.01831 4.33051 6.03817 4.43031Q6.05802 4.53011 6.06799 4.63138Q6.07797 4.73265 6.07797 4.83441L6.07797 4.83641Q6.07797 4.93816 6.06799 5.03943Q6.05802 5.1407 6.03817 5.2405Q6.01832 5.3403 5.98878 5.43768Q5.95924 5.53505 5.9203 5.62906Q5.88136 5.72308 5.83339 5.81282Q5.78542 5.90256 5.72889 5.98717Q5.67235 6.07178 5.6078 6.15043Q5.54325 6.22909 5.47129 6.30105Q5.39934 6.373 5.32068 6.43755Q5.24202 6.50211 5.15741 6.55864Q5.0728 6.61518 4.98306 6.66314Q4.89332 6.71111 4.79931 6.75005Q4.7053 6.78899 4.60792 6.81853Q4.51055 6.84807 4.41074 6.86792Q4.31094 6.88777 4.20967 6.89775Q4.10841 6.90772 4.00665 6.90772L1.999 6.90772Q1.9008 6.90772 1.80306 6.8981Q1.70533 6.88847 1.60901 6.86931Q1.5127 6.85015 1.41872 6.82165Q1.32474 6.79314 1.23402 6.75556Q1.14329 6.71798 1.05668 6.67168Q0.970069 6.62539 0.888415 6.57083Q0.806761 6.51627 0.730848 6.45397Q0.654935 6.39167 0.585494 6.32223Q0.516052 6.25279 0.453752 6.17688Q0.391452 6.10096 0.336892 6.01931Q0.282333 5.93765 0.236039 5.85104Q0.189746 5.76444 0.152165 5.67371Q0.114584 5.58298 0.0860763 5.489Q0.057569 5.39503 0.0384102 5.29871Q0.0192515 5.20239 0.00962573 5.10466Q0 5.00693 0 4.90872L0 2.76309Z"
                            fill="#DD9F3A" fill-rule="evenodd" id="Rectangle-Copy-4"
                            stroke="none" />
                    </g>
                </g>
            </g>
            <g id="Group-24-Copy-4" transform="translate(30.271029 7.361111)">
                <g id="Group-23" transform="matrix(1 0 0 1 0 -4.973799E-14)">
                    <path
                        d="M14.3716 14.4513C11.8393 16.9973 8.09575 17.5825 5.00645 16.2064C4.27887 15.8826 3.58822 15.45 2.95776 14.9087C2.78893 14.7641 2.62514 14.6113 2.46562 14.4513C-0.821874 11.1452 -0.821874 5.78545 2.46562 2.4793C5.75353 -0.826434 11.0837 -0.826434 14.3716 2.4793C14.5311 2.6397 14.6826 2.8044 14.8264 2.97417C15.3648 3.60766 15.795 4.30255 16.117 5.03423C17.4855 8.14024 16.9035 11.905 14.3716 14.4513Z"
                        fill="#DD9F3A" id="Path-Copy" stroke="none" />
                    <path
                        d="M15.9924 14.4513C13.4601 16.9973 9.71654 17.5825 6.62724 16.2064C5.89966 15.8826 5.20901 15.45 4.57855 14.9087C4.40972 14.7641 4.24593 14.6113 4.08641 14.4513C0.798917 11.1452 0.798917 5.78545 4.08641 2.4793C7.37432 -0.826434 12.7045 -0.826434 15.9924 2.4793C16.1519 2.6397 16.3034 2.8044 16.4472 2.97417C16.9856 3.60766 17.4158 4.30255 17.7377 5.03423C19.1063 8.14024 18.5243 11.905 15.9924 14.4513Z"
                        fill="#F4B74A" id="Path" stroke="none" />
                    <path
                        d="M17.7377 5.03423L6.62724 16.2064C5.89966 15.8826 5.20901 15.45 4.57855 14.9087L16.4472 2.97417C16.9855 3.60766 17.4157 4.30261 17.7377 5.03423Z"
                        fill="#F9C662" id="Path" stroke="none" />
                    <path
                        d="M15.9924 8.46534C15.9924 11.7713 13.3271 14.4513 10.0394 14.4513C8.18359 14.4513 6.52637 13.5976 5.43443 12.2591C4.59182 11.2265 4.08652 9.9052 4.08652 8.46534C4.08652 5.1594 6.75178 2.4794 10.0394 2.4794C11.4717 2.4794 12.7857 2.98824 13.8126 3.83557C15.1434 4.9331 15.9924 6.59962 15.9924 8.46534Z"
                        fill="#FFD488" id="Path" stroke="none" />
                    <path
                        d="M13.8126 3.83552L5.43515 12.2594L5.43438 12.2591C5.18844 11.9578 4.97125 11.6316 4.7873 11.2853C4.57757 10.8916 4.4108 10.4721 4.29249 10.0319C4.15817 9.53251 4.08647 9.00713 4.08647 8.46529C4.08647 5.15935 6.75173 2.47935 10.0394 2.47935C10.5786 2.47935 11.1011 2.55136 11.5974 2.68652C12.0351 2.80549 12.4523 2.9736 12.8438 3.18449C13.1883 3.36951 13.5126 3.58826 13.8126 3.83552Z"
                        fill="#F9C662" id="Path" stroke="none" />
                    <path
                        d="M12.8438 3.18449L4.78735 11.2853C4.57763 10.8917 4.41085 10.4722 4.29254 10.032L11.5975 2.68652C12.0351 2.80549 12.4524 2.9736 12.8438 3.18449Z"
                        fill="#FFD488" id="Path" stroke="none" />
                    <g filter="url(#filter_1)" id="Group-17-Copy"
                        transform="translate(7.112405 5.1467924)">
                        <path
                            d="M0 0L3.33904 0Q3.42383 0 3.50821 0.00831083Q3.59259 0.0166217 3.67575 0.0331633Q3.75891 0.0497049 3.84005 0.074318Q3.92119 0.0989311 3.99953 0.131379Q4.07786 0.163826 4.15264 0.203796Q4.22742 0.243765 4.29792 0.290872Q4.36842 0.337978 4.43396 0.391768Q4.4995 0.445558 4.55946 0.505513Q4.61941 0.565469 4.6732 0.631012Q4.72699 0.696555 4.7741 0.767055Q4.82121 0.837555 4.86118 0.912332Q4.90115 0.98711 4.93359 1.06545Q4.96604 1.14378 4.99065 1.22492Q5.01527 1.30606 5.03181 1.38922Q5.04835 1.47238 5.05666 1.55676Q5.06497 1.64114 5.06497 1.72593L5.06497 1.72793Q5.06497 1.81272 5.05666 1.8971Q5.04835 1.98148 5.03181 2.06464Q5.01527 2.1478 4.99065 2.22894Q4.96604 2.31008 4.93359 2.38842Q4.90115 2.46675 4.86118 2.54153Q4.82121 2.61631 4.7741 2.68681Q4.72699 2.75731 4.6732 2.82285Q4.61941 2.88839 4.55946 2.94835Q4.4995 3.0083 4.43396 3.06209Q4.36842 3.11588 4.29792 3.16299Q4.22742 3.2101 4.15264 3.25007Q4.07786 3.29004 3.99953 3.32248Q3.92119 3.35493 3.84005 3.37954Q3.75891 3.40416 3.67575 3.4207Q3.59259 3.43724 3.50821 3.44555Q3.42383 3.45386 3.33904 3.45386L0 3.45386L0 0Z"
                            fill="#DD9F3A" fill-rule="evenodd" id="Rectangle" stroke="none" />
                        <path
                            d="M0 2.76309L4.00665 2.76309Q4.10841 2.76309 4.20967 2.77306Q4.31094 2.78304 4.41074 2.80289Q4.51055 2.82274 4.60792 2.85228Q4.7053 2.88182 4.79931 2.92076Q4.89332 2.9597 4.98306 3.00767Q5.0728 3.05564 5.15741 3.11217Q5.24202 3.1687 5.32068 3.23326Q5.39934 3.29781 5.47129 3.36976Q5.54325 3.44172 5.6078 3.52038Q5.67235 3.59904 5.72889 3.68364Q5.78542 3.76825 5.83339 3.85799Q5.88136 3.94774 5.9203 4.04175Q5.95924 4.13576 5.98878 4.23313Q6.01831 4.33051 6.03817 4.43031Q6.05802 4.53011 6.06799 4.63138Q6.07797 4.73265 6.07797 4.83441L6.07797 4.83641Q6.07797 4.93816 6.06799 5.03943Q6.05802 5.1407 6.03817 5.2405Q6.01832 5.3403 5.98878 5.43768Q5.95924 5.53505 5.9203 5.62906Q5.88136 5.72308 5.83339 5.81282Q5.78542 5.90256 5.72889 5.98717Q5.67235 6.07178 5.6078 6.15043Q5.54325 6.22909 5.47129 6.30105Q5.39934 6.373 5.32068 6.43755Q5.24202 6.50211 5.15741 6.55864Q5.0728 6.61518 4.98306 6.66314Q4.89332 6.71111 4.79931 6.75005Q4.7053 6.78899 4.60792 6.81853Q4.51055 6.84807 4.41074 6.86792Q4.31094 6.88777 4.20967 6.89775Q4.10841 6.90772 4.00665 6.90772L1.999 6.90772Q1.9008 6.90772 1.80306 6.8981Q1.70533 6.88847 1.60901 6.86931Q1.5127 6.85015 1.41872 6.82165Q1.32474 6.79314 1.23402 6.75556Q1.14329 6.71798 1.05668 6.67168Q0.970069 6.62539 0.888415 6.57083Q0.806761 6.51627 0.730848 6.45397Q0.654935 6.39167 0.585494 6.32223Q0.516052 6.25279 0.453752 6.17688Q0.391452 6.10096 0.336892 6.01931Q0.282333 5.93765 0.236039 5.85104Q0.189746 5.76444 0.152165 5.67371Q0.114584 5.58298 0.0860763 5.489Q0.057569 5.39503 0.0384102 5.29871Q0.0192515 5.20239 0.00962573 5.10466Q0 5.00693 0 4.90872L0 2.76309Z"
                            fill="#DD9F3A" fill-rule="evenodd" id="Rectangle-Copy-4"
                            stroke="none" />
                    </g>
                </g>
            </g>
            <g id="Group-24-Copy-5" transform="translate(48.728973 11.777778)">
                <g id="Group-23" transform="matrix(1 0 0 1 0 -4.973799E-14)">
                    <path
                        d="M14.3716 14.4513C11.8393 16.9973 8.09575 17.5825 5.00645 16.2064C4.27887 15.8826 3.58822 15.45 2.95776 14.9087C2.78893 14.7641 2.62514 14.6113 2.46562 14.4513C-0.821874 11.1452 -0.821874 5.78545 2.46562 2.4793C5.75353 -0.826434 11.0837 -0.826434 14.3716 2.4793C14.5311 2.6397 14.6826 2.8044 14.8264 2.97417C15.3648 3.60766 15.795 4.30255 16.117 5.03423C17.4855 8.14024 16.9035 11.905 14.3716 14.4513Z"
                        fill="#DD9F3A" id="Path-Copy" stroke="none" />
                    <path
                        d="M15.9924 14.4513C13.4601 16.9973 9.71654 17.5825 6.62724 16.2064C5.89966 15.8826 5.20901 15.45 4.57855 14.9087C4.40972 14.7641 4.24593 14.6113 4.08641 14.4513C0.798917 11.1452 0.798917 5.78545 4.08641 2.4793C7.37432 -0.826434 12.7045 -0.826434 15.9924 2.4793C16.1519 2.6397 16.3034 2.8044 16.4472 2.97417C16.9856 3.60766 17.4158 4.30255 17.7377 5.03423C19.1063 8.14024 18.5243 11.905 15.9924 14.4513Z"
                        fill="#F4B74A" id="Path" stroke="none" />
                    <path
                        d="M17.7377 5.03423L6.62724 16.2064C5.89966 15.8826 5.20901 15.45 4.57855 14.9087L16.4472 2.97417C16.9855 3.60766 17.4157 4.30261 17.7377 5.03423Z"
                        fill="#F9C662" id="Path" stroke="none" />
                    <path
                        d="M15.9924 8.46534C15.9924 11.7713 13.3271 14.4513 10.0394 14.4513C8.18359 14.4513 6.52637 13.5976 5.43443 12.2591C4.59182 11.2265 4.08652 9.9052 4.08652 8.46534C4.08652 5.1594 6.75178 2.4794 10.0394 2.4794C11.4717 2.4794 12.7857 2.98824 13.8126 3.83557C15.1434 4.9331 15.9924 6.59962 15.9924 8.46534Z"
                        fill="#FFD488" id="Path" stroke="none" />
                    <path
                        d="M13.8126 3.83552L5.43515 12.2594L5.43438 12.2591C5.18844 11.9578 4.97125 11.6316 4.7873 11.2853C4.57757 10.8916 4.4108 10.4721 4.29249 10.0319C4.15817 9.53251 4.08647 9.00713 4.08647 8.46529C4.08647 5.15935 6.75173 2.47935 10.0394 2.47935C10.5786 2.47935 11.1011 2.55136 11.5974 2.68652C12.0351 2.80549 12.4523 2.9736 12.8438 3.18449C13.1883 3.36951 13.5126 3.58826 13.8126 3.83552Z"
                        fill="#F9C662" id="Path" stroke="none" />
                    <path
                        d="M12.8438 3.18449L4.78735 11.2853C4.57763 10.8917 4.41085 10.4722 4.29254 10.032L11.5975 2.68652C12.0351 2.80549 12.4524 2.9736 12.8438 3.18449Z"
                        fill="#FFD488" id="Path" stroke="none" />
                    <g filter="url(#filter_1)" id="Group-17-Copy"
                        transform="translate(7.112405 5.1467924)">
                        <path
                            d="M0 0L3.33904 0Q3.42383 0 3.50821 0.00831083Q3.59259 0.0166217 3.67575 0.0331633Q3.75891 0.0497049 3.84005 0.074318Q3.92119 0.0989311 3.99953 0.131379Q4.07786 0.163826 4.15264 0.203796Q4.22742 0.243765 4.29792 0.290872Q4.36842 0.337978 4.43396 0.391768Q4.4995 0.445558 4.55946 0.505513Q4.61941 0.565469 4.6732 0.631012Q4.72699 0.696555 4.7741 0.767055Q4.82121 0.837555 4.86118 0.912332Q4.90115 0.98711 4.93359 1.06545Q4.96604 1.14378 4.99065 1.22492Q5.01527 1.30606 5.03181 1.38922Q5.04835 1.47238 5.05666 1.55676Q5.06497 1.64114 5.06497 1.72593L5.06497 1.72793Q5.06497 1.81272 5.05666 1.8971Q5.04835 1.98148 5.03181 2.06464Q5.01527 2.1478 4.99065 2.22894Q4.96604 2.31008 4.93359 2.38842Q4.90115 2.46675 4.86118 2.54153Q4.82121 2.61631 4.7741 2.68681Q4.72699 2.75731 4.6732 2.82285Q4.61941 2.88839 4.55946 2.94835Q4.4995 3.0083 4.43396 3.06209Q4.36842 3.11588 4.29792 3.16299Q4.22742 3.2101 4.15264 3.25007Q4.07786 3.29004 3.99953 3.32248Q3.92119 3.35493 3.84005 3.37954Q3.75891 3.40416 3.67575 3.4207Q3.59259 3.43724 3.50821 3.44555Q3.42383 3.45386 3.33904 3.45386L0 3.45386L0 0Z"
                            fill="#DD9F3A" fill-rule="evenodd" id="Rectangle" stroke="none" />
                        <path
                            d="M0 2.76309L4.00665 2.76309Q4.10841 2.76309 4.20967 2.77306Q4.31094 2.78304 4.41074 2.80289Q4.51055 2.82274 4.60792 2.85228Q4.7053 2.88182 4.79931 2.92076Q4.89332 2.9597 4.98306 3.00767Q5.0728 3.05564 5.15741 3.11217Q5.24202 3.1687 5.32068 3.23326Q5.39934 3.29781 5.47129 3.36976Q5.54325 3.44172 5.6078 3.52038Q5.67235 3.59904 5.72889 3.68364Q5.78542 3.76825 5.83339 3.85799Q5.88136 3.94774 5.9203 4.04175Q5.95924 4.13576 5.98878 4.23313Q6.01831 4.33051 6.03817 4.43031Q6.05802 4.53011 6.06799 4.63138Q6.07797 4.73265 6.07797 4.83441L6.07797 4.83641Q6.07797 4.93816 6.06799 5.03943Q6.05802 5.1407 6.03817 5.2405Q6.01832 5.3403 5.98878 5.43768Q5.95924 5.53505 5.9203 5.62906Q5.88136 5.72308 5.83339 5.81282Q5.78542 5.90256 5.72889 5.98717Q5.67235 6.07178 5.6078 6.15043Q5.54325 6.22909 5.47129 6.30105Q5.39934 6.373 5.32068 6.43755Q5.24202 6.50211 5.15741 6.55864Q5.0728 6.61518 4.98306 6.66314Q4.89332 6.71111 4.79931 6.75005Q4.7053 6.78899 4.60792 6.81853Q4.51055 6.84807 4.41074 6.86792Q4.31094 6.88777 4.20967 6.89775Q4.10841 6.90772 4.00665 6.90772L1.999 6.90772Q1.9008 6.90772 1.80306 6.8981Q1.70533 6.88847 1.60901 6.86931Q1.5127 6.85015 1.41872 6.82165Q1.32474 6.79314 1.23402 6.75556Q1.14329 6.71798 1.05668 6.67168Q0.970069 6.62539 0.888415 6.57083Q0.806761 6.51627 0.730848 6.45397Q0.654935 6.39167 0.585494 6.32223Q0.516052 6.25279 0.453752 6.17688Q0.391452 6.10096 0.336892 6.01931Q0.282333 5.93765 0.236039 5.85104Q0.189746 5.76444 0.152165 5.67371Q0.114584 5.58298 0.0860763 5.489Q0.057569 5.39503 0.0384102 5.29871Q0.0192515 5.20239 0.00962573 5.10466Q0 5.00693 0 4.90872L0 2.76309Z"
                            fill="#DD9F3A" fill-rule="evenodd" id="Rectangle-Copy-4"
                            stroke="none" />
                    </g>
                </g>
            </g>
            <g id="sport-bag-2" transform="matrix(1 0 0 1 7.1054274E-15 0)">
                <g id="sport-bag" transform="matrix(1 0 0 1 5.246063E-15 0)">
                    <path
                        d="M45.097 6.69645L33.9026 6.69645C31.0625 6.69645 28.7601 4.39639 28.7601 1.5592L50.2393 1.5592C50.2393 4.39639 47.9371 6.69645 45.097 6.69645Z"
                        fill="#8F7855" id="Path" stroke="none" />
                    <path
                        d="M58.7562 16.2466C57.9105 16.2466 57.2252 15.5618 57.2252 14.7172L57.2252 10.9222C57.2252 6.58633 53.6949 3.05886 49.3556 3.05886L29.6444 3.05886C25.3051 3.05886 21.775 6.58633 21.775 10.9222L21.775 14.7172C21.775 15.5618 21.0897 16.2466 20.244 16.2466C19.3983 16.2466 18.713 15.5618 18.713 14.7172L18.713 10.9222C18.713 4.89968 23.6167 0 29.6444 0L49.3556 0C55.3833 0 60.2872 4.89968 60.2872 10.9222L60.2872 14.7172C60.2872 15.5618 59.6017 16.2466 58.7562 16.2466Z"
                        fill="#F5DC60" id="Path" stroke="none" />
                    <path
                        d="M79 19.3381L79 47.3593C79 50.4752 76.4728 52.9998 73.3536 52.9998L5.64432 52.9998C2.52718 52.9998 0 50.4752 0 47.3593L0 19.3381C0 16.2221 2.52718 13.6976 5.64432 13.6976L73.3536 13.6976C76.4728 13.6976 79 16.2221 79 19.3381Z"
                        fill="#7EBA61" id="Path" stroke="none" />
                    <path
                        d="M73.3536 45.3531L5.64432 45.3531C2.52718 45.3531 0 42.8285 0 39.7125L0 47.3593C0 50.4752 2.52718 52.9998 5.64432 52.9998L73.3536 52.9998C76.4728 52.9998 79 50.4752 79 47.3593L79 39.7125C79 42.8285 76.4728 45.3531 73.3536 45.3531Z"
                        fill="#709F59" id="Path" stroke="none" />
                    <path
                        d="M79 19.3381L79 47.3593C79 50.4752 76.4728 52.9998 73.3536 52.9998L70.0181 52.9998L70.0181 13.6976L73.3536 13.6976C76.4728 13.6976 79 16.2221 79 19.3381L79 19.3381Z"
                        fill="#BAD450" id="Path" stroke="none" />
                    <path
                        d="M8.98191 13.6976L8.98191 52.9998L5.64636 52.9998C2.52718 52.9998 0 50.4752 0 47.3593L0 19.3381C0 16.2221 2.52718 13.6976 5.64636 13.6976L8.98191 13.6976Z"
                        fill="#BAD450" id="Path" stroke="none" />
                    <path
                        d="M5.64432 45.3527L8.98191 45.3527L8.98191 52.9998L5.64636 52.9998C2.52718 52.9998 0 50.4752 0 47.3593L0 39.7121C0 42.8281 2.52718 45.3527 5.64432 45.3527Z"
                        fill="#AAC249" id="Path" stroke="none" />
                    <path
                        d="M79 39.7121L79 47.3593C79 50.4752 76.4728 52.9998 73.3536 52.9998L70.0181 52.9998L70.0181 45.3527L73.3536 45.3527C76.4728 45.3527 79 42.8281 79 39.7121Z"
                        fill="#AAC249" id="Path" stroke="none" />
                    <g id="Group" transform="translate(20.311165 18.489363)">
                        <path
                            d="M1.53101 7.54518C0.685279 7.54518 2.90092e-15 6.8604 2.90092e-15 6.01575L2.90092e-15 1.52943C2.90092e-15 0.684776 0.685279 0 1.53101 0C2.37674 0 3.06202 0.684776 3.06202 1.52943L3.06202 6.01575C3.06202 6.8604 2.37653 7.54518 1.53101 7.54518Z"
                            fill="#BAD450" id="Path" stroke="none" />
                        <path
                            d="M10.3598 7.54518C9.51409 7.54518 8.82881 6.8604 8.82881 6.01575L8.82881 1.52943C8.82881 0.684776 9.51409 0 10.3598 0C11.2055 0 11.8908 0.684776 11.8908 1.52943L11.8908 6.01575C11.8908 6.8604 11.2053 7.54518 10.3598 7.54518Z"
                            fill="#BAD450" id="Path" stroke="none" />
                        <path
                            d="M19.1886 7.54518C18.3429 7.54518 17.6576 6.8604 17.6576 6.01575L17.6576 1.52943C17.6576 0.684776 18.3429 0 19.1886 0C20.0344 0 20.7196 0.684776 20.7196 1.52943L20.7196 6.01575C20.7196 6.8604 20.0342 7.54518 19.1886 7.54518Z"
                            fill="#BAD450" id="Path" stroke="none" />
                        <path
                            d="M28.0174 7.54518C27.1717 7.54518 26.4864 6.8604 26.4864 6.01575L26.4864 1.52943C26.4864 0.684776 27.1717 0 28.0174 0C28.8632 0 29.5485 0.684776 29.5485 1.52943L29.5485 6.01575C29.5485 6.8604 28.863 7.54518 28.0174 7.54518Z"
                            fill="#BAD450" id="Path" stroke="none" />
                        <path
                            d="M36.8463 10.6042C36.0005 10.6042 35.3152 9.91947 35.3152 9.07481L35.3152 1.52943C35.3152 0.684776 36.0005 0 36.8463 0C37.692 0 38.3773 0.684776 38.3773 1.52943L38.3773 9.07481C38.3773 9.91947 37.6918 10.6042 36.8463 10.6042Z"
                            fill="#BAD450" id="Path" stroke="none" />
                        <path
                            d="M5.94541 7.54518C5.09968 7.54518 4.41441 6.8604 4.41441 6.01575L4.41441 1.52943C4.41441 0.684776 5.09968 0 5.94541 0C6.79114 0 7.47642 0.684776 7.47642 1.52943L7.47642 6.01575C7.47642 6.8604 6.79094 7.54518 5.94541 7.54518Z"
                            fill="#BAD450" id="Path" stroke="none" />
                        <path
                            d="M14.7742 7.54518C13.9285 7.54518 13.2432 6.8604 13.2432 6.01575L13.2432 1.52943C13.2432 0.684776 13.9285 0 14.7742 0C15.62 0 16.3052 0.684776 16.3052 1.52943L16.3052 6.01575C16.3052 6.8604 15.6198 7.54518 14.7742 7.54518Z"
                            fill="#BAD450" id="Path" stroke="none" />
                        <path
                            d="M23.603 7.54518C22.7573 7.54518 22.072 6.8604 22.072 6.01575L22.072 1.52943C22.072 0.684776 22.7573 0 23.603 0C24.4488 0 25.134 0.684776 25.134 1.52943L25.134 6.01575C25.134 6.8604 24.4486 7.54518 23.603 7.54518Z"
                            fill="#BAD450" id="Path" stroke="none" />
                        <path
                            d="M32.4318 7.54518C31.5861 7.54518 30.9008 6.8604 30.9008 6.01575L30.9008 1.52943C30.9008 0.684776 31.5861 0 32.4318 0C33.2776 0 33.9629 0.684776 33.9629 1.52943L33.9629 6.01575C33.9629 6.8604 33.2774 7.54518 32.4318 7.54518Z"
                            fill="#BAD450" id="Path" stroke="none" />
                    </g>
                    <path
                        d="M17.113 38.8479L36.4378 38.8479L36.4378 52.9998L17.113 52.9998L17.113 38.8479Z"
                        fill="#BAD450" id="Path" stroke="none" />
                    <path
                        d="M59.7454 31.9826C59.7454 29.5424 58.5868 27.5642 57.1572 27.5642C55.7279 27.5642 54.569 29.5424 54.569 31.9826C54.569 34.4227 55.7277 34.3616 57.1572 34.3616C58.5868 34.3616 59.7454 34.4227 59.7454 31.9826L59.7454 31.9826Z"
                        fill="#526071" id="Path" stroke="none" />
                    <path
                        d="M42.5618 38.8479L61.8866 38.8479L61.8866 52.9998L42.5618 52.9998L42.5618 38.8479Z"
                        fill="#BAD450" id="Path" stroke="none" />
                    <path d="M17.113 45.3531L36.4378 45.3531L36.4378 53L17.113 53L17.113 45.3531Z"
                        fill="#AAC249" id="Path" stroke="none" />
                    <path
                        d="M42.5618 45.3531L61.8866 45.3531L61.8866 53L42.5618 53L42.5618 45.3531Z"
                        fill="#AAC249" id="Path" stroke="none" />
                    <path
                        d="M17.113 43.0964L36.4378 43.0964L36.4378 46.1553L17.113 46.1553L17.113 43.0964Z"
                        fill="#8F7855" id="Path" stroke="none" />
                    <path
                        d="M42.5618 43.0964L61.8866 43.0964L61.8866 46.1553L42.5618 46.1553L42.5618 43.0964Z"
                        fill="#8F7855" id="Path" stroke="none" />
                </g>
            </g>
        </g>
        <g id="coins-2" transform="translate(63 24)">
            <g id="coins" transform="matrix(1 0 0 1 1.7053026E-13 0)">
                <g id="Group" transform="translate(0 5.800192)">
                    <path
                        d="M22.365 1.44037L22.365 4.35859C22.365 5.15445 21.7302 5.79958 20.947 5.79958L3.96515 5.79958C3.18198 5.79958 2.54714 5.15445 2.54714 4.35859L2.54714 1.44037C2.54714 0.645122 3.18198 0 3.96515 0L20.947 0C21.7302 8.74367e-16 22.365 0.645122 22.365 1.44037Z"
                        fill="#DD9F3A" id="Path" stroke="none" />
                    <path
                        d="M19.8179 7.24044L19.8179 10.1587C19.8179 10.9545 19.1831 11.5996 18.3999 11.5996L1.41801 11.5996C0.634833 11.5996 0 10.9545 0 10.1587L0 7.24044C0 6.44519 0.634833 5.80007 1.41801 5.80007L18.3998 5.80007C19.1831 5.80007 19.8179 6.44519 19.8179 7.24044Z"
                        fill="#DD9F3A" id="Path" stroke="none" />
                    <path
                        d="M20.7731 13.0404L20.7731 15.9586C20.7731 16.7545 20.1382 17.3996 19.3551 17.3996L2.37319 17.3996C1.59002 17.3996 0.955187 16.7545 0.955187 15.9586L0.955187 13.0404C0.955187 12.2451 1.59002 11.6 2.37319 11.6L19.355 11.6C20.1382 11.6 20.7731 12.2451 20.7731 13.0404Z"
                        fill="#DD9F3A" id="Path" stroke="none" />
                    <path
                        d="M19.8179 18.8405L19.8179 21.7587C19.8179 22.5545 19.1831 23.1997 18.3999 23.1997L1.41801 23.1997C0.634833 23.1997 0 22.5545 0 21.7587L0 18.8405C0 18.0452 0.634833 17.4001 1.41801 17.4001L18.3998 17.4001C19.1831 17.4001 19.8179 18.0452 19.8179 18.8405Z"
                        fill="#DD9F3A" id="Path" stroke="none" />
                </g>
                <path
                    d="M19.818 24.6407L19.818 26.653C19.818 27.3972 19.2628 28.0099 18.5503 28.0863C18.5006 28.0914 18.4509 28.094 18.4 28.094L4.90811 28.094C4.12554 28.094 3.49071 27.4489 3.49071 26.653L3.49071 24.6407C3.49071 23.8455 4.12554 23.2003 4.90811 23.2003L18.4 23.2003C19.1832 23.2003 19.818 23.8455 19.818 24.6407Z"
                    fill="#F4B74A" id="SVGCleanerId_0" stroke="none" />
                <path
                    d="M19.818 24.6407L19.818 26.653C19.818 27.3972 19.2628 28.0099 18.5503 28.0863C18.5006 28.0914 18.4509 28.094 18.4 28.094L4.90811 28.094C4.12554 28.094 3.49071 27.4489 3.49071 26.653L3.49071 24.6407C3.49071 23.8455 4.12554 23.2003 4.90811 23.2003L18.4 23.2003C19.1832 23.2003 19.818 23.8455 19.818 24.6407Z"
                    fill="#F4B74A" id="SVGCleanerId_0_1_" stroke="none" />
                <g id="Group" transform="translate(3.4906456 5.800315)">
                    <path
                        d="M16.3273 13.0402L16.3273 15.0525C16.3273 15.7967 15.7721 16.4094 15.0596 16.4858C15.0099 16.4909 14.9602 16.4935 14.9093 16.4935L1.4174 16.4935C0.634833 16.4935 8.60422e-16 15.8484 8.60422e-16 15.0525L8.60422e-16 13.0402C8.60422e-16 12.245 0.634833 11.5998 1.4174 11.5998L14.9093 11.5998C15.6925 11.5998 16.3273 12.2449 16.3273 13.0402Z"
                        fill="#F4B74A" id="Path" stroke="none" />
                    <path
                        d="M16.3273 7.24063L16.3273 9.25296C16.3273 9.99708 15.7721 10.6098 15.0596 10.6862C15.0099 10.6914 14.9602 10.694 14.9093 10.694L1.4174 10.694C0.634833 10.694 8.60422e-16 10.0488 8.60422e-16 9.25296L8.60422e-16 7.24063C8.60422e-16 6.44538 0.634833 5.80025 1.4174 5.80025L14.9093 5.80025C15.6925 5.80025 16.3273 6.44538 16.3273 7.24063Z"
                        fill="#F4B74A" id="Path" stroke="none" />
                    <path
                        d="M18.8743 1.44037L18.8743 3.45271C18.8743 4.19683 18.319 4.80959 17.6065 4.88595C17.5569 4.89111 17.5072 4.8937 17.4563 4.8937L3.96436 4.8937C3.1818 4.8937 2.54696 4.24858 2.54696 3.45271L2.54696 1.44037C2.54696 0.645122 3.1818 1.74873e-15 3.96436 1.74873e-15L17.4563 1.74873e-15C18.2395 3.49747e-15 18.8743 0.645122 18.8743 1.44037Z"
                        fill="#F4B74A" id="Path" stroke="none" />
                </g>
                <g id="Group" transform="translate(0 0.00012305619)">
                    <path
                        d="M19.8179 24.6406L19.8179 27.5589C19.8179 28.303 19.2627 28.9157 18.5502 28.9921C18.4209 28.9973 18.2917 28.9999 18.1624 28.9999C16.7922 28.9999 15.4219 28.7132 14.1459 28.1386C13.2894 27.7537 12.4769 27.2386 11.7345 26.5948C11.5359 26.4227 11.3436 26.2415 11.1558 26.0512C10.3172 25.1991 9.66067 24.2323 9.18568 23.2003L18.3999 23.2003C19.1831 23.2003 19.8179 23.8454 19.8179 24.6406Z"
                        fill="#DD9F3A" id="Path" stroke="none" />
                    <path
                        d="M19.8179 18.8404L19.8179 21.7586C19.8179 22.5545 19.1831 23.1996 18.3999 23.1996L10.1395 23.1996C9.30096 21.3781 9.02844 19.3535 9.32258 17.4L18.3999 17.4C19.1831 17.4 19.8179 18.0451 19.8179 18.8404Z"
                        fill="#DD9F3A" id="Path" stroke="none" />
                    <path
                        d="M19.8179 1.44037L19.8179 4.35859C19.8179 5.15445 19.1831 5.79958 18.3999 5.79958L1.41801 5.79958C0.634833 5.79964 0 5.15452 0 4.35865L0 1.44037C0 0.645122 0.634833 6.55775e-16 1.41801 6.55775e-16L18.3998 6.55775e-16C19.1831 6.15281e-05 19.8179 0.645184 19.8179 1.44037Z"
                        fill="#DD9F3A" id="Path" stroke="none" />
                </g>
                <path
                    d="M19.818 1.44037L19.818 3.45271C19.818 4.19683 19.2628 4.80959 18.5503 4.88595C18.5006 4.89111 18.4509 4.8937 18.4 4.8937L4.90811 4.8937C4.12554 4.8937 3.49071 4.24858 3.49071 3.45271L3.49071 1.44037C3.49071 0.645122 4.12554 8.74367e-16 4.90811 8.74367e-16L18.4 8.74367e-16C19.1832 6.15281e-05 19.818 0.645184 19.818 1.44037Z"
                    fill="#F4B74A" id="Path" stroke="none" />
                <g id="Group" transform="translate(12.839196 6.1528095E-05)">
                    <path d="M2.56797 0L4.64757 0L4.64757 4.8937L2.56797 4.8937L2.56797 0Z"
                        fill="#F9C662" id="Rectangle" stroke="none" />
                    <path
                        d="M-1.72084e-15 0L1.03977 0L1.03977 4.8937L-1.72084e-15 4.8937L-1.72084e-15 0Z"
                        fill="#F9C662" id="Rectangle" stroke="none" />
                    <path
                        d="M5.07292 5.80044L7.15276 5.80044L7.15276 11.6007L5.07292 11.6007L5.07292 5.80044Z"
                        fill="#F9C662" id="Rectangle" stroke="none" />
                    <path
                        d="M2.50434 5.80044L3.54429 5.80044L3.54429 11.6007L2.50434 11.6007L2.50434 5.80044Z"
                        fill="#F9C662" id="Rectangle" stroke="none" />
                </g>
                <g id="Group" transform="translate(8.367451 8.86178)">
                    <path
                        d="M13.9975 0.35439L13.9975 1.29718C13.9975 2.09305 13.3626 2.73817 12.5795 2.73817L4.59405 2.73817C7.18497 0.255945 10.7698 -0.538568 13.9975 0.35439Z"
                        fill="#DD9F3A" id="Path" stroke="none" />
                    <path
                        d="M11.4505 4.17916L11.4505 7.09738C11.4505 7.89324 10.8157 8.53836 10.0325 8.53836L-1.72084e-15 8.53836C0.307517 6.49237 1.23721 4.52464 2.78764 2.94909C2.85829 2.87729 2.92962 2.80739 3.00161 2.73879L10.0325 2.73879C10.8157 2.73879 11.4505 3.38391 11.4505 4.17916Z"
                        fill="#DD9F3A" id="Path" stroke="none" />
                </g>
                <path
                    d="M28.098 26.051C25.1174 29.0793 20.7113 29.7755 17.0751 28.1386C16.2187 27.7535 15.4058 27.2389 14.6638 26.595C14.4651 26.423 14.2723 26.2413 14.0845 26.051C10.2151 22.1184 10.2151 15.743 14.0845 11.8104C17.9544 7.87824 24.2281 7.87824 28.098 11.8104C28.2858 12.0012 28.464 12.1971 28.6333 12.399C29.267 13.1526 29.7734 13.9791 30.1523 14.8494C31.7632 18.544 31.0781 23.0222 28.098 26.051Z"
                    fill="#F4B74A" id="Path" stroke="none" />
                <path
                    d="M30.1523 14.8494L17.0751 28.1386C16.2187 27.7535 15.4058 27.2389 14.6638 26.595L28.6333 12.399C29.2669 13.1526 29.7733 13.9792 30.1523 14.8494Z"
                    fill="#F9C662" id="Path" stroke="none" />
                <path
                    d="M28.098 18.9307C28.098 22.8631 24.9609 26.0509 21.0913 26.0509C18.907 26.0509 16.9564 25.0355 15.6712 23.4434C14.6794 22.215 14.0846 20.6434 14.0846 18.9307C14.0846 14.9983 17.2217 11.8105 21.0913 11.8105C22.7771 11.8105 24.3237 12.4158 25.5324 13.4236C27.0987 14.7291 28.098 16.7115 28.098 18.9307Z"
                    fill="#FFD488" id="Path" stroke="none" />
                <path
                    d="M25.5324 13.4236L15.672 23.4437L15.6711 23.4433C15.3816 23.0849 15.126 22.697 14.9095 22.285C14.6626 21.8168 14.4663 21.3178 14.3271 20.7942C14.169 20.2001 14.0846 19.5752 14.0846 18.9307C14.0846 14.9983 17.2216 11.8104 21.0912 11.8104C21.726 11.8104 22.3409 11.8961 22.925 12.0569C23.4403 12.1984 23.9313 12.3983 24.3921 12.6492C24.7976 12.8693 25.1792 13.1295 25.5324 13.4236Z"
                    fill="#F9C662" id="Path" stroke="none" />
                <path
                    d="M24.3921 12.6492L14.9095 22.285C14.6627 21.8168 14.4664 21.3178 14.3271 20.7942L22.9251 12.0569C23.4403 12.1984 23.9314 12.3983 24.3921 12.6492Z"
                    fill="#FFD488" id="Path" stroke="none" />
            </g>
            <g filter="url(#filter_1)" id="Group-17" transform="translate(17.714285 15.615385)">
                <path
                    d="M0 0L3.49184 0Q3.59225 0 3.69218 0.0098418Q3.7921 0.0196836 3.89058 0.0392724Q3.98906 0.0588612 4.08515 0.0880084Q4.18123 0.117156 4.274 0.15558Q4.36676 0.194005 4.45532 0.241338Q4.54387 0.28867 4.62736 0.344454Q4.71084 0.400239 4.78846 0.463938Q4.86608 0.527636 4.93708 0.598636Q5.00808 0.669636 5.07178 0.747253Q5.13548 0.82487 5.19126 0.908357Q5.24704 0.991844 5.29438 1.0804Q5.34171 1.16895 5.38013 1.26172Q5.41856 1.35448 5.44771 1.45057Q5.47685 1.54665 5.49644 1.64513Q5.51603 1.74361 5.52587 1.84354Q5.53571 1.94346 5.53571 2.04387L5.53571 2.04587Q5.53571 2.14628 5.52587 2.24621Q5.51603 2.34613 5.49644 2.44461Q5.47685 2.54309 5.44771 2.63918Q5.41856 2.73526 5.38013 2.82803Q5.34171 2.92079 5.29438 3.00935Q5.24704 3.0979 5.19126 3.18139Q5.13548 3.26487 5.07178 3.34249Q5.00808 3.42011 4.93708 3.49111Q4.86608 3.56211 4.78846 3.62581Q4.71084 3.6895 4.62736 3.74529Q4.54387 3.80107 4.45532 3.84841Q4.36676 3.89574 4.274 3.93416Q4.18123 3.97259 4.08515 4.00173Q3.98906 4.03088 3.89058 4.05047Q3.7921 4.07006 3.69218 4.0799Q3.59225 4.08974 3.49184 4.08974L0 4.08974L0 0Z"
                    fill="#DD9F3A" fill-rule="evenodd" id="Rectangle" stroke="none" />
                <path
                    d="M0 3.27179L4.19001 3.27179Q4.31051 3.2718 4.43043 3.28361Q4.55035 3.29542 4.66854 3.31893Q4.78672 3.34243 4.90203 3.37741Q5.01735 3.41239 5.12867 3.45851Q5.24 3.50462 5.34627 3.56142Q5.45255 3.61823 5.55274 3.68517Q5.65293 3.75212 5.74608 3.82857Q5.83923 3.90501 5.92444 3.99022Q6.00964 4.07542 6.08609 4.16857Q6.16253 4.26172 6.22948 4.36191Q6.29642 4.46211 6.35323 4.56838Q6.41003 4.67465 6.45614 4.78598Q6.50226 4.89731 6.53724 5.01262Q6.57222 5.12793 6.59573 5.24611Q6.61924 5.3643 6.63105 5.48422Q6.64286 5.60414 6.64286 5.72464L6.64286 5.72664Q6.64286 5.84714 6.63105 5.96706Q6.61924 6.08698 6.59573 6.20517Q6.57222 6.32335 6.53724 6.43866Q6.50226 6.55398 6.45614 6.6653Q6.41003 6.77663 6.35323 6.8829Q6.29642 6.98918 6.22948 7.08937Q6.16253 7.18956 6.08609 7.28271Q6.00964 7.37586 5.92444 7.46106Q5.83923 7.54627 5.74608 7.62272Q5.65293 7.69916 5.55274 7.76611Q5.45255 7.83305 5.34627 7.88986Q5.24 7.94666 5.12867 7.99277Q5.01735 8.03889 4.90203 8.07387Q4.78672 8.10885 4.66854 8.13236Q4.55035 8.15587 4.43043 8.16768Q4.31051 8.17949 4.19001 8.17949L1.999 8.17949Q1.9008 8.17949 1.80306 8.16986Q1.70533 8.16024 1.60901 8.14108Q1.5127 8.12192 1.41872 8.09341Q1.32474 8.0649 1.23402 8.02732Q1.14329 7.98974 1.05668 7.94345Q0.970069 7.89715 0.888415 7.84259Q0.806761 7.78803 0.730848 7.72573Q0.654935 7.66343 0.585494 7.59399Q0.516052 7.52455 0.453752 7.44864Q0.391452 7.37273 0.336892 7.29107Q0.282333 7.20942 0.236039 7.12281Q0.189746 7.0362 0.152165 6.94547Q0.114584 6.85474 0.0860763 6.76077Q0.057569 6.66679 0.0384102 6.57047Q0.0192515 6.47415 0.00962573 6.37642Q0 6.27869 0 6.18049L0 3.27179Z"
                    fill="#DD9F3A" fill-rule="evenodd" id="Rectangle-Copy-4" stroke="none" />
            </g>
        </g>
    </g>
</svg>