<?xml version="1.0" encoding="utf-8"?>
<svg height="49px" version="1.1" viewBox="0 0 53 49" width="53px"
    xmlns="http://www.w3.org/2000/svg">
    <defs>
        <filter id="filter_1">
            <feColorMatrix in="SourceGraphic" type="matrix"
                values="0 0 0 0 0.8666667 0 0 0 0 0.62352943 0 0 0 0 0.22745098 0 0 0 1 0" />
        </filter>
    </defs>
    <g id="Group-24-Copy" transform="translate(0.5 0.5)">
        <g id="Group-23" transform="matrix(1 0 0 1 0 -1.4210855E-13)">
            <path
                d="M40.4879 40.9711C33.3538 48.1891 22.8075 49.8485 14.1043 45.9468C12.0545 45.029 10.1088 43.8025 8.33265 42.2677C7.85702 41.8578 7.39559 41.4247 6.94619 40.9711C-2.3154 31.5978 -2.3154 16.4024 6.94619 7.02909C16.2089 -2.34303 31.2252 -2.34303 40.4879 7.02909C40.9373 7.48385 41.364 7.95079 41.7692 8.43209C43.2859 10.2281 44.4979 12.1982 45.4049 14.2726C49.2606 23.0785 47.6208 33.752 40.4879 40.9711Z"
                fill="#DD9F3A" id="Path-Copy" stroke="none" />
            <path
                d="M45.054 40.9711C37.9199 48.1891 27.3736 49.8485 18.6704 45.9468C16.6206 45.029 14.6749 43.8025 12.8988 42.2677C12.4231 41.8578 11.9617 41.4247 11.5123 40.9711C2.25072 31.5978 2.25072 16.4024 11.5123 7.02909C20.7751 -2.34303 35.7913 -2.34303 45.054 7.02909C45.5034 7.48385 45.9301 7.95079 46.3353 8.43209C47.852 10.2281 49.064 12.1982 49.9711 14.2726C53.8267 23.0785 52.1869 33.752 45.054 40.9711Z"
                fill="#F4B74A" id="Path" stroke="none" />
            <path
                d="M49.9709 14.2726L18.6704 45.9468C16.6206 45.0289 14.6749 43.8025 12.8988 42.2677L46.3353 8.43209C47.8519 10.2281 49.0639 12.1984 49.9709 14.2726Z"
                fill="#F9C662" id="Path" stroke="none" />
            <path
                d="M45.0539 24.0002C45.0539 33.3729 37.5453 40.971 28.2832 40.971C23.0549 40.971 18.3862 38.5508 15.31 34.756C12.9362 31.8282 11.5126 28.0823 11.5126 24.0002C11.5126 14.6275 19.0212 7.02939 28.2832 7.02939C32.3181 7.02939 36.02 8.47198 38.913 10.8743C42.6621 13.9859 45.0539 18.7107 45.0539 24.0002Z"
                fill="#FFD488" id="Path" stroke="none" />
            <path
                d="M38.913 10.8741L15.312 34.7568L15.3098 34.7558C14.6169 33.9016 14.0051 32.9769 13.4869 31.995C12.896 30.879 12.4262 29.6896 12.0929 28.4416C11.7145 27.0257 11.5125 25.5362 11.5125 24C11.5125 14.6273 19.0211 7.02924 28.2831 7.02924C29.8023 7.02924 31.2741 7.23338 32.6723 7.61657C33.9056 7.95387 35.0809 8.43048 36.1837 9.02837C37.1543 9.55294 38.0679 10.1731 38.913 10.8741Z"
                fill="#F9C662" id="Path" stroke="none" />
            <path
                d="M36.1839 9.02837L13.487 31.9951C12.8962 30.8791 12.4263 29.6898 12.093 28.4418L32.6726 7.61657C33.9056 7.95387 35.081 8.43048 36.1839 9.02837Z"
                fill="#FFD488" id="Path" stroke="none" />
            <g filter="url(#filter_1)" id="Group-17-Copy"
                transform="translate(20.037174 14.591726)">
                <path
                    d="M0 0L9.37408 0Q9.49425 0 9.61427 0.00589629Q9.73429 0.0117926 9.85388 0.023571Q9.97346 0.0353493 10.0923 0.0529814Q10.2112 0.0706135 10.3291 0.0940568Q10.4469 0.1175 10.5635 0.146698Q10.68 0.175896 10.795 0.210779Q10.91 0.245661 11.0232 0.286144Q11.1363 0.326627 11.2473 0.372613Q11.3583 0.418598 11.467 0.469976Q11.5756 0.521354 11.6816 0.578Q11.7876 0.634646 11.8906 0.696424Q11.9937 0.758202 12.0936 0.824963Q12.1935 0.891724 12.29 0.963307Q12.3866 1.03489 12.4795 1.11112Q12.5723 1.18736 12.6614 1.26805Q12.7504 1.34875 12.8354 1.43372Q12.9204 1.51869 13.0011 1.60773Q13.0818 1.69677 13.158 1.78966Q13.2342 1.88255 13.3058 1.97907Q13.3774 2.07559 13.4442 2.1755Q13.5109 2.27542 13.5727 2.37849Q13.6345 2.48156 13.6911 2.58753Q13.7478 2.69351 13.7991 2.80214Q13.8505 2.91077 13.8965 3.02179Q13.9425 3.13281 13.983 3.24595Q14.0235 3.35909 14.0583 3.47408Q14.0932 3.58908 14.1224 3.70564Q14.1516 3.82221 14.1751 3.94006Q14.1985 4.05792 14.2161 4.17679Q14.2338 4.29565 14.2455 4.41524Q14.2573 4.53483 14.2632 4.65485Q14.2691 4.77487 14.2691 4.89504L14.2691 4.89704Q14.2691 5.01721 14.2632 5.13723Q14.2573 5.25725 14.2455 5.37684Q14.2338 5.49643 14.2161 5.61529Q14.1985 5.73416 14.1751 5.85201Q14.1516 5.96987 14.1224 6.08644Q14.0932 6.203 14.0583 6.318Q14.0235 6.43299 13.983 6.54613Q13.9425 6.65927 13.8965 6.77029Q13.8505 6.88131 13.7991 6.98994Q13.7478 7.09857 13.6911 7.20455Q13.6345 7.31052 13.5727 7.41359Q13.5109 7.51666 13.4442 7.61658Q13.3774 7.71649 13.3058 7.81301Q13.2342 7.90953 13.158 8.00242Q13.0818 8.09531 13.0011 8.18435Q12.9204 8.27339 12.8354 8.35836Q12.7504 8.44333 12.6614 8.52402Q12.5723 8.60472 12.4795 8.68096Q12.3866 8.75719 12.29 8.82877Q12.1935 8.90035 12.0936 8.96711Q11.9937 9.03388 11.8906 9.09565Q11.7876 9.15743 11.6816 9.21408Q11.5756 9.27072 11.467 9.3221Q11.3583 9.37348 11.2473 9.41947Q11.1363 9.46545 11.0232 9.50593Q10.91 9.54642 10.795 9.5813Q10.68 9.61618 10.5635 9.64538Q10.4469 9.67458 10.3291 9.69802Q10.2112 9.72147 10.0923 9.7391Q9.97346 9.75673 9.85388 9.76851Q9.73429 9.78029 9.61427 9.78618Q9.49425 9.79208 9.37408 9.79208L0 9.79208L0 0Z"
                    fill="#DD9F3A" fill-rule="evenodd" id="Rectangle" stroke="none" />
                <path
                    d="M0 7.83366L11.2487 7.83366Q11.3929 7.83366 11.5369 7.84074Q11.681 7.84782 11.8245 7.86195Q11.968 7.87608 12.1106 7.89724Q12.2533 7.9184 12.3947 7.94654Q12.5361 7.97467 12.676 8.00971Q12.8159 8.04475 12.9539 8.08661Q13.0919 8.12847 13.2277 8.17705Q13.3634 8.22563 13.4967 8.28081Q13.6299 8.336 13.7603 8.39765Q13.8906 8.45931 14.0178 8.52729Q14.145 8.59527 14.2687 8.6694Q14.3923 8.74354 14.5122 8.82365Q14.6322 8.90377 14.748 8.98967Q14.8638 9.07557 14.9753 9.16706Q15.0867 9.25854 15.1936 9.35538Q15.3004 9.45222 15.4024 9.55419Q15.5044 9.65616 15.6012 9.76301Q15.6981 9.86986 15.7895 9.98133Q15.881 10.0928 15.9669 10.2086Q16.0528 10.3245 16.1329 10.4444Q16.2131 10.5643 16.2872 10.6879Q16.3613 10.8116 16.4293 10.9388Q16.4973 11.066 16.5589 11.1963Q16.6206 11.3267 16.6758 11.4599Q16.731 11.5932 16.7796 11.7289Q16.8281 11.8647 16.87 12.0027Q16.9119 12.1407 16.9469 12.2806Q16.9819 12.4205 17.0101 12.5619Q17.0382 12.7033 17.0594 12.846Q17.0805 12.9886 17.0947 13.1321Q17.1088 13.2756 17.1159 13.4197Q17.1229 13.5637 17.1229 13.7079L17.1229 13.7099Q17.1229 13.8541 17.1159 13.9981Q17.1088 14.1422 17.0947 14.2857Q17.0805 14.4292 17.0594 14.5718Q17.0382 14.7145 17.0101 14.8559Q16.9819 14.9974 16.9469 15.1372Q16.9119 15.2771 16.87 15.4151Q16.8281 15.5531 16.7796 15.6889Q16.731 15.8247 16.6758 15.9579Q16.6206 16.0911 16.5589 16.2215Q16.4973 16.3518 16.4293 16.479Q16.3613 16.6062 16.2872 16.7299Q16.2131 16.8536 16.133 16.9735Q16.0528 17.0934 15.9669 17.2092Q15.881 17.325 15.7895 17.4365Q15.6981 17.548 15.6012 17.6548Q15.5044 17.7617 15.4024 17.8636Q15.3004 17.9656 15.1936 18.0624Q15.0867 18.1593 14.9753 18.2508Q14.8638 18.3422 14.748 18.4282Q14.6322 18.5141 14.5122 18.5942Q14.3923 18.6743 14.2687 18.7484Q14.145 18.8226 14.0178 18.8905Q13.8906 18.9585 13.7603 19.0202Q13.6299 19.0818 13.4967 19.137Q13.3634 19.1922 13.2277 19.2408Q13.0919 19.2894 12.9539 19.3312Q12.8159 19.3731 12.676 19.4081Q12.5361 19.4432 12.3947 19.4713Q12.2533 19.4994 12.1106 19.5206Q11.968 19.5417 11.8245 19.5559Q11.681 19.57 11.5369 19.5771Q11.3929 19.5842 11.2487 19.5842L1.999 19.5842Q1.9008 19.5842 1.80306 19.5745Q1.70533 19.5649 1.60901 19.5457Q1.5127 19.5266 1.41872 19.4981Q1.32474 19.4696 1.23402 19.432Q1.14329 19.3944 1.05668 19.3481Q0.970069 19.3018 0.888415 19.2473Q0.806761 19.1927 0.730848 19.1304Q0.654935 19.0681 0.585494 18.9987Q0.516052 18.9292 0.453752 18.8533Q0.391452 18.7774 0.336892 18.6957Q0.282333 18.6141 0.236039 18.5275Q0.189746 18.4409 0.152165 18.3501Q0.114584 18.2594 0.0860763 18.1654Q0.057569 18.0715 0.0384102 17.9751Q0.0192515 17.8788 0.00962573 17.7811Q0 17.6834 0 17.5852L0 7.83366Z"
                    fill="#DD9F3A" fill-rule="evenodd" id="Rectangle-Copy-4" stroke="none" />
            </g>
        </g>
    </g>
</svg>