<?xml version="1.0" encoding="utf-8"?>
<svg xmlns:xlink="http://www.w3.org/1999/xlink" height="24px" version="1.1" viewBox="0 0 36 24"
    width="36px" xmlns="http://www.w3.org/2000/svg">
    <defs>
        <rect height="23.999985" id="artboard_1" width="36" />
        <clipPath id="clip_1">
            <use clip-rule="evenodd" xlink:href="#artboard_1" />
        </clipPath>
    </defs>
    <g clip-path="url(#clip_1)" id="ic_crown">
        <g id="crown-2">
            <g id="crown">
                <path
                    d="M33.0049 2.99996C31.3478 2.99996 30.0044 4.34314 30.0044 5.99998C30.005 6.31449 30.0557 6.62689 30.1544 6.92551L27.721 8.47203C26.1188 9.49269 24.0065 9.15442 22.8033 7.68453L20.4179 4.76705C20.7975 4.25609 21.0027 3.63657 21.003 3.00003C21.003 1.34318 19.6596 0 18.0025 0C16.3454 0 15.0021 1.34318 15.0021 3.00003C15.0023 3.63657 15.2075 4.25609 15.5871 4.76705L13.2018 7.68453C11.9988 9.15357 9.8874 9.49178 8.28559 8.47203L5.85087 6.92551C5.94967 6.62689 6.0003 6.31449 6.00086 5.99998C6.00115 4.34314 4.65805 2.99975 3.00089 2.99946C1.34387 2.99918 0.000281342 4.34215 4.99171e-08 5.999C-0.000281242 7.55431 1.18832 8.85193 2.73788 8.98799L4.51114 19.623C4.57127 19.9846 4.88407 20.2498 5.25073 20.25L30.7545 20.25C31.1212 20.2498 31.434 19.9846 31.4941 19.623L33.2674 8.98799C34.9179 8.83998 36.1358 7.38219 35.9878 5.73195C35.8493 4.18725 34.556 3.00284 33.0049 2.99996Z"
                    fill="#F4B74A" id="Path" stroke="none" />
                <path
                    d="M18.0027 23.25C25.0453 23.25 30.7545 21.5711 30.7545 19.5C30.7545 17.4289 25.0453 15.75 18.0027 15.75C10.96 15.75 5.2508 17.4289 5.2508 19.5C5.2508 21.5711 10.96 23.25 18.0027 23.25Z"
                    fill="#BD954E" id="Oval" stroke="none" />
                <path
                    d="M18.0027 24C11.2922 24 4.50067 22.455 4.50067 19.5C4.50067 16.545 11.2922 15 18.0027 15C24.7132 15 31.5047 16.545 31.5047 19.5C31.5047 22.455 24.7132 24 18.0027 24ZM18.0027 16.5C10.1235 16.5 6.00086 18.4499 6.00086 19.5C6.00086 20.55 10.1235 22.5 18.0027 22.5C25.8819 22.5 30.0045 20.55 30.0045 19.5C30.0045 18.4499 25.8819 16.5 18.0027 16.5Z"
                    fill="#FFD54F" id="Shape" stroke="none" />
            </g>
        </g>
    </g>
</svg>