<?xml version="1.0" encoding="utf-8"?>
<svg xmlns:xlink="http://www.w3.org/1999/xlink" height="70px" version="1.1" viewBox="0 0 70 70"
    width="70px" xmlns="http://www.w3.org/2000/svg">
    <defs>
        <path d="M0 0L7.63026 0L7.63026 7.61347L0 7.61347L0 0Z" id="path_1" />
        <path
            d="M5.3574 0.135304L0.172074 4.8777C0.0621304 4.97891 0 5.12014 0 5.26973L0 5.26973L0 8.43133C0 8.639 0.120209 8.82767 0.30687 8.91298L0.30687 8.91298C0.494612 8.99734 0.713419 8.96257 0.864828 8.82336L0.864828 8.82336L5.70384 4.3982L10.5418 8.82336C10.6943 8.96257 10.9132 8.99842 11.0997 8.91298L11.0997 8.91298C11.2875 8.82767 11.4078 8.639 11.4078 8.43133L11.4078 8.43133L11.4078 5.26973C11.4078 5.12014 11.3446 4.97891 11.2367 4.8777L11.2367 4.8777L6.05137 0.135304C5.95277 0.0451464 5.82837 0 5.70398 0L5.70398 0C5.57971 0 5.45545 0.0451464 5.3574 0.135304L5.3574 0.135304Z"
            id="path_2" />
        <path
            d="M5.3574 0.13517L0.172074 4.87756C0.0621304 4.97864 0 5.12001 0 5.26946L0 5.26946L0 8.43119C0 8.63887 0.120209 8.8274 0.30687 8.91284L0.30687 8.91284C0.494612 8.99707 0.713419 8.96244 0.864828 8.82323L0.864828 8.82323L5.70384 4.39807L10.5418 8.82323C10.6943 8.96244 10.9132 8.99815 11.0997 8.91284L11.0997 8.91284C11.2875 8.8274 11.4078 8.63887 11.4078 8.43119L11.4078 8.43119L11.4078 5.26946C11.4078 5.12001 11.3446 4.97864 11.2367 4.87756L11.2367 4.87756L6.05137 0.13517C5.95277 0.0450116 5.82837 0 5.70398 0L5.70398 0C5.57971 0 5.45545 0.0450116 5.3574 0.13517L5.3574 0.13517Z"
            id="path_3" />
        <rect height="70" id="artboard_1" width="70" />
        <clipPath id="clip_1">
            <use clip-rule="evenodd" xlink:href="#artboard_1" />
        </clipPath>
        <clipPath id="mask_1">
            <use xlink:href="#path_1" />
        </clipPath>
        <clipPath id="mask_2">
            <use xlink:href="#path_2" />
        </clipPath>
        <clipPath id="mask_3">
            <use xlink:href="#path_3" />
        </clipPath>
    </defs>
    <g clip-path="url(#clip_1)" id="ElementsIconEXP">
        <g id="Group-31" transform="translate(20 0)">
            <g id="Group-30">
                <g id="Group-23">
                    <path
                        d="M36.3143 30.2487L35.2331 31.3277C34.6898 31.8697 33.8088 31.8697 33.2654 31.3277L29.37 27.7184L22.0375 20.4022L25.3649 17.0824L32.6972 24.3984L36.3144 28.2853C36.8576 28.8276 36.8576 29.7066 36.3143 30.2487Z"
                        fill="#E59C48" fill-rule="evenodd" id="Fill-1" stroke="none" />
                    <g id="Group-5" transform="translate(29.36974 24.3986)">
                        <path d="M0 0L7.63026 0L7.63026 7.61347L0 7.61347L0 0Z" fill="none"
                            fill-rule="evenodd" id="Clip-4" stroke="none" />
                        <g clip-path="url(#mask_1)">
                            <path
                                d="M7.22279 3.88677L3.32735 0C3.60626 0.537714 3.51996 1.21491 3.06816 1.66583L1.66955 3.06133C1.21762 3.51226 0.538914 3.5981 0 3.31995L3.89544 7.20685C4.43881 7.74901 5.31985 7.74901 5.86322 7.20685L7.22266 5.8503C7.76616 5.308 7.76616 4.42906 7.22279 3.88677Z"
                                fill="#B97C36" fill-rule="evenodd" id="Fill-3" stroke="none" />
                        </g>
                    </g>
                    <path
                        d="M24.1458 25.2948C24.7604 25.2948 25.2585 24.7978 25.2585 24.1846L25.2585 13.2682C25.2585 10.2024 22.7677 9.10555 19.6953 9.10555L6.95474 9.10555C3.88226 9.10555 1.39137 10.2024 1.39137 13.2682L5.40264e-05 20.8194L5.40264e-05 24.1847C5.40264e-05 24.7978 0.498178 25.2949 1.11273 25.2949L2.54159 25.2949C3.15601 25.2949 3.65427 25.7919 3.65427 26.4051L3.65427 28.6255C3.65427 29.2387 3.15614 29.7357 2.54159 29.7357L1.11273 29.7357C0.498178 29.7357 5.40264e-05 30.2327 5.40264e-05 30.846L5.40264e-05 35.6776L1.39137 48.733L5.40264e-05 63.0581L5.40264e-05 67.8898C5.40264e-05 68.5029 0.498178 69 1.11273 69L24.146 69C24.7605 69 25.2586 68.503 25.2586 67.8898L25.2586 30.8459C25.2586 30.2327 24.7605 29.7356 24.146 29.7356L22.7171 29.7356C22.1027 29.7356 21.6044 29.2386 21.6044 28.6254L21.6044 26.405C21.6044 25.7919 22.1025 25.2948 22.7171 25.2948L24.1458 25.2948Z"
                        fill="#E5EFDA" fill-rule="evenodd" id="Fill-6" stroke="none" />
                    <path
                        d="M22.1552 68.9999L25.5373 68.9999C26.1517 68.9999 26.65 68.5029 26.65 67.8897L26.65 63.0579L25.2585 51.3794L26.65 35.6775L26.65 30.8459C26.65 30.2327 26.1518 29.7356 25.5373 29.7356L24.1084 29.7356C23.4939 29.7356 22.9956 29.2386 22.9956 28.6254L22.9956 26.405C22.9956 25.7919 23.4937 25.2948 24.1084 25.2948L25.5373 25.2948C26.1517 25.2948 26.65 24.7978 26.65 24.1846L26.65 20.8192L25.2585 13.2679C25.2585 10.2023 24.1592 7.99469 21.0866 7.99469L17.7047 8.2723C20.7772 8.2723 23.2679 10.2023 23.2679 13.2679L23.2679 24.1847C23.2679 24.7978 22.7698 25.2949 22.1552 25.2949L20.5648 25.2949C19.9503 25.2949 19.4522 25.7919 19.4522 26.4051L19.4522 28.6255C19.4522 29.2387 19.9503 29.7357 20.5648 29.7357L22.1551 29.7357C22.7695 29.7357 23.2678 30.2327 23.2678 30.846L23.2678 67.89C23.2678 68.5029 22.7697 68.9999 22.1552 68.9999Z"
                        fill="#D3E0C5" fill-rule="evenodd" id="Fill-8" stroke="none" />
                    <path
                        d="M10.3235 9.10542L16.3262 9.10542L16.3262 2.48575L10.3235 2.48575L10.3235 9.10542Z"
                        fill="#EEF5F6" fill-rule="evenodd" id="Fill-10" stroke="none" />
                    <path
                        d="M15.6186 3.46887L9.63991 3.46887C8.67986 3.46887 7.90161 2.69236 7.90161 1.73444C7.90161 0.776532 8.67986 1.34765e-05 9.63991 1.34765e-05L15.6186 1.34765e-05C16.5787 1.34765e-05 17.3569 0.776532 17.3569 1.73444C17.3569 2.69236 16.5785 3.46887 15.6186 3.46887"
                        fill="#BAD450" fill-rule="evenodd" id="Fill-12" stroke="none" />
                    <path
                        d="M19.6952 7.71716L5.56337 7.71716C2.49075 7.71716 0 10.2024 0 13.2682L0 16.2963L25.2586 18.558L25.2586 13.2682C25.2586 10.2024 22.7677 7.71716 19.6952 7.71716Z"
                        fill="#7EBA61" fill-rule="evenodd" id="Fill-13" stroke="none" />
                    <path
                        d="M23.2678 13.2681L23.2678 18.5578L26.6499 16.2962L26.6499 13.2681C26.6499 10.2025 24.159 7.71712 21.0865 7.71712L17.7045 7.71712C20.7771 7.71712 23.2678 10.2025 23.2678 13.2681"
                        fill="#619347" fill-rule="evenodd" id="Fill-14" stroke="none" />
                    <path d="M0 63.0579L25.2586 63.0579L25.2586 35.6775L0 35.6775L0 63.0579Z"
                        fill="#7EBA61" fill-rule="evenodd" id="Fill-15" stroke="none" />
                    <path
                        d="M23.2678 63.0579L26.6499 63.0579L26.6499 35.6775L23.2678 35.6775L23.2678 63.0579Z"
                        fill="#619347" fill-rule="evenodd" id="Fill-16" stroke="none" />
                    <path
                        d="M17.01 0L14.2271 0C15.1873 0 15.9654 0.776518 15.9654 1.73443C15.9654 2.69234 15.1872 3.46886 14.2271 3.46886L17.01 3.46886C17.9701 3.46886 18.7483 2.69234 18.7483 1.73443C18.7483 0.776518 17.9699 0 17.01 0"
                        fill="#AFBF4B" fill-rule="evenodd" id="Fill-17" stroke="none" />
                    <path
                        d="M8.24127 30.7769C7.66481 30.7769 7.19775 30.3107 7.19775 29.7357L7.19775 25.2947C7.19775 24.7197 7.66481 24.2536 8.24127 24.2536C8.81773 24.2536 9.28479 24.7197 9.28479 25.2947L9.28479 29.7357C9.28479 30.3107 8.8176 30.7769 8.24127 30.7769"
                        fill="#7EBA61" fill-rule="evenodd" id="Fill-18" stroke="none" />
                    <path
                        d="M13.325 30.7769C12.7485 30.7769 12.2815 30.3107 12.2815 29.7357L12.2815 25.2947C12.2815 24.7197 12.7485 24.2536 13.325 24.2536C13.9014 24.2536 14.3685 24.7197 14.3685 25.2947L14.3685 29.7357C14.3685 30.3107 13.9013 30.7769 13.325 30.7769"
                        fill="#7EBA61" fill-rule="evenodd" id="Fill-19" stroke="none" />
                    <path
                        d="M18.4087 30.7769C17.8322 30.7769 17.3652 30.3107 17.3652 29.7357L17.3652 25.2947C17.3652 24.7197 17.8322 24.2536 18.4087 24.2536C18.9852 24.2536 19.4522 24.7197 19.4522 25.2947L19.4522 29.7357C19.4522 30.3107 18.985 30.7769 18.4087 30.7769"
                        fill="#7EBA61" fill-rule="evenodd" id="Fill-20" stroke="none" />
                    <path
                        d="M23.2678 16.2963L0 16.2963L0 20.8193L23.2678 20.8193L24.6593 18.5578L23.2678 16.2963Z"
                        fill="#FFE177" fill-rule="evenodd" id="Fill-21" stroke="none" />
                    <path
                        d="M23.2678 20.8194L26.6499 20.8194L26.6499 16.2964L23.2678 16.2964L23.2678 20.8194Z"
                        fill="#FFC344" fill-rule="evenodd" id="Fill-22" stroke="none" />
                </g>
                <g id="Group-26" transform="translate(7.6211033 40.40374)">
                    <path
                        d="M5.3574 0.135304L0.172074 4.8777C0.0621304 4.97891 0 5.12014 0 5.26973L0 5.26973L0 8.43133C0 8.639 0.120209 8.82767 0.30687 8.91298L0.30687 8.91298C0.494612 8.99734 0.713419 8.96257 0.864828 8.82336L0.864828 8.82336L5.70384 4.3982L10.5418 8.82336C10.6943 8.96257 10.9132 8.99842 11.0997 8.91298L11.0997 8.91298C11.2875 8.82767 11.4078 8.639 11.4078 8.43133L11.4078 8.43133L11.4078 5.26973C11.4078 5.12014 11.3446 4.97891 11.2367 4.8777L11.2367 4.8777L6.05137 0.135304C5.95277 0.0451464 5.82837 0 5.70398 0L5.70398 0C5.57971 0 5.45545 0.0451464 5.3574 0.135304L5.3574 0.135304Z"
                        fill="none" fill-rule="evenodd" id="Clip-25" stroke="none" />
                    <g clip-path="url(#mask_2)">
                        <path
                            d="M-3.16892 12.1207L14.5767 12.1207L14.5767 -3.16173L-3.16892 -3.16173L-3.16892 12.1207Z"
                            fill="#BAD450" fill-rule="evenodd" id="Fill-24" stroke="none" />
                    </g>
                </g>
                <g id="Group-29" transform="translate(7.6211033 47.254135)">
                    <path
                        d="M5.3574 0.13517L0.172074 4.87756C0.0621304 4.97864 0 5.12001 0 5.26946L0 5.26946L0 8.43119C0 8.63887 0.120209 8.8274 0.30687 8.91284L0.30687 8.91284C0.494612 8.99707 0.713419 8.96244 0.864828 8.82323L0.864828 8.82323L5.70384 4.39807L10.5418 8.82323C10.6943 8.96244 10.9132 8.99815 11.0997 8.91284L11.0997 8.91284C11.2875 8.8274 11.4078 8.63887 11.4078 8.43119L11.4078 8.43119L11.4078 5.26946C11.4078 5.12001 11.3446 4.97864 11.2367 4.87756L11.2367 4.87756L6.05137 0.13517C5.95277 0.0450116 5.82837 0 5.70398 0L5.70398 0C5.57971 0 5.45545 0.0450116 5.3574 0.13517L5.3574 0.13517Z"
                        fill="none" fill-rule="evenodd" id="Clip-28" stroke="none" />
                    <g clip-path="url(#mask_3)">
                        <path
                            d="M-3.16892 12.1205L14.5767 12.1205L14.5767 -3.16187L-3.16892 -3.16187L-3.16892 12.1205Z"
                            fill="#BAD450" fill-rule="evenodd" id="Fill-27" stroke="none" />
                    </g>
                </g>
            </g>
        </g>
    </g>
</svg>