<?xml version="1.0" encoding="utf-8"?>
<svg xmlns:xlink="http://www.w3.org/1999/xlink" height="24px" version="1.1" viewBox="0 0 24 24"
    width="24px" xmlns="http://www.w3.org/2000/svg">
    <defs>
        <rect height="24" id="artboard_1" width="24" />
        <clipPath id="clip_1">
            <use clip-rule="evenodd" xlink:href="#artboard_1" />
        </clipPath>
    </defs>
    <g clip-path="url(#clip_1)" id="ic_error">
        <g id="1-Protonsiconsalertic_error">
            <g id="1-Protonsiconsalertic_error">
                <g id="Icon-24px">
                    <path d="M0 0L24 0L24 24L0 24L0 0Z" fill="none" fill-rule="evenodd" id="Shape"
                        stroke="none" />
                    <path
                        d="M12 2C6.48 2 2 6.48 2 12C2 17.52 6.48 22 12 22C17.52 22 22 17.52 22 12C22 6.48 17.52 2 12 2L12 2ZM13 17L11 17L11 15L13 15L13 17L13 17ZM13 13L11 13L11 7L13 7L13 13L13 13Z"
                        fill="#ED5D5D" fill-rule="evenodd" id="Shape" stroke="none" />
                </g>
            </g>
        </g>
    </g>
</svg>