<svg fill="none" height="16" viewBox="0 0 22 16" width="22" xmlns="http://www.w3.org/2000/svg">
    <g id="eye.slash.fill">
        <g id="Group">
            <path
                d="M10.9297 14.3872C12.3235 14.3872 13.6192 14.1311 14.7568 13.7093L12.783 11.7355C12.2255 12.0218 11.5927 12.18 10.9297 12.18C8.57933 12.18 6.71854 10.274 6.711 7.98381C6.711 7.3058 6.86921 6.66546 7.14794 6.10045L4.5715 3.50893C2.19845 4.99303 0.714355 7.0798 0.714355 7.98381C0.714355 9.50558 4.97077 14.3872 10.9297 14.3872ZM17.499 12.3306C19.6987 10.8767 21.1376 8.88028 21.1376 7.98381C21.1376 6.45452 16.9565 1.58036 10.9297 1.58036C9.64904 1.58036 8.44368 1.79883 7.35134 2.16044L9.31006 4.11914C9.80725 3.90821 10.3497 3.78767 10.9297 3.78767C13.2576 3.78767 15.141 5.63337 15.141 7.98381C15.141 8.55634 15.0129 9.1063 14.7869 9.58845L17.499 12.3306ZM8.52655 7.81056C8.52655 9.13645 9.61895 10.2062 10.9373 10.2062C11.0428 10.2062 11.1407 10.1986 11.2462 10.1911L8.54166 7.48662C8.53413 7.59205 8.52655 7.70507 8.52655 7.81056ZM13.3254 7.8256C13.3254 6.50725 12.2632 5.4375 10.9297 5.4375C10.8318 5.4375 10.7339 5.44503 10.6435 5.45257L13.3104 8.11939C13.3179 8.029 13.3254 7.92358 13.3254 7.8256ZM16.7908 14.5078C17.0168 14.7413 17.3784 14.7564 17.612 14.5078C17.8606 14.2592 17.8379 13.9202 17.612 13.6867L5.01598 1.09821C4.78997 0.87221 4.42083 0.87221 4.18729 1.09821C3.96882 1.31669 3.96882 1.70089 4.18729 1.91937L16.7908 14.5078Z"
                fill="white" id="Vector" />
        </g>
    </g>
</svg>
