<?xml version="1.0" encoding="utf-8"?>
<svg xmlns:xlink="http://www.w3.org/1999/xlink" height="20px" version="1.1" viewBox="0 0 20 20"
    width="20px" xmlns="http://www.w3.org/2000/svg">
    <defs>
        <rect height="20" id="artboard_1" width="20" />
        <clipPath id="clip_1">
            <use clip-rule="evenodd" xlink:href="#artboard_1" />
        </clipPath>
    </defs>
    <g clip-path="url(#clip_1)" id="IconsExpand">
        <g id="expand-2">
            <g id="expand">
                <path
                    d="M19.9959 0.751097C19.9946 0.738753 19.9923 0.7268 19.9906 0.714651C19.9885 0.699925 19.9868 0.685159 19.9839 0.67051C19.9811 0.656526 19.9773 0.642971 19.9738 0.62926C19.9706 0.616643 19.9679 0.603948 19.9641 0.591448C19.96 0.577971 19.9549 0.564963 19.9502 0.551799C19.9457 0.539338 19.9416 0.52676 19.9365 0.514455C19.9314 0.50215 19.9254 0.490393 19.9198 0.4784C19.9138 0.465744 19.9082 0.452971 19.9016 0.440549C19.8954 0.429064 19.8884 0.418127 19.8817 0.406955C19.8745 0.394806 19.8676 0.382501 19.8596 0.370626C19.8514 0.358283 19.8422 0.346681 19.8333 0.334806C19.8259 0.324923 19.819 0.314767 19.8111 0.305118C19.7938 0.284064 19.7756 0.26379 19.7564 0.244532C19.7562 0.244376 19.7561 0.24422 19.7559 0.244063C19.7558 0.243907 19.7556 0.243829 19.7555 0.243673C19.7362 0.224415 19.716 0.206173 19.6949 0.188868C19.6852 0.180938 19.6751 0.174063 19.6652 0.166641C19.6533 0.157774 19.6417 0.148594 19.6294 0.140352C19.6175 0.132422 19.6052 0.125547 19.593 0.118282C19.5818 0.111602 19.5709 0.10461 19.5595 0.0984379C19.547 0.0917972 19.5343 0.0861722 19.5216 0.0801956C19.5096 0.0745315 19.4978 0.068555 19.4855 0.0634377C19.4732 0.0583596 19.4607 0.054219 19.4482 0.0497658C19.435 0.0450392 19.422 0.0400002 19.4086 0.0359376C19.3961 0.0321486 19.3834 0.0293751 19.3707 0.026211C19.357 0.0227345 19.3435 0.0189063 19.3295 0.0161329C19.3149 0.0132422 19.3001 0.0114844 19.2854 0.00937504C19.2732 0.00765628 19.2613 0.00531252 19.2489 0.00410158C19.2216 0.00144532 19.1941 0 19.1667 0L13.3333 0C12.8731 0 12.5 0.373087 12.5 0.833324C12.5 1.29356 12.8731 1.66665 13.3333 1.66665L17.1548 1.66665L11.0774 7.74409C10.752 8.06952 10.752 8.59718 11.0774 8.92261C11.4029 9.24804 11.9305 9.24804 12.2559 8.92261L18.3333 2.84521L18.3333 6.66671C18.3333 7.12694 18.7064 7.50003 19.1666 7.50003C19.6269 7.50003 20 7.12694 20 6.66671L20 0.833402C20 0.805902 19.9986 0.778441 19.9959 0.751097Z"
                    fill="#ffffff" id="Path" stroke="none" />
                <path
                    d="M7.74406 11.0775L1.66668 17.1549L1.66668 13.3334C1.66668 12.8731 1.29359 12.5 0.833359 12.5C0.373086 12.5 0 12.8731 0 13.3334L0 19.1667C0 19.1942 0.00144531 19.2216 0.00414063 19.2489C0.00535156 19.2612 0.00765625 19.2732 0.00941406 19.2854C0.0115234 19.3001 0.0132422 19.3149 0.0161719 19.3295C0.0189453 19.3435 0.0227734 19.357 0.02625 19.3707C0.0294141 19.3834 0.0321875 19.3961 0.0359766 19.4086C0.0400391 19.422 0.0450781 19.435 0.0498047 19.4482C0.0542969 19.4607 0.0583984 19.4732 0.0634766 19.4855C0.0685547 19.4978 0.0745703 19.5096 0.0802344 19.5216C0.0862109 19.5343 0.0918359 19.547 0.0984766 19.5595C0.104648 19.5709 0.111641 19.5818 0.11832 19.593C0.125586 19.6052 0.132461 19.6175 0.140391 19.6294C0.148633 19.6417 0.157813 19.6533 0.16668 19.6652C0.174102 19.6751 0.180977 19.6852 0.188906 19.6949C0.206211 19.716 0.224453 19.7362 0.243711 19.7555C0.243867 19.7557 0.243945 19.7558 0.244102 19.7559C0.244258 19.7561 0.244414 19.7562 0.24457 19.7564C0.263828 19.7756 0.284102 19.7938 0.305156 19.8111C0.314805 19.8191 0.324961 19.8259 0.334844 19.8333C0.346719 19.8422 0.35832 19.8514 0.370664 19.8596C0.3825 19.8676 0.394805 19.8745 0.406992 19.8817C0.418164 19.8884 0.429063 19.8954 0.440586 19.9016C0.453008 19.9082 0.465781 19.9138 0.478438 19.9198C0.49043 19.9255 0.502227 19.9314 0.514492 19.9365C0.526797 19.9416 0.539336 19.9457 0.551836 19.9502C0.565 19.9549 0.578008 19.96 0.591484 19.9641C0.603984 19.9679 0.61668 19.9706 0.629297 19.9738C0.643008 19.9773 0.656563 19.9811 0.670547 19.9839C0.685195 19.9868 0.699961 19.9885 0.714688 19.9906C0.726836 19.9923 0.738828 19.9946 0.751133 19.9959C0.778477 19.9986 0.805898 20 0.83332 20C0.83332 20 0.833359 20 0.833359 20L6.66668 20C7.12691 20 7.5 19.6269 7.5 19.1667C7.5 18.7064 7.12691 18.3334 6.66668 18.3334L2.8452 18.3334L8.92262 12.2559C9.24805 11.9305 9.24805 11.4028 8.92262 11.0774C8.59719 10.752 8.06953 10.752 7.74406 11.0775Z"
                    fill="#ffffff" id="Path" stroke="none" />
            </g>
        </g>
    </g>
</svg>