<svg fill="none" height="14" viewBox="0 0 21 14" width="21" xmlns="http://www.w3.org/2000/svg">
    <g id="ic_showpassword">
        <path
            d="M10.5001 9.86051C12.0799 9.86051 13.3605 8.57985 13.3605 7.00008C13.3605 5.42031 12.0799 4.13965 10.5001 4.13965C8.92031 4.13965 7.63965 5.42031 7.63965 7.00008C7.63965 8.57985 8.92031 9.86051 10.5001 9.86051Z"
            fill="white" id="Vector" />
        <path
            d="M20.7585 6.21286C18.2988 2.57027 14.3995 0.437454 10.5001 0.464114C6.60077 0.437454 2.70141 2.57027 0.241708 6.21286C0.0843512 6.44519 0.000244141 6.71935 0.000244141 6.99995C0.000244141 7.28055 0.0843512 7.55472 0.241708 7.78704C2.70141 11.4296 6.60077 13.5625 10.5001 13.5358C14.3995 13.5625 18.2988 11.4296 20.7585 7.78704C20.9159 7.55472 21 7.28055 21 6.99995C21 6.71935 20.9159 6.44519 20.7585 6.21286ZM10.5001 11.419C9.62612 11.419 8.77175 11.1598 8.04505 10.6742C7.31834 10.1887 6.75195 9.49851 6.41748 8.69104C6.08301 7.88357 5.9955 6.99505 6.16601 6.13784C6.33652 5.28064 6.75739 4.49324 7.3754 3.87523C7.99342 3.25722 8.78081 2.83635 9.63802 2.66584C10.4952 2.49533 11.3837 2.58284 12.1912 2.91731C12.9987 3.25177 13.6888 3.81817 14.1744 4.54488C14.66 5.27158 14.9191 6.12595 14.9191 6.99995C14.9191 8.17195 14.4536 9.29595 13.6248 10.1247C12.7961 10.9534 11.6721 11.419 10.5001 11.419Z"
            fill="white" id="Vector_2" />
    </g>
</svg>
