<?xml version="1.0" encoding="UTF-8"?>
<svg height="37px" version="1.1" viewBox="0 0 37 37" width="37px"
    xmlns="http://www.w3.org/2000/svg">
    <title>ic_feedback_3@1.5x</title>
    <g fill="none" fill-rule="evenodd" id="Slices" stroke="none" stroke-width="1">
        <g id="Artboard" transform="translate(-405.000000, -1744.000000)">
            <g id="ic_feedback_3" transform="translate(405.004458, 1744.000000)">
                <g fill-rule="nonzero" id="sad-(2)" transform="translate(0.000000, 0.000000)">
                    <circle cx="18.5" cy="18.5" fill="#FFE17D" id="Oval" r="18.5"></circle>
                    <path
                        d="M12.2338477,18.5 L12.2338477,18.5 C11.409875,18.5 10.7419238,17.8320488 10.7419238,17.0080762 L10.7419238,15.8145371 C10.7419238,14.9905645 11.409875,14.3226133 12.2338477,14.3226133 L12.2338477,14.3226133 C13.0578203,14.3226133 13.7257715,14.9905645 13.7257715,15.8145371 L13.7257715,17.0080762 C13.7257715,17.8320488 13.0578203,18.5 12.2338477,18.5 Z"
                        fill="#7D5046" id="Path"></path>
                    <path
                        d="M12.2338477,14.3226133 C12.1316641,14.3226133 12.0319375,14.3330918 11.9354629,14.3526758 L11.9354629,16.4113066 C11.9354629,16.9056758 12.336248,17.3064609 12.8306172,17.3064609 C13.3249863,17.3064609 13.7257715,16.9056758 13.7257715,16.4113066 L13.7257715,15.8145371 C13.7257715,14.9904922 13.0578926,14.3226133 12.2338477,14.3226133 Z"
                        fill="#9C6846" id="Path"></path>
                    <path
                        d="M24.7661523,18.5 L24.7661523,18.5 C23.9421797,18.5 23.2742285,17.8320488 23.2742285,17.0080762 L23.2742285,15.8145371 C23.2742285,14.9905645 23.9421797,14.3226133 24.7661523,14.3226133 L24.7661523,14.3226133 C25.590125,14.3226133 26.2580762,14.9905645 26.2580762,15.8145371 L26.2580762,17.0080762 C26.2580762,17.8320488 25.590125,18.5 24.7661523,18.5 Z"
                        fill="#7D5046" id="Path"></path>
                    <path
                        d="M24.7661523,14.3226133 C24.6639688,14.3226133 24.5642422,14.3330918 24.4677676,14.3526758 L24.4677676,16.4113066 C24.4677676,16.9056758 24.8685527,17.3064609 25.3629219,17.3064609 C25.857291,17.3064609 26.2580762,16.9056758 26.2580762,16.4113066 L26.2580762,15.8145371 C26.2580762,14.9904922 25.590125,14.3226133 24.7661523,14.3226133 Z"
                        fill="#9C6846" id="Path"></path>
                    <path
                        d="M21.1854629,34.3145371 C10.9681875,34.3145371 2.68546289,26.0318125 2.68546289,15.8145371 C2.68546289,11.3899297 4.24069141,7.32975781 6.83177539,4.1463125 C2.66392773,7.53846094 0,12.707332 0,18.5 C0,28.7172754 8.28272461,37 18.5,37 C24.2927402,37 29.4616113,34.336 32.853832,30.1681523 C29.6703145,32.7592363 25.6101426,34.3145371 21.1854629,34.3145371 Z"
                        fill="#FFD164" id="Path"></path>
                </g>
                <rect fill="#AA7346" height="1.5" id="Rectangle" rx="0.5" width="12" x="13"
                    y="26"></rect>
            </g>
        </g>
    </g>
</svg>