<?xml version="1.0" encoding="UTF-8"?>
<svg height="37px" version="1.1" viewBox="0 0 37 37" width="37px"
    xmlns="http://www.w3.org/2000/svg">
    <title>ic_feedback_1@1.5x</title>
    <g fill="none" fill-rule="evenodd" id="Slices" stroke="none" stroke-width="1">
        <g fill-rule="nonzero" id="Artboard" transform="translate(-299.000000, -1744.000000)">
            <g id="ic_feedback_1" transform="translate(299.004458, 1744.000000)">
                <g id="angry" transform="translate(0.000000, 0.000000)">
                    <circle cx="18.5" cy="18.5" fill="#FFE17D" id="Oval" r="18.5"></circle>
                    <path
                        d="M12.2338477,20.2903086 L12.2338477,20.2903086 C11.409875,20.2903086 10.7419238,19.6223574 10.7419238,18.7983848 L10.7419238,17.6048457 C10.7419238,16.780873 11.409875,16.1129219 12.2338477,16.1129219 L12.2338477,16.1129219 C13.0578203,16.1129219 13.7257715,16.780873 13.7257715,17.6048457 L13.7257715,18.7983848 C13.7257715,19.6223574 13.0578203,20.2903086 12.2338477,20.2903086 Z"
                        fill="#7D5046" id="Path"></path>
                    <path
                        d="M12.2338477,16.1129219 C12.1316641,16.1129219 12.0319375,16.1234004 11.9354629,16.1429844 L11.9354629,18.2016152 C11.9354629,18.6959844 12.336248,19.0967695 12.8306172,19.0967695 C13.3249863,19.0967695 13.7257715,18.6959844 13.7257715,18.2016152 L13.7257715,17.6048457 C13.7257715,16.780873 13.0578926,16.1129219 12.2338477,16.1129219 Z"
                        fill="#9C6846" id="Path"></path>
                    <path
                        d="M24.7661523,20.2903086 L24.7661523,20.2903086 C23.9421797,20.2903086 23.2742285,19.6223574 23.2742285,18.7983848 L23.2742285,17.6048457 C23.2742285,16.780873 23.9421797,16.1129219 24.7661523,16.1129219 L24.7661523,16.1129219 C25.590125,16.1129219 26.2580762,16.780873 26.2580762,17.6048457 L26.2580762,18.7983848 C26.2580762,19.6223574 25.590125,20.2903086 24.7661523,20.2903086 Z"
                        fill="#7D5046" id="Path"></path>
                    <path
                        d="M24.7661523,16.1129219 C24.6639688,16.1129219 24.5642422,16.1234004 24.4677676,16.1429844 L24.4677676,18.2016152 C24.4677676,18.6959844 24.8685527,19.0967695 25.3629219,19.0967695 C25.857291,19.0967695 26.2580762,18.6959844 26.2580762,18.2016152 L26.2580762,17.6048457 C26.2580762,16.780873 25.590125,16.1129219 24.7661523,16.1129219 Z"
                        fill="#9C6846" id="Path"></path>
                    <path
                        d="M21.1854629,34.3145371 C10.9681875,34.3145371 2.68546289,26.0318125 2.68546289,15.8145371 C2.68546289,11.3899297 4.24069141,7.32975781 6.83177539,4.1463125 C2.66392773,7.53846094 0,12.707332 0,18.5 C0,28.7172754 8.28272461,37 18.5,37 C24.2927402,37 29.4616113,34.336 32.853832,30.1681523 C29.6703145,32.7592363 25.6101426,34.3145371 21.1854629,34.3145371 Z"
                        fill="#FFD164" id="Path"></path>
                    <g fill="#AA7346" id="Group" transform="translate(8.744141, 11.779297)">
                        <path
                            d="M6.17524219,3.28953125 C6.09712305,3.28953125 6.01791992,3.2770293 5.93922266,3.25108594 L0.568224609,1.46077734 C0.177773437,1.33055469 -0.0338203125,0.908017578 0.0967636719,0.516988281 C0.226119141,0.126537109 0.645765625,-0.0853457031 1.04026367,0.0452382813 L6.41126172,1.83554688 C6.80171289,1.96576953 7.01330664,2.38830664 6.88272266,2.77933594 C6.77894922,3.09166797 6.48757422,3.28953125 6.17524219,3.28953125 Z"
                            id="Path"></path>
                        <path
                            d="M13.3364766,3.28953125 C13.0240723,3.28953125 12.7326973,3.09166797 12.6289961,2.77933594 C12.4984844,2.38830664 12.7100059,1.96576953 13.100457,1.83554688 L18.4714551,0.0452382813 C18.86075,-0.0852734375 19.2850215,0.126537109 19.4149551,0.516988281 C19.5454668,0.908017578 19.3339453,1.33055469 18.9434941,1.46077734 L13.5724961,3.25108594 C13.4944492,3.2770293 13.4145957,3.28953125 13.3364766,3.28953125 Z"
                            id="Path"></path>
                    </g>
                    <path
                        d="M18.4957363,26.9371563 C20.0005234,26.9371563 21.4441738,27.081832 22.7865078,27.346252 C23.210707,27.4298633 23.5382148,26.9960527 23.3720762,26.5968574 C22.5586543,24.6430117 20.6832168,23.2741563 18.4957363,23.2741563 C16.3082559,23.2741563 14.4328184,24.6429395 13.6193965,26.5968574 C13.4531855,26.9960527 13.7807656,27.429791 14.2049648,27.346252 C15.5472988,27.081832 16.9909492,26.9371563 18.4957363,26.9371563 Z"
                        fill="#9C6846" id="Path"></path>
                    <path
                        d="M18.4957363,25.0644648 C20.3003535,25.0644648 21.9511172,25.5344805 23.2439492,26.3123477 C22.3727871,24.5114883 20.5753965,23.2742285 18.4958086,23.2742285 C16.4162207,23.2742285 14.6187578,24.5114883 13.7475957,26.3122754 C15.0403555,25.5344805 16.6911191,25.0644648 18.4957363,25.0644648 Z"
                        fill="#7D5046" id="Path"></path>
                </g>
            </g>
        </g>
    </g>
</svg>