<?xml version="1.0" encoding="UTF-8"?>
<svg height="38px" version="1.1" viewBox="0 0 38 38" width="38px"
    xmlns="http://www.w3.org/2000/svg">
    <title>ic_feedback_4@1.5x</title>
    <g fill="none" fill-rule="evenodd" id="Slices" stroke="none" stroke-width="1">
        <g fill-rule="nonzero" id="Artboard" transform="translate(-457.000000, -1744.000000)">
            <g id="ic_feedback_4" transform="translate(457.004720, 1744.000000)">
                <g id="happy" transform="translate(0.000000, 0.000000)">
                    <circle cx="19" cy="19" fill="#FFE17D" id="Oval" r="19"></circle>
                    <path
                        d="M19,28.3467383 C16.3634531,28.3467383 13.8615391,27.3375859 12.3071758,25.647625 C12.0204687,25.3363516 12.0408047,24.8515547 12.3520781,24.5651445 C12.6633516,24.2787344 13.1487422,24.2987734 13.4348555,24.6103437 C14.704293,25.9906641 16.784793,26.8144922 19,26.8144922 C21.215207,26.8144922 23.295707,25.9905898 24.5652187,24.6103438 C24.851332,24.2987734 25.3367227,24.2787344 25.6479961,24.5651445 C25.9592695,24.8515547 25.9796055,25.3363516 25.6928984,25.647625 C24.1384609,27.3376602 21.6365469,28.3467383 19,28.3467383 Z"
                        fill="#AA7346" id="Path"></path>
                    <path
                        d="M12.5644922,19 L12.5644922,19 C11.71825,19 11.0322461,18.3139961 11.0322461,17.4677539 L11.0322461,16.241957 C11.0322461,15.3957148 11.71825,14.7097109 12.5644922,14.7097109 L12.5644922,14.7097109 C13.4107344,14.7097109 14.0967383,15.3957148 14.0967383,16.241957 L14.0967383,17.4677539 C14.0967383,18.3139961 13.4107344,19 12.5644922,19 Z"
                        fill="#7D5046" id="Path"></path>
                    <path
                        d="M12.5644922,14.7097109 C12.4595469,14.7097109 12.357125,14.7204727 12.258043,14.7405859 L12.258043,16.8548555 C12.258043,17.3625859 12.6696602,17.7742031 13.1773906,17.7742031 C13.6851211,17.7742031 14.0967383,17.3625859 14.0967383,16.8548555 L14.0967383,16.241957 C14.0967383,15.3956406 13.4108086,14.7097109 12.5644922,14.7097109 Z"
                        fill="#9C6846" id="Path"></path>
                    <path
                        d="M25.4355078,19 L25.4355078,19 C24.5892656,19 23.9032617,18.3139961 23.9032617,17.4677539 L23.9032617,16.241957 C23.9032617,15.3957148 24.5892656,14.7097109 25.4355078,14.7097109 L25.4355078,14.7097109 C26.28175,14.7097109 26.9677539,15.3957148 26.9677539,16.241957 L26.9677539,17.4677539 C26.9677539,18.3139961 26.28175,19 25.4355078,19 Z"
                        fill="#7D5046" id="Path"></path>
                    <path
                        d="M25.4355078,14.7097109 C25.3305625,14.7097109 25.2281406,14.7204727 25.1290586,14.7405859 L25.1290586,16.8548555 C25.1290586,17.3625859 25.5406758,17.7742031 26.0484062,17.7742031 C26.5561367,17.7742031 26.9677539,17.3625859 26.9677539,16.8548555 L26.9677539,16.241957 C26.9677539,15.3956406 26.28175,14.7097109 25.4355078,14.7097109 Z"
                        fill="#9C6846" id="Path"></path>
                    <path
                        d="M21.758043,35.241957 C11.264625,35.241957 2.75804297,26.735375 2.75804297,16.241957 C2.75804297,11.6977656 4.35530469,7.52785937 7.01641797,4.258375 C2.73592578,7.74220312 0,13.0507734 0,19 C0,29.493418 8.50658203,38 19,38 C24.9493008,38 30.2578711,35.264 33.7417734,30.9835078 C30.4722148,33.6446211 26.3023086,35.241957 21.758043,35.241957 Z"
                        fill="#FFD164" id="Path"></path>
                </g>
            </g>
        </g>
    </g>
</svg>