<?xml version="1.0" encoding="UTF-8"?>
<svg height="38px" version="1.1" viewBox="0 0 38 38" width="38px"
    xmlns="http://www.w3.org/2000/svg">
    <title>ic_feedback_5@1.5x</title>
    <g fill="none" fill-rule="evenodd" id="Slices" stroke="none" stroke-width="1">
        <g fill-rule="nonzero" id="Artboard" transform="translate(-511.000000, -1744.000000)">
            <g id="ic_feedback_5" transform="translate(511.004130, 1744.000000)">
                <g id="in-love" transform="translate(0.000000, 0.000000)">
                    <circle cx="19" cy="19" fill="#FFE17D" id="Oval" r="19"></circle>
                    <path
                        d="M21.758043,35.241957 C11.264625,35.241957 2.75804297,26.735375 2.75804297,16.241957 C2.75804297,11.6977656 4.35530469,7.52785937 7.01641797,4.258375 C2.73592578,7.74220312 0,13.0507734 0,19 C0,29.493418 8.50658203,38 19,38 C24.9493008,38 30.2578711,35.264 33.7417734,30.9835078 C30.4722148,33.6446211 26.3023086,35.241957 21.758043,35.241957 Z"
                        fill="#FFD164" id="Path"></path>
                    <path
                        d="M18.9956211,23.7344141 C15.5368047,23.7344141 12.2352578,23.3624297 9.20624219,22.6899336 C8.81392187,22.6028008 8.47578125,22.9825039 8.59675781,23.3781641 C9.99362891,27.9462539 14.1168516,31.2601211 18.9955469,31.2601211 C23.8742422,31.2601211 27.9974648,27.9462539 29.3943359,23.3781641 C29.5153125,22.9824297 29.1772461,22.6028008 28.7848516,22.6899336 C25.7559844,23.3624297 22.4544375,23.7344141 18.9956211,23.7344141 Z"
                        fill="#9C6846" id="Path"></path>
                    <path
                        d="M19.0014102,26.3548555 C22.2105547,26.3548555 25.3761328,26.0512266 28.4910937,25.5076484 C28.8572891,24.836043 29.1657422,24.1262148 29.3944102,23.3783125 C29.5154609,22.9825781 29.1773203,22.6029492 28.7849258,22.6900078 C25.7559844,23.3624297 22.4544375,23.7344883 18.9956211,23.7344883 C15.5368047,23.7344883 12.2351836,23.3625039 9.20624219,22.6900078 C8.81392187,22.6029492 8.47578125,22.9825781 8.59675781,23.3783125 C8.82520312,24.1253984 9.13328516,24.8345586 9.49896094,25.5055703 C12.6180039,26.0505586 15.7878867,26.3548555 19.0014102,26.3548555 Z"
                        fill="#7D5046" id="Path"></path>
                    <path
                        d="M13.4108828,18.3700312 C14.4526914,17.0602187 16.9192773,13.5437344 15.5125352,11.1533711 C14.9687344,10.2293477 13.8986484,9.70209766 12.8333867,9.82381641 C11.9682188,9.92267578 11.2740508,10.3771914 10.8385352,11.0025586 C10.6599648,11.2589102 10.3365195,11.3648203 10.0409805,11.2638086 C9.31987109,11.0174023 8.49129297,11.0616367 7.73530078,11.4938125 C6.80444922,12.0259609 6.25374609,13.0840977 6.36203125,14.1507695 C6.64213281,16.9101484 10.71125,18.2858672 12.3261016,18.7254648 C12.7256211,18.8341211 13.1531211,18.6941445 13.4108828,18.3700312 Z"
                        fill="#E6646E" id="Path"></path>
                    <path
                        d="M24.5891172,18.3700312 C23.5473086,17.0602187 21.0807227,13.5437344 22.4874648,11.1533711 C23.0312656,10.2293477 24.1013516,9.70209766 25.1666133,9.82381641 C26.0317812,9.92267578 26.7259492,10.3771914 27.1614648,11.0025586 C27.3400352,11.2589102 27.6634805,11.3648203 27.9590195,11.2638086 C28.6801289,11.0174023 29.508707,11.0616367 30.2646992,11.4938125 C31.1955508,12.0259609 31.7462539,13.0840977 31.6379687,14.1507695 C31.3578672,16.9101484 27.28875,18.2858672 25.6738984,18.7254648 C25.2743789,18.8341211 24.8468789,18.6941445 24.5891172,18.3700312 Z"
                        fill="#E6646E" id="SVGCleanerId_0"></path>
                    <path
                        d="M13.945332,17.1249375 C12.3304805,16.6853398 8.26136328,15.3096211 7.98126172,12.5502422 C7.93754688,12.1196992 8.00567969,11.6924219 8.15834766,11.2986914 C8.01577344,11.3525 7.87408984,11.4143984 7.73530078,11.4938125 C6.80444922,12.0258867 6.25374609,13.0840977 6.36203125,14.1507695 C6.64213281,16.9101484 10.71125,18.2858672 12.3261016,18.7254648 C12.7256211,18.8341953 13.1531211,18.6942188 13.4108828,18.3701055 C13.6504609,18.0689258 13.9660391,17.6472148 14.2919336,17.1530664 C14.1769688,17.1614531 14.0604453,17.1562578 13.945332,17.1249375 Z"
                        fill="#DC4655" id="Path"></path>
                    <path
                        d="M24.5891172,18.3700312 C23.5473086,17.0602187 21.0807227,13.5437344 22.4874648,11.1533711 C23.0312656,10.2293477 24.1013516,9.70209766 25.1666133,9.82381641 C26.0317812,9.92267578 26.7259492,10.3771914 27.1614648,11.0025586 C27.3400352,11.2589102 27.6634805,11.3648203 27.9590195,11.2638086 C28.6801289,11.0174023 29.508707,11.0616367 30.2646992,11.4938125 C31.1955508,12.0259609 31.7462539,13.0840977 31.6379687,14.1507695 C31.3578672,16.9101484 27.28875,18.2858672 25.6738984,18.7254648 C25.2743789,18.8341211 24.8468789,18.6941445 24.5891172,18.3700312 Z"
                        fill="#E6646E" id="SVGCleanerId_0_1_"></path>
                    <path
                        d="M26.6472773,17.995375 C25.6054687,16.6855625 23.1388828,13.1690039 24.545625,10.7787148 C24.7630859,10.4091797 25.0670117,10.1068867 25.4188828,9.88037109 C25.3339023,9.86300391 25.2552305,9.83391016 25.1665391,9.82381641 C24.1012773,9.70209766 23.0311914,10.2293477 22.4873906,11.1533711 C21.0806484,13.5437344 23.5472344,17.060293 24.589043,18.3700312 C24.8468047,18.6940703 25.2743047,18.8341211 25.6738242,18.7253906 C26.0311133,18.6281641 26.5116055,18.4820273 27.0415273,18.2883164 C26.8919766,18.2218164 26.7532617,18.1286719 26.6472773,17.995375 Z"
                        fill="#DC4655" id="Path"></path>
                </g>
            </g>
        </g>
    </g>
</svg>