<svg fill="none" height="34" viewBox="0 0 34 34" width="34" xmlns="http://www.w3.org/2000/svg">
    <g id="Group league">
        <path clip-rule="evenodd"
            d="M17.9306 24.2893C17.3479 23.983 16.6519 23.983 16.0692 24.2893L12.593 26.1169C11.1257 26.8882 9.41085 25.6423 9.69107 24.0085L10.355 20.1376C10.4662 19.4889 10.2512 18.8269 9.77978 18.3674L6.96743 15.626C5.7804 14.4689 6.43542 12.453 8.07586 12.2146L11.9624 11.6499C12.6138 11.5552 13.177 11.1461 13.4683 10.5558L15.2064 7.03397C15.9401 5.54747 18.0597 5.54747 18.7934 7.03397L20.5315 10.5558C20.8228 11.1461 21.386 11.5552 22.0374 11.6499L25.9239 12.2146C27.5644 12.453 28.2194 14.4689 27.0324 15.626L24.22 18.3674C23.7487 18.8269 23.5336 19.4889 23.6448 20.1376L24.3087 24.0085C24.589 25.6423 22.8741 26.8882 21.4068 26.1169L17.9306 24.2893Z"
            fill="url(#paint0_linear_1803_37138)" fill-rule="evenodd" id="Star" />
    </g>
    <defs>
        <linearGradient gradientUnits="userSpaceOnUse" id="paint0_linear_1803_37138" x1="16.9999"
            x2="16.9999" y1="3.39999" y2="30.6">
            <stop stop-color="#FFEDAD" />
            <stop offset="1" stop-color="#FFC806" />
        </linearGradient>
    </defs>
</svg>
