<?xml version="1.0" encoding="UTF-8"?>
<svg height="24px" version="1.1" viewBox="0 0 24 24" width="24px"
    xmlns="http://www.w3.org/2000/svg">
    <path
        d="m21.05 12.626h0.0265l-0.14286 0.1607c-0.24694 0.34206-0.52041 0.64968-0.82449 0.92746l-7.9224 8.9118-7.9204-8.9118c-0.30408-0.27778-0.57755-0.5854-0.82449-0.92746l-0.14286-0.1607h0.0265c-0.70612-1.0468-1.1388-2.337-1.1388-3.7489 0-3.4527 2.4878-6.2511 5.5551-6.2511 1.8265 0 3.4326 1.0032 4.4449 2.5344 1.0122-1.5289 2.6184-2.5344 4.4449-2.5344 3.0674 0 5.5551 2.7984 5.5551 6.2511 0 1.4119-0.43265 2.702-1.1367 3.7489zm-8.8918 0h0.0571c-8e-3 -0.0115-0.0204-0.0207-0.0286-0.0344-8e-3 0.0138-0.0204 0.023-0.0286 0.0344z"
        fill="#BFD365" />
</svg>
