<?xml version="1.0" encoding="utf-8"?>
<svg xmlns:xlink="http://www.w3.org/1999/xlink" height="24px" version="1.1" viewBox="0 0 24 24"
    width="24px" xmlns="http://www.w3.org/2000/svg">
    <defs>
        <rect height="24" id="artboard_1" width="24" />
        <clipPath id="clip_1">
            <use clip-rule="evenodd" xlink:href="#artboard_1" />
        </clipPath>
    </defs>
    <g clip-path="url(#clip_1)" id="1-Protonsiconsactionic_favorite_outline">
        <g id="1-Protonsiconsactionic_favorite_outline">
            <g id="1-Protonsiconsactionic_favorite_outline">
                <g id="iconsactionfavorite_border">
                    <path d="M0 0L24 0L24 24L0 24L0 0Z" fill="none" fill-rule="evenodd" id="Shape"
                        stroke="none" />
                    <path
                        d="M16.5 3C14.76 3 13.09 3.81 12 5.09C10.91 3.81 9.24 3 7.5 3C4.42 3 2 5.42 2 8.5C2 12.28 5.4 15.36 10.55 20.04L12 21.35L13.45 20.03C18.6 15.36 22 12.28 22 8.5C22 5.42 19.58 3 16.5 3L16.5 3ZM12.1 18.55L12 18.65L11.9 18.55C7.14 14.24 4 11.39 4 8.5C4 6.5 5.5 5 7.5 5C9.04 5 10.54 5.99 11.07 7.36L12.94 7.36C13.46 5.99 14.96 5 16.5 5C18.5 5 20 6.5 20 8.5C20 11.39 16.86 14.24 12.1 18.55L12.1 18.55Z"
                        fill="#E0E0E0" fill-rule="evenodd" id="Shape" stroke="none" />
                </g>
            </g>
        </g>
    </g>
</svg>