<?xml version="1.0" encoding="utf-8"?>
<svg height="12px" version="1.1" viewBox="0 0 12 12" width="12px"
    xmlns="http://www.w3.org/2000/svg">
    <g id="Group-19">
        <path
            d="M7.74975 1.26584C7.39172 1.62387 7.37849 2.19114 7.72019 2.53285C7.7852 2.59757 7.86056 2.65106 7.94348 2.69132L7.73668 3.53603C7.60102 4.0927 7.07485 4.47933 6.51173 4.43615L5.39466 4.34983C5.37129 4.16243 5.28786 3.99032 5.15664 3.85898C4.81493 3.51728 4.24766 3.53051 3.88963 3.88854C3.5316 4.24657 3.51837 4.81384 3.86007 5.15555C3.99141 5.28677 4.16352 5.3702 4.35092 5.39357L4.43724 6.51065C4.48029 7.07354 4.09386 7.59948 3.53746 7.73526L2.69245 7.94235C2.65221 7.85941 2.59873 7.78405 2.53398 7.71906C2.19234 7.37729 1.62509 7.39042 1.26698 7.74841C0.908907 8.10637 0.895585 8.67364 1.23723 9.01541C1.55794 9.33623 2.08237 9.34704 2.44523 9.04031L5.02171 10.8505C5.10928 10.9121 5.23156 10.8992 5.31082 10.82L10.8212 5.30968C10.9004 5.23043 10.9133 5.10815 10.8517 5.02058L9.04144 2.44409C9.36752 2.05696 9.33002 1.49315 8.9577 1.18479C8.60919 0.896143 8.08548 0.931302 7.74975 1.26584Z"
            fill="#F4B74A" id="Path" stroke="none" />
        <path
            d="M8.68473 8.68358C10.2064 7.16194 11.0936 5.58214 10.6665 5.15501C10.2394 4.72788 8.65958 5.61515 7.13794 7.13679C5.6163 8.65843 4.72903 10.2382 5.15616 10.6654C5.58329 11.0925 7.16309 10.2052 8.68473 8.68358Z"
            fill="#BD954E" id="Oval" stroke="none" />
        <path
            d="M8.83941 8.83826C7.38954 10.2881 5.60353 11.4369 4.99409 10.8274C4.38464 10.218 5.53338 8.43198 6.98325 6.9821C8.43313 5.53223 10.2191 4.38349 10.8286 4.99294C11.438 5.60238 10.2893 7.38839 8.83941 8.83826ZM7.29261 7.29146C5.59023 8.99384 5.10166 10.2867 5.31822 10.5033C5.53478 10.7199 6.82768 10.2313 8.53006 8.52891C10.2324 6.82653 10.721 5.53363 10.5044 5.31707C10.2879 5.10051 8.99499 5.58908 7.29261 7.29146Z"
            fill="#FFD54F" id="Shape" stroke="none" />
    </g>
</svg>