<?xml version="1.0" encoding="utf-8"?>
<svg xmlns:xlink="http://www.w3.org/1999/xlink" height="48px" version="1.1" viewBox="0 0 48 48"
    width="48px" xmlns="http://www.w3.org/2000/svg">
    <defs>
        <rect height="47.076904" id="artboard_1" width="47.078125" />
        <clipPath id="clip_1">
            <use clip-rule="evenodd" xlink:href="#artboard_1" />
        </clipPath>
    </defs>
    <g clip-path="url(#clip_1)" id="ic_level_15">
        <path
            d="M23.5383 44.4615C35.0938 44.4615 44.4614 35.0939 44.4614 23.5384C44.4614 11.9829 35.0938 2.61536 23.5383 2.61536C11.9828 2.61536 2.61523 11.9829 2.61523 23.5384C2.61523 35.0939 11.9828 44.4615 23.5383 44.4615Z"
            fill="#FFB454" id="Oval" stroke="none" />
        <path
            d="M44.4621 23.5384C44.4621 11.983 35.0945 2.61536 23.5391 2.61536L23.5391 44.4615C35.0945 44.4615 44.4621 35.0939 44.4621 23.5384Z"
            fill="#FF8659" id="Path" stroke="none" />
        <path
            d="M23.5385 47.0769C10.5594 47.0769 0 36.5176 0 23.5385C0 10.5594 10.5594 0 23.5385 0C36.5176 0 47.0769 10.5594 47.0769 23.5385C47.0769 36.5176 36.5176 47.0769 23.5385 47.0769ZM23.5385 5.23077C13.4436 5.23077 5.23077 13.4434 5.23077 23.5385C5.23077 33.6335 13.4436 41.8462 23.5385 41.8462C33.6333 41.8462 41.8462 33.6335 41.8462 23.5385C41.8462 13.4434 33.6333 5.23077 23.5385 5.23077Z"
            fill="#FFE196" id="Shape" stroke="none" />
        <path
            d="M41.8468 23.5385C41.8468 33.6335 33.6339 41.8462 23.5391 41.8462L23.5391 47.0769C36.5182 47.0769 47.0775 36.5176 47.0775 23.5385C47.0775 10.5594 36.5182 0 23.5391 0L23.5391 5.23077C33.6339 5.23077 41.8468 13.4434 41.8468 23.5385Z"
            fill="#FFB454" id="Path" stroke="none" />
        <path
            d="M26.6591 37.8718C26.468 37.8718 26.2763 37.8262 26.1008 37.7339L23.54 36.3876L20.9792 37.7339C20.5749 37.9463 20.085 37.911 19.7154 37.6426C19.3459 37.3741 19.1608 36.9191 19.2381 36.4689L19.7271 33.6173L17.6554 31.5979C17.3283 31.2791 17.2106 30.8022 17.3518 30.3677C17.4929 29.9333 17.8685 29.6167 18.3205 29.5511L21.1835 29.1351L22.4639 26.5406C22.666 26.131 23.0832 25.8718 23.54 25.8718C23.9968 25.8718 24.4139 26.131 24.616 26.5406L25.8964 29.1351L28.7594 29.5511C29.2114 29.6167 29.587 29.9333 29.7282 30.3677C29.8694 30.8022 29.7516 31.2791 29.4246 31.5979L27.3528 33.6173L27.8419 36.4689C27.919 36.9191 27.734 37.374 27.3645 37.6426C27.1555 37.7945 26.9079 37.8718 26.6591 37.8718Z"
            fill="#FFE196" id="Path" stroke="none" />
        <path
            d="M26.0998 37.734C26.2754 37.8262 26.4671 37.8718 26.6581 37.8718C26.9069 37.8718 27.1545 37.7945 27.3635 37.6427C27.733 37.3742 27.9182 36.9192 27.8409 36.469L27.3518 33.6174L29.4236 31.598C29.7506 31.2792 29.8684 30.8023 29.7272 30.3679C29.5861 29.9335 29.2105 29.6168 28.7585 29.5512L25.8954 29.1352L24.6151 26.5408C24.413 26.1312 23.9959 25.8719 23.5391 25.8719L23.5391 36.3877L26.0998 37.734Z"
            fill="#FFB454" id="Path" stroke="none" />
        <path
            d="M18.0704 24.7178C17.8635 24.7178 17.6558 24.6685 17.4657 24.5684L14.6914 23.1099L11.9172 24.5684C11.4792 24.7985 10.9486 24.7603 10.5482 24.4695C10.1478 24.1786 9.9473 23.6857 10.031 23.198L10.5608 20.1088L8.31642 17.9211C7.96212 17.5757 7.83455 17.0591 7.98752 16.5884C8.1404 16.1178 8.54729 15.7748 9.03696 15.7037L12.1386 15.2531L13.5257 12.4424C13.7447 11.9987 14.1966 11.7178 14.6914 11.7178C15.1863 11.7178 15.6381 11.9987 15.8571 12.4424L17.2442 15.2531L20.3458 15.7037C20.8355 15.7748 21.2424 16.1178 21.3953 16.5884C21.5482 17.0591 21.4207 17.5757 21.0664 17.9211L18.822 20.1088L19.3518 23.198C19.4354 23.6857 19.235 24.1785 18.8346 24.4695C18.6082 24.6341 18.34 24.7178 18.0704 24.7178Z"
            fill="#FFE196" id="Path" stroke="none" />
        <path
            d="M35.6056 24.7178C35.3986 24.7178 35.191 24.6685 35.0008 24.5684L32.2266 23.1099L29.4524 24.5684C29.0144 24.7985 28.4837 24.7603 28.0833 24.4695C27.683 24.1786 27.4825 23.6857 27.5662 23.198L28.096 20.1088L25.8516 17.9211C25.4973 17.5757 25.3697 17.0591 25.5227 16.5884C25.6756 16.1178 26.0825 15.7748 26.5721 15.7037L29.6737 15.2531L31.0608 12.4424C31.2798 11.9987 31.7318 11.7178 32.2266 11.7178C32.7214 11.7178 33.1733 11.9987 33.3923 12.4424L34.7794 15.2531L37.881 15.7037C38.3707 15.7748 38.7776 16.1178 38.9304 16.5884C39.0834 17.0591 38.9558 17.5757 38.6015 17.9211L36.3571 20.1088L36.8869 23.198C36.9706 23.6857 36.7701 24.1785 36.3698 24.4695C36.1433 24.6341 35.8751 24.7178 35.6056 24.7178Z"
            fill="#FFB454" id="Path-Copy" stroke="none" />
    </g>
</svg>