<?xml version="1.0" encoding="utf-8"?>
<svg xmlns:xlink="http://www.w3.org/1999/xlink" height="48px" version="1.1" viewBox="0 0 48 48"
    width="48px" xmlns="http://www.w3.org/2000/svg">
    <defs>
        <rect height="47.076904" id="artboard_1" width="47.076935" />
        <clipPath id="clip_1">
            <use clip-rule="evenodd" xlink:href="#artboard_1" />
        </clipPath>
    </defs>
    <g clip-path="url(#clip_1)" id="ic_level_1">
        <path
            d="M23.5385 44.4615C35.094 44.4615 44.4615 35.0939 44.4615 23.5384C44.4615 11.9829 35.094 2.61536 23.5385 2.61536C11.983 2.61536 2.61539 11.9829 2.61539 23.5384C2.61539 35.0939 11.983 44.4615 23.5385 44.4615Z"
            fill="#FFB454" id="Oval" stroke="none" />
        <path
            d="M44.4615 23.5384C44.4615 11.983 35.0939 2.61536 23.5385 2.61536L23.5385 44.4615C35.0939 44.4615 44.4615 35.0939 44.4615 23.5384Z"
            fill="#FF8659" id="Path" stroke="none" />
        <path
            d="M23.5385 47.0769C10.5594 47.0769 0 36.5176 0 23.5385C0 10.5594 10.5594 0 23.5385 0C36.5176 0 47.0769 10.5594 47.0769 23.5385C47.0769 36.5176 36.5176 47.0769 23.5385 47.0769ZM23.5385 5.23077C13.4436 5.23077 5.23077 13.4434 5.23077 23.5385C5.23077 33.6335 13.4436 41.8462 23.5385 41.8462C33.6333 41.8462 41.8462 33.6335 41.8462 23.5385C41.8462 13.4434 33.6333 5.23077 23.5385 5.23077Z"
            fill="#FFE196" id="Shape" stroke="none" />
        <path
            d="M41.8461 23.5385C41.8461 33.6335 33.6333 41.8462 23.5385 41.8462L23.5385 47.0769C36.5176 47.0769 47.0769 36.5176 47.0769 23.5385C47.0769 10.5594 36.5176 0 23.5385 0L23.5385 5.23077C33.6333 5.23077 41.8461 13.4434 41.8461 23.5385Z"
            fill="#FFB454" id="Path" stroke="none" />
    </g>
</svg>