<?xml version="1.0" encoding="utf-8"?>
<svg height="31px" version="1.1" viewBox="0 0 31 31" width="31px"
    xmlns="http://www.w3.org/2000/svg">
    <g id="1-Protonsiconsactionic_lock">
        <g id="1-Protonsiconsactionic_lock">
            <g id="1-Protonsiconsactionic_lock">
                <g id="Icon-24px">
                    <path d="M0 0L31 0L31 31L0 31L0 0Z" fill="none" fill-rule="evenodd" id="Shape"
                        stroke="none" />
                    <path
                        d="M23.25 10.3333L21.9583 10.3333L21.9583 7.75C21.9583 4.185 19.065 1.29167 15.5 1.29167C11.935 1.29167 9.04167 4.185 9.04167 7.75L9.04167 10.3333L7.75 10.3333C6.32917 10.3333 5.16667 11.4958 5.16667 12.9167L5.16667 25.8333C5.16667 27.2542 6.32917 28.4167 7.75 28.4167L23.25 28.4167C24.6708 28.4167 25.8333 27.2542 25.8333 25.8333L25.8333 12.9167C25.8333 11.4958 24.6708 10.3333 23.25 10.3333L23.25 10.3333ZM15.5 21.9583C14.0792 21.9583 12.9167 20.7958 12.9167 19.375C12.9167 17.9542 14.0792 16.7917 15.5 16.7917C16.9208 16.7917 18.0833 17.9542 18.0833 19.375C18.0833 20.7958 16.9208 21.9583 15.5 21.9583L15.5 21.9583ZM19.5042 10.3333L11.4958 10.3333L11.4958 7.75C11.4958 5.54125 13.2913 3.74583 15.5 3.74583C17.7087 3.74583 19.5042 5.54125 19.5042 7.75L19.5042 10.3333L19.5042 10.3333Z"
                        fill="#232323" id="Shape" stroke="none" />
                </g>
            </g>
        </g>
    </g>
</svg>