<?xml version="1.0" encoding="utf-8"?>
<svg height="48px" version="1.1" viewBox="0 0 48 48" width="48px"
    xmlns="http://www.w3.org/2000/svg">
    <g id="Group">
        <path
            d="M23.5388 44.4615C35.0943 44.4615 44.4619 35.094 44.4619 23.5385C44.4619 11.983 35.0943 2.61539 23.5388 2.61539C11.9833 2.61539 2.61572 11.983 2.61572 23.5385C2.61572 35.094 11.9833 44.4615 23.5388 44.4615Z"
            fill="#FFB454" id="Oval" stroke="none" />
        <path
            d="M44.4617 23.5385C44.4617 11.983 35.094 2.61539 23.5386 2.61539L23.5386 44.4615C35.094 44.4615 44.4617 35.0939 44.4617 23.5385Z"
            fill="#FF8659" id="Path" stroke="none" />
        <path
            d="M23.5385 47.0769C10.5594 47.0769 0 36.5176 0 23.5385C0 10.5594 10.5594 0 23.5385 0C36.5176 0 47.0769 10.5594 47.0769 23.5385C47.0769 36.5176 36.5176 47.0769 23.5385 47.0769ZM23.5385 5.23077C13.4436 5.23077 5.23077 13.4434 5.23077 23.5385C5.23077 33.6335 13.4436 41.8462 23.5385 41.8462C33.6333 41.8462 41.8462 33.6335 41.8462 23.5385C41.8462 13.4434 33.6333 5.23077 23.5385 5.23077Z"
            fill="#FFE196" id="Shape" stroke="none" />
        <path
            d="M41.8463 23.5385C41.8463 33.6335 33.6334 41.8462 23.5386 41.8462L23.5386 47.0769C36.5177 47.0769 47.077 36.5176 47.077 23.5385C47.077 10.5594 36.5177 0 23.5386 0L23.5386 5.23077C33.6334 5.23077 41.8463 13.4434 41.8463 23.5385Z"
            fill="#FFB454" id="Path" stroke="none" />
        <path
            d="M30.3367 34.8718C29.9204 34.8718 29.5026 34.7726 29.1201 34.5714L23.5387 31.6371L17.9574 34.5714C17.0762 35.0343 16.0086 34.9574 15.2031 34.3723C14.3977 33.7871 13.9943 32.7954 14.1627 31.8142L15.2285 25.5992L10.7132 21.1979C10.0004 20.503 9.74373 19.4637 10.0515 18.5167C10.359 17.57 11.1777 16.8799 12.1628 16.7369L18.4027 15.8302L21.1934 10.1756C21.634 9.28287 22.5432 8.71777 23.5387 8.71777C24.5343 8.71777 25.4434 9.28287 25.884 10.1756L28.6746 15.8302L34.9145 16.7369C35.8997 16.8799 36.7183 17.57 37.0259 18.5167C37.3336 19.4637 37.0769 20.503 36.3642 21.1979L31.8488 25.5992L32.9146 31.8142C33.0829 32.7954 32.6796 33.7869 31.8742 34.3723C31.4186 34.7034 30.879 34.8718 30.3367 34.8718Z"
            fill="#FFE196" id="Path" stroke="none" />
        <path
            d="M29.1198 34.5714C29.5025 34.7724 29.9203 34.8718 30.3365 34.8718C30.8787 34.8718 31.4184 34.7033 31.874 34.3724C32.6793 33.7873 33.0828 32.7955 32.9144 31.8144L31.8485 25.5994L36.3639 21.198C37.0767 20.5032 37.3333 19.4638 37.0256 18.5169C36.718 17.5701 35.8996 16.88 34.9143 16.737L28.6743 15.8304L25.8837 10.1757C25.4433 9.28302 24.5342 8.71793 23.5386 8.71793L23.5386 31.6371L29.1198 34.5714Z"
            fill="#FFB454" id="Path" stroke="none" />
    </g>
</svg>