<?xml version="1.0" encoding="utf-8"?>
<svg xmlns:xlink="http://www.w3.org/1999/xlink" height="48px" version="1.1" viewBox="0 0 48 48"
    width="48px" xmlns="http://www.w3.org/2000/svg">
    <defs>
        <rect height="47.076904" id="artboard_1" width="47.076935" />
        <clipPath id="clip_1">
            <use clip-rule="evenodd" xlink:href="#artboard_1" />
        </clipPath>
    </defs>
    <g clip-path="url(#clip_1)" id="ic_level_10">
        <path
            d="M23.5385 44.4615C35.094 44.4615 44.4615 35.0939 44.4615 23.5384C44.4615 11.9829 35.094 2.61536 23.5385 2.61536C11.983 2.61536 2.61539 11.9829 2.61539 23.5384C2.61539 35.0939 11.983 44.4615 23.5385 44.4615Z"
            fill="#FFB454" id="Oval" stroke="none" />
        <path
            d="M44.4615 23.5384C44.4615 11.983 35.0939 2.61536 23.5385 2.61536L23.5385 44.4615C35.0939 44.4615 44.4615 35.0939 44.4615 23.5384Z"
            fill="#FF8659" id="Path" stroke="none" />
        <path
            d="M23.5385 47.0769C10.5594 47.0769 0 36.5176 0 23.5385C0 10.5594 10.5594 0 23.5385 0C36.5176 0 47.0769 10.5594 47.0769 23.5385C47.0769 36.5176 36.5176 47.0769 23.5385 47.0769ZM23.5385 5.23077C13.4436 5.23077 5.23077 13.4434 5.23077 23.5385C5.23077 33.6335 13.4436 41.8462 23.5385 41.8462C33.6333 41.8462 41.8462 33.6335 41.8462 23.5385C41.8462 13.4434 33.6333 5.23077 23.5385 5.23077Z"
            fill="#FFE196" id="Shape" stroke="none" />
        <path
            d="M41.8461 23.5385C41.8461 33.6335 33.6333 41.8462 23.5385 41.8462L23.5385 47.0769C36.5176 47.0769 47.0769 36.5176 47.0769 23.5385C47.0769 10.5594 36.5176 0 23.5385 0L23.5385 5.23077C33.6333 5.23077 41.8461 13.4434 41.8461 23.5385Z"
            fill="#FFB454" id="Path" stroke="none" />
        <path
            d="M18.0697 28.7178C17.8628 28.7178 17.6551 28.6685 17.465 28.5684L14.6907 27.1099L11.9165 28.5684C11.4785 28.7985 10.9478 28.7603 10.5475 28.4695C10.1471 28.1786 9.9466 27.6857 10.0303 27.198L10.5601 24.1088L8.31571 21.9211C7.96142 21.5757 7.83385 21.0591 7.98682 20.5884C8.1397 20.1178 8.54659 19.7748 9.03626 19.7037L12.1379 19.2531L13.525 16.4424C13.744 15.9987 14.1959 15.7178 14.6907 15.7178C15.1856 15.7178 15.6374 15.9987 15.8564 16.4424L17.2435 19.2531L20.3451 19.7037C20.8348 19.7748 21.2417 20.1178 21.3946 20.5884C21.5475 21.0591 21.42 21.5757 21.0657 21.9211L18.8213 24.1088L19.3511 27.198C19.4347 27.6857 19.2343 28.1785 18.8339 28.4695C18.6075 28.6341 18.3393 28.7178 18.0697 28.7178Z"
            fill="#FFE196" id="Path" stroke="none" />
        <path
            d="M35.6049 28.7178C35.3979 28.7178 35.1903 28.6685 35.0001 28.5684L32.2259 27.1099L29.4517 28.5684C29.0137 28.7985 28.483 28.7603 28.0826 28.4695C27.6823 28.1786 27.4818 27.6857 27.5655 27.198L28.0953 24.1088L25.8509 21.9211C25.4966 21.5757 25.369 21.0591 25.522 20.5884C25.6749 20.1178 26.0817 19.7748 26.5714 19.7037L29.673 19.2531L31.0601 16.4424C31.2791 15.9987 31.7311 15.7178 32.2259 15.7178C32.7207 15.7178 33.1726 15.9987 33.3916 16.4424L34.7787 19.2531L37.8803 19.7037C38.37 19.7748 38.7769 20.1178 38.9297 20.5884C39.0827 21.0591 38.9551 21.5757 38.6008 21.9211L36.3564 24.1088L36.8862 27.198C36.9699 27.6857 36.7694 28.1785 36.3691 28.4695C36.1426 28.6341 35.8744 28.7178 35.6049 28.7178Z"
            fill="#FFB454" id="Path-Copy" stroke="none" />
    </g>
</svg>