<?xml version="1.0" encoding="utf-8"?>
<svg xmlns:xlink="http://www.w3.org/1999/xlink" height="48px" version="1.1" viewBox="0 0 48 48"
    width="48px" xmlns="http://www.w3.org/2000/svg">
    <defs>
        <rect height="47.076935" id="artboard_1" width="47.076935" />
        <clipPath id="clip_1">
            <use clip-rule="evenodd" xlink:href="#artboard_1" />
        </clipPath>
    </defs>
    <g clip-path="url(#clip_1)" id="ic_level_25">
        <path
            d="M23.5383 44.4616C35.0938 44.4616 44.4614 35.094 44.4614 23.5385C44.4614 11.983 35.0938 2.61542 23.5383 2.61542C11.9828 2.61542 2.61523 11.983 2.61523 23.5385C2.61523 35.094 11.9828 44.4616 23.5383 44.4616Z"
            fill="#FFB454" id="Oval" stroke="none" />
        <path
            d="M44.4621 23.5385C44.4621 11.983 35.0945 2.61542 23.5391 2.61542L23.5391 44.4616C35.0945 44.4616 44.4621 35.094 44.4621 23.5385Z"
            fill="#FF8659" id="Path" stroke="none" />
        <path
            d="M23.5385 47.0769C10.5594 47.0769 0 36.5176 0 23.5385C0 10.5594 10.5594 0 23.5385 0C36.5176 0 47.0769 10.5594 47.0769 23.5385C47.0769 36.5176 36.5176 47.0769 23.5385 47.0769ZM23.5385 5.23077C13.4436 5.23077 5.23077 13.4434 5.23077 23.5385C5.23077 33.6335 13.4436 41.8462 23.5385 41.8462C33.6333 41.8462 41.8462 33.6335 41.8462 23.5385C41.8462 13.4434 33.6333 5.23077 23.5385 5.23077Z"
            fill="#FFE196" id="Shape" stroke="none" />
        <path
            d="M41.8468 23.5385C41.8468 33.6335 33.6339 41.8462 23.5391 41.8462L23.5391 47.0769C36.5182 47.0769 47.0775 36.5176 47.0775 23.5385C47.0775 10.5594 36.5182 0 23.5391 0L23.5391 5.23077C33.6339 5.23077 41.8468 13.4434 41.8468 23.5385Z"
            fill="#FFB454" id="Path" stroke="none" />
        <path
            d="M31.2837 14.5385L16.7944 14.5385Q16.7115 14.5385 16.6531 14.5973L11.6674 19.6264Q11.6411 19.6529 11.6262 19.6871Q11.6113 19.7214 11.6099 19.7587Q11.6084 19.7959 11.6205 19.8312Q11.6326 19.8665 11.6567 19.895L23.8871 34.3587Q23.9011 34.3753 23.9184 34.3885Q23.9356 34.4016 23.9553 34.4108Q23.975 34.4199 23.9962 34.4246Q24.0174 34.4293 24.0391 34.4293Q24.0608 34.4293 24.0819 34.4246Q24.1031 34.4199 24.1228 34.4108Q24.1425 34.4016 24.1598 34.3885Q24.177 34.3753 24.191 34.3587L36.4214 19.895Q36.4455 19.8665 36.4576 19.8312Q36.4697 19.7959 36.4683 19.7587Q36.4668 19.7214 36.4519 19.6871Q36.437 19.6529 36.4108 19.6264L31.425 14.5973Q31.3666 14.5385 31.2837 14.5385Z"
            fill="#00C3FF" id="Path" stroke="#E9FDFF" stroke-width="2" />
        <g id="diamond-5" transform="translate(11.5390625 14.538452)">
            <path d="M19.8276 0L5.17241 0L1.13687e-12 5.2174L12.5 20L25 5.2174L19.8276 0Z"
                fill="#00C3FF" id="Path" stroke="none" />
            <path d="M19.8276 2.66454e-12L12.5 20L25 5.2174L19.8276 2.66454e-12Z" fill="#87DAFF"
                id="Path" stroke="none" />
            <path d="M5.17241 0L7.08418 5.2174L1.13687e-12 5.2174L5.17241 0Z" fill="#00AAF0"
                id="Path" stroke="none" />
            <path d="M12.5 2.14939e-12L7.08418 5.2174L17.9158 5.2174L12.5 2.14939e-12Z"
                fill="#87DAFF" id="Path" stroke="none" />
            <path d="M17.9158 5.2174L25 5.2174L19.8276 1.38556e-12L17.9158 5.2174Z" fill="#C2ECFF"
                id="Path" stroke="none" />
            <path d="M0 5.2174L7.08418 5.2174L12.5 20L0 5.2174Z" fill="#0096DC" id="Path"
                stroke="none" />
        </g>
    </g>
</svg>