<?xml version="1.0" encoding="utf-8"?>
<svg xmlns:xlink="http://www.w3.org/1999/xlink" height="48px" version="1.1" viewBox="0 0 48 48"
    width="48px" xmlns="http://www.w3.org/2000/svg">
    <defs>
        <rect height="47.076935" id="artboard_1" width="47.07692" />
        <clipPath id="clip_1">
            <use clip-rule="evenodd" xlink:href="#artboard_1" />
        </clipPath>
    </defs>
    <g clip-path="url(#clip_1)" id="ic_level_20">
        <path
            d="M23.5385 44.4615C35.094 44.4615 44.4615 35.094 44.4615 23.5385C44.4615 11.983 35.094 2.61539 23.5385 2.61539C11.983 2.61539 2.61539 11.983 2.61539 23.5385C2.61539 35.094 11.983 44.4615 23.5385 44.4615Z"
            fill="#FFB454" id="Oval" stroke="none" />
        <path
            d="M44.4615 23.5385C44.4615 11.983 35.0939 2.61539 23.5385 2.61539L23.5385 44.4615C35.0939 44.4615 44.4615 35.0939 44.4615 23.5385Z"
            fill="#FF8659" id="Path" stroke="none" />
        <path
            d="M23.5385 47.0769C10.5594 47.0769 0 36.5176 0 23.5385C0 10.5594 10.5594 0 23.5385 0C36.5176 0 47.0769 10.5594 47.0769 23.5385C47.0769 36.5176 36.5176 47.0769 23.5385 47.0769ZM23.5385 5.23077C13.4436 5.23077 5.23077 13.4434 5.23077 23.5385C5.23077 33.6335 13.4436 41.8462 23.5385 41.8462C33.6333 41.8462 41.8462 33.6335 41.8462 23.5385C41.8462 13.4434 33.6333 5.23077 23.5385 5.23077Z"
            fill="#FFE196" id="Shape" stroke="none" />
        <path
            d="M41.8462 23.5385C41.8462 33.6335 33.6333 41.8462 23.5385 41.8462L23.5385 47.0769C36.5176 47.0769 47.0769 36.5176 47.0769 23.5385C47.0769 10.5594 36.5176 0 23.5385 0L23.5385 5.23077C33.6333 5.23077 41.8462 13.4434 41.8462 23.5385Z"
            fill="#FFB454" id="Path" stroke="none" />
        <path
            d="M18.6022 21.8166C18.4157 21.8166 18.2286 21.7721 18.0572 21.682L15.5571 20.3676L13.0571 21.682C12.6623 21.8894 12.1841 21.8549 11.8233 21.5928C11.4625 21.3307 11.2818 20.8865 11.3572 20.447L11.8347 17.663L9.81208 15.6915C9.49279 15.3803 9.37783 14.9147 9.51568 14.4905C9.65345 14.0664 10.0201 13.7573 10.4614 13.6933L13.2565 13.2871L14.5065 10.7542C14.7039 10.3543 15.1112 10.1012 15.5571 10.1012C16.0031 10.1012 16.4103 10.3543 16.6077 10.7542L17.8577 13.2871L20.6528 13.6933C21.0941 13.7573 21.4607 14.0664 21.5985 14.4905C21.7364 14.9147 21.6214 15.3803 21.3021 15.6915L19.2795 17.663L19.757 20.447C19.8323 20.8865 19.6517 21.3306 19.2909 21.5928C19.0868 21.7411 18.8451 21.8166 18.6022 21.8166Z"
            fill="#FFE196" id="Path" stroke="none" />
        <path
            d="M18.6022 35.3343C18.4157 35.3343 18.2286 35.2899 18.0572 35.1998L15.5571 33.8854L13.0571 35.1998C12.6623 35.4071 12.1841 35.3727 11.8233 35.1106C11.4625 34.8485 11.2818 34.4042 11.3572 33.9647L11.8347 31.1808L9.81208 29.2093C9.49279 28.898 9.37783 28.4325 9.51568 28.0083C9.65345 27.5842 10.0201 27.2751 10.4614 27.211L13.2565 26.8049L14.5065 24.272C14.7039 23.8721 15.1112 23.619 15.5571 23.619C16.0031 23.619 16.4103 23.8721 16.6077 24.272L17.8577 26.8049L20.6528 27.211C21.0941 27.2751 21.4607 27.5842 21.5985 28.0083C21.7364 28.4325 21.6214 28.898 21.3021 29.2093L19.2795 31.1808L19.757 33.9647C19.8323 34.4042 19.6517 34.8484 19.2909 35.1106C19.0868 35.2589 18.8451 35.3343 18.6022 35.3343Z"
            fill="#FFE196" id="Path-Copy-2" stroke="none" />
        <path
            d="M34.4046 21.8166C34.2181 21.8166 34.0309 21.7721 33.8596 21.682L31.3595 20.3676L28.8594 21.682C28.4647 21.8894 27.9865 21.8549 27.6256 21.5928C27.2649 21.3307 27.0842 20.8865 27.1596 20.447L27.637 17.663L25.6144 15.6915C25.2951 15.3803 25.1802 14.9147 25.318 14.4905C25.4558 14.0664 25.8225 13.7573 26.2638 13.6933L29.0589 13.2871L30.3089 10.7542C30.5063 10.3543 30.9136 10.1012 31.3595 10.1012C31.8054 10.1012 32.2126 10.3543 32.41 10.7542L33.66 13.2871L36.4551 13.6933C36.8964 13.7573 37.2631 14.0664 37.4009 14.4905C37.5387 14.9147 37.4238 15.3803 37.1045 15.6915L35.0819 17.663L35.5593 20.447C35.6347 20.8865 35.454 21.3306 35.0933 21.5928C34.8892 21.7411 34.6475 21.8166 34.4046 21.8166Z"
            fill="#FFB454" id="Path-Copy" stroke="none" />
        <path
            d="M34.4046 35.3343C34.2181 35.3343 34.0309 35.2899 33.8596 35.1998L31.3595 33.8854L28.8594 35.1998C28.4647 35.4071 27.9865 35.3727 27.6256 35.1106C27.2649 34.8485 27.0842 34.4042 27.1596 33.9647L27.637 31.1808L25.6144 29.2093C25.2951 28.898 25.1802 28.4325 25.318 28.0083C25.4558 27.5842 25.8225 27.2751 26.2638 27.211L29.0589 26.8049L30.3089 24.272C30.5063 23.8721 30.9136 23.619 31.3595 23.619C31.8054 23.619 32.2126 23.8721 32.41 24.272L33.66 26.8049L36.4551 27.211C36.8964 27.2751 37.2631 27.5842 37.4009 28.0083C37.5387 28.4325 37.4238 28.898 37.1045 29.2093L35.0819 31.1808L35.5593 33.9647C35.6347 34.4042 35.454 34.8484 35.0933 35.1106C34.8892 35.2589 34.6475 35.3343 34.4046 35.3343Z"
            fill="#FFB454" id="Path-Copy-3" stroke="none" />
    </g>
</svg>