<?xml version="1.0" encoding="utf-8"?>
<svg xmlns:xlink="http://www.w3.org/1999/xlink" height="71px" version="1.1" viewBox="0 0 38 71"
    width="38px" xmlns="http://www.w3.org/2000/svg">
    <defs>
        <path d="M0 0L7.63026 0L7.63026 7.61347L0 7.61347L0 0Z" id="path_1" />
        <path
            d="M5.3574 0.135304L0.172074 4.8777C0.0621304 4.97891 0 5.12014 0 5.26973L0 5.26973L0 8.43133C0 8.639 0.120209 8.82767 0.30687 8.91298L0.30687 8.91298C0.494612 8.99734 0.713419 8.96257 0.864828 8.82336L0.864828 8.82336L5.70384 4.3982L10.5418 8.82336C10.6943 8.96257 10.9132 8.99842 11.0997 8.91298L11.0997 8.91298C11.2875 8.82767 11.4078 8.639 11.4078 8.43133L11.4078 8.43133L11.4078 5.26973C11.4078 5.12014 11.3446 4.97891 11.2367 4.8777L11.2367 4.8777L6.05137 0.135304C5.95277 0.0451464 5.82837 0 5.70398 0L5.70398 0C5.57971 0 5.45545 0.0451464 5.3574 0.135304L5.3574 0.135304Z"
            id="path_2" />
        <path
            d="M5.3574 0.13517L0.172074 4.87756C0.0621304 4.97864 0 5.12001 0 5.26946L0 5.26946L0 8.43119C0 8.63887 0.120209 8.8274 0.30687 8.91284L0.30687 8.91284C0.494612 8.99707 0.713419 8.96244 0.864828 8.82323L0.864828 8.82323L5.70384 4.39807L10.5418 8.82323C10.6943 8.96244 10.9132 8.99815 11.0997 8.91284L11.0997 8.91284C11.2875 8.8274 11.4078 8.63887 11.4078 8.43119L11.4078 8.43119L11.4078 5.26946C11.4078 5.12001 11.3446 4.97864 11.2367 4.87756L11.2367 4.87756L6.05137 0.13517C5.95277 0.0450116 5.82837 0 5.70398 0L5.70398 0C5.57971 0 5.45545 0.0450116 5.3574 0.13517L5.3574 0.13517Z"
            id="path_3" />
        <rect height="70.253174" id="artboard_1" width="37.911392" />
        <clipPath id="clip_1">
            <use clip-rule="evenodd" xlink:href="#artboard_1" />
        </clipPath>
        <clipPath id="mask_1">
            <use xlink:href="#path_1" />
        </clipPath>
        <clipPath id="mask_2">
            <use xlink:href="#path_2" />
        </clipPath>
        <clipPath id="mask_3">
            <use xlink:href="#path_3" />
        </clipPath>
    </defs>
    <g clip-path="url(#clip_1)" id="ff">
        <g id="ic_EXP_1" transform="translate(1 1)">
            <g id="Group-30">
                <g id="Group-23">
                    <path
                        d="M36.3139 30.2488L35.2327 31.3277C34.6894 31.8697 33.8084 31.8697 33.265 31.3277L29.3696 27.7184L22.0371 20.4023L25.3645 17.0825L32.6968 24.3985L36.314 28.2854C36.8572 28.8277 36.8572 29.7066 36.3139 30.2488Z"
                        fill="#E59C48" fill-rule="evenodd" id="Fill-1" stroke="none" />
                    <g id="Group-5" transform="translate(29.36914 24.39862)">
                        <path d="M0 0L7.63026 0L7.63026 7.61347L0 7.61347L0 0Z" fill="none"
                            fill-rule="evenodd" id="Clip-4" stroke="none" />
                        <g clip-path="url(#mask_1)">
                            <path
                                d="M7.22279 3.88677L3.32735 0C3.60626 0.537714 3.51996 1.21491 3.06816 1.66583L1.66955 3.06133C1.21762 3.51226 0.538914 3.5981 0 3.31995L3.89544 7.20685C4.43881 7.74901 5.31985 7.74901 5.86322 7.20685L7.22266 5.8503C7.76616 5.308 7.76616 4.42906 7.22279 3.88677Z"
                                fill="#B97C36" fill-rule="evenodd" id="Fill-3" stroke="none" />
                        </g>
                    </g>
                    <path
                        d="M24.1458 25.2948C24.7603 25.2948 25.2584 24.7977 25.2584 24.1846L25.2584 13.2682C25.2584 10.2024 22.7677 9.10553 19.6952 9.10553L6.95469 9.10553C3.8822 9.10553 1.39132 10.2024 1.39132 13.2682L0 20.8193L0 24.1847C0 24.7977 0.498124 25.2949 1.11267 25.2949L2.54154 25.2949C3.15595 25.2949 3.65421 25.7919 3.65421 26.4051L3.65421 28.6255C3.65421 29.2387 3.15609 29.7357 2.54154 29.7357L1.11267 29.7357C0.498124 29.7357 0 30.2327 0 30.846L0 35.6776L1.39132 48.733L0 63.058L0 67.8898C0 68.5028 0.498124 69 1.11267 69L24.1459 69C24.7604 69 25.2586 68.503 25.2586 67.8898L25.2586 30.8459C25.2586 30.2327 24.7604 29.7355 24.1459 29.7355L22.717 29.7355C22.1026 29.7355 21.6044 29.2385 21.6044 28.6254L21.6044 26.405C21.6044 25.7919 22.1025 25.2948 22.717 25.2948L24.1458 25.2948Z"
                        fill="#E5EFDA" fill-rule="evenodd" id="Fill-6" stroke="none" />
                    <path
                        d="M22.1556 68.9999L25.5377 68.9999C26.1521 68.9999 26.6504 68.5029 26.6504 67.8897L26.6504 63.0579L25.2589 51.3794L26.6504 35.6775L26.6504 30.8459C26.6504 30.2327 26.1522 29.7356 25.5377 29.7356L24.1088 29.7356C23.4943 29.7356 22.996 29.2386 22.996 28.6254L22.996 26.405C22.996 25.7919 23.4941 25.2948 24.1088 25.2948L25.5377 25.2948C26.1521 25.2948 26.6504 24.7978 26.6504 24.1846L26.6504 20.8192L25.2589 13.2679C25.2589 10.2023 24.1596 7.99469 21.087 7.99469L17.7051 8.27231C20.7776 8.27231 23.2683 10.2023 23.2683 13.2679L23.2683 24.1847C23.2683 24.7978 22.7702 25.2949 22.1556 25.2949L20.5652 25.2949C19.9507 25.2949 19.4526 25.7919 19.4526 26.4051L19.4526 28.6255C19.4526 29.2387 19.9507 29.7357 20.5652 29.7357L22.1555 29.7357C22.7699 29.7357 23.2682 30.2327 23.2682 30.846L23.2682 67.89C23.2682 68.5029 22.7701 68.9999 22.1556 68.9999Z"
                        fill="#D3E0C5" fill-rule="evenodd" id="Fill-8" stroke="none" />
                    <path
                        d="M10.3242 9.10539L16.327 9.10539L16.327 2.48572L10.3242 2.48572L10.3242 9.10539Z"
                        fill="#EEF5F6" fill-rule="evenodd" id="Fill-10" stroke="none" />
                    <path
                        d="M15.6193 3.46886L9.64064 3.46886C8.68059 3.46886 7.90234 2.69234 7.90234 1.73443C7.90234 0.776518 8.68059 0 9.64064 0L15.6193 0C16.5794 0 17.3576 0.776518 17.3576 1.73443C17.3576 2.69234 16.5793 3.46886 15.6193 3.46886"
                        fill="#BAD450" fill-rule="evenodd" id="Fill-12" stroke="none" />
                    <path
                        d="M19.6952 7.71716L5.56337 7.71716C2.49075 7.71716 0 10.2024 0 13.2681L0 16.2963L25.2586 18.558L25.2586 13.2681C25.2586 10.2024 22.7677 7.71716 19.6952 7.71716Z"
                        fill="#7EBA61" fill-rule="evenodd" id="Fill-13" stroke="none" />
                    <path
                        d="M23.2684 13.2681L23.2684 18.5578L26.6505 16.2961L26.6505 13.2681C26.6505 10.2024 24.1596 7.7171 21.0871 7.7171L17.7051 7.7171C20.7777 7.7171 23.2684 10.2024 23.2684 13.2681"
                        fill="#619347" fill-rule="evenodd" id="Fill-14" stroke="none" />
                    <path d="M0 63.058L25.2586 63.058L25.2586 35.6776L0 35.6776L0 63.058Z"
                        fill="#7EBA61" fill-rule="evenodd" id="Fill-15" stroke="none" />
                    <path
                        d="M23.2676 63.058L26.6496 63.058L26.6496 35.6776L23.2676 35.6776L23.2676 63.058Z"
                        fill="#619347" fill-rule="evenodd" id="Fill-16" stroke="none" />
                    <path
                        d="M17.0095 0L14.2266 0C15.1867 0 15.9649 0.776518 15.9649 1.73443C15.9649 2.69234 15.1866 3.46886 14.2266 3.46886L17.0095 3.46886C17.9695 3.46886 18.7478 2.69234 18.7478 1.73443C18.7478 0.776518 17.9694 0 17.0095 0"
                        fill="#AFBF4B" fill-rule="evenodd" id="Fill-17" stroke="none" />
                    <path
                        d="M8.24079 30.7769C7.66432 30.7769 7.19727 30.3107 7.19727 29.7357L7.19727 25.2947C7.19727 24.7197 7.66432 24.2535 8.24079 24.2535C8.81725 24.2535 9.28431 24.7197 9.28431 25.2947L9.28431 29.7357C9.28431 30.3107 8.81711 30.7769 8.24079 30.7769"
                        fill="#7EBA61" fill-rule="evenodd" id="Fill-18" stroke="none" />
                    <path
                        d="M13.3248 30.7769C12.7483 30.7769 12.2812 30.3107 12.2812 29.7357L12.2812 25.2947C12.2812 24.7197 12.7483 24.2535 13.3248 24.2535C13.9012 24.2535 14.3683 24.7197 14.3683 25.2947L14.3683 29.7357C14.3683 30.3107 13.9011 30.7769 13.3248 30.7769"
                        fill="#7EBA61" fill-rule="evenodd" id="Fill-19" stroke="none" />
                    <path
                        d="M18.4088 30.7769C17.8323 30.7769 17.3652 30.3107 17.3652 29.7357L17.3652 25.2947C17.3652 24.7197 17.8323 24.2535 18.4088 24.2535C18.9852 24.2535 19.4523 24.7197 19.4523 25.2947L19.4523 29.7357C19.4523 30.3107 18.9851 30.7769 18.4088 30.7769"
                        fill="#7EBA61" fill-rule="evenodd" id="Fill-20" stroke="none" />
                    <path
                        d="M23.2678 16.2963L0 16.2963L0 20.8193L23.2678 20.8193L24.6593 18.5578L23.2678 16.2963Z"
                        fill="#FFE177" fill-rule="evenodd" id="Fill-21" stroke="none" />
                    <path
                        d="M23.2676 20.8194L26.6496 20.8194L26.6496 16.2964L23.2676 16.2964L23.2676 20.8194Z"
                        fill="#FFC344" fill-rule="evenodd" id="Fill-22" stroke="none" />
                </g>
                <g id="Group-26" transform="translate(7.6210938 40.403748)">
                    <path
                        d="M5.3574 0.135304L0.172074 4.8777C0.0621304 4.97891 0 5.12014 0 5.26973L0 5.26973L0 8.43133C0 8.639 0.120209 8.82767 0.30687 8.91298L0.30687 8.91298C0.494612 8.99734 0.713419 8.96257 0.864828 8.82336L0.864828 8.82336L5.70384 4.3982L10.5418 8.82336C10.6943 8.96257 10.9132 8.99842 11.0997 8.91298L11.0997 8.91298C11.2875 8.82767 11.4078 8.639 11.4078 8.43133L11.4078 8.43133L11.4078 5.26973C11.4078 5.12014 11.3446 4.97891 11.2367 4.8777L11.2367 4.8777L6.05137 0.135304C5.95277 0.0451464 5.82837 0 5.70398 0L5.70398 0C5.57971 0 5.45545 0.0451464 5.3574 0.135304L5.3574 0.135304Z"
                        fill="none" fill-rule="evenodd" id="Clip-25" stroke="none" />
                    <g clip-path="url(#mask_2)">
                        <path
                            d="M-3.16797 12.1207L14.5777 12.1207L14.5777 -3.16174L-3.16797 -3.16174L-3.16797 12.1207Z"
                            fill="#BAD450" fill-rule="evenodd" id="Fill-24" stroke="none" />
                    </g>
                </g>
                <g id="Group-29" transform="translate(7.6210938 47.25415)">
                    <path
                        d="M5.3574 0.13517L0.172074 4.87756C0.0621304 4.97864 0 5.12001 0 5.26946L0 5.26946L0 8.43119C0 8.63887 0.120209 8.8274 0.30687 8.91284L0.30687 8.91284C0.494612 8.99707 0.713419 8.96244 0.864828 8.82323L0.864828 8.82323L5.70384 4.39807L10.5418 8.82323C10.6943 8.96244 10.9132 8.99815 11.0997 8.91284L11.0997 8.91284C11.2875 8.8274 11.4078 8.63887 11.4078 8.43119L11.4078 8.43119L11.4078 5.26946C11.4078 5.12001 11.3446 4.97864 11.2367 4.87756L11.2367 4.87756L6.05137 0.13517C5.95277 0.0450116 5.82837 0 5.70398 0L5.70398 0C5.57971 0 5.45545 0.0450116 5.3574 0.13517L5.3574 0.13517Z"
                        fill="none" fill-rule="evenodd" id="Clip-28" stroke="none" />
                    <g clip-path="url(#mask_3)">
                        <path
                            d="M-3.16797 12.1205L14.5777 12.1205L14.5777 -3.16187L-3.16797 -3.16187L-3.16797 12.1205Z"
                            fill="#BAD450" fill-rule="evenodd" id="Fill-27" stroke="none" />
                    </g>
                </g>
            </g>
        </g>
    </g>
</svg>