<?xml version="1.0" encoding="utf-8"?>
<svg xmlns:xlink="http://www.w3.org/1999/xlink" height="68px" version="1.1" viewBox="0 0 68 68"
    width="68px" xmlns="http://www.w3.org/2000/svg">
    <defs>
        <filter color-interpolation-filters="sRGB" filterUnits="userSpaceOnUse" id="filter_1">
            <feFlood flood-opacity="0" result="BackgroundImageFix" />
            <feColorMatrix in="SourceAlpha" type="matrix"
                values="0 0 0 0 0 0 0 0 0 0 0 0 0 0 0 0 0 0 127 0" />
            <feOffset dx="0" dy="0" />
            <feGaussianBlur stdDeviation="5" />
            <feColorMatrix type="matrix"
                values="0 0 0 0 0 0 0 0 0 0 0 0 0 0 0 0 0 0 0.101960786 0" />
            <feBlend in2="BackgroundImageFix" mode="normal" result="effect0_dropShadow" />
            <feBlend in="SourceGraphic" in2="effect0_dropShadow" mode="normal" result="shape" />
        </filter>
        <rect height="68" id="artboard_1" width="68" />
        <clipPath id="clip_1">
            <use clip-rule="evenodd" xlink:href="#artboard_1" />
        </clipPath>
    </defs>
    <g clip-path="url(#clip_1)" id="SS">
        <g id="Group-2" transform="translate(0 -0.039916992)">
            <g filter="url(#filter_1)">
                <g id="medal-2">
                    <g id="medal">
                        <g id="Group">
                            <path
                                d="M34 68C31.6041 68 29.7167 66.5502 28.1999 65.3855C27.3866 64.7609 26.5456 64.1149 25.9716 63.9615C25.3351 63.7911 24.2436 63.9322 23.1882 64.0687C21.2263 64.3221 19.0027 64.6096 16.9939 63.4471C14.9602 62.2704 14.058 60.0932 13.3331 58.3437C12.9315 57.3746 12.5164 56.3725 12.0714 55.9277C11.6264 55.4826 10.6244 55.0674 9.65548 54.6661C7.90613 53.9413 5.72891 53.039 4.55234 51.0056C3.39024 48.9968 3.67741 46.7732 3.9311 44.8113C4.06745 43.7557 4.2085 42.6642 4.0385 42.0282C3.88507 41.4542 3.23924 40.6133 2.61469 39.8C1.44979 38.2831 0 36.3959 0 34C0 31.6041 1.44962 29.7167 2.61451 28.1999C3.23924 27.3867 3.88507 26.5456 4.0385 25.9716C4.20868 25.3354 4.06762 24.2439 3.93127 23.1885C3.67775 21.2265 3.39041 19.0029 4.55286 16.9939C5.72944 14.9603 7.90683 14.058 9.65635 13.3332C10.6253 12.9317 11.6273 12.5164 12.0723 12.0716C12.5172 11.6266 12.9324 10.6246 13.3339 9.65583C14.0589 7.90648 14.961 5.72909 16.9948 4.55269C19.0037 3.39024 21.2273 3.67758 23.189 3.93145C24.2446 4.06762 25.3359 4.20868 25.9722 4.03885C26.546 3.88542 27.3869 3.23959 28.2001 2.61486C29.7167 1.44962 31.6041 0 34 0C36.3959 0 38.2833 1.44962 39.8 2.61451C40.6134 3.23907 41.4544 3.88507 42.0284 4.0385C42.6644 4.20885 43.7559 4.06745 44.8116 3.93127C46.7735 3.6781 48.9973 3.39058 51.0061 4.55286C53.0398 5.72961 53.942 7.90683 54.6669 9.65635C55.0685 10.6254 55.4836 11.6275 55.9286 12.0723C56.3736 12.5174 57.3756 12.9326 58.3445 13.3339C60.0939 14.0587 62.2711 14.961 63.4477 16.9944C64.6099 19.0032 64.3226 21.2268 64.0691 23.1887C63.9327 24.2443 63.7917 25.3356 63.9617 25.9718C64.1151 26.5458 64.7609 27.3867 65.3857 28.1999C66.5504 29.7169 68 31.6041 68 34C68 36.3959 66.5504 38.2833 65.3855 39.8C64.7608 40.6133 64.1149 41.4544 63.9613 42.0284C63.7911 42.6646 63.9322 43.7561 64.0686 44.8115C64.3221 46.7735 64.6094 48.9971 63.447 51.0061C62.2704 53.0396 60.093 53.942 58.3435 54.6668C57.3746 55.0683 56.3725 55.4836 55.9274 55.9284C55.4824 56.3734 55.0673 57.3754 54.6657 58.3442C53.9407 60.0935 53.0386 62.2709 51.0049 63.4473C48.9961 64.6096 46.7723 64.3224 44.8106 64.0687C43.755 63.9326 42.6637 63.7915 42.0275 63.9613C41.4537 64.1148 40.6127 64.7606 39.7995 65.3853C38.2833 66.5502 36.3959 68 34 68L34 68Z"
                                fill="#000000" fill-rule="evenodd" id="Path" stroke="none" />
                        </g>
                    </g>
                </g>
            </g>
        </g>
    </g>
</svg>