<?xml version="1.0" encoding="utf-8"?>
<svg xmlns:xlink="http://www.w3.org/1999/xlink" height="118px" version="1.1" viewBox="0 0 52 118"
    width="52px" xmlns="http://www.w3.org/2000/svg">
    <defs>
        <rect height="118" id="artboard_1" width="52" />
        <clipPath id="clip_1">
            <use clip-rule="evenodd" xlink:href="#artboard_1" />
        </clipPath>
    </defs>
    <g clip-path="url(#clip_1)" id="Path-6">
        <path
            d="M1.999 0L50.001 0Q50.0992 0 50.1969 0.00962573Q50.2947 0.0192515 50.391 0.0384102Q50.4873 0.057569 50.5813 0.0860763Q50.6753 0.114584 50.766 0.152165Q50.8567 0.189746 50.9433 0.236039Q51.0299 0.282333 51.1116 0.336892Q51.1932 0.391452 51.2691 0.453752Q51.3451 0.516052 51.4145 0.585494Q51.4839 0.654935 51.5462 0.730848Q51.6085 0.806761 51.6631 0.888415Q51.7177 0.970069 51.764 1.05668Q51.8102 1.14329 51.8478 1.23402Q51.8854 1.32474 51.9139 1.41872Q51.9424 1.5127 51.9616 1.60901Q51.9807 1.70533 51.9904 1.80306Q52 1.9008 52 1.999L52 113.408Q52 113.501 51.9942 113.594Q51.9885 113.687 51.977 113.779Q51.9655 113.871 51.9482 113.963Q51.931 114.054 51.9082 114.144Q51.8854 114.235 51.857 114.323Q51.8286 114.412 51.7948 114.498Q51.761 114.585 51.7218 114.669Q51.6827 114.754 51.6384 114.836Q51.5942 114.917 51.5449 114.996Q51.4956 115.075 51.4416 115.151Q51.3875 115.227 51.3288 115.299Q51.2702 115.371 51.2072 115.44Q51.1442 115.508 51.077 115.572Q51.0099 115.637 50.9389 115.697Q50.8679 115.757 50.7934 115.813Q50.7188 115.868 50.6409 115.919Q50.563 115.97 50.4821 116.016Q50.4012 116.062 50.3177 116.103Q50.2341 116.143 50.1481 116.179Q50.0622 116.215 49.9742 116.245Q49.8862 116.275 49.7965 116.3Q49.7068 116.324 49.6158 116.343Q49.5248 116.362 49.4327 116.376Q49.3406 116.389 49.2479 116.397Q49.1552 116.405 49.0622 116.406Q48.9692 116.408 48.8763 116.405Q48.7833 116.401 48.6908 116.391Q48.5983 116.381 48.5066 116.366Q48.4148 116.351 48.3242 116.33Q48.2336 116.309 48.1444 116.282Q48.0553 116.256 47.968 116.224Q47.8806 116.192 47.7954 116.154L26.2099 106.678Q26.0279 106.598 25.8337 106.555Q25.6395 106.513 25.4407 106.509Q25.242 106.506 25.0464 106.542Q24.8509 106.578 24.6662 106.651L4.1094 114.845Q4.02449 114.879 3.93767 114.907Q3.85086 114.936 3.76246 114.959Q3.67406 114.982 3.58442 115Q3.49477 115.018 3.4042 115.03Q3.31363 115.043 3.22247 115.05Q3.13132 115.056 3.03992 115.058Q2.94852 115.059 2.85721 115.055Q2.76591 115.05 2.67504 115.04Q2.58416 115.03 2.49406 115.015Q2.40396 115 2.31496 114.979Q2.22596 114.958 2.1384 114.932Q2.05083 114.906 1.96503 114.874Q1.87923 114.843 1.7955 114.806Q1.71178 114.769 1.63044 114.727Q1.54911 114.686 1.47046 114.639Q1.39182 114.593 1.31616 114.541Q1.2405 114.49 1.1681 114.434Q1.0957 114.378 1.02684 114.318Q0.957978 114.258 0.892904 114.194Q0.827829 114.13 0.766785 114.062Q0.70574 113.994 0.648953 113.922Q0.592166 113.85 0.539846 113.775Q0.487526 113.701 0.439869 113.622Q0.392211 113.545 0.349392 113.464Q0.306573 113.383 0.268752 113.3Q0.230931 113.217 0.198249 113.131Q0.165566 113.046 0.138143 112.959Q0.11072 112.871 0.0886585 112.783Q0.0665969 112.694 0.0499787 112.604Q0.0333604 112.514 0.0222471 112.424Q0.0111339 112.333 0.00556695 112.242Q0 112.15 0 112.059L0 1.999Q0 1.9008 0.00962573 1.80306Q0.0192515 1.70533 0.0384102 1.60901Q0.057569 1.5127 0.0860763 1.41872Q0.114584 1.32474 0.152165 1.23402Q0.189746 1.14329 0.236039 1.05668Q0.282333 0.970069 0.336892 0.888415Q0.391452 0.806761 0.453752 0.730848Q0.516052 0.654935 0.585494 0.585494Q0.654935 0.516052 0.730848 0.453752Q0.806761 0.391452 0.888415 0.336892Q0.970069 0.282333 1.05668 0.236039Q1.14329 0.189746 1.23402 0.152165Q1.32474 0.114584 1.41872 0.0860763Q1.5127 0.057569 1.60901 0.0384102Q1.70533 0.0192515 1.80306 0.00962573Q1.9008 0 1.999 0L1.999 0Z"
            fill="#000000" fill-rule="evenodd" id="Path-6" stroke="none" />
    </g>
</svg>