<?xml version="1.0" encoding="utf-8"?>
<svg xmlns:xlink="http://www.w3.org/1999/xlink" height="80px" version="1.1" viewBox="0 0 80 80"
    width="80px" xmlns="http://www.w3.org/2000/svg">
    <defs>
        <rect height="80" id="artboard_1" width="80" />
        <clipPath id="clip_1">
            <use clip-rule="evenodd" xlink:href="#artboard_1" />
        </clipPath>
    </defs>
    <g clip-path="url(#clip_1)" id="ElementsIconMaxLeague">
        <g id="Group" transform="translate(4 12)">
            <path
                d="M25.999 4L28.001 4Q28.0992 4 28.1969 4.00963Q28.2947 4.01925 28.391 4.03841Q28.4873 4.05757 28.5813 4.08608Q28.6753 4.11458 28.766 4.15216Q28.8567 4.18975 28.9433 4.23604Q29.0299 4.28233 29.1116 4.33689Q29.1932 4.39145 29.2692 4.45375Q29.3451 4.51605 29.4145 4.58549Q29.4839 4.65493 29.5462 4.73085Q29.6085 4.80676 29.6631 4.88841Q29.7177 4.97007 29.764 5.05668Q29.8103 5.14329 29.8478 5.23402Q29.8854 5.32474 29.9139 5.41872Q29.9424 5.5127 29.9616 5.60901Q29.9807 5.70533 29.9904 5.80306Q30 5.9008 30 5.999L30 16.001Q30 16.0992 29.9904 16.1969Q29.9807 16.2947 29.9616 16.391Q29.9424 16.4873 29.9139 16.5813Q29.8854 16.6753 29.8478 16.766Q29.8103 16.8567 29.764 16.9433Q29.7177 17.0299 29.6631 17.1116Q29.6085 17.1932 29.5462 17.2691Q29.4839 17.3451 29.4145 17.4145Q29.3451 17.4839 29.2691 17.5462Q29.1932 17.6085 29.1116 17.6631Q29.0299 17.7177 28.9433 17.764Q28.8567 17.8103 28.766 17.8478Q28.6753 17.8854 28.5813 17.9139Q28.4873 17.9424 28.391 17.9616Q28.2947 17.9807 28.1969 17.9904Q28.0992 18 28.001 18L25.999 18Q25.9008 18 25.8031 17.9904Q25.7053 17.9807 25.609 17.9616Q25.5127 17.9424 25.4187 17.9139Q25.3247 17.8854 25.234 17.8478Q25.1433 17.8103 25.0567 17.764Q24.9701 17.7177 24.8884 17.6631Q24.8068 17.6085 24.7308 17.5462Q24.6549 17.4839 24.5855 17.4145Q24.5161 17.3451 24.4537 17.2691Q24.3914 17.1932 24.3369 17.1116Q24.2823 17.0299 24.236 16.9433Q24.1897 16.8567 24.1522 16.766Q24.1146 16.6753 24.0861 16.5813Q24.0576 16.4873 24.0384 16.391Q24.0192 16.2947 24.0096 16.1969Q24 16.0992 24 16.001L24 5.999Q24 5.9008 24.0096 5.80306Q24.0192 5.70533 24.0384 5.60901Q24.0576 5.5127 24.0861 5.41872Q24.1146 5.32474 24.1522 5.23401Q24.1897 5.14329 24.236 5.05668Q24.2823 4.97007 24.3369 4.88841Q24.3914 4.80676 24.4537 4.73085Q24.5161 4.65493 24.5855 4.58549Q24.6549 4.51605 24.7308 4.45375Q24.8068 4.39145 24.8884 4.33689Q24.9701 4.28233 25.0567 4.23604Q25.1433 4.18975 25.234 4.15216Q25.3247 4.11458 25.4187 4.08608Q25.5127 4.05757 25.609 4.03841Q25.7053 4.01925 25.8031 4.00963Q25.9008 4 25.999 4Z"
                fill="#FFFFFF" fill-rule="evenodd" id="Rectangle" stroke="none" />
            <g id="trophy" transform="translate(8 0)">
                <path
                    d="M27.2768 48C25.7224 48 24.4643 46.8534 24.4643 45.4407L24.4643 37.7593C24.4643 36.3466 25.7224 35.2 27.2768 35.2C28.8312 35.2 30.0893 36.3466 30.0893 37.7593L30.0893 45.4407C30.0893 46.8534 28.8293 48 27.2768 48Z"
                    fill="#FECF43" id="XMLID_8843_" stroke="none" />
                <path
                    d="M38.9286 45.76L38.9286 53.44C38.9286 54.8565 37.769 56 36.3324 56L19.0247 56C17.5882 56 16.4286 54.8565 16.4286 53.44L16.4286 45.76C16.4286 44.3435 17.5882 43.2 19.0247 43.2L36.3324 43.2C37.769 43.2 38.9286 44.3435 38.9286 45.76Z"
                    fill="#FECF43" id="XMLID_8847_" stroke="none" />
                <path
                    d="M39.5194 56L15.0341 56C13.5843 56 12.4107 54.7456 12.4107 53.2C12.4107 51.6544 13.5843 50.4 15.0341 50.4L39.5194 50.4C40.9693 50.4 42.1429 51.6544 42.1429 53.2C42.1429 54.7456 40.9676 56 39.5194 56Z"
                    fill="#FECF43" id="XMLID_8839_" stroke="none" />
                <path
                    d="M41.5862 28C40.2842 28 39.1454 27.0638 38.9556 25.7669C38.748 24.347 39.7591 23.0276 41.2137 22.8248C46.0403 22.1503 49.6785 18.0396 49.6785 13.2632L49.6785 10.8012L41.6784 10.8012C40.2079 10.8012 39.0177 9.63616 39.0177 8.20062C39.0177 6.76508 40.2079 5.6 41.6784 5.6L52.3392 5.6C53.8097 5.6 55 6.76508 55 8.20062L55 13.2632C55 20.6108 49.3964 26.9355 41.9658 27.974C41.8381 27.9913 41.7121 28 41.5862 28L41.5862 28Z"
                    fill="#FECF43" id="XMLID_8838_" stroke="none" />
                <path
                    d="M41.8891 0L13.468 0C11.9937 0 10.8036 1.16522 10.8036 2.6087L10.8036 23.4783C10.8036 32.5913 18.3707 40 27.6786 40C36.9865 40 44.5536 32.5913 44.5536 23.4783L44.5536 2.6087C44.5536 1.16522 43.3634 0 41.8891 0ZM21.4792 14.7826C21.4792 16.2261 20.2891 17.3913 18.8148 17.3913C17.3404 17.3913 16.1503 16.2261 16.1503 14.7826L16.1503 7.82609C16.1503 6.38261 17.3404 5.21739 18.8148 5.21739C20.2891 5.21739 21.4792 6.38261 21.4792 7.82609L21.4792 14.7826Z"
                    fill="#FECF43" id="XMLID_8848_" stroke="none" />
                <path
                    d="M1.78471 26.4L1.78671 26.4Q1.87439 26.4 1.96165 26.4086Q2.0489 26.4172 2.13489 26.4343Q2.22089 26.4514 2.30479 26.4768Q2.38869 26.5023 2.46969 26.5359Q2.5507 26.5694 2.62802 26.6107Q2.70535 26.6521 2.77825 26.7008Q2.85115 26.7495 2.91892 26.8051Q2.9867 26.8607 3.0487 26.9227Q3.11069 26.9847 3.16632 27.0525Q3.22194 27.1203 3.27065 27.1932Q3.31936 27.2661 3.36069 27.3434Q3.40202 27.4207 3.43557 27.5017Q3.46913 27.5827 3.49458 27.6666Q3.52003 27.7505 3.53714 27.8365Q3.55424 27.9225 3.56283 28.0098Q3.57143 28.097 3.57143 28.1847L3.57143 32.6153Q3.57143 32.703 3.56283 32.7902Q3.55424 32.8775 3.53714 32.9635Q3.52003 33.0495 3.49458 33.1334Q3.46913 33.2173 3.43557 33.2983Q3.40202 33.3793 3.36069 33.4566Q3.31936 33.5339 3.27065 33.6068Q3.22194 33.6797 3.16632 33.7475Q3.1107 33.8153 3.0487 33.8773Q2.9867 33.9393 2.91893 33.9949Q2.85115 34.0505 2.77825 34.0992Q2.70535 34.1479 2.62802 34.1893Q2.5507 34.2306 2.46969 34.2641Q2.38869 34.2977 2.30479 34.3232Q2.22089 34.3486 2.13489 34.3657Q2.0489 34.3828 1.96165 34.3914Q1.87439 34.4 1.78671 34.4L1.78471 34.4Q1.69704 34.4 1.60978 34.3914Q1.52253 34.3828 1.43653 34.3657Q1.35054 34.3486 1.26664 34.3232Q1.18274 34.2977 1.10173 34.2641Q1.02073 34.2306 0.943406 34.1893Q0.866081 34.1479 0.79318 34.0992Q0.720279 34.0505 0.652503 33.9949Q0.584728 33.9393 0.522731 33.8773Q0.460733 33.8153 0.405111 33.7475Q0.34949 33.6797 0.300779 33.6068Q0.252068 33.5339 0.210737 33.4566Q0.169406 33.3793 0.135853 33.2983Q0.102301 33.2173 0.0768492 33.1334Q0.0513978 33.0495 0.0342928 32.9635Q0.0171878 32.8775 0.00859389 32.7902Q0 32.703 0 32.6153L0 28.1847Q0 28.097 0.00859389 28.0098Q0.0171878 27.9225 0.0342928 27.8365Q0.0513978 27.7505 0.0768492 27.6666Q0.102301 27.5827 0.135853 27.5017Q0.169406 27.4207 0.210737 27.3434Q0.252068 27.2661 0.300779 27.1932Q0.34949 27.1203 0.405111 27.0525Q0.460733 26.9847 0.522731 26.9227Q0.584728 26.8607 0.652503 26.8051Q0.720279 26.7495 0.79318 26.7008Q0.866081 26.6521 0.943406 26.6107Q1.02073 26.5694 1.10173 26.5359Q1.18274 26.5023 1.26664 26.4768Q1.35054 26.4514 1.43653 26.4343Q1.52253 26.4172 1.60978 26.4086Q1.69704 26.4 1.78471 26.4L1.78471 26.4Z"
                    fill="#FECF43" fill-rule="evenodd" id="Rectangle" stroke="none" />
                <path
                    d="M13.0967 28C12.9752 28 12.8504 27.9913 12.7273 27.9723C5.67429 26.9129 0.357143 20.5882 0.357143 13.2632L0.357143 8.20062C0.357143 6.76508 1.48906 5.6 2.88751 5.6L13.009 5.6C14.4074 5.6 15.5393 6.76508 15.5393 8.20062C15.5393 9.63616 14.4074 10.8012 13.009 10.8012L5.41788 10.8012L5.41788 13.2632C5.41788 18.0258 8.87436 22.1365 13.4594 22.8265C14.8426 23.0346 15.7991 24.3557 15.5984 25.7756C15.4128 27.069 14.3332 28 13.0967 28L13.0967 28Z"
                    fill="#FECF43" id="XMLID_8911_" stroke="none" />
            </g>
            <path
                d="M9.999 26L10.001 26Q10.0992 26 10.1969 26.0096Q10.2947 26.0193 10.391 26.0384Q10.4873 26.0576 10.5813 26.0861Q10.6753 26.1146 10.766 26.1522Q10.8567 26.1897 10.9433 26.236Q11.0299 26.2823 11.1116 26.3369Q11.1932 26.3915 11.2692 26.4538Q11.3451 26.5161 11.4145 26.5855Q11.4839 26.6549 11.5462 26.7308Q11.6085 26.8068 11.6631 26.8884Q11.7177 26.9701 11.764 27.0567Q11.8103 27.1433 11.8478 27.234Q11.8854 27.3247 11.9139 27.4187Q11.9424 27.5127 11.9616 27.609Q11.9807 27.7053 11.9904 27.8031Q12 27.9008 12 27.999L12 32.001Q12 32.0992 11.9904 32.1969Q11.9807 32.2947 11.9616 32.391Q11.9424 32.4873 11.9139 32.5813Q11.8854 32.6753 11.8478 32.766Q11.8103 32.8567 11.764 32.9433Q11.7177 33.0299 11.6631 33.1116Q11.6085 33.1932 11.5462 33.2691Q11.4839 33.3451 11.4145 33.4145Q11.3451 33.4839 11.2692 33.5462Q11.1932 33.6085 11.1116 33.6631Q11.0299 33.7177 10.9433 33.764Q10.8567 33.8102 10.766 33.8478Q10.6753 33.8854 10.5813 33.9139Q10.4873 33.9424 10.391 33.9616Q10.2947 33.9807 10.1969 33.9904Q10.0992 34 10.001 34L9.999 34Q9.90079 34 9.80306 33.9904Q9.70533 33.9807 9.60901 33.9616Q9.5127 33.9424 9.41872 33.9139Q9.32474 33.8854 9.23401 33.8478Q9.14329 33.8102 9.05668 33.764Q8.97007 33.7177 8.88841 33.6631Q8.80676 33.6085 8.73085 33.5462Q8.65493 33.4839 8.58549 33.4145Q8.51605 33.3451 8.45375 33.2691Q8.39145 33.1932 8.33689 33.1116Q8.28233 33.0299 8.23604 32.9433Q8.18974 32.8567 8.15216 32.766Q8.11458 32.6753 8.08608 32.5813Q8.05757 32.4873 8.03841 32.391Q8.01925 32.2947 8.00963 32.1969Q8 32.0992 8 32.001L8 27.999Q8 27.9008 8.00963 27.8031Q8.01925 27.7053 8.03841 27.609Q8.05757 27.5127 8.08608 27.4187Q8.11458 27.3247 8.15216 27.234Q8.18974 27.1433 8.23604 27.0567Q8.28233 26.9701 8.33689 26.8884Q8.39145 26.8068 8.45375 26.7308Q8.51605 26.6549 8.58549 26.5855Q8.65493 26.5161 8.73085 26.4538Q8.80676 26.3915 8.88841 26.3369Q8.97007 26.2823 9.05668 26.236Q9.14329 26.1897 9.23401 26.1522Q9.32474 26.1146 9.41872 26.0861Q9.5127 26.0576 9.60901 26.0384Q9.70533 26.0193 9.80306 26.0096Q9.90079 26 9.999 26Z"
                fill="#FFFFFF" fill-rule="evenodd" id="Rectangle" stroke="none" />
            <path
                d="M9.999 26L10.001 26Q10.0992 26 10.1969 26.0096Q10.2947 26.0193 10.391 26.0384Q10.4873 26.0576 10.5813 26.0861Q10.6753 26.1146 10.766 26.1522Q10.8567 26.1897 10.9433 26.236Q11.0299 26.2823 11.1116 26.3369Q11.1932 26.3915 11.2692 26.4538Q11.3451 26.5161 11.4145 26.5855Q11.4839 26.6549 11.5462 26.7308Q11.6085 26.8068 11.6631 26.8884Q11.7177 26.9701 11.764 27.0567Q11.8103 27.1433 11.8478 27.234Q11.8854 27.3247 11.9139 27.4187Q11.9424 27.5127 11.9616 27.609Q11.9807 27.7053 11.9904 27.8031Q12 27.9008 12 27.999L12 32.001Q12 32.0992 11.9904 32.1969Q11.9807 32.2947 11.9616 32.391Q11.9424 32.4873 11.9139 32.5813Q11.8854 32.6753 11.8478 32.766Q11.8103 32.8567 11.764 32.9433Q11.7177 33.0299 11.6631 33.1116Q11.6085 33.1932 11.5462 33.2691Q11.4839 33.3451 11.4145 33.4145Q11.3451 33.4839 11.2692 33.5462Q11.1932 33.6085 11.1116 33.6631Q11.0299 33.7177 10.9433 33.764Q10.8567 33.8102 10.766 33.8478Q10.6753 33.8854 10.5813 33.9139Q10.4873 33.9424 10.391 33.9616Q10.2947 33.9807 10.1969 33.9904Q10.0992 34 10.001 34L9.999 34Q9.90079 34 9.80306 33.9904Q9.70533 33.9807 9.60901 33.9616Q9.5127 33.9424 9.41872 33.9139Q9.32474 33.8854 9.23401 33.8478Q9.14329 33.8102 9.05668 33.764Q8.97007 33.7177 8.88841 33.6631Q8.80676 33.6085 8.73085 33.5462Q8.65493 33.4839 8.58549 33.4145Q8.51605 33.3451 8.45375 33.2691Q8.39145 33.1932 8.33689 33.1116Q8.28233 33.0299 8.23604 32.9433Q8.18974 32.8567 8.15216 32.766Q8.11458 32.6753 8.08608 32.5813Q8.05757 32.4873 8.03841 32.391Q8.01925 32.2947 8.00963 32.1969Q8 32.0992 8 32.001L8 27.999Q8 27.9008 8.00963 27.8031Q8.01925 27.7053 8.03841 27.609Q8.05757 27.5127 8.08608 27.4187Q8.11458 27.3247 8.15216 27.234Q8.18974 27.1433 8.23604 27.0567Q8.28233 26.9701 8.33689 26.8884Q8.39145 26.8068 8.45375 26.7308Q8.51605 26.6549 8.58549 26.5855Q8.65493 26.5161 8.73085 26.4538Q8.80676 26.3915 8.88841 26.3369Q8.97007 26.2823 9.05668 26.236Q9.14329 26.1897 9.23401 26.1522Q9.32474 26.1146 9.41872 26.0861Q9.5127 26.0576 9.60901 26.0384Q9.70533 26.0193 9.80306 26.0096Q9.90079 26 9.999 26Z"
                fill="#FFFFFF" fill-rule="evenodd" id="Rectangle" stroke="none" />
            <path
                d="M50.999 26L51.001 26Q51.0992 26 51.1969 26.0096Q51.2947 26.0193 51.391 26.0384Q51.4873 26.0576 51.5813 26.0861Q51.6753 26.1146 51.766 26.1522Q51.8567 26.1897 51.9433 26.236Q52.0299 26.2823 52.1116 26.3369Q52.1932 26.3915 52.2691 26.4538Q52.3451 26.5161 52.4145 26.5855Q52.4839 26.6549 52.5462 26.7308Q52.6085 26.8068 52.6631 26.8884Q52.7177 26.9701 52.764 27.0567Q52.8102 27.1433 52.8478 27.234Q52.8854 27.3247 52.9139 27.4187Q52.9424 27.5127 52.9616 27.609Q52.9807 27.7053 52.9904 27.8031Q53 27.9008 53 27.999L53 32.001Q53 32.0992 52.9904 32.1969Q52.9807 32.2947 52.9616 32.391Q52.9424 32.4873 52.9139 32.5813Q52.8854 32.6753 52.8478 32.766Q52.8102 32.8567 52.764 32.9433Q52.7177 33.0299 52.6631 33.1116Q52.6085 33.1932 52.5462 33.2691Q52.4839 33.3451 52.4145 33.4145Q52.3451 33.4839 52.2691 33.5462Q52.1932 33.6085 52.1116 33.6631Q52.0299 33.7177 51.9433 33.764Q51.8567 33.8102 51.766 33.8478Q51.6753 33.8854 51.5813 33.9139Q51.4873 33.9424 51.391 33.9616Q51.2947 33.9807 51.1969 33.9904Q51.0992 34 51.001 34L50.999 34Q50.9008 34 50.8031 33.9904Q50.7053 33.9807 50.609 33.9616Q50.5127 33.9424 50.4187 33.9139Q50.3247 33.8854 50.234 33.8478Q50.1433 33.8102 50.0567 33.764Q49.9701 33.7177 49.8884 33.6631Q49.8068 33.6085 49.7308 33.5462Q49.6549 33.4839 49.5855 33.4145Q49.5161 33.3451 49.4537 33.2691Q49.3914 33.1932 49.3369 33.1116Q49.2823 33.0299 49.236 32.9433Q49.1897 32.8567 49.1522 32.766Q49.1146 32.6753 49.0861 32.5813Q49.0576 32.4873 49.0384 32.391Q49.0192 32.2947 49.0096 32.1969Q49 32.0992 49 32.001L49 27.999Q49 27.9008 49.0096 27.8031Q49.0192 27.7053 49.0384 27.609Q49.0576 27.5127 49.0861 27.4187Q49.1146 27.3247 49.1522 27.234Q49.1897 27.1433 49.236 27.0567Q49.2823 26.9701 49.3369 26.8884Q49.3914 26.8068 49.4538 26.7308Q49.5161 26.6549 49.5855 26.5855Q49.6549 26.5161 49.7308 26.4538Q49.8068 26.3915 49.8884 26.3369Q49.9701 26.2823 50.0567 26.236Q50.1433 26.1897 50.234 26.1522Q50.3247 26.1146 50.4187 26.0861Q50.5127 26.0576 50.609 26.0384Q50.7053 26.0193 50.8031 26.0096Q50.9008 26 50.999 26Z"
                fill="#FFFFFF" fill-rule="evenodd" id="Rectangle" stroke="none" />
            <g id="trophy" transform="translate(41 24)">
                <path
                    d="M15 27.2C14.1274 27.2 13.4211 26.5551 13.4211 25.7604L13.4211 21.4396C13.4211 20.6449 14.1274 20 15 20C15.8726 20 16.5789 20.6449 16.5789 21.4396L16.5789 25.7604C16.5789 26.5551 15.8716 27.2 15 27.2Z"
                    fill="#73CCEC" id="XMLID_8843_" stroke="none" />
                <path
                    d="M21.3158 26.24L21.3158 30.56C21.3158 31.3568 20.6648 32 19.8583 32L10.1417 32C9.33522 32 8.68421 31.3568 8.68421 30.56L8.68421 26.24C8.68421 25.4432 9.33522 24.8 10.1417 24.8L19.8583 24.8C20.6648 24.8 21.3158 25.4432 21.3158 26.24Z"
                    fill="#73CCEC" id="XMLID_8847_" stroke="none" />
                <path
                    d="M21.4319 32L7.77864 32C6.97017 32 6.31579 31.2832 6.31579 30.4C6.31579 29.5168 6.97017 28.8 7.77864 28.8L21.4319 28.8C22.2404 28.8 22.8947 29.5168 22.8947 30.4C22.8947 31.2832 22.2394 32 21.4319 32Z"
                    fill="#73CCEC" id="XMLID_8839_" stroke="none" />
                <path
                    d="M22.7518 16C22.0483 16 21.4329 15.465 21.3304 14.724C21.2182 13.9126 21.7646 13.1586 22.5506 13.0427C25.1586 12.6573 27.1245 10.3084 27.1245 7.57895L27.1245 6.17214L22.8017 6.17214C22.0071 6.17214 21.3639 5.50638 21.3639 4.68607C21.3639 3.86576 22.0071 3.2 22.8017 3.2L28.5623 3.2C29.3568 3.2 30 3.86576 30 4.68607L30 7.57895C30 11.7776 26.9721 15.3917 22.957 15.9851C22.8879 15.995 22.8199 16 22.7518 16L22.7518 16Z"
                    fill="#73CCEC" id="XMLID_8838_" stroke="none" />
                <path
                    d="M22.9778 0L7.02216 0C6.19446 0 5.52632 0.675826 5.52632 1.51304L5.52632 13.6174C5.52632 18.903 9.77452 23.2 15 23.2C20.2255 23.2 24.4737 18.903 24.4737 13.6174L24.4737 1.51304C24.4737 0.675826 23.8055 0 22.9778 0ZM11.5197 8.57391C11.5197 9.41113 10.8515 10.087 10.0238 10.087C9.19612 10.087 8.52798 9.41113 8.52798 8.57391L8.52798 4.53913C8.52798 3.70191 9.19612 3.02609 10.0238 3.02609C10.8515 3.02609 11.5197 3.70191 11.5197 4.53913L11.5197 8.57391Z"
                    fill="#73CCEC" id="XMLID_8848_" stroke="none" />
                <path
                    d="M6.5874 16C6.52459 16 6.46004 15.995 6.39637 15.9841C2.7494 15.3788 0 11.7647 0 7.57895L0 4.68607C0 3.86576 0.585294 3.2 1.30841 3.2L6.54204 3.2C7.26515 3.2 7.85045 3.86576 7.85045 4.68607C7.85045 5.50638 7.26515 6.17214 6.54204 6.17214L2.61682 6.17214L2.61682 7.57895C2.61682 10.3004 4.4041 12.6494 6.77493 13.0437C7.4902 13.1626 7.98478 13.9175 7.88098 14.7289C7.78503 15.468 7.22677 16 6.5874 16L6.5874 16Z"
                    fill="#73CCEC" id="XMLID_8911_" stroke="none" />
            </g>
            <g id="trophy-copy" transform="translate(0 24)">
                <path
                    d="M15 27.2C14.1274 27.2 13.4211 26.5551 13.4211 25.7604L13.4211 21.4396C13.4211 20.6449 14.1274 20 15 20C15.8726 20 16.5789 20.6449 16.5789 21.4396L16.5789 25.7604C16.5789 26.5551 15.8716 27.2 15 27.2Z"
                    fill="#ED5D5D" id="XMLID_8843_" stroke="none" />
                <path
                    d="M21.3158 26.24L21.3158 30.56C21.3158 31.3568 20.6648 32 19.8583 32L10.1417 32C9.33522 32 8.68421 31.3568 8.68421 30.56L8.68421 26.24C8.68421 25.4432 9.33522 24.8 10.1417 24.8L19.8583 24.8C20.6648 24.8 21.3158 25.4432 21.3158 26.24Z"
                    fill="#ED5D5D" id="XMLID_8847_" stroke="none" />
                <path
                    d="M21.4319 32L7.77864 32C6.97017 32 6.31579 31.2832 6.31579 30.4C6.31579 29.5168 6.97017 28.8 7.77864 28.8L21.4319 28.8C22.2404 28.8 22.8947 29.5168 22.8947 30.4C22.8947 31.2832 22.2394 32 21.4319 32Z"
                    fill="#ED5D5D" id="XMLID_8839_" stroke="none" />
                <path
                    d="M22.7518 16C22.0483 16 21.4329 15.465 21.3304 14.724C21.2182 13.9126 21.7646 13.1586 22.5506 13.0427C25.1586 12.6573 27.1245 10.3084 27.1245 7.57895L27.1245 6.17214L22.8017 6.17214C22.0071 6.17214 21.3639 5.50638 21.3639 4.68607C21.3639 3.86576 22.0071 3.2 22.8017 3.2L28.5623 3.2C29.3568 3.2 30 3.86576 30 4.68607L30 7.57895C30 11.7776 26.9721 15.3917 22.957 15.9851C22.8879 15.995 22.8199 16 22.7518 16L22.7518 16Z"
                    fill="#ED5D5D" id="XMLID_8838_" stroke="none" />
                <path
                    d="M22.9778 0L7.02216 0C6.19446 0 5.52632 0.675826 5.52632 1.51304L5.52632 13.6174C5.52632 18.903 9.77452 23.2 15 23.2C20.2255 23.2 24.4737 18.903 24.4737 13.6174L24.4737 1.51304C24.4737 0.675826 23.8055 0 22.9778 0ZM11.5197 8.57391C11.5197 9.41113 10.8515 10.087 10.0238 10.087C9.19612 10.087 8.52798 9.41113 8.52798 8.57391L8.52798 4.53913C8.52798 3.70191 9.19612 3.02609 10.0238 3.02609C10.8515 3.02609 11.5197 3.70191 11.5197 4.53913L11.5197 8.57391Z"
                    fill="#ED5D5D" id="XMLID_8848_" stroke="none" />
                <path
                    d="M6.5874 16C6.52459 16 6.46004 15.995 6.39637 15.9841C2.7494 15.3788 0 11.7647 0 7.57895L0 4.68607C0 3.86576 0.585294 3.2 1.30841 3.2L6.54204 3.2C7.26515 3.2 7.85045 3.86576 7.85045 4.68607C7.85045 5.50638 7.26515 6.17214 6.54204 6.17214L2.61682 6.17214L2.61682 7.57895C2.61682 10.3004 4.4041 12.6494 6.77493 13.0437C7.4902 13.1626 7.98478 13.9175 7.88098 14.7289C7.78503 15.468 7.22677 16 6.5874 16L6.5874 16Z"
                    fill="#ED5D5D" id="XMLID_8911_" stroke="none" />
            </g>
        </g>
    </g>
</svg>