<?xml version="1.0" encoding="UTF-8"?>
<svg height="25px" version="1.1" viewBox="0 0 25 25" width="25px"
    xmlns="http://www.w3.org/2000/svg">
    <title>ic_notification_off@1.5x</title>
    <g fill="none" fill-rule="evenodd" id="Slices" stroke="none" stroke-width="1">
        <g fill="#7EBA61" id="Artboard" transform="translate(-425.000000, -1707.000000)">
            <g id="ic_notification_off" transform="translate(425.893398, 1707.000000)">
                <path
                    d="M15.4642056,21.875 C15.0989113,23.6551285 13.5081508,25 11.6065056,25 C9.70505266,25 8.11429211,23.6551285 7.74880556,21.875 Z M4.25560172,9.599 L15.4896017,20.833 L2.94403201,20.8333969 C1.98148157,20.8333969 1.18949613,20.0954404 1.11270396,19.1596712 L1.10660172,19.0103531 C1.10660172,18.4770584 1.34077456,17.9729462 1.74913518,17.6259995 C3.34624026,16.2864685 4.2565921,14.3405914 4.2565921,12.279129 L4.25560172,9.599 Z M11.6065056,0 C12.1861699,0 12.6566306,0.465583789 12.6566306,1.04160308 L12.6566306,2.16674805 C16.2119054,2.67505645 18.9566113,5.70945742 18.9566113,9.375 L18.9566113,12.279129 C18.9566113,13.1985192 19.1376862,14.0949187 19.4791477,14.9240645 L7.77817459,3.22182541 C7.76548255,3.20913337 7.75271729,3.19655918 7.73988016,3.18410285 C8.58032623,2.66726168 9.53490801,2.31277119 10.5565729,2.16674805 L10.5565729,1.04160308 C10.5565729,0.465583789 11.0270335,0 11.6065056,0 Z"
                    id="Combined-Shape"></path>
                <rect height="30" id="Rectangle" rx="2"
                    transform="translate(12.020815, 12.414214) rotate(-45.000000) translate(-12.020815, -12.414214) "
                    width="4" x="10.0208153" y="-2.58578644"></rect>
            </g>
        </g>
    </g>
</svg>