<?xml version="1.0" encoding="utf-8"?>
<svg xmlns:xlink="http://www.w3.org/1999/xlink" height="150px" version="1.1" viewBox="0 0 150 150"
    width="150px" xmlns="http://www.w3.org/2000/svg">
    <defs>
        <filter color-interpolation-filters="sRGB" filterUnits="userSpaceOnUse" id="filter_1">
            <feFlood flood-opacity="0" result="BackgroundImageFix" />
            <feColorMatrix in="SourceAlpha" type="matrix"
                values="0 0 0 0 0 0 0 0 0 0 0 0 0 0 0 0 0 0 127 0" />
            <feOffset dx="0" dy="-3" />
            <feGaussianBlur stdDeviation="5" />
            <feColorMatrix type="matrix" values="0 0 0 0 0 0 0 0 0 0 0 0 0 0 0 0 0 0 0.2 0" />
            <feBlend in2="BackgroundImageFix" mode="normal" result="effect0_dropShadow" />
            <feBlend in="SourceGraphic" in2="effect0_dropShadow" mode="normal" result="shape" />
        </filter>
        <rect height="150" id="artboard_1" width="150" />
        <clipPath id="clip_1">
            <use clip-rule="evenodd" xlink:href="#artboard_1" />
        </clipPath>
    </defs>
    <g clip-path="url(#clip_1)" id="1-AtomsIconsNoCoins">
        <g filter="url(#filter_1)">
            <g id="Group-30" transform="translate(-5.684342E-14 50)">
                <g id="Group-28-Copy" transform="matrix(1 0 0 -1 36.004753 31.26706)">
                    <path
                        d="M50.7641 12.8875L29.2256 12.8875C23.7611 12.8875 19.3311 8.46098 19.3311 3.00073L60.6582 3.00073C60.6582 8.46098 56.2286 12.8875 50.7641 12.8875Z"
                        fill="#8F7855" id="Path" stroke="none" />
                    <path
                        d="M77.0452 31.2671C75.4179 31.2671 74.0994 29.9492 74.0994 28.3236L74.0994 21.02C74.0994 12.6756 67.3069 5.88686 58.9579 5.88686L21.0326 5.88686C12.6836 5.88686 5.89147 12.6756 5.89147 21.02L5.89147 28.3236C5.89147 29.9492 4.57296 31.2671 2.94574 31.2671C1.31851 31.2671 -1.13687e-13 29.9492 -1.13687e-13 28.3236L-1.13687e-13 21.02C-1.13687e-13 9.42957 9.435 5.32907e-15 21.0326 5.32907e-15L58.9579 5.32907e-15C70.5555 5.32907e-15 79.9909 9.42957 79.9909 21.02L79.9909 28.3236C79.9909 29.9492 78.672 31.2671 77.0452 31.2671Z"
                        fill="#F5DC60" id="Path" stroke="none" />
                </g>
                <g id="Group-31" transform="translate(0 7.3613453)">
                    <g id="Group-29" transform="translate(0 -9.764278E-10)">
                        <g id="sport-bag-2" transform="translate(0 -1.7038815E-10)">
                            <g id="sport-bag" transform="matrix(1 0 0 1 0 -3.0979663E-12)">
                                <path
                                    d="M152 10.8554L152 64.7829C152 70.7796 147.138 75.6383 141.136 75.6383L10.8599 75.6383C4.86243 75.6383 0 70.7796 0 64.7829L0 10.8554C0 4.85862 4.86243 -2.84217e-14 10.8599 -2.84217e-14L141.136 -2.84217e-14C147.138 -2.84217e-14 152 4.85862 152 10.8554Z"
                                    fill="#7EBA61" id="Path" stroke="none" />
                                <path
                                    d="M141.136 60.9219L10.8599 60.9219C4.86243 60.9219 0 56.0633 0 50.0665L0 64.7829C0 70.7796 4.86243 75.6383 10.8599 75.6383L141.136 75.6383C147.138 75.6383 152 70.7796 152 64.7829L152 50.0665C152 56.0633 147.138 60.9219 141.136 60.9219Z"
                                    fill="#709F59" id="Path" stroke="none" />
                                <path
                                    d="M152 10.8554L152 64.7829C152 70.7796 147.138 75.6383 141.136 75.6383L134.718 75.6383L134.718 -2.84217e-14L141.136 -2.84217e-14C147.138 -2.84217e-14 152 4.85862 152 10.8554L152 10.8554Z"
                                    fill="#BAD450" id="Path" stroke="none" />
                                <path
                                    d="M17.2817 -6.11311e-15L17.2817 75.6383L10.8639 75.6383C4.86243 75.6383 0 70.7796 0 64.7829L0 10.8554C0 4.85862 4.86243 -2.84217e-14 10.8639 -2.84217e-14L17.2817 -6.11311e-15Z"
                                    fill="#BAD450" id="Path" stroke="none" />
                                <path
                                    d="M10.8599 60.9211L17.2817 60.9211L17.2817 75.6383L10.8639 75.6383C4.86243 75.6383 0 70.7796 0 64.7829L0 50.0658C0 56.0625 4.86243 60.9211 10.8599 60.9211Z"
                                    fill="#AAC249" id="Path" stroke="none" />
                                <path
                                    d="M152 50.0658L152 64.7829C152 70.7796 147.138 75.6383 141.136 75.6383L134.718 75.6383L134.718 60.9211L141.136 60.9211C147.138 60.9211 152 56.0625 152 50.0658Z"
                                    fill="#AAC249" id="Path" stroke="none" />
                                <path
                                    d="M32.9263 48.4025L70.1081 48.4025L70.1081 75.6383L32.9263 75.6383L32.9263 48.4025Z"
                                    fill="#BAD450" id="Path" stroke="none" />
                                <path
                                    d="M81.8911 48.4025L119.073 48.4025L119.073 75.6383L81.8911 75.6383L81.8911 48.4025Z"
                                    fill="#BAD450" id="Path" stroke="none" />
                                <g id="Group" transform="translate(39.079712 31.221958)">
                                    <path
                                        d="M2.94574 14.5209C1.31851 14.5209 1.15463e-14 13.203 1.15463e-14 11.5775L1.15463e-14 2.94343C1.15463e-14 1.31787 1.31851 0 2.94574 0C4.57296 0 5.89147 1.31787 5.89147 2.94343L5.89147 11.5775C5.89147 13.203 4.57257 14.5209 2.94574 14.5209Z"
                                        fill="#BAD450" id="Path" stroke="none" />
                                    <path
                                        d="M19.9287 14.5209C18.3015 14.5209 16.9829 13.203 16.9829 11.5775L16.9829 2.94343C16.9829 1.31787 18.3015 0 19.9287 0C21.5559 0 22.8744 1.31787 22.8744 2.94343L22.8744 11.5775C22.8744 13.203 21.5555 14.5209 19.9287 14.5209Z"
                                        fill="#BAD450" id="Path" stroke="none" />
                                    <path
                                        d="M36.9116 14.5209C35.2844 14.5209 33.9659 13.203 33.9659 11.5775L33.9659 2.94343C33.9659 1.31787 35.2844 0 36.9116 0C38.5389 0 39.8574 1.31787 39.8574 2.94343L39.8574 11.5775C39.8574 13.203 38.5385 14.5209 36.9116 14.5209Z"
                                        fill="#BAD450" id="Path" stroke="none" />
                                    <path
                                        d="M53.8946 14.5209C52.2673 14.5209 50.9488 13.203 50.9488 11.5775L50.9488 2.94343C50.9488 1.31787 52.2673 0 53.8946 0C55.5218 0 56.8403 1.31787 56.8403 2.94343L56.8403 11.5775C56.8403 13.203 55.5214 14.5209 53.8946 14.5209Z"
                                        fill="#BAD450" id="Path" stroke="none" />
                                    <path
                                        d="M70.8775 20.4082C69.2503 20.4082 67.9318 19.0903 67.9318 17.4647L67.9318 2.94343C67.9318 1.31787 69.2503 2.13163e-14 70.8775 2.13163e-14C72.5047 2.13163e-14 73.8233 1.31787 73.8233 2.94343L73.8233 17.4647C73.8233 19.0903 72.5044 20.4082 70.8775 20.4082Z"
                                        fill="#BAD450" id="Path" stroke="none" />
                                    <path
                                        d="M11.4372 14.5209C9.80999 14.5209 8.49147 13.203 8.49147 11.5775L8.49147 2.94343C8.49147 1.31787 9.80999 0 11.4372 0C13.0644 0 14.3829 1.31787 14.3829 2.94343L14.3829 11.5775C14.3829 13.203 13.064 14.5209 11.4372 14.5209Z"
                                        fill="#BAD450" id="Path" stroke="none" />
                                    <path
                                        d="M28.4202 14.5209C26.7929 14.5209 25.4744 13.203 25.4744 11.5775L25.4744 2.94343C25.4744 1.31787 26.7929 0 28.4202 0C30.0474 0 31.3659 1.31787 31.3659 2.94343L31.3659 11.5775C31.3659 13.203 30.047 14.5209 28.4202 14.5209Z"
                                        fill="#BAD450" id="Path" stroke="none" />
                                    <path
                                        d="M45.4031 14.5209C43.7759 14.5209 42.4574 13.203 42.4574 11.5775L42.4574 2.94343C42.4574 1.31787 43.7759 0 45.4031 0C47.0303 0 48.3488 1.31787 48.3488 2.94343L48.3488 11.5775C48.3488 13.203 47.0299 14.5209 45.4031 14.5209Z"
                                        fill="#BAD450" id="Path" stroke="none" />
                                    <path
                                        d="M62.386 14.5209C60.7588 14.5209 59.4403 13.203 59.4403 11.5775L59.4403 2.94343C59.4403 1.31787 60.7588 0 62.386 0C64.0133 0 65.3318 1.31787 65.3318 2.94343L65.3318 11.5775C65.3318 13.203 64.0129 14.5209 62.386 14.5209Z"
                                        fill="#BAD450" id="Path" stroke="none" />
                                </g>
                                <path
                                    d="M32.9263 60.9219L70.1081 60.9219L70.1081 75.6387L32.9263 75.6387L32.9263 60.9219Z"
                                    fill="#AAC249" id="Path" stroke="none" />
                                <path
                                    d="M114.953 57.1901C114.953 52.4939 112.724 48.6867 109.973 48.6867C107.223 48.6867 104.994 52.4939 104.994 57.1901C104.994 61.8862 107.223 61.7685 109.973 61.7685C112.724 61.7685 114.953 61.8862 114.953 57.1901L114.953 57.1901Z"
                                    fill="#526071" id="Path" stroke="none" />
                                <path
                                    d="M81.8911 60.9219L119.073 60.9219L119.073 75.6387L81.8911 75.6387L81.8911 60.9219Z"
                                    fill="#AAC249" id="Path" stroke="none" />
                                <path
                                    d="M32.9263 56.579L70.1081 56.579L70.1081 62.4658L32.9263 62.4658L32.9263 56.579Z"
                                    fill="#8F7855" id="Path" stroke="none" />
                                <path
                                    d="M81.8911 56.579L119.073 56.579L119.073 62.4658L81.8911 62.4658L81.8911 56.579Z"
                                    fill="#8F7855" id="Path" stroke="none" />
                            </g>
                        </g>
                    </g>
                </g>
                <g id="Group-28" transform="matrix(1 0 0 -1 36.004753 61.26706)">
                    <path
                        d="M50.7641 12.8875L29.2256 12.8875C23.7611 12.8875 19.3311 8.46098 19.3311 3.00073L60.6582 3.00073C60.6582 8.46098 56.2286 12.8875 50.7641 12.8875Z"
                        fill="#8F7855" id="Path" stroke="none" />
                    <path
                        d="M77.0452 31.2671C75.4179 31.2671 74.0994 29.9492 74.0994 28.3236L74.0994 21.02C74.0994 12.6756 67.3069 5.88686 58.9579 5.88686L21.0326 5.88686C12.6836 5.88686 5.89147 12.6756 5.89147 21.02L5.89147 28.3236C5.89147 29.9492 4.57296 31.2671 2.94574 31.2671C1.31851 31.2671 -1.13687e-13 29.9492 -1.13687e-13 28.3236L-1.13687e-13 21.02C-1.13687e-13 9.42957 9.435 5.32907e-15 21.0326 5.32907e-15L58.9579 5.32907e-15C70.5555 5.32907e-15 79.9909 9.42957 79.9909 21.02L79.9909 28.3236C79.9909 29.9492 78.672 31.2671 77.0452 31.2671Z"
                        fill="#F5DC60" id="Path" stroke="none" />
                </g>
                <path
                    d="M12.999 10L140.001 10Q140.173 10 140.344 10.0084Q140.516 10.0169 140.687 10.0337Q140.858 10.0505 141.028 10.0758Q141.198 10.101 141.366 10.1345Q141.535 10.168 141.702 10.2098Q141.868 10.2515 142.033 10.3014Q142.197 10.3512 142.359 10.4091Q142.521 10.467 142.679 10.5328Q142.838 10.5985 142.993 10.672Q143.149 10.7454 143.3 10.8264Q143.452 10.9074 143.599 10.9958Q143.747 11.0841 143.889 11.1795Q144.032 11.275 144.17 11.3773Q144.308 11.4797 144.441 11.5887Q144.574 11.6977 144.701 11.8131Q144.829 11.9285 144.95 12.05Q145.072 12.1715 145.187 12.2988Q145.302 12.4261 145.411 12.5589Q145.52 12.6917 145.623 12.8297Q145.725 12.9677 145.82 13.1106Q145.916 13.2534 146.004 13.4008Q146.093 13.5482 146.174 13.6997Q146.255 13.8512 146.328 14.0065Q146.401 14.1619 146.467 14.3206Q146.533 14.4793 146.591 14.6411Q146.649 14.8029 146.699 14.9673Q146.749 15.1317 146.79 15.2984Q146.832 15.465 146.866 15.6336Q146.899 15.8021 146.924 15.972Q146.949 16.142 146.966 16.313Q146.983 16.484 146.992 16.6556Q147 16.8272 147 16.999L147 21.001Q147 21.1728 146.992 21.3444Q146.983 21.516 146.966 21.687Q146.949 21.858 146.924 22.028Q146.899 22.1979 146.866 22.3664Q146.832 22.5349 146.79 22.7016Q146.749 22.8683 146.699 23.0327Q146.649 23.1971 146.591 23.3589Q146.533 23.5207 146.467 23.6794Q146.401 23.8381 146.328 23.9935Q146.255 24.1488 146.174 24.3003Q146.093 24.4518 146.004 24.5992Q145.916 24.7466 145.82 24.8894Q145.725 25.0323 145.623 25.1703Q145.52 25.3083 145.411 25.4411Q145.302 25.5739 145.187 25.7012Q145.072 25.8285 144.95 25.95Q144.829 26.0715 144.701 26.1869Q144.574 26.3023 144.441 26.4113Q144.308 26.5203 144.17 26.6226Q144.032 26.725 143.889 26.8205Q143.747 26.9159 143.599 27.0042Q143.452 27.0926 143.3 27.1736Q143.149 27.2546 142.993 27.328Q142.838 27.4015 142.679 27.4672Q142.521 27.533 142.359 27.5909Q142.197 27.6487 142.033 27.6986Q141.868 27.7485 141.702 27.7902Q141.535 27.832 141.366 27.8655Q141.198 27.899 141.028 27.9242Q140.858 27.9495 140.687 27.9663Q140.516 27.9831 140.344 27.9916Q140.173 28 140.001 28L12.999 28Q12.8272 28 12.6556 27.9916Q12.484 27.9831 12.313 27.9663Q12.142 27.9495 11.972 27.9242Q11.8021 27.899 11.6336 27.8655Q11.465 27.832 11.2984 27.7902Q11.1317 27.7485 10.9673 27.6986Q10.8029 27.6487 10.6411 27.5909Q10.4793 27.533 10.3206 27.4672Q10.1619 27.4015 10.0065 27.328Q9.85122 27.2546 9.69969 27.1736Q9.54817 27.0926 9.40079 27.0042Q9.25342 26.9159 9.11056 26.8204Q8.9677 26.725 8.8297 26.6226Q8.6917 26.5203 8.55888 26.4113Q8.42607 26.3023 8.29876 26.1869Q8.17145 26.0715 8.04996 25.95Q7.92847 25.8285 7.81308 25.7012Q7.6977 25.5739 7.5887 25.4411Q7.4797 25.3083 7.37735 25.1703Q7.275 25.0323 7.17954 24.8894Q7.08409 24.7466 6.99576 24.5992Q6.90743 24.4518 6.82643 24.3003Q6.74544 24.1488 6.67198 23.9935Q6.59852 23.8381 6.53277 23.6794Q6.46702 23.5207 6.40913 23.3589Q6.35125 23.1971 6.30137 23.0327Q6.2515 22.8683 6.20975 22.7016Q6.168 22.5349 6.13448 22.3664Q6.10096 22.1979 6.07575 22.028Q6.05054 21.858 6.0337 21.687Q6.01686 21.516 6.00843 21.3444Q6 21.1728 6 21.001L6 16.999Q6 16.8272 6.00843 16.6556Q6.01686 16.484 6.0337 16.313Q6.05054 16.142 6.07575 15.972Q6.10096 15.8021 6.13448 15.6336Q6.168 15.465 6.20975 15.2984Q6.2515 15.1317 6.30137 14.9673Q6.35125 14.8029 6.40913 14.6411Q6.46702 14.4793 6.53277 14.3206Q6.59852 14.1619 6.67198 14.0065Q6.74544 13.8512 6.82643 13.6997Q6.90743 13.5482 6.99576 13.4008Q7.08409 13.2534 7.17954 13.1106Q7.275 12.9677 7.37735 12.8297Q7.4797 12.6917 7.5887 12.5589Q7.6977 12.4261 7.81308 12.2988Q7.92847 12.1715 8.04996 12.05Q8.17145 11.9285 8.29876 11.8131Q8.42607 11.6977 8.55888 11.5887Q8.6917 11.4797 8.8297 11.3773Q8.9677 11.275 9.11056 11.1795Q9.25342 11.0841 9.40079 10.9958Q9.54817 10.9074 9.69969 10.8264Q9.85122 10.7454 10.0065 10.672Q10.1619 10.5985 10.3206 10.5328Q10.4793 10.467 10.6411 10.4091Q10.8029 10.3512 10.9673 10.3014Q11.1317 10.2515 11.2984 10.2098Q11.465 10.168 11.6336 10.1345Q11.8021 10.101 11.972 10.0758Q12.142 10.0505 12.313 10.0337Q12.484 10.0169 12.6556 10.0084Q12.8272 10 12.999 10Z"
                    fill="#46543F" fill-rule="evenodd" id="Rectangle" stroke="none" />
            </g>
        </g>
        <g id="Group" transform="translate(51 17)">
            <path
                d="M25.5 11C28.5376 11 31 8.53757 31 5.5C31 2.46243 28.5376 0 25.5 0C22.4624 0 20 2.46243 20 5.5C20 8.53757 22.4624 11 25.5 11Z"
                fill="#FFFFFF" fill-rule="evenodd" id="Oval" stroke="none" />
            <path
                d="M45.5 11C48.5376 11 51 8.53757 51 5.5C51 2.46243 48.5376 0 45.5 0C42.4624 0 40 2.46243 40 5.5C40 8.53757 42.4624 11 45.5 11Z"
                fill="#FFFFFF" fill-rule="evenodd" id="Oval-Copy" stroke="none" />
            <path
                d="M5.5 11C8.53757 11 11 8.53757 11 5.5C11 2.46243 8.53757 0 5.5 0C2.46243 0 0 2.46243 0 5.5C0 8.53757 2.46243 11 5.5 11Z"
                fill="#FFFFFF" fill-rule="evenodd" id="Oval-Copy-3" stroke="none" />
        </g>
    </g>
</svg>