<?xml version="1.0" encoding="UTF-8"?>
<svg height="25px" version="1.1" viewBox="0 0 21 25" width="21px"
    xmlns="http://www.w3.org/2000/svg">
    <title>ic_notification_on@1.5x</title>
    <g fill="none" fill-rule="evenodd" id="Slices" stroke="none" stroke-width="1">
        <g fill="#7EBA61" fill-rule="nonzero" id="Artboard"
            transform="translate(-385.000000, -1707.000000)">
            <g id="ic_notification_on" transform="translate(385.000000, 1707.000000)">
                <g id="bell" transform="translate(0.000000, 0.000000)">
                    <path
                        d="M20.3478536,17.6177979 C18.7603614,16.2864685 17.8500096,14.3405914 17.8500096,12.279129 L17.8500096,9.375 C17.8500096,5.70945742 15.1053036,2.67505645 11.5500288,2.16674805 L11.5500288,1.04160308 C11.5500288,0.465583789 11.0795682,0 10.4999039,0 C9.92043177,0 9.44997116,0.465583789 9.44997116,1.04160308 L9.44997116,2.16674805 C5.89354283,2.67505645 3.14999039,5.70945742 3.14999039,9.375 L3.14999039,12.279129 C3.14999039,14.3405914 2.23963854,16.2864685 0.642533464,17.6259995 C0.234172845,17.9729462 2.79775348e-15,18.4770584 2.79775348e-15,19.0103531 C2.79775348e-15,20.0157166 0.824219298,20.8333969 1.83743029,20.8333969 L19.1623774,20.8333969 C20.1757807,20.8333969 21,20.0157166 21,19.0103531 C21,18.4770584 20.7658271,17.9729462 20.3478536,17.6177979 Z"
                        id="Path"></path>
                    <path
                        d="M10.4999039,25 C12.4015491,25 13.9923096,23.6551285 14.3576039,21.875 L6.64220385,21.875 C7.00769039,23.6551285 8.59845094,25 10.4999039,25 Z"
                        id="Path"></path>
                </g>
            </g>
        </g>
    </g>
</svg>