<?xml version="1.0" encoding="utf-8"?>
<svg xmlns:xlink="http://www.w3.org/1999/xlink" height="150px" version="1.1" viewBox="0 0 150 150"
    width="150px" xmlns="http://www.w3.org/2000/svg">
    <defs>
        <filter color-interpolation-filters="sRGB" filterUnits="userSpaceOnUse" id="filter_1">
            <feFlood flood-opacity="0" result="BackgroundImageFix" />
            <feColorMatrix in="SourceAlpha" type="matrix"
                values="0 0 0 0 0 0 0 0 0 0 0 0 0 0 0 0 0 0 127 0" />
            <feOffset dx="0" dy="2" />
            <feGaussianBlur stdDeviation="5" />
            <feColorMatrix type="matrix" values="0 0 0 0 0 0 0 0 0 0 0 0 0 0 0 0 0 0 0.2 0" />
            <feBlend in2="BackgroundImageFix" mode="normal" result="effect0_dropShadow" />
            <feBlend in="SourceGraphic" in2="effect0_dropShadow" mode="normal" result="shape" />
        </filter>
        <rect height="150" id="artboard_1" width="150" />
        <clipPath id="clip_1">
            <use clip-rule="evenodd" xlink:href="#artboard_1" />
        </clipPath>
    </defs>
    <g clip-path="url(#clip_1)" id="1-AtomsIconsPlayBet">
        <g filter="url(#filter_1)">
            <g id="Group-2" transform="translate(7.5 7.5)">
                <g id="Group"
                    transform="matrix(0.9848077 -0.17364818 0.17364818 0.9848077 1.9073486E-06 20.38589)">
                    <g id="1-Protonsiconscommunicationic_chat_bubble">
                        <g id="1-Protonsiconscommunicationic_chat_bubble">
                            <g id="Icon-24px">
                                <path
                                    d="M97.8314 9.78314L19.5663 9.78314C14.1855 9.78314 9.78314 14.1855 9.78314 19.5663L9.78314 107.615L29.3494 88.0482L97.8314 88.0482C103.212 88.0482 107.615 83.6458 107.615 78.2651L107.615 19.5663C107.615 14.1855 103.212 9.78314 97.8314 9.78314L97.8314 9.78314Z"
                                    fill="#FFFFFF" fill-rule="evenodd" id="Shape" stroke="none" />
                                <path d="M0 0L117.398 0L117.398 117.398L0 117.398L0 0Z" fill="none"
                                    fill-rule="evenodd" id="Shape" stroke="none" />
                            </g>
                        </g>
                    </g>
                    <g id="ElementsIconFriends" transform="translate(33.19609 22.866549)">
                        <path
                            d="M25.5604 1.94122L7.76488 1.94122L7.76488 47.1786Q7.76488 47.2768 7.77451 47.3745Q7.78413 47.4723 7.80329 47.5686Q7.82245 47.6649 7.85096 47.7589Q7.87947 47.8528 7.91705 47.9436Q7.95463 48.0343 8.00092 48.1209Q8.04721 48.2075 8.10177 48.2892Q8.15633 48.3708 8.21863 48.4467Q8.28094 48.5227 8.35038 48.5921Q8.41982 48.6615 8.49573 48.7238Q8.57164 48.7861 8.6533 48.8407Q8.73495 48.8953 8.82156 48.9416Q8.90817 48.9878 8.9989 49.0254Q9.08963 49.063 9.1836 49.0915Q9.27758 49.12 9.3739 49.1392Q9.47021 49.1583 9.56795 49.168Q9.66568 49.1776 9.76388 49.1776L30.737 49.1776Q31.0626 49.1776 31.3878 49.1616Q31.7131 49.1456 32.0371 49.1137Q32.3611 49.0818 32.6832 49.034Q33.0053 48.9863 33.3247 48.9227Q33.644 48.8592 33.9599 48.7801Q34.2757 48.701 34.5873 48.6064Q34.8989 48.5119 35.2055 48.4022Q35.5121 48.2925 35.8129 48.1679Q36.1137 48.0433 36.4081 47.9041Q36.7024 47.7649 36.9896 47.6114Q37.2768 47.4579 37.5561 47.2905Q37.8353 47.1231 38.1061 46.9422Q38.3768 46.7613 38.6384 46.5673Q38.8999 46.3734 39.1516 46.1668Q39.4033 45.9602 39.6446 45.7416Q39.8858 45.5229 40.1161 45.2927Q40.3463 45.0624 40.565 44.8211Q40.7836 44.5799 40.9902 44.3282Q41.1968 44.0765 41.3907 43.8149Q41.5847 43.5534 41.7656 43.2827Q41.9465 43.0119 42.1139 42.7326Q42.2813 42.4534 42.4348 42.1662Q42.5883 41.879 42.7275 41.5847Q42.8667 41.2903 42.9913 40.9895Q43.1159 40.6887 43.2256 40.3821Q43.3353 40.0755 43.4299 39.7639Q43.5244 39.4523 43.6035 39.1365Q43.6826 38.8206 43.7461 38.5013Q43.8097 38.1819 43.8574 37.8598Q43.9052 37.5377 43.9371 37.2137Q43.9691 36.8896 43.985 36.5644Q44.001 36.2392 44.001 35.9136L44.001 35.9116Q44.001 35.4223 43.965 34.9344Q43.9289 34.4465 43.857 33.9625Q43.7851 33.4786 43.6778 33.0012Q43.5704 32.5239 43.4282 32.0558Q43.286 31.5876 43.1096 31.1312Q42.9333 30.6749 42.7238 30.2327Q42.5144 29.7906 42.2729 29.365Q42.0314 28.9395 41.7592 28.533Q41.4871 28.1264 41.1857 27.741Q40.8843 27.3556 40.5553 26.9934Q40.2264 26.6312 39.8716 26.2943Q39.5169 25.9573 39.1383 25.6475Q38.7597 25.3376 38.3593 25.0564Q37.9589 24.7752 37.5388 24.5243Q37.1188 24.2735 36.6814 24.0542Q36.244 23.8349 35.7917 23.6485Q36.1559 23.2071 36.4807 22.736Q36.8055 22.2649 37.0885 21.7675Q37.3715 21.2702 37.6106 20.7504Q37.8498 20.2305 38.0432 19.692Q38.2367 19.1535 38.3831 18.6003Q38.5295 18.0471 38.6277 17.4834Q38.7259 16.9196 38.7751 16.3495Q38.8244 15.7794 38.8244 15.2072L38.8244 15.2052Q38.8244 14.8796 38.8084 14.5544Q38.7925 14.2292 38.7605 13.9051Q38.7286 13.5811 38.6809 13.259Q38.6331 12.9369 38.5696 12.6175Q38.506 12.2982 38.4269 11.9823Q38.3478 11.6665 38.2533 11.3549Q38.1588 11.0433 38.0491 10.7367Q37.9394 10.4301 37.8148 10.1293Q37.6901 9.82848 37.5509 9.53413Q37.4117 9.23978 37.2582 8.95262Q37.1047 8.66545 36.9373 8.38616Q36.7699 8.10688 36.589 7.83614Q36.4081 7.5654 36.2142 7.30387Q36.0202 7.04233 35.8136 6.79063Q35.6071 6.53893 35.3884 6.29767Q35.1697 6.0564 34.9395 5.82616Q34.7092 5.59592 34.468 5.37725Q34.2267 5.15858 33.975 4.95201Q33.7233 4.74545 33.4618 4.55148Q33.2002 4.35751 32.9295 4.17661Q32.6588 3.99571 32.3795 3.82831Q32.1002 3.66091 31.813 3.50742Q31.5259 3.35393 31.2315 3.21471Q30.9371 3.07549 30.6363 2.95088Q30.3355 2.82628 30.0289 2.71658Q29.7223 2.60689 29.4107 2.51236Q29.0992 2.41784 28.7833 2.33873Q28.4674 2.25961 28.1481 2.19609Q27.8287 2.13256 27.5066 2.08478Q27.1846 2.03701 26.8605 2.00509Q26.5365 1.97318 26.2112 1.9572Q25.886 1.94122 25.5604 1.94122Z"
                            fill="#7EBA61" fill-rule="evenodd" id="Combined-Shape-Copy-2"
                            stroke="none" />
                    </g>
                </g>
            </g>
        </g>
    </g>
</svg>