<?xml version="1.0" encoding="utf-8"?>
<svg xmlns:xlink="http://www.w3.org/1999/xlink" height="37px" version="1.1" viewBox="0 0 32 37"
    width="32px" xmlns="http://www.w3.org/2000/svg">
    <defs>
        <rect height="37" id="artboard_1" width="32" />
        <clipPath id="clip_1">
            <use clip-rule="evenodd" xlink:href="#artboard_1" />
        </clipPath>
    </defs>
    <g clip-path="url(#clip_1)" id="ic_play">
        <path
            d="M27.5141 22.8278L10.501 32.6635Q10.3593 32.7454 10.2125 32.8179Q10.0658 32.8904 9.91455 32.9531Q9.76335 33.0158 9.60837 33.0685Q9.45339 33.1212 9.29529 33.1637Q9.13719 33.2061 8.97666 33.2381Q8.81612 33.2701 8.65384 33.2916Q8.49155 33.313 8.32821 33.3238Q8.16487 33.3346 8.00118 33.3347Q7.83748 33.3347 7.67413 33.3241Q7.51078 33.3135 7.34848 33.2922Q7.18617 33.2709 7.02561 33.239Q6.86505 33.2071 6.70692 33.1648Q6.54878 33.1225 6.39376 33.0699Q6.23873 33.0174 6.08747 32.9548Q5.93622 32.8922 5.78938 32.8198Q5.64255 32.7475 5.50076 32.6657Q5.35897 32.5839 5.22284 32.4929Q5.0867 32.402 4.95681 32.3024Q4.82692 32.2028 4.70382 32.0949Q4.58072 31.987 4.46494 31.8713Q4.34917 31.7555 4.24121 31.6325Q4.13325 31.5094 4.03358 31.3796Q3.9339 31.2497 3.84294 31.1136Q3.75197 30.9776 3.6701 30.8358Q3.58823 30.694 3.51581 30.5472Q3.44339 30.4004 3.38073 30.2492Q3.31807 30.098 3.26544 29.943Q3.21281 29.788 3.17043 29.6299Q3.12805 29.4717 3.09611 29.3112Q3.06416 29.1506 3.04279 28.9883Q3.02142 28.826 3.01071 28.6627Q3 28.4994 3 28.3357L3 8.66433Q3 8.50064 3.01071 8.33729Q3.02142 8.17395 3.04279 8.01165Q3.06416 7.84936 3.09611 7.68881Q3.12805 7.52826 3.17043 7.37014Q3.21281 7.21203 3.26544 7.05703Q3.31807 6.90202 3.38073 6.75079Q3.44339 6.59957 3.51581 6.45276Q3.58823 6.30596 3.6701 6.1642Q3.75197 6.02245 3.84294 5.88636Q3.9339 5.75026 4.03358 5.62041Q4.13325 5.49056 4.24121 5.36751Q4.34917 5.24446 4.46494 5.12874Q4.58072 5.01301 4.70382 4.90511Q4.82692 4.7972 4.95681 4.69759Q5.0867 4.59797 5.22284 4.50706Q5.35897 4.41615 5.50076 4.33434Q5.64255 4.25254 5.78938 4.18018Q5.93622 4.10783 6.08748 4.04523Q6.23873 3.98264 6.39376 3.93007Q6.54878 3.87751 6.70692 3.8352Q6.86505 3.79289 7.02561 3.76101Q7.18618 3.72914 7.34848 3.70784Q7.51078 3.68654 7.67413 3.6759Q7.83748 3.66526 8.00118 3.66533Q8.16488 3.6654 8.32821 3.67618Q8.49156 3.68696 8.65384 3.70841Q8.81613 3.72985 8.97666 3.76186Q9.13719 3.79388 9.29529 3.83633Q9.45339 3.87877 9.60837 3.93147Q9.76335 3.98417 9.91455 4.0469Q10.0658 4.10963 10.2125 4.18211Q10.3593 4.25459 10.501 4.33652L27.5141 14.1722Q27.6557 14.2541 27.7916 14.345Q27.9276 14.4359 28.0573 14.5356Q28.187 14.6352 28.3099 14.7431Q28.4328 14.851 28.5484 14.9667Q28.664 15.0824 28.7718 15.2054Q28.8796 15.3284 28.9791 15.4582Q29.0786 15.588 29.1695 15.7241Q29.2603 15.8601 29.342 16.0018Q29.4238 16.1434 29.4961 16.2901Q29.5684 16.4368 29.6309 16.588Q29.6935 16.7391 29.746 16.894Q29.7986 17.0489 29.8409 17.2069Q29.8832 17.3649 29.9151 17.5253Q29.947 17.6857 29.9683 17.8479Q29.9897 18.01 30.0004 18.1732Q30.011 18.3364 30.011 18.5Q30.011 18.6636 30.0004 18.8268Q29.9897 18.99 29.9683 19.1521Q29.947 19.3143 29.9151 19.4747Q29.8832 19.6351 29.8409 19.7931Q29.7986 19.9511 29.746 20.106Q29.6935 20.2609 29.6309 20.412Q29.5684 20.5632 29.4961 20.7099Q29.4238 20.8566 29.342 20.9982Q29.2603 21.1399 29.1695 21.2759Q29.0786 21.412 28.9791 21.5418Q28.8796 21.6716 28.7718 21.7946Q28.664 21.9176 28.5484 22.0333Q28.4328 22.149 28.3099 22.2569Q28.187 22.3648 28.0573 22.4644Q27.9276 22.5641 27.7916 22.655Q27.6557 22.7459 27.5141 22.8278L27.5141 22.8278Z"
            fill="#FFFFFF" fill-rule="evenodd" id="Triangle" stroke="none" />
    </g>
</svg>