<?xml version="1.0" encoding="utf-8"?>
<svg xmlns:xlink="http://www.w3.org/1999/xlink" height="71px" version="1.1" viewBox="0 0 31 71"
    width="31px" xmlns="http://www.w3.org/2000/svg">
    <defs>
        <rect height="70.253174" id="artboard_1" width="30.911392" />
        <clipPath id="clip_1">
            <use clip-rule="evenodd" xlink:href="#artboard_1" />
        </clipPath>
    </defs>
    <g clip-path="url(#clip_1)" id="bottle">
        <g id="ic_quote_1">
            <g id="Group-27" transform="translate(-0.20253165 0.25316456)">
                <path d="M15.4763 0L14.1006 6.15234L17.5398 6.15234L17.5398 0L15.4763 0Z"
                    fill="#283D66" fill-rule="evenodd" id="Fill-1" stroke="none" />
                <path
                    d="M13.4128 6.15236L15.4763 6.15236L15.4763 1.36719e-05L13.4128 1.36719e-05L13.4128 6.15236Z"
                    fill="#4D578C" fill-rule="evenodd" id="Fill-2" stroke="none" />
                <g id="Group-26" transform="translate(0 1.3671872E-05)">
                    <path
                        d="M30.9526 12.3047C30.9526 7.78148 27.2499 4.10156 22.6986 4.10156L15.4763 4.10156L8.25403 4.10156C3.70276 4.10156 0 7.78148 0 12.3047L0 14.3555L14.1149 15.6023L14.1006 15.7227L14.8178 15.6644L15.4763 15.7227L15.4763 15.6111L30.9526 14.3555L30.9526 12.3047Z"
                        fill="#283D66" fill-rule="evenodd" id="Fill-3" stroke="none" />
                    <path
                        d="M15.4763 14.3555L14.1006 19.8242L30.9526 18.457L30.9526 14.3555L15.4763 14.3555Z"
                        fill="#CFCFE6" fill-rule="evenodd" id="Fill-5" stroke="none" />
                    <path d="M15.4763 14.3555L0 14.3555L0 18.457L15.4763 19.8242L15.4763 14.3555Z"
                        fill="#ECE6F2" fill-rule="evenodd" id="Fill-7" stroke="none" />
                    <path
                        d="M30.2147 27.2791C30.7044 25.8191 30.9526 24.2986 30.9526 22.7597L30.9526 18.457L15.4763 18.457L0 18.457L0 22.7597C0 24.2985 0.248309 25.8189 0.737773 27.2787L0.871075 27.6762C1.56799 29.7541 1.56799 32.0428 0.871075 34.1208C0.79899 34.3358 0.73227 34.5521 0.67064 34.7692L14.1104 36.0102L14.1006 36.1364L14.819 36.0757L15.4763 36.1364L15.4763 36.0202L30.282 34.7692C30.2203 34.5521 30.1536 34.3358 30.0815 34.1206C29.3846 32.0428 29.3846 29.7541 30.0817 27.6758L30.2147 27.2791Z"
                        fill="#E28086" fill-rule="evenodd" id="Fill-9" stroke="none" />
                    <path
                        d="M30.8159 38.8708C30.8393 37.4816 30.6615 36.1071 30.282 34.7692L15.4763 34.7692L14.1006 40.238L30.8159 38.8708Z"
                        fill="#B2545D" fill-rule="evenodd" id="Fill-11" stroke="none" />
                    <path
                        d="M15.4773 34.7692L0.67174 34.7692C0.292055 36.1071 0.114318 37.4816 0.137705 38.8708L15.4773 40.238L15.4773 34.7692Z"
                        fill="#C1616F" fill-rule="evenodd" id="Fill-13" stroke="none" />
                    <path
                        d="M15.4763 38.8708L0.136742 38.8708C0.140731 39.1089 0.148985 39.3474 0.164943 39.5864L2.03847 67.6406C2.12706 68.9682 3.2364 70 4.57521 70L15.4763 70L26.3774 70C27.7162 70 28.8255 68.9682 28.9141 67.6406L30.7878 39.5864C30.8038 39.3474 30.8119 39.1089 30.816 38.8708L15.4763 38.8708Z"
                        fill="#E28086" fill-rule="evenodd" id="Fill-15" stroke="none" />
                    <path
                        d="M1.80362 46.8583L3.23885 66.4613C3.31163 67.4548 4.14391 68.224 5.14622 68.224L25.3807 68.224C26.3673 68.224 27.1919 67.4781 27.2846 66.5021L29.1509 46.8583L1.80362 46.8583Z"
                        fill="#DB8390" fill-rule="evenodd" id="Fill-17" stroke="none" />
                    <path
                        d="M29.1509 46.8583C29.1509 47.6652 23.029 48.3194 15.4773 48.3194C7.92555 48.3194 1.80367 47.6652 1.80367 46.8583C1.80367 46.0514 7.92555 45.3972 15.4773 45.3972C23.029 45.3972 29.1509 46.0514 29.1509 46.8583"
                        fill="#EA8C96" fill-rule="evenodd" id="Fill-19" stroke="none" />
                    <g id="Group-25" transform="translate(14.926105 0)">
                        <path d="M2.6611 4.10156L2.6611 0L0.597592 0L0 0L0 4.10156L2.6611 4.10156Z"
                            fill="#000000" fill-rule="evenodd" id="Fill-21" stroke="none" />
                        <path
                            d="M16.0739 14.3555L16.0739 12.3047C16.0739 7.78148 12.3711 4.10156 7.81987 4.10156L5.15877 4.10156C9.71004 4.10156 13.4128 7.78148 13.4128 12.3047L13.4128 14.3555L13.4127 14.3555L13.4127 18.457L13.4128 18.457L13.4128 22.7597C13.4128 24.2986 13.1646 25.8191 12.6749 27.2791L12.5419 27.6758C11.8448 29.7541 11.8448 32.0428 12.5416 34.1206C12.6137 34.3358 12.6805 34.5521 12.7422 34.7692L12.742 34.7692C13.1216 36.1071 13.2993 37.4816 13.2759 38.8708L13.2761 38.8708C13.2721 39.1089 13.2638 39.3474 13.248 39.5864L11.3743 67.6406C11.2856 68.9682 10.1763 70 8.83745 70L11.4987 70C12.8375 70 13.9468 68.9682 14.0354 67.6406L15.9091 39.5864C15.925 39.3474 15.9332 39.1089 15.9373 38.8708L15.9372 38.8708C15.9605 37.4816 15.7828 36.1071 15.4033 34.7692L15.4033 34.7692C15.3416 34.5521 15.2749 34.3358 15.2028 34.1206C14.5059 32.0428 14.5059 29.7541 15.203 27.6758L15.336 27.2791C15.8257 25.8191 16.0739 24.2986 16.0739 22.7597L16.0739 18.457L16.0739 18.457L16.0739 14.3555Z"
                            fill="#000000" fill-opacity="0.108875364" fill-rule="evenodd"
                            id="Fill-23" stroke="none" />
                    </g>
                </g>
            </g>
        </g>
    </g>
</svg>