<?xml version="1.0" encoding="utf-8"?>
<svg xmlns:xlink="http://www.w3.org/1999/xlink" height="24px" version="1.1" viewBox="0 0 24 24"
    width="24px" xmlns="http://www.w3.org/2000/svg">
    <defs>
        <rect height="24" id="artboard_1" width="24" />
        <clipPath id="clip_1">
            <use clip-rule="evenodd" xlink:href="#artboard_1" />
        </clipPath>
    </defs>
    <g clip-path="url(#clip_1)" id="1-AtomsIconsShare">
        <g id="Shape-2" transform="translate(3 1)">
            <path
                d="M15.2001 0.000467689C13.1077 0.000467689 11.4001 1.64832 11.4001 3.66706C11.4001 4.04833 11.4569 4.41756 11.5698 4.76374L6.29375 8.24218C5.62539 7.67894 4.75311 7.33364 3.79999 7.33364C1.70761 7.33364 0 8.9815 0 11.0002C0 13.0192 1.70781 14.6668 3.79999 14.6668C4.75253 14.6668 5.62558 14.3208 6.29375 13.7583L11.578 17.2285C11.4631 17.5776 11.3998 17.9485 11.3998 18.3334C11.3998 20.3523 13.1076 22 15.1998 22C17.2922 22 18.9998 20.3521 18.9998 18.3334C18.9998 16.3145 17.292 14.6668 15.1998 14.6668C13.8921 14.6668 12.7371 15.3117 12.0528 16.2873L7.00608 12.9643C7.3821 12.3958 7.59984 11.7218 7.59984 11C7.59984 10.2767 7.3751 9.60498 6.99755 9.03571L12.053 5.71273C12.7373 6.68828 13.8922 7.33318 15.2 7.33318C17.2924 7.33318 19 5.68532 19 3.66659C19 1.64767 17.2922 0 15.2 0L15.2001 0.000467689ZM15.2001 1.048C16.7055 1.048 17.9144 2.21446 17.9144 3.66706C17.9144 5.11965 16.7055 6.28612 15.2001 6.28612C13.6947 6.28612 12.4858 5.11965 12.4858 3.66706C12.4858 2.21446 13.6947 1.048 15.2001 1.048ZM3.79984 8.38136C5.30529 8.38136 6.51419 9.54782 6.51419 11.0004C6.51419 12.453 5.30529 13.6195 3.79984 13.6195C2.2944 13.6195 1.0855 12.453 1.0855 11.0004C1.0855 9.54782 2.2944 8.38136 3.79984 8.38136ZM15.2001 15.7147C16.7055 15.7147 17.9144 16.8811 17.9144 18.3338C17.9144 19.7864 16.7055 20.9528 15.2001 20.9528C13.6947 20.9528 12.4858 19.7864 12.4858 18.3338C12.4858 16.8811 13.6947 15.7147 15.2001 15.7147Z"
                fill="#000000" id="Shape" stroke="#979797" stroke-width="1" />
        </g>
    </g>
</svg>