<?xml version="1.0" encoding="utf-8"?>
<svg height="69px" version="1.1" viewBox="0 0 68 69" width="68px"
    xmlns="http://www.w3.org/2000/svg">
    <defs>
        <linearGradient id="gradient_1" x1="0.5" x2="0.5" y1="0" y2="1">
            <stop offset="0.5" stop-color="#1F1F1F" />
            <stop offset="0.5056818" stop-color="#787878" />
        </linearGradient>
        <filter color-interpolation-filters="sRGB" filterUnits="userSpaceOnUse" id="filter_1">
            <feFlood flood-opacity="0" result="BackgroundImageFix" />
            <feColorMatrix in="SourceAlpha" type="matrix"
                values="0 0 0 0 0 0 0 0 0 0 0 0 0 0 0 0 0 0 127 0" />
            <feOffset dx="0" dy="0" />
            <feGaussianBlur stdDeviation="5" />
            <feColorMatrix type="matrix"
                values="0 0 0 0 0 0 0 0 0 0 0 0 0 0 0 0 0 0 0.101960786 0" />
            <feBlend in2="BackgroundImageFix" mode="normal" result="effect0_dropShadow" />
            <feBlend in="SourceGraphic" in2="effect0_dropShadow" mode="normal" result="shape" />
        </filter>
    </defs>
    <g id="Group-2" transform="matrix(1.2675908E-06 1 -1 1.2675908E-06 68 0)">
        <g filter="url(#filter_1)">
            <g id="medal-2">
                <g id="medal">
                    <g id="Group">
                        <path
                            d="M-7.62939e-05 34.0001C-8.39233e-05 31.6043 1.44971 29.7168 2.61443 28.2001C3.23898 27.3867 3.88498 26.5458 4.03843 25.9718C4.20877 25.3352 4.06771 24.2437 3.93119 23.1883C3.67783 21.2264 3.39032 19.0028 4.55277 16.994C5.72952 14.9603 7.90674 14.0581 9.65626 13.3332C10.6254 12.9316 11.6274 12.5165 12.0722 12.0715C12.5173 11.6265 12.9325 10.6245 13.3338 9.65556C14.0587 7.90622 14.961 5.72899 16.9943 4.55241C19.0031 3.3903 21.2267 3.67747 23.1886 3.93116C24.2442 4.06751 25.3357 4.20856 25.9717 4.03856C26.5457 3.88513 27.3867 3.2393 28.1999 2.61474C29.7168 1.44985 31.6041 4.54953e-05 33.9999 4.25005e-05C36.3958 3.95056e-05 38.2832 1.44966 39.8 2.61455C40.6132 3.23928 41.4543 3.88511 42.0283 4.03854C42.6646 4.20872 43.756 4.06766 44.8114 3.93131C46.7735 3.67779 48.9971 3.39044 51.0061 4.55289C53.0396 5.72946 53.9419 7.90686 54.6668 9.65638C55.0683 10.6253 55.4836 11.6273 55.9284 12.0723C56.3734 12.5173 57.3754 12.9324 58.3442 13.334C60.0935 14.0589 62.2709 14.9611 63.4473 16.9948C64.6098 19.0038 64.3224 21.2274 64.0686 23.1891C63.9324 24.2447 63.7913 25.336 63.9612 25.9722C64.1146 26.546 64.7604 27.387 65.3852 28.2002C66.5504 29.7168 68 31.6042 68 34.0001C68 36.3959 66.5504 38.2834 65.3855 39.8001C64.761 40.6135 64.115 41.4544 63.9615 42.0284C63.7912 42.6645 63.9326 43.756 64.0688 44.8117C64.322 46.7736 64.6095 48.9974 63.4472 51.0062C62.2704 53.0399 60.0932 53.9421 58.3437 54.6671C57.3746 55.0686 56.3726 55.4838 55.9278 55.9287C55.4826 56.3737 55.0675 57.3757 54.6661 58.3446C53.9413 60.094 53.039 62.2712 51.0056 63.4478C48.9968 64.6101 46.7732 64.3227 44.8113 64.0692C43.7558 63.9329 42.6645 63.7918 42.0282 63.9618C41.4542 64.1153 40.6133 64.7611 39.8001 65.3858C38.2832 66.5505 36.3959 68.0002 34 68.0002C31.6042 68.0002 29.7167 66.5505 28.2 65.3857C27.3867 64.7609 26.5456 64.1151 25.9716 63.9615C25.3354 63.7913 24.2439 63.9324 23.1885 64.0687C21.2265 64.3223 19.0029 64.6096 16.9939 63.4471C14.9603 62.2706 14.058 60.0932 13.3332 58.3436C12.9317 57.3747 12.5163 56.3727 12.0715 55.9276C11.6266 55.4826 10.6245 55.0674 9.65579 54.6659C7.90644 53.9409 5.72904 53.0388 4.55264 51.0051C3.39036 48.9963 3.67753 46.7725 3.93121 44.8108C4.06739 43.7552 4.20844 42.6639 4.03862 42.0276C3.88518 41.4538 3.23936 40.6129 2.61462 39.7997C1.44972 38.2835 -7.62939e-05 36.396 -7.62939e-05 34.0001L-7.62939e-05 34.0001Z"
                            fill="url(#gradient_1)" fill-rule="evenodd" id="Path" stroke="none" />
                    </g>
                </g>
            </g>
        </g>
    </g>
</svg>