<?xml version="1.0" encoding="utf-8"?>
<svg height="141px" version="1.1" viewBox="0 0 145 141" width="145px"
    xmlns="http://www.w3.org/2000/svg">
    <g id="Group-35">
        <g id="stadium-2">
            <g id="stadium">
                <path
                    d="M142.583 59.0547L142.583 58.3448C142.583 36.8632 125.271 19.4483 103.917 19.4483L41.0833 19.4483C19.7286 19.4483 2.41667 36.8632 2.41667 58.3448L2.41667 92.3793C2.41667 113.861 19.7286 131.276 41.0833 131.276L103.917 131.276C125.271 131.276 142.583 113.861 142.583 92.3793L142.583 59.0547Z"
                    fill="#D2CFB7" id="Path" stroke="none" />
                <path
                    d="M41.0833 19.4483L103.917 19.4483C125.271 19.4483 142.583 36.8632 142.583 58.3448C142.583 79.8265 125.271 97.2414 103.917 97.2414L41.0833 97.2414C19.7286 97.2414 2.41667 79.8265 2.41667 58.3448C2.41667 36.8632 19.7286 19.4483 41.0833 19.4483Z"
                    fill="#FFFDEE" id="Path" stroke="none" />
                <path
                    d="M41.0833 87.5172C25.067 87.5172 12.0833 74.4564 12.0833 58.3448C12.0833 42.2333 25.067 29.1724 41.0833 29.1724L103.917 29.1724C119.933 29.1724 132.917 42.2333 132.917 58.3448C132.917 74.4564 119.933 87.5172 103.917 87.5172L41.0833 87.5172Z"
                    fill="#7EBA61" id="Path" stroke="none" />
                <g id="Group" transform="translate(21.75 0)">
                    <path d="M48.3333 0L53.1667 0L53.1667 24.3103L48.3333 24.3103L48.3333 0Z"
                        fill="#D1D4D6" id="Path" stroke="none" />
                    <path d="M24.1667 0L29 0L29 24.3103L24.1667 24.3103L24.1667 0Z" fill="#D1D4D6"
                        id="Path" stroke="none" />
                    <path
                        d="M96.6667 2.43103L101.5 2.43103L101.5 26.7414L96.6667 26.7414L96.6667 2.43103Z"
                        fill="#D1D4D6" id="Path" stroke="none" />
                    <path d="M72.5 0L77.3333 0L77.3333 24.3103L72.5 24.3103L72.5 0Z" fill="#D1D4D6"
                        id="Path" stroke="none" />
                    <path d="M0 2.43103L4.83333 2.43103L4.83333 26.7414L0 26.7414L0 2.43103Z"
                        fill="#D1D4D6" id="Path" stroke="none" />
                </g>
                <path d="M74.9167 0L84.5833 0L84.5833 9.72414L74.9167 9.72414L74.9167 0Z"
                    fill="#E3584B" id="Path" stroke="none" />
                <path d="M50.75 0L60.4167 0L60.4167 9.72414L50.75 9.72414L50.75 0Z" fill="#E3584B"
                    id="Path" stroke="none" />
                <path
                    d="M123.25 2.43103L132.917 2.43103L132.917 12.1552L123.25 12.1552L123.25 2.43103Z"
                    fill="#E3584B" id="Path" stroke="none" />
                <path d="M99.0833 0L108.75 0L108.75 9.72414L99.0833 9.72414L99.0833 0Z"
                    fill="#E3584B" id="Path" stroke="none" />
                <path
                    d="M26.5833 2.43103L36.25 2.43103L36.25 12.1552L26.5833 12.1552L26.5833 2.43103Z"
                    fill="#E3584B" id="Path" stroke="none" />
                <path
                    d="M143.877 77.513C144.612 74.4196 144.988 71.2502 145 68.069C145 66.7264 143.918 65.6379 142.583 65.6379C141.249 65.6379 140.167 66.7264 140.167 68.069C140.156 79.525 134.783 90.3079 125.667 97.1737L125.667 92.3793C125.667 91.0368 124.585 89.9483 123.25 89.9483C121.915 89.9483 120.833 91.0368 120.833 92.3793L120.833 100.294C115.625 103.08 109.816 104.537 103.917 104.534L74.9167 104.534L74.9167 97.2414C74.9167 95.8988 73.8346 94.8103 72.5 94.8103C71.1654 94.8103 70.0833 95.8988 70.0833 97.2414L70.0833 104.534L41.0833 104.534C35.1844 104.537 29.3752 103.08 24.1667 100.294L24.1667 92.3793C24.1667 91.0368 23.0846 89.9483 21.75 89.9483C20.4154 89.9483 19.3333 91.0368 19.3333 92.3793L19.3333 97.1737C10.2166 90.3079 4.84395 79.525 4.83333 68.069C4.83333 66.7264 3.75126 65.6379 2.41667 65.6379C1.08207 65.6379 0 66.7264 0 68.069C0.0118001 71.2502 0.388224 74.4196 1.12337 77.513C0.434245 77.9439 0.0106201 78.6976 0 79.5143L0 80.2241C0.0129802 94.4661 7.31962 107.696 19.3333 115.231L19.3333 126.414C19.3333 127.756 20.4154 128.845 21.75 128.845C23.0846 128.845 24.1667 127.756 24.1667 126.414L24.1667 117.842C29.4767 120.282 35.2458 121.547 41.0833 121.552L103.917 121.552C109.754 121.547 115.523 120.282 120.833 117.842L120.833 126.414C120.833 127.756 121.915 128.845 123.25 128.845C124.585 128.845 125.667 127.756 125.667 126.414L125.667 115.231C137.68 107.696 144.987 94.4661 145 80.2241L145 79.5143C144.989 78.6976 144.566 77.9439 143.877 77.513ZM6.09949 89.6278C9.42476 95.0739 13.9525 99.676 19.3333 103.076L19.3333 109.338C12.8586 104.437 8.20109 97.499 6.09949 89.6278L6.09949 89.6278ZM103.917 116.69L41.0833 116.69C35.1844 116.692 29.3752 115.236 24.1667 112.45L24.1667 105.687C29.4767 108.126 35.2458 109.392 41.0833 109.397L103.917 109.397C109.754 109.392 115.523 108.126 120.833 105.687L120.833 112.45C115.625 115.236 109.816 116.692 103.917 116.69ZM125.667 109.329L125.667 103.076C131.046 99.6783 135.574 95.0798 138.901 89.6373C136.795 97.5013 132.138 104.432 125.667 109.329Z"
                    fill="#EAE6C6" id="Shape" stroke="none" />
                <path d="M36.25 106.966L108.75 106.966L108.75 141L36.25 141L36.25 106.966Z"
                    fill="#7EBA61" id="Path" stroke="none" />
                <path d="M36.25 104.534L108.75 104.534L108.75 119.121L36.25 119.121L36.25 104.534Z"
                    fill="#FFFDEE" id="Path" stroke="none" />
                <path
                    d="M72.5 128.845C75.1692 128.845 77.3333 131.022 77.3333 133.707L77.3333 141L67.6667 141L67.6667 133.707C67.6667 131.022 69.8308 128.845 72.5 128.845Z"
                    fill="#BAD450" id="Path" stroke="none" />
                <path
                    d="M91.8333 128.845C94.5025 128.845 96.6667 131.022 96.6667 133.707L96.6667 141L87 141L87 133.707C87 131.022 89.1641 128.845 91.8333 128.845Z"
                    fill="#BAD450" id="Path" stroke="none" />
                <path
                    d="M53.1667 128.845C55.8359 128.845 58 131.022 58 133.707L58 141L48.3333 141L48.3333 133.707C48.3333 131.022 50.4975 128.845 53.1667 128.845Z"
                    fill="#BAD450" id="Path" stroke="none" />
                <path
                    d="M41.0833 87.5172L103.917 87.5172C113.479 87.5125 122.425 82.7644 127.825 74.8243C132.657 64.8711 130.834 52.9438 123.25 44.9112L123.25 36.6626C121.764 35.3177 120.144 34.1306 118.417 33.1205L118.417 40.8219C116.894 39.8248 115.275 38.9868 113.583 38.3232L113.583 30.8746C112.012 30.312 110.395 29.8906 108.75 29.6128L108.75 36.9296C107.156 36.627 105.538 36.4715 103.917 36.4655L103.917 29.1724L99.0833 29.1724L99.0833 36.4655L94.25 36.4655L94.25 29.1724L89.4167 29.1724L89.4167 36.4655L84.5833 36.4655L84.5833 29.1724L79.75 29.1724L79.75 36.4655L74.9167 36.4655L74.9167 29.1724L70.0833 29.1724L70.0833 36.4655L65.25 36.4655L65.25 29.1724L60.4167 29.1724L60.4167 36.4655L55.5833 36.4655L55.5833 29.1724L50.75 29.1724L50.75 36.4655L45.9167 36.4655L45.9167 29.1724L41.0833 29.1724L41.0833 36.4655C39.462 36.4715 37.8442 36.627 36.25 36.9296L36.25 29.6128C34.6051 29.8906 32.9884 30.312 31.4167 30.8746L31.4167 38.3232C29.7245 38.9868 28.1055 39.8248 26.5833 40.8219L26.5833 33.1205C24.8558 34.1306 23.2356 35.3177 21.75 36.6626L21.75 44.9112C14.1661 52.9438 12.3429 64.8711 17.1751 74.8243C22.5748 82.7644 31.5205 87.5125 41.0833 87.5172ZM21.75 53.2394L21.75 68.069L26.5833 68.069L26.5833 46.9458C28.0383 45.6282 29.6643 44.5159 31.4167 43.6375L31.4167 53.4828L36.25 53.4828L36.25 41.8914C37.8348 41.5223 39.4561 41.3323 41.0833 41.3276L41.0833 48.6207L45.9167 48.6207L45.9167 41.3276L50.75 41.3276L50.75 48.6207L55.5833 48.6207L55.5833 41.3276L60.4167 41.3276L60.4167 48.6207L65.25 48.6207L65.25 41.3276L70.0833 41.3276L70.0833 48.6207L74.9167 48.6207L74.9167 41.3276L79.75 41.3276L79.75 48.6207L84.5833 48.6207L84.5833 41.3276L89.4167 41.3276L89.4167 48.6207L94.25 48.6207L94.25 41.3276L99.0833 41.3276L99.0833 48.6207L103.917 48.6207L103.917 41.3276C105.544 41.3323 107.165 41.5223 108.75 41.8914L108.75 55.9138L113.583 55.9138L113.583 43.6375C115.336 44.5159 116.962 45.6282 118.417 46.9458L118.417 68.069L123.25 68.069L123.25 53.2394C126.72 60.0162 126.428 68.1224 122.478 74.6273C118.53 81.1334 111.495 85.0969 103.917 85.0862L41.0833 85.0862C33.5053 85.0969 26.4701 81.1334 22.5217 74.6273C18.5722 68.1224 18.2796 60.0162 21.75 53.2394Z"
                    fill="#BAD450" id="Shape" stroke="none" />
                <path
                    d="M41.0833 87.5172C30.4054 87.5172 21.75 78.8104 21.75 68.069C21.75 57.3275 30.4054 48.6207 41.0833 48.6207L103.917 48.6207C114.595 48.6207 123.25 57.3275 123.25 68.069C123.25 78.8104 114.595 87.5172 103.917 87.5172L41.0833 87.5172Z"
                    fill="#B16E3D" id="Path" stroke="none" />
                <path d="M43.5 58.3448L101.5 58.3448L101.5 87.5172L43.5 87.5172L43.5 58.3448Z"
                    fill="#88B337" id="Path" stroke="none" />
                <path
                    d="M101.5 55.9138L43.5 55.9138C42.1654 55.9138 41.0833 57.0023 41.0833 58.3448L41.0833 87.5172L45.9167 87.5172L45.9167 60.7759L70.0833 60.7759L70.0833 65.8813C65.4093 66.8261 61.73 70.4573 60.6999 75.1401C59.6697 79.8229 61.4834 84.6767 65.3243 87.5172L79.6757 87.5172C83.5166 84.6767 85.3303 79.8229 84.3001 75.1401C83.27 70.4573 79.5907 66.8261 74.9167 65.8813L74.9167 60.7759L99.0833 60.7759L99.0833 87.5172L103.917 87.5172L103.917 58.3448C103.917 57.0023 102.835 55.9138 101.5 55.9138ZM70.0833 84.6387C67.1876 83.6238 65.2476 80.877 65.2476 77.7931C65.2476 74.7092 67.1876 71.9624 70.0833 70.9475L70.0833 84.6387ZM79.75 77.7931C79.737 80.8723 77.803 83.6119 74.9167 84.6387L74.9167 70.9475C77.803 71.9743 79.737 74.714 79.75 77.7931Z"
                    fill="#DEE1E3" id="Shape" stroke="none" />
            </g>
        </g>
        <path
            d="M21.2204 24.6426C9.72004 31.3907 2 43.8735 2 58.1566C2 79.6089 19.4149 97 40.8966 97L104.103 97C125.585 97 143 79.6089 143 58.1566C143 43.4067 134.767 30.5767 122.64 23.9995L122.64 35.6602C129.135 41.0034 133.276 49.0971 133.276 58.1566C133.276 74.2461 120.215 87.2891 104.103 87.2891L40.8966 87.2891C24.785 87.2891 11.7241 74.2461 11.7241 58.1566C11.7241 49.6388 15.3846 41.9749 21.2204 36.6479L21.2204 24.6426Z"
            fill="#FFFDEE" fill-rule="evenodd" id="Combined-Shape" stroke="none" />
    </g>
</svg>