<?xml version="1.0" encoding="utf-8"?>
<svg xmlns:xlink="http://www.w3.org/1999/xlink" height="272px" version="1.1" viewBox="0 0 454 272"
    width="454px" xmlns="http://www.w3.org/2000/svg">
    <defs>
        <linearGradient id="gradient_1" x1="0.5" x2="0.5" y1="0" y2="1">
            <stop offset="0%" stop-color="#FFF4E1" />
            <stop offset="100%" stop-color="#FFFBF2" stop-opacity="0" />
        </linearGradient>
        <linearGradient id="gradient_2" x1="-2.1855694E-08" x2="1" y1="0.5" y2="0.49999994">
            <stop offset="0%" stop-color="#FFF4E1" />
            <stop offset="100%" stop-color="#FFFBF2" stop-opacity="0" />
        </linearGradient>
        <linearGradient id="gradient_3" x1="7.946628E-09" x2="1" y1="0.5" y2="0.5000001">
            <stop offset="0%" stop-color="#FFF4E1" />
            <stop offset="100%" stop-color="#FFFBF2" stop-opacity="0" />
        </linearGradient>
        <linearGradient id="gradient_4" x1="0.14644659" x2="0.8535534" y1="0.14644665"
            y2="0.8535534">
            <stop offset="0%" stop-color="#FFF4E1" />
            <stop offset="100%" stop-color="#FFFBF2" stop-opacity="0" />
        </linearGradient>
        <linearGradient id="gradient_5" x1="0.14644662" x2="0.8535534" y1="0.8535534"
            y2="0.14644668">
            <stop offset="0%" stop-color="#FFF4E1" />
            <stop offset="100%" stop-color="#FFFBF2" stop-opacity="0" />
        </linearGradient>
        <path d="M0 0L448 0L448 279L0 279L0 0Z" id="path_1" />
        <rect height="272" id="artboard_1" width="453.79178" />
        <clipPath id="clip_1">
            <use clip-rule="evenodd" xlink:href="#artboard_1" />
        </clipPath>
        <clipPath id="mask_1">
            <use xlink:href="#path_1" />
        </clipPath>
    </defs>
    <g clip-path="url(#clip_1)" id="background">
        <g id="Group-5" transform="translate(2.8613281 -3.7105103)">
            <path d="M0 0L448 0L448 279L0 279L0 0Z" fill="none" fill-rule="evenodd" id="Mask"
                stroke="none" />
            <g clip-path="url(#mask_1)">
                <g id="Group-5" transform="translate(-49 -35)">
                    <g id="Group-4" opacity="0.20396529">
                        <path
                            d="M272.371 231.752L331.502 1.52588e-05L213.24 1.52588e-05L272.371 231.752Z"
                            fill="url(#gradient_1)" fill-rule="evenodd" id="Triangle"
                            stroke="none" />
                        <path d="M253.426 275.922L49.0507 216.837L49.0507 335.008L253.426 275.922Z"
                            fill="url(#gradient_2)" fill-rule="evenodd" id="Triangle-Copy-2"
                            stroke="none" />
                        <path d="M292.463 275.923L496.838 216.838L496.838 335.008L292.463 275.923Z"
                            fill="url(#gradient_3)" fill-rule="evenodd" id="Triangle-Copy-3"
                            stroke="none" />
                        <path
                            d="M239.911 253.814L83.6241 14.0883L0.000198364 97.6475L239.911 253.814Z"
                            fill="url(#gradient_4)" fill-rule="evenodd" id="Triangle"
                            stroke="none" />
                        <path d="M299.089 253.814L455.376 14.0883L539 97.6475L299.089 253.814Z"
                            fill="url(#gradient_5)" fill-rule="evenodd" id="Triangle-Copy"
                            stroke="none" />
                    </g>
                    <path
                        d="M375.157 191.884L367.285 187.581L375.157 183.279L379.463 175.413L383.769 183.279L391.641 187.581L383.769 191.884L379.463 199.75L375.157 191.884Z"
                        fill="#FFFFFF" fill-rule="evenodd" id="Star" stroke="none" />
                    <path
                        d="M198.339 243.512L190.466 239.209L198.339 234.907L202.645 227.04L206.95 234.907L214.823 239.209L206.95 243.512L202.645 251.378L198.339 243.512Z"
                        fill="#FFFFFF" fill-rule="evenodd" id="Star-Copy-3" stroke="none" />
                    <path
                        d="M343.5 230.318L340.876 228.884L343.5 227.45L344.936 224.827L346.371 227.45L348.995 228.884L346.371 230.318L344.936 232.94L343.5 230.318Z"
                        fill="#FFFFFF" fill-rule="evenodd" id="Star-Copy" stroke="none" />
                    <path
                        d="M188.498 169.512L185.874 168.078L188.498 166.643L189.934 164.021L191.369 166.643L193.993 168.078L191.369 169.512L189.934 172.134L188.498 169.512Z"
                        fill="#FFFFFF" fill-rule="evenodd" id="Star-Copy-2" stroke="none" />
                    <path
                        d="M132.237 220.189L127.513 217.608L132.237 215.026L134.82 210.306L137.404 215.026L142.127 217.608L137.404 220.189L134.82 224.909L132.237 220.189Z"
                        fill="#FFFFFF" fill-rule="evenodd" id="Star-Copy-4" stroke="none" />
                    <path
                        d="M411.243 231.662L406.519 229.081L411.243 226.499L413.826 221.779L416.41 226.499L421.133 229.081L416.41 231.662L413.826 236.382L411.243 231.662Z"
                        fill="#FFFFFF" fill-rule="evenodd" id="Star-Copy-5" stroke="none" />
                </g>
            </g>
        </g>
        <g id="Group-3" transform="translate(60.86133 51.28949)">
            <g id="Group-2">
                <g id="Group" transform="translate(6 96.324646)">
                    <path
                        d="M24.6309 18.7718C24.2472 19.1373 23.7689 19.4155 23.2197 19.5644L18.1756 20.9329C16.2709 21.4499 14.2524 20.9081 12.9081 19.5191L10.27 16.7931C8.92573 15.404 8.46217 13.3811 9.0602 11.5136L10.6921 6.19305L4.16467 7.867C2.40951 8.34319 0.59749 7.3176 0.117516 5.57625C-0.362458 3.83491 0.671274 2.03727 2.42643 1.56095L7.47054 0.192436C9.37556 -0.324401 11.394 0.217426 12.7382 1.60626L15.3763 4.33231C16.7206 5.72127 17.1841 7.74419 16.5862 9.61162L14.6987 14.9818L21.4816 13.2585C23.2368 12.7823 25.0488 13.8079 25.5288 15.5493C25.8587 16.7457 25.4736 17.9691 24.6309 18.7718L24.6309 18.7718Z"
                        fill="#8BB6EF" id="Path" stroke="none" />
                    <path
                        d="M10.6914 6.19318L10.5195 6.75356L9.05939 11.5139C8.54545 13.1189 8.81629 14.8384 9.75588 16.172C11.2463 15.8339 13.2285 15.4056 14.698 14.9818L14.9399 14.2935L16.5856 9.61163C17.1238 7.93049 16.8013 6.12351 15.7509 4.76636C14.2487 5.20923 12.1999 5.77353 10.6914 6.19318L10.6914 6.19318Z"
                        fill="#8388EF" id="Path" stroke="none" />
                </g>
                <g id="Group" transform="translate(84.13281 40.620667)">
                    <path
                        d="M2.06773 24.2122C2.56119 24.4092 3.10961 24.4901 3.67507 24.425L8.86955 23.8266C10.8312 23.6007 12.4999 22.3507 13.2244 20.5642L14.6463 17.0581C15.3708 15.2716 15.0398 13.2232 13.7824 11.7123L10.2666 7.38061L16.9519 6.51618C18.7595 6.30793 20.0545 4.68548 19.8447 2.89214C19.6348 1.09892 17.9995 -0.185917 16.1919 0.0220801L10.9974 0.62045C9.03556 0.846496 7.36691 2.09662 6.64256 3.8829L5.2207 7.38894C4.49623 9.17534 4.82723 11.2236 6.08461 12.7346L9.85621 17.0176L2.9151 17.9309C1.10766 18.1392 -0.187495 19.7616 0.0222787 21.5549C0.166538 22.7873 0.984008 23.7796 2.06773 24.2122L2.06773 24.2122Z"
                        fill="#A183E2" id="Path" stroke="none" />
                    <path
                        d="M10.2657 7.38062L10.6359 7.83687L13.7815 11.7123C14.8622 13.0109 15.2579 14.7066 14.8879 16.2918C13.3778 16.5301 11.3778 16.8668 9.85519 17.0179L9.37178 16.4689L6.08358 12.7348C4.95164 11.3745 4.57102 9.57872 5.03484 7.93065C6.59523 7.78525 8.70811 7.54987 10.2657 7.38062L10.2657 7.38062Z"
                        fill="#9762E2" id="Path" stroke="none" />
                </g>
                <g id="Group" transform="translate(23.089844 37)">
                    <path
                        d="M12.4301 28.0563C12.911 27.8309 13.3435 27.4866 13.6795 27.0306L16.7657 22.8422C17.9312 21.2607 18.1403 19.1965 17.3112 17.4554L15.684 14.0384C14.8548 12.2974 13.1148 11.1468 11.143 11.0357L5.55073 10.6527L9.45311 5.19819C10.527 3.74083 10.2067 1.69569 8.73792 0.630209C7.26899 -0.435271 5.20764 -0.117469 4.13358 1.33977L1.0474 5.52811C-0.118127 7.10992 -0.327138 9.17412 0.501908 10.915L2.12909 14.3319C2.95826 16.0729 4.69815 17.2234 6.66982 17.3346L12.3999 17.4984L8.35997 23.1721C7.28604 24.6295 7.60636 26.6746 9.07516 27.7401C10.0847 28.4724 11.374 28.5514 12.4301 28.0563L12.4301 28.0563Z"
                        fill="#FFA585" id="Path" stroke="none" />
                    <path
                        d="M5.24025 11.1148L5.55103 10.6527L11.1433 11.0358C12.838 11.1312 14.3609 11.9951 15.2821 13.3413C14.5267 14.4628 13.7278 15.5545 12.9112 16.6341C12.7084 16.9022 12.5365 17.1919 12.4002 17.4984L6.67012 17.3346C4.895 17.2345 3.30814 16.2917 2.4043 14.8345C3.35687 13.5998 4.3074 12.3638 5.24025 11.1148L5.24025 11.1148Z"
                        fill="#EF7C85" id="Path" stroke="none" />
                </g>
                <path
                    d="M9.06392 56.1521L6.30149 54.7817C5.47741 54.3729 5.14335 53.3786 5.55539 52.5609L6.93666 49.8202C7.34871 49.0026 8.35089 48.6711 9.17497 49.0799L11.9374 50.4503C12.7615 50.8591 13.0955 51.8534 12.6835 52.6712L11.3022 55.4119C10.8902 56.2295 9.88813 56.5609 9.06392 56.1521L9.06392 56.1521Z"
                    fill="#FFE266" id="Path" stroke="none" />
                <path
                    d="M60.2086 97.8063L63.1783 96.9646C64.0644 96.7134 64.9877 97.2224 65.2408 98.1015L66.0892 101.048C66.3424 101.927 65.8293 102.843 64.9433 103.094L61.9735 103.936C61.0875 104.187 60.1642 103.678 59.911 102.799L59.0626 99.8525C58.8096 98.9735 59.3226 98.0574 60.2086 97.8063L60.2086 97.8063Z"
                    fill="#EF8BBD" id="Path" stroke="none" />
                <path
                    d="M72.3877 24.0595L68.4881 26.2931C67.3248 26.9595 65.8371 26.5641 65.1656 25.4099L62.9142 21.541C62.2425 20.3868 62.6412 18.9109 63.8044 18.2446L67.704 16.0109C68.8673 15.3445 70.3548 15.7399 71.0265 16.8942L73.2779 20.7629C73.9496 21.9173 73.5511 23.3931 72.3877 24.0595Z"
                    fill="#78EAC4" id="Path" stroke="none" />
                <path
                    d="M4.90117 24.3317L5.92652 27.4626C5.97046 27.5967 6.05738 27.7029 6.16699 27.7566L8.72861 29.0099C9.09046 29.1869 9.09046 29.8131 8.72861 29.9902L6.16699 31.2434C6.05738 31.2971 5.97034 31.4033 5.92652 31.5374L4.90117 34.6682C4.75635 35.1106 4.24398 35.1106 4.09917 34.6682L3.07369 31.5373C3.02975 31.4032 2.94284 31.297 2.83322 31.2433L0.271481 29.9902C-0.0904937 29.8131 -0.0904937 29.187 0.271481 29.0099L2.8331 27.7566C2.94284 27.7029 3.02975 27.5967 3.07357 27.4626L4.09904 24.3317C4.24398 23.8894 4.75623 23.8894 4.90117 24.3317L4.90117 24.3317Z"
                    fill="#CAB4EF" id="Path" stroke="none" />
                <path
                    d="M38.8118 0.24125L39.6094 2.51825C39.6435 2.61569 39.7111 2.69298 39.7965 2.73201L41.7888 3.6435C42.0704 3.77235 42.0704 4.22765 41.7888 4.3565L39.7965 5.26799C39.7112 5.30702 39.6436 5.38431 39.6094 5.48175L38.8118 7.75875C38.6992 8.08042 38.3007 8.08042 38.1881 7.75875L37.3905 5.48175C37.3564 5.38431 37.2888 5.30702 37.2034 5.26799L35.2111 4.3565C34.9296 4.22765 34.9296 3.77235 35.2111 3.6435L37.2034 2.73201C37.2887 2.69298 37.3563 2.61569 37.3905 2.51825L38.1881 0.24125C38.3007 -0.0804168 38.6991 -0.0804168 38.8118 0.24125Z"
                    fill="#FFC7B6" id="Path" stroke="none" />
                <path
                    d="M9.07457 147.007C10.2695 146.511 10.8367 145.141 10.3414 143.946C9.84608 142.751 8.47584 142.184 7.28087 142.679C6.0859 143.175 5.51872 144.545 6.01404 145.74C6.50936 146.935 7.8796 147.502 9.07457 147.007Z"
                    fill="#8BB6EF" id="Oval" stroke="none" />
                <path
                    d="M6 6C6.55228 6 7 5.55228 7 5C7 4.44772 6.55228 4 6 4C5.44772 4 5 4.44772 5 5C5 5.55228 5.44772 6 6 6Z"
                    fill="#EF8BBD" id="Oval" stroke="none" />
                <path
                    d="M64 62C64.5523 62 65 61.5523 65 61C65 60.4477 64.5523 60 64 60C63.4477 60 63 60.4477 63 61C63 61.5523 63.4477 62 64 62Z"
                    fill="#FFE266" id="Oval" stroke="none" />
            </g>
            <g id="Group-2" transform="matrix(-1 0 0 1 332 0)">
                <g id="Group" transform="translate(6 96.324646)">
                    <path
                        d="M24.6309 18.7718C24.2472 19.1373 23.7689 19.4155 23.2197 19.5644L18.1756 20.9329C16.2709 21.4499 14.2524 20.9081 12.9081 19.5191L10.27 16.7931C8.92573 15.404 8.46217 13.3811 9.0602 11.5136L10.6921 6.19305L4.16467 7.867C2.40951 8.34319 0.59749 7.3176 0.117516 5.57625C-0.362458 3.83491 0.671274 2.03727 2.42643 1.56095L7.47054 0.192436C9.37556 -0.324401 11.394 0.217426 12.7382 1.60626L15.3763 4.33231C16.7206 5.72127 17.1841 7.74419 16.5862 9.61162L14.6987 14.9818L21.4816 13.2585C23.2368 12.7823 25.0488 13.8079 25.5288 15.5493C25.8587 16.7457 25.4736 17.9691 24.6309 18.7718L24.6309 18.7718Z"
                        fill="#8BB6EF" id="Path" stroke="none" />
                    <path
                        d="M10.6914 6.19318L10.5195 6.75356L9.05939 11.5139C8.54545 13.1189 8.81629 14.8384 9.75588 16.172C11.2463 15.8339 13.2285 15.4056 14.698 14.9818L14.9399 14.2935L16.5856 9.61163C17.1238 7.93049 16.8013 6.12351 15.7509 4.76636C14.2487 5.20923 12.1999 5.77353 10.6914 6.19318L10.6914 6.19318Z"
                        fill="#8388EF" id="Path" stroke="none" />
                </g>
                <g id="Group" transform="translate(84.13281 40.620667)">
                    <path
                        d="M2.06773 24.2122C2.56119 24.4092 3.10961 24.4901 3.67507 24.425L8.86955 23.8266C10.8312 23.6007 12.4999 22.3507 13.2244 20.5642L14.6463 17.0581C15.3708 15.2716 15.0398 13.2232 13.7824 11.7123L10.2666 7.38061L16.9519 6.51618C18.7595 6.30793 20.0545 4.68548 19.8447 2.89214C19.6348 1.09892 17.9995 -0.185917 16.1919 0.0220801L10.9974 0.62045C9.03556 0.846496 7.36691 2.09662 6.64256 3.8829L5.2207 7.38894C4.49623 9.17534 4.82723 11.2236 6.08461 12.7346L9.85621 17.0176L2.9151 17.9309C1.10766 18.1392 -0.187495 19.7616 0.0222787 21.5549C0.166538 22.7873 0.984008 23.7796 2.06773 24.2122L2.06773 24.2122Z"
                        fill="#A183E2" id="Path" stroke="none" />
                    <path
                        d="M10.2657 7.38062L10.6359 7.83687L13.7815 11.7123C14.8622 13.0109 15.2579 14.7066 14.8879 16.2918C13.3778 16.5301 11.3778 16.8668 9.85519 17.0179L9.37178 16.4689L6.08358 12.7348C4.95164 11.3745 4.57102 9.57872 5.03484 7.93065C6.59523 7.78525 8.70811 7.54987 10.2657 7.38062L10.2657 7.38062Z"
                        fill="#9762E2" id="Path" stroke="none" />
                </g>
                <g id="Group" transform="translate(23.089844 37)">
                    <path
                        d="M12.4301 28.0563C12.911 27.8309 13.3435 27.4866 13.6795 27.0306L16.7657 22.8422C17.9312 21.2607 18.1403 19.1965 17.3112 17.4554L15.684 14.0384C14.8548 12.2974 13.1148 11.1468 11.143 11.0357L5.55073 10.6527L9.45311 5.19819C10.527 3.74083 10.2067 1.69569 8.73792 0.630209C7.26899 -0.435271 5.20764 -0.117469 4.13358 1.33977L1.0474 5.52811C-0.118127 7.10992 -0.327138 9.17412 0.501908 10.915L2.12909 14.3319C2.95826 16.0729 4.69815 17.2234 6.66982 17.3346L12.3999 17.4984L8.35997 23.1721C7.28604 24.6295 7.60636 26.6746 9.07516 27.7401C10.0847 28.4724 11.374 28.5514 12.4301 28.0563L12.4301 28.0563Z"
                        fill="#FFA585" id="Path" stroke="none" />
                    <path
                        d="M5.24025 11.1148L5.55103 10.6527L11.1433 11.0358C12.838 11.1312 14.3609 11.9951 15.2821 13.3413C14.5267 14.4628 13.7278 15.5545 12.9112 16.6341C12.7084 16.9022 12.5365 17.1919 12.4002 17.4984L6.67012 17.3346C4.895 17.2345 3.30814 16.2917 2.4043 14.8345C3.35687 13.5998 4.3074 12.3638 5.24025 11.1148L5.24025 11.1148Z"
                        fill="#EF7C85" id="Path" stroke="none" />
                </g>
                <path
                    d="M9.06392 56.1521L6.30149 54.7817C5.47741 54.3729 5.14335 53.3786 5.55539 52.5609L6.93666 49.8202C7.34871 49.0026 8.35089 48.6711 9.17497 49.0799L11.9374 50.4503C12.7615 50.8591 13.0955 51.8534 12.6835 52.6712L11.3022 55.4119C10.8902 56.2295 9.88813 56.5609 9.06392 56.1521L9.06392 56.1521Z"
                    fill="#FFE266" id="Path" stroke="none" />
                <path
                    d="M59.2086 122.806L62.1783 121.965C63.0644 121.713 63.9877 122.222 64.2408 123.101L65.0892 126.048C65.3424 126.927 64.8293 127.843 63.9433 128.094L60.9735 128.936C60.0875 129.187 59.1642 128.678 58.911 127.799L58.0626 124.853C57.8096 123.973 58.3226 123.057 59.2086 122.806L59.2086 122.806Z"
                    fill="#EF8BBD" id="Path" stroke="none" />
                <path
                    d="M72.3877 24.0595L68.4881 26.2931C67.3248 26.9595 65.8371 26.5641 65.1656 25.4099L62.9142 21.541C62.2425 20.3868 62.6412 18.9109 63.8044 18.2446L67.704 16.0109C68.8673 15.3445 70.3548 15.7399 71.0265 16.8942L73.2779 20.7629C73.9496 21.9173 73.5511 23.3931 72.3877 24.0595Z"
                    fill="#78EAC4" id="Path" stroke="none" />
                <path
                    d="M4.90117 24.3317L5.92652 27.4626C5.97046 27.5967 6.05738 27.7029 6.16699 27.7566L8.72861 29.0099C9.09046 29.1869 9.09046 29.8131 8.72861 29.9902L6.16699 31.2434C6.05738 31.2971 5.97034 31.4033 5.92652 31.5374L4.90117 34.6682C4.75635 35.1106 4.24398 35.1106 4.09917 34.6682L3.07369 31.5373C3.02975 31.4032 2.94284 31.297 2.83322 31.2433L0.271481 29.9902C-0.0904937 29.8131 -0.0904937 29.187 0.271481 29.0099L2.8331 27.7566C2.94284 27.7029 3.02975 27.5967 3.07357 27.4626L4.09904 24.3317C4.24398 23.8894 4.75623 23.8894 4.90117 24.3317L4.90117 24.3317Z"
                    fill="#CAB4EF" id="Path" stroke="none" />
                <path
                    d="M38.8118 0.24125L39.6094 2.51825C39.6435 2.61569 39.7111 2.69298 39.7965 2.73201L41.7888 3.6435C42.0704 3.77235 42.0704 4.22765 41.7888 4.3565L39.7965 5.26799C39.7112 5.30702 39.6436 5.38431 39.6094 5.48175L38.8118 7.75875C38.6992 8.08042 38.3007 8.08042 38.1881 7.75875L37.3905 5.48175C37.3564 5.38431 37.2888 5.30702 37.2034 5.26799L35.2111 4.3565C34.9296 4.22765 34.9296 3.77235 35.2111 3.6435L37.2034 2.73201C37.2887 2.69298 37.3563 2.61569 37.3905 2.51825L38.1881 0.24125C38.3007 -0.0804168 38.6991 -0.0804168 38.8118 0.24125Z"
                    fill="#FFC7B6" id="Path" stroke="none" />
                <path
                    d="M9.07457 147.007C10.2695 146.511 10.8367 145.141 10.3414 143.946C9.84608 142.751 8.47584 142.184 7.28087 142.679C6.0859 143.175 5.51872 144.545 6.01404 145.74C6.50936 146.935 7.8796 147.502 9.07457 147.007Z"
                    fill="#8BB6EF" id="Oval" stroke="none" />
                <path
                    d="M6 6C6.55228 6 7 5.55228 7 5C7 4.44772 6.55228 4 6 4C5.44772 4 5 4.44772 5 5C5 5.55228 5.44772 6 6 6Z"
                    fill="#EF8BBD" id="Oval" stroke="none" />
                <path
                    d="M64 62C64.5523 62 65 61.5523 65 61C65 60.4477 64.5523 60 64 60C63.4477 60 63 60.4477 63 61C63 61.5523 63.4477 62 64 62Z"
                    fill="#FFE266" id="Oval" stroke="none" />
            </g>
        </g>
        <g id="Group-2"
            transform="matrix(-0.7071067 0.7071068 0.7071068 0.7071067 229.43358 -40.479614)">
            <g id="Group"
                transform="matrix(0.9999999 7.1054274E-15 -7.1054274E-15 0.9999999 0.8808594 55.708984)">
                <path
                    d="M24.6309 18.7718C24.2472 19.1373 23.7689 19.4155 23.2197 19.5644L18.1756 20.9329C16.2709 21.4499 14.2524 20.9081 12.9081 19.5191L10.27 16.7931C8.92573 15.404 8.46217 13.3811 9.0602 11.5136L10.6921 6.19305L4.16466 7.867C2.40951 8.34319 0.59749 7.3176 0.117516 5.57625C-0.362458 3.83491 0.671274 2.03727 2.42643 1.56095L7.47054 0.192436C9.37556 -0.324401 11.394 0.217426 12.7382 1.60626L15.3763 4.33231C16.7206 5.72127 17.1841 7.74419 16.5862 9.61162L14.6986 14.9818L21.4816 13.2585C23.2368 12.7823 25.0488 13.8079 25.5288 15.5493C25.8586 16.7457 25.4736 17.9691 24.6309 18.7718L24.6309 18.7718Z"
                    fill="#8BB6EF" id="Path" stroke="none" />
                <path
                    d="M10.6953 6.18854L10.5234 6.74892L9.0633 11.5093C8.54936 13.1143 8.8202 14.8338 9.75979 16.1674C11.2502 15.8292 13.2324 15.401 14.7019 14.9772L14.9438 14.2888L16.5895 9.60699C17.1277 7.92585 16.8052 6.11887 15.7548 4.76172C14.2526 5.2046 12.2038 5.76889 10.6953 6.18854L10.6953 6.18854Z"
                    fill="#8388EF" id="Path" stroke="none" />
            </g>
            <g id="Group"
                transform="matrix(0.9999999 7.1054274E-15 -7.1054274E-15 0.9999999 79.01367 0)">
                <path
                    d="M2.06773 24.2122C2.56119 24.4092 3.10961 24.4901 3.67507 24.425L8.86955 23.8266C10.8312 23.6007 12.4999 22.3507 13.2244 20.5642L14.6463 17.0581C15.3708 15.2716 15.0398 13.2232 13.7824 11.7123L10.2666 7.38061L16.9519 6.51618C18.7595 6.30793 20.0545 4.68548 19.8447 2.89214C19.6348 1.09892 17.9995 -0.185917 16.1919 0.0220801L10.9974 0.62045C9.03556 0.846495 7.36691 2.09662 6.64256 3.8829L5.2207 7.38894C4.49623 9.17534 4.82723 11.2236 6.08461 12.7346L9.85621 17.0176L2.9151 17.9309C1.10766 18.1392 -0.187495 19.7616 0.0222787 21.5549C0.166538 22.7873 0.984008 23.7796 2.06773 24.2122L2.06773 24.2122Z"
                    fill="#A183E2" id="Path" stroke="none" />
                <path
                    d="M10.2677 7.38086L10.6378 7.83711L13.7834 11.7126C14.8641 13.0112 15.2599 14.7068 14.8898 16.292C13.3798 16.5303 11.3797 16.8671 9.85714 17.0181L9.37373 16.4691L6.08553 12.735C4.9536 11.3747 4.57297 9.57896 5.03679 7.93089C6.59718 7.78549 8.71006 7.55011 10.2677 7.38086L10.2677 7.38086Z"
                    fill="#9762E2" id="Path" stroke="none" />
            </g>
            <path
                d="M55.0894 57.1929L58.0592 56.3512C58.9452 56.1001 59.8685 56.6091 60.1217 57.4881L60.9701 60.4346C61.2232 61.3136 60.7102 62.2297 59.8241 62.4808L56.8544 63.3225C55.9683 63.5737 55.045 63.0647 54.7919 62.1856L53.9435 59.2392C53.6905 58.3601 54.2035 57.4441 55.0894 57.1929L55.0894 57.1929Z"
                fill="#EF8BBD" id="Path" stroke="none" />
            <path
                d="M3.95738 106.388C5.15235 105.892 5.71953 104.522 5.22421 103.327C4.7289 102.132 3.35865 101.565 2.16368 102.06C0.968713 102.555 0.401534 103.926 0.896851 105.121C1.39217 106.316 2.76241 106.883 3.95738 106.388Z"
                fill="#8BB6EF" id="Oval" stroke="none" />
            <path
                d="M58.875 21.3848C59.4273 21.3848 59.875 20.937 59.875 20.3848C59.875 19.8325 59.4273 19.3848 58.875 19.3848C58.3227 19.3848 57.875 19.8325 57.875 20.3848C57.875 20.937 58.3227 21.3848 58.875 21.3848Z"
                fill="#FFE266" id="Oval" stroke="none" />
        </g>
    </g>
</svg>