<?xml version="1.0" encoding="utf-8"?>
<svg height="14px" version="1.1" viewBox="0 0 12 14" width="12px"
    xmlns="http://www.w3.org/2000/svg">
    <g id="timer">
        <path
            d="M6.92508 2.26867L6.92508 1.18153L7.42967 1.18153C7.7614 1.18153 8.03037 0.917006 8.03037 0.590763C8.03037 0.26452 7.76145 0 7.42967 0L4.57033 0C4.2386 0 3.96963 0.26452 3.96963 0.590763C3.96963 0.917006 4.2386 1.18153 4.57033 1.18153L5.07492 1.18153L5.07492 2.26867C2.20414 2.70749 0 5.15495 0 8.09927C-1.7073e-16 11.353 2.69162 14 6 14C9.30838 14 12 11.3529 12 8.09927C12 5.15495 9.79586 2.70749 6.92508 2.26867L6.92508 2.26867ZM6 12.8185C3.35403 12.8185 1.2014 10.7015 1.2014 8.09932C1.2014 5.49717 3.35408 3.38011 6 3.38011C8.64592 3.38011 10.7986 5.49717 10.7986 8.09932C10.7986 10.7015 8.64597 12.8185 6 12.8185Z"
            fill="#FFFFFF" id="Shape" stroke="none" />
        <path
            d="M6.6007 7.85384L6.6007 5.07069C6.6007 4.74444 6.33173 4.47992 6 4.47992C5.66827 4.47992 5.3993 4.74444 5.3993 5.07069L5.3993 8.19464C5.3993 8.29072 5.43822 8.38283 5.50742 8.45061L7.1879 10.0963C7.42304 10.3266 7.80331 10.3257 8.03744 10.0946C8.27152 9.86338 8.2707 9.48931 8.03566 9.2591L6.6007 7.85384L6.6007 7.85384Z"
            fill="#FFFFFF" id="Path" stroke="none" />
    </g>
</svg>