<?xml version="1.0" encoding="UTF-8"?>
<svg height="47px" version="1.1" viewBox="0 0 39 47" width="39px"
    xmlns="http://www.w3.org/2000/svg">
    <title>ic_team_greyedout</title>
    <g fill="none" fill-rule="evenodd" id="Slices" stroke="none" stroke-width="1">
        <g fill="#E0E0E0" fill-rule="nonzero" id="Artboard"
            transform="translate(-32.000000, -1118.000000)">
            <g id="ic_team_greyedout" transform="translate(32.000000, 1118.000000)">
                <path
                    d="M38.0342697,5.58886914 L19.8896711,0.0581074219 C19.6356124,-0.0193691406 19.3648393,-0.0193691406 19.1106903,0.0581074219 L0.96573029,5.58886914 C0.392562271,5.76355859 0,6.29965234 0,6.90771484 L0,27.1871133 C0,29.8248047 1.05101885,32.524918 3.12369343,35.2124551 C4.70668159,37.2650332 6.89680863,39.3261484 9.63299928,41.3386113 C14.2296369,44.7193066 18.7559838,46.7931816 18.9464375,46.8797461 C19.1225259,46.9598848 19.3113533,47 19.5001807,47 C19.6890081,47 19.8778355,46.9599766 20.0539239,46.8797461 C20.2442872,46.7931816 24.7705438,44.7193066 29.3671814,41.3386113 C32.1033721,39.3261484 34.2934088,37.2650332 35.8764873,35.2124551 C37.9491618,32.5250098 39,29.8248965 39,27.1871133 L39,6.90771484 C39,6.29965234 38.6076184,5.76355859 38.0342697,5.58886914 Z"
                    id="Path"></path>
            </g>
        </g>
    </g>
</svg>