<?xml version="1.0" encoding="utf-8"?>
<svg height="99px" version="1.1" viewBox="0 0 89 99" width="89px"
    xmlns="http://www.w3.org/2000/svg">
    <g id="Group-7" transform="translate(0.5 0.5)">
        <path
            d="M0 92.3351L0 13.999Q0 13.8763 0.00602151 13.7537Q0.012043 13.6311 0.0240715 13.509Q0.0361001 13.3869 0.0541066 13.2655Q0.0721132 13.1441 0.0960544 13.0237Q0.119996 12.9034 0.149814 12.7843Q0.179632 12.6653 0.215255 12.5479Q0.250879 12.4304 0.292221 12.3149Q0.333564 12.1993 0.380526 12.086Q0.427489 11.9726 0.479957 11.8617Q0.532426 11.7507 0.590276 11.6425Q0.648125 11.5343 0.711215 11.429Q0.774305 11.3237 0.842483 11.2217Q0.910662 11.1197 0.983765 11.0211Q1.05687 10.9225 1.13472 10.8277Q1.21257 10.7328 1.29499 10.6419Q1.3774 10.5509 1.46417 10.4642Q1.55095 10.3774 1.64188 10.295Q1.73281 10.2126 1.82767 10.1347Q1.92253 10.0569 2.0211 9.98376Q2.11967 9.91066 2.2217 9.84248Q2.32374 9.7743 2.429 9.71121Q2.53426 9.64812 2.64249 9.59027Q2.75072 9.53242 2.86165 9.47996Q2.97259 9.42749 3.08597 9.38052Q3.19934 9.33356 3.31489 9.29222Q3.43043 9.25088 3.54787 9.21525Q3.6653 9.17963 3.78434 9.14981Q3.90338 9.12 4.02374 9.09605Q4.1441 9.07211 4.26549 9.05411Q4.38688 9.0361 4.50901 9.02407Q4.63114 9.01204 4.75371 9.00602Q4.87628 9 4.999 9L83.001 9Q83.1237 9 83.2463 9.00602Q83.3689 9.01204 83.491 9.02407Q83.6131 9.0361 83.7345 9.05411Q83.8559 9.07211 83.9762 9.09605Q84.0966 9.12 84.2157 9.14981Q84.3347 9.17963 84.4521 9.21525Q84.5696 9.25088 84.6851 9.29222Q84.8006 9.33356 84.914 9.38052Q85.0274 9.42749 85.1383 9.47996Q85.2493 9.53242 85.3575 9.59027Q85.4657 9.64812 85.571 9.71121Q85.6762 9.7743 85.7783 9.84248Q85.8803 9.91066 85.9789 9.98376Q86.0775 10.0569 86.1723 10.1347Q86.2672 10.2126 86.3581 10.295Q86.449 10.3774 86.5358 10.4642Q86.6226 10.5509 86.705 10.6419Q86.7874 10.7328 86.8653 10.8277Q86.9431 10.9225 87.0162 11.0211Q87.0893 11.1197 87.1575 11.2217Q87.2257 11.3237 87.2888 11.429Q87.3519 11.5343 87.4097 11.6425Q87.4676 11.7507 87.52 11.8617Q87.5725 11.9726 87.6195 12.086Q87.6664 12.1993 87.7078 12.3149Q87.7491 12.4304 87.7847 12.5479Q87.8204 12.6653 87.8502 12.7843Q87.88 12.9034 87.9039 13.0237Q87.9279 13.1441 87.9459 13.2655Q87.9639 13.3869 87.9759 13.509Q87.988 13.6311 87.994 13.7537Q88 13.8763 88 13.999L88 92.3351Q88 92.6252 87.9665 92.9133Q87.9329 93.2014 87.8663 93.4836Q87.7997 93.7659 87.7008 94.0386Q87.602 94.3113 87.4723 94.5707Q87.3426 94.8301 87.1838 95.0728Q87.0249 95.3154 86.8391 95.5381Q86.6533 95.7608 86.4429 95.9605Q86.2326 96.1602 86.0005 96.3342Q85.7685 96.5083 85.5179 96.6543Q85.2673 96.8003 85.0015 96.9164Q84.7357 97.0325 84.4583 97.117Q84.1808 97.2016 83.8955 97.2535Q83.6101 97.3054 83.3207 97.3239Q83.0312 97.3425 82.7416 97.3274Q82.452 97.3124 82.166 97.2639Q81.8801 97.2155 81.6016 97.1343L44 86.1699L6.3984 97.1343Q6.11996 97.2155 5.834 97.2639Q5.54803 97.3124 5.25839 97.3274Q4.96874 97.3424 4.6793 97.3239Q4.38986 97.3054 4.1045 97.2534Q3.81915 97.2016 3.54171 97.117Q3.26427 97.0325 2.99847 96.9164Q2.73267 96.8003 2.48208 96.6543Q2.23149 96.5083 1.99946 96.3342Q1.76744 96.1602 1.5571 95.9605Q1.34676 95.7608 1.16093 95.5381Q0.975094 95.3154 0.816259 95.0728Q0.657424 94.8301 0.527721 94.5707Q0.398017 94.3113 0.299185 94.0386Q0.200353 93.7659 0.133719 93.4836Q0.0670843 93.2014 0.0335422 92.9133Q0 92.6252 0 92.3351Z"
            fill="#BAD450" fill-rule="evenodd" id="Combined-Shape-Copy" stroke="none" />
        <path
            d="M0 90L0 4.999Q0 4.87628 0.00602151 4.75371Q0.012043 4.63114 0.0240715 4.50901Q0.0361001 4.38688 0.0541066 4.26549Q0.0721132 4.1441 0.0960544 4.02374Q0.119996 3.90338 0.149814 3.78434Q0.179632 3.6653 0.215255 3.54787Q0.250879 3.43043 0.292221 3.31489Q0.333564 3.19934 0.380526 3.08597Q0.427489 2.97259 0.479957 2.86165Q0.532426 2.75072 0.590276 2.64249Q0.648125 2.53426 0.711215 2.429Q0.774305 2.32374 0.842483 2.2217Q0.910662 2.11967 0.983765 2.0211Q1.05687 1.92253 1.13472 1.82767Q1.21257 1.73281 1.29499 1.64188Q1.3774 1.55095 1.46417 1.46417Q1.55095 1.3774 1.64188 1.29499Q1.73281 1.21257 1.82767 1.13472Q1.92253 1.05687 2.0211 0.983765Q2.11967 0.910662 2.2217 0.842483Q2.32374 0.774305 2.429 0.711215Q2.53426 0.648125 2.64249 0.590276Q2.75072 0.532426 2.86165 0.479957Q2.97259 0.427488 3.08597 0.380526Q3.19934 0.333564 3.31489 0.292221Q3.43043 0.250879 3.54787 0.215255Q3.6653 0.179632 3.78434 0.149814Q3.90338 0.119996 4.02374 0.0960544Q4.1441 0.0721132 4.26549 0.0541066Q4.38688 0.0361001 4.50901 0.0240715Q4.63114 0.012043 4.75371 0.00602151Q4.87628 0 4.999 0L83.001 0Q83.1237 0 83.2463 0.00602151Q83.3689 0.012043 83.491 0.0240715Q83.6131 0.0361001 83.7345 0.0541066Q83.8559 0.0721132 83.9762 0.0960544Q84.0966 0.119996 84.2157 0.149814Q84.3347 0.179632 84.4521 0.215255Q84.5696 0.250879 84.6851 0.292221Q84.8006 0.333564 84.914 0.380526Q85.0274 0.427488 85.1383 0.479957Q85.2493 0.532426 85.3575 0.590276Q85.4657 0.648125 85.571 0.711215Q85.6762 0.774305 85.7783 0.842483Q85.8803 0.910662 85.9789 0.983765Q86.0775 1.05687 86.1723 1.13472Q86.2672 1.21257 86.3581 1.29499Q86.449 1.3774 86.5358 1.46417Q86.6226 1.55095 86.705 1.64188Q86.7874 1.73281 86.8653 1.82767Q86.9431 1.92253 87.0162 2.0211Q87.0893 2.11967 87.1575 2.2217Q87.2257 2.32374 87.2888 2.429Q87.3519 2.53426 87.4097 2.64249Q87.4676 2.75072 87.52 2.86165Q87.5725 2.97259 87.6195 3.08596Q87.6664 3.19934 87.7078 3.31489Q87.7491 3.43043 87.7847 3.54787Q87.8204 3.6653 87.8502 3.78434Q87.88 3.90338 87.9039 4.02374Q87.9279 4.1441 87.9459 4.26549Q87.9639 4.38688 87.9759 4.50901Q87.988 4.63114 87.994 4.75371Q88 4.87628 88 4.999L88 90L44 77.1699L0 90Z"
            fill="#7EBA61" fill-rule="evenodd" id="Combined-Shape" stroke="none" />
    </g>
</svg>