<?xml version="1.0" encoding="utf-8"?>
<svg xmlns:xlink="http://www.w3.org/1999/xlink" height="80px" version="1.1" viewBox="0 0 80 80"
    width="80px" xmlns="http://www.w3.org/2000/svg">
    <defs>
        <rect height="80" id="artboard_1" width="80" />
        <clipPath id="clip_1">
            <use clip-rule="evenodd" xlink:href="#artboard_1" />
        </clipPath>
    </defs>
    <g clip-path="url(#clip_1)" id="ElementsIconTips">
        <path
            d="M11.2 4L68.8 4C72.76 4 76 7.24 76 11.2L76 54.4C76 58.36 72.76 61.6 68.8 61.6L18.4 61.6L4 76L4 11.2C4 7.24 7.24 4 11.2 4ZM29 17L40.2906 17Q40.4974 17 40.704 17.0101Q40.9105 17.0203 41.1163 17.0406Q41.3221 17.0608 41.5266 17.0912Q41.7312 17.1215 41.934 17.1619Q42.1368 17.2022 42.3374 17.2524Q42.538 17.3027 42.7359 17.3627Q42.9338 17.4227 43.1285 17.4924Q43.3232 17.5621 43.5142 17.6412Q43.7053 17.7203 43.8922 17.8088Q44.0791 17.8972 44.2615 17.9947Q44.4439 18.0921 44.6213 18.1984Q44.7986 18.3048 44.9706 18.4196Q45.1425 18.5345 45.3086 18.6577Q45.4747 18.7809 45.6345 18.9121Q45.7944 19.0433 45.9476 19.1821Q46.1008 19.321 46.247 19.4672Q46.3933 19.6135 46.5321 19.7667Q46.671 19.9199 46.8022 20.0797Q46.9334 20.2396 47.0566 20.4057Q47.1798 20.5718 47.2946 20.7437Q47.4095 20.9157 47.5158 21.093Q47.6221 21.2704 47.7196 21.4528Q47.8171 21.6351 47.9055 21.8221Q47.9939 22.009 48.0731 22.2001Q48.1522 22.3911 48.2219 22.5858Q48.2915 22.7805 48.3516 22.9784Q48.4116 23.1763 48.4618 23.3769Q48.5121 23.5775 48.5524 23.7803Q48.5928 23.9831 48.6231 24.1876Q48.6535 24.3922 48.6737 24.598Q48.694 24.8038 48.7041 25.0103Q48.7143 25.2169 48.7143 25.4237L48.7143 25.4257Q48.7143 26.1539 48.5893 26.8713Q48.4643 27.5888 48.2181 28.2741Q47.9718 28.9594 47.6116 29.5923Q47.2514 30.2252 46.7879 30.7869Q47.0751 30.9054 47.3528 31.0447Q47.6305 31.1839 47.8972 31.3433Q48.1639 31.5026 48.4181 31.6812Q48.6723 31.8598 48.9127 32.0566Q49.1531 32.2534 49.3783 32.4674Q49.6035 32.6813 49.8124 32.9113Q50.0213 33.1413 50.2126 33.3861Q50.4039 33.6308 50.5767 33.889Q50.7495 34.1472 50.9029 34.4174Q51.0562 34.6876 51.1892 34.9684Q51.3221 35.2491 51.4341 35.5389Q51.546 35.8287 51.6363 36.126Q51.7266 36.4232 51.7948 36.7263Q51.8629 37.0294 51.9086 37.3367Q51.9542 37.644 51.9771 37.9538Q52 38.2637 52 38.5743L52 38.5763Q52 38.7831 51.9899 38.9897Q51.9797 39.1962 51.9594 39.402Q51.9392 39.6078 51.9088 39.8124Q51.8785 40.0169 51.8381 40.2197Q51.7978 40.4225 51.7475 40.6231Q51.6973 40.8237 51.6373 41.0216Q51.5772 41.2195 51.5076 41.4142Q51.4379 41.6089 51.3588 41.7999Q51.2796 41.991 51.1912 42.1779Q51.1028 42.3649 51.0053 42.5472Q50.9079 42.7296 50.8015 42.907Q50.6952 43.0843 50.5803 43.2563Q50.4655 43.4282 50.3423 43.5943Q50.2191 43.7604 50.0879 43.9203Q49.9567 44.0801 49.8179 44.2333Q49.679 44.3865 49.5328 44.5328Q49.3865 44.679 49.2333 44.8179Q49.0801 44.9567 48.9203 45.0879Q48.7604 45.2191 48.5943 45.3423Q48.4282 45.4655 48.2563 45.5803Q48.0843 45.6952 47.907 45.8015Q47.7296 45.9079 47.5472 46.0053Q47.3648 46.1028 47.1779 46.1912Q46.991 46.2796 46.7999 46.3588Q46.6089 46.4379 46.4142 46.5076Q46.2195 46.5772 46.0216 46.6373Q45.8237 46.6973 45.6231 46.7476Q45.4225 46.7978 45.2197 46.8381Q45.0169 46.8785 44.8123 46.9088Q44.6078 46.9392 44.402 46.9594Q44.1962 46.9797 43.9897 46.9898Q43.7831 47 43.5763 47L30.999 47Q30.9008 47 30.8031 46.9904Q30.7053 46.9807 30.609 46.9616Q30.5127 46.9424 30.4187 46.9139Q30.3247 46.8854 30.234 46.8478Q30.1433 46.8102 30.0567 46.764Q29.9701 46.7177 29.8884 46.6631Q29.8068 46.6085 29.7308 46.5462Q29.6549 46.4839 29.5855 46.4145Q29.5161 46.3451 29.4538 46.2691Q29.3914 46.1932 29.3369 46.1116Q29.2823 46.0299 29.236 45.9433Q29.1897 45.8567 29.1522 45.766Q29.1146 45.6753 29.0861 45.5813Q29.0576 45.4873 29.0384 45.391Q29.0193 45.2947 29.0096 45.1969Q29 45.0992 29 45.001L29 17Z"
            fill="#D8EACF" fill-rule="evenodd" id="Combined-Shape" stroke="none" />
    </g>
</svg>