<?xml version="1.0" encoding="UTF-8"?>
<svg height="91px" version="1.1" viewBox="0 0 138 91" width="138px"
    xmlns="http://www.w3.org/2000/svg">
    <title>Group 2</title>
    <defs>
        <filter filterUnits="objectBoundingBox" height="165.6%" id="filter-1" width="137.0%"
            x="-18.5%" y="-32.8%">
            <feOffset dx="0" dy="0" in="SourceAlpha" result="shadowOffsetOuter1"></feOffset>
            <feGaussianBlur in="shadowOffsetOuter1" result="shadowBlurOuter1"
                stdDeviation="5"></feGaussianBlur>
            <feColorMatrix in="shadowBlurOuter1" result="shadowMatrixOuter1" type="matrix"
                values="0 0 0 0 0   0 0 0 0 0   0 0 0 0 0  0 0 0 0.1 0"></feColorMatrix>
            <feMerge>
                <feMergeNode in="shadowMatrixOuter1"></feMergeNode>
                <feMergeNode in="SourceGraphic"></feMergeNode>
            </feMerge>
        </filter>
    </defs>
    <g fill="none" fill-rule="evenodd" id="Slices" stroke="none" stroke-width="1">
        <g id="Artboard" transform="translate(-573.000000, -517.000000)">
            <g id="Group-2" transform="translate(588.000000, 532.000000)">
                <g filter="url(#filter-1)" id="Group-31">
                    <g id="Group-29">
                        <g id="coins-2-copy-4" transform="translate(4.252336, 6.777778)">
                            <g fill-rule="nonzero" id="coins">
                                <g fill="#DD9F3A" id="Group"
                                    transform="translate(0.000000, 6.608552)">
                                    <path
                                        d="M25.7700151,1.64111425 L25.7700151,4.96603554 C25.7700151,5.87281952 25.0385307,6.60785082 24.1361225,6.60785082 L4.5688295,6.60785082 C3.66642132,6.60785082 2.93493699,5.87281952 2.93493699,4.96603554 L2.93493699,1.64111425 C2.93493699,0.735031306 3.66642132,0 4.5688295,0 L24.1360528,0 C25.0385307,0 25.7700151,0.735031306 25.7700151,1.64111425 Z"
                                        id="Path"></path>
                                    <path
                                        d="M22.8350781,8.24952589 L22.8350781,11.5744472 C22.8350781,12.4812312 22.1035937,13.2162625 21.2011856,13.2162625 L1.63389252,13.2162625 C0.731484331,13.2162625 0,12.4812312 0,11.5744472 L0,8.24952589 C0,7.34344295 0.731484331,6.60841165 1.63389252,6.60841165 L21.2011158,6.60841165 C22.1035937,6.60841165 22.8350781,7.34344295 22.8350781,8.24952589 Z"
                                        id="Path"></path>
                                    <path
                                        d="M23.9356882,14.8577973 L23.9356882,18.1827186 C23.9356882,19.0895026 23.2042038,19.8245339 22.3017957,19.8245339 L2.73450261,19.8245339 C1.83209442,19.8245339 1.10061009,19.0895026 1.10061009,18.1827186 L1.10061009,14.8577973 C1.10061009,13.9517144 1.83209442,13.2166831 2.73450261,13.2166831 L22.3017259,13.2166831 C23.2042038,13.2166831 23.9356882,13.9517144 23.9356882,14.8577973 Z"
                                        id="Path"></path>
                                    <path
                                        d="M22.8350781,21.466209 L22.8350781,24.7911303 C22.8350781,25.6979142 22.1035937,26.4329456 21.2011856,26.4329456 L1.63389252,26.4329456 C0.731484331,26.4329456 0,25.6979142 0,24.7911303 L0,21.466209 C0,20.560126 0.731484331,19.8250947 1.63389252,19.8250947 L21.2011158,19.8250947 C22.1035937,19.8250947 22.8350781,20.560126 22.8350781,21.466209 Z"
                                        id="Path"></path>
                                </g>
                                <path
                                    d="M22.8352176,28.0748309 L22.8352176,30.3676239 C22.8352176,31.2154511 22.195474,31.9136082 21.3744814,32.0006062 C21.3172743,32.0064948 21.2599973,32.0094391 21.2013251,32.0094391 L5.65534709,32.0094391 C4.75363656,32.0094391 4.02215223,31.2744078 4.02215223,30.3676239 L4.02215223,28.0748309 C4.02215223,27.168748 4.75363656,26.4337167 5.65534709,26.4337167 L21.2013251,26.4337167 C22.1037333,26.4337167 22.8352176,27.168748 22.8352176,28.0748309 Z"
                                    fill="#F4B74A" id="SVGCleanerId_0"></path>
                                <path
                                    d="M22.8352176,28.0748309 L22.8352176,30.3676239 C22.8352176,31.2154511 22.195474,31.9136082 21.3744814,32.0006062 C21.3172743,32.0064948 21.2599973,32.0094391 21.2013251,32.0094391 L5.65534709,32.0094391 C4.75363656,32.0094391 4.02215223,31.2744078 4.02215223,30.3676239 L4.02215223,28.0748309 C4.02215223,27.168748 4.75363656,26.4337167 5.65534709,26.4337167 L21.2013251,26.4337167 C22.1037333,26.4337167 22.8352176,27.168748 22.8352176,28.0748309 Z"
                                    fill="#F4B74A" id="SVGCleanerId_0_1_"></path>
                                <g fill="#F4B74A" id="Group"
                                    transform="translate(4.022082, 6.608692)">
                                    <path
                                        d="M18.8130654,14.857587 L18.8130654,17.15038 C18.8130654,17.9982072 18.1733218,18.6963643 17.3523292,18.7833622 C17.295122,18.7892509 17.2378451,18.7921952 17.1791729,18.7921952 L1.63319487,18.7921952 C0.731484331,18.7921952 0,18.0571639 0,17.15038 L0,14.857587 C0,13.9515041 0.731484331,13.2164728 1.63319487,13.2164728 L17.1791729,13.2164728 C18.0816508,13.2164027 18.8130654,13.951434 18.8130654,14.857587 Z"
                                        id="Path"></path>
                                    <path
                                        d="M18.8130654,8.2497362 L18.8130654,10.5425291 C18.8130654,11.3903564 18.1733218,12.0885134 17.3523292,12.1755114 C17.295122,12.1814001 17.2378451,12.1843444 17.1791729,12.1843444 L1.63319487,12.1843444 C0.731484331,12.1843444 0,11.4493131 0,10.5425291 L0,8.2497362 C0,7.34365326 0.731484331,6.60862196 1.63319487,6.60862196 L17.1791729,6.60862196 C18.0816508,6.60862196 18.8130654,7.34365326 18.8130654,8.2497362 Z"
                                        id="Path"></path>
                                    <path
                                        d="M21.7477931,1.64111425 L21.7477931,3.93390718 C21.7477931,4.78173442 21.1080495,5.47989148 20.2870569,5.56688946 C20.2298497,5.57277812 20.1725728,5.57572246 20.1139006,5.57572246 L4.56792256,5.57572246 C3.66621202,5.57572246 2.93472769,4.84069115 2.93472769,3.93390718 L2.93472769,1.64111425 C2.93472769,0.735031306 3.66621202,0 4.56792256,0 L20.1139006,0 C21.0163785,0 21.7477931,0.735031306 21.7477931,1.64111425 Z"
                                        id="Path"></path>
                                </g>
                                <g fill="#DD9F3A" id="Group"
                                    transform="translate(0.000000, 0.000140)">
                                    <path
                                        d="M22.8351478,28.0747608 L22.8351478,31.3996821 C22.8351478,32.2475094 22.1954043,32.9456664 21.3744117,33.0326644 C21.2254637,33.0385531 21.0765158,33.0414974 20.9275679,33.0414974 C19.3487198,33.0414974 17.769802,32.7148869 16.299508,32.0602639 C15.3126844,31.6216286 14.37651,31.0347953 13.5210536,30.3012362 C13.2921551,30.1051578 13.070582,29.898704 12.8541715,29.6819452 C11.8879285,28.7110168 11.1314683,27.6095565 10.5841632,26.4336466 L21.2012553,26.4336466 C22.1036635,26.4336466 22.8351478,27.1686779 22.8351478,28.0747608 Z"
                                        id="Path"></path>
                                    <path
                                        d="M22.8351478,21.4661389 L22.8351478,24.7910602 C22.8351478,25.6978441 22.1036635,26.4328755 21.2012553,26.4328755 L11.6832384,26.4328755 C10.7169954,24.3575424 10.4029839,22.0507289 10.7419015,19.8250246 L21.2012553,19.8250246 C22.1036635,19.8249545 22.8351478,20.5600559 22.8351478,21.4661389 Z"
                                        id="Path"></path>
                                    <path
                                        d="M22.8350781,1.64111425 L22.8350781,4.96603554 C22.8350781,5.87281952 22.1035937,6.60785082 21.2011856,6.60785082 L1.63389252,6.60785082 C0.731484331,6.60792092 0,5.87288962 0,4.96610565 L0,1.64111425 C0,0.735031306 0.731484331,0 1.63389252,0 L21.2011158,0 C22.1035937,7.01031288e-05 22.8350781,0.735101409 22.8350781,1.64111425 Z"
                                        id="Path"></path>
                                </g>
                                <path
                                    d="M22.8352176,1.64111425 L22.8352176,3.93390718 C22.8352176,4.78173442 22.195474,5.47989148 21.3744814,5.56688946 C21.3172743,5.57277812 21.2599973,5.57572246 21.2013251,5.57572246 L5.65534709,5.57572246 C4.75363656,5.57572246 4.02215223,4.84069115 4.02215223,3.93390718 L4.02215223,1.64111425 C4.02215223,0.735031306 4.75363656,0 5.65534709,0 L21.2013251,0 C22.1037333,7.01031288e-05 22.8352176,0.735101409 22.8352176,1.64111425 Z"
                                    fill="#F4B74A" id="Path"></path>
                                <g fill="#F9C662" id="Group"
                                    transform="translate(14.793913, 0.000070)">
                                    <rect height="5.57572246" id="Rectangle" width="2.3962129"
                                        x="2.95893609" y="0"></rect>
                                    <rect height="5.57572246" id="Rectangle" width="1.19807157"
                                        x="0" y="0"></rect>
                                    <rect height="6.60862196" id="Rectangle" width="2.39649196"
                                        x="5.84524698" y="6.60883227"></rect>
                                    <rect height="6.60862196" id="Rectangle" width="1.19828086"
                                        x="2.88561325" y="6.60883227"></rect>
                                </g>
                                <g fill="#DD9F3A" id="Group"
                                    transform="translate(9.641361, 10.096827)">
                                    <path
                                        d="M16.1285144,0.403780181 L16.1285144,1.47797042 C16.1285144,2.3847544 15.3970301,3.1197857 14.4946219,3.1197857 L5.29347688,3.1197857 C8.27885384,0.291615174 12.4094904,-0.613626528 16.1285144,0.403780181 Z"
                                        id="Path"></path>
                                    <path
                                        d="M13.1937867,4.76160098 L13.1937867,8.08652228 C13.1937867,8.99330625 12.4623024,9.72833755 11.5598942,9.72833755 L0,9.72833755 C0.354335614,7.39719821 1.42557471,5.15523005 3.21204292,3.36009923 C3.29345849,3.27828888 3.37564147,3.19865172 3.45859186,3.12048673 L11.5598942,3.12048673 C12.4623024,3.12048673 13.1937867,3.85551804 13.1937867,4.76160098 Z"
                                        id="Path"></path>
                                </g>
                                <path
                                    d="M32.3758383,29.6816648 C28.9414549,33.1320707 23.8644583,33.9252876 19.6747309,32.0601938 C18.687977,31.6214183 17.7513143,31.0351459 16.8962764,30.3014465 C16.6673082,30.1055083 16.445177,29.8984937 16.2288362,29.6816648 C11.7703049,25.2009532 11.7703049,17.9370773 16.2288362,13.4563657 C20.6879256,8.97621493 27.9167489,8.97621493 32.3758383,13.4563657 C32.5921791,13.6737555 32.7975668,13.8969638 32.9926293,14.1270423 C33.7227881,14.9855953 34.3062314,15.9273608 34.7428895,16.9189695 C36.598983,21.1284521 35.8095939,26.230698 32.3758383,29.6816648 Z"
                                    fill="#F4B74A" id="Path"></path>
                                <path
                                    d="M34.7428198,16.9189695 L19.6747309,32.0601938 C18.687977,31.6214183 17.7513143,31.0351459 16.8962764,30.3014465 L32.9926293,14.1270423 C33.7227183,14.9855953 34.3061616,15.9274309 34.7428198,16.9189695 Z"
                                    fill="#F9C662" id="Path"></path>
                                <path
                                    d="M32.3757686,21.5690503 C32.3757686,26.0494814 28.7611127,29.6815946 24.3023722,29.6815946 C21.7854661,29.6815946 19.5379221,28.5246827 18.0570238,26.710624 C16.9142758,25.3110852 16.2289758,23.520441 16.2289758,21.5690503 C16.2289758,17.0886191 19.8436316,13.4565059 24.3023722,13.4565059 C26.2447648,13.4565059 28.0268378,14.1461104 29.4195533,15.2944697 C31.2243697,16.7819179 32.3757686,19.0405005 32.3757686,21.5690503 Z"
                                    fill="#FFD488" id="Path"></path>
                                <path
                                    d="M29.4195533,15.2943996 L18.0580005,26.7110447 L18.0569541,26.7105539 C17.7234084,26.3022032 17.4288612,25.860203 17.1793822,25.3907924 C16.8949509,24.8573076 16.6687733,24.2887713 16.5083142,23.6921936 C16.3261582,23.0153479 16.228906,22.3033104 16.228906,21.5689802 C16.228906,17.088549 19.8435618,13.4564358 24.3023024,13.4564358 C25.0336472,13.4564358 25.7421789,13.5540193 26.4152701,13.7371988 C27.0089688,13.898436 27.5747617,14.1262712 28.1056721,14.4120816 C28.5728872,14.6628405 29.0126848,14.9593067 29.4195533,15.2943996 Z"
                                    fill="#F9C662" id="Path"></path>
                                <path
                                    d="M28.1057419,14.4120816 L17.1794519,25.3908625 C16.8950207,24.8573777 16.6688431,24.2888414 16.5083839,23.6922637 L26.4154096,13.7371988 C27.0089688,13.898436 27.5748314,14.1262712 28.1057419,14.4120816 Z"
                                    fill="#FFD488" id="Path"></path>
                            </g>
                            <g fill="#DD9F3A" id="Group-17"
                                transform="translate(20.411215, 17.791667)">
                                <path
                                    d="M0,0 L4.04864356,0 C5.33539032,-2.36371545e-16 6.37850467,1.04311435 6.37850467,2.32986111 C6.37850467,3.61660787 5.33539032,4.65972222 4.04864356,4.65972222 L0,4.65972222 L0,4.65972222 L0,0 Z"
                                    id="Rectangle"></path>
                                <path
                                    d="M0,3.72777778 L4.85837227,3.72777778 C6.40246839,3.72777778 7.65420561,4.979515 7.65420561,6.52361111 C7.65420561,8.06770722 6.40246839,9.31944444 4.85837227,9.31944444 L2,9.31944444 C0.8954305,9.31944444 1.3527075e-16,8.42401394 0,7.31944444 L0,3.72777778 L0,3.72777778 Z"
                                    id="Rectangle-Copy-4"></path>
                            </g>
                        </g>
                        <g id="Group-23" transform="translate(18.710280, 11.013889)">
                            <path
                                d="M16.5546409,16.6326707 C13.6376395,19.5628856 9.32548083,20.2365153 5.76692632,18.6526073 C4.92882466,18.2799827 4.13326804,17.782098 3.40703968,17.1590128 C3.21256501,16.9926146 3.02389733,16.8168101 2.84014781,16.6326707 C-0.946715936,12.8274815 -0.946715936,6.65872405 2.84014781,2.85353476 C6.62748559,-0.951178254 12.7673032,-0.951178254 16.5546409,2.85353476 C16.7383905,3.03815038 16.912837,3.22770734 17.0785137,3.42309866 C17.6986758,4.15221426 18.1942247,4.95199699 18.5651013,5.79410855 C20.1415786,9.36895994 19.4711091,13.7019796 16.5546409,16.6326707 Z"
                                fill="#DD9F3A" fill-rule="nonzero" id="Path-Copy"></path>
                            <path
                                d="M18.4216284,16.6326707 C15.5046269,19.5628856 11.1924683,20.2365153 7.63391377,18.6526073 C6.79581211,18.2799827 6.00025549,17.782098 5.27402713,17.1590128 C5.07955247,16.9926146 4.89088478,16.8168101 4.70713526,16.6326707 C0.920271518,12.8274815 0.920271518,6.65872405 4.70713526,2.85353476 C8.49447305,-0.951178254 14.6342906,-0.951178254 18.4216284,2.85353476 C18.6053779,3.03815038 18.7798244,3.22770734 18.9455012,3.42309866 C19.5656632,4.15221426 20.0612122,4.95199699 20.4320887,5.79410855 C22.008566,9.36895994 21.3380965,13.7019796 18.4216284,16.6326707 Z"
                                fill="#F4B74A" fill-rule="nonzero" id="Path"></path>
                            <path
                                d="M20.4320295,5.79410855 L7.63391377,18.6526073 C6.79581211,18.2799827 6.00025549,17.782098 5.27402713,17.1590128 L18.9455012,3.42309866 C19.565604,4.15221426 20.0611529,4.95205653 20.4320295,5.79410855 Z"
                                fill="#F9C662" fill-rule="nonzero" id="Path"></path>
                            <path
                                d="M18.4215691,9.74313252 C18.4215691,13.5480837 15.351453,16.6326112 11.5644115,16.6326112 C9.42667153,16.6326112 7.51771486,15.650118 6.25991057,14.1095509 C5.2893149,12.9210097 4.70725377,11.4003271 4.70725377,9.74313252 C4.70725377,5.93818137 7.77736994,2.85365383 11.5644115,2.85365383 C13.2141871,2.85365383 14.7277949,3.43929196 15.9107009,4.41452204 C17.4436259,5.67771915 18.4215691,7.59579269 18.4215691,9.74313252 Z"
                                fill="#FFD488" fill-rule="nonzero" id="Path"></path>
                            <path
                                d="M15.9107009,4.41446251 L6.26074014,14.1099081 L6.25985132,14.1094914 C5.97655352,13.7627045 5.72637923,13.3873413 5.51448362,12.9887001 C5.27290129,12.5356447 5.08079682,12.0528222 4.94451049,11.5461859 C4.78979588,10.971383 4.70719452,10.366694 4.70719452,9.74307299 C4.70719452,5.93812184 7.77731069,2.8535943 11.5643522,2.8535943 C12.1855216,2.8535943 12.7873146,2.93646593 13.3590061,3.09202885 C13.8632655,3.22895756 14.343823,3.42244378 14.7947529,3.6651648 C15.1915832,3.87811871 15.5651262,4.12988893 15.9107009,4.41446251 Z"
                                fill="#F9C662" fill-rule="nonzero" id="Path"></path>
                            <path
                                d="M14.7948122,3.6651648 L5.51454287,12.9887597 C5.27296054,12.5357042 5.08085607,12.0528817 4.94456975,11.5462455 L13.3591246,3.09202885 C13.8632655,3.22895756 14.3438822,3.42244378 14.7948122,3.6651648 Z"
                                fill="#FFD488" fill-rule="nonzero" id="Path"></path>
                            <g fill="#DD9F3A" id="Group-17-Copy"
                                transform="translate(8.192770, 5.923667)">
                                <path
                                    d="M0,0 L3.84673619,0 C4.94445714,-2.01648067e-16 5.83433579,0.889878653 5.83433579,1.9875996 C5.83433579,3.08532055 4.94445714,3.9751992 3.84673619,3.9751992 L0,3.9751992 L0,3.9751992 L0,0 Z"
                                    id="Rectangle"></path>
                                <path
                                    d="M0,3.18015936 L4.61608343,3.18015936 C5.93334857,3.18015936 7.00120295,4.24801374 7.00120295,5.56527888 C7.00120295,6.88254402 5.93334857,7.9503984 4.61608343,7.9503984 L2,7.9503984 C0.8954305,7.9503984 1.3527075e-16,7.0549679 0,5.9503984 L0,3.18015936 L0,3.18015936 Z"
                                    id="Rectangle-Copy-4"></path>
                            </g>
                        </g>
                        <g id="Group-23" transform="translate(34.869159, 8.472222)">
                            <path
                                d="M16.5546409,16.6326707 C13.6376395,19.5628856 9.32548083,20.2365153 5.76692632,18.6526073 C4.92882466,18.2799827 4.13326804,17.782098 3.40703968,17.1590128 C3.21256501,16.9926146 3.02389733,16.8168101 2.84014781,16.6326707 C-0.946715936,12.8274815 -0.946715936,6.65872405 2.84014781,2.85353476 C6.62748559,-0.951178254 12.7673032,-0.951178254 16.5546409,2.85353476 C16.7383905,3.03815038 16.912837,3.22770734 17.0785137,3.42309866 C17.6986758,4.15221426 18.1942247,4.95199699 18.5651013,5.79410855 C20.1415786,9.36895994 19.4711091,13.7019796 16.5546409,16.6326707 Z"
                                fill="#DD9F3A" fill-rule="nonzero" id="Path-Copy"></path>
                            <path
                                d="M18.4216284,16.6326707 C15.5046269,19.5628856 11.1924683,20.2365153 7.63391377,18.6526073 C6.79581211,18.2799827 6.00025549,17.782098 5.27402713,17.1590128 C5.07955247,16.9926146 4.89088478,16.8168101 4.70713526,16.6326707 C0.920271518,12.8274815 0.920271518,6.65872405 4.70713526,2.85353476 C8.49447305,-0.951178254 14.6342906,-0.951178254 18.4216284,2.85353476 C18.6053779,3.03815038 18.7798244,3.22770734 18.9455012,3.42309866 C19.5656632,4.15221426 20.0612122,4.95199699 20.4320887,5.79410855 C22.008566,9.36895994 21.3380965,13.7019796 18.4216284,16.6326707 Z"
                                fill="#F4B74A" fill-rule="nonzero" id="Path"></path>
                            <path
                                d="M20.4320295,5.79410855 L7.63391377,18.6526073 C6.79581211,18.2799827 6.00025549,17.782098 5.27402713,17.1590128 L18.9455012,3.42309866 C19.565604,4.15221426 20.0611529,4.95205653 20.4320295,5.79410855 Z"
                                fill="#F9C662" fill-rule="nonzero" id="Path"></path>
                            <path
                                d="M18.4215691,9.74313252 C18.4215691,13.5480837 15.351453,16.6326112 11.5644115,16.6326112 C9.42667153,16.6326112 7.51771486,15.650118 6.25991057,14.1095509 C5.2893149,12.9210097 4.70725377,11.4003271 4.70725377,9.74313252 C4.70725377,5.93818137 7.77736994,2.85365383 11.5644115,2.85365383 C13.2141871,2.85365383 14.7277949,3.43929196 15.9107009,4.41452204 C17.4436259,5.67771915 18.4215691,7.59579269 18.4215691,9.74313252 Z"
                                fill="#FFD488" fill-rule="nonzero" id="Path"></path>
                            <path
                                d="M15.9107009,4.41446251 L6.26074014,14.1099081 L6.25985132,14.1094914 C5.97655352,13.7627045 5.72637923,13.3873413 5.51448362,12.9887001 C5.27290129,12.5356447 5.08079682,12.0528222 4.94451049,11.5461859 C4.78979588,10.971383 4.70719452,10.366694 4.70719452,9.74307299 C4.70719452,5.93812184 7.77731069,2.8535943 11.5643522,2.8535943 C12.1855216,2.8535943 12.7873146,2.93646593 13.3590061,3.09202885 C13.8632655,3.22895756 14.343823,3.42244378 14.7947529,3.6651648 C15.1915832,3.87811871 15.5651262,4.12988893 15.9107009,4.41446251 Z"
                                fill="#F9C662" fill-rule="nonzero" id="Path"></path>
                            <path
                                d="M14.7948122,3.6651648 L5.51454287,12.9887597 C5.27296054,12.5357042 5.08085607,12.0528817 4.94456975,11.5462455 L13.3591246,3.09202885 C13.8632655,3.22895756 14.3438822,3.42244378 14.7948122,3.6651648 Z"
                                fill="#FFD488" fill-rule="nonzero" id="Path"></path>
                            <g fill="#DD9F3A" id="Group-17-Copy"
                                transform="translate(8.192770, 5.923667)">
                                <path
                                    d="M0,0 L3.84673619,0 C4.94445714,2.42441143e-16 5.83433579,0.889878653 5.83433579,1.9875996 C5.83433579,3.08532055 4.94445714,3.9751992 3.84673619,3.9751992 L0,3.9751992 L0,3.9751992 L0,0 Z"
                                    id="Rectangle"></path>
                                <path
                                    d="M0,3.18015936 L4.61608343,3.18015936 C5.93334857,3.18015936 7.00120295,4.24801374 7.00120295,5.56527888 C7.00120295,6.88254402 5.93334857,7.9503984 4.61608343,7.9503984 L2,7.9503984 C0.8954305,7.9503984 -3.0881846e-16,7.0549679 0,5.9503984 L0,3.18015936 L0,3.18015936 Z"
                                    id="Rectangle-Copy-4"></path>
                            </g>
                        </g>
                        <g id="Group-23" transform="translate(56.130841, 13.555556)">
                            <path
                                d="M16.5546409,16.6326707 C13.6376395,19.5628856 9.32548083,20.2365153 5.76692632,18.6526073 C4.92882466,18.2799827 4.13326804,17.782098 3.40703968,17.1590128 C3.21256501,16.9926146 3.02389733,16.8168101 2.84014781,16.6326707 C-0.946715936,12.8274815 -0.946715936,6.65872405 2.84014781,2.85353476 C6.62748559,-0.951178254 12.7673032,-0.951178254 16.5546409,2.85353476 C16.7383905,3.03815038 16.912837,3.22770734 17.0785137,3.42309866 C17.6986758,4.15221426 18.1942247,4.95199699 18.5651013,5.79410855 C20.1415786,9.36895994 19.4711091,13.7019796 16.5546409,16.6326707 Z"
                                fill="#DD9F3A" fill-rule="nonzero" id="Path-Copy"></path>
                            <path
                                d="M18.4216284,16.6326707 C15.5046269,19.5628856 11.1924683,20.2365153 7.63391377,18.6526073 C6.79581211,18.2799827 6.00025549,17.782098 5.27402713,17.1590128 C5.07955247,16.9926146 4.89088478,16.8168101 4.70713526,16.6326707 C0.920271518,12.8274815 0.920271518,6.65872405 4.70713526,2.85353476 C8.49447305,-0.951178254 14.6342906,-0.951178254 18.4216284,2.85353476 C18.6053779,3.03815038 18.7798244,3.22770734 18.9455012,3.42309866 C19.5656632,4.15221426 20.0612122,4.95199699 20.4320887,5.79410855 C22.008566,9.36895994 21.3380965,13.7019796 18.4216284,16.6326707 Z"
                                fill="#F4B74A" fill-rule="nonzero" id="Path"></path>
                            <path
                                d="M20.4320295,5.79410855 L7.63391377,18.6526073 C6.79581211,18.2799827 6.00025549,17.782098 5.27402713,17.1590128 L18.9455012,3.42309866 C19.565604,4.15221426 20.0611529,4.95205653 20.4320295,5.79410855 Z"
                                fill="#F9C662" fill-rule="nonzero" id="Path"></path>
                            <path
                                d="M18.4215691,9.74313252 C18.4215691,13.5480837 15.351453,16.6326112 11.5644115,16.6326112 C9.42667153,16.6326112 7.51771486,15.650118 6.25991057,14.1095509 C5.2893149,12.9210097 4.70725377,11.4003271 4.70725377,9.74313252 C4.70725377,5.93818137 7.77736994,2.85365383 11.5644115,2.85365383 C13.2141871,2.85365383 14.7277949,3.43929196 15.9107009,4.41452204 C17.4436259,5.67771915 18.4215691,7.59579269 18.4215691,9.74313252 Z"
                                fill="#FFD488" fill-rule="nonzero" id="Path"></path>
                            <path
                                d="M15.9107009,4.41446251 L6.26074014,14.1099081 L6.25985132,14.1094914 C5.97655352,13.7627045 5.72637923,13.3873413 5.51448362,12.9887001 C5.27290129,12.5356447 5.08079682,12.0528222 4.94451049,11.5461859 C4.78979588,10.971383 4.70719452,10.366694 4.70719452,9.74307299 C4.70719452,5.93812184 7.77731069,2.8535943 11.5643522,2.8535943 C12.1855216,2.8535943 12.7873146,2.93646593 13.3590061,3.09202885 C13.8632655,3.22895756 14.343823,3.42244378 14.7947529,3.6651648 C15.1915832,3.87811871 15.5651262,4.12988893 15.9107009,4.41446251 Z"
                                fill="#F9C662" fill-rule="nonzero" id="Path"></path>
                            <path
                                d="M14.7948122,3.6651648 L5.51454287,12.9887597 C5.27296054,12.5357042 5.08085607,12.0528817 4.94456975,11.5462455 L13.3591246,3.09202885 C13.8632655,3.22895756 14.3438822,3.42244378 14.7948122,3.6651648 Z"
                                fill="#FFD488" fill-rule="nonzero" id="Path"></path>
                            <g fill="#DD9F3A" id="Group-17-Copy"
                                transform="translate(8.192770, 5.923667)">
                                <path
                                    d="M0,0 L3.84673619,0 C4.94445714,-2.01648067e-16 5.83433579,0.889878653 5.83433579,1.9875996 C5.83433579,3.08532055 4.94445714,3.9751992 3.84673619,3.9751992 L0,3.9751992 L0,3.9751992 L0,0 Z"
                                    id="Rectangle"></path>
                                <path
                                    d="M0,3.18015936 L4.61608343,3.18015936 C5.93334857,3.18015936 7.00120295,4.24801374 7.00120295,5.56527888 C7.00120295,6.88254402 5.93334857,7.9503984 4.61608343,7.9503984 L2,7.9503984 C0.8954305,7.9503984 1.3527075e-16,7.0549679 0,5.9503984 L0,3.18015936 L0,3.18015936 Z"
                                    id="Rectangle-Copy-4"></path>
                            </g>
                        </g>
                        <g fill-rule="nonzero" id="sport-bag-2">
                            <g id="sport-bag">
                                <path
                                    d="M51.9471266,7.70723468 L39.0524031,7.70723468 C35.7808708,7.70723468 33.1287028,5.05999977 33.1287028,1.79455254 L57.8705917,1.79455254 C57.8705917,5.05999977 55.2186589,7.70723468 51.9471266,7.70723468 Z"
                                    fill="#8F7855" id="Path"></path>
                                <path
                                    d="M67.6811912,18.6989277 C66.7069974,18.6989277 65.9176253,17.9107891 65.9176253,16.938642 L65.9176253,12.5707866 C65.9176253,7.58049411 61.8510775,3.52057129 56.8526615,3.52057129 L34.1473385,3.52057129 C29.1489225,3.52057129 25.0826098,7.58049411 25.0826098,12.5707866 L25.0826098,16.938642 C25.0826098,17.9107891 24.2932377,18.6989277 23.3190439,18.6989277 C22.3448501,18.6989277 21.555478,17.9107891 21.555478,16.938642 L21.555478,12.5707866 C21.555478,5.6392511 27.204062,0 34.1473385,0 L56.8526615,0 C63.795938,0 69.4447571,5.6392511 69.4447571,12.5707866 L69.4447571,16.938642 C69.4447571,17.9107891 68.6551499,18.6989277 67.6811912,18.6989277 Z"
                                    fill="#F5DC60" id="Path"></path>
                                <path
                                    d="M91,22.2570517 L91,54.5078318 C91,58.0941205 88.0889406,60.9997653 84.495969,60.9997653 L6.50167959,60.9997653 C2.91105943,60.9997653 0,58.0941205 0,54.5078318 L0,22.2570517 C0,18.6707631 2.91105943,15.7651183 6.50167959,15.7651183 L84.495969,15.7651183 C88.0889406,15.7651183 91,18.6707631 91,22.2570517 Z"
                                    fill="#7EBA61" id="Path"></path>
                                <path
                                    d="M84.495969,52.1988065 L6.50167959,52.1988065 C2.91105943,52.1988065 0,49.2931616 0,45.706873 L0,54.5078318 C0,58.0941205 2.91105943,60.9997653 6.50167959,60.9997653 L84.495969,60.9997653 C88.0889406,60.9997653 91,58.0941205 91,54.5078318 L91,45.706873 C91,49.2931616 88.0889406,52.1988065 84.495969,52.1988065 Z"
                                    fill="#709F59" id="Path"></path>
                                <path
                                    d="M91,22.2570517 L91,54.5078318 C91,58.0941205 88.0889406,60.9997653 84.495969,60.9997653 L80.6537468,60.9997653 L80.6537468,15.7651183 L84.495969,15.7651183 C88.0889406,15.7651183 91,18.6707631 91,22.2570517 L91,22.2570517 Z"
                                    fill="#BAD450" id="Path"></path>
                                <path
                                    d="M10.3462532,15.7651183 L10.3462532,60.9997653 L6.50403101,60.9997653 C2.91105943,60.9997653 0,58.0941205 0,54.5078318 L0,22.2570517 C0,18.6707631 2.91105943,15.7651183 6.50403101,15.7651183 L10.3462532,15.7651183 Z"
                                    fill="#BAD450" id="Path"></path>
                                <path
                                    d="M6.50167959,52.1983371 L10.3462532,52.1983371 L10.3462532,60.9997653 L6.50403101,60.9997653 C2.91105943,60.9997653 0,58.0941205 0,54.5078318 L0,45.7064036 C0,49.2926922 2.91105943,52.1983371 6.50167959,52.1983371 Z"
                                    fill="#AAC249" id="Path"></path>
                                <path
                                    d="M91,45.7064036 L91,54.5078318 C91,58.0941205 88.0889406,60.9997653 84.495969,60.9997653 L80.6537468,60.9997653 L80.6537468,52.1983371 L84.495969,52.1983371 C88.0889406,52.1983371 91,49.2926922 91,45.7064036 Z"
                                    fill="#AAC249" id="Path"></path>
                                <g fill="#BAD450" id="Group"
                                    transform="translate(23.396406, 21.280211)">
                                    <path
                                        d="M1.76356589,8.68407586 C0.789372093,8.68407586 0,7.8959373 0,6.92379021 L0,1.76028565 C0,0.78813856 0.789372093,0 1.76356589,0 C2.73775969,0 3.52713178,0.78813856 3.52713178,1.76028565 L3.52713178,6.92379021 C3.52713178,7.8959373 2.73752455,8.68407586 1.76356589,8.68407586 Z"
                                        id="Path"></path>
                                    <path
                                        d="M11.9334625,8.68407586 C10.9592687,8.68407586 10.1698966,7.8959373 10.1698966,6.92379021 L10.1698966,1.76028565 C10.1698966,0.78813856 10.9592687,0 11.9334625,0 C12.9076563,0 13.6970284,0.78813856 13.6970284,1.76028565 L13.6970284,6.92379021 C13.6970284,7.8959373 12.9074212,8.68407586 11.9334625,8.68407586 Z"
                                        id="Path"></path>
                                    <path
                                        d="M22.1033592,8.68407586 C21.1291654,8.68407586 20.3397933,7.8959373 20.3397933,6.92379021 L20.3397933,1.76028565 C20.3397933,0.78813856 21.1291654,0 22.1033592,0 C23.077553,0 23.8669251,0.78813856 23.8669251,1.76028565 L23.8669251,6.92379021 C23.8669251,7.8959373 23.0773178,8.68407586 22.1033592,8.68407586 Z"
                                        id="Path"></path>
                                    <path
                                        d="M32.2732558,8.68407586 C31.299062,8.68407586 30.5096899,7.8959373 30.5096899,6.92379021 L30.5096899,1.76028565 C30.5096899,0.78813856 31.299062,0 32.2732558,0 C33.2474496,0 34.0368217,0.78813856 34.0368217,1.76028565 L34.0368217,6.92379021 C34.0368217,7.8959373 33.2472145,8.68407586 32.2732558,8.68407586 Z"
                                        id="Path"></path>
                                    <path
                                        d="M42.4431525,12.2048819 C41.4689587,12.2048819 40.6795866,11.4167433 40.6795866,10.4445962 L40.6795866,1.76028565 C40.6795866,0.78813856 41.4689587,0 42.4431525,0 C43.4173463,0 44.2067183,0.78813856 44.2067183,1.76028565 L44.2067183,10.4445962 C44.2067183,11.4167433 43.4171111,12.2048819 42.4431525,12.2048819 Z"
                                        id="Path"></path>
                                    <path
                                        d="M6.84851421,8.68407586 C5.87432041,8.68407586 5.08494832,7.8959373 5.08494832,6.92379021 L5.08494832,1.76028565 C5.08494832,0.78813856 5.87432041,0 6.84851421,0 C7.82270801,0 8.6120801,0.78813856 8.6120801,1.76028565 L8.6120801,6.92379021 C8.6120801,7.8959373 7.82247287,8.68407586 6.84851421,8.68407586 Z"
                                        id="Path"></path>
                                    <path
                                        d="M17.0184109,8.68407586 C16.0442171,8.68407586 15.254845,7.8959373 15.254845,6.92379021 L15.254845,1.76028565 C15.254845,0.78813856 16.0442171,0 17.0184109,0 C17.9926047,0 18.7819767,0.78813856 18.7819767,1.76028565 L18.7819767,6.92379021 C18.7819767,7.8959373 17.9923695,8.68407586 17.0184109,8.68407586 Z"
                                        id="Path"></path>
                                    <path
                                        d="M27.1883075,8.68407586 C26.2141137,8.68407586 25.4247416,7.8959373 25.4247416,6.92379021 L25.4247416,1.76028565 C25.4247416,0.78813856 26.2141137,0 27.1883075,0 C28.1625013,0 28.9518734,0.78813856 28.9518734,1.76028565 L28.9518734,6.92379021 C28.9518734,7.8959373 28.1622661,8.68407586 27.1883075,8.68407586 Z"
                                        id="Path"></path>
                                    <path
                                        d="M37.3582041,8.68407586 C36.3840103,8.68407586 35.5946382,7.8959373 35.5946382,6.92379021 L35.5946382,1.76028565 C35.5946382,0.78813856 36.3840103,0 37.3582041,0 C38.3323979,0 39.12177,0.78813856 39.12177,1.76028565 L39.12177,6.92379021 C39.12177,7.8959373 38.3321628,8.68407586 37.3582041,8.68407586 Z"
                                        id="Path"></path>
                                </g>
                                <polygon fill="#BAD450" id="Path"
                                    points="19.7124341 44.7117248 41.9726331 44.7117248 41.9726331 60.9997653 19.7124341 60.9997653"></polygon>
                                <path
                                    d="M68.8206899,36.8101546 C68.8206899,34.0016776 67.4860233,31.7248068 65.839323,31.7248068 C64.1928579,31.7248068 62.8579561,34.0016776 62.8579561,36.8101546 C62.8579561,39.6186317 64.1926227,39.5482203 65.839323,39.5482203 C67.4860233,39.5482203 68.8206899,39.6186317 68.8206899,36.8101546 L68.8206899,36.8101546 Z"
                                    fill="#526071" id="Path"></path>
                                <polygon fill="#BAD450" id="Path"
                                    points="49.0268966 44.7117248 71.2870956 44.7117248 71.2870956 60.9997653 49.0268966 60.9997653"></polygon>
                                <polygon fill="#AAC249" id="Path"
                                    points="19.7124341 52.1988065 41.9726331 52.1988065 41.9726331 61 19.7124341 61"></polygon>
                                <polygon fill="#AAC249" id="Path"
                                    points="49.0268966 52.1988065 71.2870956 52.1988065 71.2870956 61 49.0268966 61"></polygon>
                                <polygon fill="#8F7855" id="Path"
                                    points="19.7124341 49.6015637 41.9726331 49.6015637 41.9726331 53.122135 19.7124341 53.122135"></polygon>
                                <polygon fill="#8F7855" id="Path"
                                    points="49.0268966 49.6015637 71.2870956 49.6015637 71.2870956 53.122135 49.0268966 53.122135"></polygon>
                            </g>
                        </g>
                    </g>
                    <g id="coins-2" transform="translate(72.000000, 28.000000)">
                        <g fill-rule="nonzero" id="coins">
                            <g fill="#DD9F3A" id="Group" transform="translate(0.000000, 6.600218)">
                                <path
                                    d="M25.9722915,1.63904475 L25.9722915,4.9597732 C25.9722915,5.86541369 25.2350655,6.5995181 24.3255741,6.5995181 L4.60469159,6.5995181 C3.69520013,6.5995181 2.95797417,5.86541369 2.95797417,4.9597732 L2.95797417,1.63904475 C2.95797417,0.734104406 3.69520013,0 4.60469159,0 L24.3255037,0 C25.2350655,0 25.9722915,0.734104406 25.9722915,1.63904475 Z"
                                    id="Path"></path>
                                <path
                                    d="M23.0143173,8.23912296 L23.0143173,11.5598514 C23.0143173,12.4654919 22.2770913,13.1995963 21.3675999,13.1995963 L1.64671742,13.1995963 C0.737225966,13.1995963 0,12.4654919 0,11.5598514 L0,8.23912296 C0,7.33418262 0.737225966,6.60007821 1.64671742,6.60007821 L21.3675296,6.60007821 C22.2770913,6.60007821 23.0143173,7.33418262 23.0143173,8.23912296 Z"
                                    id="Path"></path>
                                <path
                                    d="M24.1235664,14.8390611 L24.1235664,18.1597896 C24.1235664,19.0654301 23.3863404,19.7995345 22.476849,19.7995345 L2.75596652,19.7995345 C1.84647507,19.7995345 1.1092491,19.0654301 1.1092491,18.1597896 L1.1092491,14.8390611 C1.1092491,13.9341208 1.84647507,13.2000164 2.75596652,13.2000164 L22.4767787,13.2000164 C23.3863404,13.2000164 24.1235664,13.9341208 24.1235664,14.8390611 Z"
                                    id="Path"></path>
                                <path
                                    d="M23.0143173,21.4391394 L23.0143173,24.7598678 C23.0143173,25.6655083 22.2770913,26.3996127 21.3675999,26.3996127 L1.64671742,26.3996127 C0.737225966,26.3996127 0,25.6655083 0,24.7598678 L0,21.4391394 C0,20.534199 0.737225966,19.8000946 1.64671742,19.8000946 L21.3675296,19.8000946 C22.2770913,19.8000946 23.0143173,20.534199 23.0143173,21.4391394 Z"
                                    id="Path"></path>
                            </g>
                            <path
                                d="M23.0144579,28.0394276 L23.0144579,30.3293293 C23.0144579,31.1760874 22.3696928,31.873364 21.542256,31.9602523 C21.4845998,31.9661335 21.4268733,31.9690742 21.3677405,31.9690742 L5.69973757,31.9690742 C4.79094925,31.9690742 4.05372328,31.2349697 4.05372328,30.3293293 L4.05372328,28.0394276 C4.05372328,27.1344873 4.79094925,26.4003829 5.69973757,26.4003829 L21.3677405,26.4003829 C22.277232,26.4003829 23.0144579,27.1344873 23.0144579,28.0394276 Z"
                                fill="#F4B74A" id="SVGCleanerId_0"></path>
                            <path
                                d="M23.0144579,28.0394276 L23.0144579,30.3293293 C23.0144579,31.1760874 22.3696928,31.873364 21.542256,31.9602523 C21.4845998,31.9661335 21.4268733,31.9690742 21.3677405,31.9690742 L5.69973757,31.9690742 C4.79094925,31.9690742 4.05372328,31.2349697 4.05372328,30.3293293 L4.05372328,28.0394276 C4.05372328,27.1344873 4.79094925,26.4003829 5.69973757,26.4003829 L21.3677405,26.4003829 C22.277232,26.4003829 23.0144579,27.1344873 23.0144579,28.0394276 Z"
                                fill="#F4B74A" id="SVGCleanerId_0_1_"></path>
                            <g fill="#F4B74A" id="Group" transform="translate(4.053653, 6.600358)">
                                <path
                                    d="M18.9607347,14.8388511 L18.9607347,17.1287527 C18.9607347,17.9755108 18.3159696,18.6727875 17.4885327,18.7596758 C17.4308765,18.765557 17.37315,18.7684976 17.3140172,18.7684976 L1.64601429,18.7684976 C0.737225966,18.7684976 0,18.0343932 0,17.1287527 L0,14.8388511 C0,13.9339108 0.737225966,13.1998064 1.64601429,13.1998064 L17.3140172,13.1998064 C18.223579,13.1997363 18.9607347,13.9338407 18.9607347,14.8388511 Z"
                                    id="Path"></path>
                                <path
                                    d="M18.9607347,8.239333 L18.9607347,10.5292346 C18.9607347,11.3759927 18.3159696,12.0732694 17.4885327,12.1601577 C17.4308765,12.1660389 17.37315,12.1689795 17.3140172,12.1689795 L1.64601429,12.1689795 C0.737225966,12.1689795 0,11.4348751 0,10.5292346 L0,8.239333 C0,7.33439267 0.737225966,6.60028826 1.64601429,6.60028826 L17.3140172,6.60028826 C18.223579,6.60028826 18.9607347,7.33439267 18.9607347,8.239333 Z"
                                    id="Path"></path>
                                <path
                                    d="M21.9184979,1.63904475 L21.9184979,3.92894639 C21.9184979,4.77570449 21.2737328,5.47298115 20.446296,5.55986942 C20.3886397,5.56575066 20.3309132,5.56869128 20.2717805,5.56869128 L4.60377752,5.56869128 C3.6949892,5.56869128 2.95776323,4.83458687 2.95776323,3.92894639 L2.95776323,1.63904475 C2.95776323,0.734104406 3.6949892,0 4.60377752,0 L20.2717805,0 C21.1813422,0 21.9184979,0.734104406 21.9184979,1.63904475 Z"
                                    id="Path"></path>
                            </g>
                            <g fill="#DD9F3A" id="Group" transform="translate(0.000000, 0.000140)">
                                <path
                                    d="M23.0143876,28.0393576 L23.0143876,31.3600861 C23.0143876,32.2068442 22.3696225,32.9041208 21.5421857,32.9910091 C21.3920686,32.9968903 21.2419516,32.999831 21.0918345,32.999831 C19.5005936,32.999831 17.9092824,32.6736323 16.4274476,32.0198348 C15.4328781,31.5817527 14.4893555,30.9956594 13.6271843,30.2630253 C13.3964892,30.0671941 13.1731768,29.8610008 12.9550676,29.6445152 C11.9812403,28.6748113 11.2188425,27.5747399 10.6672414,26.4003129 L21.3676702,26.4003129 C22.2771617,26.4003129 23.0143876,27.1344173 23.0143876,28.0393576 Z"
                                    id="Path"></path>
                                <path
                                    d="M23.0143876,21.4390693 L23.0143876,24.7597978 C23.0143876,25.6654383 22.2771617,26.3995427 21.3676702,26.3995427 L11.7749436,26.3995427 C10.8011163,24.3268267 10.48464,22.0229221 10.8262178,19.8000246 L21.3676702,19.8000246 C22.2771617,19.7999546 23.0143876,20.534129 23.0143876,21.4390693 Z"
                                    id="Path"></path>
                                <path
                                    d="M23.0143173,1.63904475 L23.0143173,4.9597732 C23.0143173,5.86541369 22.2770913,6.5995181 21.3675999,6.5995181 L1.64671742,6.5995181 C0.737225966,6.59958811 0,5.86548371 0,4.95984322 L0,1.63904475 C0,0.734104406 0.737225966,0 1.64671742,0 L21.3675296,0 C22.2770913,7.00147264e-05 23.0143173,0.734174421 23.0143173,1.63904475 Z"
                                    id="Path"></path>
                            </g>
                            <path
                                d="M23.0144579,1.63904475 L23.0144579,3.92894639 C23.0144579,4.77570449 22.3696928,5.47298115 21.542256,5.55986942 C21.4845998,5.56575066 21.4268733,5.56869128 21.3677405,5.56869128 L5.69973757,5.56869128 C4.79094925,5.56869128 4.05372328,4.83458687 4.05372328,3.92894639 L4.05372328,1.63904475 C4.05372328,0.734104406 4.79094925,0 5.69973757,0 L21.3677405,0 C22.277232,7.00147264e-05 23.0144579,0.734174421 23.0144579,1.63904475 Z"
                                fill="#F4B74A" id="Path"></path>
                            <g fill="#F9C662" id="Group" transform="translate(14.910035, 0.000070)">
                                <rect height="5.56869128" id="Rectangle" width="2.41502148"
                                    x="2.98216165" y="0"></rect>
                                <rect height="5.56869128" id="Rectangle" width="1.20747559" x="0"
                                    y="0"></rect>
                                <rect height="6.60028826" id="Rectangle" width="2.41530273"
                                    x="5.89112804" y="6.6004983"></rect>
                                <rect height="6.60028826" id="Rectangle" width="1.20768652"
                                    x="2.90826327" y="6.6004983"></rect>
                            </g>
                            <g fill="#DD9F3A" id="Group" transform="translate(9.717039, 10.084095)">
                                <path
                                    d="M16.2551118,0.403271 L16.2551118,1.47610665 C16.2551118,2.38174714 15.5178859,3.11585155 14.6083944,3.11585155 L5.33502693,3.11585155 C8.343837,0.291247438 12.5068961,-0.612852724 16.2551118,0.403271 Z"
                                    id="Path"></path>
                                <path
                                    d="M13.2973486,4.75559644 L13.2973486,8.0763249 C13.2973486,8.98196538 12.5601226,9.71606979 11.6506312,9.71606979 L0,9.71606979 C0.357116898,7.38787009 1.43676446,5.14872913 3.23725519,3.35586203 C3.31930981,3.27415484 3.40213787,3.19461811 3.48573937,3.11655169 L11.6506312,3.11655169 C12.5601226,3.11655169 13.2973486,3.8506561 13.2973486,4.75559644 Z"
                                    id="Path"></path>
                            </g>
                            <path
                                d="M32.6299658,29.6442352 C29.1686248,33.09029 24.0517774,33.8825066 19.8291636,32.0197648 C18.8346644,31.5815426 17.8906496,30.9960095 17.0289003,30.2632354 C16.7981348,30.0675442 16.57426,29.8607907 16.3562211,29.6442352 C11.8626935,25.1691739 11.8626935,17.914458 16.3562211,13.4393967 C20.8503112,8.96489561 28.1358757,8.96489561 32.6299658,13.4393967 C32.8480047,13.6565124 33.0550045,13.8794393 33.2515981,14.1092276 C33.9874881,14.966698 34.5755111,15.9072758 35.0155967,16.8976341 C36.8862592,21.1018084 36.0906739,26.1976202 32.6299658,29.6442352 Z"
                                fill="#F4B74A" id="Path"></path>
                            <path
                                d="M35.0155263,16.8976341 L19.8291636,32.0197648 C18.8346644,31.5815426 17.8906496,30.9960095 17.0289003,30.2632354 L33.2515981,14.1092276 C33.9874178,14.966698 34.5754408,15.9073458 35.0155263,16.8976341 Z"
                                fill="#F9C662" id="Path"></path>
                            <path
                                d="M32.6298955,21.541851 C32.6298955,26.0166322 28.9868672,29.6441651 24.4931286,29.6441651 C21.9564666,29.6441651 19.6912809,28.4887121 18.1987587,26.676941 C17.0470409,25.279167 16.3563618,23.4907809 16.3563618,21.541851 C16.3563618,17.0670698 19.9993901,13.4395368 24.4931286,13.4395368 C26.4507677,13.4395368 28.2468287,14.1282716 29.650476,15.2751829 C31.4694589,16.7607553 32.6298955,19.0164898 32.6298955,21.541851 Z"
                                fill="#FFD488" id="Path"></path>
                            <path
                                d="M29.650476,15.2751129 L18.1997431,26.6773611 L18.1986884,26.676871 C17.8625246,26.2690352 17.5656655,25.8275924 17.3142282,25.3587738 C17.0275643,24.8259617 16.7996114,24.2581423 16.6378928,23.662317 C16.454307,22.9863248 16.3562914,22.2751852 16.3562914,21.5417809 C16.3562914,17.0669998 19.9993198,13.4394668 24.4930583,13.4394668 C25.2301436,13.4394668 25.9442368,13.5369273 26.6226113,13.7198757 C27.2209702,13.8809096 27.7912041,14.1084575 28.3262818,14.3939075 C28.7971642,14.6443502 29.2404138,14.9404425 29.650476,15.2751129 Z"
                                fill="#F9C662" id="Path"></path>
                            <path
                                d="M28.3263521,14.3939075 L17.3142985,25.3588438 C17.0276347,24.8260317 16.7996817,24.2582123 16.6379631,23.662387 L26.6227519,13.7198757 C27.2209702,13.8809096 27.7912744,14.1084575 28.3263521,14.3939075 Z"
                                fill="#FFD488" id="Path"></path>
                        </g>
                        <g fill="#DD9F3A" id="Group-17" transform="translate(20.571429, 17.769231)">
                            <path
                                d="M0,0 L4.10164835,0 C5.38677248,-6.80162683e-16 6.42857143,1.04179895 6.42857143,2.32692308 C6.42857143,3.61204721 5.38677248,4.65384615 4.10164835,4.65384615 L0,4.65384615 L0,4.65384615 L0,0 Z"
                                id="Rectangle"></path>
                            <path
                                d="M0,3.72307692 L4.92197802,3.72307692 C6.46412698,3.72307692 7.71428571,4.97323566 7.71428571,6.51538462 C7.71428571,8.05753357 6.46412698,9.30769231 4.92197802,9.30769231 L2,9.30769231 C0.8954305,9.30769231 -8.67738547e-17,8.41226181 0,7.30769231 L0,3.72307692 L0,3.72307692 Z"
                                id="Rectangle-Copy-4"></path>
                        </g>
                    </g>
                </g>
                <rect fill="#709F59" height="15" id="Rectangle" rx="1" stroke="#BAD450"
                    stroke-width="2" width="30" x="32" y="28"></rect>
                <g fill="#FFFFFF" fill-rule="nonzero" id="100"
                    transform="translate(38.610000, 31.880000)">
                    <polygon id="Path"
                        points="3.69 5.66 5.2 5.66 5.2 7.12 0.34 7.12 0.34 5.66 1.85 5.66 1.85 2.07 0.66 2.75 0 1.43 2.39 0.07 3.69 0.07"></polygon>
                    <path
                        d="M8.39,7.21 C7.51666667,7.21 6.85,6.9 6.39,6.28 C5.93,5.66 5.7,4.76333333 5.7,3.59 C5.7,2.43666667 5.93166667,1.55 6.395,0.93 C6.85833333,0.31 7.52333333,0 8.39,0 C9.25666667,0 9.92166667,0.31 10.385,0.93 C10.8483333,1.55 11.08,2.43666667 11.08,3.59 C11.08,4.76333333 10.85,5.66 10.39,6.28 C9.93,6.9 9.26333333,7.21 8.39,7.21 Z M8.39,5.82 C8.71,5.82 8.94,5.64666667 9.08,5.3 C9.22,4.95333333 9.29,4.38333333 9.29,3.59 C9.29,2.81 9.22,2.24833333 9.08,1.905 C8.94,1.56166667 8.71,1.39 8.39,1.39 C8.07,1.39 7.84,1.56166667 7.7,1.905 C7.56,2.24833333 7.49,2.81 7.49,3.59 C7.49,4.38333333 7.56,4.95333333 7.7,5.3 C7.84,5.64666667 8.07,5.82 8.39,5.82 Z"
                        id="Shape"></path>
                    <path
                        d="M14.39,7.21 C13.5166667,7.21 12.85,6.9 12.39,6.28 C11.93,5.66 11.7,4.76333333 11.7,3.59 C11.7,2.43666667 11.9316667,1.55 12.395,0.93 C12.8583333,0.31 13.5233333,0 14.39,0 C15.2566667,0 15.9216667,0.31 16.385,0.93 C16.8483333,1.55 17.08,2.43666667 17.08,3.59 C17.08,4.76333333 16.85,5.66 16.39,6.28 C15.93,6.9 15.2633333,7.21 14.39,7.21 Z M14.39,5.82 C14.71,5.82 14.94,5.64666667 15.08,5.3 C15.22,4.95333333 15.29,4.38333333 15.29,3.59 C15.29,2.81 15.22,2.24833333 15.08,1.905 C14.94,1.56166667 14.71,1.39 14.39,1.39 C14.07,1.39 13.84,1.56166667 13.7,1.905 C13.56,2.24833333 13.49,2.81 13.49,3.59 C13.49,4.38333333 13.56,4.95333333 13.7,5.3 C13.84,5.64666667 14.07,5.82 14.39,5.82 Z"
                        id="Shape"></path>
                </g>
            </g>
        </g>
    </g>
</svg>