<?xml version="1.0" encoding="utf-8"?>
<svg xmlns:xlink="http://www.w3.org/1999/xlink" height="41px" version="1.1" viewBox="0 0 41 41"
    width="41px" xmlns="http://www.w3.org/2000/svg">
    <defs>
        <filter color-interpolation-filters="sRGB" filterUnits="userSpaceOnUse" id="filter_1">
            <feFlood flood-opacity="0" result="BackgroundImageFix" />
            <feColorMatrix in="SourceAlpha" type="matrix"
                values="0 0 0 0 0 0 0 0 0 0 0 0 0 0 0 0 0 0 127 0" />
            <feOffset dx="0" dy="0" />
            <feGaussianBlur stdDeviation="2" />
            <feColorMatrix type="matrix"
                values="0 0 0 0 1 0 0 0 0 0.9647059 0 0 0 0 0.8509804 0 0 0 1 0" />
            <feBlend in2="BackgroundImageFix" mode="normal" result="effect0_dropShadow" />
            <feBlend in="SourceGraphic" in2="effect0_dropShadow" mode="normal" result="shape" />
        </filter>
        <path
            d="M7.66396 2.80786L5.25212 2.44064L4.17348 0.150554C4.07914 -0.0497652 3.80563 -0.0498621 3.71121 0.150554L2.63261 2.44064L0.220772 2.80786C0.00984066 2.83999 -0.0748736 3.11251 0.0779232 3.26855L1.82314 5.05112L1.41113 7.56814C1.39453 7.66948 1.43428 7.77187 1.51368 7.83231C1.59305 7.89273 1.69826 7.9007 1.78511 7.85286L3.94235 6.66451C6.29091 7.95826 6.1296 7.8839 6.2195 7.8839C6.37837 7.8839 6.50069 7.73383 6.47357 7.56814L6.06158 5.05112L7.8068 3.26855C7.95943 3.11262 7.87506 2.84002 7.66396 2.80786Z"
            id="path_1" />
    </defs>
    <g id="Group"
        transform="matrix(0.70710677 0.70710677 -0.70710677 0.70710677 11.314453 1.4141846)">
        <g id="star-2-2-copy"
            transform="matrix(-0.9848077 -0.17364818 0.17364818 -0.9848077 17.55877 14)">
            <g id="star-2" transform="matrix(1 0 0 1 1.7991879E-12 -1.9054059E-13)">
                <g filter="url(#filter_1)" id="Path">
                    <use fill="none" stroke="#FFF6D9" stroke-width="2" xlink:href="#path_1" />
                    <use fill="#F7AC16" stroke="none" xlink:href="#path_1" />
                </g>
                <path
                    d="M3.94236 7.22408e-13C3.84405 7.22408e-13 3.75455 0.0585597 3.7112 0.150554L2.6326 2.44064L0.220772 2.80786C0.00984066 2.83999 -0.0748736 3.11251 0.0779232 3.26855L1.82314 5.05112L1.41113 7.56814C1.39453 7.66948 1.43428 7.77187 1.51368 7.83231C1.59305 7.89273 1.69826 7.9007 1.78511 7.85286L3.94235 6.66451L3.94236 6.66451L3.94236 7.22408e-13Z"
                    fill="#FFC107" id="Path" stroke="none" />
                <path
                    d="M0.220772 2.80786C0.00984066 2.83999 -0.0748736 3.11251 0.0779232 3.26855L1.82314 5.05112L1.41113 7.56814C1.39453 7.66948 1.43428 7.77187 1.51368 7.83231C1.59305 7.89273 1.69826 7.9007 1.78511 7.85286L3.94235 6.66451C6.29091 7.95826 6.1296 7.8839 6.2195 7.8839C6.27294 7.8839 6.32613 7.86649 6.37102 7.83231L2.6326 2.44063L0.220772 2.80786Z"
                    fill="#F7AC16" id="Path" stroke="none" />
                <path
                    d="M0.0779232 3.26855L1.82314 5.05112L1.41113 7.56814C1.39453 7.66948 1.43428 7.77187 1.51368 7.83231C1.59305 7.89273 1.69826 7.9007 1.78511 7.85286L3.94235 6.66451C6.29091 7.95826 6.1296 7.8839 6.2195 7.8839C6.37837 7.8839 6.50069 7.73383 6.47357 7.56814L6.06158 5.05112L0.0126742 2.99168C-0.0174632 3.10487 0.012705 3.20197 0.0779232 3.26855Z"
                    fill="#FFC107" id="Path" stroke="none" />
                <path
                    d="M1.41113 7.56814C1.39453 7.66948 1.43428 7.77187 1.51368 7.83231C1.59305 7.89273 1.69826 7.9007 1.78511 7.85286L3.94235 6.66451C6.29091 7.95826 6.1296 7.8839 6.2195 7.8839C6.37837 7.8839 6.50069 7.73383 6.47357 7.56814L6.06158 5.05112L7.8068 3.26855C7.87704 3.19679 7.90231 3.08945 7.87202 2.99169L1.82314 5.05112L1.41113 7.56814Z"
                    fill="#F7AC16" id="Path" stroke="none" />
                <path
                    d="M1.78513 7.85286L3.94235 6.66451C6.29091 7.95826 6.1296 7.8839 6.2195 7.8839C6.37837 7.8839 6.50069 7.73383 6.47357 7.56814L6.06158 5.05112L7.8068 3.26855C7.95942 3.11262 7.87504 2.84002 7.66394 2.80786L5.2521 2.44064L1.51368 7.83231C1.59305 7.89273 1.69826 7.9007 1.78513 7.85286Z"
                    fill="#FFC107" id="Path" stroke="none" />
                <path
                    d="M7.87204 2.99168L3.94235 4.32959L1.51368 7.83231C1.59305 7.89273 1.69826 7.9007 1.78511 7.85286L3.94235 6.66451C6.29091 7.95826 6.1296 7.8839 6.2195 7.8839C6.37837 7.8839 6.50069 7.73383 6.47357 7.56814L6.06158 5.05112L7.8068 3.26855C7.87706 3.19677 7.90233 3.08945 7.87204 2.99168Z"
                    fill="#F7AC16" id="Path" stroke="none" />
                <path
                    d="M6.06159 5.05112L3.94235 4.32959L1.51368 7.83231C1.59305 7.89273 1.69826 7.9007 1.78511 7.85286L3.94235 6.66451C6.29091 7.95826 6.1296 7.8839 6.2195 7.8839C6.37837 7.8839 6.50069 7.73383 6.47357 7.56814L6.06159 5.05112Z"
                    fill="#FFC107" id="Path" stroke="none" />
                <path
                    d="M1.51368 7.83231C1.59305 7.89273 1.69826 7.9007 1.78511 7.85286L3.94235 6.66451C6.29091 7.95826 6.1296 7.8839 6.2195 7.8839C6.27294 7.8839 6.32613 7.86649 6.37102 7.83231L3.94235 4.32959L1.51368 7.83231Z"
                    fill="#F7AC16" id="Path" stroke="none" />
                <path
                    d="M3.94236 4.32963L3.94235 4.32959L1.51368 7.83231C1.59305 7.89273 1.69826 7.9007 1.78511 7.85286L3.94235 6.66451L3.94236 6.66451L3.94236 4.32963Z"
                    fill="#FFC107" id="Path" stroke="none" />
            </g>
        </g>
        <g id="star-2-2-copy-5"
            transform="matrix(-0.81915206 -0.57357645 0.57357645 -0.81915206 6.4587636 10.981237)">
            <g id="star-2" transform="matrix(1 0 0 1 -7.6692835E-13 1.4256755E-12)">
                <g filter="url(#filter_1)" id="Path">
                    <use fill="none" stroke="#FFF6D9" stroke-width="2" xlink:href="#path_1" />
                    <use fill="#F7AC16" stroke="none" xlink:href="#path_1" />
                </g>
                <path
                    d="M3.94236 -1.56163e-12C3.84405 -1.56163e-12 3.75455 0.0585597 3.7112 0.150554L2.6326 2.44064L0.220772 2.80786C0.00984066 2.83999 -0.0748736 3.11251 0.0779232 3.26855L1.82314 5.05112L1.41113 7.56814C1.39453 7.66948 1.43428 7.77187 1.51368 7.83231C1.59305 7.89273 1.69826 7.9007 1.78511 7.85286L3.94235 6.66451L3.94236 6.66451L3.94236 -1.56163e-12Z"
                    fill="#FFC107" id="Path" stroke="none" />
                <path
                    d="M0.220772 2.80786C0.00984066 2.83999 -0.0748736 3.11251 0.0779232 3.26855L1.82314 5.05112L1.41113 7.56814C1.39453 7.66948 1.43428 7.77187 1.51368 7.83231C1.59305 7.89273 1.69826 7.9007 1.78511 7.85286L3.94235 6.66451C6.29091 7.95826 6.1296 7.8839 6.2195 7.8839C6.27294 7.8839 6.32613 7.86649 6.37102 7.83231L2.6326 2.44063L0.220772 2.80786Z"
                    fill="#F7AC16" id="Path" stroke="none" />
                <path
                    d="M0.0779232 3.26855L1.82314 5.05112L1.41113 7.56814C1.39453 7.66948 1.43428 7.77187 1.51368 7.83231C1.59305 7.89273 1.69826 7.9007 1.78511 7.85286L3.94235 6.66451C6.29091 7.95826 6.1296 7.8839 6.2195 7.8839C6.37837 7.8839 6.50069 7.73383 6.47357 7.56814L6.06158 5.05112L0.0126742 2.99168C-0.0174632 3.10487 0.012705 3.20197 0.0779232 3.26855Z"
                    fill="#FFC107" id="Path" stroke="none" />
                <path
                    d="M1.41113 7.56814C1.39453 7.66948 1.43428 7.77187 1.51368 7.83231C1.59305 7.89273 1.69826 7.9007 1.78511 7.85286L3.94235 6.66451C6.29091 7.95826 6.1296 7.8839 6.2195 7.8839C6.37837 7.8839 6.50069 7.73383 6.47357 7.56814L6.06158 5.05112L7.8068 3.26855C7.87704 3.19679 7.90231 3.08945 7.87202 2.99169L1.82314 5.05112L1.41113 7.56814Z"
                    fill="#F7AC16" id="Path" stroke="none" />
                <path
                    d="M1.78513 7.85286L3.94235 6.66451C6.29091 7.95826 6.1296 7.8839 6.2195 7.8839C6.37837 7.8839 6.50069 7.73383 6.47357 7.56814L6.06158 5.05112L7.8068 3.26855C7.95942 3.11262 7.87504 2.84002 7.66394 2.80786L5.2521 2.44064L1.51368 7.83231C1.59305 7.89273 1.69826 7.9007 1.78513 7.85286Z"
                    fill="#FFC107" id="Path" stroke="none" />
                <path
                    d="M7.87204 2.99168L3.94235 4.32959L1.51368 7.83231C1.59305 7.89273 1.69826 7.9007 1.78511 7.85286L3.94235 6.66451C6.29091 7.95826 6.1296 7.8839 6.2195 7.8839C6.37837 7.8839 6.50069 7.73383 6.47357 7.56814L6.06158 5.05112L7.8068 3.26855C7.87706 3.19677 7.90233 3.08945 7.87204 2.99168Z"
                    fill="#F7AC16" id="Path" stroke="none" />
                <path
                    d="M6.06159 5.05112L3.94235 4.32959L1.51368 7.83231C1.59305 7.89273 1.69826 7.9007 1.78511 7.85286L3.94235 6.66451C6.29091 7.95826 6.1296 7.8839 6.2195 7.8839C6.37837 7.8839 6.50069 7.73383 6.47357 7.56814L6.06159 5.05112Z"
                    fill="#FFC107" id="Path" stroke="none" />
                <path
                    d="M1.51368 7.83231C1.59305 7.89273 1.69826 7.9007 1.78511 7.85286L3.94235 6.66451C6.29091 7.95826 6.1296 7.8839 6.2195 7.8839C6.27294 7.8839 6.32613 7.86649 6.37102 7.83231L3.94235 4.32959L1.51368 7.83231Z"
                    fill="#F7AC16" id="Path" stroke="none" />
                <path
                    d="M3.94236 4.32963L3.94235 4.32959L1.51368 7.83231C1.59305 7.89273 1.69826 7.9007 1.78511 7.85286L3.94235 6.66451L3.94236 6.66451L3.94236 4.32963Z"
                    fill="#FFC107" id="Path" stroke="none" />
            </g>
        </g>
        <g id="star-2-2-copy-4"
            transform="matrix(0.9848077 -0.17364818 -0.17364818 -0.9848077 21.018894 14)">
            <g id="star-2" transform="matrix(1 0 0 1 8.0350787E-13 -1.3699868E-13)">
                <g filter="url(#filter_1)" id="Path">
                    <use fill="none" stroke="#FFF6D9" stroke-width="2" xlink:href="#path_1" />
                    <use fill="#F7AC16" stroke="none" xlink:href="#path_1" />
                </g>
                <path
                    d="M3.94236 -3.19476e-14C3.84405 -3.19476e-14 3.75455 0.0585597 3.7112 0.150554L2.6326 2.44064L0.220772 2.80786C0.00984066 2.83999 -0.0748736 3.11251 0.0779232 3.26855L1.82314 5.05112L1.41113 7.56814C1.39453 7.66948 1.43428 7.77187 1.51368 7.83231C1.59305 7.89273 1.69826 7.9007 1.78511 7.85286L3.94235 6.66451L3.94236 6.66451L3.94236 -3.19476e-14Z"
                    fill="#FFC107" id="Path" stroke="none" />
                <path
                    d="M0.220772 2.80786C0.00984066 2.83999 -0.0748736 3.11251 0.0779232 3.26855L1.82314 5.05112L1.41113 7.56814C1.39453 7.66948 1.43428 7.77187 1.51368 7.83231C1.59305 7.89273 1.69826 7.9007 1.78511 7.85286L3.94235 6.66451C6.29091 7.95826 6.1296 7.8839 6.2195 7.8839C6.27294 7.8839 6.32613 7.86649 6.37102 7.83231L2.6326 2.44063L0.220772 2.80786Z"
                    fill="#F7AC16" id="Path" stroke="none" />
                <path
                    d="M0.0779232 3.26855L1.82314 5.05112L1.41113 7.56814C1.39453 7.66948 1.43428 7.77187 1.51368 7.83231C1.59305 7.89273 1.69826 7.9007 1.78511 7.85286L3.94235 6.66451C6.29091 7.95826 6.1296 7.8839 6.2195 7.8839C6.37837 7.8839 6.50069 7.73383 6.47357 7.56814L6.06158 5.05112L0.0126742 2.99168C-0.0174632 3.10487 0.012705 3.20197 0.0779232 3.26855Z"
                    fill="#FFC107" id="Path" stroke="none" />
                <path
                    d="M1.41113 7.56814C1.39453 7.66948 1.43428 7.77187 1.51368 7.83231C1.59305 7.89273 1.69826 7.9007 1.78511 7.85286L3.94235 6.66451C6.29091 7.95826 6.1296 7.8839 6.2195 7.8839C6.37837 7.8839 6.50069 7.73383 6.47357 7.56814L6.06158 5.05112L7.8068 3.26855C7.87704 3.19679 7.90231 3.08945 7.87202 2.99169L1.82314 5.05112L1.41113 7.56814Z"
                    fill="#F7AC16" id="Path" stroke="none" />
                <path
                    d="M1.78513 7.85286L3.94235 6.66451C6.29091 7.95826 6.1296 7.8839 6.2195 7.8839C6.37837 7.8839 6.50069 7.73383 6.47357 7.56814L6.06158 5.05112L7.8068 3.26855C7.95942 3.11262 7.87504 2.84002 7.66394 2.80786L5.2521 2.44064L1.51368 7.83231C1.59305 7.89273 1.69826 7.9007 1.78513 7.85286Z"
                    fill="#FFC107" id="Path" stroke="none" />
                <path
                    d="M7.87204 2.99168L3.94235 4.32959L1.51368 7.83231C1.59305 7.89273 1.69826 7.9007 1.78511 7.85286L3.94235 6.66451C6.29091 7.95826 6.1296 7.8839 6.2195 7.8839C6.37837 7.8839 6.50069 7.73383 6.47357 7.56814L6.06158 5.05112L7.8068 3.26855C7.87706 3.19677 7.90233 3.08945 7.87204 2.99168Z"
                    fill="#F7AC16" id="Path" stroke="none" />
                <path
                    d="M6.06159 5.05112L3.94235 4.32959L1.51368 7.83231C1.59305 7.89273 1.69826 7.9007 1.78511 7.85286L3.94235 6.66451C6.29091 7.95826 6.1296 7.8839 6.2195 7.8839C6.37837 7.8839 6.50069 7.73383 6.47357 7.56814L6.06159 5.05112Z"
                    fill="#FFC107" id="Path" stroke="none" />
                <path
                    d="M1.51368 7.83231C1.59305 7.89273 1.69826 7.9007 1.78511 7.85286L3.94235 6.66451C6.29091 7.95826 6.1296 7.8839 6.2195 7.8839C6.27294 7.8839 6.32613 7.86649 6.37102 7.83231L3.94235 4.32959L1.51368 7.83231Z"
                    fill="#F7AC16" id="Path" stroke="none" />
                <path
                    d="M3.94236 4.32963L3.94235 4.32959L1.51368 7.83231C1.59305 7.89273 1.69826 7.9007 1.78511 7.85286L3.94235 6.66451L3.94236 6.66451L3.94236 4.32963Z"
                    fill="#FFC107" id="Path" stroke="none" />
            </g>
        </g>
        <g id="star-2-2-copy-6"
            transform="matrix(0.81915206 -0.57357645 -0.57357645 -0.81915206 32.1189 10.981236)">
            <g id="star-2" transform="matrix(1 0 0 1 -1.3976973E-12 1.0954684E-12)">
                <g filter="url(#filter_1)" id="Path">
                    <use fill="none" stroke="#FFF6D9" stroke-width="2" xlink:href="#path_1" />
                    <use fill="#F7AC16" stroke="none" xlink:href="#path_1" />
                </g>
                <path
                    d="M3.94236 -1.7322e-13C3.84405 -1.7322e-13 3.75455 0.0585597 3.7112 0.150554L2.6326 2.44064L0.220772 2.80786C0.00984066 2.83999 -0.0748736 3.11251 0.0779232 3.26855L1.82314 5.05112L1.41113 7.56814C1.39453 7.66948 1.43428 7.77187 1.51368 7.83231C1.59305 7.89273 1.69826 7.9007 1.78511 7.85286L3.94235 6.66451L3.94236 6.66451L3.94236 -1.7322e-13Z"
                    fill="#FFC107" id="Path" stroke="none" />
                <path
                    d="M0.220772 2.80786C0.00984066 2.83999 -0.0748736 3.11251 0.0779232 3.26855L1.82314 5.05112L1.41113 7.56814C1.39453 7.66948 1.43428 7.77187 1.51368 7.83231C1.59305 7.89273 1.69826 7.9007 1.78511 7.85286L3.94235 6.66451C6.29091 7.95826 6.1296 7.8839 6.2195 7.8839C6.27294 7.8839 6.32613 7.86649 6.37102 7.83231L2.6326 2.44063L0.220772 2.80786Z"
                    fill="#F7AC16" id="Path" stroke="none" />
                <path
                    d="M0.0779232 3.26855L1.82314 5.05112L1.41113 7.56814C1.39453 7.66948 1.43428 7.77187 1.51368 7.83231C1.59305 7.89273 1.69826 7.9007 1.78511 7.85286L3.94235 6.66451C6.29091 7.95826 6.1296 7.8839 6.2195 7.8839C6.37837 7.8839 6.50069 7.73383 6.47357 7.56814L6.06158 5.05112L0.0126742 2.99168C-0.0174632 3.10487 0.012705 3.20197 0.0779232 3.26855Z"
                    fill="#FFC107" id="Path" stroke="none" />
                <path
                    d="M1.41113 7.56814C1.39453 7.66948 1.43428 7.77187 1.51368 7.83231C1.59305 7.89273 1.69826 7.9007 1.78511 7.85286L3.94235 6.66451C6.29091 7.95826 6.1296 7.8839 6.2195 7.8839C6.37837 7.8839 6.50069 7.73383 6.47357 7.56814L6.06158 5.05112L7.8068 3.26855C7.87704 3.19679 7.90231 3.08945 7.87202 2.99169L1.82314 5.05112L1.41113 7.56814Z"
                    fill="#F7AC16" id="Path" stroke="none" />
                <path
                    d="M1.78513 7.85286L3.94235 6.66451C6.29091 7.95826 6.1296 7.8839 6.2195 7.8839C6.37837 7.8839 6.50069 7.73383 6.47357 7.56814L6.06158 5.05112L7.8068 3.26855C7.95942 3.11262 7.87504 2.84002 7.66394 2.80786L5.2521 2.44064L1.51368 7.83231C1.59305 7.89273 1.69826 7.9007 1.78513 7.85286Z"
                    fill="#FFC107" id="Path" stroke="none" />
                <path
                    d="M7.87204 2.99168L3.94235 4.32959L1.51368 7.83231C1.59305 7.89273 1.69826 7.9007 1.78511 7.85286L3.94235 6.66451C6.29091 7.95826 6.1296 7.8839 6.2195 7.8839C6.37837 7.8839 6.50069 7.73383 6.47357 7.56814L6.06158 5.05112L7.8068 3.26855C7.87706 3.19677 7.90233 3.08945 7.87204 2.99168Z"
                    fill="#F7AC16" id="Path" stroke="none" />
                <path
                    d="M6.06159 5.05112L3.94235 4.32959L1.51368 7.83231C1.59305 7.89273 1.69826 7.9007 1.78511 7.85286L3.94235 6.66451C6.29091 7.95826 6.1296 7.8839 6.2195 7.8839C6.37837 7.8839 6.50069 7.73383 6.47357 7.56814L6.06159 5.05112Z"
                    fill="#FFC107" id="Path" stroke="none" />
                <path
                    d="M1.51368 7.83231C1.59305 7.89273 1.69826 7.9007 1.78511 7.85286L3.94235 6.66451C6.29091 7.95826 6.1296 7.8839 6.2195 7.8839C6.27294 7.8839 6.32613 7.86649 6.37102 7.83231L3.94235 4.32959L1.51368 7.83231Z"
                    fill="#F7AC16" id="Path" stroke="none" />
                <path
                    d="M3.94236 4.32963L3.94235 4.32959L1.51368 7.83231C1.59305 7.89273 1.69826 7.9007 1.78511 7.85286L3.94235 6.66451L3.94236 6.66451L3.94236 4.32963Z"
                    fill="#FFC107" id="Path" stroke="none" />
            </g>
        </g>
    </g>
</svg>