<?xml version="1.0" encoding="utf-8"?>
<svg xmlns:xlink="http://www.w3.org/1999/xlink" height="10px" version="1.1" viewBox="0 0 10 10"
    width="10px" xmlns="http://www.w3.org/2000/svg">
    <defs>
        <filter color-interpolation-filters="sRGB" filterUnits="userSpaceOnUse" id="filter_1">
            <feFlood flood-opacity="0" result="BackgroundImageFix" />
            <feColorMatrix in="SourceAlpha" type="matrix"
                values="0 0 0 0 0 0 0 0 0 0 0 0 0 0 0 0 0 0 127 0" />
            <feOffset dx="0" dy="0" />
            <feGaussianBlur stdDeviation="2" />
            <feColorMatrix type="matrix"
                values="0 0 0 0 1 0 0 0 0 0.9647059 0 0 0 0 0.8509804 0 0 0 1 0" />
            <feBlend in2="BackgroundImageFix" mode="normal" result="effect0_dropShadow" />
            <feBlend in="SourceGraphic" in2="effect0_dropShadow" mode="normal" result="shape" />
        </filter>
        <path
            d="M6.80404 2.49257L4.66281 2.16655L3.70521 0.133415C3.62145 -0.0444287 3.37863 -0.0445146 3.2948 0.133415L2.33722 2.16655L0.196001 2.49257C0.0087366 2.52109 -0.0664725 2.76303 0.0691801 2.90156L1.61858 4.48413L1.2528 6.71873C1.23806 6.8087 1.27335 6.89959 1.34384 6.95326C1.4143 7.0069 1.50771 7.01397 1.58482 6.9715L3.50001 5.91649C5.58505 7.06507 5.44184 6.99906 5.52166 6.99906C5.6627 6.99906 5.77129 6.86583 5.74721 6.71873L5.38145 4.48413L6.93086 2.90156C7.06636 2.76313 6.99145 2.52112 6.80404 2.49257Z"
            id="path_1" />
        <rect height="10" id="artboard_1" width="10" />
        <clipPath id="clip_1">
            <use clip-rule="evenodd" xlink:href="#artboard_1" />
        </clipPath>
    </defs>
    <g clip-path="url(#clip_1)" id="start1">
        <g id="star-2-2-copy-8"
            transform="matrix(0.8191523 0.57357603 0.57357603 -0.8191523 0.015625 6.190796)">
            <g id="star-2" transform="matrix(1 -3.4187796E-08 3.4187796E-08 1 0 -0.0009765625)">
                <g filter="url(#filter_1)" id="Path">
                    <use fill="none" stroke="#FFF6D9" stroke-width="2" xlink:href="#path_1" />
                    <use fill="#F7AC16" stroke="none" xlink:href="#path_1" />
                </g>
                <path
                    d="M3.50002 -1.19658e-07C3.41274 -1.16674e-07 3.33328 0.051989 3.29479 0.133662L2.33721 2.1668L0.196001 2.49281C0.0087366 2.52134 -0.0664725 2.76327 0.0691801 2.90181L1.61858 4.48437L1.2528 6.71897C1.23806 6.80894 1.27335 6.89984 1.34384 6.95351C1.4143 7.00714 1.50771 7.01422 1.58482 6.97174L3.50001 5.91673L3.50002 5.91673L3.50002 -1.19658e-07Z"
                    fill="#FFC107" id="Path" stroke="none" />
                <path
                    d="M0.196001 2.49205C0.00873652 2.52057 -0.0664726 2.76251 0.06918 2.90104L1.61858 4.48361L1.2528 6.71821C1.23806 6.80818 1.27335 6.89907 1.34384 6.95274C1.4143 7.00638 1.50771 7.01345 1.58482 6.97098L3.50001 5.91597C5.58505 7.06455 5.44184 6.99854 5.52166 6.99854C5.5691 6.99854 5.61632 6.98308 5.65617 6.95274L2.33721 2.16602L0.196001 2.49205Z"
                    fill="#F7AC16" id="Path" stroke="none" />
                <path
                    d="M0.072243 2.90206L1.62164 4.48462L1.25586 6.71922C1.24112 6.80919 1.27641 6.90009 1.3469 6.95376C1.41737 7.00739 1.51077 7.01447 1.58788 6.97199L3.50307 5.91698C5.58812 7.06557 5.4449 6.99956 5.52472 6.99956C5.66576 6.99956 5.77435 6.86632 5.75028 6.71922L5.38451 4.48462L0.0143151 2.65625C-0.0124408 2.75675 0.0143425 2.84295 0.072243 2.90206Z"
                    fill="#FFC107" id="Path" stroke="none" />
                <path
                    d="M1.25331 6.71823C1.23857 6.8082 1.27385 6.8991 1.34435 6.95276C1.41481 7.0064 1.50822 7.01348 1.58533 6.971L3.50051 5.91599C5.58556 7.06458 5.44235 6.99856 5.52216 6.99856C5.6632 6.99856 5.7718 6.86533 5.74772 6.71823L5.38196 4.48363L6.93137 2.90106C6.99372 2.83736 7.01616 2.74206 6.98927 2.65527L1.61908 4.48363L1.25331 6.71823Z"
                    fill="#F7AC16" id="Path" stroke="none" />
                <path
                    d="M1.5867 6.97096L3.50187 5.91595C5.58692 7.06454 5.4437 6.99853 5.52352 6.99853C5.66456 6.99853 5.77316 6.86529 5.74908 6.71819L5.38332 4.48359L6.93272 2.90103C7.06821 2.76259 6.9933 2.52058 6.80589 2.49203L4.66467 2.16602L1.3457 6.95273C1.41617 7.00636 1.50957 7.01344 1.5867 6.97096Z"
                    fill="#FFC107" id="Path" stroke="none" />
                <path
                    d="M6.98868 2.65527L3.49992 3.84307L1.34375 6.95278C1.41422 7.00642 1.50762 7.01349 1.58473 6.97102L3.49992 5.916C5.58496 7.06459 5.44175 6.99858 5.52157 6.99858C5.66261 6.99858 5.7712 6.86535 5.74713 6.71825L5.38136 4.48365L6.93077 2.90108C6.99314 2.83736 7.01558 2.74207 6.98868 2.65527Z"
                    fill="#F7AC16" id="Path" stroke="none" />
                <path
                    d="M5.38138 4.48335L3.49992 3.84277L1.34375 6.95248C1.41422 7.00612 1.50762 7.01319 1.58473 6.97072L3.49992 5.91571C5.58496 7.06429 5.44175 6.99828 5.52157 6.99828C5.66261 6.99828 5.7712 6.86505 5.74713 6.71795L5.38138 4.48335Z"
                    fill="#FFC107" id="Path" stroke="none" />
                <path
                    d="M1.34375 6.95248C1.41422 7.00612 1.50762 7.01319 1.58473 6.97072L3.49992 5.91571C5.58496 7.06429 5.44175 6.99828 5.52157 6.99828C5.56901 6.99828 5.61623 6.98282 5.65609 6.95248L3.49992 3.84277L1.34375 6.95248Z"
                    fill="#F7AC16" id="Path" stroke="none" />
                <path
                    d="M3.49993 3.8428L3.49992 3.84277L1.34375 6.95248C1.41422 7.00612 1.50762 7.01319 1.58473 6.97072L3.49992 5.91571L3.49993 5.91571L3.49993 3.8428Z"
                    fill="#FFC107" id="Path" stroke="none" />
            </g>
        </g>
    </g>
</svg>