<?xml version="1.0" encoding="utf-8"?>
<svg xmlns:xlink="http://www.w3.org/1999/xlink" height="22px" version="1.1" viewBox="0 0 23 22"
    width="23px" xmlns="http://www.w3.org/2000/svg">
    <defs>
        <filter color-interpolation-filters="sRGB" filterUnits="userSpaceOnUse" id="filter_1">
            <feFlood flood-opacity="0" result="BackgroundImageFix" />
            <feColorMatrix in="SourceAlpha" type="matrix"
                values="0 0 0 0 0 0 0 0 0 0 0 0 0 0 0 0 0 0 127 0" />
            <feOffset dx="0" dy="0" />
            <feGaussianBlur stdDeviation="2" />
            <feColorMatrix type="matrix"
                values="0 0 0 0 1 0 0 0 0 0.9647059 0 0 0 0 0.8509804 0 0 0 1 0" />
            <feBlend in2="BackgroundImageFix" mode="normal" result="effect0_dropShadow" />
            <feBlend in="SourceGraphic" in2="effect0_dropShadow" mode="normal" result="shape" />
        </filter>
        <path
            d="M8.39052 3.07406L5.75003 2.67202L4.56914 0.164827C4.46586 -0.0544831 4.16641 -0.0545891 4.06304 0.164827L2.88219 2.67202L0.241701 3.07406C0.0107736 3.10923 -0.0819718 3.40758 0.0853105 3.57841L1.99597 5.52998L1.54491 8.28562C1.52673 8.39656 1.57025 8.50866 1.65718 8.57484C1.74407 8.64098 1.85926 8.64971 1.95435 8.59733L4.31609 7.29632C6.8873 8.71272 6.7107 8.63132 6.80912 8.63132C6.98305 8.63132 7.11697 8.46702 7.08728 8.28562L6.63623 5.52998L8.54691 3.57841C8.714 3.4077 8.62163 3.10926 8.39052 3.07406Z"
            id="path_1" />
        <rect height="21.346313" id="artboard_1" width="22.144531" />
        <clipPath id="clip_1">
            <use clip-rule="evenodd" xlink:href="#artboard_1" />
        </clipPath>
    </defs>
    <g clip-path="url(#clip_1)" id="Group-2">
        <g id="Group" transform="matrix(0.7431452 0.66913015 -0.66913015 0.7431452 6.6933594 0)">
            <g id="star-2-2-copy"
                transform="matrix(-0.9848077 -0.17364824 0.17364824 -0.9848077 8.5 10.004884)">
                <g id="star-2" transform="matrix(1 0 0 1 1.8898205E-12 2.4241798E-13)">
                    <g filter="url(#filter_1)" id="Path">
                        <use fill="none" stroke="#FFF6D9" stroke-width="2" xlink:href="#path_1" />
                        <use fill="#F7AC16" stroke="none" xlink:href="#path_1" />
                    </g>
                    <path
                        d="M4.31611 3.68195e-13C4.20848 3.68195e-13 4.11049 0.0641113 4.06303 0.164827L2.88217 2.67202L0.241701 3.07406C0.0107736 3.10923 -0.0819718 3.40758 0.0853105 3.57841L1.99597 5.52998L1.54491 8.28562C1.52673 8.39656 1.57025 8.50866 1.65718 8.57483C1.74407 8.64098 1.85926 8.64971 1.95435 8.59732L4.31609 7.29632L4.31611 7.29632L4.31611 3.68195e-13Z"
                        fill="#FFC107" id="Path" stroke="none" />
                    <path
                        d="M0.241701 3.07406C0.0107736 3.10923 -0.0819718 3.40758 0.0853105 3.57841L1.99597 5.52998L1.54491 8.28562C1.52673 8.39656 1.57025 8.50866 1.65718 8.57483C1.74407 8.64098 1.85926 8.64971 1.95435 8.59732L4.31609 7.29632C6.8873 8.71272 6.7107 8.63132 6.80912 8.63132C6.86763 8.63132 6.92586 8.61225 6.97501 8.57483L2.88217 2.672L0.241701 3.07406Z"
                        fill="#F7AC16" id="Path" stroke="none" />
                    <path
                        d="M0.0853105 3.57841L1.99597 5.52998L1.54491 8.28562C1.52673 8.39656 1.57025 8.50866 1.65718 8.57483C1.74407 8.64098 1.85926 8.64971 1.95435 8.59732L4.31609 7.29632C6.8873 8.71272 6.7107 8.63131 6.80912 8.63131C6.98305 8.63131 7.11697 8.46702 7.08728 8.28562L6.63623 5.52998L0.0138758 3.27529C-0.0191187 3.39922 0.0139095 3.50552 0.0853105 3.57841Z"
                        fill="#FFC107" id="Path" stroke="none" />
                    <path
                        d="M1.54491 8.28562C1.52673 8.39656 1.57025 8.50866 1.65718 8.57484C1.74407 8.64098 1.85926 8.64971 1.95435 8.59732L4.31609 7.29632C6.8873 8.71272 6.7107 8.63132 6.80912 8.63132C6.98305 8.63132 7.11697 8.46702 7.08728 8.28562L6.63623 5.52998L8.54691 3.57841C8.62381 3.49985 8.65147 3.38233 8.61831 3.27531L1.99597 5.52998L1.54491 8.28562Z"
                        fill="#F7AC16" id="Path" stroke="none" />
                    <path
                        d="M1.95436 8.59732L4.31609 7.29632C6.8873 8.71272 6.7107 8.63131 6.80912 8.63131C6.98305 8.63131 7.11697 8.46702 7.08728 8.28562L6.63623 5.52998L8.54691 3.57841C8.71399 3.4077 8.62161 3.10926 8.3905 3.07406L5.75001 2.67202L1.65718 8.57483C1.74407 8.64098 1.85926 8.6497 1.95436 8.59732Z"
                        fill="#FFC107" id="Path" stroke="none" />
                    <path
                        d="M8.61833 3.27529L4.31609 4.74005L1.65718 8.57483C1.74407 8.64098 1.85926 8.64971 1.95435 8.59732L4.31609 7.29632C6.8873 8.71272 6.7107 8.63131 6.80912 8.63131C6.98305 8.63131 7.11697 8.46702 7.08728 8.28562L6.63623 5.52998L8.54691 3.57841C8.62382 3.49983 8.65149 3.38233 8.61833 3.27529Z"
                        fill="#F7AC16" id="Path" stroke="none" />
                    <path
                        d="M6.63624 5.52998L4.31609 4.74005L1.65718 8.57483C1.74407 8.64098 1.85926 8.64971 1.95435 8.59732L4.31609 7.29632C6.8873 8.71272 6.7107 8.63132 6.80912 8.63132C6.98305 8.63132 7.11697 8.46702 7.08728 8.28562L6.63624 5.52998Z"
                        fill="#FFC107" id="Path" stroke="none" />
                    <path
                        d="M1.65718 8.57483C1.74407 8.64098 1.85926 8.64971 1.95435 8.59732L4.31609 7.29632C6.8873 8.71272 6.7107 8.63132 6.80912 8.63132C6.86763 8.63132 6.92586 8.61225 6.97501 8.57483L4.31609 4.74005L1.65718 8.57483Z"
                        fill="#F7AC16" id="Path" stroke="none" />
                    <path
                        d="M4.31611 4.74008L4.31609 4.74005L1.65718 8.57483C1.74407 8.64098 1.85926 8.64971 1.95435 8.59732L4.31609 7.29632L4.31611 7.29632L4.31611 4.74008Z"
                        fill="#FFC107" id="Path" stroke="none" />
                </g>
            </g>
            <g id="star-2-2-copy-4"
                transform="matrix(0.9848077 -0.17364816 -0.17364816 -0.9848077 12.2890625 10.000977)">
                <g id="star-2" transform="matrix(1 0 0 1 1.8668537E-12 -6.928083E-14)">
                    <g filter="url(#filter_1)" id="Path">
                        <use fill="none" stroke="#FFF6D9" stroke-width="2" xlink:href="#path_1" />
                        <use fill="#F7AC16" stroke="none" xlink:href="#path_1" />
                    </g>
                    <path
                        d="M4.31611 1.4773e-13C4.20848 1.4773e-13 4.11049 0.0641113 4.06303 0.164827L2.88217 2.67202L0.241701 3.07406C0.0107736 3.10923 -0.0819718 3.40758 0.0853105 3.57841L1.99597 5.52998L1.54491 8.28562C1.52673 8.39656 1.57025 8.50866 1.65718 8.57483C1.74407 8.64098 1.85926 8.64971 1.95435 8.59732L4.31609 7.29632L4.31611 7.29632L4.31611 1.4773e-13Z"
                        fill="#FFC107" id="Path" stroke="none" />
                    <path
                        d="M0.241701 3.07406C0.0107736 3.10923 -0.0819718 3.40758 0.0853105 3.57841L1.99597 5.52998L1.54491 8.28562C1.52673 8.39656 1.57025 8.50866 1.65718 8.57483C1.74407 8.64098 1.85926 8.64971 1.95435 8.59732L4.31609 7.29632C6.8873 8.71272 6.7107 8.63132 6.80912 8.63132C6.86763 8.63132 6.92586 8.61225 6.97501 8.57483L2.88217 2.672L0.241701 3.07406Z"
                        fill="#F7AC16" id="Path" stroke="none" />
                    <path
                        d="M0.0853105 3.57841L1.99597 5.52998L1.54491 8.28562C1.52673 8.39656 1.57025 8.50866 1.65718 8.57483C1.74407 8.64098 1.85926 8.64971 1.95435 8.59732L4.31609 7.29632C6.8873 8.71272 6.7107 8.63131 6.80912 8.63131C6.98305 8.63131 7.11697 8.46702 7.08728 8.28562L6.63623 5.52998L0.0138758 3.27529C-0.0191187 3.39922 0.0139095 3.50552 0.0853105 3.57841Z"
                        fill="#FFC107" id="Path" stroke="none" />
                    <path
                        d="M1.54491 8.28562C1.52673 8.39656 1.57025 8.50866 1.65718 8.57484C1.74407 8.64098 1.85926 8.64971 1.95435 8.59732L4.31609 7.29632C6.8873 8.71272 6.7107 8.63132 6.80912 8.63132C6.98305 8.63132 7.11697 8.46702 7.08728 8.28562L6.63623 5.52998L8.54691 3.57841C8.62381 3.49985 8.65147 3.38233 8.61831 3.27531L1.99597 5.52998L1.54491 8.28562Z"
                        fill="#F7AC16" id="Path" stroke="none" />
                    <path
                        d="M1.95436 8.59732L4.31609 7.29632C6.8873 8.71272 6.7107 8.63131 6.80912 8.63131C6.98305 8.63131 7.11697 8.46702 7.08728 8.28562L6.63623 5.52998L8.54691 3.57841C8.71399 3.4077 8.62161 3.10926 8.3905 3.07406L5.75001 2.67202L1.65718 8.57483C1.74407 8.64098 1.85926 8.6497 1.95436 8.59732Z"
                        fill="#FFC107" id="Path" stroke="none" />
                    <path
                        d="M8.61833 3.27529L4.31609 4.74005L1.65718 8.57483C1.74407 8.64098 1.85926 8.64971 1.95435 8.59732L4.31609 7.29632C6.8873 8.71272 6.7107 8.63131 6.80912 8.63131C6.98305 8.63131 7.11697 8.46702 7.08728 8.28562L6.63623 5.52998L8.54691 3.57841C8.62382 3.49983 8.65149 3.38233 8.61833 3.27529Z"
                        fill="#F7AC16" id="Path" stroke="none" />
                    <path
                        d="M6.63624 5.52998L4.31609 4.74005L1.65718 8.57483C1.74407 8.64098 1.85926 8.64971 1.95435 8.59732L4.31609 7.29632C6.8873 8.71272 6.7107 8.63132 6.80912 8.63132C6.98305 8.63132 7.11697 8.46702 7.08728 8.28562L6.63624 5.52998Z"
                        fill="#FFC107" id="Path" stroke="none" />
                    <path
                        d="M1.65718 8.57483C1.74407 8.64098 1.85926 8.64971 1.95435 8.59732L4.31609 7.29632C6.8873 8.71272 6.7107 8.63132 6.80912 8.63132C6.86763 8.63132 6.92586 8.61225 6.97501 8.57483L4.31609 4.74005L1.65718 8.57483Z"
                        fill="#F7AC16" id="Path" stroke="none" />
                    <path
                        d="M4.31611 4.74008L4.31609 4.74005L1.65718 8.57483C1.74407 8.64098 1.85926 8.64971 1.95435 8.59732L4.31609 7.29632L4.31611 7.29632L4.31611 4.74008Z"
                        fill="#FFC107" id="Path" stroke="none" />
                </g>
            </g>
        </g>
    </g>
</svg>