<?xml version="1.0" encoding="utf-8"?>
<svg xmlns:xlink="http://www.w3.org/1999/xlink" height="35px" version="1.1" viewBox="0 0 35 35"
    width="35px" xmlns="http://www.w3.org/2000/svg">
    <defs>
        <filter color-interpolation-filters="sRGB" filterUnits="userSpaceOnUse" id="filter_1">
            <feFlood flood-opacity="0" result="BackgroundImageFix" />
            <feColorMatrix in="SourceAlpha" type="matrix"
                values="0 0 0 0 0 0 0 0 0 0 0 0 0 0 0 0 0 0 127 0" />
            <feOffset dx="0" dy="2" />
            <feGaussianBlur stdDeviation="2.5" />
            <feColorMatrix type="matrix"
                values="0 0 0 0 1 0 0 0 0 0.75686276 0 0 0 0 0.02745098 0 0 0 0.5019608 0" />
            <feBlend in2="BackgroundImageFix" mode="normal" result="effect0_dropShadow" />
            <feBlend in="SourceGraphic" in2="effect0_dropShadow" mode="normal" result="shape" />
        </filter>
        <filter color-interpolation-filters="sRGB" filterUnits="userSpaceOnUse" id="filter_2">
            <feFlood flood-opacity="0" result="BackgroundImageFix" />
            <feColorMatrix in="SourceAlpha" type="matrix"
                values="0 0 0 0 0 0 0 0 0 0 0 0 0 0 0 0 0 0 127 0" />
            <feOffset dx="0" dy="0" />
            <feGaussianBlur stdDeviation="2" />
            <feColorMatrix type="matrix"
                values="0 0 0 0 1 0 0 0 0 0.9647059 0 0 0 0 0.8509804 0 0 0 1 0" />
            <feBlend in2="BackgroundImageFix" mode="normal" result="effect0_dropShadow" />
            <feBlend in="SourceGraphic" in2="effect0_dropShadow" mode="normal" result="shape" />
        </filter>
        <path
            d="M7.9998 3.07406L5.48227 2.67202L4.35637 0.164827C4.2579 -0.0544831 3.97239 -0.0545891 3.87384 0.164827L2.74797 2.67202L0.230446 3.07406C0.0102719 3.10923 -0.0781546 3.40758 0.0813378 3.57841L1.90303 5.52998L1.47297 8.28562C1.45564 8.39656 1.49713 8.50866 1.58001 8.57484C1.66286 8.64098 1.77268 8.64971 1.86334 8.59733L4.11511 7.29632C6.56658 8.71272 6.3982 8.63132 6.49204 8.63132C6.65787 8.63132 6.78555 8.46702 6.75724 8.28562L6.3272 5.52998L8.1489 3.57841C8.30822 3.4077 8.22015 3.10926 7.9998 3.07406Z"
            id="path_1" />
        <path
            d="M7.77603 2.84893L5.32892 2.47634L4.23452 0.152756C4.1388 -0.050493 3.86128 -0.0505913 3.76549 0.152756L2.67111 2.47634L0.224 2.84893C0.00998457 2.88152 -0.0759686 3.15802 0.0790627 3.31635L1.8498 5.12499L1.43177 7.67882C1.41492 7.78164 1.45525 7.88552 1.53581 7.94686C1.61634 8.00815 1.72309 8.01624 1.81122 7.9677L4 6.76197C6.38291 8.07464 6.21924 7.9992 6.31046 7.9992C6.47164 7.9992 6.59575 7.84693 6.56824 7.67882L6.15022 5.12499L7.92097 3.31635C8.07583 3.15814 7.99022 2.88156 7.77603 2.84893Z"
            id="path_2" />
        <rect height="34.648224" id="artboard_1" width="34.648224" />
        <clipPath id="clip_1">
            <use clip-rule="evenodd" xlink:href="#artboard_1" />
        </clipPath>
    </defs>
    <g clip-path="url(#clip_1)" id="ic_status_3stars">
        <g id="ic_status_3stars"
            transform="matrix(0.70710677 0.70710677 -0.70710677 0.70710677 9.192383 0)">
            <path
                d="M30.171 -1C30.171 -1 27.9631 5.6688 17.5709 5.6688C7.17871 5.6688 6.00886 -0.897596 6.00886 -0.897596L-1.15656e-15 -0.897596C-1.15656e-15 -0.897596 4.41292 10.6988 17.5 10.6988C30.5871 10.6988 36 -1 36 -1L30.171 -1Z"
                fill="none" fill-rule="evenodd" filter="url(#filter_1)" id="Path-10"
                stroke="none" />
            <g id="Group" transform="translate(1.9650991 1.0349009)">
                <g id="Group-2">
                    <g id="star-2-2-copy-2"
                        transform="matrix(-0.9848077 -0.17364818 0.17364818 -0.9848077 8.105171 9.930198)">
                        <g id="star-2" transform="matrix(1 0 0 1 1.2936323E-12 -1.2561287E-13)">
                            <g filter="url(#filter_2)" id="Path">
                                <use fill="none" stroke="#FFF6D9" stroke-width="2"
                                    xlink:href="#path_1" />
                                <use fill="#F7AC16" fill-rule="evenodd" stroke="none"
                                    xlink:href="#path_1" />
                            </g>
                            <path
                                d="M4.11512 8.85479e-13C4.0125 8.85479e-13 3.91908 0.0641113 3.87383 0.164827L2.74796 2.67202L0.230446 3.07406C0.0102719 3.10923 -0.0781547 3.40758 0.0813378 3.57841L1.90303 5.52998L1.47297 8.28562C1.45564 8.39656 1.49713 8.50866 1.58001 8.57483C1.66286 8.64098 1.77268 8.64971 1.86334 8.59732L4.11511 7.29632L4.11512 7.29632L4.11512 8.85479e-13Z"
                                fill="#FFC107" fill-rule="evenodd" id="Path" stroke="none" />
                            <path
                                d="M0.230446 3.07406C0.0102719 3.10923 -0.0781547 3.40758 0.0813378 3.57841L1.90303 5.52998L1.47297 8.28562C1.45564 8.39656 1.49713 8.50866 1.58001 8.57483C1.66286 8.64098 1.77268 8.64971 1.86334 8.59732L4.11511 7.29632C6.56658 8.71272 6.3982 8.63132 6.49204 8.63132C6.54782 8.63132 6.60335 8.61225 6.6502 8.57483L2.74796 2.672L0.230446 3.07406Z"
                                fill="#F7AC16" fill-rule="evenodd" id="Path" stroke="none" />
                            <path
                                d="M0.0813378 3.57841L1.90303 5.52998L1.47297 8.28562C1.45564 8.39656 1.49713 8.50866 1.58001 8.57483C1.66286 8.64098 1.77268 8.64971 1.86334 8.59732L4.11511 7.29632C6.56658 8.71272 6.3982 8.63131 6.49204 8.63131C6.65787 8.63131 6.78555 8.46702 6.75724 8.28562L6.3272 5.52998L0.0132296 3.27529C-0.0182284 3.39922 0.0132618 3.50552 0.0813378 3.57841Z"
                                fill="#FFC107" fill-rule="evenodd" id="Path" stroke="none" />
                            <path
                                d="M1.47297 8.28562C1.45564 8.39656 1.49713 8.50866 1.58001 8.57484C1.66286 8.64098 1.77268 8.64971 1.86334 8.59732L4.11511 7.29632C6.56658 8.71272 6.3982 8.63132 6.49205 8.63132C6.65787 8.63132 6.78555 8.46702 6.75724 8.28562L6.3272 5.52998L8.1489 3.57841C8.22222 3.49985 8.2486 3.38233 8.21698 3.27531L1.90303 5.52998L1.47297 8.28562Z"
                                fill="#F7AC16" fill-rule="evenodd" id="Path" stroke="none" />
                            <path
                                d="M1.86336 8.59732L4.11511 7.29632C6.56658 8.71272 6.3982 8.63131 6.49204 8.63131C6.65787 8.63131 6.78555 8.46702 6.75724 8.28562L6.3272 5.52998L8.1489 3.57841C8.3082 3.4077 8.22013 3.10926 7.99978 3.07406L5.48225 2.67202L1.58001 8.57483C1.66286 8.64098 1.77268 8.6497 1.86336 8.59732Z"
                                fill="#FFC107" fill-rule="evenodd" id="Path" stroke="none" />
                            <path
                                d="M8.217 3.27529L4.11511 4.74005L1.58001 8.57483C1.66286 8.64098 1.77268 8.64971 1.86334 8.59732L4.11511 7.29632C6.56658 8.71272 6.3982 8.63131 6.49204 8.63131C6.65787 8.63131 6.78555 8.46702 6.75724 8.28562L6.3272 5.52998L8.1489 3.57841C8.22224 3.49983 8.24862 3.38233 8.217 3.27529Z"
                                fill="#F7AC16" fill-rule="evenodd" id="Path" stroke="none" />
                            <path
                                d="M6.32722 5.52998L4.11511 4.74005L1.58001 8.57483C1.66286 8.64098 1.77268 8.64971 1.86334 8.59732L4.11511 7.29632C6.56658 8.71272 6.3982 8.63132 6.49204 8.63132C6.65787 8.63132 6.78555 8.46702 6.75724 8.28562L6.32722 5.52998Z"
                                fill="#FFC107" fill-rule="evenodd" id="Path" stroke="none" />
                            <path
                                d="M1.58001 8.57483C1.66286 8.64098 1.77268 8.64971 1.86334 8.59732L4.11511 7.29632C6.56658 8.71272 6.3982 8.63132 6.49204 8.63132C6.54782 8.63132 6.60335 8.61225 6.6502 8.57483L4.11511 4.74005L1.58001 8.57483Z"
                                fill="#F7AC16" fill-rule="evenodd" id="Path" stroke="none" />
                            <path
                                d="M4.11512 4.74008L4.11511 4.74005L1.58001 8.57483C1.66286 8.64098 1.77268 8.64971 1.86334 8.59732L4.11511 7.29632L4.11512 7.29632L4.11512 4.74008Z"
                                fill="#FFC107" fill-rule="evenodd" id="Path" stroke="none" />
                        </g>
                    </g>
                    <g id="star-2-2-copy-7"
                        transform="matrix(0.9848077 -0.17364818 -0.17364818 -0.9848077 23.96463 9.930198)">
                        <g id="star-2" transform="matrix(1 0 0 1 -3.1575148E-12 9.830648E-14)">
                            <g filter="url(#filter_2)" id="Path">
                                <use fill="none" stroke="#FFF6D9" stroke-width="2"
                                    xlink:href="#path_1" />
                                <use fill="#F7AC16" fill-rule="evenodd" stroke="none"
                                    xlink:href="#path_1" />
                            </g>
                            <path
                                d="M4.11512 -2.40161e-14C4.0125 -2.40161e-14 3.91908 0.0641113 3.87383 0.164827L2.74796 2.67202L0.230446 3.07406C0.0102719 3.10923 -0.0781547 3.40758 0.0813378 3.57841L1.90303 5.52998L1.47297 8.28562C1.45564 8.39656 1.49713 8.50866 1.58001 8.57483C1.66286 8.64098 1.77268 8.64971 1.86334 8.59732L4.11511 7.29632L4.11512 7.29632L4.11512 -2.40161e-14Z"
                                fill="#FFC107" fill-rule="evenodd" id="Path" stroke="none" />
                            <path
                                d="M0.230446 3.07406C0.0102719 3.10923 -0.0781547 3.40758 0.0813378 3.57841L1.90303 5.52998L1.47297 8.28562C1.45564 8.39656 1.49713 8.50866 1.58001 8.57483C1.66286 8.64098 1.77268 8.64971 1.86334 8.59732L4.11511 7.29632C6.56658 8.71272 6.3982 8.63132 6.49204 8.63132C6.54782 8.63132 6.60335 8.61225 6.6502 8.57483L2.74796 2.672L0.230446 3.07406Z"
                                fill="#F7AC16" fill-rule="evenodd" id="Path" stroke="none" />
                            <path
                                d="M0.0813378 3.57841L1.90303 5.52998L1.47297 8.28562C1.45564 8.39656 1.49713 8.50866 1.58001 8.57483C1.66286 8.64098 1.77268 8.64971 1.86334 8.59732L4.11511 7.29632C6.56658 8.71272 6.3982 8.63131 6.49204 8.63131C6.65787 8.63131 6.78555 8.46702 6.75724 8.28562L6.3272 5.52998L0.0132296 3.27529C-0.0182284 3.39922 0.0132618 3.50552 0.0813378 3.57841Z"
                                fill="#FFC107" fill-rule="evenodd" id="Path" stroke="none" />
                            <path
                                d="M1.47297 8.28562C1.45564 8.39656 1.49713 8.50866 1.58001 8.57484C1.66286 8.64098 1.77268 8.64971 1.86334 8.59732L4.11511 7.29632C6.56658 8.71272 6.3982 8.63132 6.49205 8.63132C6.65787 8.63132 6.78555 8.46702 6.75724 8.28562L6.3272 5.52998L8.1489 3.57841C8.22222 3.49985 8.2486 3.38233 8.21698 3.27531L1.90303 5.52998L1.47297 8.28562Z"
                                fill="#F7AC16" fill-rule="evenodd" id="Path" stroke="none" />
                            <path
                                d="M1.86336 8.59732L4.11511 7.29632C6.56658 8.71272 6.3982 8.63131 6.49204 8.63131C6.65787 8.63131 6.78555 8.46702 6.75724 8.28562L6.3272 5.52998L8.1489 3.57841C8.3082 3.4077 8.22013 3.10926 7.99978 3.07406L5.48225 2.67202L1.58001 8.57483C1.66286 8.64098 1.77268 8.6497 1.86336 8.59732Z"
                                fill="#FFC107" fill-rule="evenodd" id="Path" stroke="none" />
                            <path
                                d="M8.217 3.27529L4.11511 4.74005L1.58001 8.57483C1.66286 8.64098 1.77268 8.64971 1.86334 8.59732L4.11511 7.29632C6.56658 8.71272 6.3982 8.63131 6.49204 8.63131C6.65787 8.63131 6.78555 8.46702 6.75724 8.28562L6.3272 5.52998L8.1489 3.57841C8.22224 3.49983 8.24862 3.38233 8.217 3.27529Z"
                                fill="#F7AC16" fill-rule="evenodd" id="Path" stroke="none" />
                            <path
                                d="M6.32722 5.52998L4.11511 4.74005L1.58001 8.57483C1.66286 8.64098 1.77268 8.64971 1.86334 8.59732L4.11511 7.29632C6.56658 8.71272 6.3982 8.63132 6.49204 8.63132C6.65787 8.63132 6.78555 8.46702 6.75724 8.28562L6.32722 5.52998Z"
                                fill="#FFC107" fill-rule="evenodd" id="Path" stroke="none" />
                            <path
                                d="M1.58001 8.57483C1.66286 8.64098 1.77268 8.64971 1.86334 8.59732L4.11511 7.29632C6.56658 8.71272 6.3982 8.63132 6.49204 8.63132C6.54782 8.63132 6.60335 8.61225 6.6502 8.57483L4.11511 4.74005L1.58001 8.57483Z"
                                fill="#F7AC16" fill-rule="evenodd" id="Path" stroke="none" />
                            <path
                                d="M4.11512 4.74008L4.11511 4.74005L1.58001 8.57483C1.66286 8.64098 1.77268 8.64971 1.86334 8.59732L4.11511 7.29632L4.11512 7.29632L4.11512 4.74008Z"
                                fill="#FFC107" fill-rule="evenodd" id="Path" stroke="none" />
                        </g>
                    </g>
                </g>
                <g id="star-2-2-copy-8" transform="matrix(1 0 0 -1 12.034901 11.965099)">
                    <g id="star-2">
                        <g filter="url(#filter_2)" id="Path">
                            <use fill="none" stroke="#FFF6D9" stroke-width="2"
                                xlink:href="#path_2" />
                            <use fill="#F7AC16" fill-rule="evenodd" stroke="none"
                                xlink:href="#path_2" />
                        </g>
                        <path
                            d="M4.00002 0C3.90027 0 3.80945 0.0594161 3.76547 0.152756L2.6711 2.47634L0.224 2.84893C0.00998457 2.88152 -0.0759686 3.15802 0.0790627 3.31635L1.8498 5.12499L1.43177 7.67882C1.41492 7.78164 1.45525 7.88552 1.53581 7.94685C1.61634 8.00815 1.72309 8.01624 1.81122 7.9677L4 6.76197L4.00002 6.76197L4.00002 0Z"
                            fill="#FFC107" fill-rule="evenodd" id="Path" stroke="none" />
                        <path
                            d="M0.224 2.84893C0.00998457 2.88152 -0.0759686 3.15802 0.0790627 3.31635L1.8498 5.12499L1.43177 7.67882C1.41492 7.78164 1.45525 7.88552 1.53581 7.94686C1.61634 8.00815 1.72309 8.01624 1.81122 7.9677L4 6.76197C6.38291 8.07464 6.21924 7.9992 6.31046 7.9992C6.36467 7.9992 6.41864 7.98153 6.46419 7.94686L2.6711 2.47632L0.224 2.84893Z"
                            fill="#F7AC16" fill-rule="evenodd" id="Path" stroke="none" />
                        <path
                            d="M0.0790627 3.31635L1.8498 5.12499L1.43177 7.67882C1.41492 7.78164 1.45525 7.88552 1.53581 7.94686C1.61634 8.00815 1.72309 8.01624 1.81122 7.9677L4 6.76197C6.38291 8.07464 6.21924 7.9992 6.31046 7.9992C6.47164 7.9992 6.59575 7.84693 6.56824 7.67882L6.15022 5.12499L0.0128596 3.03543C-0.0177186 3.15028 0.0128908 3.24879 0.0790627 3.31635Z"
                            fill="#FFC107" fill-rule="evenodd" id="Path" stroke="none" />
                        <path
                            d="M1.43177 7.67882C1.41492 7.78164 1.45525 7.88552 1.53581 7.94685C1.61634 8.00815 1.72309 8.01624 1.81122 7.9677L4 6.76197C6.38291 8.07464 6.21924 7.9992 6.31046 7.9992C6.47164 7.9992 6.59575 7.84693 6.56824 7.67882L6.15022 5.12499L7.92097 3.31635C7.99224 3.24354 8.01788 3.13463 7.98714 3.03544L1.8498 5.12499L1.43177 7.67882Z"
                            fill="#F7AC16" fill-rule="evenodd" id="Path" stroke="none" />
                        <path
                            d="M1.81124 7.9677L4 6.76197C6.38291 8.07464 6.21924 7.9992 6.31046 7.9992C6.47164 7.9992 6.59575 7.84693 6.56824 7.67882L6.15022 5.12499L7.92097 3.31635C8.07582 3.15814 7.99021 2.88156 7.77602 2.84893L5.32891 2.47634L1.53581 7.94686C1.61634 8.00815 1.72309 8.01624 1.81124 7.9677Z"
                            fill="#FFC107" fill-rule="evenodd" id="Path" stroke="none" />
                        <path
                            d="M7.98716 3.03543L4 4.39291L1.53581 7.94686C1.61634 8.00815 1.72309 8.01624 1.81122 7.9677L4 6.76197C6.38291 8.07464 6.21924 7.9992 6.31046 7.9992C6.47164 7.9992 6.59575 7.84693 6.56824 7.67882L6.15022 5.12499L7.92097 3.31635C7.99225 3.24352 8.01789 3.13463 7.98716 3.03543Z"
                            fill="#F7AC16" fill-rule="evenodd" id="Path" stroke="none" />
                        <path
                            d="M6.15024 5.12499L4 4.39291L1.53581 7.94685C1.61634 8.00815 1.72309 8.01624 1.81122 7.9677L4 6.76197C6.38291 8.07464 6.21924 7.9992 6.31046 7.9992C6.47164 7.9992 6.59575 7.84693 6.56824 7.67882L6.15024 5.12499Z"
                            fill="#FFC107" fill-rule="evenodd" id="Path" stroke="none" />
                        <path
                            d="M1.53581 7.94685C1.61634 8.00815 1.72309 8.01624 1.81122 7.9677L4 6.76197C6.38291 8.07464 6.21924 7.9992 6.31046 7.9992C6.36467 7.9992 6.41864 7.98153 6.46419 7.94685L4 4.39291L1.53581 7.94685Z"
                            fill="#F7AC16" fill-rule="evenodd" id="Path" stroke="none" />
                        <path
                            d="M4.00002 4.39294L4 4.39291L1.53581 7.94685C1.61634 8.00815 1.72309 8.01624 1.81122 7.9677L4 6.76197L4.00002 6.76197L4.00002 4.39294Z"
                            fill="#FFC107" fill-rule="evenodd" id="Path" stroke="none" />
                    </g>
                </g>
            </g>
        </g>
    </g>
</svg>